<?xml version="1.0" encoding="UTF-8"?>
<svg xmlns="http://www.w3.org/2000/svg" xmlns:xlink="http://www.w3.org/1999/xlink" viewBox="0 0 24 24" width="24px" height="24px">
<g id="surface122923588">
<path style=" stroke:none;fill-rule:nonzero;fill:rgb(15.294118%,68.235296%,37.64706%);fill-opacity:1;" d="M 4 3 L 4 11 L 6 11 L 6 3 Z M 10 3 C 8.355469 3 7 4.355469 7 6 L 7 8 C 7 9.644531 8.355469 11 10 11 C 11.644531 11 13 9.644531 13 8 L 13 6 C 13 4.355469 11.644531 3 10 3 Z M 14 3 L 14 11 L 16 11 L 16 3 Z M 18 3 L 18 11 L 20 11 L 20 3 Z M 10 5 C 10.566406 5 11 5.433594 11 6 L 11 8 C 11 8.566406 10.566406 9 10 9 C 9.433594 9 9 8.566406 9 8 L 9 6 C 9 5.433594 9.433594 5 10 5 Z M 7 13 C 5.355469 13 4 14.355469 4 16 L 4 18 C 4 19.644531 5.355469 21 7 21 C 8.644531 21 10 19.644531 10 18 L 10 16 C 10 14.355469 8.644531 13 7 13 Z M 14 13 C 12.355469 13 11 14.355469 11 16 L 11 18 C 11 19.644531 12.355469 21 14 21 C 15.644531 21 17 19.644531 17 18 L 17 16 C 17 14.355469 15.644531 13 14 13 Z M 18 13 L 18 21 L 20 21 L 20 13 Z M 7 15 C 7.566406 15 8 15.433594 8 16 L 8 18 C 8 18.566406 7.566406 19 7 19 C 6.433594 19 6 18.566406 6 18 L 6 16 C 6 15.433594 6.433594 15 7 15 Z M 14 15 C 14.566406 15 15 15.433594 15 16 L 15 18 C 15 18.566406 14.566406 19 14 19 C 13.433594 19 13 18.566406 13 18 L 13 16 C 13 15.433594 13.433594 15 14 15 Z M 14 15 "/>
</g>
</svg>
