<?xml version="1.0" encoding="UTF-8"?><svg xmlns="http://www.w3.org/2000/svg" xmlns:xlink="http://www.w3.org/1999/xlink" contentScriptType="text/ecmascript" width="1440pt" zoomAndPan="magnify" contentStyleType="text/css" viewBox="0 0 1440 809.999993" height="809.999993pt" preserveAspectRatio="xMidYMid meet" version="1.2"><defs><clipPath xml:id="clip1" id="clip1"><path d="M 1169.765625 405 L 1439.765625 405 L 1439.765625 810 L 1169.765625 810 Z M 1169.765625 405 "/></clipPath><clipPath xml:id="clip2" id="clip2"><path d="M 1169.664062 0 L 1439.664062 0 L 1439.664062 405 L 1169.664062 405 Z M 1169.664062 0 "/></clipPath><clipPath xml:id="clip3" id="clip3"><path d="M 764.765625 405 L 1169.765625 405 L 1169.765625 810 L 764.765625 810 Z M 764.765625 405 "/></clipPath><clipPath xml:id="clip4" id="clip4"><path d="M 1170.046875 585.566406 L 1394.296875 585.566406 L 1394.296875 809.816406 L 1170.046875 809.816406 Z M 1170.046875 585.566406 "/></clipPath></defs><g xml:id="surface1" id="surface1"><rect x="0" width="1440" y="0" height="809.999993" style="fill:rgb(100%,100%,100%);fill-opacity:1;stroke:none;"/><rect x="0" width="1440" y="0" height="809.999993" style="fill:rgb(100%,100%,100%);fill-opacity:1;stroke:none;"/><rect x="0" width="1440" y="0" height="809.999993" style="fill:rgb(100%,100%,100%);fill-opacity:1;stroke:none;"/><g clip-rule="nonzero" clip-path="url(#clip1)"><path style=" stroke:none;fill-rule:nonzero;fill:rgb(6.269836%,8.628845%,27.449036%);fill-opacity:1;" d="M 1169.765625 405 L 1439.765625 405 L 1439.765625 810 L 1169.765625 810 Z M 1169.765625 405 "/></g><g clip-rule="nonzero" clip-path="url(#clip2)"><path style=" stroke:none;fill-rule:nonzero;fill:rgb(58.039856%,18.429565%,13.328552%);fill-opacity:1;" d="M 1169.664062 0 L 1439.664062 0 L 1439.664062 405 L 1169.664062 405 Z M 1169.664062 0 "/></g><path style=" stroke:none;fill-rule:nonzero;fill:rgb(100%,100%,100%);fill-opacity:1;" d="M 1169.738281 69.386719 L 1169.738281 336.382812 C 1243.464844 336.382812 1303.238281 276.613281 1303.238281 202.886719 C 1303.234375 129.15625 1243.464844 69.386719 1169.738281 69.386719 Z M 1169.738281 69.386719 "/><path style=" stroke:none;fill-rule:nonzero;fill:rgb(100%,100%,100%);fill-opacity:1;" d="M 1169.738281 69.386719 L 1169.738281 336.382812 C 1243.464844 336.382812 1303.238281 276.613281 1303.238281 202.886719 C 1303.234375 129.15625 1243.464844 69.386719 1169.738281 69.386719 Z M 1169.738281 69.386719 "/><path style=" stroke:none;fill-rule:nonzero;fill:rgb(6.269836%,8.628845%,27.449036%);fill-opacity:1;" d="M 1169.941406 69.390625 C 1096.34375 69.546875 1036.730469 129.253906 1036.730469 202.886719 C 1036.730469 276.519531 1096.34375 336.226562 1169.941406 336.378906 Z M 1169.941406 69.390625 "/><g clip-rule="nonzero" clip-path="url(#clip3)"><path style=" stroke:none;fill-rule:nonzero;fill:rgb(74.508667%,78.819275%,79.219055%);fill-opacity:1;" d="M 1169.765625 585.34375 L 1169.765625 405 C 946.089844 405 764.765625 586.324219 764.765625 810 L 945.113281 810 C 945.113281 685.925781 1045.695312 585.34375 1169.765625 585.34375 Z M 1169.765625 585.34375 "/></g><g clip-rule="nonzero" clip-path="url(#clip4)"><path style=" stroke:none;fill-rule:nonzero;fill:rgb(68.238831%,34.899902%,29.798889%);fill-opacity:1;" d="M 1394.296875 809.816406 C 1394.296875 685.96875 1293.894531 585.566406 1170.046875 585.566406 L 1170.046875 809.816406 Z M 1394.296875 809.816406 "/></g></g></svg>