<?xml version="1.0" encoding="UTF-8"?><svg xmlns="http://www.w3.org/2000/svg" xmlns:xlink="http://www.w3.org/1999/xlink" contentScriptType="text/ecmascript" width="1874.88pt" zoomAndPan="magnify" contentStyleType="text/css" viewBox="0 0 1874.88 1748.999931" height="1748.999931pt" preserveAspectRatio="xMidYMid meet" version="1.2"><defs><clipPath xml:id="clip1" id="clip1"><path d="M 0 567.488281 L 813 567.488281 L 813 1181.699219 L 0 1181.699219 Z M 0 567.488281 "/></clipPath><clipPath xml:id="clip2" id="clip2"><path d="M 197 567.488281 L 1874.761719 567.488281 L 1874.761719 1168 L 197 1168 Z M 197 567.488281 "/></clipPath></defs><g xml:id="surface1" id="surface1"><g clip-rule="nonzero" clip-path="url(#clip1)"><path style=" stroke:none;fill-rule:nonzero;fill:rgb(90.19928%,10.198975%,15.289307%);fill-opacity:1;" d="M 719.976562 1103.40625 C 650.210938 1058.4375 555.53125 1050.546875 402.839844 1092.933594 C 240.0625 1131.210938 185.789062 1155.746094 114.511719 1106.492188 C 87.128906 1082.296875 77.3125 1043.335938 84.644531 987.222656 C 101.648438 895.742188 147.59375 807.707031 229.214844 710.054688 C 274.769531 659.257812 317.027344 615.664062 372.828125 598.15625 C 415.59375 587.175781 411.59375 620.804688 406.421875 625.613281 C 400.960938 625.613281 391.785156 626.476562 384.695312 631.105469 C 378.945312 635.570312 363.148438 649.988281 362.300781 669.378906 C 361.078125 699.066406 391.78125 692.890625 405.027344 676.589844 C 419.300781 658.21875 440.398438 623.042969 423.800781 590.261719 C 416.847656 578.59375 404.828125 570.527344 389.90625 567.78125 C 338.8125 564.859375 291.226562 589.230469 247.308594 616.175781 C 151.261719 682.9375 74.433594 775.441406 30.957031 876.703125 C 5.898438 937.796875 -16.769531 1025.3125 17.203125 1096.542969 C 43.488281 1145.96875 98.054688 1172.21875 163.160156 1166.730469 C 208.820312 1161.929688 264.03125 1147.164062 301.167969 1138.246094 C 338.304688 1129.316406 528.386719 1063.9375 590.84375 1177.730469 C 590.84375 1177.730469 611.613281 1137.386719 663.519531 1136.527344 C 706.191406 1132.585938 767.75 1148.886719 812.578125 1181.832031 C 797.644531 1159.359375 755.300781 1126.234375 719.976562 1103.40625 Z M 719.976562 1103.40625 "/></g><g clip-rule="nonzero" clip-path="url(#clip2)"><path style=" stroke:none;fill-rule:nonzero;fill:rgb(90.19928%,10.198975%,15.289307%);fill-opacity:1;" d="M 422.222656 721.550781 C 386.671875 698.210938 315.214844 742.832031 257.980469 819.371094 C 205.644531 888.027344 183.042969 967.824219 207.640625 1004.722656 C 244.222656 1048.140625 312.144531 984.984375 341.027344 951.183594 L 344.753906 947.230469 C 364.394531 926.121094 379.566406 900.71875 394.257812 876.34375 C 394.257812 876.34375 407.757812 854.035156 408.402344 853.003906 C 416.742188 851.464844 426.792969 849.0625 438.117188 845.800781 C 437.957031 846.308594 394.792969 918.90625 399.195312 954.941406 C 400.566406 965.933594 399.519531 1006.09375 438.703125 1018.277344 C 490.929688 1027.035156 532.628906 986.527344 569.417969 950.484375 C 569.417969 950.484375 575.6875 944.484375 579.234375 941.058594 C 578.335938 944.652344 577.167969 949.445312 577.167969 949.445312 C 561.878906 1002.652344 582.488281 1013.816406 595.378906 1017.933594 C 634.34375 1029.269531 680.886719 972.628906 681.039062 972.628906 C 679.832031 990.472656 676.304688 1005.226562 695.101562 1017.074219 C 712.839844 1023.429688 730.792969 1013.738281 744.441406 1004.640625 C 793.597656 969.976562 833.203125 915.71875 865.1875 868.820312 L 844.785156 868.820312 C 844.542969 868.820312 794.4375 941.488281 761.902344 957.28125 C 761.851562 957.28125 755.929688 960.324219 752.519531 957.917969 C 748.292969 954.3125 749.957031 946.816406 752.566406 941.507812 C 752.730469 941.160156 878.195312 723.429688 878.195312 723.429688 L 818.957031 723.429688 C 818.957031 723.429688 812.484375 733.902344 811.957031 734.589844 C 811.558594 734.25 810.613281 732.445312 809.957031 731.585938 C 773.253906 680.785156 690.144531 758.921875 627.570312 849.535156 C 603.480469 884.378906 572.8125 923.605469 541.007812 951.921875 C 541.007812 951.921875 493.894531 995.136719 473.761719 964.089844 C 466.40625 951.042969 468.667969 931.972656 472.820312 919.445312 C 496.257812 852.683594 536.644531 792.09375 582.605469 755.539062 C 595.578125 745.417969 609.679688 742.492188 616.675781 746.785156 C 623.347656 750.738281 624.421875 760.511719 620.203125 767.207031 C 609.5 766.863281 600.921875 770.121094 593.953125 777.328125 C 580.21875 791.746094 575.449219 805.648438 579.8125 818.695312 C 601.027344 848.898438 643.328125 789.171875 641.285156 752.789062 C 640.554688 739.746094 633.597656 727.390625 623.21875 721.378906 C 607.746094 712.117188 584.148438 714.515625 568.875 721.898438 C 548.425781 729.617188 516.0625 756.5625 497.171875 777.503906 C 473.386719 803.765625 432.597656 832.9375 419.84375 829.667969 C 424.011719 818.511719 458.464844 747.976562 422.222656 721.550781 Z M 707.816406 825.898438 C 719.339844 809.9375 752.878906 767.203125 761.054688 759.996094 C 788.554688 735.789062 799.546875 746.441406 800.5 753.984375 C 774.832031 799.980469 744.542969 852.667969 716.0625 900.039062 C 716.121094 899.871094 707.152344 913.597656 707.152344 913.597656 C 694.574219 932.8125 681.90625 949.289062 661.25 960.785156 C 658.304688 961.652344 653.445312 961.996094 650.214844 959.582031 C 646.324219 957.007812 644.789062 952.714844 645.226562 948.253906 C 646.46875 933.5 661.480469 888.371094 707.816406 825.898438 Z M 385.558594 853.527344 C 385.558594 853.527344 385.042969 855.074219 384.789062 855.582031 C 384.722656 855.582031 358.960938 897.625 358.960938 897.625 C 343.414062 918.394531 324 944.488281 299.734375 957.007812 C 292.542969 959.410156 282.597656 960.960938 277.53125 954.617188 C 266.789062 941.742188 272.328125 923.890625 276.824219 909.476562 L 278.417969 904.328125 C 291.3125 869.320312 311.769531 838.421875 331.683594 809.761719 C 331.933594 809.59375 332.492188 809.421875 332.691406 809.421875 C 332.742188 809.59375 332.820312 809.59375 332.855469 809.9375 C 345.351562 833.960938 368.78125 845.113281 386.304688 850.269531 C 386.410156 850.269531 386.523438 850.441406 386.523438 850.785156 C 386.527344 851.296875 386.242188 851.988281 385.558594 853.527344 Z M 409.964844 803.933594 C 409.851562 804.277344 398.492188 830.363281 398.492188 830.363281 C 396.847656 831.734375 394.253906 831.046875 391.277344 830.363281 L 386.175781 829.5 C 370.164062 824.523438 358.082031 813.882812 354.359375 801.183594 C 349.222656 776.46875 370.324219 757.078125 379.617188 750.042969 C 388.539062 743.859375 402.40625 740.601562 410.457031 746.953125 C 415.425781 752.789062 417.304688 760.339844 417.304688 768.582031 C 417.308594 779.730469 413.867188 792.257812 409.964844 803.933594 Z M 1158.839844 883.558594 C 1153.125 871.203125 1139.570312 863.308594 1125.117188 864.164062 C 1078.191406 868.457031 1032.292969 907.074219 1008.191406 962.5 C 995.542969 990.992188 988.644531 1014.503906 984.117188 1051.914062 C 998.710938 1035.101562 1028.476562 1007.472656 1062.25 992.367188 C 1062.25 992.367188 1066.847656 956.5 1090.28125 924.578125 C 1099.152344 911.359375 1116.894531 890.082031 1136.824219 895.742188 C 1154.238281 901.578125 1148.117188 949.804688 1124.976562 996.476562 C 1107.851562 1030.804688 1081.652344 1065.140625 1055.140625 1088.816406 C 1031.703125 1108.722656 997.023438 1132.75 966.683594 1114.21875 C 947.574219 1102.894531 937.828125 1079.203125 939.882812 1048.660156 C 949.015625 961.992188 988.445312 888.195312 1044.867188 804.101562 C 1103.042969 726.015625 1167.171875 645.867188 1253.566406 603.128906 C 1271.1875 594.207031 1287.507812 592.144531 1301.613281 597.636719 C 1301.613281 597.636719 1220.515625 642.257812 1181.855469 724.8125 C 1172.023438 745.753906 1158.34375 774.0625 1172.117188 799.121094 C 1179.316406 812.160156 1192.09375 813.195312 1202.382812 812.507812 C 1249.769531 801.519531 1280.382812 757.242188 1305.398438 716.746094 C 1319.898438 686.023438 1332.789062 655.476562 1332.789062 621.496094 C 1332.789062 617.375 1332.574219 611.886719 1332.230469 607.765625 C 1354.867188 595.753906 1401.289062 617.03125 1401.289062 617.03125 C 1437.566406 629.050781 1514.808594 688.261719 1540.867188 699.582031 C 1553.574219 684.828125 1574.460938 662.519531 1586.222656 651.359375 L 1569.195312 640.890625 C 1541.941406 624.242188 1513.132812 608.453125 1484.777344 592.835938 C 1420.375 557.65625 1367.953125 570.011719 1341.277344 579.625 C 1330.792969 583.398438 1321.210938 586.660156 1321.210938 586.660156 C 1301.414062 565.035156 1268.941406 567.089844 1245.015625 572.929688 C 1158.972656 597.640625 1079.085938 657.878906 993.4375 762.398438 C 930.46875 844.261719 891.410156 914.972656 870.59375 984.820312 C 854.546875 1031.84375 849.667969 1101.003906 888.835938 1142.023438 C 922.136719 1176.855469 966.292969 1169.308594 997.472656 1156.785156 C 1065.03125 1123.492188 1125.75 1051.75 1156.007812 969.195312 C 1163.308594 944.660156 1171.410156 909.992188 1158.839844 883.558594 Z M 1314.191406 624.929688 C 1305.246094 727.558594 1225.519531 787.804688 1205.792969 792.601562 C 1193.835938 795 1173.4375 789.683594 1191.648438 746.613281 C 1218.464844 688.601562 1264.253906 639.347656 1313.375 614.121094 C 1314.570312 618.410156 1314.539062 621.148438 1314.191406 624.929688 Z M 1787.125 637.96875 C 1744.238281 662.34375 1699.78125 678.125 1645.964844 672.636719 C 1631.054688 689.460938 1616.53125 706.792969 1603.148438 724.636719 C 1678.679688 743.859375 1758.753906 701.128906 1803.410156 660.457031 C 1850.65625 619.4375 1874.878906 567.785156 1874.878906 567.785156 C 1874.878906 567.785156 1839.46875 608.28125 1787.125 637.96875 Z M 976.644531 723.433594 L 920.390625 723.433594 L 888.65625 775.023438 L 944.902344 775.023438 Z M 976.644531 723.433594 "/></g><path style=" stroke:none;fill-rule:nonzero;fill:rgb(90.19928%,10.198975%,15.289307%);fill-opacity:1;" d="M 1645.742188 1108.183594 C 1639.691406 1112.300781 1631.195312 1109.132812 1634.371094 1099.699219 C 1642.285156 1075.671875 1673.753906 1026.707031 1673.753906 1026.707031 L 1761.394531 871.167969 L 1701.363281 871.167969 C 1698.507812 875.859375 1692.40625 886.628906 1692.40625 886.628906 C 1689.628906 882 1681.324219 871.707031 1677.90625 869.480469 C 1663.238281 860.207031 1641.722656 864.59375 1626.878906 873 C 1562.335938 910.761719 1515.246094 985.367188 1478.109375 1043.550781 C 1478.109375 1043.550781 1439.015625 1108.226562 1417.316406 1113.035156 C 1400.375 1114.410156 1402.121094 1091.574219 1402.855469 1086.253906 C 1409.40625 1047.804688 1424.617188 1011.253906 1439.941406 978.128906 C 1471.117188 956.503906 1506.691406 928.1875 1539.019531 897.128906 C 1609.183594 830.015625 1668.335938 753.988281 1676.980469 737 C 1676.980469 737 1667.621094 738.890625 1656.570312 739.230469 C 1602.59375 814.570312 1492.136719 924.070312 1458.648438 940.371094 C 1473.484375 904.664062 1569.332031 734.25 1650.894531 652.734375 L 1663.730469 640.371094 C 1683.578125 620.976562 1704.140625 601.070312 1720.164062 597.808594 C 1721.855469 597.636719 1724.035156 597.808594 1725.917969 601.761719 C 1726.632812 616.863281 1721.015625 628.019531 1714.570312 640.71875 L 1705.539062 659.257812 C 1705.539062 659.257812 1718.332031 656.851562 1726.738281 654.101562 C 1736.484375 635.746094 1747.28125 615.144531 1743.300781 590.609375 C 1741.976562 582.710938 1736.261719 576.707031 1728.796875 575.332031 C 1704.464844 570.699219 1677.949219 588.714844 1656.609375 603.304688 L 1655.75 603.816406 C 1546.066406 689.800781 1453.449219 813.710938 1372.472656 982.933594 C 1366.605469 987.386719 1343.929688 992.714844 1340.078125 990.136719 C 1348.074219 973.664062 1358.140625 951.519531 1363.179688 927.492188 C 1364.050781 920.625 1364.859375 913.59375 1364.859375 906.730469 C 1364.859375 891.957031 1361.316406 878.0625 1348.09375 868.457031 C 1332.589844 860.730469 1313.425781 864.339844 1300.503906 870.167969 C 1242.625 894.195312 1199.363281 953.582031 1168.144531 1002.488281 C 1151.355469 1033.558594 1134.613281 1066.835938 1129.980469 1104.945312 C 1126.714844 1134.800781 1133.359375 1154.023438 1150.328125 1163.636719 C 1167.773438 1172.554688 1189.734375 1163.285156 1198.359375 1158.828125 C 1257 1127.933594 1297.972656 1065.984375 1330.265625 1009.347656 C 1331.550781 1009.175781 1349.183594 1008.667969 1362.523438 1005.226562 C 1362.699219 1005.226562 1362.777344 1005.226562 1363.070312 1005.40625 C 1362.308594 1007.972656 1355.414062 1028.574219 1355.414062 1028.574219 C 1334.945312 1088.632812 1325.480469 1129.484375 1344.8125 1153.679688 C 1372.441406 1187.832031 1418.183594 1152.484375 1455.394531 1105.796875 C 1447.40625 1161.742188 1476.382812 1170.5 1498.472656 1166.210938 C 1523.847656 1159.351562 1552.125 1132.226562 1565.246094 1118.332031 C 1561.03125 1134.632812 1562.175781 1163.8125 1585.261719 1166.726562 C 1601.078125 1169.652344 1612.921875 1161.042969 1626.621094 1153.660156 C 1675.761719 1126.882812 1734.589844 1037.664062 1749.863281 1011.867188 L 1729.835938 1011.867188 C 1708.125 1044.703125 1680.496094 1087.75 1645.742188 1108.183594 Z M 1204.632812 1102.207031 C 1201.515625 1097.570312 1200.484375 1092.503906 1200.378906 1087.027344 C 1199.78125 1053.375 1235.96875 993.113281 1261.507812 960.28125 L 1261.558594 960.28125 C 1272.261719 983.730469 1296.5 998.804688 1311.128906 1005.15625 C 1292.960938 1045.664062 1230.636719 1132.410156 1204.632812 1102.207031 Z M 1321.386719 987.050781 C 1319.65625 988.257812 1289.09375 977.957031 1283.1875 949.640625 C 1278.175781 925.261719 1294.953125 906.210938 1311.1875 896.609375 C 1318.152344 891.113281 1328.648438 889.234375 1336.347656 891.96875 C 1343.492188 896.78125 1345.429688 905.371094 1345.429688 914.621094 C 1345.429688 920.296875 1344.675781 926.125 1344.011719 931.445312 L 1343.867188 932.648438 C 1338.726562 951.757812 1331.234375 969.890625 1321.386719 987.050781 Z M 1566.519531 1091.394531 C 1566.496094 1091.394531 1560.71875 1096.542969 1560.71875 1096.542969 C 1552.476562 1103.921875 1543.992188 1111.816406 1533.75 1107.867188 C 1530.921875 1106.839844 1528.933594 1103.066406 1528.453125 1100.140625 C 1527.988281 1079.027344 1537.484375 1059.46875 1546.699219 1040.421875 L 1549.0625 1035.441406 C 1575.566406 991.164062 1606.367188 938.992188 1651.609375 902.785156 C 1659.234375 897.28125 1667.507812 892.65625 1676.238281 896.265625 C 1678.246094 898.148438 1680.585938 901.410156 1680.585938 904.667969 C 1680.585938 905.703125 1679.667969 908.445312 1679.140625 909.300781 C 1666.503906 929.734375 1654.472656 951.183594 1642.769531 971.777344 C 1619.902344 1012.449219 1596.175781 1054.492188 1566.519531 1091.394531 Z M 1566.519531 1091.394531 "/></g></svg>