<?xml version="1.0" encoding="UTF-8"?><svg xmlns="http://www.w3.org/2000/svg" xmlns:xlink="http://www.w3.org/1999/xlink" contentScriptType="text/ecmascript" width="1874.88pt" zoomAndPan="magnify" contentStyleType="text/css" viewBox="0 0 1874.88 1748.999931" height="1748.999931pt" preserveAspectRatio="xMidYMid meet" version="1.2"><defs><clipPath xml:id="clip1" id="clip1"><path d="M 62.996094 0.0546875 L 1811.882812 0.0546875 L 1811.882812 1748.941406 L 62.996094 1748.941406 Z M 62.996094 0.0546875 "/></clipPath></defs><g xml:id="surface1" id="surface1"><g clip-rule="nonzero" clip-path="url(#clip1)"><path style=" stroke:none;fill-rule:evenodd;fill:rgb(100%,100%,100%);fill-opacity:1;" d="M 62.996094 0.0546875 L 1811.882812 0.0546875 L 1811.882812 1748.945312 L 62.996094 1748.945312 Z M 62.996094 0.0546875 "/></g><path style=" stroke:none;fill-rule:evenodd;fill:rgb(0%,0%,0%);fill-opacity:1;" d="M 157.628906 555.320312 L 125.492188 553.65625 L 112.246094 551.007812 L 109.59375 546.035156 C 109.59375 541.402344 112.90625 539.414062 119.539062 539.414062 L 451.859375 539.414062 C 607.578125 539.414062 716.910156 586.792969 780.53125 681.878906 C 816.976562 736.878906 835.195312 802.152344 835.195312 877.695312 C 835.195312 917.125 829.234375 955.222656 816.96875 991.996094 C 803.058594 1030.765625 783.84375 1064.898438 758.992188 1095.382812 C 731.816406 1127.511719 698.691406 1152.371094 660.585938 1170.589844 C 619.828125 1189.144531 574.109375 1198.753906 522.753906 1198.753906 L 98.988281 1198.753906 C 92.03125 1198.753906 88.71875 1196.429688 88.71875 1192.464844 C 88.71875 1188.15625 93.691406 1185.84375 102.960938 1185.84375 L 184.140625 1180.878906 C 196.734375 1179.210938 205.679688 1175.5625 209.988281 1170.601562 L 218.273438 1158.996094 C 221.257812 1151.054688 222.917969 1139.132812 223.246094 1122.894531 L 223.246094 597.398438 C 223.246094 576.859375 211.648438 564.265625 189.121094 559.292969 Z M 336.550781 564.265625 L 334.226562 577.519531 L 334.226562 1160.980469 C 334.226562 1167.605469 335.550781 1172.234375 338.199219 1173.902344 L 351.457031 1175.890625 L 395.1875 1175.890625 L 496.570312 1172.242188 C 523.734375 1169.265625 546.925781 1164.957031 565.152344 1158.984375 C 583.386719 1152.335938 600.171875 1143.0625 615.507812 1131.167969 C 628.765625 1120.234375 642.347656 1104.65625 657.265625 1084.777344 C 682.105469 1052.3125 699.996094 1010.894531 710.929688 960.203125 C 717.554688 927.085938 720.875 894.941406 720.875 864.128906 C 720.875 836.964844 716.902344 807.804688 708.617188 776.328125 C 697.023438 730.9375 679.457031 691.179688 654.605469 657.382812 C 606.5625 591.785156 527.710938 559.3125 418.707031 559.3125 L 351.445312 559.3125 C 343.835938 558.628906 338.863281 560.289062 336.550781 564.265625 Z M 900.457031 1193.78125 C 899.796875 1189.796875 903.109375 1188.148438 910.402344 1188.148438 L 933.59375 1187.476562 C 946.1875 1185.824219 953.808594 1181.523438 956.785156 1174.890625 L 961.09375 1151.039062 L 961.09375 958.535156 C 961.09375 951.25 958.433594 945.613281 953.472656 942.304688 L 936.242188 940.632812 L 913.050781 946.9375 L 900.457031 946.269531 C 898.796875 942.292969 903.769531 938.648438 915.363281 935.335938 C 942.867188 928.050781 967.0625 918.765625 987.597656 907.171875 C 1000.179688 899.886719 1009.125 895.902344 1013.101562 894.253906 L 1023.042969 893.261719 C 1026.355469 893.917969 1028.027344 900.546875 1028.027344 912.472656 L 1028.027344 1154.992188 C 1028.027344 1166.578125 1030.664062 1174.871094 1035.648438 1179.835938 C 1041.597656 1185.804688 1055.527344 1188.78125 1077.054688 1188.78125 C 1084.675781 1188.78125 1088.644531 1190.453125 1089.324219 1194.082031 C 1089.324219 1197.074219 1087 1198.0625 1083.015625 1198.0625 L 906.417969 1198.0625 C 902.445312 1198.089844 900.457031 1196.421875 900.457031 1193.78125 Z M 1682.375 955.222656 C 1666.144531 972.125 1655.210938 991.996094 1649.238281 1015.847656 L 1649.238281 1156.671875 C 1649.238281 1169.257812 1653.550781 1178.203125 1662.496094 1183.835938 L 1682.71875 1187.464844 L 1703.914062 1189.789062 C 1708.894531 1190.460938 1710.882812 1191.457031 1710.882812 1194.097656 L 1709.894531 1196.421875 L 1704.257812 1198.089844 L 1527 1198.089844 C 1521.699219 1198.089844 1518.722656 1196.421875 1518.722656 1193.78125 L 1523.6875 1189.796875 L 1553.511719 1187.476562 C 1565.097656 1185.488281 1572.402344 1181.523438 1576.375 1175.554688 L 1581.355469 1160.648438 L 1581.355469 961.855469 L 1578.027344 947.273438 L 1572.410156 943.964844 C 1570.738281 942.3125 1568.101562 941.324219 1564.117188 940.652344 C 1559.152344 940.335938 1553.183594 941.324219 1546.894531 943.964844 L 1530.011719 948.609375 L 1520.382812 946.285156 C 1518.734375 943.964844 1519.394531 942.3125 1521.710938 941.324219 L 1535.953125 935.351562 C 1568.417969 925.746094 1594.59375 915.808594 1612.828125 905.546875 L 1635.347656 893.28125 L 1645.292969 893.933594 L 1649.265625 902.226562 L 1649.265625 975.113281 C 1674.128906 934.691406 1693.996094 909.847656 1707.589844 901.554688 C 1715.863281 896.59375 1723.820312 892.609375 1729.789062 890.957031 L 1741.375 889.96875 C 1748.664062 889.296875 1756.957031 891.621094 1766.21875 897.589844 C 1778.820312 904.875 1785.445312 915.808594 1786.097656 929.71875 C 1786.769531 941.324219 1783.441406 950.277344 1776.152344 957.21875 C 1769.53125 962.855469 1762.898438 964.523438 1756.945312 962.855469 C 1751.3125 961.863281 1747.003906 959.542969 1744.027344 956.230469 L 1734.746094 944.644531 C 1727.460938 934.027344 1720.5 930.71875 1712.226562 933.710938 C 1702.582031 936.332031 1692.65625 943.636719 1682.375 955.222656 Z M 989.917969 682.875 C 977.652344 682.875 967.714844 687.1875 959.441406 695.46875 C 950.496094 703.753906 946.1875 714.351562 946.839844 726.617188 C 946.1875 738.214844 950.488281 748.15625 959.441406 756.441406 C 967.714844 764.726562 977.660156 769.027344 989.917969 769.027344 C 1001.503906 769.027344 1011.785156 764.714844 1020.058594 756.441406 C 1028.332031 748.15625 1032.980469 738.222656 1032.980469 726.617188 C 1032.980469 714.351562 1028.332031 703.753906 1020.058594 695.46875 C 1011.785156 687.1875 1001.503906 682.875 989.917969 682.875 Z M 1165.519531 947.265625 C 1177.441406 931.371094 1192.367188 918.113281 1210.25 907.515625 C 1226.164062 898.234375 1242.058594 892.273438 1258.625 889.28125 L 1319.925781 885.652344 C 1342.109375 886.640625 1362.667969 890.949219 1381.222656 899.222656 C 1425.953125 919.101562 1454.105469 955.558594 1464.703125 1008.5625 C 1475.636719 1062.238281 1466.371094 1107.640625 1437.203125 1144.414062 C 1412.359375 1175.554688 1379.550781 1195.433594 1338.144531 1204.042969 C 1294.746094 1213.652344 1254.324219 1210.667969 1217.871094 1195.769531 C 1170.480469 1176.542969 1141.675781 1138.445312 1132.382812 1082.78125 C 1124.101562 1030.113281 1135.03125 985.371094 1165.519531 947.265625 Z M 1359.664062 932.367188 C 1339.457031 909.847656 1313.945312 899.90625 1283.125 902.542969 C 1253.320312 905.539062 1230.453125 922.089844 1215.539062 953.5625 C 1201.964844 982.0625 1196.984375 1016.867188 1201.964844 1057.9375 C 1205.59375 1098.695312 1218.53125 1131.160156 1239.390625 1156.011719 C 1261.59375 1182.1875 1286.78125 1193.117188 1314.933594 1188.15625 C 1344.421875 1182.523438 1365.96875 1166.609375 1380.214844 1140.113281 C 1394.125 1112.949219 1399.085938 1077.828125 1395.773438 1033.097656 C 1391.808594 988.367188 1380.222656 955.222656 1359.664062 932.367188 Z M 898.136719 946.949219 L 898.136719 950.261719 L 890.839844 945.613281 L 890.839844 947.265625 L 891.503906 950.261719 L 890.503906 950.261719 L 890.503906 943.953125 L 890.839844 943.953125 L 897.464844 948.933594 L 897.464844 943.953125 L 898.789062 943.953125 Z M 898.136719 946.949219 "/><path style=" stroke:none;fill-rule:evenodd;fill:rgb(0%,0%,0%);fill-opacity:1;" d="M 910.394531 944.625 L 906.417969 944.625 L 906.417969 946.949219 L 909.730469 946.949219 L 909.730469 947.265625 L 906.417969 947.265625 L 906.417969 949.589844 L 910.394531 949.589844 L 910.394531 950.269531 L 905.429688 950.269531 L 905.429688 943.953125 L 910.394531 943.953125 Z M 928.621094 943.953125 L 928.957031 943.953125 L 925.644531 950.261719 L 924.648438 950.261719 L 921.996094 945.277344 L 919.011719 950.261719 L 918.675781 950.261719 C 917.015625 947.265625 915.699219 945.277344 915.363281 943.953125 L 917.027344 943.953125 L 919.011719 948.933594 L 921.996094 943.953125 L 922.988281 943.953125 L 925.308594 948.933594 L 927.957031 943.953125 Z M 937.894531 947.265625 L 938.554688 950.269531 L 936.90625 950.269531 L 936.90625 947.945312 L 933.59375 943.953125 L 935.246094 943.953125 L 937.894531 947.265625 L 940.542969 943.953125 L 941.875 943.953125 Z M 947.175781 945.289062 C 947.828125 944.636719 949.496094 943.964844 951.148438 943.964844 C 952.820312 943.964844 953.808594 944.632812 955.132812 945.289062 C 955.449219 945.625 956.121094 946.277344 956.121094 947.273438 L 955.132812 949.597656 C 953.808594 950.269531 952.808594 950.269531 951.148438 950.269531 C 949.5 950.269531 947.835938 950.269531 947.175781 949.597656 L 945.507812 947.273438 C 945.515625 946.277344 946.1875 945.625 947.175781 945.289062 Z M 953.808594 945.289062 L 951.148438 944.636719 L 948.507812 945.289062 C 947.835938 945.625 947.183594 946.277344 947.183594 947.273438 C 947.183594 947.945312 947.835938 948.601562 948.507812 948.945312 L 951.148438 950.269531 C 952.136719 950.269531 953.472656 949.597656 953.808594 948.945312 C 954.460938 948.609375 955.132812 947.957031 955.132812 947.273438 C 955.132812 946.277344 954.460938 945.625 953.808594 945.289062 Z M 963.742188 944.625 L 963.40625 946.949219 L 964.394531 946.949219 C 966.046875 946.949219 967.054688 946.277344 967.054688 945.625 C 967.054688 945.289062 966.71875 944.632812 965.050781 944.632812 L 963.742188 944.632812 Z M 965.394531 943.953125 C 967.0625 943.953125 968.371094 944.625 968.371094 945.625 L 967.054688 946.949219 L 965.386719 947.265625 L 969.367188 950.261719 L 967.699219 950.261719 L 963.726562 947.265625 L 963.40625 947.265625 L 963.742188 950.261719 L 962.074219 950.261719 L 962.074219 943.953125 Z M 981.960938 943.953125 L 977.660156 946.949219 L 981.960938 950.269531 L 980.320312 950.269531 L 976.664062 947.265625 L 976.664062 946.949219 L 975.992188 947.265625 L 976.664062 950.269531 L 975.003906 950.269531 L 975.003906 943.953125 L 976.664062 943.953125 L 975.992188 946.949219 L 976.664062 946.949219 L 980.972656 943.953125 Z M 981.960938 943.953125 "/></g></svg>