<?xml version="1.0" encoding="UTF-8" standalone="no" ?>
<!DOCTYPE svg PUBLIC "-//W3C//DTD SVG 1.1//EN" "http://www.w3.org/Graphics/SVG/1.1/DTD/svg11.dtd">
<svg xmlns="http://www.w3.org/2000/svg" xmlns:xlink="http://www.w3.org/1999/xlink" version="1.1" width="640" height="480" viewBox="0 0 640 480" xml:space="preserve">
<desc>Created with Fabric.js 3.6.3</desc>
<defs>
</defs>
<g transform="matrix(1 0 0 1 342.23 243.97)" id="path2"  >
<path style="stroke: none; stroke-width: 2.14451; stroke-dasharray: none; stroke-linecap: butt; stroke-dashoffset: 0; stroke-linejoin: miter; stroke-miterlimit: 4; fill: rgb(255,255,255); fill-rule: nonzero; opacity: 1;"  transform=" translate(-345.66, -436.27)" d="m 181.86457 511.11411 c -12.52385 -0.49755 -22.77022 -3.92442 -30.78203 -10.28929 c -1.52903 -1.21591 -5.17253 -4.86157 -6.39486 -6.39916 c -3.24891 -4.08526 -5.45776 -8.06114 -6.93105 -12.47237 c -4.53342 -13.57891 -2.20024 -31.39748 6.6737 -50.9531 c 7.59794 -16.74202 19.32186 -33.34686 39.77599 -56.34437 c 3.01299 -3.38402 11.98555 -13.28082 12.04347 -13.28082 c 0.0216 0 -0.46749 0.84706 -1.08296 1.87861 c -5.31833 8.90818 -9.86893 19.40114 -12.34799 28.48523 c -3.9823 14.57611 -3.50195 27.08494 1.40678 36.78443 c 3.38615 6.68225 9.19133 12.47025 15.71914 15.66981 c 11.42798 5.59929 28.15931 6.0625 48.59201 1.35536 c 1.40679 -0.32599 71.11561 -18.83079 154.90943 -41.12278 c 83.79385 -22.29414 152.36394 -40.52017 152.37467 -40.50516 c 0.0237 0.0193 -194.67687 83.33278 -295.74887 126.555 c -16.00652 6.84309 -20.28691 8.57151 -27.8119 11.21354 c -19.23607 6.75513 -36.46708 9.97833 -50.39553 9.42507 z" stroke-linecap="round" />
</g>
</svg>