<?xml version="1.0" encoding="UTF-8"?><svg xmlns="http://www.w3.org/2000/svg" xmlns:xlink="http://www.w3.org/1999/xlink" contentScriptType="text/ecmascript" width="1874.88pt" zoomAndPan="magnify" contentStyleType="text/css" viewBox="0 0 1874.88 1748.999931" height="1748.999931pt" preserveAspectRatio="xMidYMid meet" version="1.2"><defs><clipPath xml:id="clip1" id="clip1"><path d="M 52.46875 0.0546875 L 1822.308594 0.0546875 L 1822.308594 1748.941406 L 52.46875 1748.941406 Z M 52.46875 0.0546875 "/></clipPath></defs><g xml:id="surface1" id="surface1"><g clip-rule="nonzero" clip-path="url(#clip1)"><path style=" stroke:none;fill-rule:evenodd;fill:rgb(100%,100%,100%);fill-opacity:1;" d="M 52.46875 -10.46875 L 1822.308594 -10.46875 L 1822.308594 1759.371094 L 52.46875 1759.371094 Z M 52.46875 -10.46875 "/></g><path style=" stroke:none;fill-rule:evenodd;fill:rgb(0%,0%,0%);fill-opacity:1;" d="M 789.976562 841 L 592.476562 848.035156 L 780.003906 858.457031 Z M 766.351562 882.503906 L 568.382812 889.542969 L 756.609375 900.003906 Z M 742.726562 924.351562 L 545.007812 931.292969 L 733.003906 941.742188 Z M 719.589844 965.992188 L 521.621094 973.042969 L 709.398438 983.472656 Z M 961.59375 631.519531 L 709.515625 640.488281 L 962.308594 654.539062 Z M 959.996094 590.328125 L 733.546875 598.273438 L 960.710938 611.300781 Z M 958.378906 550.601562 L 756.621094 557.238281 L 959.351562 568.496094 Z M 957.019531 509.816406 L 780.171875 515.726562 L 957.71875 526.214844 Z M 955.871094 476.84375 L 802.058594 476.84375 L 956.101562 485.015625 Z M 695.734375 1007.613281 L 498.246094 1014.765625 L 691.703125 1014.765625 Z M 695.734375 1007.613281 "/><path style=" stroke:none;fill-rule:evenodd;fill:rgb(0%,0%,0%);fill-opacity:1;" d="M 1365.03125 478.175781 L 1080.414062 478.175781 L 1072.34375 492.460938 L 1214.769531 500.019531 C 1216.441406 500.019531 1216.441406 502.386719 1214.054688 502.386719 L 1064.042969 507.398438 L 1049.574219 532.722656 L 1191.027344 541.078125 C 1192.925781 541.316406 1192.460938 543.925781 1190.796875 543.925781 L 1040.539062 548.863281 L 1026.554688 573.113281 L 1167.777344 580.953125 C 1170.863281 581.195312 1170.863281 583.808594 1167.777344 583.808594 L 1017.765625 589.070312 L 1003.527344 614.429688 L 1144.28125 622.503906 C 1147.367188 622.742188 1147.136719 625.585938 1144.28125 625.585938 L 994.269531 630.929688 L 979.78125 655.980469 L 1120.769531 663.8125 C 1122.898438 664.050781 1123.15625 666.667969 1120.300781 666.667969 L 688.050781 681.144531 L 1098.226562 703.933594 C 1100.824219 703.933594 1100.597656 707.257812 1097.738281 707.257812 L 664.792969 722.695312 L 1074.96875 745.472656 C 1076.871094 745.472656 1077.339844 748.558594 1074.484375 748.558594 L 640.820312 764.222656 L 1050.996094 787.011719 C 1052.667969 787.25 1054.308594 790.335938 1050.765625 790.574219 L 617.792969 805.980469 L 1027.957031 828.761719 C 1029.144531 829 1030.328125 832.085938 1027.492188 832.085938 L 809.578125 839.851562 L 810.296875 859.519531 L 1004.460938 870.308594 C 1005.875 870.546875 1006.59375 873.394531 1003.976562 873.394531 L 811.011719 880.253906 L 811.957031 902.253906 L 980.5 911.617188 C 982.152344 911.855469 982.867188 915.179688 980.011719 915.179688 L 812.902344 921.046875 L 813.628906 945.1875 L 957.242188 953.164062 C 958.894531 953.394531 959.371094 956.480469 956.523438 956.480469 L 814.34375 961.558594 L 815.289062 988.109375 L 933.972656 994.703125 C 935.644531 994.941406 935.644531 997.796875 933.265625 997.796875 L 815.769531 1002.046875 L 816.246094 1013.460938 L 1199.363281 1013.460938 C 1300.949219 1013.460938 1392.089844 939.402344 1409.183594 880.527344 C 1426.292969 821.664062 1426.292969 768.492188 1344.628906 741.910156 C 1390.214844 731.460938 1469.480469 680.054688 1485.15625 608.976562 C 1499.367188 544.402344 1475.644531 478.414062 1365.03125 478.175781 Z M 1172.324219 890.433594 L 1054.59375 890.433594 L 1121.050781 772.699219 L 1208.40625 772.699219 C 1298.609375 772.699219 1254.921875 890.433594 1172.324219 890.433594 Z M 1324.703125 637.855469 C 1320.902344 652.09375 1292.402344 688.179688 1256.347656 688.179688 L 1168.992188 688.179688 L 1225 589.4375 L 1269.632812 589.4375 C 1326.585938 591.339844 1328.488281 623.621094 1324.703125 637.855469 Z M 1796.289062 1184.066406 C 1796.289062 1138.445312 1758.359375 1100.230469 1712.734375 1100.230469 C 1665.925781 1100.230469 1627.710938 1139.050781 1627.710938 1186.738281 C 1627.707031 1188.136719 1627.734375 1189.535156 1627.796875 1190.933594 C 1627.859375 1192.328125 1627.957031 1193.722656 1628.089844 1195.113281 C 1628.222656 1196.507812 1628.386719 1197.894531 1628.589844 1199.277344 C 1628.789062 1200.660156 1629.023438 1202.039062 1629.292969 1203.410156 C 1629.558594 1204.78125 1629.863281 1206.148438 1630.199219 1207.503906 C 1630.535156 1208.859375 1630.902344 1210.210938 1631.304688 1211.546875 C 1631.707031 1212.886719 1632.140625 1214.214844 1632.609375 1215.53125 C 1633.078125 1216.847656 1633.578125 1218.15625 1634.109375 1219.449219 C 1634.640625 1220.738281 1635.207031 1222.019531 1635.800781 1223.285156 C 1636.398438 1224.546875 1637.023438 1225.796875 1637.679688 1227.03125 C 1638.335938 1228.265625 1639.023438 1229.484375 1639.742188 1230.683594 C 1640.460938 1231.882812 1641.207031 1233.066406 1641.980469 1234.226562 C 1642.757812 1235.390625 1643.558594 1236.535156 1644.390625 1237.65625 C 1645.222656 1238.78125 1646.082031 1239.882812 1646.96875 1240.964844 C 1647.855469 1242.046875 1648.769531 1243.105469 1649.707031 1244.140625 C 1650.644531 1245.175781 1651.609375 1246.1875 1652.597656 1247.175781 C 1653.585938 1248.164062 1654.597656 1249.128906 1655.636719 1250.066406 C 1656.671875 1251.007812 1657.730469 1251.917969 1658.8125 1252.804688 C 1659.890625 1253.691406 1660.996094 1254.550781 1662.117188 1255.382812 C 1663.242188 1256.214844 1664.386719 1257.015625 1665.546875 1257.792969 C 1666.710938 1258.566406 1667.894531 1259.3125 1669.09375 1260.03125 C 1670.292969 1260.75 1671.511719 1261.433594 1672.746094 1262.09375 C 1673.980469 1262.75 1675.226562 1263.375 1676.492188 1263.96875 C 1677.757812 1264.566406 1679.035156 1265.128906 1680.328125 1265.660156 C 1681.621094 1266.195312 1682.925781 1266.695312 1684.246094 1267.160156 C 1685.5625 1267.628906 1686.890625 1268.0625 1688.230469 1268.464844 C 1689.566406 1268.867188 1690.917969 1269.238281 1692.273438 1269.574219 C 1693.628906 1269.910156 1694.996094 1270.210938 1696.367188 1270.480469 C 1697.738281 1270.746094 1699.117188 1270.980469 1700.5 1271.179688 C 1701.882812 1271.382812 1703.269531 1271.546875 1704.664062 1271.679688 C 1706.054688 1271.8125 1707.449219 1271.910156 1708.84375 1271.972656 C 1710.242188 1272.035156 1711.640625 1272.0625 1713.039062 1272.058594 C 1747.679688 1272.058594 1780.570312 1248.359375 1790.347656 1216.066406 L 1747.09375 1216.066406 C 1738.5 1229.691406 1727.261719 1235.910156 1711.835938 1235.910156 C 1692.285156 1235.910156 1674.824219 1222.578125 1669.183594 1203.617188 L 1794.195312 1203.617188 C 1795.691406 1194.445312 1796.289062 1189.992188 1796.289062 1184.066406 Z M 1668.011719 1172.644531 C 1673.640625 1150.425781 1691.414062 1136.203125 1713.332031 1136.203125 C 1735.265625 1136.203125 1752.445312 1150.132812 1757.769531 1172.644531 Z M 1234.675781 1108.136719 L 1234.675781 1121.4375 C 1222.246094 1108.105469 1204.230469 1100.523438 1184.96875 1100.523438 C 1142.308594 1100.523438 1105.9375 1136.957031 1105.9375 1184.363281 C 1105.9375 1229.085938 1138.113281 1269.203125 1185.8125 1269.203125 C 1206.847656 1269.203125 1222.839844 1264.34375 1237.945312 1247.164062 L 1237.945312 1268.199219 L 1274.101562 1268.199219 L 1274.101562 1108.136719 Z M 1190.523438 1235.273438 C 1188.894531 1235.273438 1187.273438 1235.195312 1185.652344 1235.035156 C 1184.035156 1234.875 1182.425781 1234.636719 1180.832031 1234.320312 C 1179.234375 1234.003906 1177.65625 1233.609375 1176.101562 1233.136719 C 1174.542969 1232.664062 1173.015625 1232.117188 1171.511719 1231.492188 C 1170.007812 1230.871094 1168.539062 1230.175781 1167.105469 1229.410156 C 1165.667969 1228.640625 1164.273438 1227.804688 1162.921875 1226.902344 C 1161.570312 1226 1160.265625 1225.03125 1159.007812 1224 C 1157.75 1222.964844 1156.542969 1221.875 1155.394531 1220.722656 C 1154.242188 1219.574219 1153.152344 1218.371094 1152.121094 1217.113281 C 1151.089844 1215.855469 1150.121094 1214.550781 1149.214844 1213.195312 C 1148.3125 1211.84375 1147.476562 1210.449219 1146.710938 1209.015625 C 1145.941406 1207.578125 1145.246094 1206.109375 1144.625 1204.609375 C 1144.003906 1203.105469 1143.457031 1201.574219 1142.984375 1200.019531 C 1142.511719 1198.460938 1142.117188 1196.882812 1141.796875 1195.289062 C 1141.480469 1193.691406 1141.242188 1192.085938 1141.082031 1190.464844 C 1140.921875 1188.847656 1140.84375 1187.222656 1140.84375 1185.597656 C 1140.84375 1183.96875 1140.921875 1182.347656 1141.082031 1180.726562 C 1141.242188 1179.109375 1141.480469 1177.5 1141.796875 1175.90625 C 1142.117188 1174.308594 1142.511719 1172.734375 1142.984375 1171.175781 C 1143.457031 1169.621094 1144.003906 1168.089844 1144.625 1166.585938 C 1145.246094 1165.082031 1145.941406 1163.613281 1146.710938 1162.179688 C 1147.476562 1160.742188 1148.3125 1159.351562 1149.214844 1157.996094 C 1150.121094 1156.644531 1151.089844 1155.339844 1152.121094 1154.082031 C 1153.152344 1152.824219 1154.242188 1151.621094 1155.394531 1150.46875 C 1156.542969 1149.320312 1157.75 1148.226562 1159.007812 1147.195312 C 1160.265625 1146.164062 1161.570312 1145.195312 1162.921875 1144.292969 C 1164.273438 1143.386719 1165.667969 1142.550781 1167.105469 1141.785156 C 1168.539062 1141.019531 1170.007812 1140.324219 1171.511719 1139.699219 C 1173.015625 1139.078125 1174.542969 1138.53125 1176.101562 1138.058594 C 1177.65625 1137.585938 1179.234375 1137.191406 1180.832031 1136.875 C 1182.425781 1136.554688 1184.035156 1136.316406 1185.652344 1136.15625 C 1187.273438 1136 1188.894531 1135.917969 1190.523438 1135.917969 C 1192.148438 1135.917969 1193.773438 1136 1195.390625 1136.15625 C 1197.011719 1136.316406 1198.617188 1136.554688 1200.214844 1136.875 C 1201.808594 1137.191406 1203.386719 1137.585938 1204.941406 1138.058594 C 1206.5 1138.53125 1208.03125 1139.078125 1209.53125 1139.699219 C 1211.035156 1140.324219 1212.503906 1141.019531 1213.941406 1141.785156 C 1215.375 1142.550781 1216.769531 1143.386719 1218.121094 1144.292969 C 1219.472656 1145.195312 1220.78125 1146.164062 1222.039062 1147.195312 C 1223.292969 1148.226562 1224.5 1149.320312 1225.648438 1150.46875 C 1226.800781 1151.621094 1227.890625 1152.824219 1228.921875 1154.082031 C 1229.957031 1155.339844 1230.921875 1156.644531 1231.828125 1157.996094 C 1232.730469 1159.351562 1233.566406 1160.742188 1234.332031 1162.179688 C 1235.101562 1163.613281 1235.796875 1165.082031 1236.417969 1166.585938 C 1237.039062 1168.089844 1237.589844 1169.621094 1238.0625 1171.175781 C 1238.53125 1172.734375 1238.925781 1174.308594 1239.246094 1175.90625 C 1239.5625 1177.5 1239.800781 1179.109375 1239.960938 1180.726562 C 1240.121094 1182.347656 1240.199219 1183.96875 1240.199219 1185.597656 C 1240.199219 1187.222656 1240.121094 1188.847656 1239.960938 1190.464844 C 1239.800781 1192.085938 1239.5625 1193.691406 1239.246094 1195.289062 C 1238.925781 1196.882812 1238.53125 1198.460938 1238.0625 1200.019531 C 1237.589844 1201.574219 1237.039062 1203.105469 1236.417969 1204.609375 C 1235.796875 1206.109375 1235.101562 1207.578125 1234.332031 1209.015625 C 1233.566406 1210.449219 1232.730469 1211.84375 1231.828125 1213.195312 C 1230.921875 1214.550781 1229.957031 1215.855469 1228.921875 1217.113281 C 1227.890625 1218.371094 1226.800781 1219.574219 1225.648438 1220.722656 C 1224.5 1221.875 1223.292969 1222.964844 1222.039062 1224 C 1220.78125 1225.03125 1219.472656 1226 1218.121094 1226.902344 C 1216.769531 1227.804688 1215.375 1228.640625 1213.941406 1229.410156 C 1212.503906 1230.175781 1211.035156 1230.871094 1209.53125 1231.492188 C 1208.03125 1232.117188 1206.5 1232.664062 1204.941406 1233.136719 C 1203.386719 1233.609375 1201.808594 1234.003906 1200.214844 1234.320312 C 1198.617188 1234.636719 1197.011719 1234.875 1195.390625 1235.035156 C 1193.773438 1235.195312 1192.148438 1235.273438 1190.523438 1235.273438 Z M 157.296875 1100.21875 C 141.007812 1100.21875 128.570312 1105.847656 114.933594 1119.777344 L 114.933594 1104.078125 L 78.492188 1104.078125 L 78.492188 1268.199219 L 117.898438 1268.199219 L 117.898438 1190.871094 C 117.898438 1169.84375 119.671875 1136.359375 148.703125 1136.359375 C 175.957031 1136.359375 178.921875 1167.761719 178.921875 1187.90625 L 178.921875 1268.191406 L 218.320312 1268.191406 L 218.320312 1180.203125 C 218.320312 1157.09375 216.546875 1146.136719 210.324219 1133.101562 C 201.140625 1113.550781 179.519531 1100.21875 157.296875 1100.21875 Z M 402.121094 1184.066406 C 402.121094 1138.445312 364.199219 1100.230469 318.574219 1100.230469 C 271.765625 1100.230469 233.550781 1139.050781 233.550781 1186.738281 C 233.546875 1188.136719 233.574219 1189.535156 233.640625 1190.929688 C 233.703125 1192.328125 233.800781 1193.722656 233.933594 1195.113281 C 234.0625 1196.503906 234.230469 1197.890625 234.429688 1199.277344 C 234.628906 1200.660156 234.867188 1202.035156 235.132812 1203.410156 C 235.402344 1204.78125 235.703125 1206.144531 236.039062 1207.5 C 236.375 1208.859375 236.746094 1210.207031 237.148438 1211.546875 C 237.550781 1212.882812 237.984375 1214.210938 238.453125 1215.527344 C 238.921875 1216.847656 239.421875 1218.152344 239.953125 1219.445312 C 240.484375 1220.734375 241.050781 1222.015625 241.644531 1223.28125 C 242.238281 1224.542969 242.867188 1225.792969 243.523438 1227.027344 C 244.179688 1228.261719 244.867188 1229.476562 245.585938 1230.679688 C 246.300781 1231.878906 247.046875 1233.058594 247.824219 1234.222656 C 248.597656 1235.386719 249.402344 1236.527344 250.234375 1237.652344 C 251.066406 1238.777344 251.925781 1239.878906 252.8125 1240.957031 C 253.699219 1242.039062 254.609375 1243.097656 255.546875 1244.132812 C 256.488281 1245.171875 257.449219 1246.183594 258.4375 1247.171875 C 259.425781 1248.160156 260.4375 1249.121094 261.476562 1250.0625 C 262.511719 1251 263.570312 1251.914062 264.652344 1252.796875 C 265.730469 1253.683594 266.832031 1254.542969 267.957031 1255.375 C 269.082031 1256.207031 270.222656 1257.011719 271.386719 1257.785156 C 272.550781 1258.5625 273.730469 1259.308594 274.929688 1260.023438 C 276.132812 1260.742188 277.347656 1261.429688 278.582031 1262.085938 C 279.816406 1262.742188 281.066406 1263.371094 282.328125 1263.964844 C 283.59375 1264.558594 284.875 1265.125 286.164062 1265.65625 C 287.457031 1266.1875 288.761719 1266.6875 290.082031 1267.15625 C 291.398438 1267.625 292.726562 1268.058594 294.0625 1268.460938 C 295.402344 1268.863281 296.75 1269.234375 298.109375 1269.570312 C 299.464844 1269.90625 300.828125 1270.207031 302.199219 1270.476562 C 303.574219 1270.746094 304.949219 1270.980469 306.332031 1271.179688 C 307.71875 1271.378906 309.105469 1271.546875 310.496094 1271.679688 C 311.886719 1271.808594 313.28125 1271.90625 314.679688 1271.96875 C 316.074219 1272.035156 317.472656 1272.0625 318.871094 1272.058594 C 353.53125 1272.058594 386.410156 1248.359375 396.1875 1216.066406 L 352.941406 1216.066406 C 344.347656 1229.691406 333.09375 1235.910156 317.683594 1235.910156 C 298.136719 1235.910156 280.65625 1222.578125 275.027344 1203.617188 L 400.035156 1203.617188 C 401.53125 1194.445312 402.121094 1189.992188 402.121094 1184.066406 Z M 273.851562 1172.644531 C 279.480469 1150.425781 297.253906 1136.203125 319.183594 1136.203125 C 341.109375 1136.203125 358.285156 1150.132812 363.621094 1172.644531 Z M 1050.398438 1268.0625 L 1089.796875 1268.0625 L 1089.796875 1049.132812 L 1050.398438 1049.132812 Z M 1378.050781 1100.21875 C 1361.753906 1100.21875 1349.300781 1105.847656 1335.675781 1119.777344 L 1335.675781 1104.078125 L 1299.234375 1104.078125 L 1299.234375 1268.199219 L 1338.652344 1268.199219 L 1338.652344 1190.871094 C 1338.652344 1169.84375 1340.421875 1136.359375 1369.457031 1136.359375 C 1396.699219 1136.359375 1399.671875 1167.761719 1399.671875 1187.90625 L 1399.671875 1268.191406 L 1439.070312 1268.191406 L 1439.070312 1180.203125 C 1439.070312 1157.09375 1437.300781 1146.136719 1431.074219 1133.101562 C 1421.894531 1113.550781 1400.269531 1100.21875 1378.050781 1100.21875 Z M 1537.425781 1136.367188 C 1555.488281 1136.367188 1565.855469 1142.300781 1575.640625 1158.882812 L 1620.0625 1158.882812 C 1607.925781 1123.632812 1576.828125 1100.21875 1538.894531 1100.21875 C 1490.902344 1100.21875 1452.386719 1138.433594 1452.386719 1185.546875 C 1452.386719 1232.941406 1491.195312 1272.046875 1538.894531 1272.046875 C 1541.929688 1272.03125 1544.953125 1271.859375 1547.96875 1271.53125 C 1550.984375 1271.203125 1553.976562 1270.71875 1556.941406 1270.082031 C 1559.90625 1269.441406 1562.832031 1268.652344 1565.714844 1267.710938 C 1568.597656 1266.769531 1571.425781 1265.683594 1574.199219 1264.449219 C 1576.96875 1263.21875 1579.667969 1261.84375 1582.300781 1260.332031 C 1584.929688 1258.820312 1587.472656 1257.175781 1589.929688 1255.398438 C 1592.390625 1253.621094 1594.75 1251.722656 1597.015625 1249.703125 C 1599.277344 1247.683594 1601.429688 1245.550781 1603.472656 1243.308594 C 1611.773438 1234.128906 1614.738281 1228.792969 1620.0625 1214.285156 L 1575.640625 1214.285156 C 1566.441406 1228.5 1554.605469 1235.898438 1539.796875 1235.898438 C 1512.234375 1235.898438 1491.804688 1214.570312 1491.804688 1186.125 C 1491.804688 1157.40625 1511.351562 1136.367188 1537.425781 1136.367188 Z M 552.71875 1204.210938 L 524.816406 1104.085938 L 493.113281 1104.085938 L 464.90625 1204.210938 L 431.546875 1104.085938 L 396.785156 1104.085938 L 451.582031 1268.199219 L 476.824219 1268.199219 L 508.820312 1161.855469 L 539.921875 1268.199219 L 566.410156 1268.199219 L 618.957031 1104.085938 L 586.378906 1104.085938 Z M 763.816406 1100.394531 C 744.5625 1100.394531 726.550781 1107.980469 714.109375 1121.300781 L 714.109375 1049.140625 L 674.699219 1049.140625 L 674.699219 1268.0625 L 710.839844 1268.0625 L 710.839844 1247.035156 C 725.953125 1264.214844 741.945312 1269.0625 762.980469 1269.0625 C 810.679688 1269.0625 842.855469 1228.957031 842.855469 1184.222656 C 842.863281 1136.828125 806.484375 1100.394531 763.816406 1100.394531 Z M 758.261719 1235.273438 C 756.636719 1235.273438 755.011719 1235.195312 753.394531 1235.035156 C 751.773438 1234.875 750.167969 1234.636719 748.570312 1234.320312 C 746.976562 1234.003906 745.398438 1233.609375 743.84375 1233.136719 C 742.285156 1232.664062 740.753906 1232.117188 739.25 1231.492188 C 737.75 1230.871094 736.28125 1230.175781 734.84375 1229.410156 C 733.410156 1228.640625 732.015625 1227.804688 730.664062 1226.902344 C 729.308594 1226 728.003906 1225.03125 726.746094 1224 C 725.488281 1222.964844 724.285156 1221.875 723.136719 1220.722656 C 721.984375 1219.574219 720.894531 1218.371094 719.859375 1217.113281 C 718.828125 1215.855469 717.859375 1214.550781 716.957031 1213.195312 C 716.054688 1211.84375 715.21875 1210.449219 714.449219 1209.015625 C 713.683594 1207.578125 712.988281 1206.109375 712.367188 1204.609375 C 711.742188 1203.105469 711.195312 1201.574219 710.722656 1200.019531 C 710.25 1198.460938 709.855469 1196.882812 709.539062 1195.289062 C 709.222656 1193.691406 708.984375 1192.085938 708.824219 1190.464844 C 708.664062 1188.847656 708.585938 1187.222656 708.585938 1185.597656 C 708.585938 1183.96875 708.664062 1182.347656 708.824219 1180.726562 C 708.984375 1179.109375 709.222656 1177.5 709.539062 1175.90625 C 709.855469 1174.308594 710.25 1172.734375 710.722656 1171.175781 C 711.195312 1169.621094 711.742188 1168.089844 712.367188 1166.585938 C 712.988281 1165.082031 713.683594 1163.613281 714.449219 1162.179688 C 715.21875 1160.742188 716.054688 1159.351562 716.957031 1157.996094 C 717.859375 1156.644531 718.828125 1155.339844 719.859375 1154.082031 C 720.894531 1152.824219 721.984375 1151.621094 723.136719 1150.46875 C 724.285156 1149.320312 725.488281 1148.226562 726.746094 1147.195312 C 728.003906 1146.164062 729.308594 1145.195312 730.664062 1144.292969 C 732.015625 1143.386719 733.410156 1142.550781 734.84375 1141.785156 C 736.28125 1141.019531 737.75 1140.324219 739.25 1139.699219 C 740.753906 1139.078125 742.285156 1138.53125 743.84375 1138.058594 C 745.398438 1137.585938 746.976562 1137.191406 748.570312 1136.875 C 750.167969 1136.554688 751.773438 1136.316406 753.394531 1136.15625 C 755.011719 1136 756.636719 1135.917969 758.261719 1135.917969 C 759.890625 1135.917969 761.511719 1136 763.132812 1136.15625 C 764.75 1136.316406 766.359375 1136.554688 767.953125 1136.875 C 769.550781 1137.191406 771.125 1137.585938 772.683594 1138.058594 C 774.242188 1138.53125 775.769531 1139.078125 777.273438 1139.699219 C 778.777344 1140.324219 780.246094 1141.019531 781.679688 1141.785156 C 783.117188 1142.550781 784.507812 1143.386719 785.863281 1144.292969 C 787.214844 1145.195312 788.519531 1146.164062 789.777344 1147.195312 C 791.035156 1148.226562 792.238281 1149.320312 793.390625 1150.46875 C 794.539062 1151.621094 795.632812 1152.824219 796.664062 1154.082031 C 797.695312 1155.339844 798.664062 1156.644531 799.566406 1157.996094 C 800.472656 1159.351562 801.308594 1160.742188 802.074219 1162.179688 C 802.839844 1163.613281 803.535156 1165.082031 804.160156 1166.585938 C 804.78125 1168.089844 805.328125 1169.621094 805.800781 1171.175781 C 806.273438 1172.734375 806.667969 1174.308594 806.984375 1175.90625 C 807.304688 1177.5 807.542969 1179.109375 807.703125 1180.726562 C 807.859375 1182.347656 807.941406 1183.96875 807.941406 1185.597656 C 807.941406 1187.222656 807.859375 1188.847656 807.703125 1190.464844 C 807.542969 1192.085938 807.304688 1193.691406 806.984375 1195.289062 C 806.667969 1196.882812 806.273438 1198.460938 805.800781 1200.019531 C 805.328125 1201.574219 804.78125 1203.105469 804.160156 1204.609375 C 803.535156 1206.109375 802.839844 1207.578125 802.074219 1209.015625 C 801.308594 1210.449219 800.472656 1211.84375 799.566406 1213.195312 C 798.664062 1214.550781 797.695312 1215.855469 796.664062 1217.113281 C 795.632812 1218.371094 794.539062 1219.574219 793.390625 1220.722656 C 792.238281 1221.875 791.035156 1222.964844 789.777344 1224 C 788.519531 1225.03125 787.214844 1226 785.863281 1226.902344 C 784.507812 1227.804688 783.117188 1228.640625 781.679688 1229.410156 C 780.246094 1230.175781 778.777344 1230.871094 777.273438 1231.492188 C 775.769531 1232.117188 774.242188 1232.664062 772.683594 1233.136719 C 771.125 1233.609375 769.550781 1234.003906 767.953125 1234.320312 C 766.359375 1234.636719 764.75 1234.875 763.132812 1235.035156 C 761.511719 1235.195312 759.890625 1235.273438 758.261719 1235.273438 Z M 984.667969 1108.136719 L 984.667969 1121.4375 C 972.226562 1108.105469 954.21875 1100.523438 934.957031 1100.523438 C 892.296875 1100.523438 855.910156 1136.957031 855.910156 1184.363281 C 855.910156 1229.085938 888.09375 1269.203125 935.78125 1269.203125 C 956.820312 1269.203125 972.8125 1264.34375 987.925781 1247.164062 L 987.925781 1268.199219 L 1024.066406 1268.199219 L 1024.066406 1108.136719 Z M 940.519531 1235.273438 C 938.894531 1235.273438 937.269531 1235.195312 935.652344 1235.035156 C 934.03125 1234.875 932.425781 1234.636719 930.828125 1234.320312 C 929.234375 1234.003906 927.65625 1233.609375 926.101562 1233.136719 C 924.542969 1232.664062 923.011719 1232.117188 921.511719 1231.492188 C 920.007812 1230.871094 918.539062 1230.175781 917.101562 1229.410156 C 915.667969 1228.640625 914.273438 1227.804688 912.921875 1226.902344 C 911.570312 1226 910.261719 1225.03125 909.003906 1224 C 907.746094 1222.964844 906.542969 1221.875 905.394531 1220.722656 C 904.242188 1219.574219 903.152344 1218.371094 902.121094 1217.113281 C 901.085938 1215.855469 900.117188 1214.550781 899.214844 1213.195312 C 898.3125 1211.84375 897.476562 1210.449219 896.707031 1209.015625 C 895.941406 1207.578125 895.246094 1206.109375 894.625 1204.609375 C 894 1203.105469 893.453125 1201.574219 892.980469 1200.019531 C 892.507812 1198.460938 892.113281 1196.882812 891.796875 1195.289062 C 891.480469 1193.691406 891.242188 1192.085938 891.082031 1190.464844 C 890.921875 1188.847656 890.84375 1187.222656 890.84375 1185.597656 C 890.84375 1183.96875 890.921875 1182.347656 891.082031 1180.726562 C 891.242188 1179.109375 891.480469 1177.5 891.796875 1175.90625 C 892.113281 1174.308594 892.507812 1172.734375 892.980469 1171.175781 C 893.453125 1169.621094 894 1168.089844 894.625 1166.585938 C 895.246094 1165.082031 895.941406 1163.613281 896.707031 1162.179688 C 897.476562 1160.742188 898.3125 1159.351562 899.214844 1157.996094 C 900.117188 1156.644531 901.085938 1155.339844 902.121094 1154.082031 C 903.152344 1152.824219 904.242188 1151.621094 905.394531 1150.46875 C 906.542969 1149.320312 907.746094 1148.226562 909.003906 1147.195312 C 910.261719 1146.164062 911.570312 1145.195312 912.921875 1144.292969 C 914.273438 1143.386719 915.667969 1142.550781 917.101562 1141.785156 C 918.539062 1141.019531 920.007812 1140.324219 921.511719 1139.699219 C 923.011719 1139.078125 924.542969 1138.53125 926.101562 1138.058594 C 927.65625 1137.585938 929.234375 1137.191406 930.828125 1136.875 C 932.425781 1136.554688 934.03125 1136.316406 935.652344 1136.15625 C 937.269531 1136 938.894531 1135.917969 940.519531 1135.917969 C 942.148438 1135.917969 943.769531 1136 945.390625 1136.15625 C 947.007812 1136.316406 948.617188 1136.554688 950.210938 1136.875 C 951.808594 1137.191406 953.382812 1137.585938 954.941406 1138.058594 C 956.5 1138.53125 958.027344 1139.078125 959.53125 1139.699219 C 961.035156 1140.324219 962.503906 1141.019531 963.9375 1141.785156 C 965.375 1142.550781 966.769531 1143.386719 968.121094 1144.292969 C 969.472656 1145.195312 970.777344 1146.164062 972.035156 1147.195312 C 973.292969 1148.226562 974.5 1149.320312 975.648438 1150.46875 C 976.800781 1151.621094 977.890625 1152.824219 978.921875 1154.082031 C 979.953125 1155.339844 980.921875 1156.644531 981.828125 1157.996094 C 982.730469 1159.351562 983.566406 1160.742188 984.332031 1162.179688 C 985.101562 1163.613281 985.792969 1165.082031 986.417969 1166.585938 C 987.039062 1168.089844 987.585938 1169.621094 988.058594 1171.175781 C 988.53125 1172.734375 988.925781 1174.308594 989.246094 1175.90625 C 989.5625 1177.5 989.800781 1179.109375 989.960938 1180.726562 C 990.121094 1182.347656 990.199219 1183.96875 990.199219 1185.597656 C 990.199219 1187.222656 990.121094 1188.847656 989.960938 1190.464844 C 989.800781 1192.085938 989.5625 1193.691406 989.246094 1195.289062 C 988.925781 1196.882812 988.53125 1198.460938 988.058594 1200.019531 C 987.585938 1201.574219 987.039062 1203.105469 986.417969 1204.609375 C 985.792969 1206.109375 985.101562 1207.578125 984.332031 1209.015625 C 983.566406 1210.449219 982.730469 1211.84375 981.828125 1213.195312 C 980.921875 1214.550781 979.953125 1215.855469 978.921875 1217.113281 C 977.890625 1218.371094 976.800781 1219.574219 975.648438 1220.722656 C 974.496094 1221.875 973.292969 1222.964844 972.035156 1224 C 970.777344 1225.03125 969.472656 1226 968.121094 1226.902344 C 966.769531 1227.804688 965.375 1228.640625 963.9375 1229.410156 C 962.503906 1230.175781 961.035156 1230.871094 959.53125 1231.492188 C 958.027344 1232.117188 956.5 1232.664062 954.941406 1233.136719 C 953.382812 1233.609375 951.808594 1234.003906 950.210938 1234.320312 C 948.617188 1234.636719 947.007812 1234.875 945.390625 1235.035156 C 943.769531 1235.195312 942.148438 1235.273438 940.519531 1235.273438 Z M 940.519531 1235.273438 "/></g></svg>