<?xml version="1.0" encoding="UTF-8"?><svg xmlns="http://www.w3.org/2000/svg" xmlns:xlink="http://www.w3.org/1999/xlink" contentScriptType="text/ecmascript" width="1874.88pt" zoomAndPan="magnify" contentStyleType="text/css" viewBox="0 0 1874.88 1748.999931" height="1748.999931pt" preserveAspectRatio="xMidYMid meet" version="1.2"><defs><clipPath xml:id="clip1" id="clip1"><path d="M 479.078125 0.0546875 L 1395.238281 0.0546875 L 1395.238281 1748.941406 L 479.078125 1748.941406 Z M 479.078125 0.0546875 "/></clipPath></defs><g xml:id="surface1" id="surface1"><g clip-rule="nonzero" clip-path="url(#clip1)"><path style=" stroke:none;fill-rule:nonzero;fill:rgb(100%,100%,100%);fill-opacity:1;" d="M 479.109375 -67.046875 L 1395.203125 -67.046875 L 1395.203125 1816.117188 L 479.109375 1816.117188 Z M 479.109375 -67.046875 "/></g><path style=" stroke:none;fill-rule:nonzero;fill:rgb(5.488586%,28.62854%,61.569214%);fill-opacity:1;" d="M 1132.070312 1599.921875 C 1133.714844 1573.351562 1133.167969 1564.585938 1129.578125 1560.257812 C 1126.851562 1556.96875 1124.921875 1546.714844 1124.839844 1535.078125 C 1124.722656 1517.453125 1122.355469 1510.871094 1101.671875 1470.671875 C 1079.597656 1427.765625 1078.808594 1425.421875 1082.730469 1414.570312 C 1086.382812 1404.445312 1085.863281 1401.042969 1077.867188 1382.589844 C 1069.890625 1364.179688 1066.300781 1360.171875 1044.9375 1345.742188 C 1003.488281 1317.753906 970.179688 1289.214844 914.703125 1234.195312 C 852.777344 1172.75 801.355469 1105.1875 753.675781 1022.597656 C 737.121094 993.925781 735.824219 992.734375 721.199219 992.660156 C 710.21875 992.601562 697.03125 983.019531 697.082031 975.117188 C 697.09375 972.824219 683.65625 943.207031 667.21875 909.304688 C 624.5625 821.320312 620.914062 802.582031 633.957031 738.515625 C 641.699219 700.53125 643.15625 697.113281 659.300781 679.226562 C 676.445312 660.246094 673.753906 654.902344 645.679688 652.125 C 608.171875 648.410156 608.554688 648.644531 600.78125 624.5625 C 596.957031 612.71875 593.828125 599.292969 593.828125 594.734375 C 593.828125 579.621094 610.980469 531.789062 634.558594 481.136719 C 647.351562 453.648438 663.757812 416.160156 671.011719 397.835938 C 696.816406 332.613281 732.421875 280.460938 761.167969 265.785156 C 772.660156 259.917969 794.996094 255.503906 861.472656 245.964844 C 898.472656 240.652344 901.078125 237.960938 906.394531 199.585938 C 909.484375 177.265625 909.179688 173.769531 903.339844 164.304688 C 899.125 157.484375 896.847656 147.835938 896.847656 136.789062 C 896.847656 121.253906 897.71875 119.324219 906.839844 114.605469 C 915.65625 110.042969 916.832031 107.703125 916.832031 94.691406 C 916.832031 63.5625 923.105469 46.230469 940.566406 29.242188 C 944.734375 25.203125 948.78125 21.042969 952.703125 16.765625 L 724.066406 16.765625 C 646.402344 16.765625 583.441406 79.765625 583.441406 157.480469 L 583.441406 1592.414062 C 583.441406 1670.125 646.402344 1733.136719 724.066406 1733.136719 L 1142.390625 1733.136719 C 1140.976562 1730.019531 1138.027344 1724.976562 1134.605469 1719.984375 C 1125.085938 1706.121094 1125.191406 1710.988281 1132.070312 1599.921875 Z M 1132.070312 1599.921875 "/><path style=" stroke:none;fill-rule:nonzero;fill:rgb(82.749939%,1.959229%,16.079712%);fill-opacity:1;" d="M 1151.273438 16.765625 L 1030.175781 16.765625 C 1031.363281 18.175781 1033.078125 19.695312 1035.160156 21.0625 C 1050.136719 30.878906 1072.851562 54.523438 1076.476562 64.066406 C 1081.929688 78.433594 1080.703125 97.515625 1073.003906 118.121094 C 1068.578125 129.949219 1066.714844 140.53125 1067.964844 146.765625 C 1070.320312 158.550781 1058.753906 183.535156 1045.058594 196.242188 C 1040.121094 200.824219 1033.121094 210.339844 1029.507812 217.394531 C 1025.894531 224.449219 1016.921875 236.75 1009.578125 244.726562 C 1002.234375 252.703125 996.714844 261.777344 997.332031 264.890625 C 997.941406 268.007812 1006.679688 274.992188 1016.75 280.417969 C 1026.824219 285.84375 1041.902344 296.484375 1050.269531 304.070312 C 1058.625 311.65625 1075.503906 324.960938 1087.769531 333.632812 C 1131.847656 364.8125 1152.996094 418.125 1153.214844 498.605469 C 1153.308594 534.265625 1170.691406 617.851562 1183.144531 642.539062 C 1200.199219 676.347656 1206.375 694.988281 1211.714844 728.726562 C 1218.566406 772.082031 1218.773438 772.574219 1232.554688 778.332031 C 1245.71875 783.839844 1279.824219 811.542969 1279.824219 816.734375 C 1279.824219 818.523438 1283.199219 824.710938 1287.316406 830.492188 L 1291.914062 836.9375 L 1291.914062 157.480469 C 1291.898438 79.761719 1228.9375 16.765625 1151.273438 16.765625 Z M 1289.800781 959.019531 C 1289.800781 960.707031 1282.386719 970.199219 1273.328125 980.121094 C 1210.144531 1049.289062 1102.015625 1033.882812 1062.320312 950.039062 C 1052.714844 929.746094 1051.714844 924.648438 1051.714844 895.980469 C 1051.714844 868.605469 1052.921875 861.742188 1060.636719 845.269531 C 1072.96875 818.9375 1096.511719 794.820312 1122.246094 782.136719 C 1133.953125 776.371094 1144.226562 770.542969 1145.058594 769.179688 C 1145.898438 767.816406 1135.332031 743.949219 1121.570312 716.132812 C 1089.875 652.042969 1086.121094 640.582031 1071.742188 564.03125 C 1065.238281 529.429688 1059.246094 499.253906 1058.417969 496.960938 C 1055.753906 489.582031 1046.453125 492.457031 1023.441406 507.761719 L 1000.933594 522.734375 L 980.535156 574.4375 C 969.320312 602.867188 960.132812 630.359375 960.132812 635.519531 C 960.132812 641.328125 963.433594 647.984375 968.777344 652.984375 C 982.109375 665.449219 985.707031 674.605469 1008.300781 753.582031 C 1024.949219 811.765625 1028.660156 828.761719 1026.007812 834.601562 C 1023.460938 840.1875 1025.113281 852.449219 1032.777344 884.808594 C 1044.050781 932.425781 1048.253906 957.660156 1053.507812 1009.265625 C 1058.835938 1061.652344 1064.472656 1078.246094 1094.804688 1130.886719 C 1114.96875 1165.871094 1121.160156 1186.960938 1135.320312 1268.867188 C 1141.8125 1306.453125 1148.371094 1339.539062 1149.898438 1342.386719 C 1151.425781 1345.230469 1158.023438 1355.527344 1164.566406 1365.253906 C 1182.550781 1392.003906 1185.265625 1404.3125 1178.800781 1430.050781 C 1175.84375 1441.8125 1172.503906 1459.527344 1171.371094 1469.421875 C 1169.097656 1489.226562 1176.261719 1537.191406 1184.394531 1556.675781 C 1187.144531 1563.25 1188.636719 1571.507812 1187.71875 1575.03125 C 1186.796875 1578.550781 1190.644531 1596.152344 1196.261719 1614.136719 C 1213.832031 1670.390625 1213.054688 1694.253906 1192.820312 1719.824219 C 1189.195312 1724.40625 1187.246094 1727.007812 1186.085938 1728.765625 C 1246.910156 1713.265625 1291.898438 1658.097656 1291.898438 1592.402344 L 1291.898438 956.1875 C 1290.679688 956.640625 1289.800781 957.730469 1289.800781 959.019531 Z M 1289.800781 959.019531 "/><path style=" stroke:none;fill-rule:nonzero;fill:rgb(100%,100%,100%);fill-opacity:1;" d="M 633.480469 1416.386719 L 690.332031 1416.386719 L 723.125 1561.457031 L 723.675781 1561.457031 L 723.675781 1416.386719 L 771.230469 1416.386719 L 771.230469 1651.796875 L 715.476562 1651.796875 L 681.585938 1506.394531 L 681.039062 1506.394531 L 681.039062 1651.796875 L 633.480469 1651.796875 Z M 795.84375 1416.386719 L 872.648438 1416.386719 C 909 1416.386719 925.941406 1439.796875 925.941406 1475.070312 C 925.941406 1500.125 916.921875 1522.550781 895.335938 1527.820312 L 895.335938 1528.480469 C 921.023438 1531.445312 931.414062 1557.824219 931.414062 1582.21875 C 931.414062 1623.101562 915.015625 1651.785156 872.648438 1651.785156 L 795.84375 1651.785156 Z M 846.679688 1508.703125 L 858.984375 1508.703125 C 869.367188 1508.703125 875.109375 1497.496094 875.109375 1484.964844 C 875.109375 1471.777344 869.367188 1460.570312 858.984375 1460.570312 L 846.679688 1460.570312 Z M 846.679688 1607.613281 L 860.894531 1607.613281 C 870.1875 1607.613281 878.933594 1597.722656 878.933594 1578.597656 C 878.933594 1560.464844 870.1875 1550.246094 860.894531 1550.246094 L 846.679688 1550.246094 Z M 982.007812 1416.386719 L 1045.964844 1416.386719 L 1093.519531 1651.796875 L 1039.398438 1651.796875 L 1034.207031 1610.582031 L 993.757812 1610.582031 L 988.570312 1651.796875 L 934.441406 1651.796875 Z M 1014.253906 1464.523438 L 1013.710938 1464.523438 L 999.773438 1564.425781 L 1028.195312 1564.425781 Z M 1014.253906 1464.523438 "/></g></svg>