<svg xmlns="http://www.w3.org/2000/svg" viewBox="0 0 277.12 277.13"><title>paris-saint-germain-logo</title><path d="M512,373.43c-76.41,0-138.56,62.16-138.56,138.56S435.59,650.57,512,650.57,650.56,588.4,650.56,512,588.4,373.43,512,373.43" transform="translate(-373.44 -373.43)" style="fill:#004170"/><path d="M511.81,388.48A123.56,123.56,0,1,1,388.25,512,123.56,123.56,0,0,1,511.81,388.48m0-5.1a128.65,128.65,0,1,0,91,37.68,127.82,127.82,0,0,0-91-37.68" transform="translate(-373.44 -373.43)" style="fill:#fff"/><path d="M546.62,436.29l12.23-29.41q-3-1.35-6.1-2.52l-12.22,29.39q3.11,1.15,6.09,2.54" transform="translate(-373.44 -373.43)" style="fill:#fff"/><path d="M511.39,428.52v-9.63h8.06l7,11a82.93,82.93,0,0,1,8.11,1.89l-8.33-13.29C531,417.21,534.9,413,534.9,408c0-6-5.68-10.89-11.68-10.89H505v31.67c2.12-.17,4.26-.27,6.43-.27Zm0-25.77h11.83a5.25,5.25,0,0,1,0,10.51H511.39Z" transform="translate(-373.44 -373.43)" style="fill:#fff"/><path d="M453.84,451.37l-7.21-6.57,8.93-9.84c4-4.43,4-11.57-.39-15.61a11.3,11.3,0,0,0-15.7.95L426.21,434.9l23.1,21c1.45-1.59,3-3.1,4.53-4.58m-19.13-17.44,8.67-9.51a5.25,5.25,0,1,1,7.77,7.08L442.47,441Z" transform="translate(-373.44 -373.43)" style="fill:#fff"/><path d="M574.48,424.69c4.77-1.12,13.52,7.58,15.2,13.47,1.39-1.06,4.49-3.34,4.49-3.34-3.7-10.53-18.44-21.07-25.44-14.48-4.15,3.92-1.8,10,1.83,13.78l3.52,3.7c3.59,3.78,6.73,7.55,3.84,9.92-3.07,2.54-11.67-3.82-16.84-14.76l-4.63,3.49a35,35,0,0,0,6.95,10.57c3.79,4,7.93,6.6,11.63,7.33,2.91.57,5.81.14,7.72-1.64,4.77-4.42,3-10.88-4.46-18.77l-3.11-3.27c-3.45-3.64-2-5.71-.7-6" transform="translate(-373.44 -373.43)" style="fill:#fff"/><path d="M476.67,402.4q-3.39,1.09-6.7,2.38l-2.38,36.08q3.21-2,6.59-3.64l.34-8.41a90.57,90.57,0,0,1,13.56-4.74l5.54,6.36c2.44-.53,4.91-1,7.42-1.26ZM474.76,423l.54-13.61,9,10.28a95.16,95.16,0,0,0-9.51,3.33" transform="translate(-373.44 -373.43)" style="fill:#fff"/><path d="M511.9,535C495.36,535,482,547.76,482,563.47a27.26,27.26,0,0,0,4.55,15.06,70.71,70.71,0,0,0,50.79,0,27.25,27.25,0,0,0,4.55-15.06c0-15.7-13.41-28.44-29.94-28.44" transform="translate(-373.44 -373.43)" style="fill:#004170"/><path d="M538.06,513.88H485.7a142.79,142.79,0,0,1-33,37.39,71.21,71.21,0,0,0,21.92,21.37,33.53,33.53,0,0,1-.5-5.74c0-19.5,16.91-35.32,37.77-35.32s37.77,15.81,37.77,35.32a33.57,33.57,0,0,1-.5,5.74,71.14,71.14,0,0,0,21.9-21.34,142.77,142.77,0,0,1-33-37.41" transform="translate(-373.44 -373.43)" style="fill:#e30613"/><path d="M536.43,511.12c-11.07-19.41-17.61-42.33-18.1-69.14-2.12-.19-4.26-.31-6.43-.31s-4.34.12-6.48.31c-.49,26.8-7,49.72-18.1,69.13Z" transform="translate(-373.44 -373.43)" style="fill:#e30613"/><path d="M511.9,436.59a75.87,75.87,0,1,0,75.88,75.88,76,76,0,0,0-75.88-75.88m0,5.1c2.18,0,4.31.11,6.44.31.48,26.8,7,49.72,18.1,69.13H487.32c11.07-19.41,17.62-42.33,18.1-69.13,2.13-.19,4.3-.31,6.48-.31m-70.78,70.78a70.79,70.79,0,0,1,60.8-70.07c-3.11,45.48-22.06,78.46-53.26,101.86a70.48,70.48,0,0,1-7.55-31.79m96.18,66.06a70.73,70.73,0,0,1-50.79,0A27.26,27.26,0,0,1,482,563.47c0-15.7,13.41-28.44,29.94-28.44s29.95,12.73,29.95,28.44a27.26,27.26,0,0,1-4.55,15.06m11.87-5.89a33.53,33.53,0,0,0,.5-5.74c0-19.5-16.91-35.32-37.77-35.32s-37.77,15.81-37.77,35.32a32.94,32.94,0,0,0,.51,5.74,71.08,71.08,0,0,1-21.92-21.37,142.88,142.88,0,0,0,33-37.39h52.36a142.78,142.78,0,0,0,33,37.41,71.07,71.07,0,0,1-21.9,21.34M521.89,442.4a70.77,70.77,0,0,1,53.24,101.85C544,520.86,525,487.88,521.89,442.4" transform="translate(-373.44 -373.43)" style="fill:#fff"/><path d="M514.41,571.91a3.68,3.68,0,0,1-1.68-2.28.87.87,0,0,0-1.67,0,3.69,3.69,0,0,1-1.68,2.28c-.15.09-.16.16-.1.28a9.74,9.74,0,0,0,2.39,3.07c.15.12.2.12.23.12s.09,0,.23-.12a9.65,9.65,0,0,0,2.39-3.07c.06-.12,0-.18-.1-.28" transform="translate(-373.44 -373.43)" style="fill:#ceab5d"/><path d="M516.83,556c0-2.89-3.78-11.91-4.93-11.91a.46.46,0,0,0-.28.13c-1.38,1.11-4.65,9.1-4.65,11.79,0,2.16,4.36,7.84,4.36,10.93a.57.57,0,1,0,1.15,0v0c0-3.09,4.36-8.76,4.36-10.91" transform="translate(-373.44 -373.43)" style="fill:#ceab5d"/><path d="M509.44,566.68c-2-5.39-5.57-8.34-9.23-8.34a5,5,0,0,0,0,10,3,3,0,0,0,2.11-.87,1.88,1.88,0,0,0,.51-1.79.26.26,0,0,0-.34-.15l-.3,0a1.68,1.68,0,1,1,0-3.35c1.64,0,4.56,1.58,6.12,5h0a0,0,0,0,1,0,0,.61.61,0,0,0,.56.34.62.62,0,0,0,.62-.63.61.61,0,0,0-.06-.26" transform="translate(-373.44 -373.43)" style="fill:#ceab5d"/><path d="M523.43,558.35c-3.67,0-7.19,3-9.23,8.34a.59.59,0,0,0-.06.26.62.62,0,0,0,.61.63.64.64,0,0,0,.56-.34s0,0,0,0,0,0,0,0c1.56-3.38,4.47-5,6.12-5a1.68,1.68,0,0,1,0,3.36l-.3,0a.27.27,0,0,0-.34.15,1.92,1.92,0,0,0,.51,1.8,3,3,0,0,0,2.11.87,5,5,0,0,0,0-10" transform="translate(-373.44 -373.43)" style="fill:#ceab5d"/><path d="M448.68,596.8l-1.52-1.14,1.29-4.24-4-3.43-4,1.91L439,588.65l11.85-5.6,1.45,1.23Zm1.53-11.54-4.09,1.94,2.84,2.41Z" transform="translate(-373.44 -373.43)" style="fill:#fff"/><polygon points="86.96 216.83 80.31 226.91 78.88 225.98 85.53 215.9 86.96 216.83" style="fill:#fff"/><polygon points="92.17 220.15 94.22 231.41 94.25 231.42 98.45 223.44 99.96 224.23 94.44 234.75 92.95 234.07 90.88 222.68 90.85 222.66 86.59 230.77 85.12 229.91 90.66 219.35 92.17 220.15" style="fill:#fff"/><polygon points="112.69 228.92 112.13 230.53 108.2 229.17 104.82 238.85 103.21 238.29 106.58 228.6 102.65 227.24 103.21 225.62 112.69 228.92" style="fill:#fff"/><path d="M512.21,611.22l5.44.09,0,3.15c0,2.13-2.4,3.52-5.38,3.47a6.19,6.19,0,1,1,.24-12.37,6.72,6.72,0,0,1,5,2.23l-1.2,1.2a4.61,4.61,0,0,0-3.62-1.72c-3.15-.05-5,2-5,4.45a4.51,4.51,0,0,0,4.77,4.5c2.06,0,3.54-.9,3.56-1.91l0-1.33-3.73-.06Z" transform="translate(-373.44 -373.43)" style="fill:#fff"/><polygon points="157.26 230.61 157.5 232.3 149.57 233.44 150.02 236.52 154.01 235.95 154.26 237.64 150.26 238.22 150.78 241.8 159 240.62 159.24 242.31 149.33 243.73 147.64 231.98 157.26 230.61" style="fill:#fff"/><path d="M541.48,601.05c1.81-.55,3.84-.15,4.53,2.17.75,2.47-.67,3.74-1.61,4.11l3.71,4-1.8.64-3.68-4-4.22,1.27,1.42,4.77-1.63.46-3.42-11.36Zm-4.57,3.16,1,3.35L543,606a1.75,1.75,0,0,0,1.4-2.32c-.38-1.29-1.47-1.31-2.41-1Z" transform="translate(-373.44 -373.43)" style="fill:#fff"/><path d="M578.28,594.22l-1.49,1.19-3.67-2.25-4.32,3.07.84,4.3-1.52,1-2.51-12.77,1.55-1.09Zm-10.7-4.29.87,4.45,3-2.16Z" transform="translate(-373.44 -373.43)" style="fill:#fff"/><polygon points="201.13 208.29 209.24 217.01 207.96 218.14 199.88 209.45 201.13 208.29" style="fill:#fff"/><polygon points="205.84 203.64 217.27 204.43 217.28 204.41 210.58 198.37 211.72 197.1 220.55 205.04 219.52 206.31 207.98 205.52 207.95 205.55 214.74 211.66 213.54 212.88 204.7 204.91 205.84 203.64" style="fill:#fff"/><polygon points="185.74 219.59 184.22 220.37 183.96 228.78 177 224.04 175.48 224.83 180.66 235.5 182.21 234.81 178.61 227.22 178.64 227.2 185.54 231.88 185.81 223.56 185.84 223.54 189.88 230.92 191.35 230.08 185.74 219.59" style="fill:#fff"/><path d="M444.2,577.73c-1-3.62-4.64-7.17-7.42-7.17a2.69,2.69,0,0,0-1.65.53,2.41,2.41,0,0,0-1,1.64,5,5,0,0,0,1.15,3.57l1.26,1.69c1,1.31,1.92,2.68,1.72,3.76a1.52,1.52,0,0,1-.73,1,1.35,1.35,0,0,1-.76.21c-1.72,0-4.62-3.06-6-7.44l0-.08-1.25,1.17,0,0v0a14,14,0,0,0,2.28,4.55,9.34,9.34,0,0,0,4.23,3.43,4.37,4.37,0,0,0,1.33.22,2.69,2.69,0,0,0,1.58-.46,2.84,2.84,0,0,0,1.2-1.9c.21-1.4-.53-3.25-2.21-5.49l-1.12-1.5c-.89-1.19-.86-2-.67-2.41a1.18,1.18,0,0,1,.93-.7h.2c2,0,4.92,3.38,5.67,6l0,.06.06,0,1.22-.7,0,0Z" transform="translate(-373.44 -373.43)" style="fill:#fff"/><polygon points="122.92 238.28 118.69 237.35 119.08 235.64 123.3 236.6 122.92 238.28" style="fill:#fff"/></svg>