<?xml version="1.0" encoding="UTF-8"?><svg xmlns="http://www.w3.org/2000/svg" xmlns:xlink="http://www.w3.org/1999/xlink" contentScriptType="text/ecmascript" width="1874.88pt" zoomAndPan="magnify" contentStyleType="text/css" viewBox="0 0 1874.88 1748.999931" height="1748.999931pt" preserveAspectRatio="xMidYMid meet" version="1.2"><defs><clipPath xml:id="clip1" id="clip1"><path d="M 73.679688 10.738281 L 1801.570312 10.738281 L 1801.570312 1738.628906 L 73.679688 1738.628906 Z M 73.679688 10.738281 "/></clipPath></defs><g xml:id="surface1" id="surface1"><g clip-rule="nonzero" clip-path="url(#clip1)"><path style=" stroke:none;fill-rule:nonzero;fill:rgb(0%,25.489807%,43.919373%);fill-opacity:1;" d="M 937.8125 10.738281 C 461.296875 10.738281 73.710938 398.386719 73.710938 874.839844 C 73.710938 1351.292969 461.296875 1739.066406 937.8125 1739.066406 C 1414.328125 1739.066406 1801.914062 1351.355469 1801.914062 874.902344 C 1801.914062 398.449219 1414.265625 10.738281 937.8125 10.738281 "/></g><path style=" stroke:none;fill-rule:nonzero;fill:rgb(100%,100%,100%);fill-opacity:1;" d="M 936.628906 104.597656 C 949.238281 104.59375 961.839844 104.902344 974.433594 105.519531 C 987.03125 106.136719 999.601562 107.0625 1012.152344 108.300781 C 1024.703125 109.535156 1037.214844 111.074219 1049.6875 112.925781 C 1062.160156 114.773438 1074.582031 116.929688 1086.949219 119.386719 C 1099.320312 121.847656 1111.617188 124.609375 1123.851562 127.671875 C 1136.082031 130.734375 1148.234375 134.097656 1160.300781 137.757812 C 1172.371094 141.417969 1184.339844 145.371094 1196.214844 149.617188 C 1208.085938 153.867188 1219.847656 158.402344 1231.5 163.226562 C 1243.148438 168.050781 1254.675781 173.160156 1266.074219 178.550781 C 1277.476562 183.945312 1288.738281 189.609375 1299.859375 195.554688 C 1310.980469 201.5 1321.949219 207.714844 1332.765625 214.195312 C 1343.582031 220.679688 1354.234375 227.421875 1364.71875 234.429688 C 1375.203125 241.433594 1385.511719 248.695312 1395.640625 256.207031 C 1405.769531 263.71875 1415.707031 271.472656 1425.457031 279.476562 C 1435.207031 287.476562 1444.75 295.710938 1454.09375 304.179688 C 1463.441406 312.648438 1472.570312 321.339844 1481.488281 330.257812 C 1490.40625 339.175781 1499.097656 348.304688 1507.566406 357.648438 C 1516.035156 366.992188 1524.269531 376.539062 1532.269531 386.289062 C 1540.273438 396.039062 1548.027344 405.976562 1555.539062 416.105469 C 1563.050781 426.234375 1570.3125 436.542969 1577.316406 447.027344 C 1584.324219 457.515625 1591.070312 468.164062 1597.550781 478.984375 C 1604.035156 489.800781 1610.25 500.769531 1616.195312 511.890625 C 1622.140625 523.015625 1627.808594 534.277344 1633.199219 545.675781 C 1638.589844 557.078125 1643.699219 568.601562 1648.527344 580.253906 C 1653.351562 591.90625 1657.890625 603.667969 1662.136719 615.542969 C 1666.386719 627.417969 1670.339844 639.386719 1674.003906 651.457031 C 1677.664062 663.527344 1681.027344 675.675781 1684.089844 687.910156 C 1687.152344 700.144531 1689.917969 712.445312 1692.375 724.816406 C 1694.835938 737.183594 1696.992188 749.605469 1698.84375 762.082031 C 1700.691406 774.554688 1702.238281 787.070312 1703.472656 799.621094 C 1704.707031 812.171875 1705.636719 824.746094 1706.253906 837.339844 C 1706.875 849.9375 1707.183594 862.542969 1707.183594 875.152344 C 1707.183594 887.761719 1706.875 900.367188 1706.257812 912.960938 C 1705.640625 925.554688 1704.714844 938.128906 1703.480469 950.679688 C 1702.246094 963.226562 1700.703125 975.738281 1698.855469 988.214844 C 1697.003906 1000.6875 1694.851562 1013.109375 1692.390625 1025.476562 C 1689.933594 1037.84375 1687.171875 1050.144531 1684.109375 1062.378906 C 1681.042969 1074.609375 1677.683594 1086.761719 1674.023438 1098.828125 C 1670.363281 1110.894531 1666.410156 1122.867188 1662.160156 1134.738281 C 1657.914062 1146.613281 1653.378906 1158.375 1648.550781 1170.027344 C 1643.726562 1181.675781 1638.617188 1193.203125 1633.226562 1204.601562 C 1627.835938 1216 1622.167969 1227.261719 1616.222656 1238.382812 C 1610.28125 1249.507812 1604.066406 1260.476562 1597.582031 1271.292969 C 1591.101562 1282.109375 1584.355469 1292.757812 1577.351562 1303.246094 C 1570.34375 1313.730469 1563.085938 1324.039062 1555.574219 1334.167969 C 1548.0625 1344.296875 1540.304688 1354.234375 1532.304688 1363.984375 C 1524.304688 1373.730469 1516.070312 1383.277344 1507.601562 1392.621094 C 1499.132812 1401.964844 1490.4375 1411.097656 1481.523438 1420.011719 C 1472.605469 1428.929688 1463.472656 1437.625 1454.128906 1446.09375 C 1444.785156 1454.5625 1435.238281 1462.796875 1425.492188 1470.796875 C 1415.742188 1478.796875 1405.804688 1486.554688 1395.675781 1494.066406 C 1385.542969 1501.578125 1375.238281 1508.835938 1364.75 1515.84375 C 1354.265625 1522.851562 1343.613281 1529.59375 1332.796875 1536.078125 C 1321.980469 1542.5625 1311.011719 1548.777344 1299.886719 1554.71875 C 1288.765625 1560.664062 1277.503906 1566.332031 1266.105469 1571.726562 C 1254.703125 1577.117188 1243.175781 1582.226562 1231.527344 1587.050781 C 1219.875 1591.878906 1208.109375 1596.414062 1196.238281 1600.664062 C 1184.363281 1604.914062 1172.390625 1608.867188 1160.324219 1612.527344 C 1148.253906 1616.1875 1136.101562 1619.550781 1123.867188 1622.617188 C 1111.636719 1625.679688 1099.335938 1628.441406 1086.964844 1630.902344 C 1074.59375 1633.363281 1062.171875 1635.519531 1049.699219 1637.367188 C 1037.222656 1639.21875 1024.710938 1640.761719 1012.160156 1642 C 999.609375 1643.234375 987.035156 1644.160156 974.4375 1644.78125 C 961.84375 1645.398438 949.238281 1645.707031 936.628906 1645.710938 C 924.011719 1645.707031 911.40625 1645.394531 898.808594 1644.773438 C 886.207031 1644.152344 873.632812 1643.222656 861.078125 1641.980469 C 848.523438 1640.742188 836.007812 1639.195312 823.53125 1637.34375 C 811.054688 1635.488281 798.628906 1633.332031 786.257812 1630.867188 C 773.886719 1628.40625 761.585938 1625.640625 749.347656 1622.574219 C 737.113281 1619.503906 724.960938 1616.140625 712.890625 1612.476562 C 700.820312 1608.8125 688.847656 1604.855469 676.96875 1600.601562 C 665.09375 1596.351562 653.332031 1591.8125 641.675781 1586.984375 C 630.023438 1582.152344 618.496094 1577.042969 607.09375 1571.648438 C 595.691406 1566.25 584.429688 1560.578125 573.308594 1554.632812 C 562.183594 1548.683594 551.214844 1542.46875 540.394531 1535.980469 C 529.578125 1529.492188 518.925781 1522.746094 508.4375 1515.738281 C 497.953125 1508.726562 487.644531 1501.464844 477.511719 1493.949219 C 467.382812 1486.433594 457.445312 1478.675781 447.695312 1470.671875 C 437.945312 1462.667969 428.398438 1454.429688 419.054688 1445.960938 C 409.710938 1437.488281 400.582031 1428.792969 391.664062 1419.871094 C 382.746094 1410.953125 374.054688 1401.816406 365.585938 1392.472656 C 357.117188 1383.125 348.882812 1373.574219 340.882812 1363.824219 C 332.882812 1354.074219 325.125 1344.132812 317.613281 1334 C 310.101562 1323.867188 302.84375 1313.558594 295.839844 1303.070312 C 288.835938 1292.582031 282.089844 1281.925781 275.609375 1271.109375 C 269.125 1260.289062 262.914062 1249.316406 256.972656 1238.191406 C 251.027344 1227.070312 245.363281 1215.804688 239.972656 1204.402344 C 234.582031 1193 229.476562 1181.472656 224.652344 1169.820312 C 219.828125 1158.167969 215.292969 1146.402344 211.046875 1134.527344 C 206.800781 1122.652344 202.847656 1110.679688 199.191406 1098.609375 C 195.53125 1086.539062 192.171875 1074.386719 189.109375 1062.152344 C 186.050781 1049.917969 183.289062 1037.617188 180.832031 1025.246094 C 178.375 1012.875 176.222656 1000.453125 174.375 987.976562 C 172.53125 975.5 170.988281 962.988281 169.757812 950.4375 C 168.523438 937.886719 167.601562 925.3125 166.988281 912.714844 C 166.371094 900.117188 166.066406 887.515625 166.070312 874.902344 C 166.074219 862.296875 166.386719 849.695312 167.011719 837.101562 C 167.632812 824.507812 168.5625 811.941406 169.804688 799.390625 C 171.042969 786.84375 172.589844 774.335938 174.445312 761.863281 C 176.296875 749.394531 178.457031 736.976562 180.917969 724.609375 C 183.382812 712.246094 186.148438 699.949219 189.214844 687.71875 C 192.28125 675.488281 195.644531 663.34375 199.308594 651.277344 C 202.972656 639.214844 206.929688 627.246094 211.179688 615.375 C 215.429688 603.507812 219.96875 591.75 224.796875 580.101562 C 229.625 568.453125 234.734375 556.933594 240.128906 545.535156 C 245.523438 534.140625 251.191406 522.882812 257.136719 511.765625 C 263.082031 500.644531 269.296875 489.679688 275.78125 478.867188 C 282.265625 468.054688 289.011719 457.40625 296.019531 446.925781 C 303.027344 436.441406 310.285156 426.140625 317.796875 416.015625 C 325.3125 405.886719 333.066406 395.953125 341.066406 386.207031 C 349.070312 376.464844 357.304688 366.921875 365.773438 357.582031 C 374.242188 348.238281 382.933594 339.113281 391.851562 330.199219 C 400.765625 321.285156 409.898438 312.59375 419.238281 304.128906 C 428.582031 295.664062 438.128906 287.433594 447.875 279.4375 C 457.621094 271.4375 467.558594 263.683594 477.6875 256.175781 C 487.816406 248.667969 498.121094 241.410156 508.605469 234.40625 C 519.089844 227.402344 529.742188 220.660156 540.554688 214.179688 C 551.371094 207.699219 562.339844 201.488281 573.457031 195.546875 C 584.578125 189.605469 595.835938 183.9375 607.234375 178.546875 C 618.632812 173.160156 630.15625 168.050781 641.804688 163.226562 C 653.453125 158.402344 665.214844 153.867188 677.085938 149.621094 C 688.957031 145.375 700.925781 141.421875 712.992188 137.761719 C 725.054688 134.101562 737.203125 130.742188 749.433594 127.679688 C 761.664062 124.617188 773.964844 121.855469 786.328125 119.394531 C 798.695312 116.9375 811.113281 114.78125 823.585938 112.933594 C 836.058594 111.082031 848.566406 109.539062 861.113281 108.304688 C 873.664062 107.070312 886.234375 106.144531 898.824219 105.523438 C 911.417969 104.90625 924.019531 104.597656 936.628906 104.597656 M 936.628906 72.792969 C 921.308594 72.796875 906.003906 73.238281 890.707031 74.117188 C 875.414062 75 860.160156 76.316406 844.941406 78.070312 C 829.722656 79.824219 814.566406 82.011719 799.472656 84.636719 C 784.378906 87.257812 769.375 90.3125 754.457031 93.792969 C 739.539062 97.273438 724.734375 101.179688 710.039062 105.511719 C 695.34375 109.839844 680.785156 114.589844 666.363281 119.753906 C 651.941406 124.917969 637.679688 130.488281 623.574219 136.46875 C 609.472656 142.453125 595.550781 148.832031 581.8125 155.609375 C 568.074219 162.386719 554.542969 169.554688 541.214844 177.109375 C 527.890625 184.660156 514.789062 192.589844 501.914062 200.894531 C 489.042969 209.199219 476.417969 217.863281 464.042969 226.890625 C 451.664062 235.917969 439.554688 245.292969 427.714844 255.015625 C 415.875 264.734375 404.324219 274.785156 393.0625 285.167969 C 381.796875 295.550781 370.839844 306.25 360.1875 317.257812 C 349.539062 328.269531 339.210938 339.574219 329.207031 351.175781 C 319.203125 362.777344 309.539062 374.65625 300.214844 386.8125 C 290.894531 398.96875 281.925781 411.378906 273.3125 424.046875 C 264.703125 436.71875 256.457031 449.621094 248.585938 462.765625 C 240.710938 475.90625 233.222656 489.261719 226.113281 502.832031 C 219.007812 516.402344 212.292969 530.164062 205.972656 544.117188 C 199.652344 558.074219 193.738281 572.199219 188.226562 586.492188 C 182.71875 600.785156 177.621094 615.222656 172.9375 629.808594 C 168.253906 644.394531 163.992188 659.101562 160.152344 673.933594 C 156.308594 688.761719 152.898438 703.691406 149.910156 718.714844 C 146.925781 733.742188 144.371094 748.839844 142.25 764.011719 C 140.128906 779.183594 138.445312 794.402344 137.195312 809.671875 C 135.945312 824.9375 135.136719 840.230469 134.761719 855.542969 C 134.390625 870.859375 134.453125 886.171875 134.957031 901.480469 C 135.460938 916.792969 136.402344 932.074219 137.78125 947.332031 C 139.164062 962.589844 140.976562 977.796875 143.226562 992.949219 C 145.476562 1008.101562 148.160156 1023.175781 151.273438 1038.175781 C 154.386719 1053.175781 157.929688 1068.074219 161.894531 1082.871094 C 165.863281 1097.664062 170.25 1112.335938 175.058594 1126.882812 C 179.867188 1141.425781 185.085938 1155.820312 190.71875 1170.066406 C 196.351562 1184.3125 202.386719 1198.386719 208.824219 1212.289062 C 215.261719 1226.1875 222.09375 1239.894531 229.316406 1253.402344 C 236.539062 1266.910156 244.144531 1280.203125 252.128906 1293.277344 C 260.113281 1306.351562 268.46875 1319.183594 277.1875 1331.777344 C 285.90625 1344.375 294.980469 1356.710938 304.40625 1368.785156 C 313.832031 1380.859375 323.597656 1392.65625 333.699219 1404.171875 C 343.800781 1415.6875 354.226562 1426.90625 364.972656 1437.824219 C 375.714844 1448.742188 386.765625 1459.34375 398.117188 1469.632812 C 409.46875 1479.917969 421.105469 1489.871094 433.027344 1499.488281 C 444.949219 1509.109375 457.136719 1518.378906 469.589844 1527.300781 C 482.042969 1536.222656 494.742188 1544.78125 507.6875 1552.972656 C 520.628906 1561.167969 533.796875 1568.984375 547.1875 1576.425781 C 560.578125 1583.863281 574.171875 1590.914062 587.96875 1597.574219 C 601.761719 1604.234375 615.738281 1610.496094 629.890625 1616.355469 C 644.042969 1622.21875 658.355469 1627.667969 672.820312 1632.710938 C 687.285156 1637.75 701.882812 1642.371094 716.613281 1646.578125 C 731.34375 1650.78125 746.183594 1654.5625 761.132812 1657.917969 C 776.078125 1661.269531 791.109375 1664.195312 806.222656 1666.6875 C 821.339844 1669.183594 836.511719 1671.242188 851.746094 1672.867188 C 866.980469 1674.492188 882.246094 1675.679688 897.546875 1676.425781 C 912.847656 1677.179688 928.15625 1677.488281 943.476562 1677.363281 C 958.792969 1677.234375 974.09375 1676.671875 989.382812 1675.667969 C 1004.667969 1674.664062 1019.914062 1673.222656 1035.117188 1671.347656 C 1050.320312 1669.46875 1065.457031 1667.160156 1080.527344 1664.414062 C 1095.601562 1661.671875 1110.582031 1658.5 1125.46875 1654.894531 C 1140.359375 1651.292969 1155.132812 1647.269531 1169.792969 1642.820312 C 1184.453125 1638.371094 1198.972656 1633.507812 1213.351562 1628.230469 C 1227.730469 1622.949219 1241.949219 1617.261719 1256.003906 1611.167969 C 1270.058594 1605.074219 1283.925781 1598.582031 1297.609375 1591.691406 C 1311.292969 1584.804688 1324.765625 1577.527344 1338.03125 1569.867188 C 1351.300781 1562.207031 1364.335938 1554.171875 1377.140625 1545.765625 C 1389.945312 1537.359375 1402.5 1528.589844 1414.804688 1519.464844 C 1427.109375 1510.335938 1439.140625 1500.867188 1450.902344 1491.050781 C 1462.664062 1481.234375 1474.132812 1471.089844 1485.3125 1460.617188 C 1496.492188 1450.144531 1507.367188 1439.359375 1517.925781 1428.265625 C 1528.488281 1417.167969 1538.726562 1405.78125 1548.636719 1394.097656 C 1558.546875 1382.417969 1568.113281 1370.460938 1577.339844 1358.230469 C 1586.5625 1346 1595.429688 1333.515625 1603.941406 1320.78125 C 1612.449219 1308.042969 1620.589844 1295.070312 1628.355469 1281.867188 C 1636.125 1268.664062 1643.507812 1255.246094 1650.503906 1241.621094 C 1657.503906 1227.992188 1664.105469 1214.175781 1670.3125 1200.171875 C 1676.519531 1186.167969 1682.320312 1171.996094 1687.714844 1157.65625 C 1693.109375 1143.320312 1698.09375 1128.839844 1702.65625 1114.214844 C 1707.222656 1099.59375 1711.367188 1084.851562 1715.089844 1069.992188 C 1718.808594 1055.132812 1722.101562 1040.175781 1724.96875 1025.128906 C 1727.832031 1010.078125 1730.265625 994.960938 1732.261719 979.773438 C 1734.261719 964.585938 1735.824219 949.351562 1736.953125 934.074219 C 1738.078125 918.796875 1738.765625 903.5 1739.015625 888.183594 C 1739.265625 872.867188 1739.078125 857.554688 1738.449219 842.25 C 1737.824219 826.941406 1736.757812 811.667969 1735.257812 796.421875 C 1733.753906 781.175781 1731.816406 765.988281 1729.445312 750.851562 C 1727.074219 735.71875 1724.269531 720.664062 1721.035156 705.691406 C 1717.800781 690.714844 1714.140625 675.847656 1710.054688 661.082031 C 1705.96875 646.320312 1701.460938 631.683594 1696.539062 617.179688 C 1691.613281 602.671875 1686.277344 588.320312 1680.53125 574.121094 C 1674.785156 559.917969 1668.636719 545.894531 1662.085938 532.046875 C 1655.535156 518.199219 1648.59375 504.550781 1641.261719 491.097656 C 1633.929688 477.648438 1626.21875 464.417969 1618.128906 451.410156 C 1610.039062 438.402344 1601.585938 425.632812 1592.765625 413.109375 C 1583.941406 400.585938 1574.769531 388.324219 1565.246094 376.324219 C 1555.722656 364.324219 1545.867188 352.609375 1535.671875 341.175781 C 1525.476562 329.738281 1514.960938 318.605469 1504.128906 307.773438 C 1494.863281 298.460938 1485.375 289.378906 1475.660156 280.53125 C 1465.945312 271.6875 1456.015625 263.085938 1445.878906 254.730469 C 1435.738281 246.375 1425.398438 238.273438 1414.855469 230.429688 C 1404.316406 222.585938 1393.589844 215.007812 1382.671875 207.695312 C 1371.757812 200.378906 1360.667969 193.339844 1349.40625 186.574219 C 1338.140625 179.8125 1326.71875 173.328125 1315.132812 167.128906 C 1303.550781 160.925781 1291.820312 155.015625 1279.945312 149.398438 C 1268.066406 143.777344 1256.058594 138.453125 1243.921875 133.425781 C 1231.78125 128.398438 1219.523438 123.675781 1207.152344 119.257812 C 1194.777344 114.835938 1182.304688 110.722656 1169.726562 106.921875 C 1157.152344 103.117188 1144.488281 99.625 1131.738281 96.449219 C 1118.992188 93.269531 1106.171875 90.410156 1093.28125 87.867188 C 1080.390625 85.324219 1067.445312 83.101562 1054.445312 81.195312 C 1041.445312 79.292969 1028.40625 77.710938 1015.328125 76.453125 C 1002.25 75.195312 989.148438 74.261719 976.023438 73.648438 C 962.898438 73.039062 949.765625 72.753906 936.628906 72.792969 "/><path style=" stroke:none;fill-rule:nonzero;fill:rgb(100%,100%,100%);fill-opacity:1;" d="M 1153.710938 402.753906 L 1229.980469 219.34375 C 1217.511719 213.730469 1204.828125 208.492188 1191.941406 203.628906 L 1115.734375 386.914062 C 1128.664062 391.695312 1141.324219 396.976562 1153.714844 402.753906 "/><path style=" stroke:none;fill-rule:nonzero;fill:rgb(100%,100%,100%);fill-opacity:1;" d="M 934.007812 354.296875 L 934.007812 294.242188 L 984.273438 294.242188 L 1027.925781 362.839844 C 1044.984375 365.921875 1061.839844 369.851562 1078.503906 374.628906 L 1026.554688 291.746094 C 1056.300781 283.765625 1080.625 257.511719 1080.625 226.328125 C 1080.625 188.910156 1045.203125 158.414062 1007.785156 158.414062 L 894.15625 158.414062 L 894.15625 355.917969 C 907.378906 354.859375 920.726562 354.234375 934.257812 354.234375 Z M 934.007812 193.589844 L 1007.785156 193.589844 C 1008.855469 193.589844 1009.925781 193.640625 1010.996094 193.746094 C 1012.0625 193.851562 1013.125 194.007812 1014.175781 194.21875 C 1015.230469 194.425781 1016.269531 194.6875 1017.296875 195 C 1018.324219 195.3125 1019.332031 195.671875 1020.324219 196.082031 C 1021.316406 196.492188 1022.285156 196.953125 1023.230469 197.457031 C 1024.179688 197.964844 1025.097656 198.515625 1025.992188 199.109375 C 1026.882812 199.707031 1027.742188 200.347656 1028.574219 201.027344 C 1029.402344 201.707031 1030.199219 202.429688 1030.957031 203.1875 C 1031.714844 203.945312 1032.4375 204.742188 1033.117188 205.570312 C 1033.796875 206.398438 1034.4375 207.261719 1035.03125 208.152344 C 1035.628906 209.046875 1036.179688 209.964844 1036.6875 210.910156 C 1037.191406 211.859375 1037.648438 212.828125 1038.0625 213.820312 C 1038.472656 214.808594 1038.832031 215.820312 1039.144531 216.847656 C 1039.457031 217.875 1039.714844 218.914062 1039.925781 219.964844 C 1040.136719 221.019531 1040.292969 222.078125 1040.398438 223.148438 C 1040.503906 224.214844 1040.554688 225.285156 1040.554688 226.359375 C 1040.554688 227.433594 1040.503906 228.503906 1040.398438 229.570312 C 1040.292969 230.640625 1040.136719 231.699219 1039.925781 232.753906 C 1039.714844 233.804688 1039.457031 234.847656 1039.144531 235.875 C 1038.832031 236.898438 1038.472656 237.910156 1038.0625 238.902344 C 1037.648438 239.894531 1037.191406 240.863281 1036.6875 241.808594 C 1036.179688 242.753906 1035.628906 243.675781 1035.03125 244.566406 C 1034.4375 245.460938 1033.796875 246.320312 1033.117188 247.148438 C 1032.4375 247.980469 1031.714844 248.773438 1030.957031 249.535156 C 1030.199219 250.292969 1029.402344 251.011719 1028.574219 251.691406 C 1027.742188 252.375 1026.882812 253.011719 1025.992188 253.609375 C 1025.097656 254.203125 1024.179688 254.757812 1023.230469 255.261719 C 1022.285156 255.769531 1021.316406 256.226562 1020.324219 256.636719 C 1019.332031 257.046875 1018.324219 257.410156 1017.296875 257.71875 C 1016.269531 258.03125 1015.230469 258.292969 1014.175781 258.5 C 1013.125 258.710938 1012.0625 258.867188 1010.996094 258.972656 C 1009.925781 259.078125 1008.855469 259.132812 1007.785156 259.132812 L 934.007812 259.132812 Z M 934.007812 193.589844 "/><path style=" stroke:none;fill-rule:nonzero;fill:rgb(100%,100%,100%);fill-opacity:1;" d="M 575.109375 496.796875 L 530.144531 455.824219 L 585.835938 394.460938 C 610.78125 366.832031 610.78125 322.304688 583.402344 297.109375 C 582.546875 296.375 581.671875 295.660156 580.777344 294.964844 C 579.886719 294.269531 578.980469 293.597656 578.054688 292.949219 C 577.128906 292.296875 576.191406 291.671875 575.234375 291.066406 C 574.28125 290.460938 573.3125 289.878906 572.328125 289.320312 C 571.347656 288.761719 570.351562 288.226562 569.34375 287.714844 C 568.335938 287.203125 567.3125 286.71875 566.28125 286.257812 C 565.25 285.796875 564.207031 285.359375 563.15625 284.949219 C 562.101562 284.535156 561.042969 284.152344 559.96875 283.789062 C 558.898438 283.429688 557.820312 283.097656 556.730469 282.789062 C 555.644531 282.480469 554.550781 282.195312 553.449219 281.941406 C 552.347656 281.683594 551.242188 281.457031 550.128906 281.253906 C 549.015625 281.050781 547.902344 280.875 546.78125 280.726562 C 545.660156 280.578125 544.535156 280.457031 543.410156 280.363281 C 542.285156 280.265625 541.15625 280.199219 540.027344 280.160156 C 538.894531 280.117188 537.765625 280.105469 536.636719 280.121094 C 535.507812 280.132812 534.375 280.175781 533.25 280.242188 C 532.121094 280.3125 530.996094 280.40625 529.871094 280.527344 C 528.746094 280.652344 527.625 280.800781 526.511719 280.976562 C 525.394531 281.152344 524.28125 281.355469 523.175781 281.585938 C 522.070312 281.816406 520.96875 282.070312 519.875 282.355469 C 518.78125 282.636719 517.691406 282.945312 516.613281 283.28125 C 515.535156 283.617188 514.460938 283.976562 513.402344 284.363281 C 512.339844 284.75 511.285156 285.164062 510.246094 285.601562 C 509.203125 286.039062 508.171875 286.5 507.152344 286.988281 C 506.128906 287.472656 505.121094 287.984375 504.128906 288.519531 C 503.132812 289.054688 502.148438 289.613281 501.179688 290.195312 C 500.210938 290.78125 499.257812 291.386719 498.320312 292.011719 C 497.378906 292.640625 496.457031 293.292969 495.546875 293.964844 C 494.640625 294.636719 493.746094 295.332031 492.875 296.050781 C 492 296.765625 491.140625 297.5 490.300781 298.257812 C 489.464844 299.015625 488.640625 299.792969 487.839844 300.589844 C 487.039062 301.386719 486.257812 302.203125 485.492188 303.035156 L 402.800781 394.085938 L 546.859375 525.046875 C 555.902344 515.132812 565.566406 505.714844 575.109375 496.484375 M 455.808594 387.722656 L 509.878906 328.417969 C 510.601562 327.621094 511.359375 326.859375 512.15625 326.140625 C 512.953125 325.417969 513.785156 324.738281 514.648438 324.097656 C 515.511719 323.457031 516.40625 322.859375 517.328125 322.308594 C 518.25 321.757812 519.195312 321.25 520.167969 320.792969 C 521.140625 320.332031 522.132812 319.921875 523.148438 319.5625 C 524.160156 319.203125 525.1875 318.890625 526.230469 318.628906 C 527.273438 318.371094 528.328125 318.164062 529.390625 318.007812 C 530.453125 317.851562 531.523438 317.746094 532.597656 317.695312 C 533.671875 317.644531 534.746094 317.644531 535.820312 317.699219 C 536.894531 317.753906 537.960938 317.859375 539.023438 318.019531 C 540.085938 318.179688 541.140625 318.390625 542.183594 318.65625 C 543.226562 318.917969 544.253906 319.230469 545.265625 319.597656 C 546.277344 319.960938 547.265625 320.375 548.238281 320.835938 C 549.207031 321.296875 550.15625 321.804688 551.074219 322.359375 C 551.996094 322.914062 552.886719 323.515625 553.75 324.15625 C 554.613281 324.800781 555.441406 325.484375 556.234375 326.207031 C 557.03125 326.929688 557.785156 327.691406 558.507812 328.492188 C 559.226562 329.289062 559.90625 330.121094 560.542969 330.988281 C 561.179688 331.851562 561.773438 332.746094 562.324219 333.671875 C 562.875 334.59375 563.378906 335.542969 563.835938 336.519531 C 564.289062 337.492188 564.699219 338.484375 565.058594 339.496094 C 565.414062 340.511719 565.722656 341.539062 565.980469 342.582031 C 566.238281 343.628906 566.445312 344.679688 566.597656 345.746094 C 566.753906 346.808594 566.851562 347.878906 566.902344 348.953125 C 566.949219 350.027344 566.945312 351.101562 566.890625 352.175781 C 566.832031 353.25 566.722656 354.316406 566.5625 355.378906 C 566.398438 356.441406 566.183594 357.496094 565.917969 358.535156 C 565.652344 359.578125 565.335938 360.605469 564.96875 361.613281 C 564.605469 362.625 564.1875 363.617188 563.722656 364.585938 C 563.257812 365.554688 562.75 366.5 562.191406 367.417969 C 561.636719 368.339844 561.035156 369.230469 560.390625 370.089844 C 559.746094 370.949219 559.058594 371.777344 558.332031 372.570312 L 504.203125 432.125 Z M 455.808594 387.722656 "/><path style=" stroke:none;fill-rule:nonzero;fill:rgb(100%,100%,100%);fill-opacity:1;" d="M 1327.457031 330.414062 C 1357.203125 323.429688 1411.769531 377.683594 1422.246094 414.414062 C 1430.914062 407.804688 1450.25 393.585938 1450.25 393.585938 C 1427.175781 327.917969 1335.25 262.1875 1291.597656 303.285156 C 1265.714844 327.730469 1280.371094 365.648438 1303.007812 389.222656 L 1324.960938 412.296875 C 1347.351562 435.867188 1366.929688 459.378906 1348.910156 474.160156 C 1329.761719 490 1276.132812 450.335938 1243.890625 382.113281 L 1215.015625 403.875 C 1220.175781 416.085938 1226.398438 427.730469 1233.683594 438.808594 C 1240.96875 449.886719 1249.191406 460.214844 1258.359375 469.792969 C 1281.992188 494.738281 1307.8125 510.953125 1330.886719 515.503906 C 1349.035156 519.058594 1367.117188 516.378906 1379.03125 505.277344 C 1408.777344 477.714844 1397.738281 437.425781 1351.214844 388.222656 L 1331.820312 367.832031 C 1310.304688 345.128906 1319.347656 332.222656 1327.457031 330.414062 "/><path style=" stroke:none;fill-rule:nonzero;fill:rgb(100%,100%,100%);fill-opacity:1;" d="M 717.484375 191.40625 C 703.390625 195.9375 689.460938 200.882812 675.699219 206.246094 L 660.859375 431.253906 C 674.203125 422.9375 687.902344 415.371094 701.957031 408.554688 L 704.074219 356.105469 C 731.480469 344.011719 759.667969 334.15625 788.640625 326.546875 L 823.1875 366.207031 C 838.40625 362.902344 853.808594 359.972656 869.460938 358.351562 Z M 705.574219 319.875 L 708.941406 234.996094 L 765.066406 299.105469 C 744.929688 304.980469 725.160156 311.902344 705.757812 319.875 "/><path style=" stroke:none;fill-rule:nonzero;fill:rgb(0%,25.489807%,43.919373%);fill-opacity:1;" d="M 937.1875 1018.339844 C 834.039062 1018.339844 750.722656 1097.914062 750.722656 1195.886719 C 750.730469 1204.195312 751.339844 1212.457031 752.558594 1220.675781 C 753.777344 1228.894531 755.585938 1236.984375 757.988281 1244.9375 C 760.390625 1252.890625 763.363281 1260.625 766.898438 1268.144531 C 770.4375 1275.660156 774.503906 1282.882812 779.097656 1289.804688 C 785.398438 1292.226562 791.75 1294.507812 798.15625 1296.640625 C 804.5625 1298.773438 811.011719 1300.757812 817.507812 1302.59375 C 824.003906 1304.429688 830.539062 1306.117188 837.113281 1307.652344 C 843.6875 1309.1875 850.292969 1310.574219 856.929688 1311.804688 C 863.566406 1313.039062 870.226562 1314.121094 876.914062 1315.046875 C 883.601562 1315.972656 890.304688 1316.746094 897.027344 1317.367188 C 903.75 1317.984375 910.484375 1318.449219 917.226562 1318.757812 C 923.972656 1319.070312 930.71875 1319.222656 937.46875 1319.222656 C 944.21875 1319.222656 950.964844 1319.070312 957.710938 1318.757812 C 964.453125 1318.449219 971.1875 1317.984375 977.910156 1317.367188 C 984.632812 1316.746094 991.335938 1315.972656 998.023438 1315.046875 C 1004.710938 1314.121094 1011.371094 1313.039062 1018.007812 1311.804688 C 1024.644531 1310.574219 1031.25 1309.1875 1037.824219 1307.652344 C 1044.398438 1306.117188 1050.933594 1304.429688 1057.429688 1302.59375 C 1063.925781 1300.757812 1070.375 1298.773438 1076.78125 1296.640625 C 1083.1875 1294.507812 1089.539062 1292.226562 1095.839844 1289.804688 C 1100.4375 1282.882812 1104.503906 1275.664062 1108.042969 1268.144531 C 1111.578125 1260.625 1114.550781 1252.890625 1116.953125 1244.9375 C 1119.355469 1236.984375 1121.164062 1228.898438 1122.382812 1220.675781 C 1123.597656 1212.457031 1124.210938 1204.195312 1124.214844 1195.886719 C 1124.214844 1097.976562 1040.585938 1018.523438 937.5 1018.523438 "/><path style=" stroke:none;fill-rule:nonzero;fill:rgb(89.019775%,2.349854%,7.449341%);fill-opacity:1;" d="M 1100.328125 886.628906 L 773.796875 886.628906 C 760.226562 908.882812 745.707031 930.503906 730.234375 951.484375 C 714.765625 972.464844 698.40625 992.726562 681.15625 1012.269531 C 663.90625 1031.8125 645.835938 1050.5625 626.9375 1068.519531 C 608.042969 1086.476562 588.398438 1103.570312 568 1119.804688 C 576.816406 1133.214844 586.328125 1146.113281 596.542969 1158.492188 C 606.757812 1170.875 617.609375 1182.664062 629.101562 1193.871094 C 640.597656 1205.074219 652.660156 1215.625 665.296875 1225.519531 C 677.933594 1235.417969 691.066406 1244.601562 704.699219 1253.074219 C 702.632812 1241.230469 701.589844 1229.296875 701.582031 1217.277344 C 701.582031 1095.667969 807.039062 997.011719 937.125 997.011719 C 1067.214844 997.011719 1172.671875 1095.605469 1172.671875 1217.277344 C 1172.660156 1229.296875 1171.621094 1241.230469 1169.554688 1253.074219 C 1183.171875 1244.613281 1196.292969 1235.441406 1208.917969 1225.5625 C 1221.539062 1215.679688 1233.59375 1205.144531 1245.074219 1193.957031 C 1256.558594 1182.769531 1267.402344 1170.992188 1277.605469 1158.628906 C 1287.8125 1146.265625 1297.320312 1133.382812 1306.128906 1119.988281 C 1285.726562 1103.75 1266.078125 1086.644531 1247.179688 1068.679688 C 1228.285156 1050.714844 1210.210938 1031.953125 1192.960938 1012.398438 C 1175.710938 992.84375 1159.351562 972.570312 1143.882812 951.578125 C 1128.417969 930.585938 1113.898438 908.957031 1100.332031 886.691406 "/><path style=" stroke:none;fill-rule:nonzero;fill:rgb(89.019775%,2.349854%,7.449341%);fill-opacity:1;" d="M 1090.164062 869.414062 C 1021.128906 748.367188 980.34375 605.433594 977.289062 438.238281 C 964.066406 437.054688 950.722656 436.304688 937.1875 436.304688 C 923.65625 436.304688 910.125 437.054688 896.777344 438.238281 C 893.722656 605.371094 853.125 748.304688 783.902344 869.351562 Z M 1090.164062 869.414062 "/><path style=" stroke:none;fill-rule:nonzero;fill:rgb(100%,100%,100%);fill-opacity:1;" d="M 937.1875 404.625 C 929.445312 404.625 921.707031 404.816406 913.976562 405.195312 C 906.242188 405.578125 898.523438 406.148438 890.816406 406.90625 C 883.113281 407.667969 875.429688 408.613281 867.769531 409.75 C 860.113281 410.886719 852.484375 412.210938 844.890625 413.722656 C 837.296875 415.234375 829.746094 416.929688 822.234375 418.8125 C 814.726562 420.695312 807.265625 422.761719 799.855469 425.007812 C 792.449219 427.257812 785.097656 429.683594 777.808594 432.292969 C 770.519531 434.902344 763.296875 437.6875 756.144531 440.652344 C 748.992188 443.617188 741.914062 446.753906 734.914062 450.066406 C 727.917969 453.375 721.003906 456.855469 714.175781 460.507812 C 707.347656 464.15625 700.613281 467.972656 693.972656 471.953125 C 687.332031 475.933594 680.789062 480.078125 674.351562 484.378906 C 667.914062 488.679688 661.585938 493.136719 655.367188 497.75 C 649.148438 502.363281 643.046875 507.125 637.0625 512.039062 C 631.078125 516.953125 625.21875 522.007812 619.480469 527.207031 C 613.746094 532.40625 608.140625 537.746094 602.664062 543.222656 C 597.191406 548.695312 591.851562 554.304688 586.652344 560.039062 C 581.453125 565.777344 576.398438 571.640625 571.488281 577.625 C 566.574219 583.609375 561.8125 589.710938 557.199219 595.933594 C 552.589844 602.152344 548.132812 608.480469 543.832031 614.917969 C 539.53125 621.355469 535.390625 627.894531 531.410156 634.539062 C 527.429688 641.179688 523.613281 647.914062 519.964844 654.742188 C 516.3125 661.570312 512.832031 668.488281 509.523438 675.484375 C 506.214844 682.484375 503.078125 689.5625 500.113281 696.714844 C 497.152344 703.871094 494.367188 711.089844 491.757812 718.382812 C 489.148438 725.671875 486.722656 733.023438 484.472656 740.433594 C 482.226562 747.84375 480.160156 755.300781 478.28125 762.8125 C 476.398438 770.324219 474.703125 777.875 473.191406 785.46875 C 471.683594 793.066406 470.359375 800.691406 469.222656 808.351562 C 468.085938 816.011719 467.140625 823.691406 466.378906 831.398438 C 465.621094 839.105469 465.054688 846.824219 464.671875 854.558594 C 464.292969 862.289062 464.101562 870.027344 464.101562 877.773438 C 464.105469 885.515625 464.292969 893.253906 464.675781 900.988281 C 465.054688 908.722656 465.625 916.445312 466.386719 924.148438 C 467.144531 931.855469 468.09375 939.539062 469.230469 947.199219 C 470.367188 954.859375 471.691406 962.484375 473.203125 970.082031 C 474.710938 977.675781 476.410156 985.230469 478.292969 992.738281 C 480.171875 1000.25 482.238281 1007.710938 484.484375 1015.121094 C 486.734375 1022.53125 489.164062 1029.882812 491.773438 1037.175781 C 494.382812 1044.464844 497.167969 1051.6875 500.132812 1058.839844 C 503.09375 1065.996094 506.230469 1073.070312 509.542969 1080.070312 C 512.855469 1087.070312 516.335938 1093.988281 519.984375 1100.816406 C 523.636719 1107.644531 527.453125 1114.378906 531.433594 1121.023438 C 535.414062 1127.664062 539.554688 1134.203125 543.855469 1140.640625 C 548.160156 1147.082031 552.617188 1153.410156 557.230469 1159.628906 C 561.84375 1165.847656 566.605469 1171.949219 571.515625 1177.9375 C 576.429688 1183.921875 581.484375 1189.785156 586.6875 1195.523438 C 591.886719 1201.257812 597.222656 1206.863281 602.699219 1212.339844 C 608.175781 1217.816406 613.78125 1223.152344 619.519531 1228.355469 C 625.257812 1233.554688 631.117188 1238.609375 637.101562 1243.523438 C 643.089844 1248.433594 649.191406 1253.199219 655.410156 1257.808594 C 661.628906 1262.421875 667.957031 1266.878906 674.398438 1271.183594 C 680.835938 1275.484375 687.375 1279.625 694.015625 1283.605469 C 700.65625 1287.585938 707.394531 1291.402344 714.222656 1295.050781 C 721.050781 1298.703125 727.964844 1302.183594 734.964844 1305.492188 C 741.964844 1308.804688 749.039062 1311.941406 756.195312 1314.90625 C 763.347656 1317.867188 770.570312 1320.652344 777.859375 1323.261719 C 785.152344 1325.871094 792.5 1328.300781 799.910156 1330.546875 C 807.320312 1332.792969 814.78125 1334.859375 822.292969 1336.742188 C 829.800781 1338.621094 837.355469 1340.316406 844.949219 1341.828125 C 852.542969 1343.339844 860.167969 1344.664062 867.828125 1345.796875 C 875.488281 1346.933594 883.171875 1347.882812 890.875 1348.640625 C 898.582031 1349.398438 906.300781 1349.96875 914.035156 1350.351562 C 921.769531 1350.730469 929.507812 1350.917969 937.25 1350.917969 C 944.996094 1350.917969 952.734375 1350.730469 960.46875 1350.347656 C 968.203125 1349.96875 975.921875 1349.398438 983.628906 1348.636719 C 991.335938 1347.878906 999.019531 1346.929688 1006.679688 1345.792969 C 1014.335938 1344.65625 1021.964844 1343.332031 1029.558594 1341.824219 C 1037.15625 1340.3125 1044.707031 1338.617188 1052.21875 1336.734375 C 1059.730469 1334.851562 1067.191406 1332.789062 1074.601562 1330.539062 C 1082.011719 1328.292969 1089.363281 1325.863281 1096.652344 1323.253906 C 1103.941406 1320.644531 1111.164062 1317.859375 1118.320312 1314.894531 C 1125.472656 1311.933594 1132.550781 1308.796875 1139.550781 1305.484375 C 1146.550781 1302.175781 1153.464844 1298.695312 1160.292969 1295.046875 C 1167.125 1291.394531 1173.859375 1287.582031 1180.5 1283.601562 C 1187.140625 1279.617188 1193.683594 1275.476562 1200.121094 1271.175781 C 1206.558594 1266.875 1212.886719 1262.417969 1219.105469 1257.804688 C 1225.328125 1253.195312 1231.429688 1248.433594 1237.414062 1243.519531 C 1243.402344 1238.609375 1249.261719 1233.550781 1255 1228.351562 C 1260.738281 1223.152344 1266.34375 1217.816406 1271.820312 1212.339844 C 1277.292969 1206.867188 1282.632812 1201.261719 1287.832031 1195.523438 C 1293.03125 1189.789062 1298.089844 1183.925781 1303 1177.941406 C 1307.914062 1171.957031 1312.675781 1165.855469 1317.289062 1159.636719 C 1321.902344 1153.417969 1326.359375 1147.089844 1330.660156 1140.652344 C 1334.964844 1134.214844 1339.105469 1127.675781 1343.085938 1121.035156 C 1347.066406 1114.398438 1350.882812 1107.664062 1354.53125 1100.835938 C 1358.179688 1094.007812 1361.660156 1087.09375 1364.972656 1080.09375 C 1368.285156 1073.097656 1371.421875 1066.019531 1374.382812 1058.867188 C 1377.347656 1051.714844 1380.132812 1044.492188 1382.742188 1037.203125 C 1385.351562 1029.914062 1387.777344 1022.566406 1390.023438 1015.15625 C 1392.273438 1007.75 1394.335938 1000.289062 1396.21875 992.777344 C 1398.101562 985.269531 1399.796875 977.71875 1401.308594 970.125 C 1402.816406 962.53125 1404.140625 954.90625 1405.277344 947.246094 C 1406.414062 939.589844 1407.359375 931.90625 1408.121094 924.203125 C 1408.878906 916.496094 1409.449219 908.777344 1409.828125 901.046875 C 1410.207031 893.3125 1410.398438 885.578125 1410.398438 877.835938 C 1410.386719 870.09375 1410.183594 862.355469 1409.792969 854.625 C 1409.402344 846.894531 1408.820312 839.175781 1408.050781 831.476562 C 1407.28125 823.773438 1406.324219 816.09375 1405.179688 808.4375 C 1404.035156 800.78125 1402.703125 793.15625 1401.183594 785.566406 C 1399.664062 777.976562 1397.957031 770.429688 1396.070312 762.921875 C 1394.179688 755.414062 1392.109375 747.957031 1389.855469 740.550781 C 1387.597656 733.144531 1385.164062 725.800781 1382.550781 718.515625 C 1379.9375 711.226562 1377.144531 704.011719 1374.175781 696.859375 C 1371.210938 689.710938 1368.066406 682.636719 1364.753906 675.644531 C 1361.4375 668.648438 1357.953125 661.738281 1354.300781 654.914062 C 1350.648438 648.085938 1346.832031 641.355469 1342.847656 634.71875 C 1338.863281 628.082031 1334.722656 621.542969 1330.417969 615.109375 C 1326.117188 608.675781 1321.65625 602.347656 1317.042969 596.132812 C 1312.429688 589.917969 1307.667969 583.816406 1302.757812 577.832031 C 1297.84375 571.851562 1292.789062 565.992188 1287.589844 560.257812 C 1282.390625 554.519531 1277.054688 548.917969 1271.578125 543.441406 C 1266.105469 537.96875 1260.5 532.632812 1254.765625 527.433594 C 1249.03125 522.234375 1243.171875 517.179688 1237.1875 512.265625 C 1231.207031 507.355469 1225.105469 502.59375 1218.890625 497.980469 C 1212.671875 493.367188 1206.347656 488.90625 1199.914062 484.605469 C 1193.476562 480.300781 1186.941406 476.15625 1180.304688 472.175781 C 1173.667969 468.191406 1166.933594 464.375 1160.109375 460.71875 C 1153.285156 457.066406 1146.375 453.582031 1139.378906 450.269531 C 1132.382812 446.953125 1125.3125 443.8125 1118.160156 440.84375 C 1111.011719 437.875 1103.792969 435.085938 1096.507812 432.472656 C 1089.222656 429.855469 1081.875 427.421875 1074.46875 425.167969 C 1067.066406 422.914062 1059.609375 420.839844 1052.101562 418.953125 C 1044.59375 417.0625 1037.046875 415.359375 1029.457031 413.839844 C 1021.863281 412.320312 1014.242188 410.988281 1006.585938 409.84375 C 998.929688 408.695312 991.25 407.738281 983.546875 406.96875 C 975.84375 406.199219 968.128906 405.621094 960.398438 405.230469 C 952.664062 404.839844 944.929688 404.636719 937.1875 404.625 M 937.1875 436.429688 C 950.785156 436.429688 964.066406 437.117188 977.351562 438.363281 C 980.34375 605.496094 1021.003906 748.429688 1090.226562 869.476562 L 783.902344 869.476562 C 852.9375 748.429688 893.785156 605.496094 896.777344 438.363281 C 910.0625 437.179688 923.59375 436.429688 937.1875 436.429688 M 495.785156 877.835938 C 495.785156 871.261719 495.933594 864.691406 496.226562 858.125 C 496.519531 851.558594 496.960938 845.003906 497.550781 838.457031 C 498.136719 831.910156 498.871094 825.382812 499.75 818.867188 C 500.628906 812.355469 501.652344 805.863281 502.820312 799.394531 C 503.988281 792.925781 505.304688 786.488281 506.757812 780.078125 C 508.214844 773.671875 509.8125 767.296875 511.554688 760.957031 C 513.296875 754.621094 515.179688 748.324219 517.199219 742.070312 C 519.222656 735.816406 521.382812 729.613281 523.683594 723.453125 C 525.984375 717.296875 528.417969 711.195312 530.992188 705.144531 C 533.5625 699.097656 536.269531 693.109375 539.109375 687.179688 C 541.949219 681.253906 544.917969 675.390625 548.019531 669.597656 C 551.121094 663.800781 554.351562 658.078125 557.707031 652.429688 C 561.066406 646.777344 564.546875 641.203125 568.152344 635.710938 C 571.757812 630.214844 575.484375 624.800781 579.332031 619.472656 C 583.179688 614.144531 587.144531 608.90625 591.226562 603.753906 C 595.308594 598.601562 599.503906 593.542969 603.808594 588.578125 C 608.117188 583.613281 612.535156 578.75 617.058594 573.980469 C 621.582031 569.214844 626.210938 564.550781 630.945312 559.992188 C 635.679688 555.429688 640.511719 550.976562 645.445312 546.632812 C 650.375 542.289062 655.402344 538.054688 660.523438 533.9375 C 665.644531 529.816406 670.855469 525.8125 676.15625 521.925781 C 681.457031 518.039062 686.839844 514.269531 692.308594 510.625 C 697.777344 506.976562 703.324219 503.453125 708.949219 500.054688 C 714.574219 496.65625 720.273438 493.386719 726.042969 490.242188 C 731.816406 487.097656 737.65625 484.082031 743.5625 481.199219 C 749.46875 478.3125 755.4375 475.5625 761.464844 472.945312 C 767.492188 470.328125 773.578125 467.847656 779.71875 465.503906 C 785.859375 463.15625 792.046875 460.949219 798.285156 458.882812 C 804.523438 456.8125 810.804688 454.882812 817.132812 453.09375 C 823.457031 451.308594 829.816406 449.660156 836.214844 448.15625 C 842.613281 446.652344 849.042969 445.292969 855.5 444.074219 C 861.960938 442.855469 868.445312 441.785156 874.949219 440.855469 C 855.554688 724.484375 737.378906 930.15625 542.804688 1076.085938 C 535.078125 1060.765625 528.273438 1045.050781 522.390625 1028.9375 C 516.503906 1012.820312 511.578125 996.417969 507.617188 979.726562 C 503.652344 963.035156 500.675781 946.167969 498.683594 929.128906 C 496.695312 912.089844 495.707031 894.988281 495.722656 877.835938 M 1095.527344 1289.804688 C 1089.226562 1292.226562 1082.875 1294.503906 1076.46875 1296.636719 C 1070.066406 1298.769531 1063.613281 1300.753906 1057.117188 1302.589844 C 1050.621094 1304.425781 1044.085938 1306.113281 1037.511719 1307.648438 C 1030.9375 1309.183594 1024.332031 1310.566406 1017.695312 1311.800781 C 1011.058594 1313.03125 1004.398438 1314.113281 997.710938 1315.039062 C 991.023438 1315.964844 984.320312 1316.738281 977.597656 1317.359375 C 970.875 1317.976562 964.140625 1318.441406 957.398438 1318.75 C 950.65625 1319.0625 943.910156 1319.214844 937.15625 1319.214844 C 930.40625 1319.214844 923.660156 1319.0625 916.917969 1318.75 C 910.171875 1318.441406 903.441406 1317.976562 896.71875 1317.359375 C 889.996094 1316.738281 883.289062 1315.964844 876.605469 1315.039062 C 869.917969 1314.113281 863.253906 1313.035156 856.617188 1311.800781 C 849.980469 1310.566406 843.375 1309.183594 836.800781 1307.648438 C 830.226562 1306.113281 823.695312 1304.425781 817.195312 1302.589844 C 810.699219 1300.753906 804.25 1298.769531 797.84375 1296.636719 C 791.441406 1294.507812 785.085938 1292.226562 778.785156 1289.804688 C 774.21875 1282.871094 770.179688 1275.648438 766.667969 1268.125 C 763.160156 1260.601562 760.214844 1252.863281 757.839844 1244.910156 C 755.460938 1236.957031 753.679688 1228.875 752.484375 1220.660156 C 751.292969 1212.445312 750.707031 1204.1875 750.722656 1195.886719 C 750.722656 1097.976562 834.351562 1018.523438 937.4375 1018.523438 C 1040.523438 1018.523438 1124.214844 1097.914062 1124.214844 1195.886719 C 1124.210938 1204.195312 1123.597656 1212.457031 1122.378906 1220.675781 C 1121.164062 1228.894531 1119.355469 1236.980469 1116.949219 1244.9375 C 1114.546875 1252.890625 1111.578125 1260.625 1108.039062 1268.144531 C 1104.503906 1275.660156 1100.4375 1282.882812 1095.839844 1289.804688 M 1169.863281 1253.070312 C 1171.933594 1241.230469 1172.972656 1229.296875 1172.984375 1217.277344 C 1172.984375 1095.667969 1067.527344 997.011719 937.4375 997.011719 C 807.347656 997.011719 701.894531 1095.605469 701.894531 1217.277344 C 701.90625 1229.300781 702.964844 1241.234375 705.074219 1253.070312 C 691.4375 1244.605469 678.300781 1235.425781 665.660156 1225.53125 C 653.023438 1215.636719 640.957031 1205.089844 629.464844 1193.882812 C 617.972656 1182.679688 607.117188 1170.886719 596.90625 1158.503906 C 586.695312 1146.117188 577.183594 1133.21875 568.375 1119.800781 C 588.769531 1103.570312 608.414062 1086.472656 627.308594 1068.515625 C 646.203125 1050.558594 664.277344 1031.808594 681.523438 1012.261719 C 698.773438 992.71875 715.132812 972.457031 730.605469 951.476562 C 746.074219 930.5 760.597656 908.882812 774.171875 886.628906 L 1100.703125 886.628906 C 1114.273438 908.894531 1128.792969 930.523438 1144.257812 951.515625 C 1159.726562 972.507812 1176.085938 992.78125 1193.335938 1012.335938 C 1210.585938 1031.890625 1228.660156 1050.648438 1247.554688 1068.617188 C 1266.453125 1086.582031 1286.101562 1103.6875 1306.503906 1119.925781 C 1297.695312 1133.324219 1288.191406 1146.203125 1277.984375 1158.570312 C 1267.78125 1170.933594 1256.9375 1182.710938 1245.457031 1193.902344 C 1233.972656 1205.089844 1221.921875 1215.625 1209.292969 1225.503906 C 1196.667969 1235.382812 1183.546875 1244.554688 1169.925781 1253.007812 M 999.488281 440.855469 C 1008.117188 442.085938 1016.699219 443.570312 1025.238281 445.308594 C 1033.777344 447.046875 1042.257812 449.039062 1050.679688 451.277344 C 1059.101562 453.519531 1067.449219 456.007812 1075.722656 458.742188 C 1084 461.480469 1092.183594 464.457031 1100.28125 467.675781 C 1108.378906 470.898438 1116.375 474.355469 1124.269531 478.046875 C 1132.160156 481.742188 1139.9375 485.667969 1147.597656 489.820312 C 1155.257812 493.976562 1162.789062 498.351562 1170.191406 502.953125 C 1177.59375 507.554688 1184.851562 512.371094 1191.96875 517.402344 C 1199.082031 522.429688 1206.042969 527.667969 1212.851562 533.109375 C 1219.65625 538.554688 1226.292969 544.195312 1232.765625 550.03125 C 1239.238281 555.867188 1245.53125 561.886719 1251.644531 568.097656 C 1257.761719 574.304688 1263.6875 580.691406 1269.425781 587.25 C 1275.160156 593.8125 1280.699219 600.535156 1286.035156 607.421875 C 1291.375 614.3125 1296.503906 621.351562 1301.425781 628.542969 C 1306.347656 635.734375 1311.050781 643.066406 1315.539062 650.535156 C 1320.027344 658.007812 1324.289062 665.605469 1328.324219 673.328125 C 1332.363281 681.050781 1336.167969 688.886719 1339.738281 696.835938 C 1343.3125 704.78125 1346.648438 712.828125 1349.742188 720.976562 C 1352.839844 729.121094 1355.691406 737.351562 1358.300781 745.667969 C 1360.910156 753.984375 1363.269531 762.367188 1365.382812 770.824219 C 1367.496094 779.277344 1369.355469 787.789062 1370.960938 796.351562 C 1372.570312 804.917969 1373.921875 813.523438 1375.019531 822.167969 C 1376.117188 830.8125 1376.960938 839.480469 1377.542969 848.175781 C 1378.128906 856.871094 1378.457031 865.578125 1378.523438 874.292969 C 1378.59375 883.003906 1378.40625 891.714844 1377.957031 900.417969 C 1377.511719 909.121094 1376.808594 917.804688 1375.84375 926.464844 C 1374.882812 935.125 1373.667969 943.75 1372.195312 952.339844 C 1370.722656 960.929688 1368.996094 969.46875 1367.019531 977.957031 C 1365.042969 986.441406 1362.816406 994.863281 1360.335938 1003.21875 C 1357.859375 1011.574219 1355.140625 1019.847656 1352.171875 1028.042969 C 1349.203125 1036.234375 1345.996094 1044.335938 1342.550781 1052.339844 C 1339.105469 1060.34375 1335.425781 1068.238281 1331.507812 1076.023438 C 1137.375 930.15625 1018.882812 724.484375 999.488281 440.855469 "/><path style=" stroke:none;fill-rule:nonzero;fill:rgb(80.778503%,67.059326%,36.468506%);fill-opacity:1;" d="M 952.839844 1248.519531 C 951.542969 1247.738281 950.332031 1246.839844 949.210938 1245.820312 C 948.089844 1244.796875 947.078125 1243.679688 946.179688 1242.457031 C 945.28125 1241.238281 944.511719 1239.941406 943.867188 1238.570312 C 943.226562 1237.195312 942.726562 1235.773438 942.363281 1234.300781 C 942.199219 1233.738281 941.949219 1233.214844 941.617188 1232.734375 C 941.28125 1232.25 940.878906 1231.835938 940.410156 1231.484375 C 939.941406 1231.132812 939.429688 1230.863281 938.871094 1230.675781 C 938.316406 1230.492188 937.742188 1230.398438 937.15625 1230.398438 C 936.570312 1230.398438 936 1230.492188 935.441406 1230.675781 C 934.886719 1230.863281 934.371094 1231.132812 933.902344 1231.484375 C 933.433594 1231.835938 933.03125 1232.25 932.699219 1232.734375 C 932.363281 1233.214844 932.113281 1233.738281 931.949219 1234.300781 C 931.589844 1235.773438 931.085938 1237.195312 930.441406 1238.566406 C 929.800781 1239.941406 929.027344 1241.234375 928.128906 1242.457031 C 927.230469 1243.675781 926.222656 1244.796875 925.101562 1245.816406 C 923.980469 1246.835938 922.769531 1247.738281 921.472656 1248.519531 C 920.539062 1249.082031 920.476562 1249.515625 920.847656 1250.265625 C 924.515625 1257.660156 929.484375 1264.042969 935.753906 1269.410156 C 936.6875 1270.160156 937 1270.160156 937.1875 1270.160156 C 937.375 1270.160156 937.75 1270.160156 938.621094 1269.410156 C 944.90625 1264.050781 949.875 1257.671875 953.527344 1250.265625 C 953.902344 1249.519531 953.527344 1249.144531 952.902344 1248.519531 "/><path style=" stroke:none;fill-rule:nonzero;fill:rgb(80.778503%,67.059326%,36.468506%);fill-opacity:1;" d="M 967.933594 1149.300781 C 967.933594 1131.277344 944.359375 1075.027344 937.1875 1075.027344 C 936.511719 1075.089844 935.929688 1075.359375 935.441406 1075.835938 C 926.835938 1082.757812 906.445312 1132.585938 906.445312 1149.363281 C 906.445312 1162.832031 933.632812 1198.253906 933.632812 1217.527344 C 933.632812 1218 933.722656 1218.457031 933.90625 1218.898438 C 934.089844 1219.335938 934.347656 1219.722656 934.683594 1220.0625 C 935.019531 1220.398438 935.40625 1220.65625 935.847656 1220.839844 C 936.285156 1221.019531 936.742188 1221.113281 937.21875 1221.113281 C 937.695312 1221.113281 938.152344 1221.019531 938.59375 1220.839844 C 939.03125 1220.65625 939.417969 1220.398438 939.753906 1220.0625 C 940.089844 1219.722656 940.351562 1219.335938 940.53125 1218.898438 C 940.714844 1218.457031 940.804688 1218 940.804688 1217.527344 C 940.804688 1198.253906 967.996094 1162.894531 967.996094 1149.488281 "/><path style=" stroke:none;fill-rule:nonzero;fill:rgb(80.778503%,67.059326%,36.468506%);fill-opacity:1;" d="M 921.847656 1215.902344 C 909.375 1182.289062 887.109375 1163.894531 864.285156 1163.894531 C 863.265625 1163.894531 862.246094 1163.945312 861.230469 1164.042969 C 860.214844 1164.144531 859.203125 1164.292969 858.203125 1164.492188 C 857.199219 1164.691406 856.210938 1164.941406 855.234375 1165.234375 C 854.257812 1165.53125 853.296875 1165.875 852.351562 1166.265625 C 851.410156 1166.65625 850.488281 1167.09375 849.585938 1167.574219 C 848.6875 1168.054688 847.8125 1168.582031 846.960938 1169.148438 C 846.113281 1169.714844 845.292969 1170.324219 844.503906 1170.972656 C 843.714844 1171.617188 842.960938 1172.304688 842.238281 1173.027344 C 841.515625 1173.75 840.832031 1174.503906 840.183594 1175.292969 C 839.535156 1176.082031 838.925781 1176.902344 838.359375 1177.75 C 837.792969 1178.601562 837.269531 1179.476562 836.785156 1180.375 C 836.304688 1181.277344 835.867188 1182.199219 835.476562 1183.140625 C 835.085938 1184.085938 834.742188 1185.046875 834.445312 1186.023438 C 834.152344 1187 833.902344 1187.988281 833.703125 1188.992188 C 833.503906 1189.992188 833.355469 1191.003906 833.253906 1192.019531 C 833.15625 1193.035156 833.105469 1194.054688 833.105469 1195.074219 C 833.105469 1196.097656 833.15625 1197.113281 833.253906 1198.132812 C 833.355469 1199.148438 833.503906 1200.15625 833.703125 1201.15625 C 833.902344 1202.160156 834.152344 1203.148438 834.445312 1204.125 C 834.742188 1205.101562 835.085938 1206.0625 835.476562 1207.007812 C 835.867188 1207.949219 836.304688 1208.871094 836.785156 1209.773438 C 837.269531 1210.671875 837.792969 1211.546875 838.359375 1212.398438 C 838.925781 1213.246094 839.535156 1214.066406 840.183594 1214.855469 C 840.832031 1215.644531 841.515625 1216.402344 842.238281 1217.121094 C 842.960938 1217.84375 843.714844 1218.53125 844.503906 1219.179688 C 845.292969 1219.824219 846.113281 1220.433594 846.960938 1221 C 847.8125 1221.566406 848.6875 1222.09375 849.585938 1222.574219 C 850.488281 1223.054688 851.410156 1223.492188 852.351562 1223.882812 C 853.296875 1224.273438 854.257812 1224.617188 855.234375 1224.914062 C 856.210938 1225.210938 857.199219 1225.457031 858.203125 1225.65625 C 859.203125 1225.855469 860.214844 1226.007812 861.230469 1226.105469 C 862.246094 1226.207031 863.265625 1226.257812 864.285156 1226.257812 C 866.75 1226.253906 869.125 1225.785156 871.402344 1224.84375 C 873.679688 1223.90625 875.695312 1222.566406 877.445312 1220.832031 C 878.171875 1220.117188 878.792969 1219.324219 879.316406 1218.449219 C 879.835938 1217.574219 880.234375 1216.648438 880.511719 1215.671875 C 880.792969 1214.691406 880.941406 1213.695312 880.960938 1212.675781 C 880.980469 1211.660156 880.867188 1210.65625 880.625 1209.667969 C 880.546875 1209.464844 880.433594 1209.28125 880.285156 1209.125 C 880.136719 1208.964844 879.960938 1208.84375 879.761719 1208.753906 C 879.5625 1208.667969 879.355469 1208.621094 879.136719 1208.617188 C 878.917969 1208.613281 878.707031 1208.652344 878.503906 1208.730469 L 876.632812 1208.730469 C 875.914062 1208.789062 875.195312 1208.769531 874.480469 1208.675781 C 873.765625 1208.585938 873.066406 1208.417969 872.382812 1208.183594 C 871.699219 1207.945312 871.050781 1207.640625 870.429688 1207.269531 C 869.8125 1206.898438 869.238281 1206.464844 868.707031 1205.976562 C 868.179688 1205.484375 867.703125 1204.945312 867.285156 1204.359375 C 866.867188 1203.769531 866.511719 1203.144531 866.222656 1202.480469 C 865.933594 1201.820312 865.714844 1201.136719 865.570312 1200.429688 C 865.421875 1199.722656 865.347656 1199.007812 865.347656 1198.285156 C 865.347656 1197.5625 865.421875 1196.851562 865.570312 1196.144531 C 865.714844 1195.4375 865.933594 1194.753906 866.222656 1194.089844 C 866.511719 1193.429688 866.867188 1192.804688 867.285156 1192.214844 C 867.703125 1191.625 868.179688 1191.085938 868.707031 1190.597656 C 869.238281 1190.105469 869.8125 1189.675781 870.429688 1189.304688 C 871.050781 1188.933594 871.699219 1188.628906 872.382812 1188.390625 C 873.066406 1188.152344 873.765625 1187.988281 874.480469 1187.894531 C 875.195312 1187.804688 875.914062 1187.785156 876.632812 1187.839844 C 886.863281 1187.839844 905.070312 1197.695312 914.800781 1219.023438 C 915.128906 1219.683594 915.605469 1220.207031 916.238281 1220.589844 C 916.867188 1220.972656 917.554688 1221.160156 918.292969 1221.144531 C 918.546875 1221.144531 918.800781 1221.117188 919.054688 1221.066406 C 919.304688 1221.015625 919.550781 1220.941406 919.785156 1220.84375 C 920.023438 1220.742188 920.246094 1220.621094 920.460938 1220.476562 C 920.671875 1220.332031 920.867188 1220.171875 921.050781 1219.988281 C 921.230469 1219.804688 921.390625 1219.605469 921.527344 1219.390625 C 921.667969 1219.175781 921.785156 1218.949219 921.882812 1218.710938 C 921.976562 1218.476562 922.046875 1218.230469 922.09375 1217.976562 C 922.140625 1217.722656 922.164062 1217.46875 922.160156 1217.214844 C 922.15625 1216.644531 922.03125 1216.105469 921.785156 1215.59375 "/><path style=" stroke:none;fill-rule:nonzero;fill:rgb(80.778503%,67.059326%,36.468506%);fill-opacity:1;" d="M 1009.09375 1163.957031 C 986.207031 1163.957031 964.253906 1182.664062 951.53125 1215.964844 C 951.28125 1216.476562 951.15625 1217.019531 951.15625 1217.589844 C 951.148438 1218.101562 951.238281 1218.59375 951.429688 1219.074219 C 951.617188 1219.550781 951.890625 1219.972656 952.246094 1220.339844 C 952.601562 1220.707031 953.015625 1220.996094 953.488281 1221.199219 C 953.957031 1221.402344 954.449219 1221.507812 954.960938 1221.515625 C 955.695312 1221.511719 956.375 1221.316406 957 1220.9375 C 957.625 1220.558594 958.109375 1220.042969 958.453125 1219.394531 C 968.183594 1198.316406 986.332031 1188.214844 996.621094 1188.214844 C 997.308594 1188.214844 997.988281 1188.28125 998.664062 1188.414062 C 999.339844 1188.550781 999.992188 1188.75 1000.628906 1189.011719 C 1001.265625 1189.273438 1001.867188 1189.597656 1002.441406 1189.980469 C 1003.011719 1190.363281 1003.542969 1190.796875 1004.027344 1191.28125 C 1004.515625 1191.769531 1004.949219 1192.296875 1005.332031 1192.871094 C 1005.714844 1193.441406 1006.035156 1194.046875 1006.300781 1194.683594 C 1006.5625 1195.316406 1006.761719 1195.972656 1006.894531 1196.648438 C 1007.03125 1197.324219 1007.097656 1198.003906 1007.097656 1198.691406 C 1007.097656 1199.378906 1007.03125 1200.0625 1006.894531 1200.734375 C 1006.761719 1201.410156 1006.5625 1202.066406 1006.300781 1202.699219 C 1006.035156 1203.335938 1005.714844 1203.941406 1005.332031 1204.511719 C 1004.949219 1205.082031 1004.515625 1205.613281 1004.027344 1206.101562 C 1003.542969 1206.585938 1003.011719 1207.019531 1002.441406 1207.402344 C 1001.867188 1207.785156 1001.265625 1208.109375 1000.628906 1208.371094 C 999.992188 1208.632812 999.339844 1208.832031 998.664062 1208.96875 C 997.988281 1209.101562 997.308594 1209.167969 996.621094 1209.167969 L 994.75 1209.167969 C 994.546875 1209.097656 994.335938 1209.0625 994.121094 1209.070312 C 993.90625 1209.078125 993.699219 1209.125 993.503906 1209.214844 C 993.304688 1209.300781 993.132812 1209.421875 992.980469 1209.574219 C 992.828125 1209.730469 992.710938 1209.90625 992.628906 1210.105469 C 992.394531 1211.097656 992.285156 1212.105469 992.308594 1213.125 C 992.332031 1214.144531 992.480469 1215.148438 992.757812 1216.128906 C 993.039062 1217.113281 993.4375 1218.042969 993.953125 1218.925781 C 994.46875 1219.804688 995.089844 1220.605469 995.808594 1221.328125 C 997.558594 1223.066406 999.574219 1224.402344 1001.851562 1225.34375 C 1004.132812 1226.28125 1006.503906 1226.753906 1008.96875 1226.753906 C 1009.988281 1226.753906 1011.007812 1226.703125 1012.023438 1226.605469 C 1013.039062 1226.503906 1014.050781 1226.355469 1015.050781 1226.15625 C 1016.050781 1225.957031 1017.042969 1225.707031 1018.019531 1225.414062 C 1018.996094 1225.117188 1019.957031 1224.773438 1020.902344 1224.382812 C 1021.84375 1223.992188 1022.765625 1223.554688 1023.667969 1223.074219 C 1024.566406 1222.589844 1025.441406 1222.066406 1026.292969 1221.5 C 1027.140625 1220.933594 1027.960938 1220.324219 1028.75 1219.675781 C 1029.539062 1219.027344 1030.292969 1218.34375 1031.015625 1217.621094 C 1031.738281 1216.898438 1032.425781 1216.144531 1033.070312 1215.355469 C 1033.71875 1214.566406 1034.328125 1213.746094 1034.894531 1212.898438 C 1035.460938 1212.046875 1035.984375 1211.171875 1036.46875 1210.273438 C 1036.949219 1209.371094 1037.382812 1208.449219 1037.777344 1207.503906 C 1038.167969 1206.5625 1038.507812 1205.601562 1038.804688 1204.625 C 1039.101562 1203.648438 1039.351562 1202.660156 1039.550781 1201.65625 C 1039.75 1200.65625 1039.898438 1199.648438 1040 1198.628906 C 1040.101562 1197.613281 1040.148438 1196.59375 1040.148438 1195.574219 C 1040.148438 1194.554688 1040.097656 1193.535156 1040 1192.515625 C 1039.898438 1191.5 1039.75 1190.492188 1039.550781 1189.492188 C 1039.351562 1188.488281 1039.101562 1187.5 1038.804688 1186.523438 C 1038.507812 1185.542969 1038.167969 1184.585938 1037.777344 1183.640625 C 1037.382812 1182.695312 1036.949219 1181.773438 1036.46875 1180.875 C 1035.984375 1179.972656 1035.460938 1179.097656 1034.894531 1178.25 C 1034.328125 1177.398438 1033.71875 1176.582031 1033.070312 1175.792969 C 1032.425781 1175.003906 1031.738281 1174.246094 1031.015625 1173.523438 C 1030.292969 1172.800781 1029.539062 1172.117188 1028.75 1171.46875 C 1027.960938 1170.820312 1027.140625 1170.214844 1026.292969 1169.648438 C 1025.441406 1169.078125 1024.566406 1168.554688 1023.667969 1168.074219 C 1022.765625 1167.59375 1021.84375 1167.15625 1020.902344 1166.765625 C 1019.957031 1166.375 1018.996094 1166.03125 1018.019531 1165.734375 C 1017.042969 1165.4375 1016.050781 1165.191406 1015.050781 1164.992188 C 1014.050781 1164.792969 1013.039062 1164.640625 1012.023438 1164.542969 C 1011.007812 1164.441406 1009.988281 1164.390625 1008.96875 1164.390625 "/><path style=" stroke:none;fill-rule:nonzero;fill:rgb(100%,100%,100%);fill-opacity:1;" d="M 542.929688 1403.742188 L 533.449219 1396.632812 L 541.496094 1370.191406 L 516.550781 1348.800781 L 491.605469 1360.710938 L 482.5625 1352.914062 L 556.460938 1317.992188 L 565.503906 1325.664062 Z M 552.472656 1331.773438 L 526.964844 1343.871094 L 544.675781 1358.902344 Z M 552.472656 1331.773438 "/><path style=" stroke:none;fill-rule:nonzero;fill:rgb(100%,100%,100%);fill-opacity:1;" d="M 616.019531 1362.957031 L 574.546875 1425.816406 L 565.628906 1420.019531 L 607.101562 1357.15625 Z M 616.019531 1362.957031 "/><path style=" stroke:none;fill-rule:nonzero;fill:rgb(100%,100%,100%);fill-opacity:1;" d="M 648.511719 1383.660156 L 661.296875 1453.882812 L 661.480469 1453.945312 L 687.675781 1404.179688 L 697.089844 1409.105469 L 662.667969 1474.710938 L 653.375 1470.46875 L 640.464844 1399.4375 L 640.277344 1399.3125 L 613.710938 1449.890625 L 604.542969 1444.527344 L 639.09375 1378.671875 Z M 648.511719 1383.660156 "/><path style=" stroke:none;fill-rule:nonzero;fill:rgb(100%,100%,100%);fill-opacity:1;" d="M 776.480469 1438.351562 L 772.988281 1448.394531 L 748.476562 1439.910156 L 727.398438 1500.277344 L 717.359375 1496.785156 L 738.375 1436.355469 L 713.867188 1427.875 L 717.359375 1417.773438 Z M 776.480469 1438.351562 "/><path style=" stroke:none;fill-rule:nonzero;fill:rgb(100%,100%,100%);fill-opacity:1;" d="M 939.121094 1493.667969 L 973.046875 1494.230469 L 973.046875 1513.875 C 973.046875 1527.15625 958.078125 1535.828125 939.496094 1535.515625 C 938.203125 1535.535156 936.914062 1535.488281 935.625 1535.382812 C 934.335938 1535.273438 933.058594 1535.097656 931.785156 1534.859375 C 930.515625 1534.621094 929.261719 1534.320312 928.019531 1533.957031 C 926.78125 1533.59375 925.5625 1533.167969 924.363281 1532.683594 C 923.164062 1532.195312 921.996094 1531.652344 920.851562 1531.046875 C 919.707031 1530.441406 918.597656 1529.785156 917.523438 1529.070312 C 916.445312 1528.355469 915.40625 1527.585938 914.40625 1526.765625 C 913.410156 1525.949219 912.453125 1525.078125 911.539062 1524.164062 C 910.628906 1523.246094 909.761719 1522.289062 908.945312 1521.285156 C 908.132812 1520.285156 907.367188 1519.242188 906.65625 1518.164062 C 905.945312 1517.085938 905.289062 1515.972656 904.6875 1514.828125 C 904.089844 1513.683594 903.546875 1512.511719 903.066406 1511.3125 C 902.582031 1510.109375 902.164062 1508.890625 901.804688 1507.648438 C 901.445312 1506.40625 901.148438 1505.148438 900.914062 1503.878906 C 900.683594 1502.605469 900.511719 1501.328125 900.410156 1500.039062 C 900.304688 1498.75 900.265625 1497.460938 900.289062 1496.167969 C 900.316406 1494.875 900.402344 1493.585938 900.558594 1492.304688 C 900.714844 1491.019531 900.929688 1489.746094 901.214844 1488.484375 C 901.496094 1487.222656 901.839844 1485.980469 902.246094 1484.753906 C 902.65625 1483.527344 903.125 1482.324219 903.652344 1481.144531 C 904.179688 1479.964844 904.765625 1478.8125 905.410156 1477.691406 C 906.050781 1476.570312 906.75 1475.484375 907.503906 1474.433594 C 908.257812 1473.382812 909.058594 1472.375 909.914062 1471.402344 C 910.769531 1470.433594 911.671875 1469.507812 912.617188 1468.628906 C 913.566406 1467.75 914.554688 1466.917969 915.582031 1466.136719 C 916.613281 1465.359375 917.679688 1464.632812 918.785156 1463.957031 C 919.890625 1463.285156 921.023438 1462.667969 922.1875 1462.109375 C 923.355469 1461.550781 924.546875 1461.050781 925.761719 1460.613281 C 926.976562 1460.171875 928.210938 1459.796875 929.464844 1459.480469 C 930.71875 1459.164062 931.984375 1458.914062 933.265625 1458.722656 C 934.542969 1458.535156 935.828125 1458.414062 937.117188 1458.351562 C 938.410156 1458.292969 939.703125 1458.300781 940.992188 1458.371094 C 943.933594 1458.371094 946.84375 1458.675781 949.71875 1459.289062 C 952.597656 1459.902344 955.378906 1460.808594 958.0625 1462.003906 C 960.75 1463.203125 963.28125 1464.667969 965.660156 1466.398438 C 968.039062 1468.128906 970.207031 1470.089844 972.175781 1472.277344 L 964.691406 1479.761719 C 963.332031 1478.074219 961.804688 1476.5625 960.109375 1475.222656 C 958.410156 1473.878906 956.582031 1472.746094 954.628906 1471.816406 C 952.675781 1470.886719 950.640625 1470.1875 948.527344 1469.71875 C 946.417969 1469.25 944.277344 1469.023438 942.113281 1469.035156 C 922.472656 1468.722656 910.933594 1481.507812 910.933594 1496.785156 C 910.933594 1497.742188 910.984375 1498.695312 911.082031 1499.644531 C 911.179688 1500.59375 911.324219 1501.535156 911.515625 1502.472656 C 911.710938 1503.40625 911.949219 1504.328125 912.238281 1505.238281 C 912.527344 1506.148438 912.859375 1507.042969 913.238281 1507.917969 C 913.617188 1508.796875 914.039062 1509.648438 914.503906 1510.484375 C 914.96875 1511.316406 915.476562 1512.125 916.023438 1512.90625 C 916.570312 1513.6875 917.15625 1514.441406 917.78125 1515.164062 C 918.40625 1515.886719 919.0625 1516.574219 919.757812 1517.230469 C 920.453125 1517.882812 921.179688 1518.503906 921.9375 1519.085938 C 922.695312 1519.664062 923.480469 1520.207031 924.292969 1520.707031 C 925.105469 1521.210938 925.941406 1521.667969 926.800781 1522.082031 C 927.65625 1522.5 928.535156 1522.871094 929.433594 1523.199219 C 930.332031 1523.527344 931.242188 1523.804688 932.167969 1524.039062 C 933.09375 1524.273438 934.027344 1524.460938 934.972656 1524.597656 C 935.917969 1524.738281 936.867188 1524.828125 937.820312 1524.871094 C 938.773438 1524.910156 939.726562 1524.90625 940.679688 1524.851562 C 953.527344 1524.851562 962.757812 1519.238281 962.882812 1512.9375 L 962.882812 1504.644531 L 939.621094 1504.269531 Z M 939.121094 1493.667969 "/><path style=" stroke:none;fill-rule:nonzero;fill:rgb(100%,100%,100%);fill-opacity:1;" d="M 1054.429688 1448.890625 L 1055.929688 1459.429688 L 1006.472656 1466.539062 L 1009.28125 1485.75 L 1034.164062 1482.195312 L 1035.722656 1492.734375 L 1010.777344 1496.351562 L 1014.019531 1518.675781 L 1065.28125 1511.316406 L 1066.777344 1521.855469 L 1004.976562 1530.710938 L 994.4375 1457.4375 Z M 1054.429688 1448.890625 "/><path style=" stroke:none;fill-rule:nonzero;fill:rgb(100%,100%,100%);fill-opacity:1;" d="M 1121.65625 1430.246094 C 1132.945312 1426.816406 1145.605469 1429.308594 1149.910156 1443.777344 C 1154.585938 1459.179688 1145.730469 1467.101562 1139.867188 1469.410156 L 1163.003906 1494.355469 L 1151.78125 1498.34375 L 1128.832031 1473.402344 L 1102.511719 1481.320312 L 1111.367188 1511.066406 L 1101.203125 1513.9375 L 1079.875 1443.09375 Z M 1093.15625 1449.953125 L 1099.394531 1470.84375 L 1131.136719 1461.113281 C 1131.535156 1461.058594 1131.929688 1460.980469 1132.320312 1460.878906 C 1132.710938 1460.777344 1133.09375 1460.65625 1133.472656 1460.511719 C 1133.847656 1460.367188 1134.214844 1460.203125 1134.574219 1460.019531 C 1134.933594 1459.835938 1135.28125 1459.632812 1135.617188 1459.410156 C 1135.953125 1459.1875 1136.273438 1458.945312 1136.582031 1458.6875 C 1136.894531 1458.429688 1137.1875 1458.15625 1137.464844 1457.863281 C 1137.746094 1457.574219 1138.007812 1457.269531 1138.253906 1456.949219 C 1138.496094 1456.628906 1138.722656 1456.296875 1138.933594 1455.949219 C 1139.140625 1455.605469 1139.328125 1455.25 1139.496094 1454.882812 C 1139.667969 1454.519531 1139.816406 1454.144531 1139.941406 1453.761719 C 1140.070312 1453.378906 1140.175781 1452.992188 1140.261719 1452.597656 C 1140.34375 1452.203125 1140.40625 1451.804688 1140.445312 1451.402344 C 1140.488281 1451.003906 1140.503906 1450.601562 1140.5 1450.199219 C 1140.496094 1449.792969 1140.472656 1449.394531 1140.421875 1448.992188 C 1140.371094 1448.59375 1140.300781 1448.195312 1140.210938 1447.804688 C 1140.117188 1447.414062 1140.003906 1447.027344 1139.867188 1446.648438 C 1137.5 1438.601562 1130.699219 1438.476562 1124.839844 1440.410156 Z M 1093.15625 1449.953125 "/><path style=" stroke:none;fill-rule:nonzero;fill:rgb(100%,100%,100%);fill-opacity:1;" d="M 1351.152344 1387.652344 L 1341.863281 1395.074219 L 1318.976562 1381.039062 L 1292.035156 1400.1875 L 1297.273438 1427.003906 L 1287.792969 1433.238281 L 1272.140625 1353.601562 L 1281.804688 1346.804688 Z M 1284.425781 1360.898438 L 1289.851562 1388.648438 L 1308.558594 1375.179688 Z M 1284.425781 1360.898438 "/><path style=" stroke:none;fill-rule:nonzero;fill:rgb(100%,100%,100%);fill-opacity:1;" d="M 1328.015625 1309.699219 L 1378.59375 1364.078125 L 1370.609375 1371.125 L 1320.222656 1316.933594 Z M 1328.015625 1309.699219 "/><path style=" stroke:none;fill-rule:nonzero;fill:rgb(100%,100%,100%);fill-opacity:1;" d="M 1357.390625 1280.699219 L 1428.671875 1285.625 L 1428.734375 1285.5 L 1386.949219 1247.832031 L 1394.058594 1239.914062 L 1449.125 1289.429688 L 1442.703125 1297.351562 L 1370.734375 1292.421875 L 1370.550781 1292.609375 L 1412.894531 1330.714844 L 1405.410156 1338.324219 L 1350.28125 1288.621094 Z M 1357.390625 1280.699219 "/><path style=" stroke:none;fill-rule:nonzero;fill:rgb(100%,100%,100%);fill-opacity:1;" d="M 1232.039062 1380.167969 L 1222.5625 1385.03125 L 1220.941406 1437.480469 L 1177.535156 1407.917969 L 1168.054688 1412.847656 L 1200.359375 1479.386719 L 1210.027344 1475.085938 L 1187.574219 1427.75 L 1187.761719 1427.625 L 1230.792969 1456.8125 L 1232.476562 1404.925781 L 1232.664062 1404.800781 L 1257.859375 1450.824219 L 1267.027344 1445.585938 Z M 1232.039062 1380.167969 "/><path style=" stroke:none;fill-rule:nonzero;fill:rgb(100%,100%,100%);fill-opacity:1;" d="M 514.992188 1284.816406 C 508.753906 1262.238281 486.054688 1240.101562 468.71875 1240.101562 C 466.867188 1240.070312 465.0625 1240.335938 463.300781 1240.902344 C 461.539062 1241.46875 459.914062 1242.304688 458.429688 1243.40625 C 456.726562 1244.605469 455.332031 1246.09375 454.246094 1247.871094 C 453.164062 1249.648438 452.476562 1251.570312 452.191406 1253.632812 C 452.046875 1255.632812 452.09375 1257.625 452.332031 1259.617188 C 452.570312 1261.605469 452.996094 1263.554688 453.609375 1265.464844 C 454.226562 1267.371094 455.015625 1269.203125 455.984375 1270.957031 C 456.953125 1272.714844 458.078125 1274.359375 459.363281 1275.898438 L 467.222656 1286.4375 C 473.457031 1294.605469 479.195312 1303.148438 477.949219 1309.886719 C 477.664062 1311.199219 477.128906 1312.402344 476.335938 1313.488281 C 475.542969 1314.574219 474.5625 1315.453125 473.394531 1316.121094 C 471.949219 1317.039062 470.367188 1317.476562 468.65625 1317.429688 C 457.929688 1317.429688 439.84375 1298.347656 431.238281 1271.035156 L 431.238281 1270.535156 L 423.441406 1277.832031 C 426.433594 1288.164062 431.171875 1297.625 437.660156 1306.207031 C 440.898438 1311 444.761719 1315.222656 449.257812 1318.867188 C 453.75 1322.511719 458.679688 1325.421875 464.039062 1327.597656 C 466.734375 1328.484375 469.5 1328.941406 472.335938 1328.96875 C 474.085938 1329.015625 475.804688 1328.796875 477.484375 1328.304688 C 479.167969 1327.816406 480.734375 1327.082031 482.1875 1326.097656 C 483.183594 1325.417969 484.097656 1324.644531 484.933594 1323.777344 C 485.769531 1322.910156 486.507812 1321.964844 487.152344 1320.945312 C 487.796875 1319.925781 488.328125 1318.855469 488.753906 1317.726562 C 489.179688 1316.597656 489.484375 1315.441406 489.671875 1314.25 C 490.980469 1305.519531 486.367188 1293.980469 475.890625 1280.011719 L 468.90625 1270.660156 C 463.355469 1263.238281 463.542969 1258.1875 464.726562 1255.628906 C 464.980469 1255.046875 465.304688 1254.503906 465.699219 1254.003906 C 466.089844 1253.503906 466.542969 1253.0625 467.050781 1252.679688 C 467.558594 1252.300781 468.109375 1251.988281 468.695312 1251.746094 C 469.285156 1251.507812 469.894531 1251.34375 470.527344 1251.265625 L 471.773438 1251.265625 C 484.246094 1251.265625 502.457031 1272.34375 507.132812 1288.679688 L 507.132812 1289.054688 L 507.507812 1289.054688 L 515.117188 1284.691406 Z M 514.992188 1284.816406 "/><path style=" stroke:none;fill-rule:nonzero;fill:rgb(100%,100%,100%);fill-opacity:1;" d="M 840.277344 1496.722656 L 813.898438 1490.925781 L 816.328125 1480.261719 L 842.648438 1486.246094 Z M 840.277344 1496.722656 "/></g></svg>