<?xml version="1.0" encoding="UTF-8"?>
<svg xmlns="http://www.w3.org/2000/svg" xmlns:xlink="http://www.w3.org/1999/xlink" width="1024.5pt" height="576pt" viewBox="0 0 1024.5 576" version="1.2">
<defs>
<clipPath id="clip1">
  <path d="M 0 0.140625 L 1024 0.140625 L 1024 575.859375 L 0 575.859375 Z M 0 0.140625 "/>
</clipPath>
<clipPath id="clip2">
  <path d="M 315.570312 149.726562 L 708.21875 149.726562 L 708.21875 426 L 315.570312 426 Z M 315.570312 149.726562 "/>
</clipPath>
</defs>
<g id="surface1">
<g clip-path="url(#clip1)" clip-rule="nonzero">
<path style=" stroke:none;fill-rule:nonzero;fill:rgb(100%,100%,100%);fill-opacity:1;" d="M 0 0.140625 L 1024.5 0.140625 L 1024.5 583.640625 L 0 583.640625 Z M 0 0.140625 "/>
<path style=" stroke:none;fill-rule:nonzero;fill:rgb(100%,100%,100%);fill-opacity:1;" d="M 0 0.140625 L 1024.5 0.140625 L 1024.5 576.140625 L 0 576.140625 Z M 0 0.140625 "/>
<path style=" stroke:none;fill-rule:nonzero;fill:rgb(100%,43.528748%,43.528748%);fill-opacity:1;" d="M 0 0.140625 L 1024.5 0.140625 L 1024.5 576.140625 L 0 576.140625 Z M 0 0.140625 "/>
</g>
<g clip-path="url(#clip2)" clip-rule="nonzero">
<path style=" stroke:none;fill-rule:nonzero;fill:rgb(100%,0%,0%);fill-opacity:1;" d="M 699.648438 193.132812 C 699.085938 191.058594 698.390625 189.027344 697.566406 187.042969 C 696.738281 185.058594 695.789062 183.132812 694.710938 181.273438 C 693.632812 179.414062 692.441406 177.628906 691.132812 175.921875 C 689.824219 174.21875 688.410156 172.605469 686.890625 171.085938 C 685.371094 169.5625 683.761719 168.148438 682.058594 166.835938 C 680.355469 165.527344 678.574219 164.332031 676.714844 163.253906 C 674.855469 162.175781 672.933594 161.222656 670.953125 160.394531 C 668.96875 159.566406 666.941406 158.871094 664.871094 158.308594 C 634.378906 149.972656 511.648438 149.972656 511.648438 149.972656 C 511.648438 149.972656 388.917969 150.21875 358.417969 158.554688 C 356.347656 159.117188 354.316406 159.8125 352.335938 160.640625 C 350.351562 161.46875 348.433594 162.421875 346.574219 163.5 C 344.714844 164.578125 342.933594 165.773438 341.230469 167.082031 C 339.527344 168.394531 337.917969 169.808594 336.398438 171.332031 C 334.878906 172.851562 333.464844 174.464844 332.15625 176.167969 C 330.847656 177.875 329.65625 179.65625 328.578125 181.519531 C 327.5 183.378906 326.550781 185.304688 325.722656 187.289062 C 324.894531 189.273438 324.203125 191.304688 323.640625 193.378906 C 315.570312 223.917969 315.570312 287.761719 315.570312 287.761719 C 315.570312 287.761719 315.570312 351.605469 323.890625 382.386719 C 324.453125 384.464844 325.148438 386.492188 325.972656 388.480469 C 326.800781 390.464844 327.753906 392.386719 328.828125 394.246094 C 329.90625 396.109375 331.097656 397.890625 332.40625 399.597656 C 333.714844 401.304688 335.128906 402.914062 336.648438 404.4375 C 338.167969 405.957031 339.78125 407.375 341.484375 408.683594 C 343.1875 409.996094 344.964844 411.1875 346.824219 412.265625 C 348.683594 413.34375 350.605469 414.296875 352.585938 415.125 C 354.570312 415.953125 356.597656 416.648438 358.671875 417.210938 C 389.164062 425.546875 511.894531 425.546875 511.894531 425.546875 C 511.894531 425.546875 634.628906 425.546875 665.125 417.21875 C 667.199219 416.65625 669.226562 415.960938 671.210938 415.132812 C 673.191406 414.304688 675.113281 413.351562 676.972656 412.273438 C 678.832031 411.195312 680.613281 410 682.316406 408.691406 C 684.019531 407.378906 685.628906 405.964844 687.148438 404.441406 C 688.667969 402.921875 690.082031 401.308594 691.390625 399.605469 C 692.699219 397.898438 693.890625 396.113281 694.96875 394.253906 C 696.046875 392.394531 696.996094 390.46875 697.824219 388.484375 C 698.648438 386.5 699.34375 384.46875 699.90625 382.394531 C 708.21875 351.855469 708.21875 287.761719 708.21875 287.761719 C 708.21875 287.761719 707.972656 223.917969 699.648438 193.132812 Z M 699.648438 193.132812 "/>
</g>
<path style=" stroke:none;fill-rule:nonzero;fill:rgb(100%,100%,100%);fill-opacity:1;" d="M 472.582031 346.808594 L 574.394531 287.761719 L 472.574219 228.714844 Z M 472.582031 346.808594 "/>
</g>
</svg>
