<?xml version="1.0" encoding="UTF-8"?>
<svg xmlns="http://www.w3.org/2000/svg" xmlns:xlink="http://www.w3.org/1999/xlink" width="1024.5pt" height="576pt" viewBox="0 0 1024.5 576" version="1.2">
<defs>
<clipPath id="clip1">
  <path d="M 0 0.140625 L 1024 0.140625 L 1024 575.859375 L 0 575.859375 Z M 0 0.140625 "/>
</clipPath>
<clipPath id="clip2">
  <path d="M 303.789062 129 L 720.757812 129 L 720.757812 448 L 303.789062 448 Z M 303.789062 129 "/>
</clipPath>
</defs>
<g id="surface1">
<g clip-path="url(#clip1)" clip-rule="nonzero">
<path style=" stroke:none;fill-rule:nonzero;fill:rgb(100%,100%,100%);fill-opacity:1;" d="M 0 0.140625 L 1024.5 0.140625 L 1024.5 583.640625 L 0 583.640625 Z M 0 0.140625 "/>
<path style=" stroke:none;fill-rule:nonzero;fill:rgb(100%,100%,100%);fill-opacity:1;" d="M 0 0.140625 L 1024.5 0.140625 L 1024.5 576.140625 L 0 576.140625 Z M 0 0.140625 "/>
<path style=" stroke:none;fill-rule:nonzero;fill:rgb(79.60968%,81.17981%,100%);fill-opacity:1;" d="M 0 0.140625 L 1024.5 0.140625 L 1024.5 576.140625 L 0 576.140625 Z M 0 0.140625 "/>
</g>
<g clip-path="url(#clip2)" clip-rule="nonzero">
<path style=" stroke:none;fill-rule:nonzero;fill:rgb(34.509277%,39.608765%,94.898987%);fill-opacity:1;" d="M 656.769531 155.464844 C 630.195312 143.253906 601.695312 134.253906 571.898438 129.097656 C 571.355469 129 570.8125 129.25 570.53125 129.746094 C 566.867188 136.273438 562.808594 144.792969 559.964844 151.488281 C 527.914062 146.683594 496.03125 146.683594 464.640625 151.488281 C 461.796875 144.644531 457.589844 136.273438 453.90625 129.746094 C 453.625 129.265625 453.085938 129.015625 452.542969 129.097656 C 422.761719 134.238281 394.261719 143.234375 367.667969 155.464844 C 367.4375 155.566406 367.242188 155.730469 367.109375 155.945312 C 313.054688 236.839844 298.246094 315.742188 305.511719 393.664062 C 305.542969 394.046875 305.757812 394.410156 306.050781 394.644531 C 341.71875 420.878906 376.265625 436.804688 410.171875 447.359375 C 410.714844 447.527344 411.289062 447.328125 411.632812 446.878906 C 419.65625 435.910156 426.804688 424.34375 432.933594 412.175781 C 433.296875 411.464844 432.949219 410.621094 432.210938 410.335938 C 420.871094 406.027344 410.074219 400.773438 399.6875 394.808594 C 398.863281 394.328125 398.796875 393.152344 399.554688 392.589844 C 401.738281 390.949219 403.925781 389.242188 406.011719 387.515625 C 406.390625 387.203125 406.917969 387.136719 407.363281 387.335938 C 475.601562 418.542969 549.480469 418.542969 616.914062 387.335938 C 617.359375 387.121094 617.882812 387.1875 618.277344 387.5 C 620.367188 389.222656 622.550781 390.949219 624.753906 392.589844 C 625.507812 393.152344 625.460938 394.328125 624.636719 394.808594 C 614.25 400.890625 603.453125 406.027344 592.097656 410.320312 C 591.355469 410.601562 591.027344 411.464844 591.390625 412.175781 C 597.652344 424.324219 604.800781 435.890625 612.671875 446.863281 C 613.003906 447.328125 613.59375 447.527344 614.136719 447.359375 C 648.207031 436.804688 682.753906 420.878906 718.417969 394.644531 C 718.730469 394.410156 718.929688 394.0625 718.960938 393.683594 C 727.65625 303.59375 704.398438 225.335938 657.3125 155.964844 C 657.195312 155.730469 657 155.566406 656.769531 155.464844 Z M 443.125 346.21875 C 422.582031 346.21875 405.652344 327.324219 405.652344 304.125 C 405.652344 280.921875 422.25 262.027344 443.125 262.027344 C 464.160156 262.027344 480.925781 281.085938 480.597656 304.125 C 480.597656 327.324219 463.996094 346.21875 443.125 346.21875 Z M 581.675781 346.21875 C 561.132812 346.21875 544.203125 327.324219 544.203125 304.125 C 544.203125 280.921875 560.804688 262.027344 581.675781 262.027344 C 602.714844 262.027344 619.476562 281.085938 619.148438 304.125 C 619.148438 327.324219 602.714844 346.21875 581.675781 346.21875 Z M 581.675781 346.21875 "/>
</g>
</g>
</svg>
