<?xml version="1.0" encoding="UTF-8"?>
<svg xmlns="http://www.w3.org/2000/svg" xmlns:xlink="http://www.w3.org/1999/xlink" width="1024.5pt" height="576pt" viewBox="0 0 1024.5 576" version="1.2">
<defs>
<clipPath id="clip1">
  <path d="M 0 0.140625 L 1024 0.140625 L 1024 575.859375 L 0 575.859375 Z M 0 0.140625 "/>
</clipPath>
<clipPath id="clip2">
  <path d="M 396 313 L 603 313 L 603 420.054688 L 396 420.054688 Z M 396 313 "/>
</clipPath>
<clipPath id="clip3">
  <path d="M 396 155.609375 L 604 155.609375 L 604 263 L 396 263 Z M 396 155.609375 "/>
</clipPath>
</defs>
<g id="surface1">
<g clip-path="url(#clip1)" clip-rule="nonzero">
<path style=" stroke:none;fill-rule:nonzero;fill:rgb(100%,100%,100%);fill-opacity:1;" d="M 0 0.140625 L 1024.5 0.140625 L 1024.5 583.640625 L 0 583.640625 Z M 0 0.140625 "/>
<path style=" stroke:none;fill-rule:nonzero;fill:rgb(100%,100%,100%);fill-opacity:1;" d="M 0 0.140625 L 1024.5 0.140625 L 1024.5 576.140625 L 0 576.140625 Z M 0 0.140625 "/>
<path style=" stroke:none;fill-rule:nonzero;fill:rgb(81.959534%,100%,87.059021%);fill-opacity:1;" d="M 0 0.140625 L 1024.5 0.140625 L 1024.5 576.140625 L 0 576.140625 Z M 0 0.140625 "/>
</g>
<path style=" stroke:none;fill-rule:nonzero;fill:rgb(25.878906%,52.159119%,95.689392%);fill-opacity:1;" d="M 641.355469 290.808594 C 641.355469 282.101562 640.585938 273.839844 639.261719 265.796875 L 514.753906 265.796875 L 514.753906 315.488281 L 586.042969 315.488281 C 582.847656 331.796875 573.480469 345.570312 559.597656 354.9375 L 559.597656 387.992188 L 602.128906 387.992188 C 627.03125 364.960938 641.355469 331.027344 641.355469 290.808594 Z M 641.355469 290.808594 "/>
<g clip-path="url(#clip2)" clip-rule="nonzero">
<path style=" stroke:none;fill-rule:nonzero;fill:rgb(20.388794%,65.879822%,32.548523%);fill-opacity:1;" d="M 514.753906 420.054688 C 550.453125 420.054688 580.3125 408.15625 602.128906 387.992188 L 559.597656 354.9375 C 547.699219 362.871094 532.601562 367.71875 514.753906 367.71875 C 480.265625 367.71875 451.066406 344.46875 440.597656 313.066406 L 396.742188 313.066406 L 396.742188 347.113281 C 418.449219 390.304688 463.074219 420.054688 514.753906 420.054688 Z M 514.753906 420.054688 "/>
</g>
<path style=" stroke:none;fill-rule:nonzero;fill:rgb(98.429871%,73.728943%,1.959229%);fill-opacity:1;" d="M 440.597656 313.066406 C 437.84375 305.132812 436.410156 296.648438 436.410156 287.832031 C 436.410156 279.019531 437.953125 270.535156 440.597656 262.601562 L 440.597656 228.554688 L 396.742188 228.554688 C 387.707031 246.402344 382.53125 266.457031 382.53125 287.832031 C 382.53125 309.207031 387.707031 329.261719 396.742188 347.113281 Z M 440.597656 313.066406 "/>
<g clip-path="url(#clip3)" clip-rule="nonzero">
<path style=" stroke:none;fill-rule:nonzero;fill:rgb(91.758728%,26.269531%,20.779419%);fill-opacity:1;" d="M 514.753906 207.949219 C 534.253906 207.949219 551.664062 214.667969 565.4375 227.78125 L 603.121094 190.097656 C 580.3125 168.722656 550.453125 155.609375 514.753906 155.609375 C 463.074219 155.609375 418.449219 185.359375 396.742188 228.554688 L 440.597656 262.601562 C 451.066406 231.199219 480.265625 207.949219 514.753906 207.949219 Z M 514.753906 207.949219 "/>
</g>
</g>
</svg>
