<?xml version="1.0" encoding="UTF-8"?>
<svg xmlns="http://www.w3.org/2000/svg" xmlns:xlink="http://www.w3.org/1999/xlink" width="750pt" height="749.999995pt" viewBox="0 0 750 749.999995" version="1.2">
<defs>
<clipPath id="clip1">
  <path d="M 378 347 L 522.507812 347 L 522.507812 489 L 378 489 Z M 378 347 "/>
</clipPath>
<clipPath id="clip2">
  <path d="M 227.757812 307 L 294 307 L 294 443 L 227.757812 443 Z M 227.757812 307 "/>
</clipPath>
<clipPath id="clip3">
  <path d="M 243 225 L 479 225 L 479 347 L 243 347 Z M 243 225 "/>
</clipPath>
</defs>
<g id="surface1">
<g clip-path="url(#clip1)" clip-rule="nonzero">
<path style=" stroke:none;fill-rule:nonzero;fill:rgb(25.878906%,52.159119%,95.689392%);fill-opacity:1;" d="M 522.558594 378.445312 C 522.558594 368.25 521.730469 357.996094 519.964844 347.964844 L 378.222656 347.964844 L 378.222656 405.726562 L 459.390625 405.726562 C 456.023438 424.355469 445.199219 440.835938 429.351562 451.308594 L 429.351562 488.789062 L 477.777344 488.789062 C 506.214844 462.664062 522.558594 424.082031 522.558594 378.445312 Z M 522.558594 378.445312 "/>
</g>
<path style=" stroke:none;fill-rule:nonzero;fill:rgb(20.388794%,65.879822%,32.548523%);fill-opacity:1;" d="M 378.222656 525 C 418.75 525 452.929688 511.71875 477.832031 488.789062 L 429.40625 451.308594 C 415.933594 460.457031 398.542969 465.640625 378.277344 465.640625 C 339.070312 465.640625 305.832031 439.238281 293.902344 403.742188 L 243.933594 403.742188 L 243.933594 442.378906 C 269.441406 493.03125 321.402344 525 378.222656 525 Z M 378.222656 525 "/>
<g clip-path="url(#clip2)" clip-rule="nonzero">
<path style=" stroke:none;fill-rule:nonzero;fill:rgb(98.429871%,73.728943%,1.568604%);fill-opacity:1;" d="M 293.847656 403.742188 C 287.554688 385.113281 287.554688 364.941406 293.847656 346.3125 L 293.847656 307.675781 L 243.933594 307.675781 C 222.617188 350.058594 222.617188 399.996094 243.933594 442.378906 Z M 293.847656 403.742188 "/>
</g>
<g clip-path="url(#clip3)" clip-rule="nonzero">
<path style=" stroke:none;fill-rule:nonzero;fill:rgb(91.758728%,26.269531%,20.779419%);fill-opacity:1;" d="M 378.222656 284.359375 C 399.644531 284.03125 420.351562 292.078125 435.867188 306.847656 L 478.773438 264.023438 C 451.605469 238.558594 415.546875 224.558594 378.222656 225 C 321.402344 225 269.441406 256.96875 243.933594 307.675781 L 293.847656 346.3125 C 305.71875 310.761719 339.015625 284.359375 378.222656 284.359375 Z M 378.222656 284.359375 "/>
</g>
</g>
</svg>
