<?xml version="1.0"?>
<svg xmlns="http://www.w3.org/2000/svg" xmlns:xlink="http://www.w3.org/1999/xlink" xmlns:svgjs="http://svgjs.com/svgjs" version="1.1" width="512" height="512" x="0" y="0" viewBox="0 0 512 512" style="enable-background:new 0 0 512 512" xml:space="preserve" class=""><g><g xmlns="http://www.w3.org/2000/svg"><g><path d="m484.3 0h-99.94c-4.142 0-7.5 3.358-7.5 7.5s3.358 7.5 7.5 7.5h99.94c7.003 0 12.7 5.697 12.7 12.7v55.13h-385.5c-4.142 0-7.5 3.358-7.5 7.5s3.358 7.5 7.5 7.5h385.5v323.84c0 7.003-5.697 12.7-12.7 12.7h-210.8c-4.142 0-7.5 3.358-7.5 7.5s3.358 7.5 7.5 7.5h210.8c15.274 0 27.7-12.426 27.7-27.7v-393.97c0-15.274-12.426-27.7-27.7-27.7z" fill="#2c3075" data-original="#000000" style="" class=""/><path d="m280.244 341.435c-4.142 0-7.5 3.358-7.5 7.5v60.61c0 4.142 3.358 7.5 7.5 7.5h32.325c4.142 0 7.5-3.358 7.5-7.5v-60.61c0-4.142-3.358-7.5-7.5-7.5zm24.825 60.61h-17.325v-45.61h17.325z" fill="#2c3075" data-original="#000000" style="" class=""/><path d="m344.895 301.028c-4.142 0-7.5 3.358-7.5 7.5v101.017c0 4.142 3.358 7.5 7.5 7.5h32.325c4.142 0 7.5-3.358 7.5-7.5v-101.017c0-4.142-3.358-7.5-7.5-7.5zm24.825 101.017h-17.325v-86.017h17.325z" fill="#2c3075" data-original="#000000" style="" class=""/><path d="m441.87 260.622h-32.325c-4.142 0-7.5 3.358-7.5 7.5v141.423c0 4.142 3.358 7.5 7.5 7.5h32.325c4.142 0 7.5-3.358 7.5-7.5v-141.423c0-4.142-3.358-7.5-7.5-7.5zm-7.5 141.423h-17.325v-126.423h17.325z" fill="#2c3075" data-original="#000000" style="" class=""/><path d="m326.711 193.951h-256.581c-4.142 0-7.5 3.358-7.5 7.5s3.358 7.5 7.5 7.5h256.582c4.142 0 7.5-3.358 7.5-7.5s-3.358-7.5-7.501-7.5z" fill="#2c3075" data-original="#000000" style="" class=""/><path d="m70.13 241.276h121.22c4.142 0 7.5-3.358 7.5-7.5s-3.358-7.5-7.5-7.5h-121.22c-4.142 0-7.5 3.358-7.5 7.5s3.358 7.5 7.5 7.5z" fill="#2c3075" data-original="#000000" style="" class=""/><path d="m449.37 122.659c0-4.142-3.358-7.5-7.5-7.5h-371.74c-4.142 0-7.5 3.358-7.5 7.5v46.467c0 4.142 3.358 7.5 7.5 7.5h371.74c4.142 0 7.5-3.358 7.5-7.5zm-371.74 7.5h286.029v31.467h-286.029zm356.74 31.467h-55.711v-31.467h55.711z" fill="#2c3075" data-original="#000000" style="" class=""/><path d="m238.5 434.37h-62.657l17.744-5.545c3.131-.979 5.263-3.878 5.263-7.159v-40.406c0-3.28-2.132-6.18-5.263-7.159l-27.062-8.457v-34.893c0-2.337-1.09-4.542-2.948-5.96s-4.271-1.891-6.526-1.275l-110.149 30.041h-23.239c-3.057 0-5.978.589-8.663 1.65v-257.377h61.5c4.142 0 7.5-3.358 7.5-7.5s-3.358-7.5-7.5-7.5h-61.5v-55.13c0-7.003 5.697-12.7 12.7-12.7h321.66c4.142 0 7.5-3.358 7.5-7.5s-3.358-7.5-7.5-7.5h-321.66c-15.274 0-27.7 12.426-27.7 27.7v398.007c0 10.878 7.38 20.058 17.394 22.813l10.373 49.486c1.698 8.109 8.944 13.994 17.23 13.994h14.173c4.713 0 9.121-2.098 12.093-5.755 2.972-3.659 4.124-8.403 3.157-13.021l-8.08-38.552 90.712 24.74c.65.177 1.313.264 1.973.264 1.627 0 3.231-.53 4.553-1.54 1.858-1.419 2.948-3.623 2.948-5.96v-22.806h71.974c4.142 0 7.5-3.358 7.5-7.5s-3.358-7.5-7.5-7.5zm-54.65-47.596v29.378l-17.325 5.415v-40.207zm-168.85-9.554c0-4.777 3.886-8.663 8.663-8.663h16.744v65.813h-16.725c-.018 0-.036-.002-.054-.002-4.76-.019-8.628-3.896-8.628-8.661zm44.738 119.078c.016.075.057.273-.118.488-.173.214-.374.214-.45.214h-14.173c-1.226 0-2.297-.87-2.549-2.069l-9.551-45.561h14.005l3.183.868zm-4.331-60.156v-69.356l96.118-26.214v121.784z" fill="#2c3075" data-original="#000000" style="" class=""/><path d="m334.211 266.102c0-4.142-3.358-7.5-7.5-7.5h-256.581c-4.142 0-7.5 3.358-7.5 7.5s3.358 7.5 7.5 7.5h256.582c4.142 0 7.499-3.358 7.499-7.5z" fill="#2c3075" data-original="#000000" style="" class=""/><path d="m70.13 290.927c-4.142 0-7.5 3.358-7.5 7.5s3.358 7.5 7.5 7.5h121.22c4.142 0 7.5-3.358 7.5-7.5s-3.358-7.5-7.5-7.5z" fill="#2c3075" data-original="#000000" style="" class=""/><path d="m450.961 48.917c0-6.695-5.427-12.122-12.122-12.122s-12.122 5.427-12.122 12.122 5.427 12.122 12.122 12.122 12.122-5.428 12.122-12.122z" fill="#2c3075" data-original="#000000" style="" class=""/><path d="m409.545 48.917c0-6.695-5.427-12.122-12.122-12.122s-12.122 5.427-12.122 12.122 5.427 12.122 12.122 12.122 12.122-5.428 12.122-12.122z" fill="#2c3075" data-original="#000000" style="" class=""/><path d="m343.884 48.917c0 6.695 5.427 12.122 12.122 12.122s12.122-5.427 12.122-12.122-5.427-12.122-12.122-12.122-12.122 5.427-12.122 12.122z" fill="#2c3075" data-original="#000000" style="" class=""/></g></g></g></svg>
