<svg xmlns="http://www.w3.org/2000/svg" xmlns:xlink="http://www.w3.org/1999/xlink" viewBox="0,0,256,256" width="90px" height="90px" fill-rule="nonzero"><g fill="#0e8388" fill-rule="nonzero" stroke="none" stroke-width="1" stroke-linecap="butt" stroke-linejoin="miter" stroke-miterlimit="10" stroke-dasharray="" stroke-dashoffset="0" font-family="none" font-weight="none" font-size="none" text-anchor="none" style="mix-blend-mode: normal"><g transform="scale(8.53333,8.53333)"><path d="M7,2c-1.105,0 -2,0.895 -2,2v22c0,1.105 0.895,2 2,2h16c1.105,0 2,-0.895 2,-2v-16.5c0,-0.265 -0.10497,-0.51903 -0.29297,-0.70703l-6.5,-6.5c-0.188,-0.188 -0.44203,-0.29297 -0.70703,-0.29297zM17,3.9043l6.0957,6.0957h-5.0957c-0.552,0 -1,-0.448 -1,-1zM10,10c1.105,0 2,0.895 2,2c0,1.105 -0.895,2 -2,2c-1.105,0 -2,-0.895 -2,-2c0,-1.105 0.895,-2 2,-2zM12,18.00195c0.61925,0 1.23844,0.23648 1.71094,0.70898l1.28906,1.28906l0.01563,-0.01562l1.16992,1.17188c0.422,0.422 1.10339,0.41809 1.52539,-0.00391c0.422,-0.422 0.422,-1.10825 0,-1.53125l-1.14063,-1.14062c0.94697,-0.69825 2.2833,-0.62686 3.14063,0.23047l2.28906,2.28906v3h-14v-3l2.28906,-2.28906c0.4725,-0.4725 1.09169,-0.70898 1.71094,-0.70898z"></path></g></g></svg>