<?xml version="1.0" encoding="UTF-8"?>
<svg xmlns="http://www.w3.org/2000/svg" xmlns:xlink="http://www.w3.org/1999/xlink" viewBox="0 0 66 66" width="66px" height="66px">
<g id="surface116386133">
<path style=" stroke:none;fill-rule:nonzero;fill:rgb(15.294118%,68.235296%,37.64706%);fill-opacity:1;" d="M 11.421875 2.539062 C 6.523438 2.539062 2.539062 6.523438 2.539062 11.421875 L 2.539062 18.835938 L 63.460938 18.835938 L 63.460938 11.421875 C 63.460938 6.523438 59.476562 2.539062 54.578125 2.539062 Z M 10.289062 8.078125 C 10.960938 8.101562 11.582031 8.375 11.929688 8.808594 C 12.882812 9.667969 12.996094 11.378906 11.929688 12.390625 C 10.941406 13.429688 9.289062 13.375 8.355469 12.390625 C 7.441406 11.523438 7.296875 9.867188 8.355469 8.808594 C 8.894531 8.269531 9.613281 8.050781 10.289062 8.078125 Z M 20.429688 8.078125 C 21.105469 8.101562 21.730469 8.371094 22.082031 8.808594 C 22.984375 9.621094 23.191406 11.339844 22.082031 12.390625 C 21.097656 13.429688 19.441406 13.375 18.507812 12.390625 C 17.59375 11.523438 17.453125 9.867188 18.507812 8.808594 C 19.042969 8.273438 19.757812 8.050781 20.429688 8.078125 Z M 30.664062 8.085938 C 31.335938 8.140625 31.9375 8.4375 32.238281 8.808594 C 33.1875 9.667969 33.304688 11.378906 32.238281 12.390625 C 31.25 13.429688 29.59375 13.375 28.660156 12.390625 C 27.746094 11.523438 27.605469 9.867188 28.660156 8.808594 C 29.25 8.21875 29.992188 8.03125 30.664062 8.085938 Z M 2.539062 23.910156 L 2.539062 54.578125 C 2.539062 59.476562 6.523438 63.460938 11.421875 63.460938 L 54.578125 63.460938 C 59.476562 63.460938 63.460938 59.476562 63.460938 54.578125 L 63.460938 23.910156 Z M 30.738281 32.367188 L 35.285156 32.367188 C 38.230469 32.367188 40.617188 34.773438 40.617188 37.71875 L 40.617188 49.449219 C 40.617188 52.394531 38.230469 54.804688 35.285156 54.804688 L 30.738281 54.804688 C 27.792969 54.804688 25.382812 52.394531 25.382812 49.449219 L 25.382812 37.71875 C 25.382812 34.773438 27.792969 32.367188 30.738281 32.367188 Z M 17.085938 33.332031 C 18.480469 33.332031 19.625 34.449219 19.625 35.871094 L 19.625 51.304688 C 19.625 52.699219 18.480469 53.84375 17.085938 53.84375 C 15.6875 53.84375 14.546875 52.699219 14.546875 51.304688 L 14.546875 35.871094 C 14.546875 34.449219 15.6875 33.332031 17.085938 33.332031 Z M 48.914062 33.332031 C 50.335938 33.332031 51.453125 34.449219 51.453125 35.871094 L 51.453125 51.304688 C 51.453125 52.699219 50.335938 53.84375 48.914062 53.84375 C 47.519531 53.84375 46.375 52.699219 46.375 51.304688 L 46.375 35.871094 C 46.375 34.449219 47.519531 33.332031 48.914062 33.332031 Z M 30.738281 37.441406 C 30.585938 37.441406 30.460938 37.566406 30.460938 37.71875 L 30.460938 49.449219 C 30.460938 49.601562 30.585938 49.726562 30.738281 49.726562 L 35.285156 49.726562 C 35.4375 49.726562 35.539062 49.601562 35.539062 49.449219 L 35.539062 37.71875 C 35.539062 37.566406 35.4375 37.441406 35.285156 37.441406 Z M 30.738281 37.441406 "/>
</g>
</svg>
