<?xml version="1.0" encoding="UTF-8"?>
<svg xmlns="http://www.w3.org/2000/svg" xmlns:xlink="http://www.w3.org/1999/xlink" width="1440pt" height="809.999993pt" viewBox="0 0 1440 809.999993" version="1.2">
<defs>
<clipPath id="clip1">
  <path d="M 998 310 L 1440 310 L 1440 810 L 998 810 Z M 998 310 "/>
</clipPath>
<clipPath id="clip2">
  <path d="M 1649.957031 370.9375 L 1204.824219 1008.710938 L 909 802.242188 L 1354.132812 164.472656 Z M 1649.957031 370.9375 "/>
</clipPath>
<clipPath id="clip3">
  <path d="M 1649.957031 370.9375 L 1204.824219 1008.710938 L 909 802.242188 L 1354.132812 164.472656 Z M 1649.957031 370.9375 "/>
</clipPath>
<clipPath id="clip4">
  <path d="M 960 285 L 1440 285 L 1440 810 L 960 810 Z M 960 285 "/>
</clipPath>
<clipPath id="clip5">
  <path d="M 1649.957031 370.9375 L 1204.824219 1008.710938 L 909 802.242188 L 1354.132812 164.472656 Z M 1649.957031 370.9375 "/>
</clipPath>
<clipPath id="clip6">
  <path d="M 1649.957031 370.9375 L 1204.824219 1008.710938 L 909 802.242188 L 1354.132812 164.472656 Z M 1649.957031 370.9375 "/>
</clipPath>
<clipPath id="clip7">
  <path d="M 924 262 L 1440 262 L 1440 810 L 924 810 Z M 924 262 "/>
</clipPath>
<clipPath id="clip8">
  <path d="M 1649.957031 370.9375 L 1204.824219 1008.710938 L 909 802.242188 L 1354.132812 164.472656 Z M 1649.957031 370.9375 "/>
</clipPath>
<clipPath id="clip9">
  <path d="M 1649.957031 370.9375 L 1204.824219 1008.710938 L 909 802.242188 L 1354.132812 164.472656 Z M 1649.957031 370.9375 "/>
</clipPath>
<clipPath id="clip10">
  <path d="M 0 0 L 551 0 L 551 185 L 0 185 Z M 0 0 "/>
</clipPath>
<clipPath id="clip11">
  <path d="M -80.703125 -172.179688 L 550.699219 14.777344 L 435.078125 405.269531 L -196.324219 218.3125 Z M -80.703125 -172.179688 "/>
</clipPath>
<clipPath id="clip12">
  <path d="M 41.878906 -586.171875 L 1156.542969 -256.125 L 918.484375 547.871094 L -196.179688 217.828125 Z M 41.878906 -586.171875 "/>
</clipPath>
<clipPath id="clip13">
  <path d="M 0 0 L 551 0 L 551 232 L 0 232 Z M 0 0 "/>
</clipPath>
<clipPath id="clip14">
  <path d="M -80.703125 -172.179688 L 550.699219 14.777344 L 435.078125 405.269531 L -196.324219 218.3125 Z M -80.703125 -172.179688 "/>
</clipPath>
<clipPath id="clip15">
  <path d="M 41.878906 -586.171875 L 1156.542969 -256.125 L 918.484375 547.871094 L -196.179688 217.828125 Z M 41.878906 -586.171875 "/>
</clipPath>
<clipPath id="clip16">
  <path d="M 0 0 L 551 0 L 551 278 L 0 278 Z M 0 0 "/>
</clipPath>
<clipPath id="clip17">
  <path d="M -80.703125 -172.179688 L 550.699219 14.777344 L 435.078125 405.269531 L -196.324219 218.3125 Z M -80.703125 -172.179688 "/>
</clipPath>
<clipPath id="clip18">
  <path d="M 41.878906 -586.171875 L 1156.542969 -256.125 L 918.484375 547.871094 L -196.179688 217.828125 Z M 41.878906 -586.171875 "/>
</clipPath>
<clipPath id="clip19">
  <path d="M 1274.253906 55 L 1298 55 L 1298 80 L 1274.253906 80 Z M 1274.253906 55 "/>
</clipPath>
<clipPath id="clip20">
  <path d="M 1364 3.777344 L 1386 3.777344 L 1386 28 L 1364 28 Z M 1364 3.777344 "/>
</clipPath>
<clipPath id="clip21">
  <path d="M 1274.253906 153 L 1296 153 L 1296 180 L 1274.253906 180 Z M 1274.253906 153 "/>
</clipPath>
<clipPath id="clip22">
  <path d="M 1309 182.230469 L 1332 182.230469 L 1332 206.253906 L 1309 206.253906 Z M 1309 182.230469 "/>
</clipPath>
<clipPath id="clip23">
  <path d="M 147 517.382812 L 155 517.382812 L 155 538 L 147 538 Z M 147 517.382812 "/>
</clipPath>
<clipPath id="clip24">
  <path d="M 174.4375 601 L 181.402344 601 L 181.402344 621 L 174.4375 621 Z M 174.4375 601 "/>
</clipPath>
<clipPath id="clip25">
  <path d="M 57.421875 809.332031 L 65 809.332031 L 65 810 L 57.421875 810 Z M 57.421875 809.332031 "/>
</clipPath>
<clipPath id="clip26">
  <path d="M 0 405 L 162 405 L 162 586.5 L 0 586.5 Z M 0 405 "/>
</clipPath>
<clipPath id="clip27">
  <path d="M 1281 234.261719 L 1380.574219 234.261719 L 1380.574219 405.261719 L 1281 405.261719 Z M 1281 234.261719 "/>
</clipPath>
<clipPath id="clip28">
  <path d="M 11 709 L 345 709 L 345 810 L 11 810 Z M 11 709 "/>
</clipPath>
<clipPath id="clip29">
  <path d="M -1.152344 764.820312 L 331.082031 697.417969 L 344.203125 762.101562 L 11.972656 829.503906 Z M -1.152344 764.820312 "/>
</clipPath>
<clipPath id="clip30">
  <path d="M -1.152344 764.820312 L 331.082031 697.417969 L 344.203125 762.101562 L 11.972656 829.503906 Z M -1.152344 764.820312 "/>
</clipPath>
<clipPath id="clip31">
  <path d="M 1072 66.371094 L 1440 66.371094 L 1440 143.621094 L 1072 143.621094 Z M 1072 66.371094 "/>
</clipPath>
</defs>
<g id="surface1">
<rect x="0" y="0" width="1440" height="809.999993" style="fill:rgb(100%,100%,100%);fill-opacity:1;stroke:none;"/>
<rect x="0" y="0" width="1440" height="809.999993" style="fill:rgb(100%,100%,100%);fill-opacity:1;stroke:none;"/>
<rect x="0" y="0" width="1440" height="809.999993" style="fill:rgb(99.609375%,97.24884%,97.24884%);fill-opacity:1;stroke:none;"/>
<g clip-path="url(#clip1)" clip-rule="nonzero">
<g clip-path="url(#clip2)" clip-rule="nonzero">
<g clip-path="url(#clip3)" clip-rule="nonzero">
<path style=" stroke:none;fill-rule:nonzero;fill:rgb(93.728638%,43.139648%,17.649841%);fill-opacity:1;" d="M 1507.183594 366.707031 C 1486.726562 401.179688 1476.550781 445.101562 1465.804688 491.472656 C 1451.6875 552.183594 1437.136719 614.871094 1396.734375 664.066406 C 1373.035156 692.859375 1341.679688 714.417969 1306.390625 726.398438 C 1269.359375 739.246094 1226.25 743.683594 1174.953125 739.75 C 1130.460938 736.390625 1093.71875 739.582031 1065.855469 749.34375 C 1045.558594 756.421875 1030.496094 766.589844 1019.800781 780.558594 C 1001.867188 804.078125 997.96875 836.832031 998.664062 864.632812 L 1040.363281 893.734375 C 1039.488281 888.195312 1038.667969 882.308594 1038.238281 876.128906 C 1035.484375 843.667969 1039.875 818.089844 1050.75 803.863281 C 1066.6875 782.929688 1110.847656 773.726562 1171.96875 778.257812 C 1228.695312 782.566406 1276.820312 777.460938 1319.113281 762.78125 C 1362.144531 747.859375 1398.359375 722.867188 1426.753906 688.433594 C 1472.90625 632.628906 1489.21875 562.257812 1503.667969 500.257812 C 1513.703125 456.808594 1523.296875 415.890625 1540.625 386.445312 C 1555.578125 361.21875 1571.027344 346.960938 1586.617188 344.183594 C 1595.28125 342.644531 1604.964844 343.710938 1614.699219 346.332031 L 1563.695312 310.734375 C 1542.800781 319.484375 1524.195312 337.988281 1507.183594 366.707031 Z M 1507.183594 366.707031 "/>
</g>
</g>
</g>
<g clip-path="url(#clip4)" clip-rule="nonzero">
<g clip-path="url(#clip5)" clip-rule="nonzero">
<g clip-path="url(#clip6)" clip-rule="nonzero">
<path style=" stroke:none;fill-rule:nonzero;fill:rgb(17.248535%,18.818665%,45.878601%);fill-opacity:1;" d="M 1019.582031 780.59375 C 1030.28125 766.625 1045.214844 756.371094 1065.640625 749.382812 C 1093.503906 739.617188 1130.242188 736.429688 1174.738281 739.789062 C 1226.125 743.59375 1269.015625 739.195312 1306.175781 726.4375 C 1341.464844 714.457031 1372.816406 692.898438 1396.515625 664.105469 C 1437.046875 615 1451.597656 552.3125 1465.585938 491.511719 C 1476.421875 445.015625 1486.726562 401.179688 1507.183594 366.707031 C 1524.195312 337.988281 1542.800781 319.484375 1563.695312 310.734375 L 1528.121094 285.90625 C 1507.855469 299.457031 1489.6875 319.78125 1473.703125 346.753906 C 1450.15625 386.46875 1438.839844 435.285156 1427.8125 482.601562 C 1414.695312 538.890625 1401.277344 597.242188 1366.507812 639.175781 C 1347.109375 662.625 1323.238281 679.164062 1293.464844 689.492188 C 1261.476562 700.550781 1223.601562 704.277344 1177.773438 700.933594 C 1085.726562 693.976562 1022.074219 712.90625 988.507812 757.199219 C 987.617188 758.472656 986.597656 759.660156 985.707031 760.9375 C 969.773438 783.769531 962.542969 810.96875 960.324219 838.0625 L 998.449219 864.671875 C 997.878906 836.960938 1001.777344 804.207031 1019.582031 780.59375 Z M 1019.582031 780.59375 "/>
</g>
</g>
</g>
<g clip-path="url(#clip7)" clip-rule="nonzero">
<g clip-path="url(#clip8)" clip-rule="nonzero">
<g clip-path="url(#clip9)" clip-rule="nonzero">
<path style=" stroke:none;fill-rule:nonzero;fill:rgb(28.62854%,26.669312%,53.329468%);fill-opacity:1;" d="M 985.835938 761.023438 C 986.726562 759.75 987.617188 758.472656 988.632812 757.285156 C 1022.203125 712.996094 1085.855469 694.066406 1177.988281 700.894531 C 1223.949219 704.328125 1261.820312 700.601562 1293.683594 689.453125 C 1323.457031 679.125 1347.453125 662.675781 1366.726562 639.136719 C 1401.367188 597.113281 1414.914062 538.851562 1428.03125 482.5625 C 1439.058594 435.246094 1450.375 386.429688 1473.921875 346.714844 C 1489.6875 319.78125 1507.855469 299.457031 1528.121094 285.90625 L 1494.328125 262.320312 C 1474.179688 278.417969 1456.117188 299.953125 1440.132812 326.929688 C 1413.585938 371.757812 1401.472656 423.621094 1389.863281 473.945312 C 1363.855469 585.921875 1343.273438 674.367188 1180.71875 662.207031 C 1074.542969 654.304688 999.394531 678.296875 957.339844 733.929688 C 956.183594 735.585938 954.898438 737.15625 953.742188 738.8125 C 937.804688 761.644531 928.84375 787.257812 924.238281 812.875 L 960.195312 837.972656 C 962.582031 811.1875 969.8125 783.984375 985.835938 761.023438 Z M 985.835938 761.023438 "/>
</g>
</g>
</g>
<g clip-path="url(#clip10)" clip-rule="nonzero">
<g clip-path="url(#clip11)" clip-rule="nonzero">
<g clip-path="url(#clip12)" clip-rule="nonzero">
<path style=" stroke:none;fill-rule:nonzero;fill:rgb(17.248535%,18.818665%,45.878601%);fill-opacity:1;" d="M -37.015625 167.679688 C 9.0625 183.746094 55.121094 188.429688 100.207031 181.695312 C 155.664062 173.433594 211.835938 147.238281 266.921875 104.265625 C 301.902344 76.875 333.238281 43.808594 366.636719 8.691406 C 376.554688 -1.921875 386.988281 -12.625 397.417969 -23.328125 C 536.175781 -164.933594 725.089844 -246.195312 923.25 -249.949219 C 999.078125 -250.96875 1063.347656 -239.921875 1119.304688 -216.339844 C 1126.605469 -213.207031 1133.84375 -209.855469 1140.792969 -206.34375 L 1154.164062 -251.507812 C 1148.644531 -254.109375 1143.121094 -256.710938 1137.53125 -259.09375 C 1075.382812 -285.480469 1005.132812 -297.570312 922.699219 -296.328125 C 711.980469 -292.664062 511.347656 -206.160156 363.929688 -55.75 C 353.207031 -44.890625 342.933594 -33.898438 332.726562 -23.128906 C 300.679688 10.699219 270.40625 42.628906 238.289062 67.71875 C 151.011719 136.003906 65.933594 154.367188 -21.839844 123.78125 C -70.367188 106.992188 -112.46875 78.3125 -145.585938 50.359375 L -159.882812 98.636719 C -125.921875 125.386719 -84.429688 151.222656 -37.015625 167.679688 Z M -37.015625 167.679688 "/>
</g>
</g>
</g>
<g clip-path="url(#clip13)" clip-rule="nonzero">
<g clip-path="url(#clip14)" clip-rule="nonzero">
<g clip-path="url(#clip15)" clip-rule="nonzero">
<path style=" stroke:none;fill-rule:nonzero;fill:rgb(30.589294%,27.449036%,70.588684%);fill-opacity:1;" d="M 923.25 -249.949219 C 725.089844 -246.195312 536.175781 -164.933594 397.417969 -23.328125 C 386.988281 -12.625 376.710938 -1.632812 366.636719 8.691406 C 333.238281 43.808594 301.902344 76.875 266.921875 104.265625 C 211.835938 147.238281 155.730469 173.210938 100.207031 181.695312 C 55.121094 188.429688 9.0625 183.746094 -37.015625 167.679688 C -84.210938 151.289062 -125.855469 125.164062 -159.816406 98.414062 L -173.910156 146.019531 C -139.335938 171.503906 -98.496094 195.453125 -52.417969 211.515625 C 65.898438 252.597656 182.816406 228.902344 295.335938 140.746094 C 333.113281 111.28125 365.574219 76.855469 400.035156 40.597656 C 409.890625 30.207031 420.097656 19.4375 430.464844 8.957031 C 560.785156 -123.769531 738.042969 -200.015625 924.023438 -203.503906 C 993.316406 -204.523438 1051.378906 -194.589844 1101.296875 -173.515625 C 1110.316406 -169.636719 1118.980469 -165.378906 1127.355469 -160.960938 L 1140.792969 -206.34375 C 1133.84375 -209.855469 1126.605469 -213.207031 1119.304688 -216.339844 C 1063.347656 -239.921875 999.078125 -250.96875 923.25 -249.949219 Z M 923.25 -249.949219 "/>
</g>
</g>
</g>
<g clip-path="url(#clip16)" clip-rule="nonzero">
<g clip-path="url(#clip17)" clip-rule="nonzero">
<g clip-path="url(#clip18)" clip-rule="nonzero">
<path style=" stroke:none;fill-rule:nonzero;fill:rgb(93.728638%,43.139648%,17.649841%);fill-opacity:1;" d="M 1101.296875 -173.515625 C 1051.378906 -194.589844 993.316406 -204.523438 924.023438 -203.503906 C 737.976562 -199.792969 560.941406 -123.480469 430.6875 9.023438 C 420.542969 19.570312 410.113281 30.273438 400.257812 40.664062 C 365.796875 76.921875 333.335938 111.347656 295.558594 140.8125 C 183.105469 228.742188 65.898438 252.597656 -52.195312 211.582031 C -98.273438 195.519531 -139.335938 171.503906 -173.6875 146.085938 L -187.652344 193.25 C -150.628906 219.457031 -110.113281 240.40625 -67.371094 255.480469 C -61.207031 257.550781 -55.039062 259.617188 -48.808594 261.460938 C 3.875 277.304688 59.535156 281.441406 114.128906 273.652344 C 185.808594 262.9375 256.609375 230.667969 324.355469 177.648438 C 364.699219 146.039062 400.152344 108.871094 434.257812 72.992188 C 444.113281 62.605469 454.253906 52.054688 464.109375 41.664062 C 585.769531 -82.253906 751.089844 -153.320312 924.730469 -156.835938 C 987.484375 -157.855469 1039.339844 -149.035156 1083.226562 -130.472656 C 1093.738281 -125.910156 1104.050781 -120.679688 1113.945312 -114.84375 L 1127.578125 -160.894531 C 1118.980469 -165.378906 1110.316406 -169.636719 1101.296875 -173.515625 Z M 1101.296875 -173.515625 "/>
</g>
</g>
</g>
<path style=" stroke:none;fill-rule:nonzero;fill:rgb(30.589294%,27.449036%,70.588684%);fill-opacity:1;" d="M 1402.785156 55.898438 C 1409.089844 55.898438 1414.027344 60.957031 1414.027344 67.269531 C 1414.027344 73.574219 1409.089844 79.109375 1402.785156 79.109375 C 1396.472656 79.109375 1390.230469 73.574219 1390.230469 67.269531 C 1390.230469 60.957031 1396.472656 55.898438 1402.785156 55.898438 "/>
<path style=" stroke:none;fill-rule:nonzero;fill:rgb(30.589294%,27.449036%,70.588684%);fill-opacity:1;" d="M 1435.273438 18.976562 C 1441.582031 18.976562 1445.503906 24.859375 1445.503906 31.167969 C 1445.503906 37.480469 1441.582031 41.585938 1435.273438 41.585938 C 1428.964844 41.585938 1422.75 37.480469 1422.75 31.167969 C 1422.75 24.859375 1428.964844 18.976562 1435.273438 18.976562 "/>
<path style=" stroke:none;fill-rule:nonzero;fill:rgb(30.589294%,27.449036%,70.588684%);fill-opacity:1;" d="M 1448.898438 96.867188 C 1455.207031 96.867188 1460.75 101.785156 1460.75 108.09375 C 1460.75 114.40625 1455.207031 119.734375 1448.898438 119.734375 C 1442.585938 119.734375 1436.871094 114.40625 1436.871094 108.09375 C 1436.871094 101.785156 1442.585938 96.867188 1448.898438 96.867188 "/>
<path style=" stroke:none;fill-rule:nonzero;fill:rgb(30.589294%,27.449036%,70.588684%);fill-opacity:1;" d="M 1358.96875 81.191406 C 1365.277344 81.191406 1370.015625 87.378906 1370.015625 93.683594 C 1370.015625 99.996094 1365.277344 106.496094 1358.96875 106.496094 C 1352.660156 106.496094 1347.355469 99.996094 1347.355469 93.683594 C 1347.355469 87.378906 1352.660156 81.191406 1358.96875 81.191406 "/>
<g clip-path="url(#clip19)" clip-rule="nonzero">
<path style=" stroke:none;fill-rule:nonzero;fill:rgb(30.589294%,27.449036%,70.588684%);fill-opacity:1;" d="M 1286.824219 55.839844 C 1293.136719 55.839844 1297.578125 60.117188 1297.578125 66.425781 C 1297.578125 72.738281 1293.136719 79.023438 1286.824219 79.023438 C 1280.519531 79.023438 1274.636719 72.738281 1274.636719 66.425781 C 1274.636719 60.117188 1280.519531 55.839844 1286.824219 55.839844 "/>
</g>
<path style=" stroke:none;fill-rule:nonzero;fill:rgb(30.589294%,27.449036%,70.588684%);fill-opacity:1;" d="M 1308.035156 5.632812 C 1314.339844 5.632812 1318.359375 10.371094 1318.359375 16.683594 C 1318.359375 22.992188 1314.339844 28.988281 1308.035156 28.988281 C 1301.722656 28.988281 1296.664062 22.992188 1296.664062 16.683594 C 1296.664062 10.371094 1301.722656 5.632812 1308.035156 5.632812 "/>
<path style=" stroke:none;fill-rule:nonzero;fill:rgb(30.589294%,27.449036%,70.588684%);fill-opacity:1;" d="M 1341.433594 39.28125 C 1347.738281 39.28125 1352.984375 42.992188 1352.984375 49.304688 C 1352.984375 55.617188 1347.738281 60.636719 1341.433594 60.636719 C 1335.121094 60.636719 1328.957031 55.617188 1328.957031 49.304688 C 1328.957031 42.992188 1335.121094 39.28125 1341.433594 39.28125 "/>
<g clip-path="url(#clip20)" clip-rule="nonzero">
<path style=" stroke:none;fill-rule:nonzero;fill:rgb(30.589294%,27.449036%,70.588684%);fill-opacity:1;" d="M 1375.25 3.773438 C 1381.554688 3.773438 1385.628906 7.894531 1385.628906 14.199219 C 1385.628906 20.511719 1381.554688 27.039062 1375.25 27.039062 C 1368.9375 27.039062 1364.238281 20.511719 1364.238281 14.199219 C 1364.238281 7.894531 1368.9375 3.773438 1375.25 3.773438 "/>
</g>
<path style=" stroke:none;fill-rule:nonzero;fill:rgb(30.589294%,27.449036%,70.588684%);fill-opacity:1;" d="M 1292.925781 102.554688 C 1299.238281 102.554688 1303.222656 107.179688 1303.222656 113.488281 C 1303.222656 119.800781 1299.238281 126.074219 1292.925781 126.074219 C 1286.621094 126.074219 1280.257812 119.800781 1280.257812 113.488281 C 1280.257812 107.179688 1286.621094 102.554688 1292.925781 102.554688 "/>
<g clip-path="url(#clip21)" clip-rule="nonzero">
<path style=" stroke:none;fill-rule:nonzero;fill:rgb(30.589294%,27.449036%,70.588684%);fill-opacity:1;" d="M 1285.039062 153.960938 C 1291.351562 153.960938 1295.726562 160.484375 1295.726562 166.796875 C 1295.726562 173.105469 1291.351562 179.507812 1285.039062 179.507812 C 1278.730469 179.507812 1274.480469 173.105469 1274.480469 166.796875 C 1274.480469 160.484375 1278.730469 153.960938 1285.039062 153.960938 "/>
</g>
<g clip-path="url(#clip22)" clip-rule="nonzero">
<path style=" stroke:none;fill-rule:nonzero;fill:rgb(30.589294%,27.449036%,70.588684%);fill-opacity:1;" d="M 1320.71875 182.945312 C 1327.027344 182.945312 1331.160156 187.828125 1331.160156 194.140625 C 1331.160156 200.449219 1327.027344 206.253906 1320.71875 206.253906 C 1314.410156 206.253906 1309.066406 200.449219 1309.066406 194.140625 C 1309.066406 187.828125 1314.410156 182.945312 1320.71875 182.945312 "/>
</g>
<path style=" stroke:none;fill-rule:nonzero;fill:rgb(30.589294%,27.449036%,70.588684%);fill-opacity:1;" d="M 1410.230469 118.953125 C 1416.539062 118.953125 1422.578125 122.851562 1422.578125 129.164062 C 1422.578125 135.472656 1416.539062 139.59375 1410.230469 139.59375 C 1403.921875 139.59375 1399.4375 135.472656 1399.4375 129.164062 C 1399.4375 122.851562 1403.921875 118.953125 1410.230469 118.953125 "/>
<path style=" stroke:none;fill-rule:nonzero;fill:rgb(30.589294%,27.449036%,70.588684%);fill-opacity:1;" d="M 1378.324219 153.074219 C 1384.636719 153.074219 1390.273438 159.464844 1390.273438 165.773438 C 1390.273438 172.085938 1384.636719 178.136719 1378.324219 178.136719 C 1372.015625 178.136719 1366.695312 172.085938 1366.695312 165.773438 C 1366.695312 159.464844 1372.015625 153.074219 1378.324219 153.074219 "/>
<path style=" stroke:none;fill-rule:nonzero;fill:rgb(30.589294%,27.449036%,70.588684%);fill-opacity:1;" d="M 1340.769531 125.570312 C 1347.074219 125.570312 1351.25 131.515625 1351.25 137.828125 C 1351.25 144.132812 1347.074219 150.097656 1340.769531 150.097656 C 1334.460938 150.097656 1328.828125 144.132812 1328.828125 137.828125 C 1328.828125 131.515625 1334.460938 125.570312 1340.769531 125.570312 "/>
<path style=" stroke:none;fill-rule:nonzero;fill:rgb(63.919067%,61.959839%,89.408875%);fill-opacity:1;" d="M 19.539062 762.078125 C 19.605469 765.910156 19.667969 769.734375 19.738281 773.558594 C 19.746094 774.113281 19.753906 774.660156 19.765625 775.207031 C 19.792969 776.960938 21.28125 778.636719 23.109375 778.554688 C 24.894531 778.472656 26.488281 777.082031 26.457031 775.207031 C 26.390625 771.382812 26.328125 767.558594 26.257812 763.734375 C 26.246094 763.183594 26.242188 762.632812 26.230469 762.078125 C 26.199219 760.332031 24.714844 758.65625 22.886719 758.742188 C 21.097656 758.816406 19.507812 760.207031 19.539062 762.078125 "/>
<path style=" stroke:none;fill-rule:nonzero;fill:rgb(63.919067%,61.959839%,89.408875%);fill-opacity:1;" d="M 42.511719 745.617188 C 42.578125 749.441406 42.640625 753.269531 42.707031 757.09375 C 42.71875 757.640625 42.730469 758.195312 42.738281 758.746094 C 42.765625 760.492188 44.253906 762.167969 46.085938 762.089844 C 47.871094 762.007812 49.460938 760.617188 49.429688 758.746094 C 49.363281 754.917969 49.292969 751.09375 49.230469 747.265625 C 49.21875 746.71875 49.207031 746.164062 49.203125 745.617188 C 49.171875 743.867188 47.6875 742.191406 45.859375 742.269531 C 44.066406 742.351562 42.480469 743.742188 42.511719 745.617188 "/>
<path style=" stroke:none;fill-rule:nonzero;fill:rgb(63.919067%,61.959839%,89.408875%);fill-opacity:1;" d="M 142.136719 675.484375 C 142.207031 679.308594 142.269531 683.132812 142.335938 686.957031 C 142.34375 687.511719 142.351562 688.058594 142.363281 688.613281 C 142.394531 690.359375 143.878906 692.035156 145.707031 691.953125 C 147.496094 691.875 149.089844 690.480469 149.054688 688.613281 C 148.988281 684.78125 148.921875 680.957031 148.851562 677.132812 C 148.847656 676.585938 148.835938 676.03125 148.824219 675.484375 C 148.796875 673.730469 147.308594 672.054688 145.480469 672.140625 C 143.695312 672.222656 142.101562 673.609375 142.136719 675.484375 "/>
<path style=" stroke:none;fill-rule:nonzero;fill:rgb(63.919067%,61.959839%,89.408875%);fill-opacity:1;" d="M 164.769531 539.898438 C 164.835938 543.722656 164.898438 547.546875 164.96875 551.378906 C 164.980469 551.925781 164.984375 552.472656 164.996094 553.027344 C 165.023438 554.773438 166.511719 556.457031 168.339844 556.371094 C 170.125 556.289062 171.71875 554.898438 171.6875 553.027344 C 171.621094 549.203125 171.550781 545.378906 171.488281 541.546875 C 171.480469 541 171.472656 540.445312 171.460938 539.898438 C 171.429688 538.152344 169.945312 536.476562 168.113281 536.554688 C 166.328125 536.636719 164.738281 538.023438 164.769531 539.898438 "/>
<path style=" stroke:none;fill-rule:nonzero;fill:rgb(63.919067%,61.959839%,89.408875%);fill-opacity:1;" d="M 42.507812 554.601562 C 42.574219 558.425781 42.640625 562.25 42.707031 566.082031 C 42.710938 566.628906 42.722656 567.183594 42.734375 567.730469 C 42.765625 569.476562 44.25 571.152344 46.078125 571.074219 C 47.871094 570.992188 49.457031 569.605469 49.421875 567.730469 C 49.359375 563.90625 49.292969 560.082031 49.230469 556.257812 C 49.21875 555.703125 49.207031 555.15625 49.199219 554.601562 C 49.171875 552.855469 47.679688 551.179688 45.851562 551.261719 C 44.066406 551.339844 42.476562 552.730469 42.507812 554.601562 "/>
<path style=" stroke:none;fill-rule:nonzero;fill:rgb(63.919067%,61.959839%,89.408875%);fill-opacity:1;" d="M 114.34375 654.761719 C 114.40625 658.59375 114.472656 662.417969 114.542969 666.242188 C 114.554688 666.789062 114.5625 667.34375 114.570312 667.890625 C 114.601562 669.644531 116.085938 671.320312 117.914062 671.238281 C 119.699219 671.160156 121.292969 669.765625 121.257812 667.890625 C 121.195312 664.066406 121.128906 660.242188 121.066406 656.417969 C 121.054688 655.867188 121.042969 655.316406 121.035156 654.761719 C 121.007812 653.015625 119.515625 651.339844 117.6875 651.425781 C 115.902344 651.5 114.3125 652.894531 114.34375 654.761719 "/>
<path style=" stroke:none;fill-rule:nonzero;fill:rgb(63.919067%,61.959839%,89.408875%);fill-opacity:1;" d="M 15.46875 548.316406 C 15.535156 552.140625 15.597656 555.964844 15.664062 559.792969 C 15.671875 560.339844 15.683594 560.894531 15.695312 561.445312 C 15.722656 563.191406 17.210938 564.867188 19.039062 564.789062 C 20.824219 564.707031 22.417969 563.316406 22.382812 561.445312 C 22.320312 557.617188 22.25 553.789062 22.1875 549.964844 C 22.175781 549.417969 22.167969 548.863281 22.160156 548.316406 C 22.125 546.566406 20.640625 544.890625 18.8125 544.96875 C 17.023438 545.050781 15.4375 546.441406 15.46875 548.316406 "/>
<path style=" stroke:none;fill-rule:nonzero;fill:rgb(63.919067%,61.959839%,89.408875%);fill-opacity:1;" d="M 41.789062 591.789062 C 41.851562 595.613281 41.917969 599.4375 41.980469 603.265625 C 41.992188 603.816406 42.003906 604.363281 42.011719 604.917969 C 42.039062 606.664062 43.53125 608.339844 45.359375 608.261719 C 47.144531 608.179688 48.734375 606.792969 48.703125 604.917969 C 48.636719 601.09375 48.570312 597.269531 48.503906 593.4375 C 48.492188 592.890625 48.488281 592.335938 48.476562 591.789062 C 48.445312 590.042969 46.960938 588.359375 45.132812 588.445312 C 43.339844 588.527344 41.753906 589.914062 41.789062 591.789062 "/>
<path style=" stroke:none;fill-rule:nonzero;fill:rgb(63.919067%,61.959839%,89.408875%);fill-opacity:1;" d="M 96.78125 672.121094 C 96.84375 675.945312 96.910156 679.769531 96.972656 683.59375 C 96.984375 684.148438 96.996094 684.703125 97.003906 685.25 C 97.03125 686.996094 98.523438 688.671875 100.351562 688.589844 C 102.136719 688.511719 103.726562 687.125 103.695312 685.25 C 103.632812 681.425781 103.566406 677.601562 103.496094 673.773438 C 103.492188 673.222656 103.480469 672.671875 103.46875 672.121094 C 103.4375 670.375 101.953125 668.699219 100.125 668.777344 C 98.339844 668.859375 96.746094 670.246094 96.78125 672.121094 "/>
<path style=" stroke:none;fill-rule:nonzero;fill:rgb(63.919067%,61.959839%,89.408875%);fill-opacity:1;" d="M 132.636719 571.652344 C 132.703125 575.476562 132.765625 579.304688 132.832031 583.128906 C 132.84375 583.683594 132.855469 584.230469 132.863281 584.78125 C 132.890625 586.527344 134.378906 588.207031 136.210938 588.125 C 137.996094 588.042969 139.585938 586.652344 139.554688 584.78125 C 139.488281 580.953125 139.417969 577.128906 139.355469 573.300781 C 139.34375 572.753906 139.339844 572.203125 139.328125 571.652344 C 139.296875 569.902344 137.8125 568.226562 135.984375 568.304688 C 134.199219 568.390625 132.605469 569.777344 132.636719 571.652344 "/>
<path style=" stroke:none;fill-rule:nonzero;fill:rgb(63.919067%,61.959839%,89.408875%);fill-opacity:1;" d="M -1.832031 694.699219 C -1.765625 698.523438 -1.703125 702.351562 -1.632812 706.175781 C -1.625 706.726562 -1.617188 707.277344 -1.605469 707.828125 C -1.574219 709.574219 -0.0898438 711.25 1.738281 711.171875 C 3.523438 711.089844 5.117188 709.699219 5.085938 707.828125 C 5.019531 704 4.957031 700.179688 4.886719 696.347656 C 4.878906 695.800781 4.871094 695.246094 4.859375 694.699219 C 4.828125 692.953125 3.34375 691.273438 1.515625 691.359375 C -0.273438 691.433594 -1.863281 692.824219 -1.832031 694.699219 "/>
<path style=" stroke:none;fill-rule:nonzero;fill:rgb(63.919067%,61.959839%,89.408875%);fill-opacity:1;" d="M 172.445312 569.316406 C 172.507812 573.140625 172.574219 576.964844 172.636719 580.792969 C 172.648438 581.34375 172.660156 581.894531 172.671875 582.445312 C 172.695312 584.191406 174.1875 585.867188 176.015625 585.789062 C 177.800781 585.707031 179.390625 584.316406 179.359375 582.445312 C 179.296875 578.621094 179.230469 574.796875 179.160156 570.964844 C 179.15625 570.417969 179.144531 569.863281 179.132812 569.316406 C 179.101562 567.570312 177.617188 565.890625 175.789062 565.976562 C 174.003906 566.054688 172.410156 567.441406 172.445312 569.316406 "/>
<path style=" stroke:none;fill-rule:nonzero;fill:rgb(63.919067%,61.959839%,89.408875%);fill-opacity:1;" d="M 15.035156 602.445312 C 15.101562 606.273438 15.167969 610.101562 15.230469 613.921875 C 15.242188 614.476562 15.25 615.027344 15.257812 615.578125 C 15.292969 617.324219 16.777344 619 18.605469 618.917969 C 20.394531 618.839844 21.988281 617.453125 21.949219 615.578125 C 21.882812 611.75 21.820312 607.925781 21.753906 604.101562 C 21.746094 603.546875 21.734375 603 21.722656 602.445312 C 21.695312 600.699219 20.207031 599.023438 18.378906 599.105469 C 16.59375 599.1875 15 600.578125 15.035156 602.445312 "/>
<path style=" stroke:none;fill-rule:nonzero;fill:rgb(63.919067%,61.959839%,89.408875%);fill-opacity:1;" d="M 97.851562 724.054688 C 97.914062 727.878906 97.984375 731.703125 98.050781 735.535156 C 98.058594 736.082031 98.066406 736.636719 98.074219 737.183594 C 98.109375 738.929688 99.59375 740.605469 101.421875 740.523438 C 103.210938 740.445312 104.796875 739.054688 104.765625 737.183594 C 104.703125 733.359375 104.636719 729.535156 104.566406 725.703125 C 104.5625 725.15625 104.550781 724.601562 104.539062 724.054688 C 104.507812 722.308594 103.023438 720.632812 101.195312 720.710938 C 99.410156 720.792969 97.816406 722.183594 97.851562 724.054688 "/>
<g clip-path="url(#clip23)" clip-rule="nonzero">
<path style=" stroke:none;fill-rule:nonzero;fill:rgb(63.919067%,61.959839%,89.408875%);fill-opacity:1;" d="M 147.160156 521.109375 C 147.222656 524.9375 147.289062 528.761719 147.355469 532.585938 C 147.367188 533.140625 147.375 533.6875 147.382812 534.242188 C 147.417969 535.988281 148.902344 537.664062 150.730469 537.582031 C 152.515625 537.5 154.105469 536.117188 154.074219 534.242188 C 154.007812 530.414062 153.945312 526.585938 153.875 522.761719 C 153.871094 522.210938 153.859375 521.660156 153.847656 521.109375 C 153.820312 519.363281 152.332031 517.683594 150.503906 517.769531 C 148.71875 517.851562 147.125 519.234375 147.160156 521.109375 "/>
</g>
<path style=" stroke:none;fill-rule:nonzero;fill:rgb(63.919067%,61.959839%,89.408875%);fill-opacity:1;" d="M 166.242188 642.082031 C 166.308594 645.910156 166.378906 649.734375 166.441406 653.558594 C 166.449219 654.113281 166.457031 654.660156 166.46875 655.214844 C 166.5 656.960938 167.984375 658.636719 169.816406 658.554688 C 171.601562 658.472656 173.191406 657.082031 173.160156 655.214844 C 173.09375 651.386719 173.03125 647.558594 172.964844 643.734375 C 172.957031 643.183594 172.945312 642.632812 172.933594 642.082031 C 172.90625 640.335938 171.417969 638.65625 169.589844 638.742188 C 167.804688 638.824219 166.210938 640.207031 166.242188 642.082031 "/>
<path style=" stroke:none;fill-rule:nonzero;fill:rgb(63.919067%,61.959839%,89.408875%);fill-opacity:1;" d="M 14.972656 724.726562 C 15.042969 728.554688 15.109375 732.378906 15.171875 736.207031 C 15.183594 736.753906 15.195312 737.308594 15.207031 737.855469 C 15.230469 739.605469 16.722656 741.28125 18.550781 741.203125 C 20.335938 741.121094 21.925781 739.730469 21.894531 737.855469 C 21.832031 734.03125 21.761719 730.203125 21.695312 726.378906 C 21.6875 725.828125 21.675781 725.277344 21.667969 724.726562 C 21.636719 722.980469 20.152344 721.304688 18.324219 721.390625 C 16.535156 721.464844 14.949219 722.855469 14.972656 724.726562 "/>
<path style=" stroke:none;fill-rule:nonzero;fill:rgb(63.919067%,61.959839%,89.408875%);fill-opacity:1;" d="M -1.433594 779.714844 C -1.367188 783.539062 -1.304688 787.367188 -1.234375 791.191406 C -1.230469 791.742188 -1.21875 792.292969 -1.207031 792.84375 C -1.179688 794.589844 0.308594 796.265625 2.136719 796.1875 C 3.921875 796.105469 5.515625 794.714844 5.484375 792.84375 C 5.417969 789.019531 5.347656 785.195312 5.285156 781.363281 C 5.273438 780.816406 5.265625 780.261719 5.257812 779.714844 C 5.222656 777.96875 3.738281 776.292969 1.910156 776.375 C 0.125 776.453125 -1.464844 777.839844 -1.433594 779.714844 "/>
<path style=" stroke:none;fill-rule:nonzero;fill:rgb(63.919067%,61.959839%,89.408875%);fill-opacity:1;" d="M 73.324219 795.289062 C 73.386719 799.121094 73.453125 802.945312 73.515625 806.769531 C 73.527344 807.316406 73.539062 807.871094 73.546875 808.425781 C 73.574219 810.171875 75.066406 811.847656 76.894531 811.765625 C 78.679688 811.6875 80.269531 810.292969 80.238281 808.425781 C 80.167969 804.601562 80.105469 800.769531 80.039062 796.945312 C 80.027344 796.394531 80.019531 795.84375 80.011719 795.289062 C 79.980469 793.542969 78.496094 791.867188 76.667969 791.949219 C 74.882812 792.027344 73.285156 793.421875 73.324219 795.289062 "/>
<path style=" stroke:none;fill-rule:nonzero;fill:rgb(63.919067%,61.959839%,89.408875%);fill-opacity:1;" d="M 130.730469 544.113281 C 130.792969 547.941406 130.859375 551.769531 130.929688 555.59375 C 130.933594 556.144531 130.945312 556.695312 130.957031 557.246094 C 130.988281 558.992188 132.472656 560.667969 134.300781 560.585938 C 136.085938 560.507812 137.675781 559.121094 137.644531 557.246094 C 137.582031 553.421875 137.515625 549.59375 137.445312 545.769531 C 137.433594 545.214844 137.425781 544.667969 137.417969 544.113281 C 137.386719 542.371094 135.902344 540.691406 134.074219 540.773438 C 132.289062 540.855469 130.695312 542.246094 130.730469 544.113281 "/>
<path style=" stroke:none;fill-rule:nonzero;fill:rgb(63.919067%,61.959839%,89.408875%);fill-opacity:1;" d="M 37.640625 673.402344 C 37.707031 677.230469 37.777344 681.054688 37.839844 684.878906 C 37.84375 685.433594 37.855469 685.980469 37.867188 686.535156 C 37.894531 688.28125 39.382812 689.957031 41.210938 689.875 C 42.996094 689.792969 44.589844 688.402344 44.558594 686.535156 C 44.492188 682.707031 44.429688 678.878906 44.359375 675.054688 C 44.351562 674.503906 44.34375 673.953125 44.332031 673.402344 C 44.304688 671.65625 42.816406 669.976562 40.984375 670.0625 C 39.199219 670.136719 37.609375 671.527344 37.640625 673.402344 "/>
<path style=" stroke:none;fill-rule:nonzero;fill:rgb(63.919067%,61.959839%,89.408875%);fill-opacity:1;" d="M 38.761719 636.210938 C 38.824219 640.035156 38.890625 643.863281 38.957031 647.691406 C 38.964844 648.242188 38.976562 648.792969 38.984375 649.339844 C 39.011719 651.085938 40.503906 652.765625 42.332031 652.683594 C 44.117188 652.601562 45.707031 651.214844 45.675781 649.339844 C 45.609375 645.515625 45.542969 641.691406 45.476562 637.867188 C 45.464844 637.3125 45.460938 636.765625 45.449219 636.210938 C 45.417969 634.464844 43.933594 632.789062 42.105469 632.871094 C 40.3125 632.949219 38.726562 634.34375 38.761719 636.210938 "/>
<path style=" stroke:none;fill-rule:nonzero;fill:rgb(63.919067%,61.959839%,89.408875%);fill-opacity:1;" d="M 76.332031 650.550781 C 76.398438 654.375 76.46875 658.199219 76.53125 662.027344 C 76.542969 662.574219 76.550781 663.125 76.558594 663.679688 C 76.59375 665.425781 78.078125 667.101562 79.90625 667.023438 C 81.695312 666.941406 83.28125 665.550781 83.25 663.679688 C 83.183594 659.851562 83.121094 656.023438 83.050781 652.199219 C 83.046875 651.652344 83.035156 651.097656 83.023438 650.550781 C 82.992188 648.800781 81.507812 647.121094 79.679688 647.203125 C 77.894531 647.285156 76.300781 648.675781 76.332031 650.550781 "/>
<g clip-path="url(#clip24)" clip-rule="nonzero">
<path style=" stroke:none;fill-rule:nonzero;fill:rgb(63.919067%,61.959839%,89.408875%);fill-opacity:1;" d="M 174.480469 604.484375 C 174.550781 608.308594 174.617188 612.132812 174.679688 615.964844 C 174.691406 616.511719 174.703125 617.066406 174.707031 617.613281 C 174.742188 619.359375 176.230469 621.039062 178.058594 620.953125 C 179.84375 620.878906 181.4375 619.488281 181.402344 617.613281 C 181.339844 613.789062 181.269531 609.964844 181.203125 606.136719 C 181.195312 605.585938 181.183594 605.035156 181.175781 604.484375 C 181.144531 602.738281 179.65625 601.0625 177.832031 601.140625 C 176.042969 601.222656 174.457031 602.613281 174.480469 604.484375 "/>
</g>
<path style=" stroke:none;fill-rule:nonzero;fill:rgb(63.919067%,61.959839%,89.408875%);fill-opacity:1;" d="M 91 787.457031 C 91.0625 791.28125 91.128906 795.105469 91.191406 798.933594 C 91.203125 799.484375 91.214844 800.035156 91.226562 800.585938 C 91.25 802.332031 92.742188 804.007812 94.570312 803.929688 C 96.355469 803.847656 97.945312 802.460938 97.914062 800.585938 C 97.851562 796.761719 97.78125 792.9375 97.714844 789.105469 C 97.710938 788.558594 97.699219 788.003906 97.6875 787.457031 C 97.65625 785.710938 96.171875 784.035156 94.34375 784.117188 C 92.558594 784.195312 90.964844 785.582031 91 787.457031 "/>
<path style=" stroke:none;fill-rule:nonzero;fill:rgb(63.919067%,61.959839%,89.408875%);fill-opacity:1;" d="M 112.878906 695.914062 C 112.945312 699.738281 113.011719 703.5625 113.078125 707.390625 C 113.085938 707.941406 113.097656 708.488281 113.105469 709.042969 C 113.140625 710.789062 114.625 712.464844 116.453125 712.386719 C 118.238281 712.304688 119.828125 710.914062 119.796875 709.042969 C 119.730469 705.21875 119.667969 701.394531 119.597656 697.5625 C 119.585938 697.015625 119.582031 696.460938 119.570312 695.914062 C 119.539062 694.167969 118.054688 692.484375 116.226562 692.570312 C 114.433594 692.652344 112.847656 694.039062 112.878906 695.914062 "/>
<g clip-path="url(#clip25)" clip-rule="nonzero">
<path style=" stroke:none;fill-rule:nonzero;fill:rgb(63.919067%,61.959839%,89.408875%);fill-opacity:1;" d="M 57.664062 812.734375 C 57.730469 816.558594 57.796875 820.382812 57.863281 824.207031 C 57.871094 824.761719 57.882812 825.308594 57.894531 825.859375 C 57.921875 827.609375 59.40625 829.285156 61.238281 829.199219 C 63.023438 829.125 64.617188 827.734375 64.578125 825.859375 C 64.511719 822.03125 64.449219 818.207031 64.382812 814.382812 C 64.375 813.828125 64.363281 813.28125 64.351562 812.734375 C 64.324219 810.980469 62.839844 809.304688 61.007812 809.386719 C 59.222656 809.46875 57.628906 810.859375 57.664062 812.734375 "/>
</g>
<path style=" stroke:none;fill-rule:nonzero;fill:rgb(63.919067%,61.959839%,89.408875%);fill-opacity:1;" d="M 65.394531 624.015625 C 65.464844 627.839844 65.53125 631.667969 65.59375 635.496094 C 65.605469 636.046875 65.617188 636.59375 65.625 637.148438 C 65.652344 638.890625 67.144531 640.570312 68.972656 640.488281 C 70.757812 640.40625 72.347656 639.015625 72.3125 637.148438 C 72.246094 633.320312 72.183594 629.496094 72.117188 625.667969 C 72.105469 625.117188 72.097656 624.566406 72.085938 624.015625 C 72.058594 622.269531 70.570312 620.59375 68.746094 620.675781 C 66.957031 620.753906 65.363281 622.148438 65.394531 624.015625 "/>
<path style=" stroke:none;fill-rule:nonzero;fill:rgb(63.919067%,61.959839%,89.408875%);fill-opacity:1;" d="M 46.785156 706.851562 C 46.847656 710.675781 46.917969 714.5 46.980469 718.332031 C 46.992188 718.878906 47.003906 719.433594 47.007812 719.980469 C 47.042969 721.734375 48.527344 723.402344 50.355469 723.328125 C 52.140625 723.242188 53.730469 721.855469 53.703125 719.980469 C 53.632812 716.15625 53.570312 712.332031 53.503906 708.507812 C 53.496094 707.953125 53.484375 707.40625 53.472656 706.851562 C 53.445312 705.105469 51.957031 703.429688 50.128906 703.511719 C 48.34375 703.589844 46.75 704.980469 46.785156 706.851562 "/>
<path style=" stroke:none;fill-rule:nonzero;fill:rgb(63.919067%,61.959839%,89.408875%);fill-opacity:1;" d="M 80.691406 706.226562 C 80.753906 710.054688 80.820312 713.878906 80.890625 717.707031 C 80.894531 718.257812 80.90625 718.808594 80.914062 719.359375 C 80.941406 721.105469 82.433594 722.78125 84.261719 722.699219 C 86.046875 722.621094 87.636719 721.234375 87.605469 719.359375 C 87.539062 715.53125 87.472656 711.707031 87.40625 707.878906 C 87.394531 707.328125 87.390625 706.78125 87.378906 706.226562 C 87.347656 704.480469 85.863281 702.804688 84.035156 702.886719 C 82.242188 702.96875 80.65625 704.351562 80.691406 706.226562 "/>
<path style=" stroke:none;fill-rule:nonzero;fill:rgb(63.919067%,61.959839%,89.408875%);fill-opacity:1;" d="M 64.53125 672.921875 C 64.59375 676.75 64.660156 680.574219 64.730469 684.402344 C 64.734375 684.949219 64.746094 685.503906 64.753906 686.050781 C 64.789062 687.800781 66.273438 689.476562 68.101562 689.390625 C 69.886719 689.3125 71.476562 687.925781 71.445312 686.050781 C 71.382812 682.226562 71.316406 678.398438 71.246094 674.574219 C 71.234375 674.023438 71.230469 673.472656 71.21875 672.921875 C 71.1875 671.175781 69.703125 669.5 67.875 669.578125 C 66.089844 669.660156 64.496094 671.050781 64.53125 672.921875 "/>
<path style=" stroke:none;fill-rule:nonzero;fill:rgb(63.919067%,61.959839%,89.408875%);fill-opacity:1;" d="M 92.285156 611.972656 C 92.347656 615.800781 92.417969 619.628906 92.484375 623.453125 C 92.492188 624.007812 92.5 624.554688 92.511719 625.105469 C 92.542969 626.851562 94.027344 628.53125 95.855469 628.449219 C 97.644531 628.367188 99.230469 626.976562 99.199219 625.105469 C 99.136719 621.28125 99.070312 617.453125 99 613.625 C 98.996094 613.078125 98.984375 612.527344 98.972656 611.972656 C 98.941406 610.226562 97.457031 608.550781 95.628906 608.628906 C 93.84375 608.714844 92.25 610.101562 92.285156 611.972656 "/>
<path style=" stroke:none;fill-rule:nonzero;fill:rgb(63.919067%,61.959839%,89.408875%);fill-opacity:1;" d="M 10.414062 573.449219 C 10.484375 577.273438 10.546875 581.101562 10.613281 584.921875 C 10.625 585.476562 10.632812 586.03125 10.640625 586.578125 C 10.671875 588.324219 12.15625 590 13.988281 589.917969 C 15.777344 589.839844 17.367188 588.453125 17.335938 586.578125 C 17.265625 582.753906 17.199219 578.925781 17.136719 575.101562 C 17.125 574.550781 17.113281 574 17.109375 573.449219 C 17.078125 571.703125 15.585938 570.027344 13.757812 570.105469 C 11.972656 570.1875 10.382812 571.574219 10.414062 573.449219 "/>
<path style=" stroke:none;fill-rule:nonzero;fill:rgb(63.919067%,61.959839%,89.408875%);fill-opacity:1;" d="M 75.582031 558.3125 C 75.652344 562.140625 75.714844 565.964844 75.78125 569.789062 C 75.789062 570.34375 75.800781 570.894531 75.808594 571.445312 C 75.839844 573.191406 77.328125 574.867188 79.15625 574.785156 C 80.941406 574.703125 82.535156 573.320312 82.503906 571.445312 C 82.4375 567.617188 82.367188 563.792969 82.304688 559.96875 C 82.292969 559.414062 82.285156 558.867188 82.277344 558.3125 C 82.242188 556.566406 80.753906 554.890625 78.925781 554.972656 C 77.140625 555.054688 75.554688 556.4375 75.582031 558.3125 "/>
<path style=" stroke:none;fill-rule:nonzero;fill:rgb(63.919067%,61.959839%,89.408875%);fill-opacity:1;" d="M 126.332031 616.28125 C 126.394531 620.105469 126.460938 623.929688 126.523438 627.761719 C 126.535156 628.308594 126.546875 628.855469 126.554688 629.410156 C 126.582031 631.15625 128.074219 632.832031 129.902344 632.753906 C 131.6875 632.671875 133.277344 631.28125 133.246094 629.410156 C 133.179688 625.585938 133.113281 621.761719 133.046875 617.929688 C 133.042969 617.382812 133.03125 616.828125 133.019531 616.28125 C 132.988281 614.535156 131.503906 612.859375 129.675781 612.9375 C 127.890625 613.019531 126.296875 614.40625 126.332031 616.28125 "/>
<path style=" stroke:none;fill-rule:nonzero;fill:rgb(63.919067%,61.959839%,89.408875%);fill-opacity:1;" d="M 10.671875 639.171875 C 10.742188 642.996094 10.804688 646.820312 10.871094 650.648438 C 10.882812 651.199219 10.890625 651.753906 10.902344 652.300781 C 10.929688 654.046875 12.417969 655.722656 14.25 655.644531 C 16.035156 655.5625 17.625 654.175781 17.59375 652.300781 C 17.523438 648.476562 17.457031 644.652344 17.394531 640.828125 C 17.382812 640.273438 17.371094 639.726562 17.367188 639.171875 C 17.335938 637.425781 15.84375 635.75 14.015625 635.832031 C 12.230469 635.910156 10.640625 637.296875 10.671875 639.171875 "/>
<path style=" stroke:none;fill-rule:nonzero;fill:rgb(63.919067%,61.959839%,89.408875%);fill-opacity:1;" d="M 149.964844 592.75 C 150.03125 596.574219 150.09375 600.40625 150.160156 604.230469 C 150.167969 604.777344 150.179688 605.332031 150.191406 605.878906 C 150.21875 607.632812 151.707031 609.308594 153.535156 609.222656 C 155.320312 609.140625 156.914062 607.753906 156.882812 605.878906 C 156.8125 602.054688 156.746094 598.230469 156.683594 594.40625 C 156.671875 593.851562 156.667969 593.304688 156.65625 592.75 C 156.621094 591.003906 155.140625 589.328125 153.308594 589.410156 C 151.519531 589.488281 149.929688 590.878906 149.964844 592.75 "/>
<path style=" stroke:none;fill-rule:nonzero;fill:rgb(63.919067%,61.959839%,89.408875%);fill-opacity:1;" d="M 5.859375 663.949219 C 5.921875 667.773438 5.988281 671.605469 6.050781 675.429688 C 6.0625 675.976562 6.074219 676.53125 6.085938 677.078125 C 6.113281 678.824219 7.601562 680.5 9.429688 680.421875 C 11.214844 680.34375 12.808594 678.953125 12.773438 677.078125 C 12.710938 673.253906 12.640625 669.429688 12.574219 665.601562 C 12.566406 665.050781 12.554688 664.503906 12.550781 663.949219 C 12.515625 662.203125 11.03125 660.527344 9.203125 660.605469 C 7.414062 660.6875 5.828125 662.078125 5.859375 663.949219 "/>
<path style=" stroke:none;fill-rule:nonzero;fill:rgb(63.919067%,61.959839%,89.408875%);fill-opacity:1;" d="M 134.46875 642.492188 C 134.535156 646.324219 134.601562 650.148438 134.664062 653.972656 C 134.675781 654.519531 134.6875 655.074219 134.699219 655.621094 C 134.726562 657.375 136.210938 659.050781 138.042969 658.964844 C 139.828125 658.886719 141.421875 657.496094 141.382812 655.621094 C 141.316406 651.796875 141.253906 647.972656 141.1875 644.148438 C 141.179688 643.59375 141.167969 643.046875 141.15625 642.492188 C 141.128906 640.746094 139.644531 639.070312 137.816406 639.152344 C 136.027344 639.230469 134.433594 640.621094 134.46875 642.492188 "/>
<path style=" stroke:none;fill-rule:nonzero;fill:rgb(63.919067%,61.959839%,89.408875%);fill-opacity:1;" d="M 52.527344 780.195312 C 52.589844 784.019531 52.660156 787.84375 52.726562 791.667969 C 52.738281 792.222656 52.746094 792.777344 52.753906 793.324219 C 52.785156 795.070312 54.269531 796.746094 56.097656 796.664062 C 57.886719 796.585938 59.476562 795.199219 59.441406 793.324219 C 59.378906 789.5 59.3125 785.671875 59.242188 781.847656 C 59.238281 781.296875 59.226562 780.746094 59.214844 780.195312 C 59.191406 778.449219 57.699219 776.773438 55.871094 776.851562 C 54.085938 776.933594 52.496094 778.324219 52.527344 780.195312 "/>
<path style=" stroke:none;fill-rule:nonzero;fill:rgb(63.919067%,61.959839%,89.408875%);fill-opacity:1;" d="M 65.464844 745.496094 C 65.535156 749.320312 65.601562 753.144531 65.664062 756.976562 C 65.675781 757.523438 65.6875 758.074219 65.695312 758.625 C 65.722656 760.371094 67.207031 762.046875 69.035156 761.964844 C 70.828125 761.890625 72.417969 760.5 72.382812 758.625 C 72.316406 754.800781 72.253906 750.972656 72.1875 747.148438 C 72.175781 746.59375 72.167969 746.046875 72.15625 745.496094 C 72.128906 743.75 70.640625 742.070312 68.808594 742.152344 C 67.023438 742.234375 65.433594 743.625 65.464844 745.496094 "/>
<path style=" stroke:none;fill-rule:nonzero;fill:rgb(63.919067%,61.959839%,89.408875%);fill-opacity:1;" d="M 28.863281 807.96875 C 28.929688 811.792969 28.992188 815.617188 29.0625 819.441406 C 29.070312 819.992188 29.078125 820.542969 29.089844 821.097656 C 29.121094 822.84375 30.605469 824.519531 32.4375 824.433594 C 34.222656 824.359375 35.8125 822.96875 35.78125 821.097656 C 35.714844 817.265625 35.652344 813.441406 35.582031 809.617188 C 35.578125 809.070312 35.566406 808.515625 35.554688 807.96875 C 35.527344 806.21875 34.039062 804.539062 32.210938 804.625 C 30.425781 804.703125 28.832031 806.09375 28.863281 807.96875 "/>
<path style=" stroke:none;fill-rule:nonzero;fill:rgb(63.919067%,61.959839%,89.408875%);fill-opacity:1;" d="M 108.386719 583.097656 C 108.449219 586.921875 108.519531 590.75 108.582031 594.578125 C 108.59375 595.125 108.605469 595.679688 108.617188 596.226562 C 108.644531 597.972656 110.128906 599.648438 111.957031 599.566406 C 113.746094 599.492188 115.332031 598.101562 115.304688 596.226562 C 115.234375 592.402344 115.171875 588.574219 115.105469 584.75 C 115.097656 584.199219 115.085938 583.648438 115.082031 583.097656 C 115.046875 581.351562 113.558594 579.675781 111.730469 579.753906 C 109.945312 579.835938 108.351562 581.226562 108.386719 583.097656 "/>
<path style=" stroke:none;fill-rule:nonzero;fill:rgb(63.919067%,61.959839%,89.408875%);fill-opacity:1;" d="M 73.714844 584.691406 C 73.78125 588.515625 73.84375 592.347656 73.910156 596.171875 C 73.917969 596.71875 73.929688 597.273438 73.933594 597.820312 C 73.96875 599.574219 75.457031 601.25 77.285156 601.164062 C 79.070312 601.082031 80.664062 599.695312 80.628906 597.820312 C 80.566406 593.996094 80.496094 590.171875 80.433594 586.347656 C 80.421875 585.792969 80.410156 585.246094 80.398438 584.691406 C 80.371094 582.945312 78.886719 581.269531 77.058594 581.351562 C 75.269531 581.429688 73.683594 582.824219 73.714844 584.691406 "/>
<path style=" stroke:none;fill-rule:nonzero;fill:rgb(63.919067%,61.959839%,89.408875%);fill-opacity:1;" d="M 92.859375 751.929688 C 92.925781 755.753906 92.992188 759.582031 93.058594 763.40625 C 93.070312 763.957031 93.074219 764.507812 93.085938 765.058594 C 93.117188 766.804688 94.605469 768.480469 96.429688 768.402344 C 98.222656 768.320312 99.808594 766.929688 99.78125 765.058594 C 99.710938 761.234375 99.644531 757.40625 99.578125 753.578125 C 99.570312 753.03125 99.558594 752.476562 99.550781 751.929688 C 99.523438 750.183594 98.03125 748.503906 96.203125 748.589844 C 94.417969 748.667969 92.828125 750.054688 92.859375 751.929688 "/>
<g clip-path="url(#clip26)" clip-rule="nonzero">
<path style=" stroke:none;fill-rule:nonzero;fill:rgb(93.728638%,43.139648%,17.649841%);fill-opacity:1;" d="M -1.511719 572.296875 C -1.078125 571.910156 -0.6875 571.519531 -1.125 571.957031 C -1.902344 569.824219 -3.015625 568.222656 -2.871094 566.722656 C -2.628906 564.539062 -1.902344 562.40625 -0.785156 560.515625 C 2.171875 555.28125 5.226562 550.09375 8.523438 545.003906 C 10.367188 542.335938 12.402344 539.769531 14.632812 537.441406 C 15.019531 537.003906 16.234375 537.390625 16.28125 536.519531 C 17.929688 534.628906 19.722656 532.835938 21.226562 530.847656 C 22.875 528.761719 24.234375 526.4375 25.734375 524.253906 C 29.082031 519.503906 32.378906 514.703125 35.871094 510.097656 C 38.535156 506.558594 38.292969 505.6875 34.464844 503.359375 C 28.207031 499.53125 22.246094 495.3125 16.039062 491.433594 C 10.269531 487.800781 4.160156 484.648438 -1.464844 480.820312 C -8.835938 475.824219 -15.863281 470.394531 -22.894531 464.964844 C -23.621094 464.386719 -23.332031 462.496094 -23.523438 460.847656 L -26.726562 461.765625 C -28.132812 459.683594 -29.730469 457.792969 -30.75 455.609375 C -31.378906 454.300781 -31.671875 452.167969 -31.039062 451.152344 C -30.214844 449.9375 -28.226562 448.773438 -26.773438 448.824219 C -24.253906 448.871094 -21.78125 448.773438 -20.472656 452.554688 C -19.695312 454.785156 -15.769531 456.046875 -13.148438 457.550781 C -3.402344 463.171875 6.390625 468.601562 16.085938 474.226562 C 20.644531 476.84375 25.105469 479.65625 29.421875 482.710938 C 31.070312 483.921875 31.992188 486.152344 33.589844 487.363281 L 38.292969 491.53125 L 41.882812 490.757812 L 41.882812 483.96875 L 41.589844 484.210938 C 40.71875 481.207031 39.503906 478.199219 39.070312 475.097656 C 38.292969 469.570312 38.003906 463.949219 37.46875 458.324219 C 36.839844 451.34375 36.0625 444.363281 35.625 437.382812 C 35.09375 428.996094 34.753906 420.609375 34.511719 412.175781 C 34.414062 409.605469 34.414062 406.746094 37.855469 405.871094 C 41.398438 405 42.558594 407.667969 43.53125 410.042969 C 46.828125 418.378906 47.941406 427.152344 48.667969 436.027344 C 49.15625 442.085938 50.269531 448.097656 51.046875 454.15625 C 51.53125 457.9375 51.722656 461.71875 52.257812 465.453125 C 53.082031 471.460938 54.050781 477.523438 54.972656 483.535156 L 56.136719 483.824219 C 57.398438 482.417969 58.804688 481.109375 59.820312 479.511719 C 65.785156 470.300781 71.992188 461.332031 79.457031 453.1875 C 83.578125 448.679688 86.148438 442.8125 89.589844 437.675781 C 91.917969 434.230469 94.101562 430.449219 97.203125 427.785156 C 99.289062 425.992188 103.214844 424.585938 105.542969 425.3125 C 109.179688 426.476562 108.695312 430.886719 107.726562 433.84375 C 106.171875 438.496094 103.894531 443.007812 101.519531 447.320312 C 99.433594 451.054688 96.863281 454.542969 94.34375 458.035156 C 85.421875 470.203125 76.453125 482.371094 67.433594 494.539062 C 65.882812 496.621094 64.28125 498.753906 62.632812 500.792969 C 61.179688 502.585938 61.953125 503.699219 63.652344 504.425781 C 67.335938 506.074219 71.214844 507.382812 74.804688 509.226562 C 77.226562 510.4375 79.167969 512.523438 81.542969 513.832031 C 84.210938 515.285156 87.070312 516.402344 89.882812 517.613281 C 98.414062 521.296875 107.289062 524.304688 115.335938 528.8125 C 119.894531 531.382812 124.886719 531.960938 129.398438 534.289062 C 134.101562 536.714844 139.289062 538.167969 144.089844 540.398438 C 149.472656 542.96875 154.851562 545.632812 159.75 548.929688 C 161.203125 549.898438 162.175781 553.339844 161.6875 555.230469 C 160.769531 558.722656 156.648438 560.566406 153.785156 559.351562 C 146.125 556.054688 138.5625 552.515625 130.851562 549.316406 C 127.894531 548.105469 124.5 547.863281 121.542969 546.652344 C 116.695312 544.710938 112.089844 542.289062 107.335938 540.058594 C 106.367188 539.621094 105.347656 539.378906 104.378906 538.945312 C 97.105469 535.792969 89.785156 532.738281 82.609375 529.34375 C 76.453125 526.4375 70.441406 523.089844 64.332031 520.039062 C 63.457031 519.601562 62.292969 519.746094 60.304688 519.550781 C 61.179688 522.605469 62.777344 525.175781 62.4375 527.503906 C 61.710938 532.15625 63.796875 536.082031 64.621094 540.300781 C 65.980469 547.039062 67.480469 553.777344 68.742188 560.515625 C 69.761719 566.089844 70.875 571.664062 71.265625 577.242188 C 71.652344 582.816406 68.886719 586.5 64.621094 586.304688 C 62.292969 586.113281 60.160156 585.09375 58.609375 583.398438 C 57.058594 581.554688 56.332031 578.792969 55.75 576.320312 C 53.761719 567.59375 51.871094 558.867188 50.222656 550.09375 C 48.863281 542.917969 47.992188 535.648438 46.828125 528.425781 C 46.585938 526.777344 46.101562 525.222656 45.519531 522.558594 C 43.046875 525.855469 41.25 528.425781 39.3125 530.800781 C 35.09375 536.082031 31.070312 541.511719 26.414062 546.410156 C 21.421875 551.644531 18.511719 558.140625 14.777344 564.101562 C 13.953125 565.460938 13.226562 566.867188 12.402344 568.175781 C 8.960938 574.042969 4.9375 575.203125 -1.511719 572.296875 Z M -1.511719 572.296875 "/>
</g>
<g clip-path="url(#clip27)" clip-rule="nonzero">
<path style=" stroke:none;fill-rule:nonzero;fill:rgb(93.728638%,43.139648%,17.649841%);fill-opacity:1;" d="M 1342.84375 241.910156 C 1343.621094 251.164062 1343.449219 260.660156 1345.441406 269.679688 C 1348.242188 282.382812 1355.164062 293.394531 1363.9375 302.921875 C 1366.433594 305.625 1370.722656 306.738281 1374.367188 308.226562 C 1377 309.308594 1379.902344 309.78125 1380.238281 313.328125 C 1380.574219 316.875 1378.144531 318.125 1375.378906 319.238281 C 1366.976562 322.617188 1360.867188 328.699219 1356.277344 336.300781 C 1346.152344 353.023438 1339.132812 370.996094 1334.878906 390.050781 C 1334.203125 393.023438 1334 396.132812 1333.597656 399.171875 C 1333.15625 402.550781 1331.910156 405.253906 1327.992188 405.183594 C 1324.078125 405.117188 1323.066406 402.3125 1322.457031 399.035156 C 1319.894531 385.386719 1318.171875 371.535156 1314.292969 358.261719 C 1311.1875 347.617188 1305.71875 337.617188 1300.824219 327.550781 C 1297.988281 321.707031 1292.625 318.226562 1287.089844 315.015625 C 1279.765625 310.828125 1279.324219 306.265625 1286.109375 301.132812 C 1297.214844 292.71875 1308.082031 284.207031 1317.429688 273.734375 C 1324.214844 266.164062 1328.636719 257.550781 1332.144531 248.226562 C 1333.460938 244.710938 1334.609375 241.132812 1336.398438 237.855469 C 1337.242188 236.300781 1339.402344 235.457031 1340.953125 234.273438 C 1341.933594 236.097656 1342.980469 237.886719 1343.824219 239.78125 C 1344.058594 240.320312 1343.789062 241.097656 1343.753906 241.773438 Z M 1328.769531 372.785156 C 1337.140625 351.535156 1344.125 330.589844 1361.40625 315.894531 C 1347.027344 302.484375 1338.117188 286.265625 1334.878906 266.367188 C 1324.382812 282.886719 1310.882812 295.929688 1295.019531 306.605469 C 1316.6875 323.394531 1322.761719 347.515625 1328.769531 372.785156 Z M 1328.769531 372.785156 "/>
</g>
<g clip-path="url(#clip28)" clip-rule="nonzero">
<g clip-path="url(#clip29)" clip-rule="nonzero">
<g clip-path="url(#clip30)" clip-rule="nonzero">
<path style=" stroke:none;fill-rule:nonzero;fill:rgb(17.248535%,18.818665%,45.878601%);fill-opacity:1;" d="M 344.152344 762.109375 C 336.152344 725.992188 309.039062 706.332031 280.972656 709.804688 C 252.902344 713.277344 241.183594 721.105469 231.910156 741.015625 C 229.355469 746.648438 227.667969 752.574219 226.753906 758.679688 C 214.449219 739.445312 194.578125 730.292969 174.054688 732.839844 C 145.988281 736.316406 134.003906 742.851562 124.730469 762.761719 C 122.175781 768.394531 120.4375 774.398438 119.539062 780.566406 C 107.21875 761.269531 87.332031 752.050781 66.808594 754.597656 C 38.808594 758.058594 26.746094 764.542969 17.488281 784.519531 C 8.230469 804.496094 12.023438 829.492188 12.023438 829.492188 L 22.355469 827.398438 C 22.355469 827.398438 20.332031 807.152344 25.03125 792.207031 C 29.726562 777.257812 42.675781 773.824219 52.488281 770.152344 C 62.296875 766.480469 66.027344 765.992188 85.601562 769.355469 C 105.171875 772.71875 115.976562 808.402344 115.976562 808.402344 L 129.792969 805.601562 C 129.738281 805.339844 129.699219 805.148438 129.582031 804.902344 C 129.300781 801.191406 128.113281 783.738281 132.324219 770.371094 C 137.023438 755.425781 144.746094 753.386719 159.992188 749.6875 C 173.1875 746.472656 173.273438 744.234375 192.84375 747.597656 C 212.417969 750.960938 223.140625 786.59375 223.140625 786.59375 L 236.957031 783.789062 C 236.867188 783.339844 236.722656 782.964844 236.632812 782.511719 C 236.269531 777.742188 235.421875 761.296875 239.375 748.652344 C 244.074219 733.707031 256.539062 728.550781 266.847656 726.664062 C 280.25 724.144531 285.953125 720.769531 304.871094 726.886719 C 324.582031 733.25 330.320312 764.847656 330.320312 764.847656 Z M 344.152344 762.109375 "/>
</g>
</g>
</g>
<g clip-path="url(#clip31)" clip-rule="nonzero">
<path style=" stroke:none;fill-rule:nonzero;fill:rgb(93.728638%,43.139648%,17.649841%);fill-opacity:1;" d="M 1111.5 66.929688 C 1113.113281 67.003906 1114.691406 66.71875 1116.253906 66.378906 C 1118.320312 66.710938 1120.363281 67.269531 1122.476562 67 C 1123.996094 67.621094 1125.429688 68.441406 1126.898438 69.199219 C 1128.261719 69.515625 1129.664062 69.808594 1130.929688 70.445312 C 1132.457031 72.085938 1133.886719 73.828125 1135.253906 75.605469 C 1137.042969 80.707031 1138.003906 86.054688 1139.882812 91.128906 C 1141.753906 95.640625 1144.335938 99.882812 1147.542969 103.578125 C 1148.976562 104.9375 1150.503906 106.386719 1152.441406 106.984375 C 1154.082031 105.773438 1155.441406 104.269531 1156.617188 102.609375 C 1157.066406 102.609375 1157.964844 102.609375 1158.414062 102.609375 C 1163.980469 94.679688 1170.835938 87.46875 1179.207031 82.429688 C 1180.652344 81.703125 1182.175781 80.953125 1183.847656 81.007812 C 1185.824219 81.007812 1187.753906 80.222656 1189.742188 80.601562 C 1192.527344 81.128906 1195.511719 80.984375 1198.058594 82.417969 C 1199.425781 82.9375 1200.472656 83.992188 1201.675781 84.804688 C 1204.167969 86.367188 1207.203125 87.117188 1209.234375 89.363281 C 1213.628906 93.261719 1215.832031 98.835938 1219.421875 103.378906 C 1220.933594 105.296875 1222.273438 107.40625 1224.167969 108.992188 C 1227.46875 107.582031 1229.011719 104.097656 1232.042969 102.324219 C 1232.796875 101.894531 1233.148438 101.085938 1233.613281 100.40625 C 1236.78125 96.222656 1240.300781 92.28125 1244.476562 89.070312 C 1244.652344 88.871094 1244.988281 88.460938 1245.160156 88.261719 C 1249.925781 85.296875 1254.273438 80.886719 1260.199219 80.570312 C 1262.761719 80.839844 1265.289062 81.496094 1267.703125 82.410156 C 1269.625 83.367188 1271.859375 83.386719 1273.773438 84.394531 C 1275.679688 85.398438 1277.953125 85.640625 1279.683594 87 C 1281.378906 88.132812 1283.039062 89.332031 1284.589844 90.671875 C 1286.027344 92.28125 1287.441406 93.910156 1288.886719 95.519531 C 1292.777344 100.082031 1294.351562 106.179688 1298.261719 110.699219 C 1301.039062 110.148438 1302.699219 107.640625 1304.894531 106.074219 C 1305.890625 105.75 1306.886719 105.296875 1307.546875 104.453125 C 1309.304688 102.222656 1311.660156 100.574219 1313.460938 98.382812 C 1315.445312 96.003906 1318.070312 94.308594 1320.285156 92.164062 C 1322.933594 89.546875 1326.347656 87.96875 1329.539062 86.132812 C 1332.644531 84.582031 1336.460938 83.148438 1339.847656 84.632812 C 1341.257812 85.78125 1342.992188 86.179688 1344.722656 86.617188 C 1348.324219 88.792969 1352.4375 90.191406 1355.609375 93.027344 C 1357.894531 95.652344 1360.324219 98.296875 1361.664062 101.5625 C 1364.304688 107.707031 1365.375 114.351562 1367.476562 120.671875 C 1367.820312 120.703125 1368.507812 120.753906 1368.855469 120.785156 C 1370.824219 119.492188 1372.171875 117.414062 1374.390625 116.492188 C 1377.625 115.15625 1379.34375 111.980469 1381.726562 109.628906 C 1385.011719 106.234375 1388.148438 102.695312 1391.144531 99.042969 C 1394.148438 96.421875 1396.496094 93.132812 1399.703125 90.722656 C 1403.9375 87.125 1408.671875 84.125 1413.734375 81.800781 C 1417.941406 79.230469 1423.769531 79.277344 1427.808594 82.179688 C 1429.175781 82.925781 1430.777344 83.21875 1432.019531 84.242188 C 1432.289062 84.101562 1432.835938 83.808594 1433.109375 83.664062 C 1433.046875 83.964844 1432.925781 84.570312 1432.863281 84.871094 C 1434.21875 85.886719 1435.683594 86.765625 1437.269531 87.425781 C 1442.117188 90.164062 1446.328125 94.019531 1449.398438 98.675781 C 1455.667969 106.917969 1460.699219 115.960938 1465.761719 124.949219 C 1468.453125 128.445312 1469.867188 132.644531 1471.660156 136.632812 C 1472.09375 137.664062 1472.105469 138.816406 1472.25 139.929688 C 1471.855469 141.464844 1470.859375 142.675781 1469.644531 143.648438 C 1467.121094 143.429688 1465.402344 141.089844 1462.855469 141.144531 C 1458.214844 135.390625 1454.304688 129.085938 1449.757812 123.269531 C 1446.363281 118.152344 1443.117188 112.9375 1439.761719 107.789062 C 1437.445312 103.96875 1434.664062 100.347656 1431.105469 97.613281 C 1428.84375 96.277344 1426.484375 97.957031 1424.476562 98.945312 C 1420.949219 100.46875 1418.136719 103.128906 1415.234375 105.5625 C 1411.066406 109.324219 1408.003906 114.101562 1403.972656 118 C 1402.425781 119.753906 1400.941406 121.566406 1399.320312 123.257812 C 1396.199219 127.792969 1392.152344 131.652344 1388.050781 135.324219 C 1385.867188 137.433594 1382.929688 138.386719 1380.328125 139.851562 C 1378.078125 141.078125 1375.488281 140.320312 1373.078125 140.425781 C 1368.207031 138.882812 1363.277344 136.855469 1359.691406 133.097656 C 1355.652344 129.929688 1352.972656 125.457031 1350.871094 120.859375 C 1347.121094 115.210938 1346.34375 108.339844 1343.882812 102.15625 C 1342.980469 101 1341.726562 102.550781 1340.875 102.996094 C 1332.21875 108.820312 1326.820312 118.054688 1318.828125 124.609375 C 1315.898438 128.144531 1310.769531 129.027344 1306.417969 128.496094 C 1304.269531 128.109375 1301.976562 128.75 1299.921875 127.890625 C 1290.492188 123.679688 1283.707031 115.34375 1278.792969 106.53125 C 1276.949219 103.761719 1275.46875 100.777344 1273.707031 97.964844 C 1273.078125 97.605469 1272.46875 97.25 1271.863281 96.886719 C 1266.621094 98.730469 1262.726562 102.855469 1258.425781 106.167969 C 1255.574219 109.421875 1252.617188 112.664062 1250.488281 116.453125 C 1249.425781 118.175781 1248.296875 119.910156 1246.613281 121.097656 C 1244.503906 124.960938 1240.019531 126.113281 1236.070312 127.109375 C 1234.015625 126.613281 1231.910156 126.898438 1229.832031 126.78125 C 1222.464844 124.515625 1216.445312 119.480469 1211.019531 114.222656 C 1207.835938 110.484375 1204.632812 106.757812 1201.816406 102.75 C 1199.871094 100.636719 1198.882812 97.746094 1196.480469 96.070312 C 1191.910156 98.675781 1188.164062 102.46875 1184.6875 106.367188 C 1180.742188 109.800781 1178.726562 114.859375 1174.882812 118.398438 C 1173.085938 120.273438 1170.640625 121.285156 1168.34375 122.390625 C 1163.871094 123.65625 1158.882812 123.195312 1154.679688 121.21875 C 1150.152344 119.382812 1145.921875 116.90625 1142.105469 113.886719 C 1137.652344 110.710938 1133.460938 107.085938 1130.257812 102.628906 C 1127.820312 99.089844 1124.921875 95.890625 1122.6875 92.210938 C 1121.71875 90.660156 1120.984375 88.890625 1119.574219 87.679688 C 1117.132812 89.039062 1115.679688 91.480469 1113.691406 93.347656 C 1112.394531 94.621094 1111.308594 96.082031 1110.042969 97.390625 L 1110.308594 97.226562 C 1105.847656 102.75 1102.121094 108.808594 1098.128906 114.664062 C 1096.542969 116.84375 1095.628906 119.402344 1094.246094 121.703125 C 1092.933594 123.671875 1090.839844 125.472656 1088.3125 125.226562 C 1086.007812 124.878906 1083.25 125.621094 1081.53125 123.65625 C 1080.46875 123.414062 1079.171875 123.269531 1079.015625 121.949219 C 1078.769531 121.847656 1078.285156 121.648438 1078.042969 121.542969 C 1077.476562 120.082031 1075.855469 120.109375 1074.578125 119.71875 C 1074.523438 118.019531 1071.929688 117.308594 1073.34375 115.539062 C 1073.136719 115.203125 1072.730469 114.542969 1072.523438 114.210938 C 1074.75 112.125 1075.488281 109.078125 1077.222656 106.679688 C 1078.675781 105.730469 1079.875 104.503906 1080.460938 102.839844 C 1083.226562 99.101562 1085.308594 94.921875 1088.171875 91.253906 C 1090.632812 87.929688 1093.304688 84.769531 1095.84375 81.511719 C 1099.164062 77.773438 1103.136719 74.671875 1106.25 70.761719 C 1107.960938 69.429688 1109.863281 68.359375 1111.5 66.929688 "/>
</g>
</g>
</svg>
