<?xml version="1.0" encoding="UTF-8"?><svg xmlns="http://www.w3.org/2000/svg" xmlns:xlink="http://www.w3.org/1999/xlink" contentScriptType="text/ecmascript" width="1440pt" zoomAndPan="magnify" contentStyleType="text/css" viewBox="0 0 1440 809.999993" height="809.999993pt" preserveAspectRatio="xMidYMid meet" version="1.2"><defs><clipPath xml:id="clip1" id="clip1"><path d="M 81 269.242188 L 334.5 269.242188 L 334.5 522.742188 L 81 522.742188 Z M 81 269.242188 "/></clipPath><clipPath xml:id="clip2" id="clip2"><path d="M 851.949219 0 L 1048.449219 0 L 1048.449219 154.78125 L 851.949219 154.78125 Z M 851.949219 0 "/></clipPath></defs><g xml:id="surface1" id="surface1"><rect x="0" width="1440" y="0" height="809.999993" style="fill:rgb(100%,100%,100%);fill-opacity:1;stroke:none;"/><rect x="0" width="1440" y="0" height="809.999993" style="fill:rgb(100%,100%,100%);fill-opacity:1;stroke:none;"/><rect x="0" width="1440" y="0" height="809.999993" style="fill:rgb(100%,100%,100%);fill-opacity:1;stroke:none;"/><rect x="0" width="1440" y="0" height="809.999993" style="fill:rgb(30.589294%,27.449036%,70.588684%);fill-opacity:1;stroke:none;"/><rect x="0" width="1440" y="0" height="809.999993" style="fill:rgb(30.589294%,27.449036%,70.588684%);fill-opacity:1;stroke:none;"/><rect x="0" width="1440" y="0" height="809.999993" style="fill:rgb(30.589294%,27.449036%,70.588684%);fill-opacity:1;stroke:none;"/><g clip-rule="nonzero" clip-path="url(#clip1)"><path style=" stroke:none;fill-rule:nonzero;fill:rgb(100%,100%,100%);fill-opacity:1;" d="M 334.5 395.992188 C 334.5 398.066406 334.449219 400.140625 334.347656 402.214844 C 334.246094 404.285156 334.09375 406.351562 333.890625 408.417969 C 333.6875 410.480469 333.433594 412.539062 333.128906 414.59375 C 332.824219 416.644531 332.46875 418.6875 332.066406 420.722656 C 331.660156 422.757812 331.207031 424.78125 330.703125 426.792969 C 330.199219 428.804688 329.644531 430.800781 329.042969 432.789062 C 328.441406 434.773438 327.789062 436.742188 327.089844 438.695312 C 326.390625 440.648438 325.644531 442.582031 324.851562 444.5 C 324.058594 446.414062 323.21875 448.3125 322.332031 450.1875 C 321.445312 452.0625 320.511719 453.914062 319.535156 455.742188 C 318.554688 457.574219 317.535156 459.378906 316.46875 461.15625 C 315.402344 462.9375 314.292969 464.6875 313.140625 466.414062 C 311.984375 468.136719 310.792969 469.832031 309.554688 471.5 C 308.320312 473.164062 307.046875 474.800781 305.730469 476.402344 C 304.414062 478.007812 303.058594 479.578125 301.664062 481.113281 C 300.273438 482.652344 298.84375 484.152344 297.375 485.621094 C 295.910156 487.085938 294.40625 488.515625 292.871094 489.910156 C 291.332031 491.300781 289.761719 492.65625 288.160156 493.972656 C 286.554688 495.289062 284.921875 496.566406 283.253906 497.800781 C 281.589844 499.035156 279.894531 500.230469 278.167969 501.382812 C 276.445312 502.535156 274.691406 503.644531 272.914062 504.710938 C 271.132812 505.777344 269.328125 506.800781 267.5 507.777344 C 265.671875 508.753906 263.816406 509.6875 261.941406 510.574219 C 260.066406 511.460938 258.171875 512.300781 256.253906 513.09375 C 254.339844 513.890625 252.402344 514.636719 250.449219 515.335938 C 248.496094 516.035156 246.527344 516.683594 244.542969 517.285156 C 242.558594 517.886719 240.558594 518.441406 238.546875 518.945312 C 236.535156 519.449219 234.511719 519.902344 232.476562 520.308594 C 230.441406 520.714844 228.398438 521.066406 226.347656 521.371094 C 224.296875 521.675781 222.238281 521.929688 220.171875 522.132812 C 218.109375 522.335938 216.042969 522.488281 213.96875 522.589844 C 211.898438 522.691406 209.824219 522.742188 207.75 522.742188 C 205.675781 522.742188 203.601562 522.691406 201.53125 522.589844 C 199.457031 522.488281 197.390625 522.335938 195.328125 522.132812 C 193.261719 521.929688 191.203125 521.675781 189.152344 521.371094 C 187.101562 521.066406 185.058594 520.714844 183.023438 520.308594 C 180.988281 519.902344 178.964844 519.449219 176.953125 518.945312 C 174.941406 518.441406 172.941406 517.886719 170.957031 517.285156 C 168.972656 516.683594 167.003906 516.035156 165.050781 515.335938 C 163.097656 514.636719 161.160156 513.890625 159.246094 513.09375 C 157.328125 512.300781 155.433594 511.460938 153.558594 510.574219 C 151.683594 509.6875 149.828125 508.753906 148 507.777344 C 146.171875 506.800781 144.367188 505.777344 142.585938 504.710938 C 140.808594 503.644531 139.054688 502.535156 137.332031 501.382812 C 135.605469 500.230469 133.910156 499.035156 132.246094 497.800781 C 130.578125 496.566406 128.945312 495.289062 127.339844 493.972656 C 125.738281 492.65625 124.167969 491.300781 122.628906 489.910156 C 121.09375 488.515625 119.589844 487.085938 118.125 485.621094 C 116.65625 484.152344 115.226562 482.652344 113.835938 481.113281 C 112.441406 479.578125 111.085938 478.007812 109.769531 476.402344 C 108.453125 474.800781 107.179688 473.164062 105.945312 471.5 C 104.707031 469.832031 103.511719 468.136719 102.359375 466.414062 C 101.207031 464.6875 100.097656 462.9375 99.03125 461.15625 C 97.964844 459.378906 96.945312 457.574219 95.964844 455.742188 C 94.988281 453.914062 94.054688 452.0625 93.167969 450.1875 C 92.28125 448.3125 91.441406 446.414062 90.648438 444.5 C 89.855469 442.582031 89.109375 440.648438 88.410156 438.695312 C 87.710938 436.742188 87.058594 434.773438 86.457031 432.789062 C 85.855469 430.800781 85.300781 428.804688 84.796875 426.792969 C 84.292969 424.78125 83.839844 422.757812 83.433594 420.722656 C 83.03125 418.6875 82.675781 416.644531 82.371094 414.59375 C 82.066406 412.539062 81.8125 410.480469 81.609375 408.417969 C 81.40625 406.351562 81.253906 404.285156 81.152344 402.214844 C 81.050781 400.140625 81 398.066406 81 395.992188 C 81 393.917969 81.050781 391.847656 81.152344 389.773438 C 81.253906 387.703125 81.40625 385.632812 81.609375 383.570312 C 81.8125 381.507812 82.066406 379.449219 82.371094 377.394531 C 82.675781 375.34375 83.03125 373.300781 83.433594 371.265625 C 83.839844 369.230469 84.292969 367.207031 84.796875 365.195312 C 85.300781 363.183594 85.855469 361.183594 86.457031 359.199219 C 87.058594 357.214844 87.710938 355.246094 88.410156 353.292969 C 89.109375 351.339844 89.855469 349.40625 90.648438 347.488281 C 91.441406 345.574219 92.28125 343.675781 93.167969 341.800781 C 94.054688 339.925781 94.988281 338.074219 95.964844 336.246094 C 96.945312 334.414062 97.964844 332.609375 99.03125 330.832031 C 100.097656 329.050781 101.207031 327.300781 102.359375 325.574219 C 103.511719 323.851562 104.707031 322.15625 105.945312 320.488281 C 107.179688 318.824219 108.453125 317.1875 109.769531 315.585938 C 111.085938 313.980469 112.441406 312.410156 113.835938 310.875 C 115.226562 309.335938 116.65625 307.835938 118.125 306.367188 C 119.589844 304.902344 121.09375 303.472656 122.628906 302.078125 C 124.167969 300.683594 125.738281 299.332031 127.339844 298.015625 C 128.945312 296.699219 130.578125 295.421875 132.246094 294.1875 C 133.910156 292.953125 135.605469 291.757812 137.332031 290.605469 C 139.054688 289.453125 140.808594 288.34375 142.585938 287.277344 C 144.367188 286.210938 146.171875 285.1875 148 284.210938 C 149.828125 283.234375 151.683594 282.300781 153.558594 281.414062 C 155.433594 280.527344 157.328125 279.6875 159.246094 278.890625 C 161.160156 278.097656 163.097656 277.351562 165.050781 276.652344 C 167.003906 275.953125 168.972656 275.304688 170.957031 274.703125 C 172.941406 274.097656 174.941406 273.546875 176.953125 273.042969 C 178.964844 272.539062 180.988281 272.085938 183.023438 271.679688 C 185.058594 271.273438 187.101562 270.921875 189.152344 270.617188 C 191.203125 270.3125 193.261719 270.058594 195.328125 269.855469 C 197.390625 269.652344 199.457031 269.5 201.53125 269.398438 C 203.601562 269.292969 205.675781 269.242188 207.75 269.242188 C 209.824219 269.242188 211.898438 269.292969 213.96875 269.398438 C 216.042969 269.5 218.109375 269.652344 220.171875 269.855469 C 222.238281 270.058594 224.296875 270.3125 226.347656 270.617188 C 228.398438 270.921875 230.441406 271.273438 232.476562 271.679688 C 234.511719 272.085938 236.535156 272.539062 238.546875 273.042969 C 240.558594 273.546875 242.558594 274.097656 244.542969 274.703125 C 246.527344 275.304688 248.496094 275.953125 250.449219 276.652344 C 252.402344 277.351562 254.339844 278.097656 256.253906 278.890625 C 258.171875 279.6875 260.066406 280.527344 261.941406 281.414062 C 263.816406 282.300781 265.671875 283.234375 267.5 284.210938 C 269.328125 285.1875 271.132812 286.210938 272.914062 287.277344 C 274.691406 288.34375 276.445312 289.453125 278.167969 290.605469 C 279.894531 291.757812 281.589844 292.953125 283.253906 294.1875 C 284.921875 295.421875 286.554688 296.699219 288.160156 298.015625 C 289.761719 299.332031 291.332031 300.683594 292.871094 302.078125 C 294.40625 303.472656 295.910156 304.902344 297.375 306.367188 C 298.84375 307.835938 300.273438 309.335938 301.664062 310.875 C 303.058594 312.410156 304.414062 313.980469 305.730469 315.585938 C 307.046875 317.1875 308.320312 318.824219 309.554688 320.488281 C 310.792969 322.15625 311.984375 323.851562 313.140625 325.574219 C 314.292969 327.300781 315.402344 329.050781 316.46875 330.832031 C 317.535156 332.609375 318.554688 334.414062 319.535156 336.246094 C 320.511719 338.074219 321.445312 339.925781 322.332031 341.800781 C 323.21875 343.675781 324.058594 345.574219 324.851562 347.488281 C 325.644531 349.40625 326.390625 351.339844 327.089844 353.292969 C 327.789062 355.246094 328.441406 357.214844 329.042969 359.199219 C 329.644531 361.183594 330.199219 363.183594 330.703125 365.195312 C 331.207031 367.207031 331.660156 369.230469 332.066406 371.265625 C 332.46875 373.300781 332.824219 375.34375 333.128906 377.394531 C 333.433594 379.449219 333.6875 381.507812 333.890625 383.570312 C 334.09375 385.632812 334.246094 387.703125 334.347656 389.773438 C 334.449219 391.847656 334.5 393.917969 334.5 395.992188 Z M 334.5 395.992188 "/></g><path style=" stroke:none;fill-rule:nonzero;fill:rgb(100%,100%,100%);fill-opacity:1;" d="M -100.054688 618.996094 L -103.667969 618.996094 L -103.667969 630.726562 L -115.425781 630.792969 L -115.425781 634.398438 L -103.667969 634.398438 L -103.667969 646.128906 L -100.054688 646.128906 L -100.054688 634.398438 L -88.292969 634.398438 L -88.292969 630.792969 L -100.054688 630.792969 Z M -42.175781 618.996094 L -45.789062 618.996094 L -45.789062 630.726562 L -57.546875 630.726562 L -57.546875 634.332031 L -45.789062 634.332031 L -45.789062 646.0625 L -42.175781 646.0625 L -42.175781 634.332031 L -30.414062 634.332031 L -30.414062 630.726562 L -42.175781 630.726562 Z M 15.636719 618.996094 L 12.023438 618.996094 L 12.023438 630.726562 L 0.265625 630.726562 L 0.265625 634.332031 L 12.023438 634.332031 L 12.023438 646.0625 L 15.636719 646.0625 L 15.636719 634.332031 L 27.398438 634.332031 L 27.398438 630.726562 L 15.636719 630.726562 Z M 73.449219 630.792969 L 73.449219 619.0625 L 69.835938 619.0625 L 69.835938 630.792969 L 58.078125 630.792969 L 58.078125 634.398438 L 69.835938 634.398438 L 69.835938 646.128906 L 73.449219 646.128906 L 73.449219 634.398438 L 85.210938 634.398438 L 85.210938 630.792969 Z M -100.054688 673.191406 L -103.667969 673.191406 L -103.667969 684.921875 L -115.425781 684.921875 L -115.425781 688.527344 L -103.667969 688.527344 L -103.667969 700.257812 L -100.054688 700.257812 L -100.054688 688.527344 L -88.292969 688.527344 L -88.292969 684.921875 L -100.054688 684.921875 Z M -42.175781 673.191406 L -45.789062 673.191406 L -45.789062 684.921875 L -57.546875 684.921875 L -57.546875 688.527344 L -45.789062 688.527344 L -45.789062 700.257812 L -42.175781 700.257812 L -42.175781 688.527344 L -30.414062 688.527344 L -30.414062 684.921875 L -42.175781 684.921875 Z M 15.636719 673.191406 L 12.023438 673.191406 L 12.023438 684.921875 L 0.265625 684.921875 L 0.265625 688.527344 L 12.023438 688.527344 L 12.023438 700.257812 L 15.636719 700.257812 L 15.636719 688.527344 L 27.398438 688.527344 L 27.398438 684.921875 L 15.636719 684.921875 Z M 73.449219 673.125 L 69.835938 673.125 L 69.835938 684.855469 L 58.078125 684.855469 L 58.078125 688.460938 L 69.835938 688.460938 L 69.835938 700.191406 L 73.449219 700.191406 L 73.449219 688.460938 L 85.210938 688.460938 L 85.210938 684.855469 L 73.449219 684.855469 Z M -100.054688 727.386719 L -103.667969 727.386719 L -103.667969 739.117188 L -115.425781 739.117188 L -115.425781 742.722656 L -103.667969 742.722656 L -103.667969 754.453125 L -100.054688 754.453125 L -100.054688 742.722656 L -88.292969 742.722656 L -88.292969 739.117188 L -100.054688 739.117188 Z M -42.175781 727.386719 L -45.789062 727.386719 L -45.789062 739.117188 L -57.546875 739.117188 L -57.546875 742.722656 L -45.789062 742.722656 L -45.789062 754.453125 L -42.175781 754.453125 L -42.175781 742.722656 L -30.414062 742.722656 L -30.414062 739.117188 L -42.175781 739.117188 Z M 15.636719 727.386719 L 12.023438 727.386719 L 12.023438 739.117188 L 0.265625 739.117188 L 0.265625 742.722656 L 12.023438 742.722656 L 12.023438 754.453125 L 15.636719 754.453125 L 15.636719 742.722656 L 27.398438 742.722656 L 27.398438 739.117188 L 15.636719 739.117188 Z M 73.449219 727.386719 L 69.835938 727.386719 L 69.835938 739.117188 L 58.078125 739.117188 L 58.078125 742.722656 L 69.835938 742.722656 L 69.835938 754.453125 L 73.449219 754.453125 L 73.449219 742.722656 L 85.210938 742.722656 L 85.210938 739.117188 L 73.449219 739.117188 Z M -100.054688 781.582031 L -103.667969 781.582031 L -103.667969 793.3125 L -115.425781 793.3125 L -115.425781 796.914062 L -103.667969 796.914062 L -103.667969 808.644531 L -100.054688 808.644531 L -100.054688 796.914062 L -88.292969 796.914062 L -88.292969 793.3125 L -100.054688 793.3125 Z M -42.175781 781.582031 L -45.789062 781.582031 L -45.789062 793.3125 L -57.546875 793.3125 L -57.546875 796.914062 L -45.789062 796.914062 L -45.789062 808.644531 L -42.175781 808.644531 L -42.175781 796.914062 L -30.414062 796.914062 L -30.414062 793.3125 L -42.175781 793.3125 Z M 15.636719 781.515625 L 12.023438 781.515625 L 12.023438 793.246094 L 0.265625 793.246094 L 0.265625 796.851562 L 12.023438 796.851562 L 12.023438 808.582031 L 15.636719 808.582031 L 15.636719 796.851562 L 27.398438 796.851562 L 27.398438 793.246094 L 15.636719 793.246094 Z M 73.449219 781.515625 L 69.835938 781.515625 L 69.835938 793.246094 L 58.078125 793.246094 L 58.078125 796.851562 L 69.835938 796.851562 L 69.835938 808.582031 L 73.449219 808.582031 L 73.449219 796.851562 L 85.210938 796.851562 L 85.210938 793.246094 L 73.449219 793.246094 Z M 73.449219 781.515625 "/><path style=" stroke:none;fill-rule:nonzero;fill:rgb(100%,100%,100%);fill-opacity:1;" d="M 1254.480469 -53.582031 L 1250.894531 -53.582031 L 1250.894531 -41.894531 L 1239.21875 -41.832031 L 1239.21875 -38.242188 L 1250.894531 -38.242188 L 1250.894531 -26.554688 L 1254.480469 -26.554688 L 1254.480469 -38.242188 L 1266.15625 -38.242188 L 1266.15625 -41.832031 L 1254.480469 -41.832031 Z M 1311.941406 -53.582031 L 1308.355469 -53.582031 L 1308.355469 -41.894531 L 1296.679688 -41.894531 L 1296.679688 -38.304688 L 1308.355469 -38.304688 L 1308.355469 -26.621094 L 1311.941406 -26.621094 L 1311.941406 -38.304688 L 1323.617188 -38.304688 L 1323.617188 -41.894531 L 1311.941406 -41.894531 Z M 1369.339844 -53.582031 L 1365.75 -53.582031 L 1365.75 -41.894531 L 1354.078125 -41.894531 L 1354.078125 -38.304688 L 1365.75 -38.304688 L 1365.75 -26.621094 L 1369.339844 -26.621094 L 1369.339844 -38.304688 L 1381.011719 -38.304688 L 1381.011719 -41.894531 L 1369.339844 -41.894531 Z M 1426.734375 -41.832031 L 1426.734375 -53.515625 L 1423.148438 -53.515625 L 1423.148438 -41.832031 L 1411.472656 -41.832031 L 1411.472656 -38.242188 L 1423.148438 -38.242188 L 1423.148438 -26.554688 L 1426.734375 -26.554688 L 1426.734375 -38.242188 L 1438.410156 -38.242188 L 1438.410156 -41.832031 Z M 1254.480469 0.40625 L 1250.894531 0.40625 L 1250.894531 12.09375 L 1239.21875 12.09375 L 1239.21875 15.683594 L 1250.894531 15.683594 L 1250.894531 27.367188 L 1254.480469 27.367188 L 1254.480469 15.683594 L 1266.15625 15.683594 L 1266.15625 12.09375 L 1254.480469 12.09375 Z M 1311.941406 0.40625 L 1308.355469 0.40625 L 1308.355469 12.09375 L 1296.679688 12.09375 L 1296.679688 15.683594 L 1308.355469 15.683594 L 1308.355469 27.367188 L 1311.941406 27.367188 L 1311.941406 15.683594 L 1323.617188 15.683594 L 1323.617188 12.09375 L 1311.941406 12.09375 Z M 1369.339844 0.40625 L 1365.75 0.40625 L 1365.75 12.09375 L 1354.078125 12.09375 L 1354.078125 15.683594 L 1365.75 15.683594 L 1365.75 27.367188 L 1369.339844 27.367188 L 1369.339844 15.683594 L 1381.011719 15.683594 L 1381.011719 12.09375 L 1369.339844 12.09375 Z M 1426.734375 0.339844 L 1423.148438 0.339844 L 1423.148438 12.027344 L 1411.472656 12.027344 L 1411.472656 15.617188 L 1423.148438 15.617188 L 1423.148438 27.304688 L 1426.734375 27.304688 L 1426.734375 15.617188 L 1438.410156 15.617188 L 1438.410156 12.027344 L 1426.734375 12.027344 Z M 1254.480469 54.394531 L 1250.894531 54.394531 L 1250.894531 66.082031 L 1239.21875 66.082031 L 1239.21875 69.671875 L 1250.894531 69.671875 L 1250.894531 81.355469 L 1254.480469 81.355469 L 1254.480469 69.671875 L 1266.15625 69.671875 L 1266.15625 66.082031 L 1254.480469 66.082031 Z M 1311.941406 54.394531 L 1308.355469 54.394531 L 1308.355469 66.082031 L 1296.679688 66.082031 L 1296.679688 69.671875 L 1308.355469 69.671875 L 1308.355469 81.355469 L 1311.941406 81.355469 L 1311.941406 69.671875 L 1323.617188 69.671875 L 1323.617188 66.082031 L 1311.941406 66.082031 Z M 1369.339844 54.394531 L 1365.75 54.394531 L 1365.75 66.082031 L 1354.078125 66.082031 L 1354.078125 69.671875 L 1365.75 69.671875 L 1365.75 81.355469 L 1369.339844 81.355469 L 1369.339844 69.671875 L 1381.011719 69.671875 L 1381.011719 66.082031 L 1369.339844 66.082031 Z M 1426.734375 54.394531 L 1423.148438 54.394531 L 1423.148438 66.082031 L 1411.472656 66.082031 L 1411.472656 69.671875 L 1423.148438 69.671875 L 1423.148438 81.355469 L 1426.734375 81.355469 L 1426.734375 69.671875 L 1438.410156 69.671875 L 1438.410156 66.082031 L 1426.734375 66.082031 Z M 1254.480469 108.382812 L 1250.894531 108.382812 L 1250.894531 120.070312 L 1239.21875 120.070312 L 1239.21875 123.660156 L 1250.894531 123.660156 L 1250.894531 135.34375 L 1254.480469 135.34375 L 1254.480469 123.660156 L 1266.15625 123.660156 L 1266.15625 120.070312 L 1254.480469 120.070312 Z M 1311.941406 108.382812 L 1308.355469 108.382812 L 1308.355469 120.070312 L 1296.679688 120.070312 L 1296.679688 123.660156 L 1308.355469 123.660156 L 1308.355469 135.34375 L 1311.941406 135.34375 L 1311.941406 123.660156 L 1323.617188 123.660156 L 1323.617188 120.070312 L 1311.941406 120.070312 Z M 1369.339844 108.320312 L 1365.75 108.320312 L 1365.75 120.003906 L 1354.078125 120.003906 L 1354.078125 123.59375 L 1365.75 123.59375 L 1365.75 135.28125 L 1369.339844 135.28125 L 1369.339844 123.59375 L 1381.011719 123.59375 L 1381.011719 120.003906 L 1369.339844 120.003906 Z M 1426.734375 108.320312 L 1423.148438 108.320312 L 1423.148438 120.003906 L 1411.472656 120.003906 L 1411.472656 123.59375 L 1423.148438 123.59375 L 1423.148438 135.28125 L 1426.734375 135.28125 L 1426.734375 123.59375 L 1438.410156 123.59375 L 1438.410156 120.003906 L 1426.734375 120.003906 Z M 1426.734375 108.320312 "/><g clip-rule="nonzero" clip-path="url(#clip2)"><path style=" stroke:none;fill-rule:nonzero;fill:rgb(93.728638%,43.139648%,17.649841%);fill-opacity:1;" d="M 1048.449219 -4.597656 L 1011.316406 -41.71875 L 950.207031 19.390625 L 889.078125 -41.71875 L 851.949219 -4.597656 L 913.066406 56.53125 L 851.949219 117.648438 L 889.078125 154.78125 L 950.207031 93.65625 L 1011.316406 154.78125 L 1048.449219 117.648438 L 987.328125 56.53125 Z M 1048.449219 -4.597656 "/></g><path style=" stroke:none;fill-rule:nonzero;fill:rgb(93.728638%,43.139648%,17.649841%);fill-opacity:1;" d="M 34.863281 -87.851562 C 83.394531 -87.851562 122.714844 -48.53125 122.714844 0 C 122.714844 48.53125 83.394531 87.851562 34.863281 87.851562 C -13.667969 87.851562 -52.988281 48.53125 -52.988281 0 C -52.988281 -48.53125 -13.667969 -87.851562 34.863281 -87.851562 Z M 34.863281 -87.851562 "/><path style=" stroke:none;fill-rule:nonzero;fill:rgb(93.728638%,43.139648%,17.649841%);fill-opacity:1;" d="M 1382.644531 702.53125 C 1431.171875 702.53125 1470.496094 741.855469 1470.496094 790.382812 C 1470.496094 838.914062 1431.171875 878.234375 1382.644531 878.234375 C 1334.113281 878.234375 1294.792969 838.914062 1294.792969 790.382812 C 1294.792969 741.855469 1334.113281 702.53125 1382.644531 702.53125 Z M 1382.644531 702.53125 "/><path style=" stroke:none;fill-rule:nonzero;fill:rgb(100%,100%,100%);fill-opacity:1;" d="M 518.332031 878.9375 C 466.113281 878.9375 423.492188 836.320312 423.492188 783.960938 C 423.492188 731.742188 466.113281 689.121094 518.332031 689.121094 C 570.6875 689.121094 613.167969 731.742188 613.167969 783.960938 C 613.308594 836.320312 570.6875 878.9375 518.332031 878.9375 Z M 518.332031 741.339844 C 494.902344 741.339844 475.710938 760.535156 475.710938 783.960938 C 475.710938 807.386719 494.902344 826.582031 518.332031 826.582031 C 541.757812 826.582031 560.953125 807.386719 560.953125 783.960938 C 560.953125 760.535156 541.898438 741.339844 518.332031 741.339844 Z M 518.332031 741.339844 "/><path style="fill:none;stroke-width:1;stroke-linecap:round;stroke-linejoin:miter;stroke:rgb(23.529053%,23.529053%,48.239136%);stroke-opacity:1;stroke-miterlimit:4;" d="M 0.499978 0.00021279 L 42.230914 0.00021279 " transform="matrix(3.7563,0,0,3.75,1258.082871,235.757015)"/></g></svg>