<?xml version="1.0" encoding="UTF-8"?>
<svg xmlns="http://www.w3.org/2000/svg" xmlns:xlink="http://www.w3.org/1999/xlink" width="1440pt" height="809.999993pt" viewBox="0 0 1440 809.999993" version="1.2">
<defs>
<clipPath id="clip1">
  <path d="M 9 525 L 18 525 L 18 533.605469 L 9 533.605469 Z M 9 525 "/>
</clipPath>
<clipPath id="clip2">
  <path d="M 32 525 L 41 525 L 41 533.605469 L 32 533.605469 Z M 32 525 "/>
</clipPath>
<clipPath id="clip3">
  <path d="M 55 525 L 64 525 L 64 533.605469 L 55 533.605469 Z M 55 525 "/>
</clipPath>
<clipPath id="clip4">
  <path d="M 78 525 L 87 525 L 87 533.605469 L 78 533.605469 Z M 78 525 "/>
</clipPath>
<clipPath id="clip5">
  <path d="M 101 525 L 111 525 L 111 533.605469 L 101 533.605469 Z M 101 525 "/>
</clipPath>
<clipPath id="clip6">
  <path d="M 125 525 L 133.566406 525 L 133.566406 533.605469 L 125 533.605469 Z M 125 525 "/>
</clipPath>
<clipPath id="clip7">
  <path d="M 125 502 L 133.566406 502 L 133.566406 511 L 125 511 Z M 125 502 "/>
</clipPath>
<clipPath id="clip8">
  <path d="M 125 478 L 133.566406 478 L 133.566406 488 L 125 488 Z M 125 478 "/>
</clipPath>
<clipPath id="clip9">
  <path d="M 125 455 L 133.566406 455 L 133.566406 464 L 125 464 Z M 125 455 "/>
</clipPath>
<clipPath id="clip10">
  <path d="M 125 432 L 133.566406 432 L 133.566406 441 L 125 441 Z M 125 432 "/>
</clipPath>
<clipPath id="clip11">
  <path d="M 125 409 L 133.566406 409 L 133.566406 418 L 125 418 Z M 125 409 "/>
</clipPath>
<clipPath id="clip12">
  <path d="M 125 385 L 133.566406 385 L 133.566406 395 L 125 395 Z M 125 385 "/>
</clipPath>
<clipPath id="clip13">
  <path d="M 9 223.105469 L 18 223.105469 L 18 232 L 9 232 Z M 9 223.105469 "/>
</clipPath>
<clipPath id="clip14">
  <path d="M 32 223.105469 L 41 223.105469 L 41 232 L 32 232 Z M 32 223.105469 "/>
</clipPath>
<clipPath id="clip15">
  <path d="M 55 223.105469 L 64 223.105469 L 64 232 L 55 232 Z M 55 223.105469 "/>
</clipPath>
<clipPath id="clip16">
  <path d="M 78 223.105469 L 87 223.105469 L 87 232 L 78 232 Z M 78 223.105469 "/>
</clipPath>
<clipPath id="clip17">
  <path d="M 101 223.105469 L 111 223.105469 L 111 232 L 101 232 Z M 101 223.105469 "/>
</clipPath>
<clipPath id="clip18">
  <path d="M 125 362 L 133.566406 362 L 133.566406 371 L 125 371 Z M 125 362 "/>
</clipPath>
<clipPath id="clip19">
  <path d="M 125 339 L 133.566406 339 L 133.566406 348 L 125 348 Z M 125 339 "/>
</clipPath>
<clipPath id="clip20">
  <path d="M 125 316 L 133.566406 316 L 133.566406 325 L 125 325 Z M 125 316 "/>
</clipPath>
<clipPath id="clip21">
  <path d="M 125 292 L 133.566406 292 L 133.566406 302 L 125 302 Z M 125 292 "/>
</clipPath>
<clipPath id="clip22">
  <path d="M 125 269 L 133.566406 269 L 133.566406 278 L 125 278 Z M 125 269 "/>
</clipPath>
<clipPath id="clip23">
  <path d="M 125 246 L 133.566406 246 L 133.566406 255 L 125 255 Z M 125 246 "/>
</clipPath>
<clipPath id="clip24">
  <path d="M 125 223.105469 L 133.566406 223.105469 L 133.566406 232 L 125 232 Z M 125 223.105469 "/>
</clipPath>
</defs>
<g id="surface1">
<rect x="0" y="0" width="1440" height="809.999993" style="fill:rgb(100%,100%,100%);fill-opacity:1;stroke:none;"/>
<rect x="0" y="0" width="1440" height="809.999993" style="fill:rgb(100%,100%,100%);fill-opacity:1;stroke:none;"/>
<rect x="0" y="0" width="1440" height="809.999993" style="fill:rgb(100%,100%,100%);fill-opacity:1;stroke:none;"/>
<g clip-path="url(#clip1)" clip-rule="nonzero">
<path style=" stroke:none;fill-rule:nonzero;fill:rgb(90.19928%,90.19928%,90.19928%);fill-opacity:1;" d="M 9.101562 529.445312 C 9.101562 531.695312 10.9375 533.527344 13.191406 533.527344 C 15.449219 533.527344 17.285156 531.695312 17.285156 529.445312 C 17.285156 527.195312 15.449219 525.359375 13.191406 525.359375 C 10.9375 525.359375 9.101562 527.195312 9.101562 529.445312 "/>
</g>
<path style=" stroke:none;fill-rule:nonzero;fill:rgb(90.19928%,90.19928%,90.19928%);fill-opacity:1;" d="M 9.101562 506.195312 C 9.101562 508.449219 10.9375 510.28125 13.191406 510.28125 C 15.449219 510.28125 17.285156 508.449219 17.285156 506.195312 C 17.285156 503.945312 15.449219 502.113281 13.191406 502.113281 C 10.9375 502.113281 9.101562 503.945312 9.101562 506.195312 "/>
<path style=" stroke:none;fill-rule:nonzero;fill:rgb(90.19928%,90.19928%,90.19928%);fill-opacity:1;" d="M 9.101562 482.949219 C 9.101562 485.199219 10.9375 487.03125 13.191406 487.03125 C 15.449219 487.03125 17.285156 485.199219 17.285156 482.949219 C 17.285156 480.695312 15.449219 478.867188 13.191406 478.867188 C 10.9375 478.867188 9.101562 480.695312 9.101562 482.949219 "/>
<path style=" stroke:none;fill-rule:nonzero;fill:rgb(90.19928%,90.19928%,90.19928%);fill-opacity:1;" d="M 9.101562 459.699219 C 9.101562 461.953125 10.9375 463.785156 13.191406 463.785156 C 15.449219 463.785156 17.285156 461.953125 17.285156 459.699219 C 17.285156 457.449219 15.449219 455.617188 13.191406 455.617188 C 10.9375 455.617188 9.101562 457.449219 9.101562 459.699219 "/>
<path style=" stroke:none;fill-rule:nonzero;fill:rgb(90.19928%,90.19928%,90.19928%);fill-opacity:1;" d="M 9.101562 436.453125 C 9.101562 438.703125 10.9375 440.535156 13.191406 440.535156 C 15.449219 440.535156 17.285156 438.703125 17.285156 436.453125 C 17.285156 434.199219 15.449219 432.367188 13.191406 432.367188 C 10.9375 432.367188 9.101562 434.199219 9.101562 436.453125 "/>
<path style=" stroke:none;fill-rule:nonzero;fill:rgb(90.19928%,90.19928%,90.19928%);fill-opacity:1;" d="M 9.101562 413.203125 C 9.101562 415.453125 10.9375 417.289062 13.191406 417.289062 C 15.449219 417.289062 17.285156 415.453125 17.285156 413.203125 C 17.285156 410.953125 15.449219 409.121094 13.191406 409.121094 C 10.9375 409.121094 9.101562 410.953125 9.101562 413.203125 "/>
<path style=" stroke:none;fill-rule:nonzero;fill:rgb(90.19928%,90.19928%,90.19928%);fill-opacity:1;" d="M 9.101562 389.957031 C 9.101562 392.207031 10.9375 394.039062 13.191406 394.039062 C 15.449219 394.039062 17.285156 392.207031 17.285156 389.957031 C 17.285156 387.703125 15.449219 385.871094 13.191406 385.871094 C 10.9375 385.871094 9.101562 387.703125 9.101562 389.957031 "/>
<g clip-path="url(#clip2)" clip-rule="nonzero">
<path style=" stroke:none;fill-rule:nonzero;fill:rgb(90.19928%,90.19928%,90.19928%);fill-opacity:1;" d="M 32.242188 529.445312 C 32.242188 531.695312 34.074219 533.527344 36.332031 533.527344 C 38.585938 533.527344 40.421875 531.695312 40.421875 529.445312 C 40.421875 527.195312 38.585938 525.359375 36.332031 525.359375 C 34.074219 525.359375 32.242188 527.195312 32.242188 529.445312 "/>
</g>
<path style=" stroke:none;fill-rule:nonzero;fill:rgb(90.19928%,90.19928%,90.19928%);fill-opacity:1;" d="M 32.242188 506.195312 C 32.242188 508.449219 34.074219 510.28125 36.332031 510.28125 C 38.585938 510.28125 40.421875 508.449219 40.421875 506.195312 C 40.421875 503.945312 38.585938 502.113281 36.332031 502.113281 C 34.074219 502.113281 32.242188 503.945312 32.242188 506.195312 "/>
<path style=" stroke:none;fill-rule:nonzero;fill:rgb(90.19928%,90.19928%,90.19928%);fill-opacity:1;" d="M 32.242188 482.949219 C 32.242188 485.199219 34.074219 487.03125 36.332031 487.03125 C 38.585938 487.03125 40.421875 485.199219 40.421875 482.949219 C 40.421875 480.695312 38.585938 478.867188 36.332031 478.867188 C 34.074219 478.867188 32.242188 480.695312 32.242188 482.949219 "/>
<path style=" stroke:none;fill-rule:nonzero;fill:rgb(90.19928%,90.19928%,90.19928%);fill-opacity:1;" d="M 32.242188 459.699219 C 32.242188 461.953125 34.074219 463.785156 36.332031 463.785156 C 38.585938 463.785156 40.421875 461.953125 40.421875 459.699219 C 40.421875 457.449219 38.585938 455.617188 36.332031 455.617188 C 34.074219 455.617188 32.242188 457.449219 32.242188 459.699219 "/>
<path style=" stroke:none;fill-rule:nonzero;fill:rgb(90.19928%,90.19928%,90.19928%);fill-opacity:1;" d="M 32.242188 436.453125 C 32.242188 438.703125 34.074219 440.535156 36.332031 440.535156 C 38.585938 440.535156 40.421875 438.703125 40.421875 436.453125 C 40.421875 434.199219 38.585938 432.367188 36.332031 432.367188 C 34.074219 432.367188 32.242188 434.199219 32.242188 436.453125 "/>
<path style=" stroke:none;fill-rule:nonzero;fill:rgb(90.19928%,90.19928%,90.19928%);fill-opacity:1;" d="M 32.242188 413.203125 C 32.242188 415.453125 34.074219 417.289062 36.332031 417.289062 C 38.585938 417.289062 40.421875 415.453125 40.421875 413.203125 C 40.421875 410.953125 38.585938 409.121094 36.332031 409.121094 C 34.074219 409.121094 32.242188 410.953125 32.242188 413.203125 "/>
<path style=" stroke:none;fill-rule:nonzero;fill:rgb(90.19928%,90.19928%,90.19928%);fill-opacity:1;" d="M 32.242188 389.957031 C 32.242188 392.207031 34.074219 394.039062 36.332031 394.039062 C 38.585938 394.039062 40.421875 392.207031 40.421875 389.957031 C 40.421875 387.703125 38.585938 385.871094 36.332031 385.871094 C 34.074219 385.871094 32.242188 387.703125 32.242188 389.957031 "/>
<g clip-path="url(#clip3)" clip-rule="nonzero">
<path style=" stroke:none;fill-rule:nonzero;fill:rgb(90.19928%,90.19928%,90.19928%);fill-opacity:1;" d="M 55.527344 529.445312 C 55.527344 531.695312 57.363281 533.527344 59.621094 533.527344 C 61.875 533.527344 63.710938 531.695312 63.710938 529.445312 C 63.710938 527.195312 61.875 525.359375 59.621094 525.359375 C 57.363281 525.359375 55.527344 527.195312 55.527344 529.445312 "/>
</g>
<path style=" stroke:none;fill-rule:nonzero;fill:rgb(90.19928%,90.19928%,90.19928%);fill-opacity:1;" d="M 55.527344 506.195312 C 55.527344 508.449219 57.363281 510.28125 59.621094 510.28125 C 61.875 510.28125 63.710938 508.449219 63.710938 506.195312 C 63.710938 503.945312 61.875 502.113281 59.621094 502.113281 C 57.363281 502.113281 55.527344 503.945312 55.527344 506.195312 "/>
<path style=" stroke:none;fill-rule:nonzero;fill:rgb(90.19928%,90.19928%,90.19928%);fill-opacity:1;" d="M 55.527344 482.949219 C 55.527344 485.199219 57.363281 487.03125 59.621094 487.03125 C 61.875 487.03125 63.710938 485.199219 63.710938 482.949219 C 63.710938 480.695312 61.875 478.867188 59.621094 478.867188 C 57.363281 478.867188 55.527344 480.695312 55.527344 482.949219 "/>
<path style=" stroke:none;fill-rule:nonzero;fill:rgb(90.19928%,90.19928%,90.19928%);fill-opacity:1;" d="M 55.527344 459.699219 C 55.527344 461.953125 57.363281 463.785156 59.621094 463.785156 C 61.875 463.785156 63.710938 461.953125 63.710938 459.699219 C 63.710938 457.449219 61.875 455.617188 59.621094 455.617188 C 57.363281 455.617188 55.527344 457.449219 55.527344 459.699219 "/>
<path style=" stroke:none;fill-rule:nonzero;fill:rgb(90.19928%,90.19928%,90.19928%);fill-opacity:1;" d="M 55.527344 436.453125 C 55.527344 438.703125 57.363281 440.535156 59.621094 440.535156 C 61.875 440.535156 63.710938 438.703125 63.710938 436.453125 C 63.710938 434.199219 61.875 432.367188 59.621094 432.367188 C 57.363281 432.367188 55.527344 434.199219 55.527344 436.453125 "/>
<path style=" stroke:none;fill-rule:nonzero;fill:rgb(90.19928%,90.19928%,90.19928%);fill-opacity:1;" d="M 55.527344 413.203125 C 55.527344 415.453125 57.363281 417.289062 59.621094 417.289062 C 61.875 417.289062 63.710938 415.453125 63.710938 413.203125 C 63.710938 410.953125 61.875 409.121094 59.621094 409.121094 C 57.363281 409.121094 55.527344 410.953125 55.527344 413.203125 "/>
<path style=" stroke:none;fill-rule:nonzero;fill:rgb(90.19928%,90.19928%,90.19928%);fill-opacity:1;" d="M 55.527344 389.957031 C 55.527344 392.207031 57.363281 394.039062 59.621094 394.039062 C 61.875 394.039062 63.710938 392.207031 63.710938 389.957031 C 63.710938 387.703125 61.875 385.871094 59.621094 385.871094 C 57.363281 385.871094 55.527344 387.703125 55.527344 389.957031 "/>
<g clip-path="url(#clip4)" clip-rule="nonzero">
<path style=" stroke:none;fill-rule:nonzero;fill:rgb(90.19928%,90.19928%,90.19928%);fill-opacity:1;" d="M 78.8125 529.445312 C 78.8125 531.695312 80.648438 533.527344 82.90625 533.527344 C 85.160156 533.527344 86.996094 531.695312 86.996094 529.445312 C 86.996094 527.195312 85.160156 525.359375 82.90625 525.359375 C 80.648438 525.359375 78.8125 527.195312 78.8125 529.445312 "/>
</g>
<path style=" stroke:none;fill-rule:nonzero;fill:rgb(90.19928%,90.19928%,90.19928%);fill-opacity:1;" d="M 78.8125 506.195312 C 78.8125 508.449219 80.648438 510.28125 82.90625 510.28125 C 85.160156 510.28125 86.996094 508.449219 86.996094 506.195312 C 86.996094 503.945312 85.160156 502.113281 82.90625 502.113281 C 80.648438 502.113281 78.8125 503.945312 78.8125 506.195312 "/>
<path style=" stroke:none;fill-rule:nonzero;fill:rgb(90.19928%,90.19928%,90.19928%);fill-opacity:1;" d="M 78.8125 482.949219 C 78.8125 485.199219 80.648438 487.03125 82.90625 487.03125 C 85.160156 487.03125 86.996094 485.199219 86.996094 482.949219 C 86.996094 480.695312 85.160156 478.867188 82.90625 478.867188 C 80.648438 478.867188 78.8125 480.695312 78.8125 482.949219 "/>
<path style=" stroke:none;fill-rule:nonzero;fill:rgb(90.19928%,90.19928%,90.19928%);fill-opacity:1;" d="M 78.8125 459.699219 C 78.8125 461.953125 80.648438 463.785156 82.90625 463.785156 C 85.160156 463.785156 86.996094 461.953125 86.996094 459.699219 C 86.996094 457.449219 85.160156 455.617188 82.90625 455.617188 C 80.648438 455.617188 78.8125 457.449219 78.8125 459.699219 "/>
<path style=" stroke:none;fill-rule:nonzero;fill:rgb(90.19928%,90.19928%,90.19928%);fill-opacity:1;" d="M 78.8125 436.453125 C 78.8125 438.703125 80.648438 440.535156 82.90625 440.535156 C 85.160156 440.535156 86.996094 438.703125 86.996094 436.453125 C 86.996094 434.199219 85.160156 432.367188 82.90625 432.367188 C 80.648438 432.367188 78.8125 434.199219 78.8125 436.453125 "/>
<path style=" stroke:none;fill-rule:nonzero;fill:rgb(90.19928%,90.19928%,90.19928%);fill-opacity:1;" d="M 78.8125 413.203125 C 78.8125 415.453125 80.648438 417.289062 82.90625 417.289062 C 85.160156 417.289062 86.996094 415.453125 86.996094 413.203125 C 86.996094 410.953125 85.160156 409.121094 82.90625 409.121094 C 80.648438 409.121094 78.8125 410.953125 78.8125 413.203125 "/>
<path style=" stroke:none;fill-rule:nonzero;fill:rgb(90.19928%,90.19928%,90.19928%);fill-opacity:1;" d="M 78.8125 389.957031 C 78.8125 392.207031 80.648438 394.039062 82.90625 394.039062 C 85.160156 394.039062 86.996094 392.207031 86.996094 389.957031 C 86.996094 387.703125 85.160156 385.871094 82.90625 385.871094 C 80.648438 385.871094 78.8125 387.703125 78.8125 389.957031 "/>
<g clip-path="url(#clip5)" clip-rule="nonzero">
<path style=" stroke:none;fill-rule:nonzero;fill:rgb(90.19928%,90.19928%,90.19928%);fill-opacity:1;" d="M 101.953125 529.445312 C 101.953125 531.695312 103.785156 533.527344 106.042969 533.527344 C 108.296875 533.527344 110.132812 531.695312 110.132812 529.445312 C 110.132812 527.195312 108.296875 525.359375 106.042969 525.359375 C 103.785156 525.359375 101.953125 527.195312 101.953125 529.445312 "/>
</g>
<path style=" stroke:none;fill-rule:nonzero;fill:rgb(90.19928%,90.19928%,90.19928%);fill-opacity:1;" d="M 101.953125 506.195312 C 101.953125 508.449219 103.785156 510.28125 106.042969 510.28125 C 108.296875 510.28125 110.132812 508.449219 110.132812 506.195312 C 110.132812 503.945312 108.296875 502.113281 106.042969 502.113281 C 103.785156 502.113281 101.953125 503.945312 101.953125 506.195312 "/>
<path style=" stroke:none;fill-rule:nonzero;fill:rgb(90.19928%,90.19928%,90.19928%);fill-opacity:1;" d="M 101.953125 482.949219 C 101.953125 485.199219 103.785156 487.03125 106.042969 487.03125 C 108.296875 487.03125 110.132812 485.199219 110.132812 482.949219 C 110.132812 480.695312 108.296875 478.867188 106.042969 478.867188 C 103.785156 478.867188 101.953125 480.695312 101.953125 482.949219 "/>
<path style=" stroke:none;fill-rule:nonzero;fill:rgb(90.19928%,90.19928%,90.19928%);fill-opacity:1;" d="M 101.953125 459.699219 C 101.953125 461.953125 103.785156 463.785156 106.042969 463.785156 C 108.296875 463.785156 110.132812 461.953125 110.132812 459.699219 C 110.132812 457.449219 108.296875 455.617188 106.042969 455.617188 C 103.785156 455.617188 101.953125 457.449219 101.953125 459.699219 "/>
<path style=" stroke:none;fill-rule:nonzero;fill:rgb(90.19928%,90.19928%,90.19928%);fill-opacity:1;" d="M 101.953125 436.453125 C 101.953125 438.703125 103.785156 440.535156 106.042969 440.535156 C 108.296875 440.535156 110.132812 438.703125 110.132812 436.453125 C 110.132812 434.199219 108.296875 432.367188 106.042969 432.367188 C 103.785156 432.367188 101.953125 434.199219 101.953125 436.453125 "/>
<path style=" stroke:none;fill-rule:nonzero;fill:rgb(90.19928%,90.19928%,90.19928%);fill-opacity:1;" d="M 101.953125 413.203125 C 101.953125 415.453125 103.785156 417.289062 106.042969 417.289062 C 108.296875 417.289062 110.132812 415.453125 110.132812 413.203125 C 110.132812 410.953125 108.296875 409.121094 106.042969 409.121094 C 103.785156 409.121094 101.953125 410.953125 101.953125 413.203125 "/>
<path style=" stroke:none;fill-rule:nonzero;fill:rgb(90.19928%,90.19928%,90.19928%);fill-opacity:1;" d="M 101.953125 389.957031 C 101.953125 392.207031 103.785156 394.039062 106.042969 394.039062 C 108.296875 394.039062 110.132812 392.207031 110.132812 389.957031 C 110.132812 387.703125 108.296875 385.871094 106.042969 385.871094 C 103.785156 385.871094 101.953125 387.703125 101.953125 389.957031 "/>
<g clip-path="url(#clip6)" clip-rule="nonzero">
<path style=" stroke:none;fill-rule:nonzero;fill:rgb(90.19928%,90.19928%,90.19928%);fill-opacity:1;" d="M 125.386719 529.445312 C 125.386719 531.695312 127.222656 533.527344 129.476562 533.527344 C 131.734375 533.527344 133.566406 531.695312 133.566406 529.445312 C 133.566406 527.195312 131.734375 525.359375 129.476562 525.359375 C 127.222656 525.359375 125.386719 527.195312 125.386719 529.445312 "/>
</g>
<g clip-path="url(#clip7)" clip-rule="nonzero">
<path style=" stroke:none;fill-rule:nonzero;fill:rgb(90.19928%,90.19928%,90.19928%);fill-opacity:1;" d="M 125.386719 506.195312 C 125.386719 508.449219 127.222656 510.28125 129.476562 510.28125 C 131.734375 510.28125 133.566406 508.449219 133.566406 506.195312 C 133.566406 503.945312 131.734375 502.113281 129.476562 502.113281 C 127.222656 502.113281 125.386719 503.945312 125.386719 506.195312 "/>
</g>
<g clip-path="url(#clip8)" clip-rule="nonzero">
<path style=" stroke:none;fill-rule:nonzero;fill:rgb(90.19928%,90.19928%,90.19928%);fill-opacity:1;" d="M 125.386719 482.949219 C 125.386719 485.199219 127.222656 487.03125 129.476562 487.03125 C 131.734375 487.03125 133.566406 485.199219 133.566406 482.949219 C 133.566406 480.695312 131.734375 478.867188 129.476562 478.867188 C 127.222656 478.867188 125.386719 480.695312 125.386719 482.949219 "/>
</g>
<g clip-path="url(#clip9)" clip-rule="nonzero">
<path style=" stroke:none;fill-rule:nonzero;fill:rgb(90.19928%,90.19928%,90.19928%);fill-opacity:1;" d="M 125.386719 459.699219 C 125.386719 461.953125 127.222656 463.785156 129.476562 463.785156 C 131.734375 463.785156 133.566406 461.953125 133.566406 459.699219 C 133.566406 457.449219 131.734375 455.617188 129.476562 455.617188 C 127.222656 455.617188 125.386719 457.449219 125.386719 459.699219 "/>
</g>
<g clip-path="url(#clip10)" clip-rule="nonzero">
<path style=" stroke:none;fill-rule:nonzero;fill:rgb(90.19928%,90.19928%,90.19928%);fill-opacity:1;" d="M 125.386719 436.453125 C 125.386719 438.703125 127.222656 440.535156 129.476562 440.535156 C 131.734375 440.535156 133.566406 438.703125 133.566406 436.453125 C 133.566406 434.199219 131.734375 432.367188 129.476562 432.367188 C 127.222656 432.367188 125.386719 434.199219 125.386719 436.453125 "/>
</g>
<g clip-path="url(#clip11)" clip-rule="nonzero">
<path style=" stroke:none;fill-rule:nonzero;fill:rgb(90.19928%,90.19928%,90.19928%);fill-opacity:1;" d="M 125.386719 413.203125 C 125.386719 415.453125 127.222656 417.289062 129.476562 417.289062 C 131.734375 417.289062 133.566406 415.453125 133.566406 413.203125 C 133.566406 410.953125 131.734375 409.121094 129.476562 409.121094 C 127.222656 409.121094 125.386719 410.953125 125.386719 413.203125 "/>
</g>
<g clip-path="url(#clip12)" clip-rule="nonzero">
<path style=" stroke:none;fill-rule:nonzero;fill:rgb(90.19928%,90.19928%,90.19928%);fill-opacity:1;" d="M 125.386719 389.957031 C 125.386719 392.207031 127.222656 394.039062 129.476562 394.039062 C 131.734375 394.039062 133.566406 392.207031 133.566406 389.957031 C 133.566406 387.703125 131.734375 385.871094 129.476562 385.871094 C 127.222656 385.871094 125.386719 387.703125 125.386719 389.957031 "/>
</g>
<path style=" stroke:none;fill-rule:nonzero;fill:rgb(90.19928%,90.19928%,90.19928%);fill-opacity:1;" d="M 9.101562 366.71875 C 9.101562 368.96875 10.9375 370.800781 13.191406 370.800781 C 15.449219 370.800781 17.285156 368.96875 17.285156 366.71875 C 17.285156 364.464844 15.449219 362.632812 13.191406 362.632812 C 10.9375 362.632812 9.101562 364.464844 9.101562 366.71875 "/>
<path style=" stroke:none;fill-rule:nonzero;fill:rgb(90.19928%,90.19928%,90.19928%);fill-opacity:1;" d="M 9.101562 343.46875 C 9.101562 345.71875 10.9375 347.550781 13.191406 347.550781 C 15.449219 347.550781 17.285156 345.71875 17.285156 343.46875 C 17.285156 341.214844 15.449219 339.386719 13.191406 339.386719 C 10.9375 339.386719 9.101562 341.214844 9.101562 343.46875 "/>
<path style=" stroke:none;fill-rule:nonzero;fill:rgb(90.19928%,90.19928%,90.19928%);fill-opacity:1;" d="M 9.101562 320.21875 C 9.101562 322.472656 10.9375 324.304688 13.191406 324.304688 C 15.449219 324.304688 17.285156 322.472656 17.285156 320.21875 C 17.285156 317.96875 15.449219 316.136719 13.191406 316.136719 C 10.9375 316.136719 9.101562 317.96875 9.101562 320.21875 "/>
<path style=" stroke:none;fill-rule:nonzero;fill:rgb(90.19928%,90.19928%,90.19928%);fill-opacity:1;" d="M 9.101562 296.972656 C 9.101562 299.222656 10.9375 301.054688 13.191406 301.054688 C 15.449219 301.054688 17.285156 299.222656 17.285156 296.972656 C 17.285156 294.71875 15.449219 292.886719 13.191406 292.886719 C 10.9375 292.886719 9.101562 294.71875 9.101562 296.972656 "/>
<path style=" stroke:none;fill-rule:nonzero;fill:rgb(90.19928%,90.19928%,90.19928%);fill-opacity:1;" d="M 9.101562 273.722656 C 9.101562 275.976562 10.9375 277.808594 13.191406 277.808594 C 15.449219 277.808594 17.285156 275.976562 17.285156 273.722656 C 17.285156 271.472656 15.449219 269.640625 13.191406 269.640625 C 10.9375 269.640625 9.101562 271.472656 9.101562 273.722656 "/>
<path style=" stroke:none;fill-rule:nonzero;fill:rgb(90.19928%,90.19928%,90.19928%);fill-opacity:1;" d="M 9.101562 250.476562 C 9.101562 252.726562 10.9375 254.558594 13.191406 254.558594 C 15.449219 254.558594 17.285156 252.726562 17.285156 250.476562 C 17.285156 248.222656 15.449219 246.390625 13.191406 246.390625 C 10.9375 246.390625 9.101562 248.222656 9.101562 250.476562 "/>
<g clip-path="url(#clip13)" clip-rule="nonzero">
<path style=" stroke:none;fill-rule:nonzero;fill:rgb(90.19928%,90.19928%,90.19928%);fill-opacity:1;" d="M 9.101562 227.226562 C 9.101562 229.476562 10.9375 231.3125 13.191406 231.3125 C 15.449219 231.3125 17.285156 229.476562 17.285156 227.226562 C 17.285156 224.976562 15.449219 223.144531 13.191406 223.144531 C 10.9375 223.144531 9.101562 224.976562 9.101562 227.226562 "/>
</g>
<path style=" stroke:none;fill-rule:nonzero;fill:rgb(90.19928%,90.19928%,90.19928%);fill-opacity:1;" d="M 32.242188 366.71875 C 32.242188 368.96875 34.074219 370.800781 36.332031 370.800781 C 38.585938 370.800781 40.421875 368.96875 40.421875 366.71875 C 40.421875 364.464844 38.585938 362.632812 36.332031 362.632812 C 34.074219 362.632812 32.242188 364.464844 32.242188 366.71875 "/>
<path style=" stroke:none;fill-rule:nonzero;fill:rgb(90.19928%,90.19928%,90.19928%);fill-opacity:1;" d="M 32.242188 343.46875 C 32.242188 345.71875 34.074219 347.550781 36.332031 347.550781 C 38.585938 347.550781 40.421875 345.71875 40.421875 343.46875 C 40.421875 341.214844 38.585938 339.386719 36.332031 339.386719 C 34.074219 339.386719 32.242188 341.214844 32.242188 343.46875 "/>
<path style=" stroke:none;fill-rule:nonzero;fill:rgb(90.19928%,90.19928%,90.19928%);fill-opacity:1;" d="M 32.242188 320.21875 C 32.242188 322.472656 34.074219 324.304688 36.332031 324.304688 C 38.585938 324.304688 40.421875 322.472656 40.421875 320.21875 C 40.421875 317.96875 38.585938 316.136719 36.332031 316.136719 C 34.074219 316.136719 32.242188 317.96875 32.242188 320.21875 "/>
<path style=" stroke:none;fill-rule:nonzero;fill:rgb(90.19928%,90.19928%,90.19928%);fill-opacity:1;" d="M 32.242188 296.972656 C 32.242188 299.222656 34.074219 301.054688 36.332031 301.054688 C 38.585938 301.054688 40.421875 299.222656 40.421875 296.972656 C 40.421875 294.71875 38.585938 292.886719 36.332031 292.886719 C 34.074219 292.886719 32.242188 294.71875 32.242188 296.972656 "/>
<path style=" stroke:none;fill-rule:nonzero;fill:rgb(90.19928%,90.19928%,90.19928%);fill-opacity:1;" d="M 32.242188 273.722656 C 32.242188 275.976562 34.074219 277.808594 36.332031 277.808594 C 38.585938 277.808594 40.421875 275.976562 40.421875 273.722656 C 40.421875 271.472656 38.585938 269.640625 36.332031 269.640625 C 34.074219 269.640625 32.242188 271.472656 32.242188 273.722656 "/>
<path style=" stroke:none;fill-rule:nonzero;fill:rgb(90.19928%,90.19928%,90.19928%);fill-opacity:1;" d="M 32.242188 250.476562 C 32.242188 252.726562 34.074219 254.558594 36.332031 254.558594 C 38.585938 254.558594 40.421875 252.726562 40.421875 250.476562 C 40.421875 248.222656 38.585938 246.390625 36.332031 246.390625 C 34.074219 246.390625 32.242188 248.222656 32.242188 250.476562 "/>
<g clip-path="url(#clip14)" clip-rule="nonzero">
<path style=" stroke:none;fill-rule:nonzero;fill:rgb(90.19928%,90.19928%,90.19928%);fill-opacity:1;" d="M 32.242188 227.226562 C 32.242188 229.476562 34.074219 231.3125 36.332031 231.3125 C 38.585938 231.3125 40.421875 229.476562 40.421875 227.226562 C 40.421875 224.976562 38.585938 223.144531 36.332031 223.144531 C 34.074219 223.144531 32.242188 224.976562 32.242188 227.226562 "/>
</g>
<path style=" stroke:none;fill-rule:nonzero;fill:rgb(90.19928%,90.19928%,90.19928%);fill-opacity:1;" d="M 55.527344 366.71875 C 55.527344 368.96875 57.363281 370.800781 59.621094 370.800781 C 61.875 370.800781 63.710938 368.96875 63.710938 366.71875 C 63.710938 364.464844 61.875 362.632812 59.621094 362.632812 C 57.363281 362.632812 55.527344 364.464844 55.527344 366.71875 "/>
<path style=" stroke:none;fill-rule:nonzero;fill:rgb(90.19928%,90.19928%,90.19928%);fill-opacity:1;" d="M 55.527344 343.46875 C 55.527344 345.71875 57.363281 347.550781 59.621094 347.550781 C 61.875 347.550781 63.710938 345.71875 63.710938 343.46875 C 63.710938 341.214844 61.875 339.386719 59.621094 339.386719 C 57.363281 339.386719 55.527344 341.214844 55.527344 343.46875 "/>
<path style=" stroke:none;fill-rule:nonzero;fill:rgb(90.19928%,90.19928%,90.19928%);fill-opacity:1;" d="M 55.527344 320.21875 C 55.527344 322.472656 57.363281 324.304688 59.621094 324.304688 C 61.875 324.304688 63.710938 322.472656 63.710938 320.21875 C 63.710938 317.96875 61.875 316.136719 59.621094 316.136719 C 57.363281 316.136719 55.527344 317.96875 55.527344 320.21875 "/>
<path style=" stroke:none;fill-rule:nonzero;fill:rgb(90.19928%,90.19928%,90.19928%);fill-opacity:1;" d="M 55.527344 296.972656 C 55.527344 299.222656 57.363281 301.054688 59.621094 301.054688 C 61.875 301.054688 63.710938 299.222656 63.710938 296.972656 C 63.710938 294.71875 61.875 292.886719 59.621094 292.886719 C 57.363281 292.886719 55.527344 294.71875 55.527344 296.972656 "/>
<path style=" stroke:none;fill-rule:nonzero;fill:rgb(90.19928%,90.19928%,90.19928%);fill-opacity:1;" d="M 55.527344 273.722656 C 55.527344 275.976562 57.363281 277.808594 59.621094 277.808594 C 61.875 277.808594 63.710938 275.976562 63.710938 273.722656 C 63.710938 271.472656 61.875 269.640625 59.621094 269.640625 C 57.363281 269.640625 55.527344 271.472656 55.527344 273.722656 "/>
<path style=" stroke:none;fill-rule:nonzero;fill:rgb(90.19928%,90.19928%,90.19928%);fill-opacity:1;" d="M 55.527344 250.476562 C 55.527344 252.726562 57.363281 254.558594 59.621094 254.558594 C 61.875 254.558594 63.710938 252.726562 63.710938 250.476562 C 63.710938 248.222656 61.875 246.390625 59.621094 246.390625 C 57.363281 246.390625 55.527344 248.222656 55.527344 250.476562 "/>
<g clip-path="url(#clip15)" clip-rule="nonzero">
<path style=" stroke:none;fill-rule:nonzero;fill:rgb(90.19928%,90.19928%,90.19928%);fill-opacity:1;" d="M 55.527344 227.226562 C 55.527344 229.476562 57.363281 231.3125 59.621094 231.3125 C 61.875 231.3125 63.710938 229.476562 63.710938 227.226562 C 63.710938 224.976562 61.875 223.144531 59.621094 223.144531 C 57.363281 223.144531 55.527344 224.976562 55.527344 227.226562 "/>
</g>
<path style=" stroke:none;fill-rule:nonzero;fill:rgb(90.19928%,90.19928%,90.19928%);fill-opacity:1;" d="M 78.8125 366.71875 C 78.8125 368.96875 80.648438 370.800781 82.90625 370.800781 C 85.160156 370.800781 86.996094 368.96875 86.996094 366.71875 C 86.996094 364.464844 85.160156 362.632812 82.90625 362.632812 C 80.648438 362.632812 78.8125 364.464844 78.8125 366.71875 "/>
<path style=" stroke:none;fill-rule:nonzero;fill:rgb(90.19928%,90.19928%,90.19928%);fill-opacity:1;" d="M 78.8125 343.46875 C 78.8125 345.71875 80.648438 347.550781 82.90625 347.550781 C 85.160156 347.550781 86.996094 345.71875 86.996094 343.46875 C 86.996094 341.214844 85.160156 339.386719 82.90625 339.386719 C 80.648438 339.386719 78.8125 341.214844 78.8125 343.46875 "/>
<path style=" stroke:none;fill-rule:nonzero;fill:rgb(90.19928%,90.19928%,90.19928%);fill-opacity:1;" d="M 78.8125 320.21875 C 78.8125 322.472656 80.648438 324.304688 82.90625 324.304688 C 85.160156 324.304688 86.996094 322.472656 86.996094 320.21875 C 86.996094 317.96875 85.160156 316.136719 82.90625 316.136719 C 80.648438 316.136719 78.8125 317.96875 78.8125 320.21875 "/>
<path style=" stroke:none;fill-rule:nonzero;fill:rgb(90.19928%,90.19928%,90.19928%);fill-opacity:1;" d="M 78.8125 296.972656 C 78.8125 299.222656 80.648438 301.054688 82.90625 301.054688 C 85.160156 301.054688 86.996094 299.222656 86.996094 296.972656 C 86.996094 294.71875 85.160156 292.886719 82.90625 292.886719 C 80.648438 292.886719 78.8125 294.71875 78.8125 296.972656 "/>
<path style=" stroke:none;fill-rule:nonzero;fill:rgb(90.19928%,90.19928%,90.19928%);fill-opacity:1;" d="M 78.8125 273.722656 C 78.8125 275.976562 80.648438 277.808594 82.90625 277.808594 C 85.160156 277.808594 86.996094 275.976562 86.996094 273.722656 C 86.996094 271.472656 85.160156 269.640625 82.90625 269.640625 C 80.648438 269.640625 78.8125 271.472656 78.8125 273.722656 "/>
<path style=" stroke:none;fill-rule:nonzero;fill:rgb(90.19928%,90.19928%,90.19928%);fill-opacity:1;" d="M 78.8125 250.476562 C 78.8125 252.726562 80.648438 254.558594 82.90625 254.558594 C 85.160156 254.558594 86.996094 252.726562 86.996094 250.476562 C 86.996094 248.222656 85.160156 246.390625 82.90625 246.390625 C 80.648438 246.390625 78.8125 248.222656 78.8125 250.476562 "/>
<g clip-path="url(#clip16)" clip-rule="nonzero">
<path style=" stroke:none;fill-rule:nonzero;fill:rgb(90.19928%,90.19928%,90.19928%);fill-opacity:1;" d="M 78.8125 227.226562 C 78.8125 229.476562 80.648438 231.3125 82.90625 231.3125 C 85.160156 231.3125 86.996094 229.476562 86.996094 227.226562 C 86.996094 224.976562 85.160156 223.144531 82.90625 223.144531 C 80.648438 223.144531 78.8125 224.976562 78.8125 227.226562 "/>
</g>
<path style=" stroke:none;fill-rule:nonzero;fill:rgb(90.19928%,90.19928%,90.19928%);fill-opacity:1;" d="M 101.953125 366.71875 C 101.953125 368.96875 103.785156 370.800781 106.042969 370.800781 C 108.296875 370.800781 110.132812 368.96875 110.132812 366.71875 C 110.132812 364.464844 108.296875 362.632812 106.042969 362.632812 C 103.785156 362.632812 101.953125 364.464844 101.953125 366.71875 "/>
<path style=" stroke:none;fill-rule:nonzero;fill:rgb(90.19928%,90.19928%,90.19928%);fill-opacity:1;" d="M 101.953125 343.46875 C 101.953125 345.71875 103.785156 347.550781 106.042969 347.550781 C 108.296875 347.550781 110.132812 345.71875 110.132812 343.46875 C 110.132812 341.214844 108.296875 339.386719 106.042969 339.386719 C 103.785156 339.386719 101.953125 341.214844 101.953125 343.46875 "/>
<path style=" stroke:none;fill-rule:nonzero;fill:rgb(90.19928%,90.19928%,90.19928%);fill-opacity:1;" d="M 101.953125 320.21875 C 101.953125 322.472656 103.785156 324.304688 106.042969 324.304688 C 108.296875 324.304688 110.132812 322.472656 110.132812 320.21875 C 110.132812 317.96875 108.296875 316.136719 106.042969 316.136719 C 103.785156 316.136719 101.953125 317.96875 101.953125 320.21875 "/>
<path style=" stroke:none;fill-rule:nonzero;fill:rgb(90.19928%,90.19928%,90.19928%);fill-opacity:1;" d="M 101.953125 296.972656 C 101.953125 299.222656 103.785156 301.054688 106.042969 301.054688 C 108.296875 301.054688 110.132812 299.222656 110.132812 296.972656 C 110.132812 294.71875 108.296875 292.886719 106.042969 292.886719 C 103.785156 292.886719 101.953125 294.71875 101.953125 296.972656 "/>
<path style=" stroke:none;fill-rule:nonzero;fill:rgb(90.19928%,90.19928%,90.19928%);fill-opacity:1;" d="M 101.953125 273.722656 C 101.953125 275.976562 103.785156 277.808594 106.042969 277.808594 C 108.296875 277.808594 110.132812 275.976562 110.132812 273.722656 C 110.132812 271.472656 108.296875 269.640625 106.042969 269.640625 C 103.785156 269.640625 101.953125 271.472656 101.953125 273.722656 "/>
<path style=" stroke:none;fill-rule:nonzero;fill:rgb(90.19928%,90.19928%,90.19928%);fill-opacity:1;" d="M 101.953125 250.476562 C 101.953125 252.726562 103.785156 254.558594 106.042969 254.558594 C 108.296875 254.558594 110.132812 252.726562 110.132812 250.476562 C 110.132812 248.222656 108.296875 246.390625 106.042969 246.390625 C 103.785156 246.390625 101.953125 248.222656 101.953125 250.476562 "/>
<g clip-path="url(#clip17)" clip-rule="nonzero">
<path style=" stroke:none;fill-rule:nonzero;fill:rgb(90.19928%,90.19928%,90.19928%);fill-opacity:1;" d="M 101.953125 227.226562 C 101.953125 229.476562 103.785156 231.3125 106.042969 231.3125 C 108.296875 231.3125 110.132812 229.476562 110.132812 227.226562 C 110.132812 224.976562 108.296875 223.144531 106.042969 223.144531 C 103.785156 223.144531 101.953125 224.976562 101.953125 227.226562 "/>
</g>
<g clip-path="url(#clip18)" clip-rule="nonzero">
<path style=" stroke:none;fill-rule:nonzero;fill:rgb(90.19928%,90.19928%,90.19928%);fill-opacity:1;" d="M 125.386719 366.71875 C 125.386719 368.96875 127.222656 370.800781 129.476562 370.800781 C 131.734375 370.800781 133.566406 368.96875 133.566406 366.71875 C 133.566406 364.464844 131.734375 362.632812 129.476562 362.632812 C 127.222656 362.632812 125.386719 364.464844 125.386719 366.71875 "/>
</g>
<g clip-path="url(#clip19)" clip-rule="nonzero">
<path style=" stroke:none;fill-rule:nonzero;fill:rgb(90.19928%,90.19928%,90.19928%);fill-opacity:1;" d="M 125.386719 343.46875 C 125.386719 345.71875 127.222656 347.550781 129.476562 347.550781 C 131.734375 347.550781 133.566406 345.71875 133.566406 343.46875 C 133.566406 341.214844 131.734375 339.386719 129.476562 339.386719 C 127.222656 339.386719 125.386719 341.214844 125.386719 343.46875 "/>
</g>
<g clip-path="url(#clip20)" clip-rule="nonzero">
<path style=" stroke:none;fill-rule:nonzero;fill:rgb(90.19928%,90.19928%,90.19928%);fill-opacity:1;" d="M 125.386719 320.21875 C 125.386719 322.472656 127.222656 324.304688 129.476562 324.304688 C 131.734375 324.304688 133.566406 322.472656 133.566406 320.21875 C 133.566406 317.96875 131.734375 316.136719 129.476562 316.136719 C 127.222656 316.136719 125.386719 317.96875 125.386719 320.21875 "/>
</g>
<g clip-path="url(#clip21)" clip-rule="nonzero">
<path style=" stroke:none;fill-rule:nonzero;fill:rgb(90.19928%,90.19928%,90.19928%);fill-opacity:1;" d="M 125.386719 296.972656 C 125.386719 299.222656 127.222656 301.054688 129.476562 301.054688 C 131.734375 301.054688 133.566406 299.222656 133.566406 296.972656 C 133.566406 294.71875 131.734375 292.886719 129.476562 292.886719 C 127.222656 292.886719 125.386719 294.71875 125.386719 296.972656 "/>
</g>
<g clip-path="url(#clip22)" clip-rule="nonzero">
<path style=" stroke:none;fill-rule:nonzero;fill:rgb(90.19928%,90.19928%,90.19928%);fill-opacity:1;" d="M 125.386719 273.722656 C 125.386719 275.976562 127.222656 277.808594 129.476562 277.808594 C 131.734375 277.808594 133.566406 275.976562 133.566406 273.722656 C 133.566406 271.472656 131.734375 269.640625 129.476562 269.640625 C 127.222656 269.640625 125.386719 271.472656 125.386719 273.722656 "/>
</g>
<g clip-path="url(#clip23)" clip-rule="nonzero">
<path style=" stroke:none;fill-rule:nonzero;fill:rgb(90.19928%,90.19928%,90.19928%);fill-opacity:1;" d="M 125.386719 250.476562 C 125.386719 252.726562 127.222656 254.558594 129.476562 254.558594 C 131.734375 254.558594 133.566406 252.726562 133.566406 250.476562 C 133.566406 248.222656 131.734375 246.390625 129.476562 246.390625 C 127.222656 246.390625 125.386719 248.222656 125.386719 250.476562 "/>
</g>
<g clip-path="url(#clip24)" clip-rule="nonzero">
<path style=" stroke:none;fill-rule:nonzero;fill:rgb(90.19928%,90.19928%,90.19928%);fill-opacity:1;" d="M 125.386719 227.226562 C 125.386719 229.476562 127.222656 231.3125 129.476562 231.3125 C 131.734375 231.3125 133.566406 229.476562 133.566406 227.226562 C 133.566406 224.976562 131.734375 223.144531 129.476562 223.144531 C 127.222656 223.144531 125.386719 224.976562 125.386719 227.226562 "/>
</g>
</g>
</svg>
