<?xml version="1.0" encoding="UTF-8"?>
<svg xmlns="http://www.w3.org/2000/svg" xmlns:xlink="http://www.w3.org/1999/xlink" width="1440pt" height="599.999999pt" viewBox="0 0 1440 599.999999" version="1.2">
<defs>
<clipPath id="clip1">
  <path d="M 851 592 L 902 592 L 902 600 L 851 600 Z M 851 592 "/>
</clipPath>
<clipPath id="clip2">
  <path d="M 699.398438 497.261719 L 980.453125 652.335938 L 812.699219 956.375 L 531.640625 801.300781 Z M 699.398438 497.261719 "/>
</clipPath>
<clipPath id="clip3">
  <path d="M 701.378906 493.671875 L 982.433594 648.746094 L 810.691406 960.007812 L 529.636719 804.933594 Z M 701.378906 493.671875 "/>
</clipPath>
<clipPath id="clip4">
  <path d="M 750 548 L 789 548 L 789 589 L 750 589 Z M 750 548 "/>
</clipPath>
<clipPath id="clip5">
  <path d="M 699.398438 497.261719 L 980.453125 652.335938 L 812.699219 956.375 L 531.640625 801.300781 Z M 699.398438 497.261719 "/>
</clipPath>
<clipPath id="clip6">
  <path d="M 701.378906 493.671875 L 982.433594 648.746094 L 810.691406 960.007812 L 529.636719 804.933594 Z M 701.378906 493.671875 "/>
</clipPath>
<clipPath id="clip7">
  <path d="M 654 557 L 695 557 L 695 600 L 654 600 Z M 654 557 "/>
</clipPath>
<clipPath id="clip8">
  <path d="M 699.398438 497.261719 L 980.453125 652.335938 L 812.699219 956.375 L 531.640625 801.300781 Z M 699.398438 497.261719 "/>
</clipPath>
<clipPath id="clip9">
  <path d="M 701.378906 493.671875 L 982.433594 648.746094 L 810.691406 960.007812 L 529.636719 804.933594 Z M 701.378906 493.671875 "/>
</clipPath>
<clipPath id="clip10">
  <path d="M 78 381.539062 L 327 381.539062 L 327 437.789062 L 78 437.789062 Z M 78 381.539062 "/>
</clipPath>
<clipPath id="clip11">
  <path d="M 869 29 L 889 29 L 889 49 L 869 49 Z M 869 29 "/>
</clipPath>
<clipPath id="clip12">
  <path d="M 898.335938 -41.777344 L 880.441406 82.1875 L 746.085938 62.792969 L 763.980469 -61.171875 Z M 898.335938 -41.777344 "/>
</clipPath>
<clipPath id="clip13">
  <path d="M 900 -41.539062 L 882.101562 82.425781 L 744.777344 62.601562 L 762.671875 -61.363281 Z M 900 -41.539062 "/>
</clipPath>
<clipPath id="clip14">
  <path d="M 874 0 L 890 0 L 890 2 L 874 2 Z M 874 0 "/>
</clipPath>
<clipPath id="clip15">
  <path d="M 898.335938 -41.777344 L 880.441406 82.1875 L 746.085938 62.792969 L 763.980469 -61.171875 Z M 898.335938 -41.777344 "/>
</clipPath>
<clipPath id="clip16">
  <path d="M 900 -41.539062 L 882.101562 82.425781 L 744.777344 62.601562 L 762.671875 -61.363281 Z M 900 -41.539062 "/>
</clipPath>
<clipPath id="clip17">
  <path d="M 841 56 L 859 56 L 859 73 L 841 73 Z M 841 56 "/>
</clipPath>
<clipPath id="clip18">
  <path d="M 898.335938 -41.777344 L 880.441406 82.1875 L 746.085938 62.792969 L 763.980469 -61.171875 Z M 898.335938 -41.777344 "/>
</clipPath>
<clipPath id="clip19">
  <path d="M 900 -41.539062 L 882.101562 82.425781 L 744.777344 62.601562 L 762.671875 -61.363281 Z M 900 -41.539062 "/>
</clipPath>
<clipPath id="clip20">
  <path d="M 843 17 L 863 17 L 863 38 L 843 38 Z M 843 17 "/>
</clipPath>
<clipPath id="clip21">
  <path d="M 898.335938 -41.777344 L 880.441406 82.1875 L 746.085938 62.792969 L 763.980469 -61.171875 Z M 898.335938 -41.777344 "/>
</clipPath>
<clipPath id="clip22">
  <path d="M 900 -41.539062 L 882.101562 82.425781 L 744.777344 62.601562 L 762.671875 -61.363281 Z M 900 -41.539062 "/>
</clipPath>
<clipPath id="clip23">
  <path d="M 837 0 L 858 0 L 858 4 L 837 4 Z M 837 0 "/>
</clipPath>
<clipPath id="clip24">
  <path d="M 898.335938 -41.777344 L 880.441406 82.1875 L 746.085938 62.792969 L 763.980469 -61.171875 Z M 898.335938 -41.777344 "/>
</clipPath>
<clipPath id="clip25">
  <path d="M 900 -41.539062 L 882.101562 82.425781 L 744.777344 62.601562 L 762.671875 -61.363281 Z M 900 -41.539062 "/>
</clipPath>
<clipPath id="clip26">
  <path d="M 821 35 L 833 35 L 833 48 L 821 48 Z M 821 35 "/>
</clipPath>
<clipPath id="clip27">
  <path d="M 898.335938 -41.777344 L 880.441406 82.1875 L 746.085938 62.792969 L 763.980469 -61.171875 Z M 898.335938 -41.777344 "/>
</clipPath>
<clipPath id="clip28">
  <path d="M 900 -41.539062 L 882.101562 82.425781 L 744.777344 62.601562 L 762.671875 -61.363281 Z M 900 -41.539062 "/>
</clipPath>
<clipPath id="clip29">
  <path d="M 815 61 L 827 61 L 827 74 L 815 74 Z M 815 61 "/>
</clipPath>
<clipPath id="clip30">
  <path d="M 898.335938 -41.777344 L 880.441406 82.1875 L 746.085938 62.792969 L 763.980469 -61.171875 Z M 898.335938 -41.777344 "/>
</clipPath>
<clipPath id="clip31">
  <path d="M 900 -41.539062 L 882.101562 82.425781 L 744.777344 62.601562 L 762.671875 -61.363281 Z M 900 -41.539062 "/>
</clipPath>
<clipPath id="clip32">
  <path d="M 813 2 L 830 2 L 830 20 L 813 20 Z M 813 2 "/>
</clipPath>
<clipPath id="clip33">
  <path d="M 898.335938 -41.777344 L 880.441406 82.1875 L 746.085938 62.792969 L 763.980469 -61.171875 Z M 898.335938 -41.777344 "/>
</clipPath>
<clipPath id="clip34">
  <path d="M 900 -41.539062 L 882.101562 82.425781 L 744.777344 62.601562 L 762.671875 -61.363281 Z M 900 -41.539062 "/>
</clipPath>
<clipPath id="clip35">
  <path d="M 791 21 L 809 21 L 809 38 L 791 38 Z M 791 21 "/>
</clipPath>
<clipPath id="clip36">
  <path d="M 898.335938 -41.777344 L 880.441406 82.1875 L 746.085938 62.792969 L 763.980469 -61.171875 Z M 898.335938 -41.777344 "/>
</clipPath>
<clipPath id="clip37">
  <path d="M 900 -41.539062 L 882.101562 82.425781 L 744.777344 62.601562 L 762.671875 -61.363281 Z M 900 -41.539062 "/>
</clipPath>
<clipPath id="clip38">
  <path d="M 790 50 L 806 50 L 806 65 L 790 65 Z M 790 50 "/>
</clipPath>
<clipPath id="clip39">
  <path d="M 898.335938 -41.777344 L 880.441406 82.1875 L 746.085938 62.792969 L 763.980469 -61.171875 Z M 898.335938 -41.777344 "/>
</clipPath>
<clipPath id="clip40">
  <path d="M 900 -41.539062 L 882.101562 82.425781 L 744.777344 62.601562 L 762.671875 -61.363281 Z M 900 -41.539062 "/>
</clipPath>
<clipPath id="clip41">
  <path d="M 777 0 L 790 0 L 790 14 L 777 14 Z M 777 0 "/>
</clipPath>
<clipPath id="clip42">
  <path d="M 898.335938 -41.777344 L 880.441406 82.1875 L 746.085938 62.792969 L 763.980469 -61.171875 Z M 898.335938 -41.777344 "/>
</clipPath>
<clipPath id="clip43">
  <path d="M 900 -41.539062 L 882.101562 82.425781 L 744.777344 62.601562 L 762.671875 -61.363281 Z M 900 -41.539062 "/>
</clipPath>
<clipPath id="clip44">
  <path d="M 759 21 L 778 21 L 778 40 L 759 40 Z M 759 21 "/>
</clipPath>
<clipPath id="clip45">
  <path d="M 898.335938 -41.777344 L 880.441406 82.1875 L 746.085938 62.792969 L 763.980469 -61.171875 Z M 898.335938 -41.777344 "/>
</clipPath>
<clipPath id="clip46">
  <path d="M 900 -41.539062 L 882.101562 82.425781 L 744.777344 62.601562 L 762.671875 -61.363281 Z M 900 -41.539062 "/>
</clipPath>
<clipPath id="clip47">
  <path d="M 755 0 L 765 0 L 765 8 L 755 8 Z M 755 0 "/>
</clipPath>
<clipPath id="clip48">
  <path d="M 898.335938 -41.777344 L 880.441406 82.1875 L 746.085938 62.792969 L 763.980469 -61.171875 Z M 898.335938 -41.777344 "/>
</clipPath>
<clipPath id="clip49">
  <path d="M 900 -41.539062 L 882.101562 82.425781 L 744.777344 62.601562 L 762.671875 -61.363281 Z M 900 -41.539062 "/>
</clipPath>
<clipPath id="clip50">
  <path d="M 1425 133 L 1440 133 L 1440 174 L 1425 174 Z M 1425 133 "/>
</clipPath>
<clipPath id="clip51">
  <path d="M 1374.34375 82.089844 L 1655.398438 237.164062 L 1487.644531 541.207031 L 1206.585938 386.132812 Z M 1374.34375 82.089844 "/>
</clipPath>
<clipPath id="clip52">
  <path d="M 1376.324219 78.5 L 1657.378906 233.574219 L 1485.640625 544.839844 L 1204.582031 389.765625 Z M 1376.324219 78.5 "/>
</clipPath>
<clipPath id="clip53">
  <path d="M 1329 142 L 1370 142 L 1370 200 L 1329 200 Z M 1329 142 "/>
</clipPath>
<clipPath id="clip54">
  <path d="M 1374.34375 82.089844 L 1655.398438 237.164062 L 1487.644531 541.207031 L 1206.585938 386.132812 Z M 1374.34375 82.089844 "/>
</clipPath>
<clipPath id="clip55">
  <path d="M 1376.324219 78.5 L 1657.378906 233.574219 L 1485.640625 544.839844 L 1204.582031 389.765625 Z M 1376.324219 78.5 "/>
</clipPath>
<clipPath id="clip56">
  <path d="M 1384 206 L 1440 206 L 1440 262 L 1384 262 Z M 1384 206 "/>
</clipPath>
<clipPath id="clip57">
  <path d="M 1374.34375 82.089844 L 1655.398438 237.164062 L 1487.644531 541.207031 L 1206.585938 386.132812 Z M 1374.34375 82.089844 "/>
</clipPath>
<clipPath id="clip58">
  <path d="M 1376.324219 78.5 L 1657.378906 233.574219 L 1485.640625 544.839844 L 1204.582031 389.765625 Z M 1376.324219 78.5 "/>
</clipPath>
<clipPath id="clip59">
  <path d="M 1409 292 L 1440 292 L 1440 335 L 1409 335 Z M 1409 292 "/>
</clipPath>
<clipPath id="clip60">
  <path d="M 1374.34375 82.089844 L 1655.398438 237.164062 L 1487.644531 541.207031 L 1206.585938 386.132812 Z M 1374.34375 82.089844 "/>
</clipPath>
<clipPath id="clip61">
  <path d="M 1376.324219 78.5 L 1657.378906 233.574219 L 1485.640625 544.839844 L 1204.582031 389.765625 Z M 1376.324219 78.5 "/>
</clipPath>
<clipPath id="clip62">
  <path d="M 1296 236 L 1342 236 L 1342 294 L 1296 294 Z M 1296 236 "/>
</clipPath>
<clipPath id="clip63">
  <path d="M 1374.34375 82.089844 L 1655.398438 237.164062 L 1487.644531 541.207031 L 1206.585938 386.132812 Z M 1374.34375 82.089844 "/>
</clipPath>
<clipPath id="clip64">
  <path d="M 1376.324219 78.5 L 1657.378906 233.574219 L 1485.640625 544.839844 L 1204.582031 389.765625 Z M 1376.324219 78.5 "/>
</clipPath>
<clipPath id="clip65">
  <path d="M 1435 360 L 1440 360 L 1440 404 L 1435 404 Z M 1435 360 "/>
</clipPath>
<clipPath id="clip66">
  <path d="M 1374.34375 82.089844 L 1655.398438 237.164062 L 1487.644531 541.207031 L 1206.585938 386.132812 Z M 1374.34375 82.089844 "/>
</clipPath>
<clipPath id="clip67">
  <path d="M 1376.324219 78.5 L 1657.378906 233.574219 L 1485.640625 544.839844 L 1204.582031 389.765625 Z M 1376.324219 78.5 "/>
</clipPath>
<clipPath id="clip68">
  <path d="M 1325 327 L 1361 327 L 1361 368 L 1325 368 Z M 1325 327 "/>
</clipPath>
<clipPath id="clip69">
  <path d="M 1374.34375 82.089844 L 1655.398438 237.164062 L 1487.644531 541.207031 L 1206.585938 386.132812 Z M 1374.34375 82.089844 "/>
</clipPath>
<clipPath id="clip70">
  <path d="M 1376.324219 78.5 L 1657.378906 233.574219 L 1485.640625 544.839844 L 1204.582031 389.765625 Z M 1376.324219 78.5 "/>
</clipPath>
<clipPath id="clip71">
  <path d="M 1246 317 L 1288 317 L 1288 360 L 1246 360 Z M 1246 317 "/>
</clipPath>
<clipPath id="clip72">
  <path d="M 1374.34375 82.089844 L 1655.398438 237.164062 L 1487.644531 541.207031 L 1206.585938 386.132812 Z M 1374.34375 82.089844 "/>
</clipPath>
<clipPath id="clip73">
  <path d="M 1376.324219 78.5 L 1657.378906 233.574219 L 1485.640625 544.839844 L 1204.582031 389.765625 Z M 1376.324219 78.5 "/>
</clipPath>
<clipPath id="clip74">
  <path d="M 1367 383 L 1403 383 L 1403 417 L 1367 417 Z M 1367 383 "/>
</clipPath>
<clipPath id="clip75">
  <path d="M 1374.34375 82.089844 L 1655.398438 237.164062 L 1487.644531 541.207031 L 1206.585938 386.132812 Z M 1374.34375 82.089844 "/>
</clipPath>
<clipPath id="clip76">
  <path d="M 1376.324219 78.5 L 1657.378906 233.574219 L 1485.640625 544.839844 L 1204.582031 389.765625 Z M 1376.324219 78.5 "/>
</clipPath>
<clipPath id="clip77">
  <path d="M 1409 434 L 1440 434 L 1440 483 L 1409 483 Z M 1409 434 "/>
</clipPath>
<clipPath id="clip78">
  <path d="M 1374.34375 82.089844 L 1655.398438 237.164062 L 1487.644531 541.207031 L 1206.585938 386.132812 Z M 1374.34375 82.089844 "/>
</clipPath>
<clipPath id="clip79">
  <path d="M 1376.324219 78.5 L 1657.378906 233.574219 L 1485.640625 544.839844 L 1204.582031 389.765625 Z M 1376.324219 78.5 "/>
</clipPath>
<clipPath id="clip80">
  <path d="M 1271 386 L 1326 386 L 1326 437 L 1271 437 Z M 1271 386 "/>
</clipPath>
<clipPath id="clip81">
  <path d="M 1374.34375 82.089844 L 1655.398438 237.164062 L 1487.644531 541.207031 L 1206.585938 386.132812 Z M 1374.34375 82.089844 "/>
</clipPath>
<clipPath id="clip82">
  <path d="M 1376.324219 78.5 L 1657.378906 233.574219 L 1485.640625 544.839844 L 1204.582031 389.765625 Z M 1376.324219 78.5 "/>
</clipPath>
<clipPath id="clip83">
  <path d="M 1346 442 L 1370 442 L 1370 466 L 1346 466 Z M 1346 442 "/>
</clipPath>
<clipPath id="clip84">
  <path d="M 1374.34375 82.089844 L 1655.398438 237.164062 L 1487.644531 541.207031 L 1206.585938 386.132812 Z M 1374.34375 82.089844 "/>
</clipPath>
<clipPath id="clip85">
  <path d="M 1376.324219 78.5 L 1657.378906 233.574219 L 1485.640625 544.839844 L 1204.582031 389.765625 Z M 1376.324219 78.5 "/>
</clipPath>
</defs>
<g id="surface1">
<rect x="0" y="0" width="1440" height="599.999999" style="fill:rgb(100%,100%,100%);fill-opacity:1;stroke:none;"/>
<rect x="0" y="0" width="1440" height="599.999999" style="fill:rgb(100%,100%,100%);fill-opacity:1;stroke:none;"/>
<rect x="0" y="0" width="1440" height="599.999999" style="fill:rgb(93.728638%,43.139648%,17.649841%);fill-opacity:1;stroke:none;"/>
<g clip-path="url(#clip1)" clip-rule="nonzero">
<g clip-path="url(#clip2)" clip-rule="nonzero">
<g clip-path="url(#clip3)" clip-rule="nonzero">
<path style=" stroke:none;fill-rule:evenodd;fill:rgb(100%,100%,100%);fill-opacity:1;" d="M 885.289062 595.703125 C 917.242188 606.785156 894.992188 647.734375 871.230469 640.734375 C 856.328125 636.34375 848.464844 620.222656 852.683594 607.875 C 858.058594 592.136719 869.019531 590.058594 885.289062 595.703125 Z M 871.214844 609.484375 C 863.925781 617.285156 863.59375 625.144531 868.347656 628.371094 C 878.84375 635.496094 888.851562 615.074219 875.519531 607.546875 C 873.453125 613.054688 867.554688 613.398438 871.214844 609.484375 Z M 871.214844 609.484375 "/>
</g>
</g>
</g>
<g clip-path="url(#clip4)" clip-rule="nonzero">
<g clip-path="url(#clip5)" clip-rule="nonzero">
<g clip-path="url(#clip6)" clip-rule="nonzero">
<path style=" stroke:none;fill-rule:evenodd;fill:rgb(100%,100%,100%);fill-opacity:1;" d="M 787.925781 578.613281 C 780.976562 587.046875 772.722656 590.363281 764.753906 587.375 C 754.523438 583.53125 756.054688 573.222656 750.832031 565.6875 C 753.15625 556.074219 762.59375 552.546875 768.839844 548.691406 C 781.238281 556.050781 790.035156 565.402344 787.925781 578.613281 Z M 787.925781 578.613281 "/>
</g>
</g>
</g>
<g clip-path="url(#clip7)" clip-rule="nonzero">
<g clip-path="url(#clip8)" clip-rule="nonzero">
<g clip-path="url(#clip9)" clip-rule="nonzero">
<path style=" stroke:none;fill-rule:evenodd;fill:rgb(100%,100%,100%);fill-opacity:1;" d="M 688.152344 579.582031 C 685.171875 580.476562 682.023438 580.820312 678.429688 579.601562 C 671.769531 584.507812 665.390625 593.589844 669.976562 600.796875 C 670.117188 595.199219 674.828125 585.550781 682.109375 582.710938 C 702.417969 584.597656 694.722656 605.945312 683.777344 614.871094 C 673.8125 614.785156 667.242188 615.226562 661.941406 611.445312 C 643.410156 598.203125 662.96875 549.453125 683.492188 558.695312 C 689.40625 561.355469 694.257812 572.054688 688.152344 579.582031 Z M 688.152344 579.582031 "/>
</g>
</g>
</g>
<path style=" stroke:none;fill-rule:evenodd;fill:rgb(100%,100%,100%);fill-opacity:1;" d="M 223.167969 411.402344 C 223.195312 411.988281 221.910156 411.988281 221.414062 412.339844 C 221.53125 411.402344 222.46875 411.710938 223.167969 411.402344 Z M 223.167969 411.402344 "/>
<path style=" stroke:none;fill-rule:evenodd;fill:rgb(100%,100%,100%);fill-opacity:1;" d="M 224.636719 411.101562 C 226.980469 409.71875 229.953125 409.222656 232.179688 408.726562 C 229.917969 409.824219 227.472656 410.210938 224.636719 411.101562 Z M 224.636719 411.101562 "/>
<path style=" stroke:none;fill-rule:evenodd;fill:rgb(100%,100%,100%);fill-opacity:1;" d="M 311.394531 424.640625 C 311.484375 425.160156 311.789062 425.191406 311.980469 425.476562 C 315.15625 424.902344 317.214844 424.628906 320.335938 423.851562 C 321.136719 425.054688 322.585938 424.796875 323.75 425.1875 C 323.769531 425.777344 323.3125 425.953125 322.722656 426.644531 C 322.585938 426.078125 322.808594 425.515625 322.191406 425.257812 C 321.140625 425.296875 321.65625 426.039062 320.988281 426.253906 C 319.125 426.382812 315 425.660156 311.925781 426.027344 C 310.835938 426.15625 308.257812 427.605469 308.433594 426.574219 C 306.230469 427.136719 302.292969 427.859375 299.210938 428.003906 C 297.976562 428.347656 298.554688 429.5 297.261719 429.816406 C 297.027344 428.558594 298.183594 427.925781 299.175781 427.222656 C 299.628906 426.925781 299.742188 427.382812 299.902344 427.738281 C 303.660156 425.527344 306.898438 426.480469 311.394531 424.640625 Z M 311.394531 424.640625 "/>
<g clip-path="url(#clip10)" clip-rule="nonzero">
<path style=" stroke:none;fill-rule:evenodd;fill:rgb(100%,100%,100%);fill-opacity:1;" d="M 323.972656 416.085938 C 324.1875 417.320312 325.613281 415.835938 325.601562 417.582031 C 325.480469 418.832031 324.25 419.386719 323.277344 419.800781 C 323.726562 421.511719 325.054688 421.242188 326.089844 421.632812 C 324.488281 421.921875 322.929688 421.902344 322.25 421.257812 C 320.464844 423.351562 317.03125 421.65625 313.859375 422.101562 C 312.839844 422.28125 313.847656 423.371094 312.832031 423.554688 C 310.988281 423.546875 308.488281 425.027344 307.148438 423.886719 C 304.671875 425.03125 301.855469 425.660156 299.25 425.335938 C 297.59375 425.957031 295.894531 426.625 294.097656 427.054688 C 290.441406 427.925781 286.171875 427.816406 282.625 428.816406 C 281.859375 429.035156 281.15625 429.695312 280.410156 429.9375 C 276.617188 431.164062 272.785156 431.046875 269.398438 431.523438 C 268.722656 431.921875 268.269531 432.421875 267.820312 432.925781 C 264.105469 433.410156 260.332031 434.03125 257.007812 433.640625 C 254.945312 434.929688 251.960938 435.011719 249.054688 435.640625 C 243.808594 436.777344 237.539062 439.5625 234.238281 437.632812 C 233.03125 436.925781 232.746094 435.28125 231.160156 435.105469 C 228.113281 430.3125 228.46875 426.363281 228.234375 421.910156 C 229.683594 418.980469 231.726562 416.316406 233.484375 413.527344 C 230.335938 411.984375 225.796875 416.050781 223.023438 415.167969 C 221.265625 416.40625 219.085938 417.546875 216.574219 417.648438 C 216.199219 418.246094 215.226562 418.578125 214.769531 419.140625 C 205.816406 420.777344 196.285156 425.160156 189.144531 427.410156 C 193.699219 424.183594 197.558594 422.65625 202.871094 421.863281 C 212.234375 416.800781 222.027344 414.445312 233.0625 411.035156 C 235.722656 410.214844 237.550781 409.183594 239.070312 407.398438 C 237.738281 406.8125 235.410156 408.472656 233.878906 408.335938 C 235.007812 406.976562 239.640625 407.230469 240.929688 405.359375 C 228.75 407.953125 214.316406 413.023438 202.46875 418.042969 C 205.832031 418.046875 207.714844 416.515625 211.710938 415.277344 C 204.265625 418.78125 192.710938 422.832031 185.890625 424.421875 C 185.414062 424.71875 185.347656 425.199219 185.003906 425.558594 C 183.660156 425.792969 182.542969 426.375 181.78125 426.796875 C 183.503906 427.402344 187.121094 425.632812 189.644531 424.566406 C 187.867188 426.753906 184.507812 427.070312 182.984375 429.253906 C 174.222656 429.75 161.703125 439.566406 154.105469 434.535156 C 147.222656 423.992188 153.542969 415.03125 156.878906 407.214844 C 153.121094 407.464844 147.878906 410.933594 142.539062 411.144531 C 140.480469 413.199219 134.578125 414.742188 131.082031 415.027344 C 131.144531 415.453125 131.425781 415.394531 131.71875 415.308594 C 127.035156 418.335938 120.519531 418.929688 114.011719 420.800781 C 105.992188 423.105469 97.816406 426.675781 91.117188 427.226562 C 88.882812 426.222656 86.109375 426.523438 84.019531 423.859375 C 83.460938 423.144531 83.183594 421.746094 82.46875 420.480469 C 81.324219 418.460938 79.066406 416.027344 78.546875 412.972656 C 78.265625 411.332031 79.152344 409.609375 79.347656 408.160156 C 97.589844 404.777344 119.007812 396.851562 139.960938 389.863281 C 147.105469 387.484375 156.375 384.855469 164.097656 383.226562 C 172.398438 381.476562 176.078125 379.9375 181.265625 383.246094 C 183.992188 386.40625 184.96875 389.101562 186.53125 392.886719 C 185.648438 394.472656 185.746094 396.5 184.804688 398.058594 C 185.191406 399 185.574219 399.9375 185.546875 400.691406 C 185.304688 401.605469 184.683594 402.347656 184.09375 403.109375 C 184.5 403.890625 185.273438 403.175781 185.082031 404.316406 C 184.1875 405.066406 183.234375 405.789062 182.53125 406.625 C 200.613281 400.933594 224.050781 391.683594 242.332031 387.582031 C 250.589844 385.730469 259.285156 385.929688 265.058594 389.707031 C 266.375 392.136719 266.828125 394.046875 267.9375 396.554688 C 268.230469 397.597656 266.957031 399.039062 268.535156 399.507812 C 268.265625 400.269531 266.960938 402.4375 268.441406 402.726562 C 267.734375 403.6875 267.46875 404.847656 265.75 405.351562 C 265.394531 409.804688 261.828125 412.527344 257.453125 415.441406 C 258.195312 416.113281 259.320312 415.519531 260.164062 414.925781 C 261.070312 414.453125 260.179688 415.636719 261.117188 415.355469 C 276.84375 412.667969 295.484375 407.898438 310.957031 407.574219 C 314.789062 407.492188 318.746094 407.234375 321.347656 407.816406 C 324.007812 408.410156 325.769531 410.78125 326.382812 414.097656 C 325.824219 414.355469 325.53125 414.007812 325.058594 414.078125 C 324.78125 414.824219 325.832031 415.1875 326.222656 415.75 C 325.863281 415.714844 324.695312 416.445312 323.972656 416.085938 Z M 123.632812 410.734375 C 126.019531 409.929688 128.488281 409.992188 130.167969 408.484375 C 127.496094 408.253906 125.503906 409.128906 123.632812 410.734375 Z M 153.628906 400.777344 C 154.535156 400.542969 156.785156 400.605469 156.855469 399.539062 C 155.636719 399.652344 154.390625 399.6875 153.628906 400.777344 Z M 118.246094 415.992188 C 121.066406 416.527344 124.664062 414.246094 127.578125 413.460938 C 127.679688 413.757812 127.40625 413.894531 127.613281 414.242188 C 129.554688 413.832031 130.75 413.117188 132.039062 412.007812 C 131.996094 412.964844 132.875 411.84375 132.996094 412.433594 C 137.882812 409.5625 146.34375 408.945312 151.21875 406.214844 C 151.925781 405.820312 152.128906 405.097656 152.792969 404.8125 C 155.296875 403.753906 158.667969 404.878906 159.613281 401.925781 C 145.691406 405.320312 133.980469 411.378906 120.371094 414.640625 C 117.984375 415.214844 115.59375 416.183594 113.234375 417.390625 C 115.117188 417.910156 116.382812 416.757812 118.246094 415.992188 Z M 111.320312 419.984375 C 110.9375 420.128906 110.554688 420.277344 110.167969 420.425781 C 110.386719 421.246094 111.871094 420.886719 111.320312 419.984375 Z M 135.136719 413.203125 C 135.945312 412.921875 136.050781 412.332031 136.484375 411.886719 C 135.828125 411.902344 134.617188 412.164062 135.136719 413.203125 Z M 137.261719 411.851562 C 138 412.875 139.59375 411.671875 139.476562 410.734375 C 138.410156 410.960938 138.328125 411.628906 137.261719 411.851562 Z M 158.195312 405.121094 C 155.878906 405.179688 153.164062 406.132812 150.472656 407.03125 C 152.796875 407.726562 155.199219 405.566406 158.195312 405.121094 Z M 179.433594 405.429688 C 178.21875 407.378906 174.710938 408.300781 173.960938 410.453125 C 177.089844 409.546875 180.019531 407.632812 182.019531 407.351562 C 181.273438 406.125 182.769531 405.902344 182.375 404.832031 C 181.402344 404.414062 182.265625 405.90625 180.941406 405.914062 C 180.390625 405.855469 180.183594 405.03125 179.433594 405.429688 Z M 258.175781 387.585938 C 257.761719 387.054688 256.335938 386.59375 256.121094 387.046875 C 256.9375 386.929688 257.300781 387.828125 258.175781 387.585938 Z M 210.441406 411.261719 C 210.675781 411.878906 209.90625 412.042969 210.191406 412.683594 C 209.34375 412.113281 208.441406 413.132812 208.613281 414.085938 C 210.792969 412.734375 215.253906 412.234375 217.097656 410.023438 C 216.65625 410.15625 216.273438 410.167969 216 409.917969 C 219.328125 408.242188 222.308594 407.503906 224.484375 405.855469 C 220.039062 407.210938 215.421875 408.4375 210.441406 411.261719 Z M 237.800781 403.382812 C 235.777344 404.222656 234.09375 403.714844 232.613281 404.320312 C 232.664062 404.296875 232.777344 405.007812 232.644531 405.101562 C 231.699219 405.785156 229.898438 405.746094 228.46875 405.914062 C 228.714844 405.453125 229.578125 405.261719 229.585938 404.6875 C 228.769531 404.484375 226.996094 404.820312 226.910156 405.984375 C 228.035156 406.234375 228.203125 405.722656 228.128906 407.105469 C 231.503906 405.75 234.835938 405.289062 237.195312 403.878906 C 238.214844 405.03125 240.546875 403.210938 242.152344 403.03125 C 241.421875 402.203125 236.601562 403.007812 237.800781 403.382812 Z M 192.339844 421.941406 C 194.339844 421.96875 195.972656 420.277344 198.09375 419.726562 C 196.429688 419.367188 193.179688 421.070312 192.339844 421.941406 Z M 297.34375 421.03125 C 290.730469 424.628906 281.105469 424.015625 274.59375 427.140625 C 275.707031 427.4375 276.175781 426.648438 277.671875 426.21875 C 282.628906 426.78125 286.859375 424.484375 291.996094 423.621094 C 293.910156 423.300781 296.167969 423.816406 298.226562 423.34375 C 303.316406 422.179688 308.488281 421.125 313.4375 419.613281 C 308.234375 419.722656 302.375 421.3125 297.34375 421.03125 Z M 295.09375 424.816406 C 294.863281 424.699219 293.613281 424.796875 293.710938 425.347656 C 293.9375 425.46875 295.191406 425.367188 295.09375 424.816406 Z M 295.09375 424.816406 "/>
</g>
<path style=" stroke:none;fill-rule:evenodd;fill:rgb(100%,100%,100%);fill-opacity:1;" d="M 212.578125 415.476562 C 215.300781 413.144531 219.019531 412.996094 221.097656 412.199219 C 218.609375 413.519531 214.742188 414.261719 212.578125 415.476562 Z M 212.578125 415.476562 "/>
<g clip-path="url(#clip11)" clip-rule="nonzero">
<g clip-path="url(#clip12)" clip-rule="nonzero">
<g clip-path="url(#clip13)" clip-rule="nonzero">
<path style=" stroke:none;fill-rule:evenodd;fill:rgb(100%,100%,100%);fill-opacity:1;" d="M 888.085938 39.65625 C 888.441406 52.847656 870.421875 50.363281 869.703125 40.726562 C 869.253906 34.679688 874.054688 29.589844 879.148438 29.429688 C 885.632812 29.222656 887.902344 32.9375 888.085938 39.65625 Z M 881.113281 36.414062 C 877.261719 34.828125 874.34375 35.789062 873.820312 37.96875 C 872.667969 42.78125 881.503906 43.625 882.414062 37.71875 C 880.117188 37.722656 879.179688 35.617188 881.113281 36.414062 Z M 881.113281 36.414062 "/>
</g>
</g>
</g>
<g clip-path="url(#clip14)" clip-rule="nonzero">
<g clip-path="url(#clip15)" clip-rule="nonzero">
<g clip-path="url(#clip16)" clip-rule="nonzero">
<path style=" stroke:none;fill-rule:evenodd;fill:rgb(100%,100%,100%);fill-opacity:1;" d="M 880.90625 1.757812 C 876.871094 0.382812 874.523438 -2.171875 874.515625 -5.496094 C 874.507812 -9.757812 878.484375 -10.621094 880.515625 -13.566406 C 884.347656 -14.039062 886.9375 -11.082031 889.203125 -9.332031 C 888.226562 -3.792969 886.023438 0.707031 880.90625 1.757812 Z M 880.90625 1.757812 "/>
</g>
</g>
</g>
<g clip-path="url(#clip17)" clip-rule="nonzero">
<g clip-path="url(#clip18)" clip-rule="nonzero">
<g clip-path="url(#clip19)" clip-rule="nonzero">
<path style=" stroke:none;fill-rule:evenodd;fill:rgb(100%,100%,100%);fill-opacity:1;" d="M 858.160156 64.007812 C 858.398438 67.996094 854.40625 72.535156 850.960938 72.648438 C 843.6875 72.894531 839.140625 62.726562 843.746094 58.203125 C 848.589844 53.441406 857.835938 58.53125 858.160156 64.007812 Z M 847.4375 60.96875 C 845.371094 62.515625 846.96875 65.496094 848.941406 66.027344 C 850.011719 65.136719 851.519531 64.835938 852.277344 63.527344 C 851.449219 62.089844 849.183594 61.726562 847.4375 60.96875 Z M 847.4375 60.96875 "/>
</g>
</g>
</g>
<g clip-path="url(#clip20)" clip-rule="nonzero">
<g clip-path="url(#clip21)" clip-rule="nonzero">
<g clip-path="url(#clip22)" clip-rule="nonzero">
<path style=" stroke:none;fill-rule:evenodd;fill:rgb(100%,100%,100%);fill-opacity:1;" d="M 862.601562 22.945312 C 862.917969 22.921875 862.925781 23.136719 862.910156 23.359375 C 861.335938 26.039062 860.570312 29.800781 859.304688 32.894531 C 856.347656 33.972656 855.09375 37.023438 852.007812 37.050781 C 848.050781 37.089844 843.109375 30.707031 843.015625 27.191406 C 842.757812 17.273438 858.804688 13 862.601562 22.945312 Z M 845.726562 26.46875 C 844.980469 34.339844 857.949219 24.59375 857.914062 21.898438 C 853.914062 18.371094 846.09375 22.589844 845.726562 26.46875 Z M 845.726562 26.46875 "/>
</g>
</g>
</g>
<g clip-path="url(#clip23)" clip-rule="nonzero">
<g clip-path="url(#clip24)" clip-rule="nonzero">
<g clip-path="url(#clip25)" clip-rule="nonzero">
<path style=" stroke:none;fill-rule:evenodd;fill:rgb(100%,100%,100%);fill-opacity:1;" d="M 854.234375 -19.59375 C 856.167969 -18.390625 856.78125 -14.625 855.785156 -12.292969 C 859.859375 -5.824219 856.398438 3.664062 849.355469 3.90625 C 842.523438 4.136719 837.375 -1.652344 837.550781 -7.105469 C 837.863281 -16.769531 846.820312 -18.023438 854.234375 -19.59375 Z M 841.402344 -5.433594 C 845.179688 -1.203125 852.859375 -4.199219 852.394531 -9.433594 C 851.363281 -9.882812 849.390625 -9.691406 849.015625 -11.78125 C 845.417969 -11.214844 840.558594 -10.5625 841.402344 -5.433594 Z M 841.402344 -5.433594 "/>
</g>
</g>
</g>
<g clip-path="url(#clip26)" clip-rule="nonzero">
<g clip-path="url(#clip27)" clip-rule="nonzero">
<g clip-path="url(#clip28)" clip-rule="nonzero">
<path style=" stroke:none;fill-rule:evenodd;fill:rgb(100%,100%,100%);fill-opacity:1;" d="M 831.167969 44.84375 C 828.03125 50.300781 819.996094 45.523438 821.128906 39.671875 C 822.160156 34.316406 832.742188 32.601562 832.632812 39.84375 C 832.605469 41.632812 830.523438 42.347656 831.167969 44.84375 Z M 831.167969 44.84375 "/>
</g>
</g>
</g>
<g clip-path="url(#clip29)" clip-rule="nonzero">
<g clip-path="url(#clip30)" clip-rule="nonzero">
<g clip-path="url(#clip31)" clip-rule="nonzero">
<path style=" stroke:none;fill-rule:evenodd;fill:rgb(100%,100%,100%);fill-opacity:1;" d="M 826.542969 71.730469 C 822.222656 75.328125 813.152344 71.15625 816.089844 64.265625 C 817.742188 60.386719 823.679688 60.933594 826.453125 64.640625 C 825.363281 67.839844 827.582031 68.566406 826.542969 71.730469 Z M 822.335938 64.792969 C 822.285156 65.59375 821.023438 64.769531 820.464844 64.894531 C 820.390625 65.8125 819.730469 65.941406 819.472656 66.613281 C 819.984375 67.597656 821.546875 67.792969 822.699219 67.449219 C 822.339844 66.308594 823.375 65.71875 822.335938 64.792969 Z M 822.335938 64.792969 "/>
</g>
</g>
</g>
<g clip-path="url(#clip32)" clip-rule="nonzero">
<g clip-path="url(#clip33)" clip-rule="nonzero">
<g clip-path="url(#clip34)" clip-rule="nonzero">
<path style=" stroke:none;fill-rule:evenodd;fill:rgb(100%,100%,100%);fill-opacity:1;" d="M 827.824219 19.042969 C 818.449219 21.140625 809.011719 14.0625 815.457031 4.226562 C 819.160156 2.019531 827.046875 2.703125 828.835938 6.902344 C 827.792969 11.085938 831.058594 15.316406 827.824219 19.042969 Z M 819.097656 7.355469 C 818.027344 8.246094 816.796875 8.917969 816.386719 10.6875 C 819.238281 17.28125 828.851562 7.621094 819.097656 7.355469 Z M 819.097656 7.355469 "/>
</g>
</g>
</g>
<g clip-path="url(#clip35)" clip-rule="nonzero">
<g clip-path="url(#clip36)" clip-rule="nonzero">
<g clip-path="url(#clip37)" clip-rule="nonzero">
<path style=" stroke:none;fill-rule:evenodd;fill:rgb(100%,100%,100%);fill-opacity:1;" d="M 808.957031 31.210938 C 809.648438 43.65625 784.132812 35.371094 793.609375 24.15625 C 796.496094 20.738281 804.390625 20.5625 807.25 25.007812 C 808.417969 26.828125 807.804688 29.011719 808.957031 31.210938 Z M 801.882812 28.699219 C 802.527344 28.84375 802.785156 28.460938 802.765625 27.710938 C 799.242188 24.699219 793.988281 26.597656 794.589844 30.253906 C 795.265625 34.378906 802.15625 34.855469 804.84375 31.363281 C 803.808594 30.511719 802.992188 29.496094 801.882812 28.699219 Z M 801.882812 28.699219 "/>
</g>
</g>
</g>
<g clip-path="url(#clip38)" clip-rule="nonzero">
<g clip-path="url(#clip39)" clip-rule="nonzero">
<g clip-path="url(#clip40)" clip-rule="nonzero">
<path style=" stroke:none;fill-rule:evenodd;fill:rgb(100%,100%,100%);fill-opacity:1;" d="M 799.636719 64.867188 C 795.132812 63.46875 794.34375 59.285156 790.695312 57.246094 C 789.945312 53.863281 792.101562 52.710938 793.152344 50.527344 C 799.226562 50.066406 806.046875 53.058594 805.269531 59.351562 C 805.082031 60.863281 804.09375 61.332031 803.652344 62.839844 C 802.320312 63.53125 800.714844 63.839844 799.636719 64.867188 Z M 799.636719 64.867188 "/>
</g>
</g>
</g>
<g clip-path="url(#clip41)" clip-rule="nonzero">
<g clip-path="url(#clip42)" clip-rule="nonzero">
<g clip-path="url(#clip43)" clip-rule="nonzero">
<path style=" stroke:none;fill-rule:evenodd;fill:rgb(100%,100%,100%);fill-opacity:1;" d="M 784.414062 13.148438 C 775.882812 12.53125 775.027344 0.984375 782.351562 -0.929688 C 792.917969 -1.039062 790.550781 9.753906 784.414062 13.148438 Z M 781.300781 6.367188 C 782.253906 5.761719 783.695312 5.800781 784.167969 4.546875 C 782.367188 3.757812 780.28125 4.832031 781.300781 6.367188 Z M 781.300781 6.367188 "/>
</g>
</g>
</g>
<g clip-path="url(#clip44)" clip-rule="nonzero">
<g clip-path="url(#clip45)" clip-rule="nonzero">
<g clip-path="url(#clip46)" clip-rule="nonzero">
<path style=" stroke:none;fill-rule:evenodd;fill:rgb(100%,100%,100%);fill-opacity:1;" d="M 775.269531 32.679688 C 774.839844 36.3125 772.464844 37.339844 770.9375 39.5 C 764.304688 39.617188 758.558594 36.332031 759.601562 30.417969 C 760.90625 23.027344 773.398438 18.277344 776.742188 25.070312 C 777.757812 27.140625 778.191406 31.363281 775.269531 32.679688 Z M 762.828125 31.253906 C 762.871094 36.085938 771.316406 33.445312 771.371094 28.765625 C 769.351562 25.894531 762.800781 28 762.828125 31.253906 Z M 762.828125 31.253906 "/>
</g>
</g>
</g>
<g clip-path="url(#clip47)" clip-rule="nonzero">
<g clip-path="url(#clip48)" clip-rule="nonzero">
<g clip-path="url(#clip49)" clip-rule="nonzero">
<path style=" stroke:none;fill-rule:evenodd;fill:rgb(100%,100%,100%);fill-opacity:1;" d="M 764.542969 1.339844 C 765.152344 3.011719 763.28125 7.652344 761.355469 7.957031 C 758.535156 8.40625 755.667969 5.078125 755.6875 3.417969 C 755.714844 0.730469 762.492188 -4.246094 764.542969 1.339844 Z M 764.542969 1.339844 "/>
</g>
</g>
</g>
<g clip-path="url(#clip50)" clip-rule="nonzero">
<g clip-path="url(#clip51)" clip-rule="nonzero">
<g clip-path="url(#clip52)" clip-rule="nonzero">
<path style=" stroke:none;fill-rule:evenodd;fill:rgb(100%,100%,100%);fill-opacity:1;" d="M 1462.871094 163.445312 C 1455.921875 171.878906 1447.671875 175.195312 1439.699219 172.207031 C 1429.46875 168.359375 1431 158.050781 1425.777344 150.519531 C 1428.101562 140.902344 1437.542969 137.375 1443.785156 133.519531 C 1456.183594 140.878906 1464.980469 150.234375 1462.871094 163.445312 Z M 1462.871094 163.445312 "/>
</g>
</g>
</g>
<g clip-path="url(#clip53)" clip-rule="nonzero">
<g clip-path="url(#clip54)" clip-rule="nonzero">
<g clip-path="url(#clip55)" clip-rule="nonzero">
<path style=" stroke:none;fill-rule:evenodd;fill:rgb(100%,100%,100%);fill-opacity:1;" d="M 1363.097656 164.410156 C 1360.117188 165.304688 1356.972656 165.648438 1353.375 164.433594 C 1346.714844 169.339844 1340.335938 178.421875 1344.925781 185.625 C 1345.0625 180.027344 1349.773438 170.382812 1357.054688 167.539062 C 1377.363281 169.425781 1369.671875 190.777344 1358.722656 199.703125 C 1348.757812 199.613281 1342.1875 200.054688 1336.886719 196.273438 C 1318.355469 183.03125 1337.914062 134.28125 1358.441406 143.523438 C 1364.351562 146.1875 1369.203125 156.882812 1363.097656 164.410156 Z M 1363.097656 164.410156 "/>
</g>
</g>
</g>
<g clip-path="url(#clip56)" clip-rule="nonzero">
<g clip-path="url(#clip57)" clip-rule="nonzero">
<g clip-path="url(#clip58)" clip-rule="nonzero">
<path style=" stroke:none;fill-rule:evenodd;fill:rgb(100%,100%,100%);fill-opacity:1;" d="M 1387.546875 208.066406 C 1392.183594 204.523438 1401.761719 206.457031 1406.453125 210.957031 C 1425.65625 207.039062 1445.273438 223.921875 1439.480469 241.03125 C 1433.859375 257.613281 1415.320312 264.714844 1402.402344 259.359375 C 1379.511719 249.863281 1384.609375 227.261719 1387.546875 208.066406 Z M 1409.894531 251.636719 C 1423.457031 246.414062 1423.214844 225.289062 1410.246094 221.667969 C 1408.238281 223.730469 1406.914062 228.636719 1401.558594 227.648438 C 1399.667969 236.785156 1396.835938 249.019531 1409.894531 251.636719 Z M 1409.894531 251.636719 "/>
</g>
</g>
</g>
<g clip-path="url(#clip59)" clip-rule="nonzero">
<g clip-path="url(#clip60)" clip-rule="nonzero">
<g clip-path="url(#clip61)" clip-rule="nonzero">
<path style=" stroke:none;fill-rule:evenodd;fill:rgb(100%,100%,100%);fill-opacity:1;" d="M 1456.308594 306.335938 C 1452.855469 330.707031 1427.347656 346.929688 1409.589844 322.574219 C 1407.65625 311.703125 1416.421875 293.417969 1428.109375 292.925781 C 1437.199219 299.210938 1450.296875 295.210938 1456.308594 306.335938 Z M 1420.390625 316.683594 C 1421.554688 320.050781 1422.050781 323.613281 1425.925781 326.199219 C 1444.316406 325.332031 1429.851562 293.546875 1420.390625 316.683594 Z M 1420.390625 316.683594 "/>
</g>
</g>
</g>
<g clip-path="url(#clip62)" clip-rule="nonzero">
<g clip-path="url(#clip63)" clip-rule="nonzero">
<g clip-path="url(#clip64)" clip-rule="nonzero">
<path style=" stroke:none;fill-rule:evenodd;fill:rgb(100%,100%,100%);fill-opacity:1;" d="M 1335.148438 250.257812 C 1332.328125 258.132812 1326.1875 254.515625 1322.152344 258.167969 C 1332.847656 262.507812 1344.96875 272.558594 1339.753906 282.964844 C 1335.273438 291.898438 1323.859375 290.085938 1315.667969 293.371094 C 1287.796875 280.386719 1292.707031 255.332031 1313.730469 236.285156 C 1317.304688 238.335938 1320.386719 237.289062 1325.566406 236.351562 C 1331.851562 240.089844 1335.007812 244.738281 1335.148438 250.257812 Z M 1335.148438 250.257812 "/>
</g>
</g>
</g>
<g clip-path="url(#clip65)" clip-rule="nonzero">
<g clip-path="url(#clip66)" clip-rule="nonzero">
<g clip-path="url(#clip67)" clip-rule="nonzero">
<path style=" stroke:none;fill-rule:evenodd;fill:rgb(100%,100%,100%);fill-opacity:1;" d="M 1468.421875 362.574219 C 1498.886719 372.179688 1455.9375 425.855469 1437.617188 392.984375 C 1432.039062 382.972656 1438.757812 363.886719 1452 361.054688 C 1457.417969 359.898438 1462.105469 363.351562 1468.421875 362.574219 Z M 1456 377.269531 C 1456.921875 375.84375 1456.246094 374.882812 1454.425781 374.25 C 1444.011719 379.976562 1443.816406 394.28125 1453.128906 396.152344 C 1463.628906 398.269531 1471.007812 382.175781 1465.0625 372.570312 C 1462.085938 374.289062 1458.914062 375.332031 1456 377.269531 Z M 1456 377.269531 "/>
</g>
</g>
</g>
<g clip-path="url(#clip68)" clip-rule="nonzero">
<g clip-path="url(#clip69)" clip-rule="nonzero">
<g clip-path="url(#clip70)" clip-rule="nonzero">
<path style=" stroke:none;fill-rule:evenodd;fill:rgb(100%,100%,100%);fill-opacity:1;" d="M 1358.082031 331.859375 C 1361.320312 341.8125 1363.867188 366.816406 1346.925781 367.71875 C 1337.898438 368.203125 1332.222656 359.464844 1325.964844 352.917969 C 1321.726562 336.402344 1341.445312 319.363281 1358.082031 331.859375 Z M 1358.082031 331.859375 "/>
</g>
</g>
</g>
<g clip-path="url(#clip71)" clip-rule="nonzero">
<g clip-path="url(#clip72)" clip-rule="nonzero">
<g clip-path="url(#clip73)" clip-rule="nonzero">
<path style=" stroke:none;fill-rule:evenodd;fill:rgb(100%,100%,100%);fill-opacity:1;" d="M 1277.882812 318.851562 C 1303.203125 328.167969 1270.535156 366.488281 1254.726562 358.863281 C 1241.894531 352.675781 1244.601562 327.890625 1256.703125 320.09375 C 1261.394531 317.066406 1271.320312 316.441406 1277.882812 318.851562 Z M 1256.019531 336.960938 C 1257.921875 341.277344 1256.707031 346.484375 1259.277344 350.609375 C 1264.277344 347.871094 1269.113281 344.578125 1272.527344 336.371094 C 1271.683594 325.296875 1260.878906 324.894531 1256.019531 336.960938 Z M 1256.019531 336.960938 "/>
</g>
</g>
</g>
<g clip-path="url(#clip74)" clip-rule="nonzero">
<g clip-path="url(#clip75)" clip-rule="nonzero">
<g clip-path="url(#clip76)" clip-rule="nonzero">
<path style=" stroke:none;fill-rule:evenodd;fill:rgb(100%,100%,100%);fill-opacity:1;" d="M 1402.90625 405.070312 C 1393.714844 424.957031 1365.25 416.566406 1367.289062 397.277344 C 1376.578125 371.839844 1400.316406 387.28125 1402.90625 405.070312 Z M 1383.835938 406.398438 C 1383.238281 403.5625 1384.644531 400.144531 1382.066406 397.878906 C 1378.539062 401.472656 1379.230469 407.453125 1383.835938 406.398438 Z M 1383.835938 406.398438 "/>
</g>
</g>
</g>
<g clip-path="url(#clip77)" clip-rule="nonzero">
<g clip-path="url(#clip78)" clip-rule="nonzero">
<g clip-path="url(#clip79)" clip-rule="nonzero">
<path style=" stroke:none;fill-rule:evenodd;fill:rgb(100%,100%,100%);fill-opacity:1;" d="M 1441.464844 444.664062 C 1449.792969 448.976562 1450.105469 455.605469 1453.902344 461.222656 C 1448.191406 477.230469 1435.113281 488.03125 1421.871094 480.175781 C 1405.335938 470.367188 1405.242188 436.117188 1424.558594 434.25 C 1430.441406 433.691406 1440.953125 436.46875 1441.464844 444.664062 Z M 1426.804688 473.199219 C 1438.425781 477.472656 1439.730469 454.835938 1428.558594 450.46875 C 1419.847656 452.707031 1418.972656 470.324219 1426.804688 473.199219 Z M 1426.804688 473.199219 "/>
</g>
</g>
</g>
<g clip-path="url(#clip80)" clip-rule="nonzero">
<g clip-path="url(#clip81)" clip-rule="nonzero">
<g clip-path="url(#clip82)" clip-rule="nonzero">
<path style=" stroke:none;fill-rule:evenodd;fill:rgb(100%,100%,100%);fill-opacity:1;" d="M 1314.433594 387.5 C 1329.355469 392.386719 1329.285156 416.195312 1316.140625 429.378906 C 1303.625 441.933594 1269.933594 437.902344 1271.601562 412.351562 C 1272.136719 404.171875 1279.589844 392.746094 1286.011719 390.132812 C 1289.226562 388.832031 1292.195312 391.75 1297.390625 391.023438 C 1305.339844 389.914062 1307.820312 385.335938 1314.433594 387.5 Z M 1282.894531 415.34375 C 1284.890625 420.675781 1287.707031 426.675781 1295.042969 428.511719 C 1307.457031 423.9375 1311.074219 403.703125 1300.160156 395.78125 C 1292.140625 399.808594 1288.023438 402.722656 1282.894531 415.34375 Z M 1282.894531 415.34375 "/>
</g>
</g>
</g>
<g clip-path="url(#clip83)" clip-rule="nonzero">
<g clip-path="url(#clip84)" clip-rule="nonzero">
<g clip-path="url(#clip85)" clip-rule="nonzero">
<path style=" stroke:none;fill-rule:evenodd;fill:rgb(100%,100%,100%);fill-opacity:1;" d="M 1356.625 442.023438 C 1361.179688 442.066406 1370.613281 450.75 1369.605469 455.648438 C 1368.128906 462.816406 1357.5625 466.675781 1353.589844 465.125 C 1347.175781 462.628906 1341.371094 441.878906 1356.625 442.023438 Z M 1356.625 442.023438 "/>
</g>
</g>
</g>
</g>
</svg>
