<svg xmlns="http://www.w3.org/2000/svg" xmlns:xlink="http://www.w3.org/1999/xlink" width="3000" zoomAndPan="magnify" viewBox="0 0 2250 2250.000011" height="3000" preserveAspectRatio="xMidYMid meet" version="1.0"><defs><filter x="0%" y="0%" width="100%" height="100%" id="id1"><feColorMatrix values="0 0 0 0 1 0 0 0 0 1 0 0 0 0 1 0 0 0 1 0" color-interpolation-filters="sRGB"/></filter><clipPath id="id2"><path d="M 1125 339.039062 L 1667.011719 339.039062 L 1667.011719 1909.589844 L 1125 1909.589844 Z M 1125 339.039062 " clip-rule="nonzero"/></clipPath><clipPath id="id3"><path d="M 339.90625 517.460938 L 1910.457031 517.460938 L 1910.457031 1059.46875 L 339.90625 1059.46875 Z M 339.90625 517.460938 " clip-rule="nonzero"/></clipPath><mask id="id4"><g filter="url(#id1)"><rect x="-225" width="2700" fill="#000000" y="-225.000001" height="2700.000013" fill-opacity="0.6"/></g></mask><clipPath id="id5"><path d="M 0.90625 0.773438 L 1571.457031 0.773438 L 1571.457031 542.785156 L 0.90625 542.785156 Z M 0.90625 0.773438 " clip-rule="nonzero"/></clipPath><clipPath id="id6"><rect x="0" width="1575" y="0" height="543"/></clipPath><clipPath id="id7"><path d="M 515.546875 339.039062 L 1057.554688 339.039062 L 1057.554688 1909.589844 L 515.546875 1909.589844 Z M 515.546875 339.039062 " clip-rule="nonzero"/></clipPath></defs><g clip-path="url(#id2)"><path fill="#6c63ff" d="M 1667.011719 441.179688 L 1667.011719 1807.453125 C 1667.011719 1863.726562 1621.148438 1909.582031 1564.863281 1909.582031 L 1227.148438 1909.582031 C 1170.863281 1909.582031 1125 1863.726562 1125 1807.453125 L 1125 441.179688 C 1125 384.902344 1170.863281 339.046875 1227.148438 339.046875 L 1564.863281 339.046875 C 1621.148438 339.046875 1667.011719 384.902344 1667.011719 441.179688 " fill-opacity="1" fill-rule="nonzero"/></g><g clip-path="url(#id3)"><path fill="#ffffff" d="M 1808.316406 1059.46875 L 442.042969 1059.46875 C 385.765625 1059.46875 339.914062 1013.605469 339.914062 957.320312 L 339.914062 619.609375 C 339.914062 563.324219 385.765625 517.460938 442.042969 517.460938 L 1808.316406 517.460938 C 1864.59375 517.460938 1910.449219 563.324219 1910.449219 619.609375 L 1910.449219 957.320312 C 1910.449219 1013.605469 1864.59375 1059.46875 1808.316406 1059.46875 " fill-opacity="1" fill-rule="nonzero"/></g><g mask="url(#id4)"><g transform="matrix(1, 0, 0, 1, 339, 1192)"><g clip-path="url(#id6)"><g clip-path="url(#id5)"><path fill="#ffffff" d="M 1469.316406 542.785156 L 103.042969 542.785156 C 46.765625 542.785156 0.914062 496.921875 0.914062 440.636719 L 0.914062 102.921875 C 0.914062 46.636719 46.765625 0.773438 103.042969 0.773438 L 1469.316406 0.773438 C 1525.59375 0.773438 1571.449219 46.636719 1571.449219 102.921875 L 1571.449219 440.636719 C 1571.449219 496.921875 1525.59375 542.785156 1469.316406 542.785156 " fill-opacity="1" fill-rule="nonzero"/></g></g></g></g><g clip-path="url(#id7)"><path fill="#f56d6d" d="M 1057.554688 441.179688 L 1057.554688 1807.453125 C 1057.554688 1863.726562 1011.691406 1909.582031 955.40625 1909.582031 L 617.695312 1909.582031 C 561.40625 1909.582031 515.546875 1863.726562 515.546875 1807.453125 L 515.546875 441.179688 C 515.546875 384.902344 561.40625 339.046875 617.695312 339.046875 L 955.40625 339.046875 C 1011.691406 339.046875 1057.554688 384.902344 1057.554688 441.179688 " fill-opacity="1" fill-rule="nonzero"/></g></svg>