<svg xmlns="http://www.w3.org/2000/svg" width="375" viewBox="0 0 375 375" height="375" version="1.0"><path fill="#FFF" d="M-37.5 -37.5H412.5V412.5H-37.5z"/><path fill="#FFF" d="M-37.5 -37.5H412.5V412.5H-37.5z"/><path fill="#121212" d="M-37.5 -37.5H412.5V412.5H-37.5z"/><path fill="#FFF" d="M 243.011719 210.984375 C 242.285156 213.09375 241.523438 215.105469 240.710938 217.035156 C 238.734375 221.597656 236.402344 225.792969 233.699219 229.648438 C 230.019531 234.910156 227 238.550781 224.675781 240.570312 C 221.070312 243.886719 217.207031 245.589844 213.070312 245.679688 C 210.097656 245.679688 206.523438 244.835938 202.351562 243.125 C 198.171875 241.414062 194.328125 240.570312 190.816406 240.570312 C 187.128906 240.570312 183.175781 241.414062 178.949219 243.125 C 174.714844 244.835938 171.304688 245.734375 168.695312 245.816406 C 164.730469 245.988281 160.777344 244.242188 156.832031 240.570312 C 154.3125 238.371094 151.164062 234.601562 147.390625 229.261719 C 143.339844 223.5625 140.011719 216.945312 137.402344 209.40625 C 134.609375 201.265625 133.210938 193.378906 133.210938 185.746094 C 133.210938 177.003906 135.097656 169.460938 138.878906 163.140625 C 141.851562 158.066406 145.804688 154.0625 150.75 151.121094 C 155.699219 148.179688 161.046875 146.683594 166.804688 146.585938 C 169.953125 146.585938 174.085938 147.5625 179.21875 149.480469 C 184.335938 151.402344 187.625 152.378906 189.066406 152.378906 C 190.140625 152.378906 193.792969 151.238281 199.984375 148.964844 C 205.835938 146.855469 210.777344 145.984375 214.828125 146.328125 C 225.792969 147.210938 234.027344 151.539062 239.511719 159.335938 C 229.703125 165.285156 224.851562 173.617188 224.949219 184.304688 C 225.039062 192.628906 228.050781 199.5625 233.980469 205.0625 C 236.671875 207.613281 239.675781 209.582031 243.011719 210.984375 Z M 215.421875 115.355469 C 215.511719 116.226562 215.554688 117.097656 215.554688 117.964844 C 215.554688 124.488281 213.171875 130.582031 208.429688 136.222656 C 202.699219 142.925781 195.769531 146.800781 188.253906 146.1875 C 188.160156 145.40625 188.105469 144.582031 188.105469 143.714844 C 188.105469 137.453125 190.828125 130.746094 195.667969 125.265625 C 198.082031 122.492188 201.15625 120.183594 204.875 118.34375 C 208.59375 116.527344 212.117188 115.527344 215.421875 115.355469 Z M 215.421875 115.355469"/></svg>