<svg xmlns="http://www.w3.org/2000/svg" width="375" viewBox="0 0 375 375" height="375" version="1.0"><defs><clipPath id="a"><path d="M 112.503906 130 L 262.496094 130 L 262.496094 245 L 112.503906 245 Z M 112.503906 130"/></clipPath></defs><path fill="#FFF" d="M-37.5 -37.5H412.5V412.5H-37.5z"/><path fill="#FFF" d="M-37.5 -37.5H412.5V412.5H-37.5z"/><path fill="#121212" d="M-37.5 -37.5H412.5V412.5H-37.5z"/><g clip-path="url(#a)"><path fill="#FFF" d="M 239.480469 139.753906 C 229.917969 135.363281 219.667969 132.132812 208.949219 130.28125 C 208.753906 130.242188 208.558594 130.332031 208.457031 130.511719 C 207.140625 132.859375 205.679688 135.917969 204.65625 138.324219 C 193.128906 136.597656 181.65625 136.597656 170.367188 138.324219 C 169.34375 135.863281 167.828125 132.859375 166.503906 130.511719 C 166.402344 130.339844 166.210938 130.25 166.015625 130.28125 C 155.300781 132.125 145.050781 135.359375 135.484375 139.753906 C 135.402344 139.789062 135.328125 139.847656 135.28125 139.925781 C 115.835938 168.992188 110.511719 197.34375 113.125 225.34375 C 113.136719 225.480469 113.210938 225.609375 113.320312 225.695312 C 126.148438 235.121094 138.574219 240.84375 150.773438 244.636719 C 150.96875 244.695312 151.175781 244.625 151.296875 244.464844 C 154.183594 240.519531 156.753906 236.363281 158.960938 231.992188 C 159.089844 231.738281 158.964844 231.433594 158.699219 231.332031 C 154.621094 229.785156 150.738281 227.898438 147 225.753906 C 146.703125 225.582031 146.679688 225.15625 146.953125 224.957031 C 147.738281 224.367188 148.527344 223.753906 149.277344 223.132812 C 149.414062 223.019531 149.601562 222.996094 149.761719 223.066406 C 174.308594 234.28125 200.882812 234.28125 225.140625 223.066406 C 225.300781 222.988281 225.492188 223.015625 225.632812 223.128906 C 226.382812 223.746094 227.167969 224.367188 227.960938 224.957031 C 228.234375 225.15625 228.214844 225.582031 227.921875 225.753906 C 224.183594 227.9375 220.300781 229.785156 216.214844 231.328125 C 215.949219 231.429688 215.828125 231.738281 215.960938 231.992188 C 218.210938 236.359375 220.785156 240.515625 223.617188 244.457031 C 223.734375 244.625 223.949219 244.695312 224.140625 244.636719 C 236.398438 240.84375 248.824219 235.121094 261.65625 225.695312 C 261.769531 225.609375 261.839844 225.484375 261.851562 225.347656 C 264.976562 192.976562 256.613281 164.859375 239.671875 139.933594 C 239.632812 139.847656 239.5625 139.789062 239.480469 139.753906 Z M 162.625 208.292969 C 155.234375 208.292969 149.144531 201.503906 149.144531 193.167969 C 149.144531 184.832031 155.117188 178.042969 162.625 178.042969 C 170.195312 178.042969 176.222656 184.890625 176.105469 193.167969 C 176.105469 201.503906 170.132812 208.292969 162.625 208.292969 Z M 212.464844 208.292969 C 205.074219 208.292969 198.984375 201.503906 198.984375 193.167969 C 198.984375 184.832031 204.957031 178.042969 212.464844 178.042969 C 220.035156 178.042969 226.0625 184.890625 225.945312 193.167969 C 225.945312 201.503906 220.035156 208.292969 212.464844 208.292969 Z M 212.464844 208.292969"/></g></svg>