<svg xmlns="http://www.w3.org/2000/svg" width="375" viewBox="0 0 375 375" height="375" version="1.0"><defs><clipPath id="a"><path d="M 83.34375 150.574219 L 291.84375 150.574219 L 291.84375 224.074219 L 83.34375 224.074219 Z M 83.34375 150.574219"/></clipPath></defs><path fill="#FFF" d="M-37.5 -37.5H412.5V412.5H-37.5z"/><path fill="#FFF" d="M-37.5 -37.5H412.5V412.5H-37.5z"/><path fill="#121212" d="M-37.5 -37.5H412.5V412.5H-37.5z"/><g clip-path="url(#a)"><path fill="#FFF" d="M 113.164062 150.574219 C 113.164062 150.574219 105.667969 163.054688 105.667969 174.410156 C 105.667969 186.542969 114.644531 193.21875 125.972656 193.21875 C 138.699219 193.21875 147.066406 189.40625 169.289062 183.597656 L 291.828125 151.441406 C 291.828125 151.441406 187.941406 196.25 138.261719 216.707031 C 128.414062 220.78125 119.175781 224.074219 107.324219 224.074219 C 94.25 224.074219 83.355469 216.273438 83.355469 203.273438 C 83.355469 193.390625 86.582031 186.023438 91.984375 176.921875 C 100.613281 162.363281 113.164062 150.574219 113.164062 150.574219 Z M 113.164062 150.574219"/></g></svg>