<?xml version="1.0" encoding="UTF-8"?><svg xmlns="http://www.w3.org/2000/svg" xmlns:xlink="http://www.w3.org/1999/xlink" contentScriptType="text/ecmascript" width="75pt" zoomAndPan="magnify" contentStyleType="text/css" viewBox="0 0 75 74.999997" height="74.999997pt" preserveAspectRatio="xMidYMid meet" version="1.2"><defs><g/></defs><g xml:id="surface1" id="surface1"><g style="fill:rgb(100%,92.158508%,65.489197%);fill-opacity:1;"><g transform="translate(2.630861, 47.999995)"><path style="stroke:none;" d="M 23.65625 -4.15625 C 24.039062 -3.476562 24.554688 -2.851562 25.203125 -2.28125 C 25.847656 -1.707031 26.171875 -1.234375 26.171875 -0.859375 L 26.171875 -0.71875 C 26.171875 -0.238281 25.882812 0 25.3125 0 L 15.796875 0 C 15.222656 0 14.9375 -0.238281 14.9375 -0.71875 L 14.9375 -0.859375 C 14.9375 -1.140625 15.113281 -1.457031 15.46875 -1.8125 C 15.832031 -2.164062 16.097656 -2.488281 16.265625 -2.78125 C 16.441406 -3.070312 16.390625 -3.53125 16.109375 -4.15625 L 11.828125 -11.34375 L 9.78125 -9.234375 L 9.78125 -4.15625 C 9.78125 -3.53125 10.046875 -2.898438 10.578125 -2.265625 C 11.109375 -1.628906 11.375 -1.160156 11.375 -0.859375 L 11.375 -0.71875 C 11.375 -0.238281 11.085938 0 10.515625 0 L 2.109375 0 C 1.535156 0 1.25 -0.238281 1.25 -0.71875 L 1.25 -0.859375 C 1.25 -1.160156 1.484375 -1.628906 1.953125 -2.265625 C 2.421875 -2.898438 2.65625 -3.53125 2.65625 -4.15625 L 2.65625 -20.40625 C 2.65625 -21.019531 2.421875 -21.644531 1.953125 -22.28125 C 1.484375 -22.914062 1.25 -23.382812 1.25 -23.6875 L 1.25 -23.828125 C 1.25 -24.304688 1.535156 -24.546875 2.109375 -24.546875 L 10.515625 -24.546875 C 11.085938 -24.546875 11.375 -24.304688 11.375 -23.828125 L 11.375 -23.6875 C 11.375 -23.382812 11.109375 -22.914062 10.578125 -22.28125 C 10.046875 -21.644531 9.78125 -21.019531 9.78125 -20.40625 L 9.78125 -13.453125 L 16.453125 -20.40625 C 16.773438 -20.726562 16.957031 -21.050781 17 -21.375 C 17.050781 -21.695312 17.015625 -21.957031 16.890625 -22.15625 C 16.765625 -22.363281 16.625 -22.617188 16.46875 -22.921875 C 16.320312 -23.222656 16.25 -23.476562 16.25 -23.6875 L 16.25 -23.828125 C 16.25 -24.304688 16.535156 -24.546875 17.109375 -24.546875 L 23.3125 -24.546875 C 23.882812 -24.546875 24.171875 -24.304688 24.171875 -23.828125 L 24.171875 -23.6875 C 24.171875 -23.363281 24.003906 -23.054688 23.671875 -22.765625 C 23.335938 -22.484375 22.859375 -22.128906 22.234375 -21.703125 C 21.609375 -21.273438 21.085938 -20.84375 20.671875 -20.40625 L 16.625 -16.28125 Z M 23.65625 -4.15625 "/></g></g><g style="fill:rgb(100%,92.158508%,65.489197%);fill-opacity:1;"><g transform="translate(27.97087, 47.999995)"><path style="stroke:none;" d="M 7.8125 -0.5625 C 7.050781 0.0390625 6.082031 0.34375 4.90625 0.34375 C 3.726562 0.34375 2.757812 0.0390625 2 -0.5625 C 1.238281 -1.175781 0.859375 -2.070312 0.859375 -3.25 C 0.859375 -4.425781 1.238281 -5.316406 2 -5.921875 C 2.757812 -6.535156 3.726562 -6.84375 4.90625 -6.84375 C 6.082031 -6.84375 7.050781 -6.535156 7.8125 -5.921875 C 8.570312 -5.316406 8.953125 -4.425781 8.953125 -3.25 C 8.953125 -2.070312 8.570312 -1.175781 7.8125 -0.5625 Z M 7.8125 -0.5625 "/></g></g><g style="fill:rgb(100%,92.158508%,65.489197%);fill-opacity:1;"><g transform="translate(37.788824, 47.999995)"><path style="stroke:none;" d="M 23 -4.15625 C 23.269531 -3.507812 23.6875 -2.882812 24.25 -2.28125 C 24.820312 -1.6875 25.109375 -1.210938 25.109375 -0.859375 L 25.109375 -0.71875 C 25.109375 -0.238281 24.816406 0 24.234375 0 L 14.171875 0 C 13.597656 0 13.3125 -0.238281 13.3125 -0.71875 L 13.3125 -0.859375 C 13.3125 -1.085938 13.421875 -1.328125 13.640625 -1.578125 C 13.859375 -1.835938 14.085938 -2.066406 14.328125 -2.265625 C 14.578125 -2.460938 14.769531 -2.726562 14.90625 -3.0625 C 15.039062 -3.394531 15.039062 -3.757812 14.90625 -4.15625 L 14.34375 -5.734375 L 6.265625 -5.734375 L 5.703125 -4.15625 C 5.566406 -3.757812 5.566406 -3.394531 5.703125 -3.0625 C 5.835938 -2.726562 6.023438 -2.460938 6.265625 -2.265625 C 6.515625 -2.066406 6.75 -1.835938 6.96875 -1.578125 C 7.1875 -1.328125 7.296875 -1.085938 7.296875 -0.859375 L 7.296875 -0.71875 C 7.296875 -0.238281 7.007812 0 6.4375 0 L 0.796875 0 C 0.222656 0 -0.0625 -0.238281 -0.0625 -0.71875 L -0.0625 -0.859375 C -0.0625 -1.210938 0.222656 -1.675781 0.796875 -2.25 C 1.367188 -2.820312 1.785156 -3.457031 2.046875 -4.15625 L 8.1875 -20.09375 C 8.394531 -20.644531 8.226562 -21.332031 7.6875 -22.15625 C 7.144531 -22.988281 6.875 -23.5 6.875 -23.6875 L 6.875 -23.828125 C 6.875 -24.304688 7.164062 -24.546875 7.75 -24.546875 L 12.859375 -24.546875 C 14.054688 -24.546875 14.910156 -23.945312 15.421875 -22.75 Z M 7.296875 -8.640625 L 13.375 -8.640625 L 10.40625 -17.390625 Z M 7.296875 -8.640625 "/></g></g><g style="fill:rgb(100%,92.158508%,65.489197%);fill-opacity:1;"><g transform="translate(62.541146, 47.999995)"><path style="stroke:none;" d="M 7.8125 -0.5625 C 7.050781 0.0390625 6.082031 0.34375 4.90625 0.34375 C 3.726562 0.34375 2.757812 0.0390625 2 -0.5625 C 1.238281 -1.175781 0.859375 -2.070312 0.859375 -3.25 C 0.859375 -4.425781 1.238281 -5.316406 2 -5.921875 C 2.757812 -6.535156 3.726562 -6.84375 4.90625 -6.84375 C 6.082031 -6.84375 7.050781 -6.535156 7.8125 -5.921875 C 8.570312 -5.316406 8.953125 -4.425781 8.953125 -3.25 C 8.953125 -2.070312 8.570312 -1.175781 7.8125 -0.5625 Z M 7.8125 -0.5625 "/></g></g></g></svg>