<?xml version="1.0" encoding="UTF-8"?><svg xmlns="http://www.w3.org/2000/svg" xmlns:xlink="http://www.w3.org/1999/xlink" contentScriptType="text/ecmascript" width="1440pt" zoomAndPan="magnify" contentStyleType="text/css" viewBox="0 0 1440 449.999984" height="449.999984pt" preserveAspectRatio="xMidYMid meet" version="1.2"><defs><clipPath xml:id="clip1" id="clip1"><path d="M 802 15.820312 L 1399 15.820312 L 1399 434.320312 L 802 434.320312 Z M 802 15.820312 "/></clipPath><clipPath xml:id="clip2" id="clip2"><path d="M 41.285156 15.820312 L 638.285156 15.820312 L 638.285156 434.320312 L 41.285156 434.320312 Z M 41.285156 15.820312 "/></clipPath><clipPath xml:id="clip3" id="clip3"><path d="M 119.222656 15.816406 L 1320.722656 15.816406 L 1320.722656 434.316406 L 119.222656 434.316406 Z M 119.222656 15.816406 "/></clipPath></defs><g xml:id="surface1" id="surface1"><rect x="0" width="1440" y="0" height="449.999984" style="fill:rgb(100%,100%,100%);fill-opacity:1;stroke:none;"/><rect x="0" width="1440" y="0" height="449.999984" style="fill:rgb(100%,100%,100%);fill-opacity:1;stroke:none;"/><rect x="0" width="1440" y="0" height="449.999984" style="fill:rgb(20.779419%,20.779419%,20.779419%);fill-opacity:1;stroke:none;"/><g clip-rule="nonzero" clip-path="url(#clip1)"><path style=" stroke:none;fill-rule:nonzero;fill:rgb(100%,92.158508%,65.489197%);fill-opacity:1;" d="M 1401.207031 389.136719 L 1401.207031 375.371094 C 1401.1875 375.371094 1401.171875 375.375 1401.148438 375.375 C 1395.898438 375.375 1390.320312 371.117188 1390.320312 365.871094 C 1390.320312 360.617188 1395.898438 356.363281 1401.148438 356.363281 C 1401.171875 356.363281 1401.1875 356.367188 1401.207031 356.367188 L 1401.207031 339.828125 C 1401.1875 339.828125 1401.171875 339.832031 1401.148438 339.832031 C 1395.898438 339.832031 1390.320312 335.578125 1390.320312 330.328125 C 1390.320312 325.074219 1395.898438 320.820312 1401.148438 320.820312 C 1401.171875 320.820312 1401.1875 320.824219 1401.207031 320.824219 L 1401.207031 304.28125 C 1401.1875 304.28125 1401.171875 304.285156 1401.148438 304.285156 C 1395.898438 304.285156 1390.320312 300.03125 1390.320312 294.777344 C 1390.320312 289.527344 1395.898438 285.273438 1401.148438 285.273438 C 1401.171875 285.273438 1401.1875 285.277344 1401.207031 285.277344 L 1401.207031 269.867188 C 1401.1875 269.867188 1401.171875 269.867188 1401.148438 269.867188 C 1395.898438 269.867188 1390.320312 265.613281 1390.320312 260.363281 C 1390.320312 255.113281 1395.898438 250.859375 1401.148438 250.859375 C 1401.171875 250.859375 1401.1875 250.859375 1401.207031 250.859375 L 1401.207031 234.320312 C 1401.1875 234.320312 1401.171875 234.328125 1401.148438 234.328125 C 1395.988281 234.328125 1390.507812 230.199219 1390.339844 225.066406 C 1390.507812 219.925781 1395.988281 215.804688 1401.148438 215.804688 C 1401.171875 215.804688 1401.1875 215.808594 1401.207031 215.808594 L 1401.207031 199.273438 C 1401.1875 199.273438 1401.171875 199.273438 1401.148438 199.273438 C 1395.898438 199.273438 1390.320312 195.019531 1390.320312 189.769531 C 1390.320312 184.519531 1395.898438 180.265625 1401.148438 180.265625 C 1401.171875 180.265625 1401.1875 180.265625 1401.207031 180.265625 L 1401.207031 164.855469 C 1401.1875 164.855469 1401.171875 164.859375 1401.148438 164.859375 C 1395.898438 164.859375 1390.320312 160.601562 1390.320312 155.355469 C 1390.320312 150.101562 1395.898438 145.847656 1401.148438 145.847656 C 1401.171875 145.847656 1401.1875 145.847656 1401.207031 145.847656 L 1401.207031 129.308594 C 1401.1875 129.308594 1401.171875 129.3125 1401.148438 129.3125 C 1395.898438 129.3125 1390.320312 125.058594 1390.320312 119.804688 C 1390.320312 114.554688 1395.898438 110.300781 1401.148438 110.300781 C 1401.171875 110.300781 1401.1875 110.304688 1401.207031 110.304688 L 1401.207031 93.765625 C 1401.1875 93.765625 1401.171875 93.769531 1401.148438 93.769531 C 1395.898438 93.769531 1390.320312 89.515625 1390.320312 84.265625 C 1390.320312 79.019531 1395.898438 74.757812 1401.148438 74.757812 C 1401.171875 74.757812 1401.1875 74.765625 1401.207031 74.765625 L 1401.207031 61 C 1377.917969 60.621094 1342.988281 47.148438 1339.128906 15.820312 L 861.550781 15.820312 C 857.6875 47.148438 822.757812 60.621094 799.46875 61.003906 L 799.46875 74.765625 C 799.488281 74.765625 799.507812 74.761719 799.53125 74.761719 C 804.777344 74.761719 810.359375 79.019531 810.359375 84.269531 C 810.359375 89.519531 804.777344 93.777344 799.53125 93.777344 C 799.507812 93.777344 799.488281 93.773438 799.46875 93.773438 L 799.46875 110.3125 C 799.488281 110.3125 799.507812 110.308594 799.53125 110.308594 C 804.777344 110.308594 810.359375 114.5625 810.359375 119.8125 C 810.359375 125.066406 804.777344 129.320312 799.53125 129.320312 C 799.507812 129.320312 799.488281 129.316406 799.46875 129.316406 L 799.46875 145.855469 C 799.488281 145.855469 799.507812 145.855469 799.53125 145.855469 C 804.777344 145.855469 810.359375 150.109375 810.359375 155.363281 C 810.359375 160.609375 804.777344 164.867188 799.53125 164.867188 C 799.507812 164.867188 799.488281 164.863281 799.46875 164.863281 L 799.46875 180.273438 C 799.488281 180.273438 799.507812 180.269531 799.53125 180.269531 C 804.777344 180.269531 810.359375 184.523438 810.359375 189.773438 C 810.359375 195.023438 804.777344 199.28125 799.53125 199.28125 C 799.507812 199.28125 799.488281 199.277344 799.46875 199.277344 L 799.46875 215.816406 C 799.488281 215.816406 799.507812 215.8125 799.53125 215.8125 C 804.691406 215.8125 810.171875 219.9375 810.339844 225.074219 C 810.171875 230.210938 804.691406 234.332031 799.53125 234.332031 C 799.507812 234.332031 799.488281 234.328125 799.46875 234.328125 L 799.46875 250.867188 C 799.488281 250.867188 799.507812 250.863281 799.53125 250.863281 C 804.777344 250.863281 810.359375 255.121094 810.359375 260.371094 C 810.359375 265.621094 804.777344 269.875 799.53125 269.875 C 799.507812 269.875 799.488281 269.875 799.46875 269.875 L 799.46875 285.285156 C 799.488281 285.285156 799.507812 285.28125 799.53125 285.28125 C 804.777344 285.28125 810.359375 289.535156 810.359375 294.785156 C 810.359375 300.039062 804.777344 304.292969 799.53125 304.292969 C 799.507812 304.292969 799.488281 304.289062 799.46875 304.289062 L 799.46875 320.828125 C 799.488281 320.828125 799.507812 320.828125 799.53125 320.828125 C 804.777344 320.828125 810.359375 325.082031 810.359375 330.332031 C 810.359375 335.582031 804.777344 339.835938 799.53125 339.835938 C 799.507812 339.835938 799.488281 339.835938 799.46875 339.835938 L 799.46875 356.371094 C 799.488281 356.371094 799.507812 356.367188 799.53125 356.367188 C 804.777344 356.367188 810.359375 360.625 810.359375 365.875 C 810.359375 371.125 804.777344 375.382812 799.53125 375.382812 C 799.507812 375.382812 799.488281 375.378906 799.46875 375.378906 L 799.46875 389.140625 C 822.757812 389.519531 857.6875 402.996094 861.550781 434.328125 L 1339.128906 434.328125 C 1342.988281 402.988281 1377.917969 389.515625 1401.207031 389.136719 Z M 1401.207031 389.136719 "/></g><path style=" stroke:none;fill-rule:nonzero;fill:rgb(20.779419%,20.779419%,20.779419%);fill-opacity:1;" d="M 825.503906 378.949219 L 825.503906 71.191406 L 826.410156 70.921875 C 834.175781 68.632812 841.582031 65.207031 847.832031 60.996094 C 859.613281 53.074219 867.785156 42.636719 872.117188 29.96875 L 872.410156 29.117188 L 1328.265625 29.117188 L 1328.558594 29.96875 C 1332.894531 42.636719 1341.0625 53.078125 1352.84375 60.996094 C 1359.085938 65.199219 1366.496094 68.632812 1374.265625 70.921875 L 1375.171875 71.191406 L 1375.171875 378.945312 L 1374.265625 379.214844 C 1366.503906 381.5 1359.09375 384.929688 1352.847656 389.136719 C 1341.0625 397.0625 1332.894531 407.5 1328.558594 420.167969 L 1328.265625 421.019531 L 872.410156 421.019531 L 872.117188 420.167969 C 867.785156 407.5 859.613281 397.058594 847.835938 389.136719 C 841.589844 384.9375 834.183594 381.503906 826.410156 379.210938 Z M 828.03125 73.078125 L 828.03125 377.066406 C 835.714844 379.425781 843.03125 382.863281 849.246094 387.039062 C 861.226562 395.101562 869.621094 405.679688 874.207031 418.492188 L 1326.464844 418.492188 C 1331.054688 405.679688 1339.449219 395.101562 1351.433594 387.039062 C 1357.648438 382.859375 1364.964844 379.421875 1372.640625 377.066406 L 1372.640625 73.078125 C 1364.957031 70.71875 1357.640625 67.28125 1351.429688 63.101562 C 1339.449219 55.039062 1331.054688 44.464844 1326.464844 31.648438 L 874.210938 31.648438 C 869.625 44.464844 861.230469 55.039062 849.246094 63.101562 C 843.027344 67.28125 835.710938 70.722656 828.03125 73.078125 Z M 828.03125 73.078125 "/><g clip-rule="nonzero" clip-path="url(#clip2)"><path style=" stroke:none;fill-rule:nonzero;fill:rgb(100%,92.158508%,65.489197%);fill-opacity:1;" d="M 640.496094 389.136719 L 640.496094 375.371094 C 640.476562 375.371094 640.457031 375.375 640.433594 375.375 C 635.183594 375.375 629.605469 371.117188 629.605469 365.871094 C 629.605469 360.617188 635.183594 356.363281 640.433594 356.363281 C 640.457031 356.363281 640.476562 356.367188 640.496094 356.367188 L 640.496094 339.828125 C 640.476562 339.828125 640.457031 339.832031 640.433594 339.832031 C 635.183594 339.832031 629.605469 335.578125 629.605469 330.328125 C 629.605469 325.074219 635.183594 320.820312 640.433594 320.820312 C 640.457031 320.820312 640.476562 320.824219 640.496094 320.824219 L 640.496094 304.28125 C 640.476562 304.28125 640.457031 304.285156 640.433594 304.285156 C 635.183594 304.285156 629.605469 300.03125 629.605469 294.777344 C 629.605469 289.527344 635.183594 285.273438 640.433594 285.273438 C 640.457031 285.273438 640.476562 285.277344 640.496094 285.277344 L 640.496094 269.867188 C 640.476562 269.867188 640.457031 269.867188 640.433594 269.867188 C 635.183594 269.867188 629.605469 265.613281 629.605469 260.363281 C 629.605469 255.113281 635.183594 250.859375 640.433594 250.859375 C 640.457031 250.859375 640.476562 250.859375 640.496094 250.859375 L 640.496094 234.320312 C 640.476562 234.320312 640.457031 234.328125 640.433594 234.328125 C 635.273438 234.328125 629.796875 230.199219 629.625 225.066406 C 629.796875 219.925781 635.273438 215.804688 640.433594 215.804688 C 640.457031 215.804688 640.476562 215.808594 640.496094 215.808594 L 640.496094 199.273438 C 640.476562 199.273438 640.457031 199.273438 640.433594 199.273438 C 635.183594 199.273438 629.605469 195.019531 629.605469 189.769531 C 629.605469 184.519531 635.183594 180.265625 640.433594 180.265625 C 640.457031 180.265625 640.476562 180.265625 640.496094 180.265625 L 640.496094 164.855469 C 640.476562 164.855469 640.457031 164.859375 640.433594 164.859375 C 635.183594 164.859375 629.605469 160.601562 629.605469 155.355469 C 629.605469 150.101562 635.183594 145.847656 640.433594 145.847656 C 640.457031 145.847656 640.476562 145.847656 640.496094 145.847656 L 640.496094 129.308594 C 640.476562 129.308594 640.457031 129.3125 640.433594 129.3125 C 635.183594 129.3125 629.605469 125.058594 629.605469 119.804688 C 629.605469 114.554688 635.183594 110.300781 640.433594 110.300781 C 640.457031 110.300781 640.476562 110.304688 640.496094 110.304688 L 640.496094 93.765625 C 640.476562 93.765625 640.457031 93.769531 640.433594 93.769531 C 635.183594 93.769531 629.605469 89.515625 629.605469 84.265625 C 629.605469 79.019531 635.183594 74.757812 640.433594 74.757812 C 640.457031 74.757812 640.476562 74.765625 640.496094 74.765625 L 640.496094 61 C 617.207031 60.621094 582.277344 47.148438 578.414062 15.820312 L 100.835938 15.820312 C 96.972656 47.148438 62.046875 60.621094 38.757812 61.003906 L 38.757812 74.765625 C 38.773438 74.765625 38.792969 74.761719 38.816406 74.761719 C 44.0625 74.761719 49.644531 79.019531 49.644531 84.269531 C 49.644531 89.519531 44.0625 93.777344 38.816406 93.777344 C 38.792969 93.777344 38.773438 93.773438 38.757812 93.773438 L 38.757812 110.3125 C 38.773438 110.3125 38.792969 110.308594 38.816406 110.308594 C 44.0625 110.308594 49.644531 114.5625 49.644531 119.8125 C 49.644531 125.066406 44.0625 129.320312 38.816406 129.320312 C 38.792969 129.320312 38.773438 129.316406 38.757812 129.316406 L 38.757812 145.855469 C 38.773438 145.855469 38.792969 145.855469 38.816406 145.855469 C 44.0625 145.855469 49.644531 150.109375 49.644531 155.363281 C 49.644531 160.609375 44.0625 164.867188 38.816406 164.867188 C 38.792969 164.867188 38.773438 164.863281 38.757812 164.863281 L 38.757812 180.273438 C 38.773438 180.273438 38.792969 180.269531 38.816406 180.269531 C 44.0625 180.269531 49.644531 184.523438 49.644531 189.773438 C 49.644531 195.023438 44.0625 199.28125 38.816406 199.28125 C 38.792969 199.28125 38.773438 199.277344 38.757812 199.277344 L 38.757812 215.816406 C 38.773438 215.816406 38.792969 215.8125 38.816406 215.8125 C 43.976562 215.8125 49.457031 219.9375 49.628906 225.074219 C 49.457031 230.210938 43.976562 234.332031 38.816406 234.332031 C 38.792969 234.332031 38.773438 234.328125 38.757812 234.328125 L 38.757812 250.867188 C 38.773438 250.867188 38.792969 250.863281 38.816406 250.863281 C 44.0625 250.863281 49.644531 255.121094 49.644531 260.371094 C 49.644531 265.621094 44.0625 269.875 38.816406 269.875 C 38.792969 269.875 38.773438 269.875 38.757812 269.875 L 38.757812 285.285156 C 38.773438 285.285156 38.792969 285.28125 38.816406 285.28125 C 44.0625 285.28125 49.644531 289.535156 49.644531 294.785156 C 49.644531 300.039062 44.0625 304.292969 38.816406 304.292969 C 38.792969 304.292969 38.773438 304.289062 38.757812 304.289062 L 38.757812 320.828125 C 38.773438 320.828125 38.792969 320.828125 38.816406 320.828125 C 44.0625 320.828125 49.644531 325.082031 49.644531 330.332031 C 49.644531 335.582031 44.0625 339.835938 38.816406 339.835938 C 38.792969 339.835938 38.773438 339.835938 38.757812 339.835938 L 38.757812 356.371094 C 38.773438 356.371094 38.792969 356.367188 38.816406 356.367188 C 44.0625 356.367188 49.644531 360.625 49.644531 365.875 C 49.644531 371.125 44.0625 375.382812 38.816406 375.382812 C 38.792969 375.382812 38.773438 375.378906 38.757812 375.378906 L 38.757812 389.140625 C 62.046875 389.519531 96.976562 402.996094 100.835938 434.328125 L 578.414062 434.328125 C 582.277344 402.988281 617.207031 389.515625 640.496094 389.136719 Z M 640.496094 389.136719 "/></g><path style=" stroke:none;fill-rule:nonzero;fill:rgb(20.779419%,20.779419%,20.779419%);fill-opacity:1;" d="M 64.789062 378.949219 L 64.789062 71.191406 L 65.695312 70.921875 C 73.460938 68.632812 80.871094 65.207031 87.117188 60.996094 C 98.902344 53.074219 107.074219 42.636719 111.402344 29.96875 L 111.699219 29.117188 L 567.554688 29.117188 L 567.847656 29.96875 C 572.179688 42.636719 580.351562 53.078125 592.128906 60.996094 C 598.371094 65.199219 605.78125 68.632812 613.550781 70.921875 L 614.457031 71.191406 L 614.457031 378.945312 L 613.550781 379.214844 C 605.789062 381.5 598.382812 384.929688 592.132812 389.136719 C 580.351562 397.0625 572.179688 407.5 567.847656 420.167969 L 567.554688 421.019531 L 111.699219 421.019531 L 111.402344 420.167969 C 107.070312 407.5 98.902344 397.058594 87.121094 389.136719 C 80.875 384.9375 73.46875 381.503906 65.695312 379.210938 Z M 67.316406 73.078125 L 67.316406 377.066406 C 75 379.425781 82.320312 382.863281 88.53125 387.039062 C 100.515625 395.101562 108.90625 405.679688 113.492188 418.492188 L 565.753906 418.492188 C 570.339844 405.679688 578.734375 395.101562 590.71875 387.039062 C 596.9375 382.859375 604.25 379.421875 611.929688 377.066406 L 611.929688 73.078125 C 604.246094 70.71875 596.925781 67.28125 590.71875 63.101562 C 578.734375 55.039062 570.339844 44.464844 565.753906 31.648438 L 113.496094 31.648438 C 108.910156 44.464844 100.515625 55.039062 88.53125 63.101562 C 82.316406 67.28125 74.996094 70.722656 67.316406 73.078125 Z M 67.316406 73.078125 "/><g clip-rule="nonzero" clip-path="url(#clip3)"><path style=" stroke:none;fill-rule:nonzero;fill:rgb(100%,92.158508%,65.489197%);fill-opacity:1;" d="M 119.222656 15.816406 L 1320.722656 15.816406 L 1320.722656 434.316406 L 119.222656 434.316406 Z M 119.222656 15.816406 "/></g><path style=" stroke:none;fill-rule:nonzero;fill:rgb(100%,92.158508%,65.489197%);fill-opacity:1;" d="M 1385.242188 20.925781 C 1385.238281 20.917969 1385.234375 20.90625 1385.234375 20.898438 C 1385.226562 20.875 1385.21875 20.855469 1385.210938 20.835938 C 1385.207031 20.824219 1385.199219 20.8125 1385.195312 20.800781 C 1385.1875 20.785156 1385.179688 20.765625 1385.171875 20.75 C 1385.164062 20.738281 1385.15625 20.726562 1385.152344 20.714844 C 1385.144531 20.699219 1385.132812 20.683594 1385.125 20.667969 C 1385.117188 20.65625 1385.109375 20.644531 1385.101562 20.632812 C 1385.089844 20.617188 1385.082031 20.605469 1385.070312 20.589844 C 1385.0625 20.582031 1385.054688 20.570312 1385.042969 20.558594 C 1385.03125 20.546875 1385.019531 20.53125 1385.007812 20.519531 C 1385 20.507812 1384.992188 20.5 1384.980469 20.488281 C 1384.964844 20.476562 1384.949219 20.460938 1384.933594 20.445312 C 1384.925781 20.4375 1384.917969 20.429688 1384.90625 20.421875 C 1384.886719 20.40625 1384.863281 20.386719 1384.839844 20.371094 C 1384.832031 20.363281 1384.820312 20.359375 1384.8125 20.351562 C 1384.796875 20.339844 1384.78125 20.332031 1384.761719 20.320312 C 1384.75 20.316406 1384.738281 20.308594 1384.726562 20.304688 C 1384.710938 20.296875 1384.695312 20.285156 1384.679688 20.28125 C 1384.667969 20.273438 1384.65625 20.269531 1384.640625 20.265625 C 1384.625 20.257812 1384.609375 20.25 1384.589844 20.246094 C 1384.578125 20.238281 1384.566406 20.238281 1384.550781 20.230469 C 1384.535156 20.226562 1384.515625 20.222656 1384.496094 20.21875 C 1384.484375 20.214844 1384.472656 20.210938 1384.460938 20.210938 C 1384.4375 20.203125 1384.417969 20.203125 1384.394531 20.199219 C 1384.386719 20.199219 1384.375 20.195312 1384.363281 20.195312 C 1384.332031 20.191406 1384.300781 20.191406 1384.265625 20.191406 L 1383.644531 20.191406 L 1383.644531 20.210938 L 1381.582031 20.210938 C 1381.582031 20.210938 1381.578125 20.21875 1381.570312 20.230469 L 1381.570312 20.210938 L 1380.292969 21.097656 L 1380.929688 21.519531 C 1379.625 24 1376.445312 29.402344 1372.152344 32.371094 L 1372.15625 32.371094 C 1371.652344 32.71875 1371.132812 33.03125 1370.601562 33.304688 L 1370.601562 33.121094 C 1370.601562 32.859375 1370.390625 32.652344 1370.132812 32.652344 C 1369.882812 32.652344 1369.683594 32.84375 1369.664062 33.089844 L 1369.402344 33.089844 L 1369.402344 33.707031 L 1365.863281 33.707031 L 1365.863281 33.839844 C 1365.863281 33.839844 1367.117188 34.933594 1367.328125 37.128906 C 1367.332031 37.082031 1367.335938 37.039062 1367.339844 36.996094 C 1367.34375 36.972656 1367.347656 36.949219 1367.351562 36.925781 C 1367.351562 36.902344 1367.355469 36.882812 1367.359375 36.859375 C 1367.359375 36.832031 1367.363281 36.804688 1367.367188 36.777344 C 1367.371094 36.761719 1367.371094 36.742188 1367.375 36.722656 C 1367.378906 36.695312 1367.382812 36.667969 1367.386719 36.636719 C 1367.386719 36.621094 1367.390625 36.605469 1367.394531 36.585938 C 1367.398438 36.558594 1367.402344 36.527344 1367.40625 36.5 C 1367.40625 36.480469 1367.410156 36.464844 1367.410156 36.449219 C 1367.414062 36.417969 1367.421875 36.390625 1367.425781 36.359375 C 1367.425781 36.34375 1367.429688 36.328125 1367.429688 36.308594 C 1367.4375 36.28125 1367.441406 36.25 1367.445312 36.222656 C 1367.449219 36.207031 1367.449219 36.1875 1367.453125 36.171875 C 1367.457031 36.140625 1367.460938 36.113281 1367.464844 36.085938 C 1367.46875 36.066406 1367.472656 36.050781 1367.472656 36.03125 C 1367.480469 36.003906 1367.484375 35.976562 1367.488281 35.949219 C 1367.492188 35.929688 1367.492188 35.910156 1367.496094 35.894531 C 1367.5 35.867188 1367.503906 35.839844 1367.507812 35.816406 C 1367.511719 35.792969 1367.515625 35.773438 1367.519531 35.753906 C 1367.523438 35.730469 1367.527344 35.707031 1367.53125 35.683594 C 1367.535156 35.660156 1367.539062 35.636719 1367.542969 35.613281 C 1367.546875 35.59375 1367.550781 35.574219 1367.554688 35.550781 C 1367.558594 35.527344 1367.5625 35.503906 1367.566406 35.476562 C 1367.570312 35.460938 1367.574219 35.4375 1367.578125 35.421875 C 1367.582031 35.394531 1367.585938 35.367188 1367.59375 35.339844 C 1367.59375 35.324219 1367.597656 35.308594 1367.601562 35.292969 C 1367.605469 35.265625 1367.613281 35.234375 1367.617188 35.203125 C 1367.621094 35.191406 1367.621094 35.179688 1367.625 35.167969 C 1367.628906 35.132812 1367.636719 35.101562 1367.644531 35.066406 L 1367.648438 35.046875 C 1367.726562 34.632812 1367.796875 34.285156 1367.84375 34.066406 L 1367.847656 34.0625 C 1367.851562 34.042969 1367.855469 34.027344 1367.855469 34.011719 C 1367.859375 34 1367.859375 33.992188 1367.863281 33.984375 L 1367.867188 33.964844 C 1367.878906 33.902344 1367.890625 33.859375 1367.894531 33.839844 L 1369.402344 33.839844 L 1369.402344 34.457031 L 1369.664062 34.457031 C 1369.671875 34.578125 1369.726562 34.6875 1369.8125 34.765625 L 1369.820312 34.773438 C 1369.835938 34.789062 1369.855469 34.804688 1369.878906 34.820312 C 1369.886719 34.824219 1369.894531 34.828125 1369.902344 34.832031 L 1369.914062 34.839844 L 1369.953125 34.859375 L 1369.976562 34.867188 C 1369.988281 34.871094 1370.003906 34.875 1370.015625 34.878906 C 1370.023438 34.878906 1370.03125 34.882812 1370.039062 34.886719 L 1370.050781 34.886719 C 1370.078125 34.890625 1370.105469 34.894531 1370.132812 34.894531 C 1370.160156 34.894531 1370.1875 34.890625 1370.210938 34.886719 C 1370.222656 34.882812 1370.234375 34.882812 1370.246094 34.878906 C 1370.257812 34.875 1370.269531 34.871094 1370.28125 34.867188 C 1370.464844 34.808594 1370.601562 34.632812 1370.601562 34.421875 L 1370.601562 34.230469 C 1372.402344 35.078125 1374.058594 36.457031 1375.507812 38.003906 L 1375.515625 38.011719 C 1375.6875 38.199219 1375.863281 38.390625 1376.03125 38.582031 L 1376.050781 38.605469 C 1376.222656 38.796875 1376.386719 38.988281 1376.546875 39.179688 L 1376.5625 39.195312 C 1376.613281 39.261719 1376.667969 39.324219 1376.71875 39.386719 C 1376.722656 39.394531 1376.730469 39.402344 1376.738281 39.414062 C 1376.894531 39.601562 1377.042969 39.789062 1377.191406 39.980469 C 1377.203125 39.992188 1377.214844 40.011719 1377.226562 40.023438 C 1377.371094 40.210938 1377.511719 40.394531 1377.652344 40.578125 C 1377.664062 40.59375 1377.675781 40.609375 1377.6875 40.625 C 1377.730469 40.683594 1377.773438 40.742188 1377.816406 40.800781 C 1377.828125 40.816406 1377.839844 40.832031 1377.847656 40.847656 C 1377.9375 40.964844 1378.023438 41.082031 1378.105469 41.199219 L 1378.117188 41.214844 C 1378.160156 41.273438 1378.199219 41.332031 1378.242188 41.386719 C 1378.253906 41.40625 1378.265625 41.429688 1378.28125 41.449219 C 1378.40625 41.625 1378.527344 41.800781 1378.644531 41.972656 C 1378.65625 41.992188 1378.671875 42.011719 1378.683594 42.03125 C 1378.722656 42.085938 1378.757812 42.140625 1378.796875 42.195312 C 1378.804688 42.210938 1378.8125 42.222656 1378.824219 42.238281 C 1378.898438 42.347656 1378.972656 42.460938 1379.042969 42.570312 C 1379.050781 42.578125 1379.054688 42.585938 1379.058594 42.59375 C 1379.097656 42.652344 1379.132812 42.707031 1379.167969 42.761719 C 1379.175781 42.777344 1379.1875 42.792969 1379.199219 42.808594 C 1379.308594 42.980469 1379.417969 43.152344 1379.523438 43.320312 C 1379.527344 43.328125 1379.535156 43.339844 1379.542969 43.351562 C 1380.03125 44.136719 1380.441406 44.847656 1380.761719 45.433594 C 1380.816406 45.535156 1380.871094 45.628906 1380.921875 45.722656 L 1380.589844 45.953125 L 1380.292969 46.15625 L 1381.582031 47.015625 L 1383.644531 47.015625 L 1383.644531 47.035156 L 1384.265625 47.035156 C 1384.300781 47.035156 1384.332031 47.03125 1384.363281 47.03125 C 1384.375 47.027344 1384.386719 47.027344 1384.394531 47.023438 C 1384.417969 47.023438 1384.4375 47.019531 1384.460938 47.015625 C 1384.472656 47.011719 1384.484375 47.011719 1384.496094 47.007812 C 1384.515625 47.003906 1384.535156 46.996094 1384.550781 46.992188 C 1384.566406 46.988281 1384.578125 46.984375 1384.589844 46.980469 C 1384.609375 46.972656 1384.625 46.96875 1384.640625 46.960938 C 1384.65625 46.957031 1384.667969 46.949219 1384.679688 46.945312 C 1384.695312 46.9375 1384.710938 46.929688 1384.726562 46.921875 C 1384.738281 46.914062 1384.75 46.910156 1384.761719 46.902344 C 1384.777344 46.894531 1384.792969 46.882812 1384.808594 46.875 C 1384.820312 46.867188 1384.832031 46.859375 1384.84375 46.851562 C 1384.863281 46.839844 1384.882812 46.824219 1384.902344 46.808594 C 1384.914062 46.796875 1384.925781 46.785156 1384.9375 46.773438 C 1384.953125 46.761719 1384.96875 46.75 1384.980469 46.734375 C 1384.992188 46.726562 1385 46.714844 1385.011719 46.703125 C 1385.019531 46.691406 1385.03125 46.679688 1385.042969 46.667969 C 1385.054688 46.65625 1385.0625 46.644531 1385.070312 46.632812 C 1385.082031 46.617188 1385.089844 46.605469 1385.101562 46.59375 C 1385.109375 46.578125 1385.117188 46.566406 1385.125 46.554688 C 1385.132812 46.539062 1385.140625 46.527344 1385.152344 46.511719 C 1385.15625 46.5 1385.164062 46.488281 1385.171875 46.472656 C 1385.179688 46.457031 1385.1875 46.441406 1385.195312 46.425781 C 1385.199219 46.414062 1385.207031 46.402344 1385.210938 46.386719 C 1385.21875 46.367188 1385.226562 46.347656 1385.230469 46.328125 C 1385.234375 46.320312 1385.238281 46.308594 1385.242188 46.296875 C 1385.25 46.269531 1385.257812 46.238281 1385.265625 46.207031 L 1399.628906 47.554688 L 1399.628906 37.816406 L 1399.671875 37.816406 L 1399.671875 29.40625 L 1399.628906 29.40625 L 1399.628906 19.667969 L 1385.265625 21.015625 C 1385.257812 20.984375 1385.25 20.957031 1385.242188 20.925781 "/><path style=" stroke:none;fill-rule:nonzero;fill:rgb(100%,92.158508%,65.489197%);fill-opacity:1;" d="M 1385.242188 407.203125 C 1385.238281 407.195312 1385.234375 407.1875 1385.234375 407.175781 C 1385.226562 407.15625 1385.21875 407.132812 1385.210938 407.113281 C 1385.207031 407.101562 1385.199219 407.089844 1385.195312 407.078125 C 1385.1875 407.0625 1385.179688 407.046875 1385.171875 407.027344 C 1385.164062 407.015625 1385.15625 407.003906 1385.152344 406.992188 C 1385.144531 406.976562 1385.132812 406.960938 1385.125 406.949219 C 1385.117188 406.933594 1385.109375 406.921875 1385.101562 406.910156 C 1385.089844 406.898438 1385.082031 406.882812 1385.070312 406.871094 C 1385.0625 406.859375 1385.054688 406.847656 1385.042969 406.835938 C 1385.03125 406.824219 1385.019531 406.808594 1385.007812 406.796875 C 1385 406.785156 1384.992188 406.777344 1384.980469 406.769531 C 1384.964844 406.753906 1384.949219 406.738281 1384.933594 406.722656 C 1384.925781 406.714844 1384.917969 406.707031 1384.90625 406.699219 C 1384.886719 406.683594 1384.863281 406.664062 1384.839844 406.648438 C 1384.832031 406.644531 1384.820312 406.636719 1384.8125 406.628906 C 1384.796875 406.621094 1384.78125 406.609375 1384.761719 406.601562 C 1384.75 406.59375 1384.738281 406.585938 1384.726562 406.582031 C 1384.710938 406.574219 1384.695312 406.566406 1384.679688 406.558594 C 1384.667969 406.550781 1384.65625 406.546875 1384.640625 406.542969 C 1384.625 406.535156 1384.609375 406.527344 1384.589844 406.523438 C 1384.578125 406.519531 1384.566406 406.515625 1384.550781 406.511719 C 1384.535156 406.507812 1384.515625 406.5 1384.496094 406.496094 C 1384.484375 406.492188 1384.472656 406.492188 1384.460938 406.488281 C 1384.4375 406.484375 1384.417969 406.480469 1384.394531 406.476562 C 1384.386719 406.476562 1384.375 406.472656 1384.363281 406.472656 C 1384.332031 406.46875 1384.300781 406.46875 1384.265625 406.46875 L 1383.644531 406.46875 L 1383.644531 406.488281 L 1381.582031 406.488281 C 1381.582031 406.488281 1381.578125 406.496094 1381.570312 406.507812 L 1381.570312 406.488281 L 1380.292969 407.375 L 1380.929688 407.796875 C 1379.625 410.277344 1376.445312 415.679688 1372.152344 418.648438 L 1372.15625 418.648438 C 1371.652344 418.996094 1371.132812 419.3125 1370.601562 419.582031 L 1370.601562 419.398438 C 1370.601562 419.140625 1370.390625 418.929688 1370.132812 418.929688 C 1369.882812 418.929688 1369.683594 419.121094 1369.664062 419.367188 L 1369.402344 419.367188 L 1369.402344 419.984375 L 1365.863281 419.984375 L 1365.863281 420.117188 C 1365.863281 420.117188 1367.117188 421.214844 1367.328125 423.40625 C 1367.332031 423.363281 1367.335938 423.316406 1367.339844 423.273438 C 1367.34375 423.25 1367.347656 423.226562 1367.351562 423.203125 C 1367.351562 423.179688 1367.355469 423.160156 1367.359375 423.140625 C 1367.359375 423.109375 1367.363281 423.085938 1367.367188 423.058594 C 1367.371094 423.039062 1367.371094 423.019531 1367.375 423.003906 C 1367.378906 422.972656 1367.382812 422.945312 1367.386719 422.917969 C 1367.386719 422.898438 1367.390625 422.882812 1367.394531 422.863281 C 1367.398438 422.835938 1367.402344 422.804688 1367.40625 422.777344 C 1367.40625 422.761719 1367.410156 422.742188 1367.410156 422.726562 C 1367.414062 422.699219 1367.421875 422.667969 1367.425781 422.640625 C 1367.425781 422.621094 1367.429688 422.605469 1367.429688 422.589844 C 1367.4375 422.558594 1367.441406 422.53125 1367.445312 422.503906 C 1367.449219 422.484375 1367.449219 422.46875 1367.453125 422.449219 C 1367.457031 422.421875 1367.460938 422.390625 1367.464844 422.363281 C 1367.46875 422.347656 1367.472656 422.328125 1367.472656 422.308594 C 1367.480469 422.28125 1367.484375 422.253906 1367.488281 422.226562 C 1367.492188 422.207031 1367.492188 422.191406 1367.496094 422.171875 C 1367.5 422.144531 1367.503906 422.121094 1367.507812 422.09375 C 1367.511719 422.074219 1367.515625 422.050781 1367.519531 422.03125 C 1367.523438 422.007812 1367.527344 421.984375 1367.53125 421.960938 C 1367.535156 421.9375 1367.539062 421.914062 1367.542969 421.894531 C 1367.546875 421.871094 1367.550781 421.851562 1367.554688 421.828125 C 1367.558594 421.804688 1367.5625 421.78125 1367.566406 421.757812 C 1367.570312 421.738281 1367.574219 421.71875 1367.578125 421.699219 C 1367.582031 421.671875 1367.585938 421.644531 1367.59375 421.617188 C 1367.59375 421.601562 1367.597656 421.589844 1367.601562 421.574219 C 1367.605469 421.542969 1367.613281 421.511719 1367.617188 421.484375 C 1367.621094 421.472656 1367.621094 421.460938 1367.625 421.445312 C 1367.628906 421.414062 1367.636719 421.378906 1367.644531 421.34375 L 1367.648438 421.328125 C 1367.726562 420.914062 1367.796875 420.5625 1367.84375 420.34375 L 1367.847656 420.339844 C 1367.851562 420.324219 1367.855469 420.304688 1367.855469 420.289062 C 1367.859375 420.28125 1367.859375 420.269531 1367.863281 420.261719 L 1367.867188 420.246094 C 1367.878906 420.179688 1367.890625 420.136719 1367.894531 420.117188 L 1369.402344 420.117188 L 1369.402344 420.734375 L 1369.664062 420.734375 C 1369.671875 420.855469 1369.726562 420.964844 1369.8125 421.042969 L 1369.820312 421.050781 C 1369.835938 421.066406 1369.855469 421.082031 1369.878906 421.097656 C 1369.886719 421.101562 1369.894531 421.105469 1369.902344 421.109375 L 1369.914062 421.117188 L 1369.953125 421.136719 L 1369.976562 421.144531 C 1369.988281 421.148438 1370.003906 421.152344 1370.015625 421.15625 C 1370.023438 421.160156 1370.03125 421.160156 1370.039062 421.164062 L 1370.050781 421.164062 C 1370.078125 421.167969 1370.105469 421.171875 1370.132812 421.171875 C 1370.160156 421.171875 1370.1875 421.167969 1370.210938 421.164062 C 1370.222656 421.164062 1370.234375 421.160156 1370.246094 421.15625 C 1370.257812 421.15625 1370.269531 421.152344 1370.28125 421.148438 C 1370.464844 421.085938 1370.601562 420.910156 1370.601562 420.703125 L 1370.601562 420.507812 C 1372.402344 421.355469 1374.058594 422.738281 1375.507812 424.285156 L 1375.515625 424.289062 C 1375.6875 424.476562 1375.863281 424.667969 1376.03125 424.859375 L 1376.050781 424.882812 C 1376.222656 425.074219 1376.386719 425.265625 1376.546875 425.460938 L 1376.5625 425.476562 C 1376.613281 425.539062 1376.667969 425.601562 1376.71875 425.664062 C 1376.722656 425.671875 1376.730469 425.683594 1376.738281 425.691406 C 1376.894531 425.878906 1377.042969 426.066406 1377.191406 426.257812 C 1377.203125 426.273438 1377.214844 426.289062 1377.226562 426.304688 C 1377.371094 426.488281 1377.511719 426.671875 1377.652344 426.855469 C 1377.664062 426.871094 1377.675781 426.886719 1377.6875 426.902344 C 1377.730469 426.960938 1377.773438 427.019531 1377.816406 427.078125 C 1377.828125 427.09375 1377.839844 427.109375 1377.847656 427.125 C 1377.9375 427.242188 1378.023438 427.359375 1378.105469 427.480469 L 1378.117188 427.496094 C 1378.160156 427.550781 1378.199219 427.609375 1378.242188 427.667969 C 1378.253906 427.6875 1378.265625 427.707031 1378.28125 427.726562 C 1378.40625 427.902344 1378.527344 428.078125 1378.644531 428.25 C 1378.65625 428.269531 1378.671875 428.289062 1378.683594 428.308594 C 1378.722656 428.363281 1378.757812 428.417969 1378.796875 428.472656 C 1378.804688 428.488281 1378.8125 428.5 1378.824219 428.515625 C 1378.898438 428.628906 1378.972656 428.738281 1379.042969 428.847656 C 1379.050781 428.855469 1379.054688 428.863281 1379.058594 428.875 C 1379.097656 428.929688 1379.132812 428.984375 1379.167969 429.039062 C 1379.175781 429.054688 1379.1875 429.070312 1379.199219 429.085938 C 1379.308594 429.261719 1379.417969 429.429688 1379.523438 429.597656 C 1379.527344 429.609375 1379.535156 429.621094 1379.542969 429.628906 C 1380.03125 430.414062 1380.441406 431.128906 1380.761719 431.710938 C 1380.816406 431.8125 1380.871094 431.910156 1380.921875 432 L 1380.589844 432.230469 L 1380.292969 432.4375 L 1381.582031 433.292969 L 1383.644531 433.292969 L 1383.644531 433.3125 L 1384.265625 433.3125 C 1384.300781 433.3125 1384.332031 433.3125 1384.363281 433.308594 C 1384.375 433.308594 1384.386719 433.304688 1384.394531 433.304688 C 1384.417969 433.300781 1384.4375 433.296875 1384.460938 433.292969 C 1384.472656 433.292969 1384.484375 433.289062 1384.496094 433.285156 C 1384.515625 433.28125 1384.535156 433.277344 1384.550781 433.269531 C 1384.566406 433.265625 1384.578125 433.261719 1384.589844 433.257812 C 1384.609375 433.253906 1384.625 433.246094 1384.640625 433.238281 C 1384.65625 433.234375 1384.667969 433.230469 1384.679688 433.222656 C 1384.695312 433.214844 1384.710938 433.207031 1384.726562 433.199219 C 1384.738281 433.195312 1384.75 433.1875 1384.761719 433.179688 C 1384.777344 433.171875 1384.792969 433.160156 1384.808594 433.152344 C 1384.820312 433.144531 1384.832031 433.136719 1384.84375 433.132812 C 1384.863281 433.117188 1384.882812 433.101562 1384.902344 433.085938 C 1384.914062 433.074219 1384.925781 433.0625 1384.9375 433.054688 C 1384.953125 433.039062 1384.96875 433.027344 1384.980469 433.015625 C 1384.992188 433.003906 1385 432.992188 1385.011719 432.984375 C 1385.019531 432.96875 1385.03125 432.957031 1385.042969 432.945312 C 1385.054688 432.933594 1385.0625 432.921875 1385.070312 432.910156 C 1385.082031 432.898438 1385.089844 432.882812 1385.101562 432.871094 C 1385.109375 432.859375 1385.117188 432.847656 1385.125 432.832031 C 1385.132812 432.820312 1385.140625 432.804688 1385.152344 432.789062 C 1385.15625 432.777344 1385.164062 432.765625 1385.171875 432.75 C 1385.179688 432.734375 1385.1875 432.71875 1385.195312 432.703125 C 1385.199219 432.691406 1385.207031 432.679688 1385.210938 432.664062 C 1385.21875 432.648438 1385.226562 432.625 1385.230469 432.605469 C 1385.234375 432.597656 1385.238281 432.585938 1385.242188 432.578125 C 1385.25 432.546875 1385.257812 432.515625 1385.265625 432.484375 L 1399.628906 433.832031 L 1399.628906 424.097656 L 1399.671875 424.097656 L 1399.671875 415.683594 L 1399.628906 415.683594 L 1399.628906 405.945312 L 1385.265625 407.296875 C 1385.257812 407.265625 1385.25 407.234375 1385.242188 407.203125 "/><path style=" stroke:none;fill-rule:nonzero;fill:rgb(100%,92.158508%,65.489197%);fill-opacity:1;" d="M 57.703125 432.324219 C 57.707031 432.335938 57.710938 432.34375 57.714844 432.355469 C 57.722656 432.375 57.730469 432.394531 57.738281 432.414062 C 57.742188 432.425781 57.746094 432.4375 57.753906 432.449219 C 57.761719 432.46875 57.769531 432.484375 57.777344 432.5 C 57.78125 432.511719 57.789062 432.527344 57.796875 432.539062 C 57.804688 432.550781 57.816406 432.566406 57.824219 432.582031 C 57.832031 432.59375 57.839844 432.605469 57.847656 432.617188 C 57.855469 432.632812 57.867188 432.644531 57.878906 432.660156 C 57.886719 432.671875 57.894531 432.683594 57.902344 432.691406 C 57.914062 432.707031 57.925781 432.71875 57.9375 432.730469 C 57.949219 432.742188 57.957031 432.753906 57.964844 432.761719 C 57.980469 432.777344 57.996094 432.789062 58.011719 432.804688 C 58.019531 432.8125 58.03125 432.820312 58.039062 432.828125 C 58.0625 432.847656 58.082031 432.863281 58.105469 432.878906 C 58.117188 432.886719 58.125 432.890625 58.136719 432.898438 C 58.152344 432.910156 58.167969 432.917969 58.183594 432.929688 C 58.195312 432.9375 58.207031 432.941406 58.21875 432.949219 C 58.238281 432.957031 58.25 432.964844 58.269531 432.972656 C 58.28125 432.976562 58.292969 432.984375 58.304688 432.988281 C 58.324219 432.992188 58.339844 433 58.355469 433.007812 C 58.371094 433.011719 58.382812 433.015625 58.394531 433.019531 C 58.414062 433.023438 58.429688 433.027344 58.449219 433.035156 C 58.464844 433.035156 58.476562 433.039062 58.488281 433.042969 C 58.507812 433.046875 58.53125 433.050781 58.550781 433.050781 C 58.5625 433.054688 58.574219 433.054688 58.582031 433.054688 C 58.617188 433.058594 58.648438 433.0625 58.683594 433.0625 L 59.300781 433.0625 L 59.300781 433.039062 L 61.367188 433.039062 C 61.367188 433.039062 61.371094 433.03125 61.375 433.019531 L 61.375 433.039062 L 62.652344 432.15625 L 62.019531 431.730469 C 63.324219 429.25 66.5 423.847656 70.796875 420.878906 L 70.792969 420.878906 C 71.296875 420.53125 71.8125 420.21875 72.34375 419.945312 L 72.34375 420.128906 C 72.34375 420.390625 72.554688 420.601562 72.816406 420.601562 C 73.0625 420.601562 73.265625 420.40625 73.28125 420.164062 L 73.546875 420.164062 L 73.546875 419.542969 L 77.082031 419.542969 L 77.082031 419.414062 C 77.082031 419.414062 75.832031 418.316406 75.621094 416.125 C 75.613281 416.167969 75.609375 416.210938 75.605469 416.257812 C 75.601562 416.28125 75.601562 416.304688 75.597656 416.328125 C 75.59375 416.347656 75.59375 416.367188 75.589844 416.390625 C 75.585938 416.417969 75.582031 416.445312 75.578125 416.472656 C 75.578125 416.492188 75.574219 416.507812 75.574219 416.527344 C 75.570312 416.554688 75.566406 416.585938 75.5625 416.613281 C 75.558594 416.628906 75.558594 416.648438 75.554688 416.664062 C 75.550781 416.695312 75.546875 416.722656 75.542969 416.753906 C 75.539062 416.769531 75.539062 416.785156 75.535156 416.800781 C 75.53125 416.832031 75.527344 416.859375 75.523438 416.890625 C 75.519531 416.90625 75.519531 416.925781 75.515625 416.941406 C 75.511719 416.972656 75.507812 417 75.503906 417.027344 C 75.5 417.046875 75.496094 417.0625 75.496094 417.082031 C 75.488281 417.109375 75.484375 417.136719 75.480469 417.167969 C 75.476562 417.183594 75.476562 417.199219 75.472656 417.21875 C 75.46875 417.246094 75.464844 417.273438 75.460938 417.300781 C 75.457031 417.320312 75.453125 417.339844 75.449219 417.359375 C 75.445312 417.382812 75.441406 417.410156 75.4375 417.4375 C 75.433594 417.457031 75.429688 417.476562 75.425781 417.496094 C 75.421875 417.519531 75.417969 417.542969 75.414062 417.566406 C 75.410156 417.589844 75.40625 417.613281 75.402344 417.636719 C 75.398438 417.65625 75.394531 417.679688 75.390625 417.699219 C 75.386719 417.726562 75.382812 417.75 75.378906 417.773438 C 75.375 417.792969 75.375 417.8125 75.371094 417.828125 C 75.363281 417.855469 75.359375 417.882812 75.355469 417.910156 C 75.351562 417.925781 75.347656 417.941406 75.347656 417.957031 C 75.339844 417.988281 75.335938 418.015625 75.328125 418.046875 C 75.328125 418.058594 75.324219 418.070312 75.324219 418.082031 C 75.316406 418.117188 75.3125 418.152344 75.304688 418.183594 L 75.300781 418.203125 C 75.222656 418.617188 75.148438 418.96875 75.101562 419.1875 C 75.097656 419.207031 75.09375 419.222656 75.089844 419.242188 C 75.089844 419.25 75.085938 419.257812 75.085938 419.265625 L 75.082031 419.285156 C 75.066406 419.347656 75.058594 419.390625 75.050781 419.414062 L 73.546875 419.414062 L 73.546875 418.796875 L 73.28125 418.796875 C 73.273438 418.671875 73.222656 418.5625 73.136719 418.484375 L 73.128906 418.480469 C 73.109375 418.460938 73.089844 418.445312 73.070312 418.433594 C 73.0625 418.425781 73.054688 418.421875 73.046875 418.417969 L 72.992188 418.390625 L 72.972656 418.386719 C 72.957031 418.378906 72.945312 418.375 72.929688 418.375 C 72.921875 418.371094 72.917969 418.367188 72.90625 418.367188 L 72.898438 418.363281 C 72.871094 418.359375 72.84375 418.355469 72.816406 418.355469 C 72.789062 418.355469 72.761719 418.359375 72.734375 418.363281 C 72.722656 418.367188 72.710938 418.371094 72.699219 418.371094 C 72.691406 418.375 72.679688 418.378906 72.667969 418.382812 C 72.480469 418.445312 72.34375 418.621094 72.34375 418.828125 L 72.34375 419.019531 C 70.542969 418.171875 68.890625 416.792969 67.441406 415.246094 L 67.433594 415.238281 C 67.257812 415.050781 67.085938 414.863281 66.914062 414.667969 L 66.894531 414.644531 C 66.726562 414.457031 66.5625 414.261719 66.398438 414.070312 L 66.386719 414.054688 C 66.332031 413.992188 66.28125 413.929688 66.230469 413.867188 C 66.222656 413.855469 66.214844 413.847656 66.207031 413.839844 C 66.054688 413.652344 65.902344 413.460938 65.753906 413.273438 C 65.742188 413.257812 65.730469 413.242188 65.71875 413.226562 C 65.574219 413.042969 65.433594 412.855469 65.296875 412.671875 C 65.285156 412.65625 65.273438 412.640625 65.261719 412.625 C 65.21875 412.566406 65.175781 412.511719 65.132812 412.453125 C 65.121094 412.4375 65.109375 412.421875 65.097656 412.40625 C 65.011719 412.289062 64.925781 412.167969 64.839844 412.050781 L 64.828125 412.035156 C 64.789062 411.976562 64.746094 411.917969 64.707031 411.863281 C 64.695312 411.84375 64.679688 411.824219 64.664062 411.804688 C 64.542969 411.628906 64.421875 411.453125 64.300781 411.277344 C 64.289062 411.257812 64.277344 411.238281 64.261719 411.222656 C 64.226562 411.164062 64.1875 411.109375 64.152344 411.054688 C 64.144531 411.042969 64.132812 411.027344 64.125 411.015625 C 64.050781 410.902344 63.976562 410.792969 63.902344 410.679688 C 63.898438 410.671875 63.894531 410.664062 63.886719 410.65625 C 63.851562 410.601562 63.816406 410.546875 63.78125 410.488281 C 63.769531 410.472656 63.757812 410.457031 63.75 410.441406 C 63.636719 410.269531 63.53125 410.101562 63.425781 409.933594 C 63.417969 409.921875 63.410156 409.910156 63.40625 409.898438 C 62.914062 409.113281 62.503906 408.402344 62.1875 407.820312 C 62.128906 407.71875 62.078125 407.621094 62.027344 407.527344 L 62.359375 407.296875 L 62.652344 407.09375 L 61.367188 406.238281 L 59.300781 406.238281 L 59.300781 406.21875 L 58.683594 406.21875 C 58.648438 406.21875 58.617188 406.21875 58.582031 406.222656 C 58.574219 406.222656 58.5625 406.222656 58.550781 406.226562 C 58.53125 406.230469 58.507812 406.230469 58.488281 406.234375 C 58.476562 406.238281 58.464844 406.242188 58.449219 406.246094 C 58.429688 406.25 58.414062 406.253906 58.394531 406.257812 C 58.382812 406.261719 58.371094 406.265625 58.355469 406.273438 C 58.339844 406.277344 58.324219 406.285156 58.304688 406.289062 C 58.292969 406.296875 58.28125 406.300781 58.269531 406.304688 C 58.25 406.3125 58.238281 406.320312 58.21875 406.328125 C 58.207031 406.335938 58.195312 406.34375 58.183594 406.347656 C 58.167969 406.359375 58.152344 406.367188 58.136719 406.378906 C 58.128906 406.386719 58.117188 406.390625 58.105469 406.398438 C 58.085938 406.414062 58.066406 406.425781 58.046875 406.441406 C 58.035156 406.453125 58.019531 406.464844 58.007812 406.476562 C 57.996094 406.488281 57.980469 406.503906 57.964844 406.515625 C 57.957031 406.527344 57.945312 406.535156 57.9375 406.546875 C 57.925781 406.558594 57.914062 406.570312 57.902344 406.585938 C 57.894531 406.59375 57.882812 406.609375 57.875 406.621094 C 57.867188 406.632812 57.855469 406.644531 57.847656 406.660156 C 57.839844 406.671875 57.832031 406.683594 57.824219 406.695312 C 57.8125 406.710938 57.804688 406.722656 57.796875 406.738281 C 57.789062 406.753906 57.78125 406.765625 57.777344 406.777344 C 57.769531 406.792969 57.761719 406.808594 57.753906 406.824219 C 57.746094 406.839844 57.742188 406.851562 57.738281 406.863281 C 57.730469 406.882812 57.722656 406.902344 57.714844 406.921875 C 57.710938 406.933594 57.707031 406.941406 57.703125 406.953125 C 57.695312 406.984375 57.6875 407.011719 57.683594 407.042969 L 43.316406 405.695312 L 43.316406 415.433594 L 43.277344 415.433594 L 43.277344 423.847656 L 43.316406 423.847656 L 43.316406 433.582031 L 57.683594 432.234375 C 57.6875 432.265625 57.695312 432.296875 57.703125 432.324219 "/><path style=" stroke:none;fill-rule:nonzero;fill:rgb(100%,92.158508%,65.489197%);fill-opacity:1;" d="M 57.703125 42.984375 C 57.707031 42.992188 57.710938 43 57.714844 43.011719 C 57.722656 43.03125 57.730469 43.054688 57.738281 43.074219 C 57.742188 43.085938 57.746094 43.097656 57.753906 43.109375 C 57.761719 43.125 57.769531 43.140625 57.777344 43.160156 C 57.78125 43.171875 57.789062 43.183594 57.796875 43.195312 C 57.804688 43.210938 57.816406 43.226562 57.824219 43.238281 C 57.832031 43.253906 57.839844 43.265625 57.847656 43.277344 C 57.855469 43.289062 57.867188 43.304688 57.878906 43.316406 C 57.886719 43.328125 57.894531 43.339844 57.902344 43.351562 C 57.914062 43.363281 57.925781 43.378906 57.9375 43.390625 C 57.949219 43.402344 57.957031 43.410156 57.964844 43.421875 C 57.980469 43.433594 57.996094 43.449219 58.011719 43.464844 C 58.019531 43.472656 58.03125 43.480469 58.039062 43.488281 C 58.0625 43.503906 58.082031 43.523438 58.105469 43.539062 C 58.117188 43.542969 58.125 43.550781 58.136719 43.558594 C 58.152344 43.566406 58.167969 43.578125 58.183594 43.585938 C 58.195312 43.59375 58.207031 43.601562 58.21875 43.605469 C 58.238281 43.613281 58.25 43.621094 58.269531 43.628906 C 58.28125 43.636719 58.292969 43.640625 58.304688 43.644531 C 58.324219 43.652344 58.339844 43.660156 58.355469 43.664062 C 58.371094 43.667969 58.382812 43.671875 58.394531 43.675781 C 58.414062 43.683594 58.429688 43.6875 58.449219 43.691406 C 58.464844 43.695312 58.476562 43.695312 58.488281 43.699219 C 58.507812 43.703125 58.53125 43.707031 58.550781 43.710938 C 58.5625 43.710938 58.574219 43.714844 58.582031 43.714844 C 58.617188 43.71875 58.648438 43.71875 58.683594 43.71875 L 59.300781 43.71875 L 59.300781 43.699219 L 61.367188 43.699219 C 61.367188 43.699219 61.371094 43.691406 61.375 43.679688 L 61.375 43.699219 L 62.652344 42.8125 L 62.019531 42.390625 C 63.324219 39.910156 66.5 34.507812 70.796875 31.539062 L 70.792969 31.539062 C 71.296875 31.191406 71.8125 30.875 72.34375 30.605469 L 72.34375 30.789062 C 72.34375 31.046875 72.554688 31.257812 72.816406 31.257812 C 73.0625 31.257812 73.265625 31.066406 73.28125 30.820312 L 73.546875 30.820312 L 73.546875 30.203125 L 77.082031 30.203125 L 77.082031 30.070312 C 77.082031 30.070312 75.832031 28.972656 75.621094 26.78125 C 75.613281 26.824219 75.609375 26.871094 75.605469 26.914062 C 75.601562 26.9375 75.601562 26.960938 75.597656 26.984375 C 75.59375 27.007812 75.59375 27.027344 75.589844 27.046875 C 75.585938 27.078125 75.582031 27.101562 75.578125 27.128906 C 75.578125 27.148438 75.574219 27.167969 75.574219 27.183594 C 75.570312 27.214844 75.566406 27.242188 75.5625 27.269531 C 75.558594 27.289062 75.558594 27.304688 75.554688 27.324219 C 75.550781 27.351562 75.546875 27.382812 75.542969 27.410156 C 75.539062 27.425781 75.539062 27.445312 75.535156 27.460938 C 75.53125 27.488281 75.527344 27.519531 75.523438 27.546875 C 75.519531 27.566406 75.519531 27.582031 75.515625 27.597656 C 75.511719 27.628906 75.507812 27.65625 75.503906 27.683594 C 75.5 27.703125 75.496094 27.71875 75.496094 27.738281 C 75.488281 27.765625 75.484375 27.796875 75.480469 27.824219 C 75.476562 27.839844 75.476562 27.859375 75.472656 27.878906 C 75.46875 27.90625 75.464844 27.933594 75.460938 27.960938 C 75.457031 27.980469 75.453125 27.996094 75.449219 28.015625 C 75.445312 28.042969 75.441406 28.066406 75.4375 28.09375 C 75.433594 28.113281 75.429688 28.136719 75.425781 28.15625 C 75.421875 28.179688 75.417969 28.203125 75.414062 28.226562 C 75.410156 28.25 75.40625 28.273438 75.402344 28.292969 C 75.398438 28.316406 75.394531 28.335938 75.390625 28.359375 C 75.386719 28.382812 75.382812 28.40625 75.378906 28.429688 C 75.375 28.449219 75.375 28.46875 75.371094 28.488281 C 75.363281 28.515625 75.359375 28.542969 75.355469 28.570312 C 75.351562 28.585938 75.347656 28.597656 75.347656 28.613281 C 75.339844 28.644531 75.335938 28.675781 75.328125 28.703125 C 75.328125 28.714844 75.324219 28.726562 75.324219 28.742188 C 75.316406 28.773438 75.3125 28.808594 75.304688 28.84375 L 75.300781 28.859375 C 75.222656 29.273438 75.148438 29.625 75.101562 29.84375 L 75.101562 29.847656 C 75.097656 29.863281 75.09375 29.882812 75.089844 29.898438 C 75.089844 29.90625 75.085938 29.917969 75.085938 29.925781 L 75.082031 29.945312 C 75.066406 30.007812 75.058594 30.050781 75.050781 30.070312 L 73.546875 30.070312 L 73.546875 29.453125 L 73.28125 29.453125 C 73.273438 29.332031 73.222656 29.222656 73.136719 29.144531 L 73.128906 29.136719 C 73.109375 29.121094 73.089844 29.105469 73.070312 29.089844 C 73.0625 29.085938 73.054688 29.082031 73.046875 29.078125 L 72.992188 29.050781 L 72.972656 29.042969 C 72.957031 29.039062 72.945312 29.035156 72.929688 29.03125 C 72.921875 29.027344 72.917969 29.027344 72.90625 29.023438 L 72.898438 29.023438 C 72.871094 29.019531 72.84375 29.015625 72.816406 29.015625 C 72.789062 29.015625 72.761719 29.019531 72.734375 29.023438 C 72.722656 29.023438 72.710938 29.027344 72.699219 29.03125 C 72.691406 29.03125 72.679688 29.035156 72.667969 29.042969 C 72.480469 29.101562 72.34375 29.277344 72.34375 29.484375 L 72.34375 29.679688 C 70.542969 28.832031 68.890625 27.449219 67.441406 25.90625 L 67.433594 25.898438 C 67.257812 25.710938 67.085938 25.519531 66.914062 25.328125 L 66.894531 25.304688 C 66.726562 25.113281 66.5625 24.921875 66.398438 24.726562 L 66.386719 24.710938 C 66.332031 24.648438 66.28125 24.585938 66.230469 24.523438 C 66.222656 24.515625 66.214844 24.503906 66.207031 24.496094 C 66.054688 24.308594 65.902344 24.121094 65.753906 23.929688 C 65.742188 23.914062 65.730469 23.898438 65.71875 23.882812 C 65.574219 23.699219 65.433594 23.515625 65.296875 23.332031 C 65.285156 23.316406 65.273438 23.300781 65.261719 23.285156 C 65.21875 23.226562 65.175781 23.167969 65.132812 23.109375 C 65.121094 23.09375 65.109375 23.078125 65.097656 23.0625 C 65.011719 22.945312 64.925781 22.828125 64.839844 22.710938 L 64.828125 22.691406 C 64.789062 22.636719 64.746094 22.578125 64.707031 22.519531 C 64.695312 22.5 64.679688 22.480469 64.664062 22.460938 C 64.542969 22.285156 64.421875 22.109375 64.300781 21.9375 C 64.289062 21.917969 64.277344 21.898438 64.261719 21.878906 C 64.226562 21.824219 64.1875 21.769531 64.152344 21.714844 C 64.144531 21.699219 64.132812 21.6875 64.125 21.671875 C 64.050781 21.558594 63.976562 21.449219 63.902344 21.339844 C 63.898438 21.332031 63.894531 21.324219 63.886719 21.3125 C 63.851562 21.257812 63.816406 21.203125 63.78125 21.148438 C 63.769531 21.132812 63.757812 21.117188 63.75 21.101562 C 63.636719 20.929688 63.53125 20.757812 63.425781 20.589844 C 63.417969 20.578125 63.410156 20.566406 63.40625 20.558594 C 62.914062 19.773438 62.503906 19.058594 62.1875 18.476562 C 62.128906 18.375 62.078125 18.277344 62.027344 18.1875 L 62.359375 17.957031 L 62.652344 17.75 L 61.367188 16.894531 L 59.300781 16.894531 L 59.300781 16.875 L 58.683594 16.875 C 58.648438 16.875 58.617188 16.875 58.582031 16.878906 C 58.574219 16.878906 58.5625 16.882812 58.550781 16.882812 C 58.53125 16.886719 58.507812 16.890625 58.488281 16.894531 C 58.476562 16.898438 58.464844 16.898438 58.449219 16.902344 C 58.429688 16.90625 58.414062 16.910156 58.394531 16.917969 C 58.382812 16.921875 58.371094 16.925781 58.355469 16.929688 C 58.339844 16.933594 58.324219 16.941406 58.304688 16.949219 C 58.292969 16.953125 58.28125 16.957031 58.269531 16.964844 C 58.25 16.972656 58.238281 16.980469 58.21875 16.988281 C 58.207031 16.992188 58.195312 17 58.183594 17.007812 C 58.167969 17.015625 58.152344 17.027344 58.136719 17.035156 C 58.128906 17.042969 58.117188 17.050781 58.105469 17.054688 C 58.085938 17.070312 58.066406 17.085938 58.046875 17.101562 C 58.035156 17.113281 58.019531 17.125 58.007812 17.132812 C 57.996094 17.148438 57.980469 17.160156 57.964844 17.171875 C 57.957031 17.183594 57.945312 17.195312 57.9375 17.203125 C 57.925781 17.21875 57.914062 17.230469 57.902344 17.242188 C 57.894531 17.253906 57.882812 17.265625 57.875 17.277344 C 57.867188 17.289062 57.855469 17.304688 57.847656 17.316406 C 57.839844 17.328125 57.832031 17.339844 57.824219 17.355469 C 57.8125 17.367188 57.804688 17.382812 57.796875 17.398438 C 57.789062 17.410156 57.78125 17.421875 57.777344 17.4375 C 57.769531 17.453125 57.761719 17.46875 57.753906 17.484375 C 57.746094 17.496094 57.742188 17.507812 57.738281 17.523438 C 57.730469 17.539062 57.722656 17.5625 57.714844 17.582031 C 57.710938 17.589844 57.707031 17.601562 57.703125 17.609375 C 57.695312 17.640625 57.6875 17.671875 57.683594 17.703125 L 43.316406 16.355469 L 43.316406 26.089844 L 43.277344 26.089844 L 43.277344 34.503906 L 43.316406 34.503906 L 43.316406 44.242188 L 57.683594 42.890625 C 57.6875 42.921875 57.695312 42.953125 57.703125 42.984375 "/></g></svg>