<svg id="Ebene_1" data-name="Ebene 1" xmlns="http://www.w3.org/2000/svg" viewBox="0 0 380 380"><metadata><?xpacket begin="﻿" id="W5M0MpCehiHzreSzNTczkc9d"?>
<x:xmpmeta xmlns:x="adobe:ns:meta/" x:xmptk="Adobe XMP Core 6.0-c002 79.164488, 2020/07/10-22:06:53        ">
   <rdf:RDF xmlns:rdf="http://www.w3.org/1999/02/22-rdf-syntax-ns#">
      <rdf:Description rdf:about=""
            xmlns:photoshop="http://ns.adobe.com/photoshop/1.0/"
            xmlns:dc="http://purl.org/dc/elements/1.1/"
            xmlns:Iptc4xmpCore="http://iptc.org/std/Iptc4xmpCore/1.0/xmlns/"
            xmlns:xmp="http://ns.adobe.com/xap/1.0/"
            xmlns:xmpMM="http://ns.adobe.com/xap/1.0/mm/"
            xmlns:stEvt="http://ns.adobe.com/xap/1.0/sType/ResourceEvent#">
         <photoshop:Source>www.flyerwrk.com</photoshop:Source>
         <dc:creator>
            <rdf:Seq>
               <rdf:li>www.flyerwrk.com</rdf:li>
            </rdf:Seq>
         </dc:creator>
         <Iptc4xmpCore:CreatorContactInfo>
            <rdf:Description>
               <Iptc4xmpCore:CiUrlWork>www.flyerwrk.com</Iptc4xmpCore:CiUrlWork>
            </rdf:Description>
         </Iptc4xmpCore:CreatorContactInfo>
         <xmp:MetadataDate>2021-03-26T01:44:11+01:00</xmp:MetadataDate>
         <xmpMM:InstanceID>xmp.iid:052d3e22-8de6-4e86-858a-45d8ed928780</xmpMM:InstanceID>
         <xmpMM:DocumentID>xmp.did:052d3e22-8de6-4e86-858a-45d8ed928780</xmpMM:DocumentID>
         <xmpMM:OriginalDocumentID>xmp.did:052d3e22-8de6-4e86-858a-45d8ed928780</xmpMM:OriginalDocumentID>
         <xmpMM:History>
            <rdf:Seq>
               <rdf:li>
                  <rdf:Description>
                     <stEvt:action>saved</stEvt:action>
                     <stEvt:instanceID>xmp.iid:052d3e22-8de6-4e86-858a-45d8ed928780</stEvt:instanceID>
                     <stEvt:when>2021-03-26T01:44:11+01:00</stEvt:when>
                     <stEvt:softwareAgent>Adobe Bridge 2021 (Macintosh)</stEvt:softwareAgent>
                     <stEvt:changed>/metadata</stEvt:changed>
                  </rdf:Description>
               </rdf:li>
            </rdf:Seq>
         </xmpMM:History>
      </rdf:Description>
   </rdf:RDF>
</x:xmpmeta>
                                                                                                    
                                                                                                    
                                                                                                    
                                                                                                    
                                                                                                    
                                                                                                    
                                                                                                    
                                                                                                    
                                                                                                    
                                                                                                    
                                                                                                    
                                                                                                    
                                                                                                    
                                                                                                    
                                                                                                    
                                                                                                    
                                                                                                    
                                                                                                    
                                                                                                    
                                                                                                    
                           
<?xpacket end="w"?></metadata>
<path d="M88.74,278.08l72.68-37.72c.42.24.83.49,1.25.72L87.15,283.93l1.58-5.85Zm-1.14,6.63,75.32-43.49,1.22.68L93.45,286.31l-5.85-1.6ZM191.13,105.39v94.74h-.93l-3.38-90.49,4.31-4.26Zm5.17,4.3-4.06,90.5-.81-.05h-.11l.7-94.74,4.28,4.3ZM220.86,242.4l73.35,43.08L288.35,287l-68.84-44,1.35-.66Zm.28-.14,1.39-.73,70.6,37.31,1.53,5.87-73.52-42.45Zm66.21,22.67-61.23-25.45c.51-.31,1-.63,1.51-.95l56.66,21.11,3.06,5.29Zm-3.64-6.3-55.77-20.3c.52-.34,1-.68,1.55-1L281,253.88l2.74,4.75Zm-8.65-15-41.58-9.27c.56-.44,1.11-.89,1.66-1.34L273,240l2.11,3.65Zm-2.51-4.36-37.08-6.54c.57-.48,1.14-1,1.69-1.46l33.43,4.61,2,3.39Zm-6.35-11-24.63-1.1,0,0-1.86-1.88,24.85.18,1.62,2.82Zm-1.94-3.37h-24.9l-1.72-1.73,25.07-.94,1.55,2.67Zm-5.12-8.86-25.33,3.3c-.49-.47-1-.93-1.49-1.38l25.45-4.29,1.37,2.37Zm-1.64-2.84L232,217.72c-.48-.43-1-.85-1.46-1.27l25.62-5.51,1.32,2.29ZM253,205.5l-26,8.16-1.38-1,26.14-9.3L253,205.5Zm-1.48-2.56-26.17,9.53-1.35-.93,26.31-10.7,1.21,2.1Zm-4.16-7.21-26.56,13.79-1.25-.73,26.62-15.11,1.19,2ZM246,193.27l-26.64,15.38c-.4-.23-.81-.46-1.22-.67l26.67-16.76,1.19,2.05Zm-4.13-7.15-26.63,20.37-1.13-.53L240.64,184l1.21,2.1Zm-1.46-2.52-26.53,22.26-1.1-.49,26.4-23.9,1.23,2.13ZM236,176.05,210.1,204.28c-.34-.13-.69-.27-1-.39l25.66-30.12,1.31,2.28Zm-1.58-2.74-25.6,30.5-1-.36L233.09,171l1.36,2.36Zm-4.91-8.51-24.18,37.85-1-.29L228,162.15l1.53,2.65Zm-1.85-3.2-23.5,40.71-1-.26,22.85-43.24,1.61,2.79Zm-5.95-10.31-20.86,50.19-.94-.21,19.87-53.33,1.93,3.35Zm-2.33-4-19.65,54-.94-.18,18.5-57.41,2.09,3.61Zm-7.91-13.69-15,67.11-.92-.13,13.19-71.65,2.69,4.67Zm-3.26-5.65-12.8,72.6-.92-.11,10.72-77.69,3,5.2Zm-30.59-6.3,10.25,78.6-.93,0L174.6,126.9l3.05-5.29Zm-3.63,6.3,12.76,72.37-.94.07-14.56-67.69,2.74-4.75Zm-8.65,15,18.12,57.71-1,.13-19.26-54.19,2.11-3.65Zm-2.52,4.36,19.48,53.5-1,.15L160.9,150.64l1.95-3.39Zm-6.34,11,22.38,43.12-1,.21-23-40.51,1.63-2.82Zm-1.95,3.37,23.1,40-1,.24L153,164.28l1.54-2.68Zm-5.12,8.87L174,202.54l-1.1.32-24.81-30,1.36-2.37Zm-1.63,2.84,24.85,29.62-1.12.35-25-27.68,1.32-2.29ZM143.34,181l25.32,23.25-1.21.47-25.34-21.59,1.23-2.13Zm-1.47,2.56,25.33,21.25-1.25.51-25.3-19.66,1.22-2.1Zm-4.17,7.21,25.05,16c-.45.21-.91.43-1.35.66l-24.88-14.61,1.19-2.05Zm-1.42,2.46,24.84,14.34-1.39.73-24.63-13,1.18-2Zm-4.13,7.15,24,10c-.51.31-1,.63-1.51,1l-23.69-8.82,1.21-2.1Zm-1.45,2.52,23.62,8.6-1.56,1-23.29-7.5,1.23-2.13Zm-4.36,7.55,22.44,5c-.56.44-1.11.89-1.66,1.34L125,212.77l1.31-2.28Zm-1.58,2.74,22,3.89c-.57.48-1.13,1-1.68,1.46l-21.7-3,1.36-2.36Zm-4.91,8.51,20.83.93,0,0,1.87,1.88-24.21-.18,1.53-2.65ZM118,224.93h24.9l1.72,1.74-28.23,1.06,1.61-2.8Zm-6,10.32,36.39-4.75c.5.47,1,.93,1.49,1.38l-39.82,6.72,1.94-3.35Zm-2.34,4,40.52-7.14c.49.43,1,.85,1.47,1.27l-44.07,9.48,2.08-3.61ZM101.81,253l53.41-16.77c.45.34.91.67,1.38,1L99.11,257.65l2.7-4.67Zm-3.26,5.65,58.32-21.23c.44.32.89.63,1.34.93l-62.66,25.5,3-5.2ZM110,287,167,243.38l1.13.53L116,287Zm7.12,0,51.28-43,1.11.49-47,42.54Zm17,0,38.08-41.45c.34.13.69.27,1,.39l-35,41.06Zm4.94,0,34.38-41,1,.36L142.85,287Zm12.44,0,25.44-39.82,1,.28L154.65,287Zm3.81,0,22.8-39.48,1,.26L158.3,287Zm10,0,16.06-38.65.94.21L168,287Zm3.2,0,14-38.41.93.19L171.12,287Zm8.76,0,8.44-37.84.92.13L179.7,287Zm2.9,0,6.64-37.69.92.12L182.56,287Zm8.16,0L190,249.68l.81,0h.11l-.28,37.3Zm2.79,0v-37.3h.93L193.45,287Zm8.1,0-4.88-37.38.94,0L201.6,287Zm2.85,0-6.6-37.45.94-.07L204.49,287Zm8.55,0-11.86-37.77,1-.13L213.21,287Zm3.1,0-13.8-37.92,1-.15L216.4,287Zm9.63,0-20-38.52,1-.21,22,38.73Zm3.63,0L204.6,248.26l1-.24,24.52,39Zm11.67,0-30.39-39.71,1.1-.32,33.08,40Zm4.58,0-33.64-40.1,1.12-.35L247.33,287Zm15.5,0L213.6,245.58l1.21-.47L264,287Zm6.4,0-50.08-42,1.25-.52L271,287Z"/><path d="M191.13,239.27a13.89,13.89,0,0,1-13.9-13.89,13.17,13.17,0,0,1,.15-2,6.49,6.49,0,1,0,3.2-7,13.89,13.89,0,1,1,10.55,22.94Z"/><path d="M312.53,291.33l-117.07-211-3.64,2.1h0l-3.64,2.1,1.19,2L65.16,293.39l3.64,2.1,3.64,2.1,1.12-2,241.28,4.12v-8.4l-2.31,0ZM73.65,295.41,189.47,86.65,312.34,291.33,73.65,295.41Z"/><path d="M235.08,227.12,233,225q-.94-1-1.92-1.92l-.18-.19h0c-10.66-10.24-25-17.35-39.76-18.21-16.14-.08-32.31,7.26-44.06,18.2l2.11,2.13c.63.65,1.27,1.3,1.92,1.93l.18.18h0c10.66,10.24,25,17.35,39.76,18.2,16.14.08,32.31-7.25,44.06-18.2ZM151.39,227c10.41-10.94,25.81-19.23,41.1-19.32,13.67-.08,27.79,6.53,38.24,15.36-10.41,10.95-25.81,19.23-41.1,19.32C176,242.42,161.84,235.82,151.39,227Z"/><path d="M191.13,211.49a13.89,13.89,0,0,0-10.55,4.84,6.59,6.59,0,0,1,3.15-.81,6.5,6.5,0,1,1-6.35,7.86,13.17,13.17,0,0,0-.15,2,13.9,13.9,0,1,0,13.9-13.89Z"/><path d="M177.67,201.61l-23.1-40L153,164.28l23.61,37.57,1-.24Z"/><path d="M178.88,201.35l-22.37-43.12-1.63,2.82,23,40.51,1-.21Z"/><path d="M174,202.54l-24.54-32.07-1.36,2.37,24.8,30,1.1-.32Z"/><path d="M186.77,200.28,174,127.91l-2.74,4.75,14.56,67.69.94-.07Z"/><path d="M172.67,202.93l-24.86-29.62-1.32,2.29,25,27.69c.38-.13.75-.25,1.13-.36Z"/><path d="M187.91,200.21l-10.25-78.6-3.06,5.29L187,200.26l.94,0Z"/><path d="M183.48,200.6l-18.12-57.71-2.11,3.65,19.27,54.19,1-.13Z"/><path d="M182.32,200.75l-19.47-53.5-2,3.39,20.45,50.26,1-.15Z"/><path d="M154.32,211.54l-23.62-8.6-1.23,2.13,23.3,7.5c.51-.35,1-.69,1.55-1Z"/><path d="M190.9,200.13h.22V105.39l-4.31,4.26,3.38,90.48Z"/><path d="M148.78,215.49l-22.44-5L125,212.77l22.1,4.06c.54-.45,1.1-.9,1.66-1.34Z"/><path d="M156.14,210.39l-24-10-1.21,2.1,23.69,8.82c.5-.32,1-.64,1.51-1Z"/><path d="M146.78,217.12l-22-3.89-1.36,2.36,21.69,3c.56-.5,1.12-1,1.69-1.46Z"/><path d="M167.2,204.85,141.86,183.6l-1.21,2.1L166,205.36l1.25-.51Z"/><path d="M168.66,204.29,143.34,181l-1.23,2.13,25.33,21.59,1.22-.47Z"/><path d="M161.12,207.61l-24.83-14.34-1.19,2,24.63,13,1.39-.73Z"/><path d="M162.74,206.8l-25-16-1.19,2.05,24.88,14.61,1.35-.67Z"/><path d="M204.19,202.31l23.5-40.71-1.61-2.79-22.86,43.24,1,.26Z"/><path d="M219.34,208.65,246,193.27l-1.19-2.05L218.12,208l1.22.68Z"/><path d="M225.39,212.47l26.17-9.53-1.21-2.1L224,211.54l1.35.93Z"/><path d="M220.83,209.52l26.56-13.79-1.18-2-26.63,15.11c.42.24.84.48,1.25.73Z"/><path d="M215.22,206.5l26.62-20.38-1.21-2.1L214.08,206l1.14.54Z"/><path d="M213.86,205.86l26.53-22.26-1.23-2.13-26.41,23.9,1.11.49Z"/><path d="M233.81,219.37l25.33-3.3-1.37-2.37L232.32,218l1.49,1.38Z"/><path d="M191.43,200.14l.81.05,4.07-90.5-4.28-4.3-.71,94.74Z"/><path d="M232,217.72l25.47-4.49-1.32-2.29-25.62,5.51c.5.42,1,.84,1.47,1.27Z"/><path d="M227,213.66l26-8.16-1.23-2.14-26.14,9.3c.46.33.92.66,1.37,1Z"/><polygon points="239.37 224.93 264.26 224.93 262.71 222.27 237.63 223.2 239.37 224.93"/><path d="M199.75,201.24l19.65-54-2.08-3.61-18.5,57.41.93.18Z"/><path d="M196.54,200.67l15-67.11-2.7-4.67-13.19,71.65.92.13Z"/><path d="M195.44,200.52l12.8-72.61-3-5.2-10.72,77.7.92.11Z"/><path d="M200.88,201.48l20.86-50.19-1.93-3.35-19.87,53.33.94.2Z"/><path d="M210.11,204.28,236,176.05l-1.32-2.28-25.66,30.12c.35.12.7.26,1,.39Z"/><polygon points="140.66 222.69 140.68 222.67 119.85 221.74 118.31 224.38 142.53 224.57 140.66 222.69"/><path d="M208.84,203.81l25.6-30.5L233.08,171l-25.26,32.5,1,.36Z"/><path d="M205.36,202.65l24.18-37.84L228,162.15l-23.62,40.22,1,.28Z"/><path d="M167,243.38,110,287h6l52.19-43.13-1.13-.53Z"/><path d="M208.27,247.33,238.66,287h3.8l-33.09-40-1.1.32Z"/><path d="M204.59,248.26,227,287h3.16l-24.51-39-1,.24Z"/><path d="M203.37,248.52l20,38.52h3l-22-38.74-1,.22Z"/><path d="M213.6,245.58,258.74,287H264l-49.21-41.92-1.21.46Z"/><path d="M209.59,246.94,243.24,287h4.08l-36.61-40.45-1.12.35Z"/><path d="M195.47,249.59l6.6,37.45h2.41l-8.07-37.52-.94.07Z"/><path d="M199.92,249.12,213.73,287h2.66L200.9,249l-1,.15Z"/><path d="M194.35,249.66,199.23,287h2.37l-6.31-37.43-.94,0Z"/><path d="M198.76,249.28,210.62,287h2.58l-13.47-37.89-1,.13Z"/><path d="M233.48,234.38l41.58,9.28L273,240l-37.81-7c-.55.45-1.1.9-1.66,1.34Z"/><path d="M235.47,232.75l37.07,6.54-2-3.39-33.43-4.62c-.56.5-1.12,1-1.69,1.47Z"/><path d="M215.06,245l50.08,42H271L216.3,244.5l-1.24.51Z"/><path d="M227.94,238.34l55.77,20.3L281,253.88,229.49,237.3l-1.55,1Z"/><polygon points="241.59 227.18 241.57 227.19 266.2 228.31 264.57 225.49 239.72 225.3 241.59 227.18"/><path d="M294.2,285.48,220.86,242.4l-1.35.67,68.84,44,5.86-1.56Z"/><path d="M222.52,241.53l-1.39.73,73.52,42.44-1.53-5.86-70.6-37.31Z"/><path d="M226.12,239.48l61.23,25.45-3.06-5.29-56.66-21.11c-.5.33-1,.64-1.51.95Z"/><path d="M176.89,247.21,151.45,287h3.2l23.22-39.54-1-.29Z"/><path d="M172.15,245.6l-38.07,41.45h4.13l35-41.06-1-.39Z"/><path d="M161.42,240.35,88.74,278.08l-1.58,5.85,75.52-42.85c-.42-.24-.84-.48-1.25-.73Z"/><path d="M162.91,241.23,87.6,284.71l5.84,1.6,70.69-44.41-1.22-.67Z"/><path d="M168.4,244l-51.28,43h5.38l47-42.54L168.4,244Z"/><path d="M156.87,237.4,98.55,258.63l-3,5.2,62.66-25.5c-.45-.3-.89-.61-1.34-.93Z"/><path d="M148.44,230.5l-36.39,4.75-1.94,3.34,39.82-6.71c-.5-.45-1-.91-1.49-1.38Z"/><path d="M150.22,232.15l-40.52,7.14-2.08,3.61,44.07-9.48-1.47-1.27Z"/><path d="M155.21,236.22,101.8,253l-2.69,4.67,57.48-20.43c-.47-.33-.92-.66-1.38-1Z"/><path d="M185.71,249.21,177.28,287h2.41l6.95-37.71-.93-.13Z"/><path d="M186.82,249.35,180.17,287h2.38l5.19-37.57-.92-.11Z"/><path d="M191.36,249.74h-.23V287h2.33l-1.4-37.31Z"/><path d="M173.4,246.05,139,287h3.84l31.57-40.62-1-.37Z"/><path d="M182.51,248.63l-14,38.41h2.59l12.32-38.22-.93-.19Z"/><path d="M190.83,249.74l-.82-.06-1.68,37.37h2.33l.28-37.31Z"/><polygon points="142.89 224.93 118 224.93 116.39 227.72 144.62 226.68 142.89 224.93"/><path d="M181.37,248.39,165.31,287H168l14.32-38.45-.94-.2Z"/><path d="M178.07,247.56,155.27,287h3L179,247.82l-1-.26Z"/></svg>