<?xml version="1.0" encoding="UTF-8" standalone="no"?>
<!DOCTYPE svg PUBLIC "-//W3C//DTD SVG 1.1//EN" "http://www.w3.org/Graphics/SVG/1.1/DTD/svg11.dtd">
<svg version="1.1" xmlns="http://www.w3.org/2000/svg" xmlns:xlink="http://www.w3.org/1999/xlink" preserveAspectRatio="xMidYMid meet" viewBox="76.92842105263158 237.60210526315785 488.1431578947368 166.79578947368435" width="484.14" height="162.8"><defs><path d="M562.07 320C562.07 275.05 453.69 238.6 320 238.6C409.92 238.6 482.81 275.05 482.81 320C498.66 320 554.15 320 562.07 320Z" id="d1pMgq4ZJz"></path><path d="M77.93 320C77.93 364.95 186.31 401.4 320 401.4C230.08 401.4 157.19 364.95 157.19 320C141.34 320 85.85 320 77.93 320Z" id="c4GB3B8l6p"></path><path d="M77.93 320C85.85 320 149.26 320 157.19 320C157.19 275.05 230.08 238.6 320 238.6C186.31 238.6 77.93 275.05 77.93 320Z" id="c3xYrhciz"></path><path d="M482.81 320C482.81 364.95 409.92 401.4 320 401.4C453.69 401.4 562.07 364.95 562.07 320C546.22 320 498.66 320 482.81 320Z" id="bGkTRWawQ"></path><path d="M238.6 320C238.6 275.05 275.05 238.6 320 238.6C230.08 238.6 157.19 275.05 157.19 320C173.47 320 230.46 320 238.6 320Z" id="b36vVNuHzr"></path><path d="M482.81 320C482.81 275.05 409.92 238.6 320 238.6C364.95 238.6 401.4 275.05 401.4 320C417.68 320 474.67 320 482.81 320Z" id="f6SDs70Yz"></path><path d="M401.4 320C401.4 364.95 364.95 401.4 320 401.4C320 401.4 320 401.4 320 401.4C409.92 401.4 482.81 364.95 482.81 320C466.53 320 409.54 320 401.4 320Z" id="avMXTfl86"></path><path d="M157.19 320C157.19 364.95 230.08 401.4 320 401.4C275.05 401.4 238.6 364.95 238.6 320C222.32 320 165.33 320 157.19 320Z" id="bKCoAXcMM"></path><path d="M401.4 320C401.4 275.05 364.95 238.6 320 238.6C320 238.6 320 238.6 320 238.6C320 244.03 320 271.16 320 320C363.41 320 390.54 320 401.4 320Z" id="c7O6N41Og"></path><path d="M320 320C320 368.84 320 395.97 320 401.4C364.95 401.4 401.4 364.95 401.4 320C390.54 320 363.41 320 320 320Z" id="cZPAlNZVU"></path><path d="M238.6 320C238.6 364.95 275.05 401.4 320 401.4C320 395.97 320 368.84 320 320C276.59 320 249.46 320 238.6 320Z" id="g6Zuce5Id"></path><path d="M320 320C320 271.16 320 244.03 320 238.6C275.05 238.6 238.6 275.05 238.6 320C249.46 320 276.59 320 320 320Z" id="a8QSUdB3a"></path></defs><g><g><use xlink:href="#d1pMgq4ZJz" opacity="1" fill="#000000" fill-opacity="0"></use><g><use xlink:href="#d1pMgq4ZJz" opacity="1" fill-opacity="0" stroke="#b82660" stroke-width="1.69" stroke-opacity="1"></use></g></g><g><use xlink:href="#c4GB3B8l6p" opacity="1" fill="#000000" fill-opacity="0"></use><g><use xlink:href="#c4GB3B8l6p" opacity="1" fill-opacity="0" stroke="#b82660" stroke-width="1.69" stroke-opacity="1"></use></g></g><g><use xlink:href="#c3xYrhciz" opacity="1" fill="#000000" fill-opacity="0"></use><g><use xlink:href="#c3xYrhciz" opacity="1" fill-opacity="0" stroke="#b82660" stroke-width="1.69" stroke-opacity="1"></use></g></g><g><use xlink:href="#bGkTRWawQ" opacity="1" fill="#000000" fill-opacity="0"></use><g><use xlink:href="#bGkTRWawQ" opacity="1" fill-opacity="0" stroke="#b82660" stroke-width="1.69" stroke-opacity="1"></use></g></g><g><use xlink:href="#b36vVNuHzr" opacity="1" fill="#000000" fill-opacity="0"></use><g><use xlink:href="#b36vVNuHzr" opacity="1" fill-opacity="0" stroke="#b82660" stroke-width="1.69" stroke-opacity="1"></use></g></g><g><use xlink:href="#f6SDs70Yz" opacity="1" fill="#000000" fill-opacity="0"></use><g><use xlink:href="#f6SDs70Yz" opacity="1" fill-opacity="0" stroke="#b82660" stroke-width="1.69" stroke-opacity="1"></use></g></g><g><use xlink:href="#avMXTfl86" opacity="1" fill="#000000" fill-opacity="0"></use><g><use xlink:href="#avMXTfl86" opacity="1" fill-opacity="0" stroke="#b82660" stroke-width="1.69" stroke-opacity="1"></use></g></g><g><use xlink:href="#bKCoAXcMM" opacity="1" fill="#000000" fill-opacity="0"></use><g><use xlink:href="#bKCoAXcMM" opacity="1" fill-opacity="0" stroke="#b82660" stroke-width="1.69" stroke-opacity="1"></use></g></g><g><use xlink:href="#c7O6N41Og" opacity="1" fill="#000000" fill-opacity="0"></use><g><use xlink:href="#c7O6N41Og" opacity="1" fill-opacity="0" stroke="#b82660" stroke-width="1.69" stroke-opacity="1"></use></g></g><g><use xlink:href="#cZPAlNZVU" opacity="1" fill="#000000" fill-opacity="0"></use><g><use xlink:href="#cZPAlNZVU" opacity="1" fill-opacity="0" stroke="#b82660" stroke-width="1.69" stroke-opacity="1"></use></g></g><g><use xlink:href="#g6Zuce5Id" opacity="1" fill="#000000" fill-opacity="0"></use><g><use xlink:href="#g6Zuce5Id" opacity="1" fill-opacity="0" stroke="#b82660" stroke-width="1.69" stroke-opacity="1"></use></g></g><g><use xlink:href="#a8QSUdB3a" opacity="1" fill="#000000" fill-opacity="0"></use><g><use xlink:href="#a8QSUdB3a" opacity="1" fill-opacity="0" stroke="#b82660" stroke-width="1.69" stroke-opacity="1"></use></g></g></g></svg>