<svg xmlns="http://www.w3.org/2000/svg" xmlns:svgjs="http://svgjs.com/svgjs" xmlns:xlink="http://www.w3.org/1999/xlink" width="288" height="288"><svg xmlns="http://www.w3.org/2000/svg" width="288" height="288" viewBox="0 0 400 337.333"><path fill="red" fill-rule="evenodd" d="M100.036 0.700 C 85.663 3.737,74.897 14.656,69.343 31.833 C 68.928 33.117,62.820 50.925,55.770 71.407 L 42.951 108.648 43.313 112.907 C 45.721 141.232,72.731 158.133,98.376 147.360 C 99.591 146.850,111.066 140.373,123.876 132.966 C 146.881 119.665,147.189 119.500,149.000 119.505 C 150.804 119.510,151.206 119.726,173.908 132.839 C 186.599 140.169,196.986 146.242,196.991 146.333 C 196.995 146.425,196.212 146.938,195.250 147.474 C 183.384 154.079,175.748 164.754,174.024 177.145 C 173.530 180.694,173.536 224.665,174.030 227.067 C 177.465 243.750,200.012 245.447,206.369 229.500 L 207.167 227.500 207.333 204.333 C 207.484 183.440,207.555 181.066,208.061 180.142 C 208.841 178.719,209.053 178.567,215.288 174.951 L 220.833 171.736 220.918 206.545 C 221.013 245.384,221.153 242.919,218.758 244.588 C 217.660 245.352,198.283 256.552,197.221 257.036 C 196.582 257.327,190.975 254.118,153.993 232.299 C 101.942 201.588,105.288 203.188,93.167 203.202 C 56.714 203.244,38.090 248.103,64.037 273.365 C 67.909 277.135,69.102 277.876,100.472 295.987 C 139.364 318.443,138.273 317.971,150.333 317.574 C 160.049 317.255,161.970 316.486,182.119 304.848 L 197.387 296.030 228.610 314.068 C 269.773 337.849,270.356 338.095,282.902 336.994 C 291.847 336.209,292.072 336.100,331.500 313.353 C 375.462 287.990,374.570 288.619,379.996 279.135 C 385.583 269.371,387.230 252.389,383.387 244.177 C 378.444 233.614,364.224 231.503,356.073 240.120 C 352.625 243.767,351.667 246.812,351.665 254.144 C 351.663 260.352,351.393 261.627,349.723 263.334 C 348.431 264.654,283.329 302.402,280.901 303.238 C 279.921 303.576,279.303 303.594,278.277 303.318 C 277.193 303.026,232.494 277.536,231.570 276.683 C 231.425 276.549,232.550 275.721,234.070 274.844 C 244.909 268.587,251.593 259.479,253.995 247.692 C 254.648 244.489,254.667 243.192,254.667 201.908 C 254.667 159.068,254.649 158.263,253.580 153.273 C 253.473 152.774,277.143 139.110,278.580 138.840 C 279.201 138.724,280.223 138.799,280.852 139.006 C 282.943 139.696,349.466 178.305,350.167 179.235 C 351.350 180.806,351.615 182.080,351.645 186.333 C 351.692 192.933,352.733 195.777,356.477 199.526 C 364.777 207.835,378.627 205.770,383.487 195.497 C 386.626 188.862,385.993 172.047,382.316 164.355 C 378.110 155.557,380.236 157.054,334.333 130.573 C 288.536 104.152,290.962 105.281,279.833 105.217 C 269.144 105.156,267.241 105.893,245.248 118.615 C 237.593 123.043,231.189 126.667,231.018 126.667 C 230.846 126.667,216.710 118.587,199.603 108.712 C 159.236 85.409,161.087 86.275,150.667 85.793 C 139.295 85.267,138.005 85.795,107.188 103.601 C 81.286 118.567,82.522 118.046,79.083 115.450 C 76.615 113.587,75.973 116.098,87.208 83.667 C 92.766 67.625,98.382 51.350,99.688 47.500 C 102.416 39.462,103.847 36.250,105.330 34.833 L 106.377 33.833 152.798 33.667 L 199.219 33.500 200.851 32.491 C 204.175 30.436,205.620 25.616,203.881 22.382 C 203.226 21.162,190.913 7.839,188.598 5.843 C 186.611 4.131,182.995 2.166,179.833 1.082 L 177.167 0.167 140.167 0.103 C 104.407 0.041,103.062 0.061,100.036 0.700 M5.667 144.992 C 2.205 145.651,-0.009 148.356,0.007 151.906 C 0.040 158.992,9.644 161.534,13.240 155.408 C 16.325 150.153,11.732 143.837,5.667 144.992 M54.667 150.500 L 50.167 152.547 50.075 168.690 C 49.978 185.884,50.131 188.309,51.478 190.941 C 54.280 196.417,61.932 198.486,71.500 196.354 C 74.218 195.748,74.239 195.723,72.809 194.766 C 70.864 193.464,69.319 192.066,67.890 190.313 C 66.709 188.864,66.472 188.731,64.715 188.532 C 59.928 187.990,59.529 187.083,59.391 176.417 L 59.283 168.000 64.609 168.000 L 69.936 168.000 68.995 169.750 C 62.003 182.761,72.116 197.610,87.500 196.919 C 92.398 196.699,101.000 193.724,101.000 192.250 C 101.000 191.914,97.369 184.667,97.201 184.667 C 97.131 184.667,96.045 185.270,94.787 186.008 C 89.037 189.381,82.839 189.598,80.009 186.526 C 79.469 185.941,79.311 185.551,79.550 185.399 C 79.751 185.271,85.109 181.942,91.457 178.000 C 97.805 174.058,102.999 170.704,103.000 170.545 C 103.001 169.849,99.821 165.565,98.397 164.344 C 93.394 160.052,91.418 159.680,73.591 159.672 L 59.349 159.667 59.258 154.059 L 59.167 148.452 54.667 150.500 M1.333 177.306 L 1.333 196.000 7.000 196.000 L 12.667 196.000 12.667 177.328 L 12.667 158.655 10.927 159.537 C 8.030 161.005,5.599 160.797,1.583 158.739 C 1.446 158.669,1.333 167.024,1.333 177.306 M30.500 159.131 C 28.460 159.773,27.638 160.277,25.917 161.943 L 24.333 163.475 24.333 161.737 L 24.333 160.000 20.000 160.000 L 15.667 160.000 15.667 178.000 L 15.667 196.000 20.140 196.000 L 24.613 196.000 24.752 184.750 C 24.843 177.433,25.028 173.079,25.282 172.296 C 27.217 166.330,35.067 164.746,37.758 169.778 C 38.481 171.132,38.503 171.481,38.602 183.583 L 38.704 196.000 45.386 196.000 L 52.069 196.000 50.985 194.765 C 48.298 191.705,48.188 191.121,47.982 178.833 C 47.756 165.329,47.183 163.351,42.669 160.502 C 39.916 158.764,33.842 158.079,30.500 159.131 M116.401 159.319 C 94.245 165.320,98.956 197.045,122.000 197.026 C 127.270 197.022,131.524 195.780,134.275 193.442 L 135.383 192.500 132.941 189.267 C 130.095 185.498,130.578 185.678,127.447 187.226 C 122.750 189.547,118.181 188.876,114.652 185.348 C 105.856 176.551,116.122 163.043,127.499 168.446 C 130.767 169.998,130.264 170.188,132.985 166.377 C 135.785 162.456,135.723 162.936,133.583 161.726 C 128.496 158.851,121.664 157.894,116.401 159.319 M89.953 168.347 C 91.790 169.380,92.313 168.903,83.496 174.238 L 75.667 178.976 75.667 177.501 C 75.667 170.480,84.115 165.066,89.953 168.347 M346.727 202.167 C 345.576 203.136,345.174 203.178,343.551 202.500 C 340.777 201.341,338.540 201.967,337.375 204.228 C 336.101 206.702,338.066 208.353,340.037 206.464 L 340.944 205.595 342.973 206.298 C 346.385 207.479,348.163 206.953,349.207 204.455 C 350.305 201.827,348.791 200.430,346.727 202.167 M316.956 208.630 C 315.615 209.685,307.799 227.793,308.197 228.925 C 309.155 231.651,311.696 231.144,313.250 227.917 L 314.334 225.667 318.957 225.667 L 323.580 225.667 324.431 227.630 C 325.956 231.146,329.145 231.799,329.819 228.734 C 330.079 227.548,322.407 209.925,321.118 208.750 C 320.080 207.803,318.081 207.745,316.956 208.630 M349.667 208.230 C 348.061 208.842,348.000 209.105,348.000 215.424 L 348.000 221.411 343.186 215.082 C 338.109 208.408,338.029 208.333,335.973 208.333 C 333.332 208.333,333.333 208.329,333.333 219.348 L 333.333 229.030 334.152 229.848 C 335.133 230.830,336.309 230.896,337.380 230.030 C 338.143 229.413,338.172 229.207,338.333 223.294 L 338.500 217.193 341.650 221.347 C 348.823 230.804,349.062 231.028,351.217 230.317 C 352.956 229.743,353.000 229.471,353.000 219.226 C 353.000 208.412,352.605 207.108,349.667 208.230 M364.833 208.445 C 355.110 211.644,354.110 225.316,363.284 229.617 C 367.723 231.699,374.374 230.487,377.395 227.046 C 385.105 218.264,375.994 204.773,364.833 208.445 M388.042 208.478 C 381.111 210.743,381.909 219.005,389.268 221.179 C 393.578 222.452,394.649 222.979,394.891 223.943 C 395.479 226.286,391.514 226.743,387.686 224.774 C 383.434 222.587,380.408 225.872,384.254 228.500 C 390.973 233.091,399.977 230.402,399.995 223.799 C 400.004 220.216,398.377 218.656,392.865 216.963 C 388.963 215.764,388.667 215.577,388.667 214.304 C 388.667 212.473,391.661 212.131,394.722 213.613 C 397.889 215.146,400.462 213.399,399.017 210.698 C 398.006 208.809,391.225 207.437,388.042 208.478 M371.859 213.683 C 374.127 215.084,375.471 218.695,374.663 221.216 C 372.342 228.453,362.333 226.925,362.333 219.333 C 362.333 214.191,367.614 211.059,371.859 213.683 M320.437 218.083 L 321.639 221.000 318.950 221.000 C 316.935 221.000,316.303 220.896,316.425 220.583 C 317.878 216.877,318.864 214.737,319.029 214.928 C 319.142 215.059,319.776 216.479,320.437 218.083 M128.848 256.703 C 147.540 267.724,162.872 276.775,162.920 276.818 C 162.968 276.861,160.193 278.505,156.753 280.473 C 147.912 285.531,152.834 287.240,117.500 266.840 C 85.881 248.584,87.225 249.413,86.298 247.597 C 84.702 244.470,87.440 238.245,91.000 236.907 C 93.719 235.886,92.108 235.043,128.848 256.703 " class="color000 svgShape"/></svg></svg>