<?xml version="1.0" encoding="UTF-8" standalone="no"?>
<!DOCTYPE svg PUBLIC "-//W3C//DTD SVG 1.1//EN" "http://www.w3.org/Graphics/SVG/1.1/DTD/svg11.dtd">
<svg xmlns="http://www.w3.org/2000/svg" xmlns:xlink="http://www.w3.org/1999/xlink" version="1.1" width="163.447pt" height="184.09pt" viewBox="0 0 163.447 184.09">
<g enable-background="new">
<g id="Layer-1" data-name="Layer">
</g>
<g id="Layer-1" data-name="Layer">
<path transform="matrix(1,0,0,-1,15.0208,53.535905)" d="M 0 0 L 66.705 38.516 L 133.406 0 L 133.406 -77.028 L 66.705 -115.535 L 0 -77.028 Z " fill="#ffffff"/>
<path transform="matrix(1,0,0,-1,22.53,57.8733)" d="M 0 0 L 59.191 34.178 L 118.379 0 L 118.387 -34.17 L 118.379 -68.352 L 59.191 -102.521 L 0 -68.352 Z " fill="#ed1b30"/>
<clipPath id="cp0">
<path transform="matrix(1,0,0,-1,0,184.09)" d="M 0 184.09 L 163.447 184.09 L 163.447 0 L 0 0 Z "/>
</clipPath>
<g clip-path="url(#cp0)">
<path transform="matrix(1,0,0,-1,106.8669,114.847)" d="M 0 0 L 2.591 -5.145 C -.381 -7.172 -4.018 -8.308 -7.604 -8.308 C -14.789 -8.308 -21.102 -2.786 -21.102 4.436 C -21.102 7.224 -20.162 9.765 -18.592 11.823 L -26.444 11.823 L -26.444 1.23 C -26.444 -1.164 -25.404 -2.72 -21.739 -2.72 L -21.409 -2.715 C -20.194 -4.677 -18.447 -6.295 -16.388 -7.412 C -19.615 -8.259 -21.059 -8.402 -23.569 -8.388 C -28.868 -8.358 -32.731 -5.601 -32.731 -.084 L -32.731 22.152 L -26.444 24.937 L -26.444 17.191 L -7.515 17.191 C -2.54 17.152 1.834 14.187 3.978 9.77 L -12.681 -.425 C -12.206 -1.419 -10.863 -2.831 -7.938 -2.831 C -4.829 -2.831 -2.53 -1.649 0 0 M -15.072 3.822 L -3.679 10.62 C -4.829 11.751 -6.317 12.176 -7.938 12.176 C -11.769 12.176 -14.832 9.11 -15.167 5.43 C -15.167 4.906 -15.167 4.386 -15.072 3.822 M 26.546 15.094 L 23.23 10.457 C 21.596 11.433 19.812 12.315 17.885 12.315 C 13.231 12.315 9.77 9.288 9.77 4.795 C 9.77 .499 13.726 -2.72 16.993 -2.72 C 19.566 -2.72 21.004 -2.137 23.035 -.815 L 26.501 -5.26 C 24.071 -7.659 20.308 -8.388 17.092 -8.388 C 10.605 -8.388 3.479 -3.359 3.479 4.989 C 3.479 12.507 9.965 17.978 17.291 17.978 C 20.95 17.978 23.773 16.852 26.546 15.094 M -68.167 21.73 C -68.167 24.342 -65.981 26.457 -63.279 26.457 C -60.583 26.457 -58.398 24.342 -58.398 21.73 C -58.398 19.12 -60.583 17.007 -63.279 17.007 C -65.981 17.007 -68.167 19.12 -68.167 21.73 M -67.081 -7.622 L -67.081 16.899 C -66.027 16.107 -64.698 15.633 -63.267 15.633 C -61.874 15.633 -60.602 16.071 -59.57 16.808 L -59.57 -7.606 Z M -57.272 -7.622 L -57.272 17.082 L -51.002 17.082 L -51.002 14.362 L -50.9 14.362 C -48.775 17.191 -46.694 17.978 -43.178 17.978 C -37.977 17.978 -34.517 14.7 -34.517 9.432 L -34.454 -1.991 C -34.273 -4.503 -33.228 -6.382 -31.589 -7.622 L -40.802 -7.622 L -40.802 7.771 C -40.802 10.411 -42.041 12.603 -44.859 12.603 C -48.817 12.603 -50.651 9.632 -50.651 6.502 L -50.651 -7.606 Z " fill="#ffffff"/>
</g>
</g>
</g>
</svg>
