<svg width="403" height="463" viewBox="0 0 403 463" fill="none" xmlns="http://www.w3.org/2000/svg">
<path d="M207.218 2.28299C204.352 -0.756048 199.531 -0.761749 196.658 2.27044L3.66936 205.966C2.92531 206.751 2.49799 207.785 2.47002 208.868L0.0151529 303.906C-0.156916 310.567 7.93107 313.956 12.5341 309.151L251.666 59.5313C254.356 56.7234 254.374 52.2914 251.706 49.4621L207.218 2.28299Z" fill="#031059"/>
<path d="M383.674 188.929C380.8 185.906 375.987 185.915 373.124 188.95L121.737 455.42C119.104 458.211 121.077 462.807 124.908 462.807L230.795 462.807C232.811 462.807 234.737 461.968 236.113 460.49L400.353 284.025C401.652 282.629 402.354 280.778 402.307 278.869L400.628 209.509C400.584 207.695 399.868 205.963 398.62 204.651L383.674 188.929Z" fill="#031059"/>
<path d="M282.709 93.2508C285.599 90.2243 290.431 90.2553 293.282 93.3185L341.641 145.277C344.273 148.104 344.247 152.5 341.583 155.297L52.1509 459.092C50.7783 460.533 48.8778 461.348 46.8909 461.348H9.57781C5.55977 461.348 2.30251 458.081 2.30251 454.051V389.851C2.30251 387.971 3.02646 386.163 4.32335 384.805L282.709 93.2508Z" fill="#031059"/>
<path d="M400.09 371.421C400.09 364.858 392.125 361.631 387.58 366.353L306.969 450.108C302.51 454.74 305.783 462.472 312.203 462.472H392.814C396.833 462.472 400.09 459.205 400.09 455.175L400.09 371.421Z" fill="#031059"/>
</svg>
