    <svg
      xmlns="http://www.w3.org/2000/svg"
      width="64"
      height="64"
      fill="#fff"
      viewBox="-5.5 0 32 32"
    >
      <path d="M0 8.219v15.563a2.6 2.6 0 002.625 2.625h15.563c.719 0 1.406-.344 1.844-.781.469-.469.781-1.063.781-1.844V8.219a2.6 2.6 0 00-2.625-2.625H2.625c-.781 0-1.375.313-1.844.781C.343 6.813 0 7.5 0 8.219zm2.813 2.062c0-1 .813-1.875 1.813-1.875 1.031 0 1.875.875 1.875 1.875 0 1.031-.844 1.844-1.875 1.844-1 0-1.813-.813-1.813-1.844zm5.031 12.844v-9.531c0-.219.219-.406.375-.406h2.656c.375 0 .375.438.375.719.75-.75 1.719-.938 2.719-.938 2.438 0 4 1.156 4 3.719v6.438c0 .219-.188.406-.375.406h-2.75c-.219 0-.375-.219-.375-.406v-5.813c0-.969-.281-1.5-1.375-1.5-1.375 0-1.719.906-1.719 2.125v5.188c0 .219-.219.406-.438.406H8.218c-.156 0-.375-.219-.375-.406zm-4.969 0v-9.531c0-.219.219-.406.375-.406h2.719c.25 0 .406.156.406.406v9.531a.414.414 0 01-.406.406H3.25c-.188 0-.375-.219-.375-.406z"></path>
    </svg>