<svg width="18" height="19" viewBox="0 0 18 19" fill="none" xmlns="http://www.w3.org/2000/svg">
<g id="Frame">
<path id="Vector" d="M9 12.5C10.6569 12.5 12 11.1569 12 9.5C12 7.84315 10.6569 6.5 9 6.5C7.34315 6.5 6 7.84315 6 9.5C6 11.1569 7.34315 12.5 9 12.5Z" fill="#C7C7C7"/>
<path id="Vector_2" d="M9.75 3.55175V2H8.25V3.55175C6.93022 3.72026 5.70373 4.32213 4.76293 5.26293C3.82213 6.20373 3.22026 7.43022 3.05175 8.75H1.5V10.25H3.05175C3.22001 11.5699 3.8218 12.7965 4.76265 13.7374C5.70349 14.6782 6.93013 15.28 8.25 15.4482V17H9.75V15.4482C11.0699 15.2801 12.2966 14.6784 13.2375 13.7375C14.1784 12.7966 14.7801 11.5699 14.9482 10.25H16.5V8.75H14.9482C14.78 7.43013 14.1782 6.20349 13.2374 5.26265C12.2965 4.3218 11.0699 3.72001 9.75 3.55175ZM9 14C6.51825 14 4.5 11.9818 4.5 9.5C4.5 7.01825 6.51825 5 9 5C11.4818 5 13.5 7.01825 13.5 9.5C13.5 11.9818 11.4818 14 9 14Z" fill="#C7C7C7"/>
</g>
</svg>
