<svg width="18" height="18" viewBox="0 0 18 18" fill="none" xmlns="http://www.w3.org/2000/svg">
<g id="Frame">
<path id="Vector" d="M15.3652 12.8552L12.3165 10.0832C12.1724 9.95219 11.983 9.88234 11.7884 9.88835C11.5937 9.89437 11.409 9.97579 11.2732 10.1154L9.4785 11.9612C9.0465 11.8787 8.178 11.6079 7.284 10.7162C6.39 9.82143 6.11925 8.95068 6.039 8.52168L7.88325 6.72618C8.02306 6.59053 8.1046 6.4058 8.11062 6.21108C8.11664 6.01637 8.04666 5.82696 7.9155 5.68293L5.14425 2.63493C5.01303 2.49045 4.83066 2.40281 4.63586 2.39062C4.44107 2.37844 4.2492 2.44267 4.101 2.56968L2.4735 3.96543C2.34383 4.09557 2.26644 4.26877 2.256 4.45218C2.24475 4.63968 2.03025 9.08118 5.47425 12.5267C8.47875 15.5304 12.2422 15.7502 13.2787 15.7502C13.4302 15.7502 13.5232 15.7457 13.548 15.7442C13.7314 15.7339 13.9045 15.6562 14.034 15.5259L15.429 13.8977C15.5565 13.75 15.6212 13.5582 15.6093 13.3635C15.5974 13.1687 15.5098 12.9863 15.3652 12.8552Z" fill="#C7C7C7"/>
</g>
</svg>
