<?xml version="1.0" encoding="utf-8"?>
<!-- Generator: Adobe Illustrator 24.1.0, SVG Export Plug-In . SVG Version: 6.00 Build 0)  -->
<svg version="1.1" id="Capa_1" xmlns="http://www.w3.org/2000/svg" xmlns:xlink="http://www.w3.org/1999/xlink" x="0px" y="0px"
	 viewBox="0 0 768 768" style="enable-background:new 0 0 768 768;" xml:space="preserve">
<style type="text/css">
	.st0{fill:#FFFFFF;}
	.st1{fill:#FEFEFE;}
	.st2{fill:url(#SVGID_1_);}
	.st3{fill:url(#SVGID_2_);}
	.st4{fill:url(#SVGID_3_);}
	.st5{fill:#4ED4E9;}
	.st6{fill:url(#SVGID_4_);}
	.st7{fill:#62A5FC;}
	.st8{fill:#4DD3E8;}
	.st9{fill:#FAFAFA;}
	.st10{fill:url(#SVGID_5_);}
	.st11{fill:url(#SVGID_6_);}
	.st12{fill:url(#SVGID_7_);}
	.st13{fill:url(#SVGID_8_);}
	.st14{fill:url(#SVGID_9_);}
	.st15{fill:url(#SVGID_10_);}
	.st16{fill:url(#SVGID_11_);}
	.st17{fill:url(#SVGID_12_);}
	.st18{fill:url(#SVGID_13_);}
	.st19{fill:url(#SVGID_14_);}
	.st20{fill:url(#SVGID_15_);}
	.st21{fill:url(#SVGID_16_);}
	.st22{fill:url(#SVGID_17_);}
	.st23{fill:url(#SVGID_18_);}
	.st24{fill:#F7F7F7;}
	.st25{fill:url(#SVGID_19_);}
	.st26{fill:#DCE9FA;}
	.st27{fill:#698DD4;}
	.st28{fill:url(#SVGID_20_);}
	.st29{fill:#CAE1FE;}
	.st30{fill:url(#SVGID_21_);}
	.st31{fill:url(#SVGID_22_);}
	.st32{fill:url(#SVGID_23_);}
	.st33{fill:url(#SVGID_24_);}
	.st34{fill:none;stroke:#000000;stroke-width:4;stroke-linecap:round;stroke-linejoin:round;stroke-miterlimit:10;}
	.st35{fill:url(#SVGID_25_);}
	.st36{fill:url(#SVGID_26_);}
	.st37{fill:url(#SVGID_27_);}
	.st38{fill:none;stroke:#000000;stroke-width:4;stroke-miterlimit:10;}
	.st39{fill:url(#SVGID_28_);}
	.st40{fill:url(#SVGID_29_);}
	.st41{fill:url(#SVGID_30_);}
	.st42{fill:url(#SVGID_31_);}
	.st43{fill:url(#SVGID_32_);}
	.st44{fill:#FEFFFF;}
	.st45{fill:url(#SVGID_33_);}
	.st46{fill:none;stroke:#000000;stroke-width:3;stroke-linecap:round;stroke-linejoin:round;stroke-miterlimit:10;}
	.st47{fill:url(#SVGID_34_);}
	.st48{fill:url(#SVGID_35_);}
	.st49{fill:url(#SVGID_36_);}
	.st50{fill:url(#SVGID_37_);}
	.st51{fill:url(#SVGID_38_);}
	.st52{fill:url(#SVGID_39_);}
	.st53{fill:url(#SVGID_40_);}
	.st54{fill:url(#SVGID_41_);}
	.st55{fill:url(#SVGID_42_);}
	.st56{fill:url(#SVGID_43_);}
	.st57{fill:url(#SVGID_44_);}
	.st58{fill:url(#SVGID_45_);}
	.st59{fill:url(#SVGID_46_);}
	.st60{fill:url(#SVGID_47_);}
	.st61{fill:url(#SVGID_48_);}
	.st62{fill:url(#SVGID_49_);}
	.st63{fill:url(#SVGID_50_);}
	.st64{fill:url(#SVGID_51_);}
	.st65{fill:url(#SVGID_52_);}
	.st66{fill:url(#SVGID_53_);}
	.st67{fill:url(#SVGID_54_);}
	.st68{fill:url(#SVGID_55_);}
	.st69{fill:url(#SVGID_56_);}
	.st70{fill:url(#SVGID_57_);}
	.st71{fill:url(#SVGID_58_);}
	.st72{fill:url(#SVGID_59_);}
	.st73{fill:url(#SVGID_60_);}
	.st74{fill:url(#SVGID_61_);}
	.st75{fill:url(#SVGID_62_);}
	.st76{fill:url(#SVGID_63_);}
	.st77{fill:url(#SVGID_64_);}
	.st78{fill:url(#SVGID_65_);}
	.st79{fill:url(#SVGID_66_);}
	.st80{fill:url(#SVGID_67_);}
	.st81{fill:url(#SVGID_68_);}
</style>
<path d="M590.79,230.24c-5.51,0.07-8.89-1.67-12.43-5.83c-20.77-24.47-33.7-52.32-37.34-84.31c-0.46-4.1-0.62-8.26-0.65-12.38
	c-0.05-5.77-2.04-10.25-7.54-12.73h-26.78c-5.18,2.76-7.11,7.02-7.29,12.9c-1.07,37.32-14.59,69.75-39.26,97.58
	c-4.77,5.39-5.77,10.39-2.45,17.02c6.87,13.71,13.12,27.75,19.61,41.64c0.7,1.48,1.34,2.99,1.99,4.47c-0.49,0.53-0.76,0.97-1.14,1.2
	c-10.67,6.14-15.05,15.55-15.03,27.62c0.11,45.44,0.05,90.89,0.05,136.33v6.18h-45.49V271.54c2.22-0.19,4.33-0.3,6.43-0.58
	c7.96-1.11,11.65-9.07,6.92-15.46c-1.67-2.24-1.67-3.75-0.69-6.14c11.23-27.09,8.87-52.67-9.63-75.88
	c-11.41-14.28-19.95-29.51-20.32-48.33c-0.11-4.77-3.19-7.68-6.81-10.16h-5.95c-2.52,2.32-5.35,4.37-7.46,7.01
	c-11.37,14.21-22.64,28.47-33.77,42.87c-19.98,25.86-23.93,53.98-11.65,84.38c0.6,1.46,0.56,3.93-0.32,5.07
	c-2.66,3.54-3.42,7.2-1.65,11.13c1.71,3.82,5.02,5.53,9.15,5.7c1.62,0.07,3.24,0.23,5.18,0.37v188.39H305.5
	c0-5.42,0.02-10.83,0-16.23c-0.02-4.12,0.21-8.29-0.19-12.38c-0.56-5.84-4.93-9.79-10.03-9.67c-5.48,0.14-9.45,4.35-9.56,10.58
	c-0.16,9.08-0.05,18.17-0.05,27.64h-40.28v-86.58c0-1.14,0-2.31-0.02-3.47c-0.07-8.2-3.68-12.78-9.96-12.68
	c-6.21,0.11-9.84,4.77-9.86,12.96c-0.04,27.94-0.02,55.88-0.02,83.82v6.09h-11.88V212.27h40.33v107.9c0,1.48-0.05,2.98,0.02,4.45
	c0.3,6.2,4.17,10.42,9.67,10.55c5.33,0.12,9.56-4.1,10.11-10.16c0.12-1.48,0.05-2.98,0.05-4.47V212.23h11.83v5.9
	c0,42.82,0.16,85.65-0.11,128.46c-0.07,10.86,4.67,13.66,9.74,13.96c6.65,0.4,10.23-4.65,10.23-14c0-46.95,0.07-93.91-0.14-140.86
	c-0.02-3.91-1.21-8.26-3.19-11.64c-13.91-23.82-28.1-47.48-42.43-71.05c-1.87-3.1-5.09-5.37-7.69-8.01h-5.95
	c-2.59,3.08-5.65,5.88-7.71,9.3c-13.96,23.03-27.83,46.09-41.39,69.35c-2.04,3.5-3.06,7.98-3.33,12.08
	c-0.51,7.87-0.16,15.81-0.16,24.37c-6.02,0-11.74,0-17.45,0.02c-20.19,0.04-32.6,12.09-32.62,32.32
	c-0.09,85.63-0.09,171.28,0,256.91c0.04,20.18,12.46,32.2,32.73,32.22c43.98,0.02,87.95,0,131.93,0h6.16v51.6
	c-5.09,0-10.02-0.05-14.93,0c-7.43,0.09-11.76,3.68-11.85,9.77c-0.07,6.14,4.24,10.03,11.57,10.05
	c56.71,0.04,113.41,0.04,170.12-0.02c7.04,0,11.28-3.8,11.36-9.75c0.09-6.14-4.23-9.95-11.55-10.05c-4.95-0.07-9.89,0-15.18,0v-51.6
	h5.83c44.47,0,88.96,0.04,133.43-0.02c15.46-0.02,26.88-8.45,30.47-22.59c0.88-3.47,1.04-7.2,1.04-10.81
	c0.05-84.8,0.05-169.62,0.04-254.43C624.61,241.95,612.62,229.89,590.79,230.24z M249.45,144.26c2.64,4.44,4.79,8.05,7.25,12.17
	h-14.37C244.69,152.38,246.88,148.66,249.45,144.26z M229.66,177.69c0.53-0.79,2.31-1.07,3.5-1.07c10.88-0.09,21.76-0.11,32.64,0.02
	c1.29,0.02,3.13,0.55,3.75,1.48c2.8,4.23,5.26,8.66,8.29,13.78h-56.83C224.09,186.76,226.72,182.13,229.66,177.69z M580.95,249.98
	c4.45-0.21,8.93-0.19,13.38,0c6.2,0.28,9.65,3.7,10.3,9.86c0.14,1.32,0.12,2.64,0.12,3.96c0.02,63.61,0.02,127.23,0.02,190.84v5.28
	h-30.26v-75.77c0-21.97-0.21-43.94,0.09-65.91c0.16-11.46-3.42-20.69-13.15-27.13c-0.55-0.35-1.14-0.65-1.8-1.02
	c6.14-13.12,11.97-25.67,17.96-38.13C578.1,250.96,579.79,250.03,580.95,249.98z M519.37,229.19c3.27-0.28,6.57,2.94,6.23,6.18
	c-0.37,3.5-2.34,5.67-6.2,5.81c-3.59-0.23-5.72-2.27-5.77-5.9C513.57,231.65,515.74,229.5,519.37,229.19z M477.89,239.7
	c-0.65-1.41-0.65-4.01,0.23-5.11c12.75-15.81,23.2-32.9,30.19-52.04c0.09-0.25,0.48-0.37,1.37-0.99c0,9.19,0.23,17.8-0.19,26.37
	c-0.09,1.85-2.13,4.12-3.87,5.3c-9.03,6.11-13.68,16.2-11.41,27.08c2.22,10.69,8.98,17.69,19.59,20.07
	c10.55,2.36,19.66-0.92,26.39-9.58c9.37-12.06,6.18-29.37-7.06-37.53c-2.8-1.73-3.75-3.5-3.68-6.67c0.21-8.01,0.07-16.06,1.04-24.3
	c0.51,1.11,1.07,2.2,1.51,3.33c6.71,17.43,16.23,33.2,28.15,47.52c2.11,2.54,2.32,4.42,0.86,7.41c-6.85,14.1-13.47,28.33-20,42.57
	c-1.2,2.62-2.57,3.64-5.51,3.59c-10.58-0.19-21.16-0.16-31.74-0.02c-2.82,0.04-4.42-0.67-5.67-3.42
	C491.46,268.71,484.53,254.27,477.89,239.7z M542.8,386.65c-0.02-6.8-3.03-10.92-8.33-11.67c-6.53-0.93-11.37,3.54-11.46,11.04
	c-0.14,12.08-0.04,24.14-0.04,36.21c-0.02,12.52-0.02,25.03-0.02,37.8h-40.25V339.34h71.6V459.9h-11.5v-5.3
	C542.82,431.94,542.83,409.3,542.8,386.65z M482.94,318.76c-1.39-8.29,1.73-12.24,9.72-12.25c17.01-0.05,34.01-0.04,51.02-0.02
	c8.7,0.02,11.44,3.1,10.67,12.27H482.94z M357.35,183.18c7.66-11.69,16.85-22.38,26.23-34.66c4.67,15.77,13.75,27.48,22.57,39.49
	c13.59,18.49,13.94,42.6,1.39,60.16c-1.13,1.57-3.61,3.01-5.48,3.05c-13.56,0.26-27.11,0.26-40.65,0c-1.83-0.04-4.4-1.51-5.3-3.08
	C343.47,226.3,343.51,204.31,357.35,183.18z M366.94,288.64v-17.09h29.63v17.09H366.94z M396.57,309.25v150.73h-29.51V309.25H396.57
	z M163.27,453.9c0-63.13-0.02-126.28,0-189.43c0-11.67,2.92-14.52,14.72-14.52c4.95-0.02,9.89,0,15.18,0v210.06h-29.89V453.9z
	 M433.26,602.92h-98.59v-50.98h98.59V602.92z M604.75,518.42c-0.05,10.02-3.38,13.29-13.47,13.29H177.23
	c-11.18,0-14.86-4.15-13.54-15.88h53.33c4.63,0,9.26,0.11,13.89-0.02c6.51-0.18,10.9-4.12,11.04-9.7
	c0.16-5.74-4.42-10.05-11.14-10.09c-20.99-0.09-41.99-0.04-62.97-0.04h-4.23v-15.46h441.16v13.59
	C604.77,502.22,604.8,510.32,604.75,518.42z"/>
<linearGradient id="SVGID_1_" gradientUnits="userSpaceOnUse" x1="482.7124" y1="399.6803" x2="554.3176" y2="399.6803">
	<stop  offset="0" style="stop-color:#2F3277"/>
	<stop  offset="0.4382" style="stop-color:#454186"/>
	<stop  offset="1" style="stop-color:#2B2F74"/>
</linearGradient>
<path class="st2" d="M522.97,460.02c-13.62,0-26.77,0-40.25,0c0-40.18,0-80.25,0-120.68c23.82,0,47.54,0,71.61,0
	c0,40.01,0,80.1,0,120.56c-3.55,0-7.23,0-11.51,0c0-1.78,0-3.55,0-5.31c0-22.65,0.02-45.29-0.02-67.94
	c-0.01-6.8-3.03-10.91-8.32-11.68c-6.54-0.94-11.38,3.54-11.47,11.04c-0.15,12.07-0.04,24.13-0.04,36.2
	C522.97,434.74,522.97,447.26,522.97,460.02z"/>
<linearGradient id="SVGID_2_" gradientUnits="userSpaceOnUse" x1="559.6406" y1="354.8719" x2="604.7644" y2="354.8719">
	<stop  offset="0" style="stop-color:#EF5E2D"/>
	<stop  offset="0.4885" style="stop-color:#EF782D"/>
	<stop  offset="1" style="stop-color:#EF612D"/>
</linearGradient>
<path class="st3" d="M574.51,459.92c0-25.55,0-50.66,0-75.77c0-21.98-0.21-43.95,0.09-65.93c0.15-11.45-3.42-20.67-13.15-27.12
	c-0.55-0.36-1.15-0.66-1.81-1.03c6.15-13.12,11.97-25.67,17.97-38.13c0.48-0.99,2.17-1.91,3.34-1.97c4.45-0.21,8.92-0.2,13.38,0
	c6.2,0.28,9.65,3.68,10.3,9.86c0.14,1.31,0.13,2.64,0.13,3.96c0.01,63.61,0,127.23,0,190.84c0,1.64,0,3.28,0,5.28
	C594.64,459.92,584.84,459.92,574.51,459.92z"/>
<linearGradient id="SVGID_3_" gradientUnits="userSpaceOnUse" x1="163.263" y1="354.9676" x2="193.1668" y2="354.9676">
	<stop  offset="0" style="stop-color:#EF5E2D"/>
	<stop  offset="0.4885" style="stop-color:#EF782D"/>
	<stop  offset="1" style="stop-color:#EF612D"/>
</linearGradient>
<path class="st4" d="M193.17,460c-10.02,0-19.71,0-29.9,0c0-2.21,0-4.16,0-6.1c0-63.14,0-126.29,0-189.43
	c0-11.67,2.92-14.54,14.73-14.54c4.94,0,9.88,0,15.17,0C193.17,320.01,193.17,389.83,193.17,460z"/>
<linearGradient id="SVGID_4_" gradientUnits="userSpaceOnUse" x1="346.7949" y1="199.9647" x2="416.6592" y2="199.9647">
	<stop  offset="0" style="stop-color:#EF5E2D"/>
	<stop  offset="0.4885" style="stop-color:#EF782D"/>
	<stop  offset="1" style="stop-color:#EF612D"/>
</linearGradient>
<path class="st6" d="M383.57,148.52c4.66,15.78,13.76,27.49,22.58,39.49c13.59,18.49,13.94,42.6,1.38,60.16
	c-1.12,1.57-3.6,3.02-5.48,3.05c-13.55,0.26-27.1,0.26-40.65,0c-1.82-0.03-4.39-1.51-5.3-3.09c-12.64-21.84-12.6-43.83,1.23-64.94
	C365,171.5,374.2,160.81,383.57,148.52z"/>
<linearGradient id="SVGID_5_" gradientUnits="userSpaceOnUse" x1="367.0716" y1="384.6257" x2="396.5685" y2="384.6257">
	<stop  offset="0" style="stop-color:#2F3277"/>
	<stop  offset="0.4382" style="stop-color:#454186"/>
	<stop  offset="1" style="stop-color:#2B2F74"/>
</linearGradient>
<path class="st10" d="M367.07,309.26c9.81,0,19.48,0,29.5,0c0,50.21,0,100.33,0,150.74c-9.74,0-19.41,0-29.5,0
	C367.07,409.83,367.07,359.71,367.07,309.26z"/>
<path class="st0" d="M509.68,181.57c0,9.19,0.23,17.79-0.18,26.37c-0.09,1.85-2.13,4.11-3.87,5.3c-9.03,6.11-13.69,16.2-11.42,27.08
	c2.22,10.69,8.99,17.7,19.6,20.07c10.56,2.36,19.66-0.92,26.39-9.58c9.37-12.05,6.17-29.35-7.06-37.52
	c-2.8-1.73-3.76-3.51-3.68-6.67c0.21-8.02,0.07-16.06,1.04-24.3c0.5,1.11,1.06,2.19,1.5,3.33c6.72,17.42,16.24,33.2,28.16,47.52
	c2.1,2.52,2.32,4.41,0.86,7.4c-6.85,14.1-13.48,28.32-20,42.58c-1.19,2.61-2.58,3.63-5.51,3.58c-10.58-0.18-21.16-0.16-31.74-0.01
	c-2.81,0.04-4.41-0.67-5.67-3.42c-6.64-14.57-13.57-29.01-20.21-43.58c-0.65-1.42-0.66-4.02,0.22-5.11
	c12.75-15.81,23.21-32.91,30.19-52.04C508.39,182.31,508.79,182.19,509.68,181.57z"/>
<path class="st0" d="M482.94,318.75c-1.38-8.28,1.74-12.23,9.72-12.25c17.01-0.05,34.02-0.03,51.03-0.01
	c8.7,0.01,11.45,3.09,10.66,12.26C530.56,318.75,506.73,318.75,482.94,318.75z"/>
<linearGradient id="SVGID_6_" gradientUnits="userSpaceOnUse" x1="221.0093" y1="184.2276" x2="277.8449" y2="184.2276">
	<stop  offset="0" style="stop-color:#EF5E2D"/>
	<stop  offset="0.4885" style="stop-color:#EF782D"/>
	<stop  offset="1" style="stop-color:#EF612D"/>
</linearGradient>
<path class="st11" d="M277.84,191.9c-19.3,0-37.54,0-56.84,0c3.08-5.15,5.72-9.78,8.65-14.21c0.53-0.8,2.3-1.07,3.51-1.08
	c10.88-0.08,21.76-0.1,32.64,0.02c1.29,0.01,3.13,0.55,3.75,1.49C272.36,182.33,274.81,186.78,277.84,191.9z"/>
<path class="st0" d="M366.94,288.64c0-5.94,0-11.35,0-17.09c9.95,0,19.63,0,29.64,0c0,5.62,0,11.14,0,17.09
	C386.85,288.64,377.08,288.64,366.94,288.64z"/>
<path class="st0" d="M519.4,241.18c-3.59-0.23-5.72-2.28-5.77-5.89c-0.05-3.63,2.12-5.79,5.73-6.1c3.28-0.28,6.57,2.95,6.24,6.18
	C525.24,238.87,523.25,241.03,519.4,241.18z"/>
<path class="st0" d="M249.44,144.26c2.65,4.44,4.8,8.04,7.26,12.17c-5.03,0-9.34,0-14.36,0
	C244.7,152.38,246.87,148.66,249.44,144.26z"/>
<path d="M305.31,385.84c-0.12,5.23-4.86,9.82-10,9.72c-5.23-0.11-9.68-4.79-9.59-10.05c0.09-5.39,4.54-9.68,9.95-9.59
	C300.98,376.01,305.43,380.59,305.31,385.84z"/>
<path d="M276.68,506.06c-0.11,5.19-4.86,9.79-10.02,9.7c-5.21-0.11-9.74-4.79-9.65-10c0.09-5.23,4.79-9.79,9.96-9.68
	C272.16,496.18,276.79,500.94,276.68,506.06z"/>
</svg>
