<?xml version="1.0" encoding="utf-8"?>
<!-- Generator: Adobe Illustrator 24.1.0, SVG Export Plug-In . SVG Version: 6.00 Build 0)  -->
<svg version="1.1" id="Capa_1" xmlns="http://www.w3.org/2000/svg" xmlns:xlink="http://www.w3.org/1999/xlink" x="0px" y="0px"
	 viewBox="0 0 768 768" style="enable-background:new 0 0 768 768;" xml:space="preserve">
<style type="text/css">
	.st0{fill:#FFFFFF;}
	.st1{fill:#FEFEFE;}
	.st2{fill:url(#SVGID_1_);}
	.st3{fill:url(#SVGID_2_);}
	.st4{fill:url(#SVGID_3_);}
	.st5{fill:#4ED4E9;}
	.st6{fill:url(#SVGID_4_);}
	.st7{fill:#62A5FC;}
	.st8{fill:#4DD3E8;}
	.st9{fill:#FAFAFA;}
	.st10{fill:url(#SVGID_5_);}
	.st11{fill:url(#SVGID_6_);}
	.st12{fill:url(#SVGID_7_);}
	.st13{fill:url(#SVGID_8_);}
	.st14{fill:url(#SVGID_9_);}
	.st15{fill:url(#SVGID_10_);}
	.st16{fill:url(#SVGID_11_);}
	.st17{fill:url(#SVGID_12_);}
	.st18{fill:url(#SVGID_13_);}
	.st19{fill:url(#SVGID_14_);}
	.st20{fill:url(#SVGID_15_);}
	.st21{fill:url(#SVGID_16_);}
	.st22{fill:url(#SVGID_17_);}
	.st23{fill:url(#SVGID_18_);}
	.st24{fill:#F7F7F7;}
	.st25{fill:url(#SVGID_19_);}
	.st26{fill:#DCE9FA;}
	.st27{fill:#698DD4;}
	.st28{fill:url(#SVGID_20_);}
	.st29{fill:#CAE1FE;}
	.st30{fill:url(#SVGID_21_);}
	.st31{fill:url(#SVGID_22_);}
	.st32{fill:url(#SVGID_23_);}
	.st33{fill:url(#SVGID_24_);}
	.st34{fill:none;stroke:#000000;stroke-width:4;stroke-linecap:round;stroke-linejoin:round;stroke-miterlimit:10;}
	.st35{fill:url(#SVGID_25_);}
	.st36{fill:url(#SVGID_26_);}
	.st37{fill:url(#SVGID_27_);}
	.st38{fill:none;stroke:#000000;stroke-width:4;stroke-miterlimit:10;}
	.st39{fill:url(#SVGID_28_);}
	.st40{fill:url(#SVGID_29_);}
	.st41{fill:url(#SVGID_30_);}
	.st42{fill:url(#SVGID_31_);}
	.st43{fill:url(#SVGID_32_);}
	.st44{fill:#FEFFFF;}
	.st45{fill:url(#SVGID_33_);}
	.st46{fill:none;stroke:#000000;stroke-width:3;stroke-linecap:round;stroke-linejoin:round;stroke-miterlimit:10;}
	.st47{fill:url(#SVGID_34_);}
	.st48{fill:url(#SVGID_35_);}
	.st49{fill:url(#SVGID_36_);}
	.st50{fill:url(#SVGID_37_);}
	.st51{fill:url(#SVGID_38_);}
	.st52{fill:url(#SVGID_39_);}
	.st53{fill:url(#SVGID_40_);}
	.st54{fill:url(#SVGID_41_);}
	.st55{fill:url(#SVGID_42_);}
	.st56{fill:url(#SVGID_43_);}
	.st57{fill:url(#SVGID_44_);}
	.st58{fill:url(#SVGID_45_);}
	.st59{fill:url(#SVGID_46_);}
	.st60{fill:url(#SVGID_47_);}
	.st61{fill:url(#SVGID_48_);}
	.st62{fill:url(#SVGID_49_);}
	.st63{fill:url(#SVGID_50_);}
	.st64{fill:url(#SVGID_51_);}
	.st65{fill:url(#SVGID_52_);}
	.st66{fill:url(#SVGID_53_);}
	.st67{fill:url(#SVGID_54_);}
	.st68{fill:url(#SVGID_55_);}
	.st69{fill:url(#SVGID_56_);}
	.st70{fill:url(#SVGID_57_);}
	.st71{fill:url(#SVGID_58_);}
	.st72{fill:url(#SVGID_59_);}
	.st73{fill:url(#SVGID_60_);}
	.st74{fill:url(#SVGID_61_);}
	.st75{fill:url(#SVGID_62_);}
	.st76{fill:url(#SVGID_63_);}
	.st77{fill:url(#SVGID_64_);}
	.st78{fill:url(#SVGID_65_);}
	.st79{fill:url(#SVGID_66_);}
	.st80{fill:url(#SVGID_67_);}
	.st81{fill:url(#SVGID_68_);}
</style>
<g>
	<linearGradient id="SVGID_1_" gradientUnits="userSpaceOnUse" x1="376.6628" y1="192.0089" x2="528.0375" y2="192.0089">
		<stop  offset="0" style="stop-color:#2F3277"/>
		<stop  offset="0.4382" style="stop-color:#454186"/>
		<stop  offset="1" style="stop-color:#2B2F74"/>
	</linearGradient>
	<path class="st2" d="M378.68,236.84c22.58-27.54,45.2-55.05,67.84-82.54c1.47-1.76,2.63-3.68,5.48-3.95
		c24.87-2.27,49.71-4.68,76.03-7.23c-23.02,28.06-45.12,54.67-66.77,81.64c-4.6,5.71-9.24,8.88-16.87,9.47
		c-22.54,1.72-45.01,4.37-67.5,6.66C376.02,238.65,377.84,237.87,378.68,236.84z"/>
	<path class="st38" d="M378.68,236.84c22.58-27.54,45.2-55.05,67.84-82.54c1.47-1.76,2.63-3.68,5.48-3.95
		c24.87-2.27,49.71-4.68,76.03-7.23c-23.02,28.06-45.12,54.67-66.77,81.64c-4.6,5.71-9.24,8.88-16.87,9.47
		c-22.54,1.72-45.01,4.37-67.5,6.66C376.02,238.65,377.84,237.87,378.68,236.84z"/>
	<linearGradient id="SVGID_2_" gradientUnits="userSpaceOnUse" x1="376.8555" y1="310.4421" x2="536.9429" y2="310.4421">
		<stop  offset="0" style="stop-color:#EF5E2D"/>
		<stop  offset="0.4885" style="stop-color:#EF782D"/>
		<stop  offset="1" style="stop-color:#EF612D"/>
	</linearGradient>
	<path class="st3" d="M456.19,349.08c-25.52-25.69-51.16-51.27-76.75-76.87c-0.67-0.65-1.2-1.43-2.58-3.07
		c26.04,0,50.81,0.04,75.57-0.06c2.46,0,4.01,1.01,5.61,2.6c26.28,26.3,52.59,52.57,78.91,78.87c-1.2,1.93-2.94,1.05-4.33,1.05
		c-23.04,0.06-46.06,0.02-69.08,0.08C460.7,351.69,458.41,351.33,456.19,349.08z"/>
	<path class="st38" d="M456.19,349.08c-25.52-25.69-51.16-51.27-76.75-76.87c-0.67-0.65-1.2-1.43-2.58-3.07
		c26.04,0,50.81,0.04,75.57-0.06c2.46,0,4.01,1.01,5.61,2.6c26.28,26.3,52.59,52.57,78.91,78.87c-1.2,1.93-2.94,1.05-4.33,1.05
		c-23.04,0.06-46.06,0.02-69.08,0.08C460.7,351.69,458.41,351.33,456.19,349.08z"/>
	<linearGradient id="SVGID_3_" gradientUnits="userSpaceOnUse" x1="511.4238" y1="310.2788" x2="666.8066" y2="310.2788">
		<stop  offset="0" style="stop-color:#2F3277"/>
		<stop  offset="0.4382" style="stop-color:#454186"/>
		<stop  offset="1" style="stop-color:#2B2F74"/>
	</linearGradient>
	<path class="st4" d="M666.81,351.56c-23.21,0.04-46.42,0.04-69.63,0.13c-2.29,0.02-4.05-0.46-5.78-2.16
		c-26.19-26.13-52.45-52.17-78.68-78.24c-0.38-0.38-0.59-0.92-1.3-2.14h6.09c47.61,0,95.23,0,142.84-0.02
		c2.14,0,4.31-0.17,6.45-0.25c-1.74,1.58-3.91,1.68-6.09,1.68c-47.59,0.04-95.17,0.04-142.76,0.02c-1.09,0-2.16-0.48-3.7-0.15
		c9.89,9.89,19.6,19.6,29.3,29.3c14.6,14.6,29.34,29.07,43.71,43.9c4.49,4.62,9.26,6.47,15.65,6.36
		c18.46-0.32,36.97-0.15,55.45-0.11C661.26,349.9,664.31,349.42,666.81,351.56z"/>
	<linearGradient id="SVGID_4_" gradientUnits="userSpaceOnUse" x1="508.5464" y1="181.416" x2="663.8208" y2="181.416">
		<stop  offset="0" style="stop-color:#EF5E2D"/>
		<stop  offset="0.4885" style="stop-color:#EF782D"/>
		<stop  offset="1" style="stop-color:#EF612D"/>
	</linearGradient>
	<path class="st6" d="M508.55,227.73c13.69-16.68,26.38-32.14,39.09-47.61c10.88-13.21,21.82-26.38,32.58-39.72
		c2.04-2.52,4.18-3.7,7.41-3.8c10.77-0.4,21.53-2.81,32.32-0.48c22.77,4.94,38.25,22.07,40.91,45.24c1.05,9.18,1.72,18.4,2.84,27.58
		c0.38,2.94,0.04,4.14-3.3,4.45c-42.51,3.89-85.02,7.9-127.51,11.91C525.24,226,517.64,226.82,508.55,227.73z"/>
	<path class="st38" d="M508.55,227.73c13.69-16.68,26.38-32.14,39.09-47.61c10.88-13.21,21.82-26.38,32.58-39.72
		c2.04-2.52,4.18-3.7,7.41-3.8c10.77-0.4,21.53-2.81,32.32-0.48c22.77,4.94,38.25,22.07,40.91,45.24c1.05,9.18,1.72,18.4,2.84,27.58
		c0.38,2.94,0.04,4.14-3.3,4.45c-42.51,3.89-85.02,7.9-127.51,11.91C525.24,226,517.64,226.82,508.55,227.73z"/>
	<path class="st1" d="M89.89,384.16c-0.02,60.83,0,121.65-0.02,182.5c-0.02,17.26,4.56,32.64,17.77,44.61
		c9.75,8.82,21,13.69,34.26,13.69c156.89,0,313.77,0.02,470.66-0.04c22.26,0,40.64-13.36,49.08-35.14c1.11-2.9,1.09-6.81,5.17-7.83
		c-2.92,3.99-2.96,9.09-5.21,13.42c-11.15,21.44-28.82,31.9-52.91,31.88c-28.73-0.04-57.49-0.02-86.22-0.02
		c-125.01,0-250.02-0.06-375.04,0.06c-19.51,0.02-35.71-6.32-47.89-21.95c-8.07-10.35-11.4-22.31-11.43-35.18
		c-0.1-65.17,0-130.35-0.15-195.5c-0.02-4.49,1.62-5,5.44-5c51.58,0.13,103.17,0.08,154.73,0.08c137.21,0,274.45,0,411.67-0.02
		c2.33,0,4.66-0.29,6.99-0.44c-2.65,2.29-5.9,1.85-9.01,1.87c-16.93,0.04-33.86,0.02-50.79,0.02H102.68
		C88.96,371.18,89.89,370.78,89.89,384.16z"/>
	<path d="M666.81,369.29v212.66c-2.92,3.99-2.96,9.09-5.21,13.42c-11.15,21.44-28.82,31.9-52.91,31.88
		c-28.73-0.04-57.49-0.02-86.22-0.02c-125.01,0-250.02-0.06-375.04,0.06c-19.51,0.02-35.71-6.32-47.89-21.95
		c-8.07-10.35-11.4-22.31-11.43-35.18c-0.1-65.17,0-130.35-0.15-195.5c-0.02-4.49,1.62-5,5.44-5c51.58,0.13,103.17,0.08,154.73,0.08
		c137.21,0,274.45,0,411.67-0.02C662.14,369.73,664.48,369.43,666.81,369.29z"/>
	<linearGradient id="SVGID_5_" gradientUnits="userSpaceOnUse" x1="511.4238" y1="310.2788" x2="666.8066" y2="310.2788">
		<stop  offset="0" style="stop-color:#2F3277"/>
		<stop  offset="0.4382" style="stop-color:#454186"/>
		<stop  offset="1" style="stop-color:#2B2F74"/>
	</linearGradient>
	<path class="st10" d="M666.81,268.87v82.69c-23.21,0.04-46.42,0.04-69.63,0.13c-2.29,0.02-4.05-0.46-5.78-2.16
		c-26.19-26.13-52.45-52.17-78.68-78.24c-0.38-0.38-0.59-0.92-1.3-2.14h6.09c47.61,0,95.23,0,142.84-0.02
		C662.5,269.12,664.66,268.95,666.81,268.87z"/>
	<path class="st38" d="M666.81,268.87v82.69c-23.21,0.04-46.42,0.04-69.63,0.13c-2.29,0.02-4.05-0.46-5.78-2.16
		c-26.19-26.13-52.45-52.17-78.68-78.24c-0.38-0.38-0.59-0.92-1.3-2.14h6.09c47.61,0,95.23,0,142.84-0.02
		C662.5,269.12,664.66,268.95,666.81,268.87z"/>
	<linearGradient id="SVGID_6_" gradientUnits="userSpaceOnUse" x1="85.643" y1="262.6443" x2="398.8885" y2="262.6443">
		<stop  offset="0" style="stop-color:#EF5E2D"/>
		<stop  offset="0.4885" style="stop-color:#EF782D"/>
		<stop  offset="1" style="stop-color:#EF612D"/>
	</linearGradient>
	<path class="st11" d="M398.89,147.15v231.62c-0.75,11.64-6.97,19.91-16.38,26.06c-6.04,3.95-12.86,5.46-20.05,5.45H239.04
		c-39.11,0-78.21,0.03-117.32-0.01c-15.62-0.01-28.88-9.33-34.4-23.87c-1.34-3.5-1.55-7.17-1.55-10.81
		c-0.05-75.26,0.09-150.52-0.13-225.79c-0.07-18.36,16.27-34.22,34.51-34.74c0.72-0.03,1.43-0.01,2.14-0.01
		c80.16-0.01,160.3,0.03,240.44-0.04c16.19-0.01,29.16,10,34.5,22.94C398.48,140.92,398.21,144.11,398.89,147.15z"/>
	<path class="st0" d="M244.77,376.56c-35.02,0-70.04,0-105.06-0.01c-2.43,0-4.87,0.04-7.23-0.78c-4.47-1.57-6.79-5.4-5.92-10.01
		c0.38-2.01,1.19-3.87,2.11-5.69c19.12-37.86,38.22-75.73,57.35-113.58c5.18-10.26,12.67-10.94,19.65-1.82
		C223.8,268.32,241.88,292,260,315.67c1.61,2.1,3.17,4.25,4.97,6.17c5.46,5.83,13.73,6.52,19.7,1.22
		c5.39-4.79,10.27-10.16,15.44-15.21c5.24-5.13,11.03-6.33,16.63-3.56c2.73,1.35,4.67,3.55,6.38,5.99
		c11.96,17.07,23.94,34.12,35.86,51.22c2.28,3.27,4.71,6.79,2.54,10.94c-2.18,4.17-6.47,4.09-10.46,4.1
		C315.62,376.57,280.2,376.56,244.77,376.56z"/>
	<path class="st0" d="M288.18,236.99c-18.79-0.06-34.15-15.54-34.04-34.31c0.11-18.77,15.63-34.15,34.36-34.05
		c18.79,0.11,34.07,15.55,34.01,34.37C322.45,221.81,307.06,237.05,288.18,236.99z"/>
	<g>
		<linearGradient id="SVGID_7_" gradientUnits="userSpaceOnUse" x1="444.8333" y1="495.9321" x2="601.6706" y2="495.9321">
			<stop  offset="0" style="stop-color:#EF5E2D"/>
			<stop  offset="0.4885" style="stop-color:#EF782D"/>
			<stop  offset="1" style="stop-color:#EF612D"/>
		</linearGradient>
		<path class="st12" d="M600.34,510.2c0.52-2.64,0.7-5.35,1.05-8.03c0.06-0.45,0.19-0.89,0.29-1.33v-9.49
			c-0.41-3.03-0.66-6.07-1.24-9.06c-4.77-24.83-18.28-43.39-40.4-55.56c-12.44-6.84-25.92-9.96-40.07-9.08
			c-29.43,1.82-51.49,15.78-65.88,41.49c-6.93,12.39-9.98,25.92-9.11,40.06c1.82,29.5,15.83,51.56,41.6,65.99
			c9.56,5.35,19.96,8.17,30.91,8.92c0.39,0.02,0.79,0.16,1.18,0.25h83.01v-13.17c-3.26,0.02-6.52,0.07-9.79,0.07
			c-7.7,0.02-15.39,0.01-23.09,0.01h-2.04c2.18-1.66,4.02-2.99,5.77-4.42C587.44,544.67,596.63,529.05,600.34,510.2z M566.8,462.23
			c10.83,0.04,19.57,8.79,19.55,19.58c-0.02,10.79-8.84,19.64-19.56,19.61c-10.86-0.02-19.72-8.91-19.64-19.7
			C547.24,470.9,556.02,462.19,566.8,462.23z M523.32,430.62c10.82,0.04,19.55,8.8,19.54,19.59c-0.02,10.78-8.8,19.57-19.58,19.59
			c-10.81,0.02-19.67-8.88-19.61-19.7C503.72,439.31,512.52,430.58,523.32,430.62z M460.17,481.7c0.03-10.78,8.8-19.47,19.66-19.48
			c10.75,0,19.51,8.79,19.54,19.61c0.02,10.77-8.92,19.65-19.75,19.6C468.88,501.37,460.14,492.51,460.17,481.7z M496.21,552.56
			c-10.69-0.03-19.44-8.91-19.44-19.74c0-10.78,8.86-19.47,19.85-19.45c10.7,0.02,19.34,8.86,19.32,19.78
			C515.92,543.87,507.05,552.59,496.21,552.56z M523.33,502.43c-3.64,0.03-6.53-2.8-6.55-6.42c-0.03-3.63,2.8-6.53,6.42-6.55
			c3.64-0.03,6.53,2.8,6.56,6.42C529.78,499.51,526.95,502.4,523.33,502.43z M550.2,552.56c-10.9-0.03-19.66-8.81-19.61-19.67
			c0.05-10.86,8.78-19.56,19.57-19.52c10.86,0.05,19.65,8.83,19.6,19.56C569.7,543.76,560.9,552.59,550.2,552.56z"/>
	</g>
	<linearGradient id="SVGID_8_" gradientUnits="userSpaceOnUse" x1="107.5669" y1="513.2242" x2="215.6731" y2="513.2242">
		<stop  offset="0" style="stop-color:#EF5E2D"/>
		<stop  offset="0.4885" style="stop-color:#EF782D"/>
		<stop  offset="1" style="stop-color:#EF612D"/>
	</linearGradient>
	<path class="st13" d="M161.14,543.35c-17.23-20.02-34.55-39.97-51.83-59.93c-0.45-0.51-0.81-1.11-1.74-2.39
		c17.59,0,34.31,0.03,51.03-0.05c1.66,0,2.71,0.79,3.79,2.03c17.74,20.5,35.52,40.98,53.29,61.48c-0.81,1.51-1.99,0.82-2.92,0.82
		c-15.56,0.05-31.1,0.02-46.65,0.07C164.19,545.38,162.64,545.1,161.14,543.35z"/>
	<linearGradient id="SVGID_9_" gradientUnits="userSpaceOnUse" x1="180.4973" y1="513.2242" x2="288.6035" y2="513.2242">
		<stop  offset="0" style="stop-color:#2F3277"/>
		<stop  offset="0.4382" style="stop-color:#454186"/>
		<stop  offset="1" style="stop-color:#2B2F74"/>
	</linearGradient>
	<path class="st14" d="M234.07,543.35c-17.23-20.02-34.55-39.97-51.83-59.93c-0.45-0.51-0.81-1.11-1.74-2.39
		c17.59,0,34.31,0.03,51.03-0.05c1.66,0,2.71,0.79,3.79,2.03c17.74,20.5,35.52,40.98,53.29,61.48c-0.81,1.51-1.99,0.82-2.92,0.82
		c-15.56,0.05-31.1,0.02-46.65,0.07C237.12,545.38,235.57,545.1,234.07,543.35z"/>
	<linearGradient id="SVGID_10_" gradientUnits="userSpaceOnUse" x1="253.4277" y1="513.2242" x2="361.5339" y2="513.2242">
		<stop  offset="0" style="stop-color:#EF5E2D"/>
		<stop  offset="0.4885" style="stop-color:#EF782D"/>
		<stop  offset="1" style="stop-color:#EF612D"/>
	</linearGradient>
	<path class="st15" d="M307,543.35c-17.23-20.02-34.55-39.97-51.83-59.93c-0.45-0.51-0.81-1.11-1.74-2.39
		c17.59,0,34.31,0.03,51.03-0.05c1.66,0,2.71,0.79,3.79,2.03c17.74,20.5,35.52,40.98,53.29,61.48c-0.81,1.51-1.99,0.82-2.92,0.82
		c-15.56,0.05-31.1,0.02-46.65,0.07C310.05,545.38,308.5,545.1,307,543.35z"/>
	<linearGradient id="SVGID_11_" gradientUnits="userSpaceOnUse" x1="326.3581" y1="513.2242" x2="434.4643" y2="513.2242">
		<stop  offset="0" style="stop-color:#2F3277"/>
		<stop  offset="0.4382" style="stop-color:#454186"/>
		<stop  offset="1" style="stop-color:#2B2F74"/>
	</linearGradient>
	<path class="st16" d="M379.93,543.35c-17.23-20.02-34.55-39.97-51.83-59.93c-0.45-0.51-0.81-1.11-1.74-2.39
		c17.59,0,34.31,0.03,51.03-0.05c1.66,0,2.71,0.79,3.79,2.03c17.74,20.5,35.52,40.98,53.29,61.48c-0.81,1.51-1.99,0.82-2.92,0.82
		c-15.56,0.05-31.1,0.02-46.65,0.07C382.98,545.38,381.43,545.1,379.93,543.35z"/>
</g>
</svg>
