<?xml version="1.0" encoding="utf-8"?>
<!-- Generator: Adobe Illustrator 24.1.0, SVG Export Plug-In . SVG Version: 6.00 Build 0)  -->
<svg version="1.1" id="Capa_1" xmlns="http://www.w3.org/2000/svg" xmlns:xlink="http://www.w3.org/1999/xlink" x="0px" y="0px"
	 viewBox="0 0 768 768" style="enable-background:new 0 0 768 768;" xml:space="preserve">
<style type="text/css">
	.st0{fill:#FFFFFF;}
	.st1{fill:#FEFEFE;}
	.st2{fill:url(#SVGID_1_);}
	.st3{fill:url(#SVGID_2_);}
	.st4{fill:url(#SVGID_3_);}
	.st5{fill:#4ED4E9;}
	.st6{fill:url(#SVGID_4_);}
	.st7{fill:#62A5FC;}
	.st8{fill:#4DD3E8;}
	.st9{fill:#FAFAFA;}
	.st10{fill:url(#SVGID_5_);}
	.st11{fill:url(#SVGID_6_);}
	.st12{fill:url(#SVGID_7_);}
	.st13{fill:url(#SVGID_8_);}
	.st14{fill:url(#SVGID_9_);}
	.st15{fill:url(#SVGID_10_);}
	.st16{fill:url(#SVGID_11_);}
	.st17{fill:url(#SVGID_12_);}
	.st18{fill:url(#SVGID_13_);}
	.st19{fill:url(#SVGID_14_);}
	.st20{fill:url(#SVGID_15_);}
	.st21{fill:url(#SVGID_16_);}
	.st22{fill:url(#SVGID_17_);}
	.st23{fill:url(#SVGID_18_);}
	.st24{fill:#F7F7F7;}
	.st25{fill:url(#SVGID_19_);}
	.st26{fill:#DCE9FA;}
	.st27{fill:#698DD4;}
	.st28{fill:url(#SVGID_20_);}
	.st29{fill:#CAE1FE;}
	.st30{fill:url(#SVGID_21_);}
	.st31{fill:url(#SVGID_22_);}
	.st32{fill:url(#SVGID_23_);}
	.st33{fill:url(#SVGID_24_);}
	.st34{fill:none;stroke:#000000;stroke-width:4;stroke-linecap:round;stroke-linejoin:round;stroke-miterlimit:10;}
	.st35{fill:url(#SVGID_25_);}
	.st36{fill:url(#SVGID_26_);}
	.st37{fill:url(#SVGID_27_);}
	.st38{fill:none;stroke:#000000;stroke-width:4;stroke-miterlimit:10;}
	.st39{fill:url(#SVGID_28_);}
	.st40{fill:url(#SVGID_29_);}
	.st41{fill:url(#SVGID_30_);}
	.st42{fill:url(#SVGID_31_);}
	.st43{fill:url(#SVGID_32_);}
	.st44{fill:#FEFFFF;}
	.st45{fill:url(#SVGID_33_);}
	.st46{fill:none;stroke:#000000;stroke-width:3;stroke-linecap:round;stroke-linejoin:round;stroke-miterlimit:10;}
	.st47{fill:url(#SVGID_34_);}
	.st48{fill:url(#SVGID_35_);}
	.st49{fill:url(#SVGID_36_);}
	.st50{fill:url(#SVGID_37_);}
	.st51{fill:url(#SVGID_38_);}
	.st52{fill:url(#SVGID_39_);}
	.st53{fill:url(#SVGID_40_);}
	.st54{fill:url(#SVGID_41_);}
	.st55{fill:url(#SVGID_42_);}
	.st56{fill:url(#SVGID_43_);}
	.st57{fill:url(#SVGID_44_);}
	.st58{fill:url(#SVGID_45_);}
	.st59{fill:url(#SVGID_46_);}
	.st60{fill:url(#SVGID_47_);}
	.st61{fill:url(#SVGID_48_);}
	.st62{fill:url(#SVGID_49_);}
	.st63{fill:url(#SVGID_50_);}
	.st64{fill:url(#SVGID_51_);}
	.st65{fill:url(#SVGID_52_);}
	.st66{fill:url(#SVGID_53_);}
	.st67{fill:url(#SVGID_54_);}
	.st68{fill:url(#SVGID_55_);}
	.st69{fill:url(#SVGID_56_);}
	.st70{fill:url(#SVGID_57_);}
	.st71{fill:url(#SVGID_58_);}
	.st72{fill:url(#SVGID_59_);}
	.st73{fill:url(#SVGID_60_);}
	.st74{fill:url(#SVGID_61_);}
	.st75{fill:url(#SVGID_62_);}
	.st76{fill:url(#SVGID_63_);}
	.st77{fill:url(#SVGID_64_);}
	.st78{fill:url(#SVGID_65_);}
	.st79{fill:url(#SVGID_66_);}
	.st80{fill:url(#SVGID_67_);}
	.st81{fill:url(#SVGID_68_);}
</style>
<g>
	<path class="st1" d="M679.21,179.61c0.02,127.66,0.02,255.31,0,382.96c0,35.27-23.38,58.63-58.65,58.63
		c-157.8,0.02-315.61,0.02-473.42,0c-34.85,0-58.34-23.48-58.36-58.31V179.33c0.02-34.85,23.51-58.33,58.34-58.33
		c79.01-0.02,158,0,237.02,0c78.79,0,157.61-0.02,236.4,0C655.82,121.01,679.21,144.34,679.21,179.61z"/>
	<path d="M679.21,179.61c0.02,127.66,0.02,255.31,0,382.96c0,35.27-23.38,58.63-58.65,58.63c-157.8,0.02-315.61,0.02-473.42,0
		c-34.85,0-58.34-23.48-58.36-58.31V179.33c0.02-34.85,23.51-58.33,58.34-58.33c79.01-0.02,158,0,237.02,0
		c78.79,0,157.61-0.02,236.4,0C655.82,121.01,679.21,144.34,679.21,179.61z"/>
	<linearGradient id="SVGID_1_" gradientUnits="userSpaceOnUse" x1="103.0502" y1="410.7224" x2="664.9385" y2="410.7224">
		<stop  offset="0" style="stop-color:#EF5E2D"/>
		<stop  offset="0.4885" style="stop-color:#EF782D"/>
		<stop  offset="1" style="stop-color:#EF612D"/>
	</linearGradient>
	<path class="st2" d="M384.01,214.79c91.59,0,183.18,0.04,274.76-0.12c4.92-0.01,6.18,1.05,6.17,6.11
		c-0.17,114.01-0.12,228.01-0.13,342.02c0,26.68-17.25,43.97-43.86,43.98c-157.98,0.01-315.96,0.01-473.94,0
		c-26.61,0-43.83-17.29-43.83-44c-0.01-114.01,0.04-228.01-0.13-342.02c-0.01-5.1,1.31-6.09,6.19-6.08
		C200.83,214.83,292.42,214.79,384.01,214.79z"/>
	<linearGradient id="SVGID_2_" gradientUnits="userSpaceOnUse" x1="283.8214" y1="167.8947" x2="664.8862" y2="167.8947">
		<stop  offset="0" style="stop-color:#2F3277"/>
		<stop  offset="0.4382" style="stop-color:#454186"/>
		<stop  offset="1" style="stop-color:#2B2F74"/>
	</linearGradient>
	<path class="st3" d="M283.82,200.36c7.77-9.95,9.4-20.55,9.04-31.81c-0.32-9.81,0.03-19.64-0.13-29.45
		c-0.05-2.81,0.65-4.13,3.62-3.69c0.98,0.14,2,0.02,3,0.02c106.99,0,213.98,0,320.96,0c27.48,0,44.48,17.02,44.5,44.52
		c0,5.61-0.16,11.23,0.07,16.83c0.12,2.96-0.89,4.02-3.71,3.59c-0.59-0.09-1.2-0.01-1.8-0.01c-123.79,0-247.57,0-371.36,0
		C287.01,200.36,286.01,200.36,283.82,200.36z"/>
	<path class="st1" d="M181.17,200.36c-24.39,0-48.78-0.09-73.17,0.09c-3.89,0.03-5.17-0.93-4.89-4.9
		c0.64-9.17-0.87-18.42,1.06-27.55c3.93-18.52,19.91-32.36,38.72-32.47c43.78-0.26,87.57-0.05,131.35-0.18
		c3.48-0.01,4.28,1.05,4.22,4.36c-0.19,11.62,0.01,23.24-0.1,34.85c-0.14,14.89-10.91,25.71-25.82,25.77
		C228.76,200.44,204.97,200.36,181.17,200.36z"/>
	<path d="M295.61,546.65c-36.18,0-72.37,0.01-108.55,0c-8.69,0-10.47-2.01-9.74-10.79c5.69-68.02,11.37-136.05,17.05-204.07
		c0.55-6.58,2.76-8.73,9.47-8.76c9-0.05,18.02-0.48,26.98,0.15c6.1,0.43,7.24-1.7,6.91-7.24c-0.39-6.55-0.47-13.16,0.79-19.75
		c4.9-25.49,28.37-43.55,54.36-41.6c25.85,1.94,46.17,23.63,46.69,49.88c0.09,4.81,0.26,9.63-0.05,14.42
		c-0.23,3.56,1.13,4.22,4.38,4.2c14.59-0.1,29.18,0.06,43.78,0.15c8.19,0.05,10.13,2.03,10.8,10.09
		c3.81,45.28,7.72,90.55,11.54,135.83c1.9,22.54,3.7,45.09,5.55,67.64c0.61,7.46-1.51,9.85-9.01,9.85
		C369.57,546.67,332.59,546.65,295.61,546.65z"/>
	<path d="M555.04,344.65c21.57,0,43.14-0.01,64.71,0.01c8.08,0.01,10.23,2.17,10.25,10.27c0.02,7.6,0.06,15.21-0.01,22.81
		c-0.06,6.3-2.49,8.96-8.53,8.97c-44.74,0.05-89.47,0.05-134.21,0c-5.79-0.01-8.35-2.65-8.43-8.45c-0.11-8.2-0.08-16.41-0.01-24.61
		c0.06-6.49,2.54-8.96,9.12-8.97C510.31,344.62,532.68,344.65,555.04,344.65z"/>
	<path d="M548.35,506.97c-19.97,0-39.94,0.02-59.91-0.01c-7.28-0.01-9.6-2.36-9.63-9.68c-0.04-7.8-0.06-15.61,0.01-23.41
		c0.06-6.29,2.49-8.95,8.53-8.96c40.74-0.05,81.47-0.05,122.21,0c5.78,0.01,8.34,2.65,8.42,8.45c0.11,8.2,0.09,16.41,0.01,24.61
		c-0.06,6.49-2.55,8.96-9.13,8.97C588.69,507,568.52,506.97,548.35,506.97z"/>
	<path d="M535.78,326.61c-15.77,0-31.54,0.02-47.32-0.01c-7.3-0.02-9.62-2.35-9.65-9.66c-0.04-8-0.09-16,0.02-24
		c0.08-5.77,2.66-8.37,8.48-8.38c32.74-0.06,65.48-0.06,98.22,0c5.79,0.01,8.36,2.64,8.44,8.43c0.11,8.2,0.09,16.4,0.01,24.6
		c-0.06,6.51-2.54,8.98-9.1,9C568.52,326.65,552.15,326.61,535.78,326.61z"/>
	<path d="M536.39,404.77c15.97,0,31.94-0.02,47.91,0.01c7.31,0.01,9.66,2.35,9.7,9.61c0.04,8,0.1,16-0.02,24
		c-0.08,5.8-2.64,8.42-8.45,8.43c-32.74,0.06-65.48,0.06-98.22,0c-5.81-0.01-8.39-2.62-8.47-8.4c-0.11-8.2-0.08-16.4-0.01-24.6
		c0.06-6.53,2.52-9.01,9.06-9.03C504.04,404.73,520.22,404.77,536.39,404.77z"/>
	<path class="st1" d="M144.23,380.74c0,27.9,0.02,55.79-0.01,83.69c-0.01,9.8-3.71,15.07-10.61,15.35
		c-7.23,0.29-11.39-5.27-11.4-15.47c-0.02-56.1-0.02-112.2,0-168.3c0.01-10,3.66-14.73,11.06-14.69
		c7.37,0.04,10.93,4.76,10.94,14.82C144.25,324.33,144.23,352.54,144.23,380.74z"/>
	<path class="st1" d="M144.23,250.07c-0.08,9.26-4.28,14.68-11.26,14.51c-7.14-0.17-10.75-5.74-10.84-15.89
		c-0.07-7.71,2.38-13.28,10.86-13.81C140.5,234.4,144.32,239.82,144.23,250.07z"/>
	<linearGradient id="SVGID_3_" gradientUnits="userSpaceOnUse" x1="141.7409" y1="168.0321" x2="161.3694" y2="168.0321">
		<stop  offset="0" style="stop-color:#2F3277"/>
		<stop  offset="0.4382" style="stop-color:#454186"/>
		<stop  offset="1" style="stop-color:#2B2F74"/>
	</linearGradient>
	<path class="st4" d="M161.37,168.09c0,5.52-4.37,9.78-9.93,9.69c-5.24-0.08-9.52-4.24-9.69-9.42c-0.17-5.28,4.39-10.02,9.71-10.09
		C156.9,158.22,161.37,162.64,161.37,168.09z"/>
	<linearGradient id="SVGID_4_" gradientUnits="userSpaceOnUse" x1="181.1523" y1="168.0341" x2="200.5569" y2="168.0341">
		<stop  offset="0" style="stop-color:#2F3277"/>
		<stop  offset="0.4382" style="stop-color:#454186"/>
		<stop  offset="1" style="stop-color:#2B2F74"/>
	</linearGradient>
	<path class="st6" d="M190.89,158.28c5.49,0.02,9.73,4.4,9.66,9.96c-0.07,5.57-4.39,9.7-10,9.54c-5.29-0.15-9.36-4.29-9.4-9.58
		C181.1,162.7,185.47,158.26,190.89,158.28z"/>
	<linearGradient id="SVGID_5_" gradientUnits="userSpaceOnUse" x1="220.4836" y1="168.033" x2="239.9737" y2="168.033">
		<stop  offset="0" style="stop-color:#2F3277"/>
		<stop  offset="0.4382" style="stop-color:#454186"/>
		<stop  offset="1" style="stop-color:#2B2F74"/>
	</linearGradient>
	<path class="st10" d="M229.95,177.78c-5.57-0.1-9.65-4.45-9.47-10.08c0.18-5.28,4.37-9.39,9.61-9.42c5.39-0.03,9.89,4.48,9.87,9.87
		C239.95,173.6,235.5,177.89,229.95,177.78z"/>
	<linearGradient id="SVGID_6_" gradientUnits="userSpaceOnUse" x1="196.1421" y1="411.1465" x2="358.0519" y2="411.1465">
		<stop  offset="0" style="stop-color:#2F3277"/>
		<stop  offset="0.4382" style="stop-color:#454186"/>
		<stop  offset="1" style="stop-color:#2B2F74"/>
	</linearGradient>
	<path class="st11" d="M269.13,485.33c-22.79,0-45.59-0.06-68.38,0.06c-3.64,0.02-4.93-0.38-4.54-4.79
		c4.02-45.47,7.8-90.96,11.38-136.47c0.41-5.21,1.73-7.32,7.28-6.82c6.15,0.55,12.39,0.34,18.58,0.04c3.52-0.17,4.35,1.08,4.21,4.38
		c-0.25,5.8-0.04,11.62-0.08,17.43c-0.03,4.9,1.88,8.36,7.16,8.4c5.27,0.03,7.26-3.39,7.25-8.3c-0.01-6.01,0.11-12.02-0.05-18.03
		c-0.07-2.65,0.35-3.88,3.49-3.86c22.19,0.14,44.39,0.12,66.58,0.01c2.79-0.01,3.29,1.03,3.24,3.49
		c-0.14,6.21-0.14,12.42-0.02,18.63c0.1,5.4,2.89,8.41,7.46,8.1c4.92-0.34,6.9-3.44,6.9-8.09c0.01-6.21,0.1-12.42-0.04-18.63
		c-0.05-2.45,0.41-3.65,3.23-3.5c4.59,0.24,10.35-1.6,13.49,0.55c3.75,2.56,0.49,8.41,0.08,12.75
		c-3.72,39.46-7.67,78.9-11.55,118.34c-0.39,3.98-1.04,7.97-1.09,11.96c-0.04,3.68-1.47,4.49-5.01,4.46
		C315.52,485.24,292.32,485.33,269.13,485.33z"/>
	<path class="st1" d="M268.14,499.76c22.98,0,45.96,0.08,68.93-0.08c3.82-0.03,5.08,0.65,4.43,4.87c-1.21,7.9-1.77,15.9-2.41,23.88
		c-0.24,3.01-1.39,3.87-4.43,3.86c-46.16-0.1-92.31-0.14-138.47,0.04c-4.24,0.02-4.38-1.6-4.01-4.88
		c0.86-7.75,1.78-15.53,2.03-23.31c0.13-3.94,1.6-4.47,4.99-4.45C222.18,499.82,245.16,499.76,268.14,499.76z"/>
	<path class="st1" d="M287.99,323.01c-10.6,0-21.2-0.14-31.79,0.08c-3.39,0.07-4.52-0.88-4.27-4.3c0.52-6.97-0.63-14,0.96-20.95
		c4.14-18.12,21.08-30.56,39.43-28.83c18.43,1.74,32.55,17.15,32.84,35.96c0.09,5.78,2.02,13.32-0.83,16.86
		c-3,3.72-10.83,0.93-16.55,1.12C301.19,323.17,294.59,323.01,287.99,323.01z"/>
	<path class="st1" d="M400.55,523.6c-5.32-4.24-9.62-7.74-14-11.12c-1.54-1.19-1.36-2.74-1.36-4.32
		c0.01-50.89,0.01-101.77,0.03-152.66c0-0.58,0.22-1.16,1-1.77C390.96,409.89,395.7,466.04,400.55,523.6z"/>
	<path class="st1" d="M370.79,367.2c0,2.18,0,4.36,0,6.55c0,44.03-0.08,88.06,0.12,132.08c0.02,4.76-1.32,7.79-5.28,10.24
		c-3.53,2.18-6.71,4.92-11.19,8.27c5.19-53.05,10.26-104.98,15.34-156.91C370.13,367.35,370.46,367.27,370.79,367.2z"/>
	<path class="st24" d="M387.5,532.03c-6.9,0-12.99,0-19.28,0C377.3,522.62,377.64,522.61,387.5,532.03z"/>
	<path class="st1" d="M571.81,372.31c-13,0-26-0.16-38.99,0.1c-3.9,0.08-5.44-0.95-4.86-4.91c0.26-1.77,0.17-3.61,0.01-5.4
		c-0.21-2.36,0.7-3.06,3.04-3.06c27.19,0.07,54.39,0.07,81.58,0c2.33-0.01,2.92,0.72,3.09,3.04c0.75,10.24,0.85,10.23-9.08,10.23
		C595.01,372.31,583.41,372.31,571.81,372.31z"/>
	<path class="st1" d="M503.9,359.08c0.4,0,0.8,0,1.2,0c8.47,0,10.5,2.83,8.57,11.34c-0.47,2.08-1.62,1.88-2.97,1.88
		c-4.8,0.02-9.6-0.08-14.39,0.05c-2.21,0.06-3.41-0.46-3.13-2.95c0.15-1.38,0.22-2.83-0.01-4.2c-0.81-4.83,0.77-7.1,5.95-6.16
		C500.66,359.32,502.3,359.08,503.9,359.08z"/>
	<path class="st1" d="M566.14,479.32c11,0,22,0.18,32.99-0.1c3.79-0.1,5.04,1,4.52,4.66c-0.25,1.77-0.21,3.62-0.01,5.4
		c0.31,2.72-0.83,3.33-3.39,3.32c-22.99-0.09-45.99-0.09-68.99,0.01c-2.67,0.01-3.24-0.84-3.35-3.4c-0.42-9.89-0.53-9.88,9.42-9.88
		C546.95,479.32,556.55,479.32,566.14,479.32z"/>
	<path class="st1" d="M503.34,492.55c-0.6,0-1.2,0-1.8,0c-8.08,0-10.53-3.51-8.39-11.5c0.56-2.11,1.85-1.69,3.12-1.7
		c4.6-0.05,9.2,0.16,13.79-0.08c2.99-0.16,3.56,0.95,3.62,3.74C513.91,492.55,514.03,492.55,503.34,492.55z"/>
	<path class="st1" d="M554.34,298.96c7,0,14,0.17,20.99-0.07c3.29-0.11,4.8,0.7,4.32,4.22c-0.24,1.77-0.2,3.62-0.01,5.4
		c0.31,2.81-0.6,3.78-3.58,3.75c-14.79-0.15-29.59-0.13-44.38-0.01c-2.78,0.02-4.08-0.59-3.72-3.6c0.22-1.78,0.22-3.62,0-5.4
		c-0.41-3.32,0.68-4.5,4.18-4.37C539.53,299.15,546.94,298.96,554.34,298.96z"/>
	<path class="st1" d="M502.96,298.96c1.2,0,1.8,0,2.4,0c7.86,0,10.53,3.89,8.28,11.6c-0.62,2.12-1.97,1.57-3.21,1.6
		c-3.2,0.07-6.45-0.33-9.58,0.1c-6,0.83-7.77-1.03-7.92-7.45C492.69,294.48,500.08,300.86,502.96,298.96z"/>
	<path class="st1" d="M553.21,432.43c-7,0-14-0.18-20.99,0.08c-3.38,0.12-4.7-0.85-4.26-4.28c0.25-1.97,0.18-4.01,0.01-6
		c-0.19-2.35,0.69-3.08,3.03-3.06c15.19,0.09,30.39,0.09,45.59,0c2.32-0.01,2.92,0.71,3.09,3.04c0.75,10.24,0.85,10.23-9.07,10.23
		C564.81,432.43,559.01,432.43,553.21,432.43z"/>
	<path class="st1" d="M503.06,432.43c-0.4,0-0.8,0-1.2,0c-8.89,0-10.42-2.14-8.75-11.18c0.48-2.6,1.99-2.01,3.43-2.03
		c4.4-0.06,8.81,0.19,13.19-0.09c3.23-0.21,3.93,0.96,3.95,4.02C513.76,432.43,513.9,432.43,503.06,432.43z"/>
</g>
</svg>
