<?xml version="1.0" encoding="utf-8"?>
<!-- Generator: Adobe Illustrator 24.1.0, SVG Export Plug-In . SVG Version: 6.00 Build 0)  -->
<svg version="1.1" id="Capa_1" xmlns="http://www.w3.org/2000/svg" xmlns:xlink="http://www.w3.org/1999/xlink" x="0px" y="0px"
	 viewBox="0 0 768 768" style="enable-background:new 0 0 768 768;" xml:space="preserve">
<style type="text/css">
	.st0{fill:#FFFFFF;}
	.st1{fill:#FEFEFE;}
	.st2{fill:url(#SVGID_1_);}
	.st3{fill:url(#SVGID_2_);}
	.st4{fill:url(#SVGID_3_);}
	.st5{fill:#4ED4E9;}
	.st6{fill:url(#SVGID_4_);}
	.st7{fill:#62A5FC;}
	.st8{fill:#4DD3E8;}
	.st9{fill:#FAFAFA;}
	.st10{fill:url(#SVGID_5_);}
	.st11{fill:url(#SVGID_6_);}
	.st12{fill:url(#SVGID_7_);}
	.st13{fill:url(#SVGID_8_);}
	.st14{fill:url(#SVGID_9_);}
	.st15{fill:url(#SVGID_10_);}
	.st16{fill:url(#SVGID_11_);}
	.st17{fill:url(#SVGID_12_);}
	.st18{fill:url(#SVGID_13_);}
	.st19{fill:url(#SVGID_14_);}
	.st20{fill:url(#SVGID_15_);}
	.st21{fill:url(#SVGID_16_);}
	.st22{fill:url(#SVGID_17_);}
	.st23{fill:url(#SVGID_18_);}
	.st24{fill:#F7F7F7;}
	.st25{fill:url(#SVGID_19_);}
	.st26{fill:#DCE9FA;}
	.st27{fill:#698DD4;}
	.st28{fill:url(#SVGID_20_);}
	.st29{fill:#CAE1FE;}
	.st30{fill:url(#SVGID_21_);}
	.st31{fill:url(#SVGID_22_);}
	.st32{fill:url(#SVGID_23_);}
	.st33{fill:url(#SVGID_24_);}
	.st34{fill:none;stroke:#000000;stroke-width:4;stroke-linecap:round;stroke-linejoin:round;stroke-miterlimit:10;}
	.st35{fill:url(#SVGID_25_);}
	.st36{fill:url(#SVGID_26_);}
	.st37{fill:url(#SVGID_27_);}
	.st38{fill:none;stroke:#000000;stroke-width:4;stroke-miterlimit:10;}
	.st39{fill:url(#SVGID_28_);}
	.st40{fill:url(#SVGID_29_);}
	.st41{fill:url(#SVGID_30_);}
	.st42{fill:url(#SVGID_31_);}
	.st43{fill:url(#SVGID_32_);}
	.st44{fill:#FEFFFF;}
	.st45{fill:url(#SVGID_33_);}
	.st46{fill:none;stroke:#000000;stroke-width:3;stroke-linecap:round;stroke-linejoin:round;stroke-miterlimit:10;}
	.st47{fill:url(#SVGID_34_);}
	.st48{fill:url(#SVGID_35_);}
	.st49{fill:url(#SVGID_36_);}
	.st50{fill:url(#SVGID_37_);}
	.st51{fill:url(#SVGID_38_);}
	.st52{fill:url(#SVGID_39_);}
	.st53{fill:url(#SVGID_40_);}
	.st54{fill:url(#SVGID_41_);}
	.st55{fill:url(#SVGID_42_);}
	.st56{fill:url(#SVGID_43_);}
	.st57{fill:url(#SVGID_44_);}
	.st58{fill:url(#SVGID_45_);}
	.st59{fill:url(#SVGID_46_);}
	.st60{fill:url(#SVGID_47_);}
	.st61{fill:url(#SVGID_48_);}
	.st62{fill:url(#SVGID_49_);}
	.st63{fill:url(#SVGID_50_);}
	.st64{fill:url(#SVGID_51_);}
	.st65{fill:url(#SVGID_52_);}
	.st66{fill:url(#SVGID_53_);}
	.st67{fill:url(#SVGID_54_);}
	.st68{fill:url(#SVGID_55_);}
	.st69{fill:url(#SVGID_56_);}
	.st70{fill:url(#SVGID_57_);}
	.st71{fill:url(#SVGID_58_);}
	.st72{fill:url(#SVGID_59_);}
	.st73{fill:url(#SVGID_60_);}
	.st74{fill:url(#SVGID_61_);}
	.st75{fill:url(#SVGID_62_);}
	.st76{fill:url(#SVGID_63_);}
	.st77{fill:url(#SVGID_64_);}
	.st78{fill:url(#SVGID_65_);}
	.st79{fill:url(#SVGID_66_);}
	.st80{fill:url(#SVGID_67_);}
	.st81{fill:url(#SVGID_68_);}
</style>
<g>
	<path class="st1" d="M393.89,623c-4.45-2.09-6.01-5.6-5.78-10.43c0.23-4.58,1.68-10.8-0.65-13.38c-2.7-3-9.01-0.85-13.73-0.92
		c-9.92-0.14-19.83,0-29.75-0.05c-21.12-0.09-35.67-14.51-35.79-35.83c-0.16-25.43-0.04-50.89-0.07-76.32
		c0-1.57,0.48-3.25-0.69-5.28c-5.67,4.35-11.24,8.61-16.81,12.89c-6.27,4.84-12.58,9.63-18.79,14.55c-2.85,2.24-5.8,3.16-9.16,1.45
		c-3.15-1.63-4.08-4.44-4.03-7.87c0.11-7.11-0.25-14.21,0.12-21.3c0.21-4.15-1.33-4.86-5.04-4.83c-20.15,0.16-40.32,0.18-60.47,0.05
		c-24.22-0.14-42.35-14.65-46.79-37.35c-0.51-2.56-0.67-5.25-0.69-7.88c-0.05-24.6,0.04-49.23-0.09-73.83
		c-0.02-5.2,2.09-8.11,7.26-8.75c0.18-0.04,0.34-0.05,0.49-0.07c-0.09,0.04-0.16,0.07-0.23,0.12c-5.64,3.29-5.99,8.59-5.94,14.56
		c0.23,22.62,0.07,45.27,0.11,67.89c0.04,23.08,16.86,41.17,39.89,43.43c17.32,1.7,34.64,0.44,51.97,0.87
		c4.47,0.11,8.93-0.04,13.38,0.02c6.86,0.09,7.71,0.92,7.81,7.72c0.07,6.27-0.02,12.57,0.04,18.84c0.04,2.72,0.37,5.32,3.18,6.75
		c2.97,1.48,5.46,0.27,7.78-1.5c8.94-6.81,17.91-13.56,26.73-20.54c1.29-1.03,2.55-2.1,3.92-3c1.89-1.24,3.8-3.29,6.22-1.91
		c2.14,1.22,1.7,3.78,1.71,5.89c0.05,25.43,0,50.89,0.04,76.32c0.02,19.55,13.75,33.3,33.39,33.42c12.73,0.07,25.43-0.04,38.16,0.04
		c6.84,0.04,7.95,0.9,7.71,7.72C389.07,611.19,389.65,617.5,393.89,623z"/>
	<path class="st1" d="M505.21,121.08c-0.04,0.41-0.05,0.81-0.11,1.18c-0.23-0.21-0.46-0.44-0.69-0.67
		c-2.21-3.91-5.64-5.04-9.99-5.02c-33.69,0.07-67.38-0.12-101.08,0.09c-30.21,0.21-53.47,23.99-53.5,54.25
		c-0.02,23.46,0,46.91,0,70.37c0,1.82,0.02,3.64-0.12,5.46c-0.23,3.31-2.05,4.51-5.27,4.42c-47.72-1.4-95.45-0.42-143.17-0.55
		c-24.87-0.05-43.76,19.32-43.85,44.21c-0.02,3.31,0.23,6.63-0.05,9.9c-0.49,5.57,0.81,10.11,6.06,12.9c0,0.04,0.02,0.09,0.02,0.12
		l0.05,0.37c-0.18-0.07-0.35-0.16-0.55-0.26c-5.16-0.65-7.48-3.55-7.23-8.75c0.37-7.92-0.71-15.89,0.95-23.74
		c4.38-20.77,22.08-36.06,43.2-36.18c46.45-0.3,92.9-0.12,139.35-0.07c2.79,0,6.82,1.7,8.06,0.44c2.17-2.23,0.76-6.24,0.78-9.47
		c0.07-22.32-0.02-44.65,0.05-66.95c0.09-34.15,23.9-57.96,57.96-57.99c33.23-0.02,66.44,0.04,99.67-0.05
		C500.42,115.05,503.89,116.18,505.21,121.08z"/>
	<path class="st1" d="M472.95,571.21c-3.36,15.68-17.22,27.11-33.42,26.83c-6.73-0.12-11.86,1.82-16.86,6.08
		c-7.71,6.58-15.85,12.62-23.81,18.88c-0.44-2.32,1.47-3.15,2.83-4.19c8.2-6.35,16.51-12.59,24.62-19.05c2.76-2.21,5.76-3,9.19-2.86
		c4.81,0.19,9.56-0.02,14.16-1.68c12.97-4.72,20.4-13.93,22.32-27.59c0.58-4.08,1.13-8.15,0.97-12.28
		c-0.18-4.68-0.99-8.91-6.03-10.85c-0.48-0.19-0.85-0.55-1.15-0.99c0.18-0.05,0.37-0.11,0.57-0.14c5.18,0.55,7.51,3.48,7.44,8.61
		C473.68,558.4,474.3,564.88,472.95,571.21z"/>
	<path class="st1" d="M622.06,344.76c-0.18,29-23.86,52.25-53.57,53.8c-0.83,0.04-1.68,0.19-2.47,0.05
		c-15.7-2.69-28.1,3.15-39.73,13.45c-11.21,9.95-23.74,18.4-35.63,27.57c-2.93,2.26-5.82,3.77-9.51,1.87
		c-3.68-1.87-4.22-5.06-4.17-8.75c0.11-9.76-0.14-19.51,0.12-29.27c0.11-3.78-0.8-4.98-4.83-4.95c-24.96,0.19-49.91,0.07-74.87,0.11
		c-7.32,0.02-14.55-0.53-21.44-3.11c-2.7-1.03-2.99-0.19-2.97,2.19c0.05,10.59,0.14,21.16-0.11,31.74
		c-0.07,3.32,1.24,3.69,4.05,3.68c20.17-0.09,40.33-0.14,60.5-0.02c18.08,0.11,31.46,10.2,35.4,26.53
		c1.17,4.86,0.95,9.85,0.94,14.81c0,9.42-0.04,18.84,0,28.26c0.04,4.84-2,7.88-7.02,8.48h-0.02c-0.18-0.04-0.35-0.05-0.51-0.09
		c0.09-0.14,0.19-0.26,0.32-0.39c4.31-2.4,6.27-6.15,6.19-11.03c-0.19-12.04,0.64-24.09-0.87-36.15
		c-2.09-16.61-15.17-28.53-31.99-28.56c-19.83-0.05-39.66,0-59.51-0.02c-8.06-0.02-8.71-0.69-8.73-8.8
		c-0.02-8.75-0.12-17.52,0.04-26.28c0.11-5.55,1.29-6.42,6.68-5.02c6.93,1.8,13.93,2.56,21.1,2.53c23.47-0.12,46.95-0.07,70.42-0.04
		c8.04,0,8.75,0.74,8.8,8.78c0.04,8.75,0,17.52,0.02,26.28c0,3.09,0.37,6.01,3.61,7.53c3.04,1.43,5.44-0.05,7.74-1.79
		c15.04-11.35,30.14-22.66,44.86-34.4c5.78-4.61,11.61-6.89,19.02-6.54c11.24,0.55,22.45,0.19,33.16-4.24
		c20.17-8.31,33.48-27.79,33.49-49.58c0.04-57.69,0.04-115.38,0-173.08c-0.02-29.09-23.6-53.11-52.69-53.75
		c-6.43-0.14-12.9,0.14-19.34-0.09c-4.54-0.16-8.08,1.13-10.41,5.16c-0.18,0.16-0.34,0.32-0.53,0.44c-0.04-0.34-0.05-0.69-0.07-1.04
		c0.87-3.09,2.65-5.8,5.97-5.78c12.51,0.07,25.1-1.45,37.49,1.79c23.33,6.06,40.97,27.56,41.09,51.63
		C622.36,227.39,622.4,286.07,622.06,344.76z"/>
	<path d="M298.85,265.39h-1.06c-0.37-0.42-0.69-0.88-1.06-1.33C297.47,264.49,298.18,264.93,298.85,265.39z"/>
	<path d="M312.69,447.71c-0.21,1.33-0.55,2.65-1.01,3.94v-2.4C312,448.72,312.36,448.21,312.69,447.71z"/>
	<path d="M622.06,344.76c-0.18,29-23.86,52.25-53.57,53.8c-0.83,0.04-1.68,0.19-2.47,0.05c-15.7-2.69-28.1,3.15-39.73,13.45
		c-11.21,9.95-23.74,18.4-35.63,27.57c-2.93,2.26-5.82,3.77-9.51,1.87c-3.68-1.87-4.22-5.06-4.17-8.75
		c0.11-9.76-0.14-19.51,0.12-29.27c0.11-3.78-0.8-4.98-4.83-4.95c-24.96,0.19-49.91,0.07-74.87,0.11
		c-7.32,0.02-14.55-0.53-21.44-3.11c-2.7-1.03-2.99-0.19-2.97,2.19c0.05,10.59,0.14,21.16-0.11,31.74
		c-0.07,3.32,1.24,3.69,4.05,3.68c20.17-0.09,40.33-0.14,60.5-0.02c18.08,0.11,31.46,10.2,35.4,26.53
		c1.17,4.86,0.95,9.85,0.94,14.81c0,9.42-0.04,18.84,0,28.26c0.04,4.84-2,7.88-7.02,8.48h-0.02c-0.23,0.05-0.44,0.09-0.67,0.12
		c-4.9,0.81-7.72-1.47-8.02-6.93c-0.41-7.39-0.12-14.81-0.14-22.22c0-5.59,0.02-11.17-0.92-16.72c-1.64-9.95-7.81-15.48-17.8-15.57
		c-7.03-0.07-14.05-0.07-21.09,0c-0.51,0-1.01,0.02-1.52,0.02h-0.09c-23.97,0.02-47.94-0.02-71.92,0.02
		c-13.19,0.02-19.55,6.31-19.55,19.35c-0.04,30.58-0.04,61.17,0,91.75c0,13.89,6.77,20.68,20.68,20.73
		c14.71,0.07,29.43,0.02,44.14,0.02c2.32,0,4.65-0.09,6.91,0.44c4.14,0.99,6.59,3.57,7.26,7.51c0.07,0.39,0.12,0.8,0.16,1.2
		c0.05,0.65,0.04,1.31,0,1.96c-0.04,1.31-0.09,2.62,0.48,3.85c4.63-1.4,7.72-5.02,11.15-7.92c6.15-5.18,12.78-7.74,20.87-6.93
		c7.3,0.74,13.17-2.3,17.59-8.08c3.32-4.31,3.34-9.54,3.73-14.62c0.23-3.29-0.19-6.61,0.19-9.88c0.53-4.44,3-6.4,7.48-6.06
		c0.23,0.02,0.46,0.04,0.69,0.07c5.18,0.55,7.51,3.48,7.44,8.61c-0.11,6.43,0.51,12.92-0.83,19.25
		c-3.36,15.68-17.22,27.11-33.42,26.83c-6.73-0.12-11.86,1.82-16.86,6.08c-7.71,6.58-15.85,12.62-23.81,18.88h-4.97
		c-4.45-2.09-6.01-5.6-5.78-10.43c0.23-4.58,1.68-10.8-0.65-13.38c-2.7-3-9.01-0.85-13.73-0.92c-9.92-0.14-19.83,0-29.75-0.05
		c-21.12-0.09-35.67-14.51-35.79-35.83c-0.16-25.43-0.04-50.89-0.07-76.32c0-1.57,0.48-3.25-0.69-5.28
		c-5.67,4.35-11.24,8.61-16.81,12.89c-6.27,4.84-12.58,9.63-18.79,14.55c-2.85,2.24-5.8,3.16-9.16,1.45
		c-3.15-1.63-4.08-4.44-4.03-7.87c0.11-7.11-0.25-14.21,0.12-21.3c0.21-4.15-1.33-4.86-5.04-4.83c-20.15,0.16-40.32,0.18-60.47,0.05
		c-24.22-0.14-42.35-14.65-46.79-37.35c-0.51-2.56-0.67-5.25-0.69-7.88c-0.05-24.6,0.04-49.23-0.09-73.83
		c-0.02-5.2,2.09-8.11,7.26-8.75c0.18-0.04,0.34-0.05,0.49-0.07c-0.09,0.04-0.16,0.07-0.23,0.12c5.87,1.24,7.39,3.13,7.39,9.4
		c0.04,23.46,0,46.91,0.04,70.37c0,3.13-0.07,6.26,0.69,9.35c3.66,14.83,15.5,23.72,32.26,23.79c23.3,0.09,46.57,0,69.87,0.04
		c7.78,0,10.02,2.28,10.07,10.06c0.04,5.32,0.02,10.66,0.02,17.06c9.74-7.51,18.24-14.55,27.24-20.86c5.69-3.99,9.6-8.7,10.89-15.52
		c8.15-13.4,20.06-19.5,35.67-18.54c2.3,0.14,4.65-0.16,6.93,0.05c3.08,0.26,3.91-0.95,3.91-3.96
		c-0.09-45.09,0.05-90.18-0.14-135.27c-0.07-16.16-13.13-29.41-29.13-29.91c-10.73-0.34-21.46,0-32.19,0.04
		c-35.69-0.04-71.37-0.32-107.06,0c-15.89,0.14-28.55,13.54-28.99,29.45c-0.14,5.11,0,10.23-0.07,15.36
		c-0.09,5.71-1.64,7.64-7.16,8.86l0.05,0.37c-0.18-0.07-0.35-0.16-0.55-0.26c-5.16-0.65-7.48-3.55-7.23-8.75
		c0.37-7.92-0.71-15.89,0.95-23.74c4.38-20.77,22.08-36.06,43.2-36.18c46.45-0.3,92.9-0.12,139.35-0.07c2.79,0,6.82,1.7,8.06,0.44
		c2.17-2.23,0.76-6.24,0.78-9.47c0.07-22.32-0.02-44.65,0.05-66.95c0.09-34.15,23.9-57.96,57.96-57.99
		c33.23-0.02,66.44,0.04,99.67-0.05c4.67-0.02,8.13,1.11,9.46,6.01c-0.04,0.41-0.05,0.81-0.11,1.18c-0.58,6.08-2.69,7.72-9.39,7.72
		c-33.87,0.02-67.73-0.07-101.6,0.05c-22.71,0.07-40.69,17.22-40.99,39.65c-0.39,28.09-0.11,56.17-0.18,84.26
		c0,2,0.57,3.31,2.17,4.58c12.71,10.04,18.1,23.33,17.94,39.38c-0.23,25.28,0.04,50.55-0.16,75.83c-0.04,3.66,1.27,5.25,4.4,6.54
		c5.76,2.33,11.67,3.5,17.83,3.5c28.58-0.02,57.16-0.02,85.72,0c8.86,0,10.83,1.93,11.01,10.61c0.02,0.83,0.14,1.64,0.23,2.46v23.12
		c12.89-10.04,24.98-19.48,37.06-28.9c3.5-2.4,7.02-4.81,10.53-7.21c9.07-0.04,18.15,0.09,27.22-0.12
		c22.43-0.53,40.18-17.75,40.26-39.93c0.27-57.96,0.23-115.91,0.02-173.87c-0.07-19.67-14.02-35.53-33.39-39.15
		c-7.37-1.38-14.81-0.67-22.22-0.6c-1.63-0.05-3.23-0.14-4.86-0.16c-6.49-0.07-8.64-1.82-9.16-7.88c-0.04-0.34-0.05-0.69-0.07-1.04
		c0.87-3.09,2.65-5.8,5.97-5.78c12.51,0.07,25.1-1.45,37.49,1.79c23.33,6.06,40.97,27.56,41.09,51.63
		C622.36,227.39,622.4,286.07,622.06,344.76z"/>
	<linearGradient id="SVGID_1_" gradientUnits="userSpaceOnUse" x1="352.9229" y1="270.5113" x2="607.3855" y2="270.5113">
		<stop  offset="0" style="stop-color:#EF5E2D"/>
		<stop  offset="0.4885" style="stop-color:#EF782D"/>
		<stop  offset="1" style="stop-color:#EF612D"/>
	</linearGradient>
	<path class="st2" d="M607.22,169.91c-0.07-19.67-14.02-35.53-33.39-39.15c-7.37-1.38-14.81-0.67-22.22-0.6
		c-1.63-0.05-3.23-0.14-4.86-0.16c-6.49-0.07-8.64-1.82-9.16-7.88c-0.04-0.34-0.05-0.69-0.07-1.04c-6.38,1.7-12.96,1.29-19.44,1.86
		c-4.3,0.37-8.94,1.13-12.87-1.86c-0.04,0.41-0.05,0.81-0.11,1.18c-0.58,6.08-2.69,7.72-9.39,7.72
		c-33.87,0.02-67.73-0.07-101.6,0.05c-22.71,0.07-40.69,17.22-40.99,39.65c-0.39,28.09-0.11,56.17-0.18,84.26
		c0,2,0.57,3.31,2.17,4.58c12.71,10.04,18.1,23.33,17.94,39.38c-0.23,25.28,0.04,50.55-0.16,75.83c-0.04,3.66,1.27,5.25,4.4,6.54
		c5.76,2.33,11.67,3.5,17.83,3.5c28.58-0.02,57.16-0.02,85.72,0c8.86,0,10.83,1.93,11.01,10.61c0.02,0.83,0.14,1.64,0.23,2.46v23.12
		c12.89-10.04,24.98-19.48,37.06-28.9c3.5-2.4,7.02-4.81,10.53-7.21c9.07-0.04,18.15,0.09,27.22-0.12
		c22.43-0.53,40.18-17.75,40.26-39.93C607.46,285.83,607.43,227.87,607.22,169.91z M565.66,320.58
		c-0.02,13.31-7.78,21.28-21.14,21.35c-20.49,0.09-40.97,0.02-61.46,0.02c-6.45,0-12.9,0.12-19.2-1.59
		c-2.85-0.78-5.69-1.64-8.41-2.79c-3.57-1.5-6.93-4.51-10.48,0.25c-0.62,0.83-2.79,0.65-4.26,0.65c-12.39,0.04-24.78,0.05-37.17,0
		c-6.43-0.02-8.89-2.47-8.89-9.03c-0.05-28.92-0.05-57.83,0-86.73c0-6.54,2.44-8.93,9.01-8.96c12.21-0.05,24.44-0.04,36.68,0.02
		c1.61,0,3.75-0.12,4.75,0.8c3.06,2.78,4.6,0.99,6.54-1.29c4.49-5.27,9.01-10.55,13.79-15.59c8.73-9.21,13.73-19.8,14.35-32.7
		c0.57-11.56,11.38-18.38,21.28-14.1c3.62,1.57,6.13,4.33,7.94,7.83c7.76,15.18,9,30.83,3.36,46.96c-0.71,2-1.48,3.96-2.44,6.5
		c12.11,0,23.51-0.02,34.91,0c13.08,0.04,20.84,7.81,20.84,21C565.7,275.63,565.66,298.11,565.66,320.58z"/>
	<linearGradient id="SVGID_2_" gradientUnits="userSpaceOnUse" x1="394.6129" y1="255.7768" x2="565.6765" y2="255.7768">
		<stop  offset="0" style="stop-color:#EF5E2D"/>
		<stop  offset="0.4885" style="stop-color:#EF782D"/>
		<stop  offset="1" style="stop-color:#EF612D"/>
	</linearGradient>
	<path class="st3" d="M565.66,320.58c-0.02,13.31-7.78,21.28-21.14,21.35c-20.49,0.09-40.97,0.02-61.46,0.02
		c-6.45,0-12.9,0.12-19.2-1.59c-2.85-0.78-5.69-1.64-8.41-2.79c-3.57-1.5-6.93-4.51-10.48,0.25c-0.62,0.83-2.79,0.65-4.26,0.65
		c-12.39,0.04-24.78,0.05-37.17,0c-6.43-0.02-8.89-2.47-8.89-9.03c-0.05-28.92-0.05-57.83,0-86.73c0-6.54,2.44-8.93,9.01-8.96
		c12.21-0.05,24.44-0.04,36.68,0.02c1.61,0,3.75-0.12,4.75,0.8c3.06,2.78,4.6,0.99,6.54-1.29c4.49-5.27,9.01-10.55,13.79-15.59
		c8.73-9.21,13.73-19.8,14.35-32.7c0.57-11.56,11.38-18.38,21.28-14.1c3.62,1.57,6.13,4.33,7.94,7.83c7.76,15.18,9,30.83,3.36,46.96
		c-0.71,2-1.48,3.96-2.44,6.5c12.11,0,23.51-0.02,34.91,0c13.08,0.04,20.84,7.81,20.84,21C565.7,275.63,565.66,298.11,565.66,320.58
		z"/>
	<linearGradient id="SVGID_3_" gradientUnits="userSpaceOnUse" x1="152.9612" y1="375.9586" x2="358.1886" y2="375.9586">
		<stop  offset="0" style="stop-color:#EF5E2D"/>
		<stop  offset="0.4885" style="stop-color:#EF782D"/>
		<stop  offset="1" style="stop-color:#EF612D"/>
	</linearGradient>
	<path class="st4" d="M358.05,293.94c-0.07-16.16-13.13-29.41-29.13-29.91c-10.73-0.34-21.46,0-32.19,0.04
		c0.74,0.42,1.45,0.87,2.12,1.33h-1.06c-0.37-0.42-0.69-0.88-1.06-1.33c-35.69-0.04-71.37-0.32-107.06,0
		c-15.89,0.14-28.55,13.54-28.99,29.45c-0.14,5.11,0,10.23-0.07,15.36c-0.09,5.71-1.64,7.64-7.16,8.86l0.05,0.37
		c-0.18-0.07-0.35-0.16-0.55-0.26v30.08c0.18-0.04,0.34-0.05,0.49-0.07c-0.09,0.04-0.16,0.07-0.23,0.12
		c5.87,1.24,7.39,3.13,7.39,9.4c0.04,23.46,0,46.91,0.04,70.37c0,3.13-0.07,6.26,0.69,9.35c3.66,14.83,15.5,23.72,32.26,23.79
		c23.3,0.09,46.57,0,69.87,0.04c7.78,0,10.02,2.28,10.07,10.06c0.04,5.32,0.02,10.66,0.02,17.06c9.74-7.51,18.24-14.55,27.24-20.86
		c5.69-3.99,9.6-8.7,10.89-15.52v-2.4c0.32-0.53,0.67-1.04,1.01-1.54c-0.21,1.33-0.55,2.65-1.01,3.94
		c8.15-13.4,20.06-19.5,35.67-18.54c2.3,0.14,4.65-0.16,6.93,0.05c3.08,0.26,3.91-0.95,3.91-3.96
		C358.1,384.12,358.24,339.03,358.05,293.94z M311.9,387.95c-0.11,0.07-0.23,0.16-0.35,0.23c-9.4,0.11-18.81,0.32-28.23,0.23
		c-3.11-0.02-4.22,0.9-4.63,4.08c-0.95,7.53-2.37,14.99-3.75,22.45c-0.92,4.97-4.26,7.44-8.66,6.72c-4.21-0.69-6.72-4.52-5.94-9.28
		c1.03-6.36,1.91-12.74,3.29-19.02c0.9-4.08-0.25-5.39-4.28-4.93c-2.28,0.27-4.68,0.39-6.93-0.02c-5.29-0.95-6.68,1.8-7.21,6.35
		c-0.8,6.54-2.02,13.04-3.09,19.55c-0.88,5.28-4.14,8.01-8.7,7.39c-4.42-0.6-6.82-4.26-6.03-9.67c0.97-6.68,2-13.38,3.39-19.99
		c0.65-3.16-0.41-3.66-3.15-3.59c-5.28,0.14-10.59,0.07-15.87,0.02c-6.33-0.05-9.65-2.6-9.72-7.35c-0.09-4.83,3.2-7.44,9.51-7.49
		c6.27-0.05,12.55-0.07,18.82,0.02c2.28,0.02,3.68-0.34,3.92-3.11c0.32-3.76,1.1-7.51,1.87-11.22c0.6-2.93-0.07-4.14-3.39-4.03
		c-7.26,0.25-14.55,0.12-21.81,0.05c-5.8-0.05-9.05-2.88-8.93-7.57c0.12-4.47,3.34-7.23,8.8-7.26c8.1-0.07,16.19-0.25,24.29,0.07
		c3.54,0.14,4.49-1.29,4.91-4.38c0.99-7.18,2.16-14.35,3.41-21.49c0.97-5.46,4.14-8.01,8.7-7.39c4.17,0.58,6.66,3.84,6.06,8.66
		c-0.9,7.03-2.01,14.03-3.34,21c-0.58,3,0.28,3.73,3.13,3.55c4.6-0.28,10.22,1.29,13.52-0.83c3.2-2.07,2-8.24,2.93-12.55
		c0.95-4.51,1.43-9.14,2.37-13.65c0.94-4.58,4.31-6.86,8.61-6.13c4.07,0.69,6.63,4.35,5.94,8.82c-1.04,6.68-2.19,13.34-3.41,19.99
		c-0.53,2.88-0.46,4.6,3.39,4.38c6.42-0.35,12.87-0.14,19.32-0.18c0.21,0.11,0.42,0.23,0.62,0.34c0.02,0,0.02,0,0.02,0
		c7.21,4.17,7.32,9.6,0.25,14.56c-0.3,0.25-0.62,0.46-0.94,0.62c0.12-0.21,0.25-0.42,0.37-0.62c-5.74,0.02-11.49,0.05-17.23,0.07
		c-8.68,0.02-8.7,0-10.27,8.8c-0.3,1.63-0.3,3.34-0.87,4.86c-1.68,4.47,0.71,4.7,4.21,4.67c8.02-0.12,16.03,0.04,24.06,0.12
		c-0.09-0.18-0.18-0.35-0.23-0.55c0.3,0.14,0.6,0.32,0.88,0.55C318.45,378.3,318.58,383.46,311.9,387.95z"/>
	<path class="st5" d="M311.9,387.95c-0.11,0.07-0.23,0.16-0.35,0.23c-9.4,0.11-18.81,0.32-28.23,0.23c-3.11-0.02-4.22,0.9-4.63,4.08
		c-0.95,7.53-2.37,14.99-3.75,22.45c-0.92,4.97-4.26,7.44-8.66,6.72c-4.21-0.69-6.72-4.52-5.94-9.28
		c1.03-6.36,1.91-12.74,3.29-19.02c0.9-4.08-0.25-5.39-4.28-4.93c-2.28,0.27-4.68,0.39-6.93-0.02c-5.29-0.95-6.68,1.8-7.21,6.35
		c-0.8,6.54-2.02,13.04-3.09,19.55c-0.88,5.28-4.14,8.01-8.7,7.39c-4.42-0.6-6.82-4.26-6.03-9.67c0.97-6.68,2-13.38,3.39-19.99
		c0.65-3.16-0.41-3.66-3.15-3.59c-5.28,0.14-10.59,0.07-15.87,0.02c-6.33-0.05-9.65-2.6-9.72-7.35c-0.09-4.83,3.2-7.44,9.51-7.49
		c6.27-0.05,12.55-0.07,18.82,0.02c2.28,0.02,3.68-0.34,3.92-3.11c0.32-3.76,1.1-7.51,1.87-11.22c0.6-2.93-0.07-4.14-3.39-4.03
		c-7.26,0.25-14.55,0.12-21.81,0.05c-5.8-0.05-9.05-2.88-8.93-7.57c0.12-4.47,3.34-7.23,8.8-7.26c8.1-0.07,16.19-0.25,24.29,0.07
		c3.54,0.14,4.49-1.29,4.91-4.38c0.99-7.18,2.16-14.35,3.41-21.49c0.97-5.46,4.14-8.01,8.7-7.39c4.17,0.58,6.66,3.84,6.06,8.66
		c-0.9,7.03-2.01,14.03-3.34,21c-0.58,3,0.28,3.73,3.13,3.55c4.6-0.28,10.22,1.29,13.52-0.83c3.2-2.07,2-8.24,2.93-12.55
		c0.95-4.51,1.43-9.14,2.37-13.65c0.94-4.58,4.31-6.86,8.61-6.13c4.07,0.69,6.63,4.35,5.94,8.82c-1.04,6.68-2.19,13.34-3.41,19.99
		c-0.53,2.88-0.46,4.6,3.39,4.38c6.42-0.35,12.87-0.14,19.32-0.18c0.21,0.11,0.42,0.23,0.62,0.34c-0.09,0.09-0.18,0.16-0.28,0.21
		c-0.02,0.02-0.05,0.04-0.07,0.05c-6.7,1.48-13.49,0.71-20.22,0.53c-3.46-0.11-4.37-2.56-3.94-5.59c0.72-5.23,1.54-10.46,2.35-15.68
		c0.27-1.64,0.64-3.27,0.6-4.93c-0.07-3.18-1.52-5.44-4.79-5.97c-3.23-0.51-5.5,0.99-6.43,4.12c-1.7,5.73-2.24,11.67-3.23,17.53
		c-1.82,10.75-1.77,10.75-12.43,10.75c-9.9,0-10.04-0.25-8.5-10.15c0.8-5.06,2.07-10.04,2.16-15.2c0.07-3.31-0.39-6.42-4.49-7.12
		c-3.61-0.6-6.19,1.4-7.11,5.94c-1.31,6.31-2.24,12.69-3.23,19.05c-0.99,6.49-1.98,7.39-8.68,7.46c-6.27,0.07-12.57,0-18.84,0.02
		c-1.64,0.02-3.32-0.05-4.93,0.39c-3.22,0.88-5.3,2.79-5.02,6.36c0.27,3.38,2.51,4.91,5.67,5.09c6.59,0.35,13.2,0.07,19.81,0.16
		c7.32,0.11,8.5,1.48,7.42,8.59c-2,13.13-2,13.13-15.47,13.13c-3.8,0-7.6-0.07-11.4,0.05c-3.34,0.11-5.87,1.29-6.13,5.06
		c-0.25,3.61,1.89,5.44,5.07,6.35c2.58,0.71,5.25,0.51,7.88,0.55c3.31,0.02,6.61-0.14,9.92,0.07c4.58,0.3,5.46,1.36,4.88,5.96
		c-0.65,5.25-1.71,10.43-2.53,15.66c-0.23,1.47-0.55,2.93-0.48,4.42c0.18,3.38,1.71,5.78,5.2,6.24c3.34,0.42,5.34-1.61,6.13-4.6
		c1.36-5.11,1.91-10.39,2.79-15.61c2.1-12.37,2.09-12.39,14.74-12.14c7.09,0.14,7.95,1.2,6.84,8.38
		c-0.83,5.39-1.89,10.75-2.62,16.16c-0.57,4.12,1.18,7.07,4.37,7.74c3.2,0.67,6.1-1.31,7.09-5.37c1.66-6.73,2.35-13.66,3.64-20.49
		c1.08-5.62,1.79-6.26,7.48-6.4c8.1-0.19,16.19,0.23,24.29-0.26c0.99-0.07,2.02-0.09,2.81,0.51
		C311.7,387.78,311.79,387.87,311.9,387.95z"/>
	<path class="st5" d="M298.85,265.39h-1.06c-0.37-0.42-0.69-0.88-1.06-1.33C297.47,264.49,298.18,264.93,298.85,265.39z"/>
	<path class="st5" d="M153.51,318.1c-0.18-0.07-0.35-0.16-0.55-0.26c0.18-0.04,0.34-0.07,0.49-0.11L153.51,318.1z"/>
	<path class="st5" d="M152.96,347.92c0.18-0.04,0.34-0.05,0.49-0.07c-0.09,0.04-0.16,0.07-0.23,0.12
		C153.14,347.96,153.05,347.94,152.96,347.92z"/>
	<path class="st5" d="M312.69,447.71c-0.21,1.33-0.55,2.65-1.01,3.94v-2.4C312,448.72,312.36,448.21,312.69,447.71z"/>
	<linearGradient id="SVGID_4_" gradientUnits="userSpaceOnUse" x1="323.0237" y1="523.6824" x2="466.75" y2="523.6824">
		<stop  offset="0" style="stop-color:#2F3277"/>
		<stop  offset="0.4382" style="stop-color:#454186"/>
		<stop  offset="1" style="stop-color:#2B2F74"/>
	</linearGradient>
	<path class="st6" d="M466.75,511.22h-0.02c-0.18-0.04-0.35-0.05-0.51-0.09c-5.85-0.97-7.25-2.69-7.3-9
		c-0.07-11.52,0.18-23.07-0.14-34.59c-0.32-11.49-8.02-19.12-19.39-19.44c-7.56-0.21-15.13,0.11-22.69,0.19
		c-25.28-0.05-50.55-0.39-75.83-0.02c-10.71,0.16-17.75,8.82-17.78,20.49c-0.09,31.07-0.07,62.15-0.02,93.22
		c0.04,13.66,7.9,21.33,21.67,21.35c16.19,0.04,32.4,0,48.59,0.02c7.32,0.02,9.65,2.42,9.72,9.85c0,1.17-0.14,2.33,0.04,3.46
		c0.14,0.88-0.78,2.09,0.64,2.67c3.52-1.17,6.13-3.78,8.71-6.15c7.85-7.19,16.35-11.08,27.52-10.11
		c9.58,0.85,17.57-7.18,18.61-16.84c0.48-4.56,0.25-9.21,0.35-13.8c0.14-6.08,1.22-7.6,6.86-8.93c0.18-0.05,0.37-0.11,0.57-0.14
		C466.54,532.64,465.78,521.92,466.75,511.22z M426.24,528.95c-0.94,1.54-2.05,2.95-2.58,4.7c-1.8,0.12-2.83,1.68-3.99,2.79
		c-6.86,6.63-14.95,11.4-23.21,15.96c-3.85,2.12-7.44,1.98-11.28-0.11c-6.86-3.71-13.52-7.69-19.51-12.67
		c-7.64-6.36-13.88-13.75-15.61-23.99c-1.86-10.89,0.48-20.63,9.16-27.79c8.84-7.3,18.75-7.39,28.74-2.16
		c2.14,1.11,3.96,1.11,6.06-0.05c8.89-4.98,17.69-4.37,26.32,0.76c1.11,0.65,2.19,1.47,3.54,1.26c0.42,1.1,1.11,2.07,1.82,3
		C435.04,503.3,434.09,516.08,426.24,528.95z"/>
	<path class="st7" d="M311.56,355.27c-0.3,0.25-0.62,0.46-0.94,0.62c0.12-0.21,0.25-0.42,0.37-0.62c4.28-7.35,4.28-7.74,0.02-14.35
		c-0.11-0.18-0.21-0.35-0.34-0.55c0.21,0.11,0.42,0.23,0.62,0.34c0.02,0,0.02,0,0.02,0C318.53,344.88,318.63,350.31,311.56,355.27z"
		/>
	<path class="st7" d="M311.9,387.95c-0.11,0.07-0.23,0.16-0.35,0.23c0-0.16,0.04-0.32,0.07-0.46c0.18-0.65,0.64-1.15,1.06-1.66
		c3.41-4.28,3.38-6.26-0.19-10.27c-0.57-0.65-1.18-1.26-1.59-2c-0.09-0.18-0.18-0.35-0.23-0.55c0.3,0.14,0.6,0.32,0.88,0.55
		C318.45,378.3,318.58,383.46,311.9,387.95z"/>
	<path class="st7" d="M298.85,265.39h-1.06c-0.37-0.42-0.69-0.88-1.06-1.33C297.47,264.49,298.18,264.93,298.85,265.39z"/>
	<path class="st7" d="M312.69,447.71c-0.21,1.33-0.55,2.65-1.01,3.94v-2.4C312,448.72,312.36,448.21,312.69,447.71z"/>
	<path d="M565.66,320.58c-0.02,13.31-7.78,21.28-21.14,21.35c-20.49,0.09-40.97,0.02-61.46,0.02c-6.45,0-12.9,0.12-19.2-1.59
		c-2.85-0.78-5.69-1.64-8.41-2.79c-3.57-1.5-6.93-4.51-10.48,0.25c-0.62,0.83-2.79,0.65-4.26,0.65c-12.39,0.04-24.78,0.05-37.17,0
		c-6.43-0.02-8.89-2.47-8.89-9.03c-0.05-28.92-0.05-57.83,0-86.73c0-6.54,2.44-8.93,9.01-8.96c12.21-0.05,24.44-0.04,36.68,0.02
		c1.61,0,3.75-0.12,4.75,0.8c3.06,2.78,4.6,0.99,6.54-1.29c4.49-5.27,9.01-10.55,13.79-15.59c8.73-9.21,13.73-19.8,14.35-32.7
		c0.57-11.56,11.38-18.38,21.28-14.1c3.62,1.57,6.13,4.33,7.94,7.83c7.76,15.18,9,30.83,3.36,46.96c-0.71,2-1.48,3.96-2.44,6.5
		c12.11,0,23.51-0.02,34.91,0c13.08,0.04,20.84,7.81,20.84,21C565.7,275.63,565.66,298.11,565.66,320.58z"/>
	<path d="M311.54,373.8c-0.28-0.23-0.58-0.41-0.88-0.55c0.05,0.19,0.14,0.37,0.23,0.55c-8.02-0.09-16.03-0.25-24.06-0.12
		c-3.5,0.04-5.89-0.19-4.21-4.67c0.57-1.52,0.57-3.23,0.87-4.86c1.57-8.8,1.59-8.78,10.27-8.8c5.74-0.02,11.49-0.05,17.23-0.07
		c-0.12,0.19-0.25,0.41-0.37,0.62c0.32-0.16,0.64-0.37,0.94-0.62c7.07-4.97,6.96-10.39-0.25-14.56c0,0,0,0-0.02,0
		c-0.19-0.11-0.41-0.23-0.62-0.34c-6.45,0.04-12.9-0.18-19.32,0.18c-3.85,0.21-3.92-1.5-3.39-4.38c1.22-6.65,2.37-13.31,3.41-19.99
		c0.69-4.47-1.87-8.13-5.94-8.82c-4.3-0.72-7.67,1.56-8.61,6.13c-0.94,4.51-1.41,9.14-2.37,13.65c-0.94,4.31,0.27,10.48-2.93,12.55
		c-3.31,2.12-8.93,0.55-13.52,0.83c-2.85,0.18-3.71-0.55-3.13-3.55c1.33-6.96,2.44-13.96,3.34-21c0.6-4.83-1.89-8.08-6.06-8.66
		c-4.56-0.62-7.72,1.93-8.7,7.39c-1.25,7.14-2.42,14.32-3.41,21.49c-0.42,3.09-1.38,4.52-4.91,4.38c-8.1-0.32-16.19-0.14-24.29-0.07
		c-5.46,0.04-8.68,2.79-8.8,7.26c-0.12,4.68,3.13,7.51,8.93,7.57c7.26,0.07,14.55,0.19,21.81-0.05c3.32-0.11,3.99,1.1,3.39,4.03
		c-0.78,3.71-1.56,7.46-1.87,11.22c-0.25,2.77-1.64,3.13-3.92,3.11c-6.27-0.09-12.55-0.07-18.82-0.02c-6.31,0.05-9.6,2.67-9.51,7.49
		c0.07,4.75,3.39,7.3,9.72,7.35c5.28,0.05,10.59,0.12,15.87-0.02c2.74-0.07,3.8,0.42,3.15,3.59c-1.4,6.61-2.42,13.31-3.39,19.99
		c-0.8,5.41,1.61,9.07,6.03,9.67c4.56,0.62,7.81-2.1,8.7-7.39c1.08-6.5,2.3-13.01,3.09-19.55c0.53-4.54,1.93-7.3,7.21-6.35
		c2.24,0.41,4.65,0.28,6.93,0.02c4.03-0.46,5.18,0.85,4.28,4.93c-1.38,6.27-2.26,12.66-3.29,19.02c-0.78,4.75,1.73,8.59,5.94,9.28
		c4.4,0.72,7.74-1.75,8.66-6.72c1.38-7.46,2.79-14.92,3.75-22.45c0.41-3.18,1.52-4.1,4.63-4.08c9.42,0.09,18.82-0.12,28.23-0.23
		c0.12-0.07,0.25-0.16,0.35-0.23C318.58,383.46,318.45,378.3,311.54,373.8z M268.43,363.7c-0.07,0.32-0.16,0.64-0.23,0.97
		c-1.59,8.94-1.59,8.94-10.68,8.94c-8.63,0-8.63,0-7.37-8.43c1.48-9.85,1.48-9.85,11.54-9.85
		C270.01,355.34,270.01,355.34,268.43,363.7z"/>
	<path d="M424.59,533.71c-8.28,8.45-18.05,14.79-28.4,20.36c-2.74,1.48-5.57,2.49-8.46,0.95c-11.09-5.88-22.1-11.94-30.42-21.7
		c-8-9.39-11.02-20.18-8.02-32.27c4.37-17.58,23.41-25.51,39.11-16.45c1.22,0.7,2.11,1.91,3.91,0.76
		c11.21-7.19,21.88-5.23,32.16,2.13c13.48,13.35,10.48,32.33,2.04,43.37C425.82,531.77,425.23,532.76,424.59,533.71z"/>
	<path class="st8" d="M311.54,373.8h-0.65c-0.09-0.18-0.18-0.35-0.23-0.55C310.96,373.39,311.26,373.57,311.54,373.8z"/>
	<path class="st8" d="M311.56,355.27c-0.3,0.25-0.62,0.46-0.94,0.62c0.12-0.21,0.25-0.42,0.37-0.62H311.56z"/>
	<path class="st9" d="M495.07,184.43c5.9,10.86,7.29,21.37,4.38,32.47c-1.64,6.25-4.61,11.98-7.02,17.93
		c-2.98,7.34,0.1,12.06,8.03,12.11c14.54,0.09,29.07,0.06,43.61,0.1c5.8,0.02,6.71,0.88,6.72,6.53c0.02,22.3-0.08,44.61,0.06,66.91
		c0.03,4.67-1.75,6.62-6.38,6.61c-22.63-0.07-45.26,0.01-67.89-0.07c-8.84-0.03-16.82-2.74-23.92-8.15
		c-2.3-1.76-3.32-3.54-3.29-6.54c0.16-16.85,0.14-33.7,0.01-50.55c-0.02-2.72,0.86-4.65,2.6-6.59c8.49-9.47,16.77-19.13,25.34-28.52
		c10.38-11.39,16.74-24.4,17.1-40.02C494.42,186.24,494.65,185.82,495.07,184.43z"/>
	<path class="st9" d="M434.56,286.75c0,10.9-0.16,21.8,0.09,32.69c0.08,3.6-1.07,4.41-4.43,4.25c-5.76-0.28-11.55-0.18-17.33-0.03
		c-2.47,0.06-3.45-0.51-3.44-3.24c0.1-22.78,0.09-45.56,0.02-68.35c-0.01-2.39,0.39-3.6,3.2-3.52c6.27,0.19,12.55,0.21,18.81-0.01
		c2.89-0.1,3.13,1.25,3.11,3.54C434.52,263.64,434.56,275.2,434.56,286.75z"/>
	<linearGradient id="SVGID_5_" gradientUnits="userSpaceOnUse" x1="249.5601" y1="364.4818" x2="269.243" y2="364.4818">
		<stop  offset="0" style="stop-color:#EF5E2D"/>
		<stop  offset="0.4885" style="stop-color:#EF782D"/>
		<stop  offset="1" style="stop-color:#EF612D"/>
	</linearGradient>
	<path class="st10" d="M268.43,363.7c-0.07,0.32-0.16,0.64-0.23,0.97c-1.59,8.94-1.59,8.94-10.68,8.94c-8.63,0-8.63,0-7.37-8.43
		c1.48-9.85,1.48-9.85,11.54-9.85C270.01,355.34,270.01,355.34,268.43,363.7z"/>
	<path class="st9" d="M418.74,509.71c0.02,7.55-3.88,13.11-9.23,17.85c-4.96,4.39-10.57,7.85-16.3,11.13
		c-1.35,0.77-2.41,1.2-4.04,0.26c-7.15-4.14-14.27-8.32-19.9-14.48c-5.35-5.84-7.67-12.64-5.28-20.5c1.35-4.45,4.34-7.31,9.03-8.12
		c4.76-0.81,8.23,1.06,10.94,5c4.04,5.87,9.44,6.27,13.24,1.18c4.44-5.94,7.89-7.39,13.19-5.57
		C415.72,498.3,418.74,503.1,418.74,509.71z"/>
</g>
</svg>
