<?xml version="1.0" encoding="utf-8"?>
<!-- Generator: Adobe Illustrator 24.1.0, SVG Export Plug-In . SVG Version: 6.00 Build 0)  -->
<svg version="1.1" id="Capa_1" xmlns="http://www.w3.org/2000/svg" xmlns:xlink="http://www.w3.org/1999/xlink" x="0px" y="0px"
	 viewBox="0 0 768 768" style="enable-background:new 0 0 768 768;" xml:space="preserve">
<style type="text/css">
	.st0{fill:#FFFFFF;}
	.st1{fill:#FEFEFE;}
	.st2{fill:url(#SVGID_1_);}
	.st3{fill:url(#SVGID_2_);}
	.st4{fill:url(#SVGID_3_);}
	.st5{fill:#4ED4E9;}
	.st6{fill:url(#SVGID_4_);}
	.st7{fill:#62A5FC;}
	.st8{fill:#4DD3E8;}
	.st9{fill:#FAFAFA;}
	.st10{fill:url(#SVGID_5_);}
	.st11{fill:url(#SVGID_6_);}
	.st12{fill:url(#SVGID_7_);}
	.st13{fill:url(#SVGID_8_);}
	.st14{fill:url(#SVGID_9_);}
	.st15{fill:url(#SVGID_10_);}
	.st16{fill:url(#SVGID_11_);}
	.st17{fill:url(#SVGID_12_);}
	.st18{fill:url(#SVGID_13_);}
	.st19{fill:url(#SVGID_14_);}
	.st20{fill:url(#SVGID_15_);}
	.st21{fill:url(#SVGID_16_);}
	.st22{fill:url(#SVGID_17_);}
	.st23{fill:url(#SVGID_18_);}
	.st24{fill:#F7F7F7;}
	.st25{fill:url(#SVGID_19_);}
	.st26{fill:#DCE9FA;}
	.st27{fill:#698DD4;}
	.st28{fill:url(#SVGID_20_);}
	.st29{fill:#CAE1FE;}
	.st30{fill:url(#SVGID_21_);}
	.st31{fill:url(#SVGID_22_);}
	.st32{fill:url(#SVGID_23_);}
	.st33{fill:url(#SVGID_24_);}
	.st34{fill:none;stroke:#000000;stroke-width:4;stroke-linecap:round;stroke-linejoin:round;stroke-miterlimit:10;}
	.st35{fill:url(#SVGID_25_);}
	.st36{fill:url(#SVGID_26_);}
	.st37{fill:url(#SVGID_27_);}
	.st38{fill:none;stroke:#000000;stroke-width:4;stroke-miterlimit:10;}
	.st39{fill:url(#SVGID_28_);}
	.st40{fill:url(#SVGID_29_);}
	.st41{fill:url(#SVGID_30_);}
	.st42{fill:url(#SVGID_31_);}
	.st43{fill:url(#SVGID_32_);}
	.st44{fill:#FEFFFF;}
	.st45{fill:url(#SVGID_33_);}
	.st46{fill:none;stroke:#000000;stroke-width:3;stroke-linecap:round;stroke-linejoin:round;stroke-miterlimit:10;}
	.st47{fill:url(#SVGID_34_);}
	.st48{fill:url(#SVGID_35_);}
	.st49{fill:url(#SVGID_36_);}
	.st50{fill:url(#SVGID_37_);}
	.st51{fill:url(#SVGID_38_);}
	.st52{fill:url(#SVGID_39_);}
	.st53{fill:url(#SVGID_40_);}
	.st54{fill:url(#SVGID_41_);}
	.st55{fill:url(#SVGID_42_);}
	.st56{fill:url(#SVGID_43_);}
	.st57{fill:url(#SVGID_44_);}
	.st58{fill:url(#SVGID_45_);}
	.st59{fill:url(#SVGID_46_);}
	.st60{fill:url(#SVGID_47_);}
	.st61{fill:url(#SVGID_48_);}
	.st62{fill:url(#SVGID_49_);}
	.st63{fill:url(#SVGID_50_);}
	.st64{fill:url(#SVGID_51_);}
	.st65{fill:url(#SVGID_52_);}
	.st66{fill:url(#SVGID_53_);}
	.st67{fill:url(#SVGID_54_);}
	.st68{fill:url(#SVGID_55_);}
	.st69{fill:url(#SVGID_56_);}
	.st70{fill:url(#SVGID_57_);}
	.st71{fill:url(#SVGID_58_);}
	.st72{fill:url(#SVGID_59_);}
	.st73{fill:url(#SVGID_60_);}
	.st74{fill:url(#SVGID_61_);}
	.st75{fill:url(#SVGID_62_);}
	.st76{fill:url(#SVGID_63_);}
	.st77{fill:url(#SVGID_64_);}
	.st78{fill:url(#SVGID_65_);}
	.st79{fill:url(#SVGID_66_);}
	.st80{fill:url(#SVGID_67_);}
	.st81{fill:url(#SVGID_68_);}
</style>
<g>
	<path class="st27" d="M575.84,129.45c-0.04,0.18-0.09,0.35-0.12,0.53c0.07,0.04,0.14,0.05,0.21,0.07
		C575.91,129.85,575.88,129.66,575.84,129.45z M598.74,129.43c0,0.05-0.02,0.11-0.02,0.14c0-0.02,0.02-0.04,0.04-0.05
		C598.76,129.48,598.74,129.46,598.74,129.43z"/>
	<path class="st29" d="M552.39,568.66c-0.02,0.02-0.02,0.02-0.02,0.04c0-0.02,0-0.02,0-0.04H552.39z"/>
	<g>
		<path class="st1" d="M527.98,571c-2.04,5.23-6.19,6.26-11.3,6.24c-28.42-0.11-56.83-0.05-85.26-0.05h-5.78
			c5.89,12.95,5.36,15.66-4.74,25.77c-4.54,4.56-9.01,9.17-13.66,13.6c-7.17,6.85-15.02,6.86-22.19-0.12
			c-8.9-8.69-17.74-17.49-26.39-26.45c-2.34-2.45-3.58-2.27-5.85,0.07c-8.39,8.67-16.96,17.17-25.56,25.65
			c-8.51,8.37-19.35,6.05-23.64-5.09c-3.62-9.4-7.27-18.82-10.46-28.38c-1.33-3.99-3.26-5.18-7.43-5.16
			c-51.01,0.16-102.01,0.14-153,0.09c-22.9-0.04-39.91-12.1-45.9-32.34c-1.33-4.51-1.86-9.12-1.86-13.82
			c0.04-61.71,0.05-123.42-0.04-185.13c-0.02-4.97,1.33-8.74,5.91-11.01c0.66-0.02,1.29-0.02,1.88,0c-0.16,0.3-0.34,0.59-0.51,0.89
			c-0.09,0.05-0.16,0.12-0.25,0.19c-0.02,0.02-0.02,0.02-0.02,0c-4.08,3.14-5.34,7.31-5.34,12.51c0.12,60.75,0.04,121.5,0.11,182.25
			c0.04,26.13,18.5,44.47,44.57,44.49c49.86,0.02,99.7,0,149.54,0c10.82,0,11.51,0.48,15.36,10.54c2.77,7.27,5.39,14.6,8.19,21.87
			c4.86,12.52,13.75,14.54,23.2,5.23c7.08-6.95,14.03-14.07,21.09-21.04c6.23-6.15,7.33-6.14,13.71,0.16
			c6.65,6.56,13.21,13.21,19.85,19.81c2.34,2.34,4.77,4.59,7.75,6.14c5.11,2.64,10.45,2.23,14.63-1.67
			c6.7-6.24,13.2-12.7,19.39-19.42c3.58-3.9,4.56-8.34,2.5-13.5c-2.86-7.13-2.23-8.05,5.43-8.09c27.65-0.09,55.29-0.07,82.94,0
			c4.93,0.02,9.29-0.69,12.08-5.27c0.02-0.02,0.02-0.04,0.04-0.05c0.3-0.35,0.62-0.67,0.98-0.98
			C527.97,569.6,527.98,570.28,527.98,571z"/>
		<path class="st1" d="M575.93,130.05c-0.07-0.02-0.14-0.04-0.21-0.07c-0.11-0.02-0.23-0.05-0.34-0.09
			c-3.49-5.53-8.57-6.9-14.93-6.88c-143.05,0.12-286.11,0.09-429.16,0.11c-26.09,0.02-44.43,18.36-44.47,44.56
			c-0.07,43.21,0.05,86.42-0.11,129.63c-0.02,6.3,1.22,11.53,6.78,15.08c0.04,0.14,0.07,0.28,0.09,0.43
			c0.02,0.05,0.04,0.11,0.04,0.16c-0.14,0-0.3-0.04-0.46-0.05c-5.98-1.54-8.28-5.36-8.27-11.55c0.14-44.75,0.02-89.5,0.09-134.25
			c0.05-26.85,19.37-45.99,46.61-46.03c85.42-0.07,170.83-0.02,256.25-0.02c58.76,0,117.51-0.02,176.28,0
			c7.89,0,9.79,1.4,11.72,8.37v0.02C575.88,129.66,575.91,129.85,575.93,130.05z"/>
		<path class="st1" d="M683.12,541.84c-2.11,1.01-1.77,3.23-2.38,4.93c-6.07,17.6-22.08,29.91-40.78,30.21
			c-25.81,0.41-51.62,0.21-77.42,0.16c-6.08,0-9.31-2.89-10.16-8.44c0-0.02,0-0.02,0-0.04h0.02c3.97,5.69,9.7,6.79,16.55,6.69
			c22.92-0.34,45.85-0.11,68.77-0.14c19.03-0.02,33.93-10.29,40.94-28.03C679.53,544.96,679.8,542.07,683.12,541.84z"/>
		<path class="st1" d="M683.12,157.47c-3.1-0.27-3.14-3.03-3.88-5.04c-7.25-19.4-21.87-29.57-42.75-29.59
			c-6.21,0-12.43,0.32-18.62-0.07c-7.54-0.48-14.46,0.05-19.1,6.74c-0.02,0.02-0.04,0.04-0.04,0.05c0-0.04,0.02-0.09,0.02-0.14
			c0.92-6.07,4.58-8.51,10.57-8.43c9.52,0.16,19.07-0.07,28.61,0.07c21.32,0.32,37.87,13.07,43.83,33.59
			C682.03,155.66,681.45,157.13,683.12,157.47z"/>
		<path d="M683.12,157.47v384.37c-2.11,1.01-1.77,3.23-2.38,4.93c-6.07,17.6-22.08,29.91-40.78,30.21
			c-25.81,0.41-51.62,0.21-77.42,0.16c-6.08,0-9.31-2.89-10.16-8.44c0-0.02,0-0.02,0-0.04h0.02c2.32-7.43,4.33-8.98,12.04-8.99
			c24.14-0.02,48.3,0.09,72.44-0.05c17.45-0.09,28.7-11.55,28.72-29.04c0.02-95.61-0.04-191.21,0.12-286.8
			c0-4.72-1.37-5.64-5.8-5.64c-183.99,0.11-367.98,0.07-551.96,0.14c-1.7,0-3.85-1.22-5.21,0.98c-0.09,20.7-0.16,41.4-0.27,62.1
			c-0.04,7.38-1.74,9.6-8.9,11.44c0.02,0.05,0.04,0.11,0.04,0.16c-0.14,0-0.3-0.04-0.46-0.05c-5.98-1.54-8.28-5.36-8.27-11.55
			c0.14-44.75,0.02-89.5,0.09-134.25c0.05-26.85,19.37-45.99,46.61-46.03c85.42-0.07,170.83-0.02,256.25-0.02
			c58.76,0,117.51-0.02,176.28,0c7.89,0,9.79,1.4,11.72,8.37v0.02c0.04,0.21,0.07,0.41,0.09,0.6c-0.07-0.02-0.14-0.04-0.21-0.07
			c-1.6,6.99-4.06,8.6-12.82,8.6c-143.48,0-286.94,0-430.4,0.02c-19.03,0-29.99,11.07-30.01,30.08c0,15.01,0.34,29.99-0.16,44.96
			c-0.21,6.05,1.58,7.2,7.33,7.2c166.24-0.18,332.47-0.14,498.71-0.14c2.32,0,4.66-0.16,6.99-0.23c15.54,0.07,31.08,0.05,46.6,0.28
			c3.37,0.05,3.71-1.51,3.69-4.24c-0.07-17.28,0.18-34.57-0.12-51.86c-0.23-13.92-11.87-25.54-25.7-25.95
			c-8.14-0.25-16.3,0.07-24.46,0.14c-1.9-0.09-3.8-0.2-5.71-0.27c-6.92-0.2-9.45-2.29-10.87-9.06c-0.02,0.02-0.04,0.04-0.04,0.05
			c0-0.04,0.02-0.09,0.02-0.14c0.92-6.07,4.58-8.51,10.57-8.43c9.52,0.16,19.07-0.07,28.61,0.07c21.32,0.32,37.87,13.07,43.83,33.59
			C682.03,155.66,681.45,157.13,683.12,157.47z"/>
		<linearGradient id="SVGID_1_" gradientUnits="userSpaceOnUse" x1="90.8082" y1="404.4728" x2="665.7158" y2="404.4728">
			<stop  offset="0" style="stop-color:#EF5E2D"/>
			<stop  offset="0.4885" style="stop-color:#EF782D"/>
			<stop  offset="1" style="stop-color:#EF612D"/>
		</linearGradient>
		<path class="st2" d="M659.92,238.14c-183.99,0.11-367.98,0.07-551.96,0.14c-1.7,0-3.85-1.22-5.21,0.98
			c-0.09,20.7-0.16,41.4-0.27,62.1c-0.04,7.38-1.74,9.6-8.9,11.44c0.02,0.05,0.04,0.11,0.04,0.16c-0.14,0-0.3-0.04-0.46-0.05
			c0,5.53-0.11,11.07,0.07,16.58c0.07,2.32-0.59,4.04-2.41,5.39c0.66-0.02,1.29-0.02,1.88,0c7.47,0.14,9.79,3.07,9.79,11.64
			c0,52.08,0,104.15,0.02,156.21c0,2.13,0.11,4.27,0.18,6.4c0.25,0.3,0.44,0.62,0.6,0.94c-0.2-0.11-0.41-0.21-0.6-0.35
			c-0.07,6.62-0.18,13.21-0.18,19.83c0,19,10.98,30.08,30.01,30.1c48.85,0.05,97.7,0.02,146.55,0.02c0.78,0,1.56-0.07,2.32,0
			c2.48,0.25,3.05-0.71,2.18-3c-6.12-16-12.19-31.98-18.27-47.98c-0.09,0.16-0.19,0.3-0.3,0.44c-0.04-0.44-0.05-0.87-0.04-1.31
			c-5.94-16.39-11.94-32.74-17.81-49.13c-3.32-9.24,0.48-17.36,9.06-20.15c3.57-1.15,6.92-0.59,10.23,0.64
			c50.66,18.84,101.32,37.71,151.99,56.51c3.6,1.33,6.3,3.65,8.69,6.47c0.69,0.94,1.61,1.83,2.02,2.86
			c0.28,0.73,0.32,1.51-0.18,2.45c-0.02,0.04-0.04,0.09-0.09,0.16c-0.02,0.07-0.05,0.12-0.11,0.18c-0.04,0.07-0.07,0.14-0.11,0.21
			c0,0.02,0,0.04-0.02,0.04c-0.04,4.74-2.04,8.48-5.41,11.76c-8.48,8.3-16.74,16.83-25.26,25.12c-2.27,2.22-2.34,3.33-0.19,5.94
			c5.45,6.6,11.62,9.21,20.52,9.05c32.69-0.62,65.38-0.27,98.09-0.25c8.14,0.02,11.12,2.29,11.53,9.28
			c0.04,0.66,0.05,1.33,0.05,2.06c1.31-1.92,3.12-2.39,5.41-2.34c6.33,0.14,12.65,0.05,18.98,0.04c0-0.02,0-0.02,0-0.04h0.02
			c2.32-7.43,4.33-8.98,12.04-8.99c24.14-0.02,48.3,0.09,72.44-0.05c17.45-0.09,28.7-11.55,28.72-29.04
			c0.02-95.61-0.04-191.21,0.12-286.8C665.72,239.06,664.35,238.14,659.92,238.14z M288.3,343.15
			c-9.33,26.75-18.73,53.48-28.06,80.23c-1.53,4.38-3.8,7.72-8.98,7.68c-5.11-0.04-7.41-3.19-8.92-7.68
			c-6.01-17.83-12.17-35.62-18.29-53.41c-0.5-1.45-1.08-2.89-1.92-5.07c-6.92,19.3-13.59,37.92-20.24,56.53
			c-0.12,0.37-0.2,0.76-0.32,1.14c-1.54,4.68-3.73,8.67-9.58,8.5c-5.5-0.16-7.45-3.96-8.98-8.46c-5.73-16.92-11.58-33.77-17.4-50.66
			c-3.09-8.99-6.21-17.97-9.28-26.96c-2.61-7.61-1.28-12.49,3.87-14.44c5.69-2.16,9.84,0.62,12.58,8.5
			c5.76,16.69,11.53,33.4,17.29,50.07c0.6,1.74,1.31,3.44,2.45,6.42c6.1-17.1,11.76-32.9,17.4-48.71c1.24-3.48,2.48-6.95,3.65-10.45
			c1.42-4.29,4.04-7.15,8.82-7.1c4.68,0.04,7.27,2.73,8.74,7.11c6.07,18.02,12.29,35.99,18.47,53.98c0.44,1.28,0.94,2.54,1.81,4.86
			c3.12-8.76,5.92-16.6,8.69-24.48c3.94-11.16,7.79-22.35,11.76-33.51c2.25-6.28,6.85-8.8,12.04-6.79
			C288.65,332.26,290.41,337.1,288.3,343.15z M450.97,341.21c-3.41,10.32-7.1,20.54-10.7,30.79c-5.87,16.85-11.81,33.68-17.63,50.55
			c-1.61,4.74-3.74,8.62-9.56,8.5c-5.53-0.11-7.49-4.03-8.99-8.48c-6.39-18.91-12.82-37.8-19.33-56.94c-2.57,2.7-2.94,6.1-4.04,9.13
			c-5.92,16.21-11.72,32.48-17.44,48.76c-1.56,4.49-3.96,7.56-9.06,7.52c-4.88-0.04-7.24-3.1-8.67-7.29
			c-9.19-26.78-18.41-53.57-27.62-80.35c-1.33-3.87-1.7-7.61,1.45-10.87c2.41-2.48,5.39-2.96,8.6-2.22c4.2,0.99,5.6,4.47,6.83,8.02
			c6.42,18.71,12.81,37.44,19.35,56.56c2.86-3.99,3.69-8.41,5.2-12.51c5.53-15.13,10.96-30.28,16.21-45.5
			c1.56-4.52,3.99-7.64,9.01-7.63c5.04,0.02,7.41,3.21,8.92,7.72c5.98,17.84,12.15,35.62,18.27,53.43c0.43,1.24,0.35,2.75,2.22,3.8
			c6.4-18.27,12.75-36.4,19.12-54.53c0.51-1.45,0.92-2.98,1.58-4.38c2.11-4.54,6.6-6.49,11.09-4.93
			C450.1,331.88,452.55,336.46,450.97,341.21z M609.72,343.25c0.09,0.11,0.16,0.2,0.23,0.3c-0.12,0-0.23,0-0.34,0.02
			c-9.03,25.88-18.06,51.72-27.03,77.6c-1.06,3.1-2.36,6.01-4.65,8.39c-0.66,0.39-1.33,0.69-1.99,0.92
			c-2.52,0.85-5.04,0.53-7.57-0.41c-0.02,0-0.02-0.02-0.02-0.02c-0.3-0.11-0.6-0.23-0.9-0.35v-0.02c-0.3-0.28-0.57-0.57-0.8-0.89
			c-1.38-1.72-2.08-3.81-2.98-5.8c-0.25-0.57-0.53-1.12-0.83-1.63c-2.36-6.95-4.74-13.92-7.09-20.88c-0.14-0.53-0.3-1.05-0.44-1.58
			c-2.31-8.07-4.93-16.02-8.12-23.77c0-0.02,0-0.02,0-0.02c-0.23-0.57-0.46-1.12-0.69-1.67c0.18-0.39,0.11-0.73-0.21-1.01
			c-0.11-0.27-0.21-0.5-0.3-0.69c0.05,0.02,0.12,0.05,0.18,0.09c-0.43-2.16-0.83-4.35-2.77-6.14c-0.69,2.09-1.31,3.99-1.95,5.91
			c-0.07,0.21-0.14,0.44-0.21,0.66c-1.01,1.83-2.2,3.62-1.84,5.87c-0.32,0.57-0.6,1.14-0.87,1.72c-1.42,2.98-2.39,6.12-3.28,9.29
			c-0.07,0.27-0.16,0.55-0.23,0.82c-1.31,1.24-1.67,2.8-1.45,4.54c-0.32,0.57-0.6,1.15-0.89,1.76c-1.4,2.96-2.38,6.08-3.26,9.24
			c-0.07,0.27-0.16,0.55-0.23,0.82c-1.31,1.26-1.67,2.82-1.45,4.56c-0.32,0.57-0.6,1.15-0.89,1.76c-1.4,2.94-2.36,6.05-3.25,9.17
			c-0.09,0.28-0.16,0.59-0.25,0.87c-1.21,1.17-1.67,2.63-1.56,4.29c-0.44,0.41-0.87,0.82-1.31,1.22c-1.42,1.31-2.91,2.52-4.95,2.82
			c0.09,0.09,0.18,0.18,0.27,0.27c-0.27-0.05-0.57-0.12-0.87-0.23c-5.55,0.21-8.39-2.8-10.08-7.8
			c-9.05-26.64-18.25-53.23-27.35-79.85c-2.18-6.4-0.28-11.37,4.75-12.98c5.32-1.72,9.47,0.82,11.76,7.38
			c6.17,17.77,12.29,35.56,18.45,53.35c0.32,0.9,0.69,1.79,1.33,3.37c0.12,0.02,0.25,0.04,0.37,0.04c0.12,0,0.23,0,0.34-0.02
			c5.41-15.08,10.47-29.2,15.52-43.3c1.63-4.56,3.32-9.12,4.81-13.73c1.47-4.58,3.74-8.21,9.17-8.25c5.45-0.02,7.7,3.6,9.24,8.18
			c6.37,18.94,12.82,37.85,19.28,56.83c2.29-1.24,2.23-3.65,2.89-5.52c5.96-16.62,11.88-33.26,17.51-50
			c1.61-4.86,4.03-8.27,9.17-9.35c1.33-0.2,2.57-0.2,3.71,0.02c2.32,0.44,4.15,1.81,5.25,4.47
			C612.38,337.17,613.28,340.57,609.72,343.25z"/>
		<path class="st26" d="M288.3,343.15c-9.33,26.75-18.73,53.48-28.06,80.23c-1.53,4.38-3.8,7.72-8.98,7.68
			c-5.11-0.04-7.41-3.19-8.92-7.68c-6.01-17.83-12.17-35.62-18.29-53.41c-0.5-1.45-1.08-2.89-1.92-5.07
			c-6.92,19.3-13.59,37.92-20.24,56.53c-0.12,0.37-0.2,0.76-0.32,1.14c-1.54,4.68-3.73,8.67-9.58,8.5c-5.5-0.16-7.45-3.96-8.98-8.46
			c-5.73-16.92-11.58-33.77-17.4-50.66c-3.09-8.99-6.21-17.97-9.28-26.96c-2.61-7.61-1.28-12.49,3.87-14.44
			c5.69-2.16,9.84,0.62,12.58,8.5c5.76,16.69,11.53,33.4,17.29,50.07c0.6,1.74,1.31,3.44,2.45,6.42c6.1-17.1,11.76-32.9,17.4-48.71
			c1.24-3.48,2.48-6.95,3.65-10.45c1.42-4.29,4.04-7.15,8.82-7.1c4.68,0.04,7.27,2.73,8.74,7.11c6.07,18.02,12.29,35.99,18.47,53.98
			c0.44,1.28,0.94,2.54,1.81,4.86c3.12-8.76,5.92-16.6,8.69-24.48c3.94-11.16,7.79-22.35,11.76-33.51c2.25-6.28,6.85-8.8,12.04-6.79
			C288.65,332.26,290.41,337.1,288.3,343.15z"/>
		<path class="st26" d="M450.97,341.21c-3.41,10.32-7.1,20.54-10.7,30.79c-5.87,16.85-11.81,33.68-17.63,50.55
			c-1.61,4.74-3.74,8.62-9.56,8.5c-5.53-0.11-7.49-4.03-8.99-8.48c-6.39-18.91-12.82-37.8-19.33-56.94c-2.57,2.7-2.94,6.1-4.04,9.13
			c-5.92,16.21-11.72,32.48-17.44,48.76c-1.56,4.49-3.96,7.56-9.06,7.52c-4.88-0.04-7.24-3.1-8.67-7.29
			c-9.19-26.78-18.41-53.57-27.62-80.35c-1.33-3.87-1.7-7.61,1.45-10.87c2.41-2.48,5.39-2.96,8.6-2.22c4.2,0.99,5.6,4.47,6.83,8.02
			c6.42,18.71,12.81,37.44,19.35,56.56c2.86-3.99,3.69-8.41,5.2-12.51c5.53-15.13,10.96-30.28,16.21-45.5
			c1.56-4.52,3.99-7.64,9.01-7.63c5.04,0.02,7.41,3.21,8.92,7.72c5.98,17.84,12.15,35.62,18.27,53.43c0.43,1.24,0.35,2.75,2.22,3.8
			c6.4-18.27,12.75-36.4,19.12-54.53c0.51-1.45,0.92-2.98,1.58-4.38c2.11-4.54,6.6-6.49,11.09-4.93
			C450.1,331.88,452.55,336.46,450.97,341.21z"/>
		<path class="st26" d="M515.76,431.28c-0.27-0.05-0.57-0.12-0.87-0.23c-5.55,0.21-8.39-2.8-10.08-7.8
			c-9.05-26.64-18.25-53.23-27.35-79.85c-2.18-6.4-0.28-11.37,4.75-12.98c5.32-1.72,9.47,0.82,11.76,7.38
			c6.17,17.77,12.29,35.56,18.45,53.35c0.32,0.9,0.69,1.79,1.33,3.37c-1.72-0.23-2.45-2.02-3-3.57c-3.03-8.83-6.15-17.63-9.26-26.43
			c-2.71-7.7-5.18-15.5-7.77-23.24c-0.74-2.22-1.44-4.47-3-6.28c-2.47-2.82-5.5-3.76-8.9-2.15c-3.26,1.54-4.26,4.47-3.51,7.86
			c1.42,6.47,4.36,12.47,6.39,18.75c6.55,20.38,14.17,40.39,20.66,60.77c1.49,4.7,3.73,8.57,8.96,9.76c0.43,0.25,0.8,0.64,1.17,1.03
			C515.59,431.11,515.67,431.2,515.76,431.28z"/>
		<path class="st26" d="M523.57,421.81c-0.09,0.28-0.16,0.59-0.25,0.87c-1.21,1.17-1.67,2.63-1.56,4.29
			c-0.44,0.41-0.87,0.82-1.31,1.22c0-0.46,0.02-0.94,0.09-1.38c0.14-1.76,0.66-3.33,2.02-4.54
			C522.93,422.13,523.27,421.97,523.57,421.81z"/>
		<path class="st26" d="M529.16,406.33c-1.31,1.26-1.67,2.82-1.45,4.56c-0.32,0.57-0.6,1.15-0.89,1.76
			c-0.11-0.64-0.25-1.3-0.37-1.93c0-1.83,0.5-3.44,1.88-4.72c0.39-0.14,0.75-0.32,1.06-0.48
			C529.31,405.78,529.23,406.06,529.16,406.33z"/>
		<path class="st26" d="M534.99,389.97c-1.31,1.24-1.67,2.8-1.45,4.54c-0.32,0.57-0.6,1.15-0.89,1.76
			c-0.11-0.64-0.23-1.28-0.37-1.92c0-1.83,0.5-3.46,1.88-4.72c0.39-0.16,0.74-0.32,1.06-0.48
			C535.15,389.42,535.06,389.71,534.99,389.97z"/>
		<path class="st26" d="M541.22,372.27c-1.01,1.83-2.2,3.62-1.84,5.87c-0.32,0.57-0.6,1.14-0.87,1.72
			c-0.12-0.67-0.25-1.37-0.39-2.04c0.14-2.59,0.82-4.9,3.32-6.21C541.36,371.83,541.29,372.06,541.22,372.27z"/>
		<path class="st26" d="M547.25,373.3c-0.04,0.62-0.07,1.22-0.07,1.83c-0.23-0.57-0.46-1.12-0.69-1.67
			c0.18-0.39,0.11-0.73-0.21-1.01c-0.11-0.27-0.21-0.5-0.3-0.69c0.05,0.02,0.12,0.05,0.18,0.09h0.02
			C546.68,372.2,547.03,372.7,547.25,373.3z"/>
		<path class="st26" d="M563.67,423c-0.25-0.57-0.53-1.12-0.83-1.63c-2.36-6.95-4.74-13.92-7.09-20.88
			c-0.14-0.53-0.3-1.05-0.44-1.58c0.34,0.43,0.69,0.85,1.06,1.26c3.42,6.51,5.16,13.6,7.36,20.54
			C563.85,421.42,563.78,422.2,563.67,423z"/>
		<path class="st26" d="M567.45,429.71v-0.02c-0.3-0.28-0.57-0.57-0.8-0.89c0.11,0.02,0.21,0.04,0.32,0.05
			c0.46,0.25,0.87,0.6,1.22,1.03c0.05,0.07,0.11,0.12,0.16,0.18C568.05,429.95,567.75,429.83,567.45,429.71z"/>
		<path class="st26" d="M609.61,343.57c-9.03,25.88-18.06,51.72-27.03,77.6c-1.06,3.1-2.36,6.01-4.65,8.39
			c-0.66,0.39-1.33,0.69-1.99,0.92c0.41-0.57,0.83-1.24,1.28-2.02c4.67-6.88,6.42-14.99,9.08-22.63
			c6.62-18.87,13.37-37.69,19.88-56.62C606.86,347.21,606.7,343.98,609.61,343.57z"/>
		<path class="st26" d="M93.61,312.96c-0.14,0-0.3-0.04-0.46-0.05c0.14-0.04,0.28-0.07,0.43-0.11
			C93.59,312.85,93.61,312.9,93.61,312.96z"/>
		<path class="st26" d="M103.28,510.07c-0.2-0.11-0.41-0.21-0.6-0.35c-0.07-0.02-0.12-0.07-0.19-0.11
			c-2.59-3.19-1.83-7.02-1.83-10.64c-0.05-48.57-0.04-97.15-0.04-145.71c0-2.32-0.04-4.66-0.05-6.99c-0.04-4.56-1.72-7.89-6.35-9.29
			c-0.8-0.25-1.6-0.53-2.29-1.01c-0.02,0.02-0.02,0.02-0.02,0c-0.43-0.28-0.8-0.64-1.1-1.08c0.66-0.02,1.29-0.02,1.88,0
			c7.47,0.14,9.79,3.07,9.79,11.64c0,52.08,0,104.15,0.02,156.21c0,2.13,0.11,4.27,0.18,6.4
			C102.92,509.44,103.12,509.76,103.28,510.07z"/>
		<path class="st26" d="M605.76,329.42c-0.37,0.11-0.76,0.21-1.19,0.32c-0.25,0.09-0.5,0.18-0.73,0.28c-6,2.29-8.9,6.99-10.93,13.13
			c-5.09,15.5-10.77,30.83-16.07,46.28c-0.2,0.57-0.37,1.12-0.62,1.65c-0.73,1.58-1.33,3.55-3.44,3.46
			c-1.83-0.09-2.25-1.99-2.73-3.41c-2.06-6.07-4.49-12.01-6.55-18.09c-3.53-10.52-7.02-21.04-10.54-31.56
			c-0.73-2.22-1.38-4.47-2.59-6.49c-3.25-5.41-9.54-5.46-12.56,0.07c-2.43,4.45-3.88,9.35-5.52,14.12
			c-4.56,13.25-9.54,26.32-14.03,39.59c-0.25,0.75-0.48,1.49-0.82,2.2c-0.69,1.45-1.21,3.37-3,3.57
			c5.41-15.08,10.47-29.2,15.52-43.3c1.63-4.56,3.32-9.12,4.81-13.73c1.47-4.58,3.74-8.21,9.17-8.25c5.45-0.02,7.7,3.6,9.24,8.18
			c6.37,18.94,12.82,37.85,19.28,56.83c2.29-1.24,2.23-3.65,2.89-5.52c5.96-16.62,11.88-33.26,17.51-50
			c1.61-4.86,4.03-8.27,9.17-9.35C603.39,329.21,604.63,329.21,605.76,329.42z"/>
		<path class="st27" d="M175.29,180.02c-0.18,8.85-7.41,15.96-16.14,15.86c-8.98-0.11-16.12-7.54-15.95-16.66
			c0.16-8.78,7.4-15.88,16.14-15.82C168.41,163.47,175.47,170.83,175.29,180.02z"/>
		<path class="st27" d="M225.26,179.68c-0.02,8.98-7.38,16.28-16.28,16.19c-8.6-0.09-15.82-7.33-15.98-16
			c-0.16-8.89,7.2-16.42,16.09-16.48C217.99,163.36,225.26,170.69,225.26,179.68z"/>
		<path class="st27" d="M275.31,179.55c0.05,8.85-7.43,16.35-16.28,16.34c-8.59-0.04-15.95-7.25-16.18-15.89
			c-0.25-8.76,7.2-16.48,16.03-16.58C267.78,163.29,275.28,170.65,275.31,179.55z"/>
		<linearGradient id="SVGID_2_" gradientUnits="userSpaceOnUse" x1="102.3032" y1="175.1372" x2="665.6566" y2="175.1372">
			<stop  offset="0" style="stop-color:#2F3277"/>
			<stop  offset="0.4382" style="stop-color:#454186"/>
			<stop  offset="1" style="stop-color:#2B2F74"/>
		</linearGradient>
		<path class="st3" d="M665.5,164.65c-0.23-13.92-11.87-25.54-25.7-25.95c-8.14-0.25-16.3,0.07-24.46,0.14
			c-1.9-0.09-3.8-0.2-5.71-0.27c-6.92-0.2-9.45-2.29-10.87-9.06c-0.02,0.02-0.04,0.04-0.04,0.05c0-0.04,0.02-0.09,0.02-0.14h-22.9
			v0.02c0.04,0.21,0.07,0.41,0.09,0.6c-0.07-0.02-0.14-0.04-0.21-0.07c-1.6,6.99-4.06,8.6-12.82,8.6c-143.48,0-286.94,0-430.4,0.02
			c-19.03,0-29.99,11.07-30.01,30.08c0,15.01,0.34,29.99-0.16,44.96c-0.21,6.05,1.58,7.2,7.33,7.2
			c166.24-0.18,332.47-0.14,498.71-0.14c2.32,0,4.66-0.16,6.99-0.23c15.54,0.07,31.08,0.05,46.6,0.28c3.37,0.05,3.71-1.51,3.69-4.24
			C665.56,199.24,665.8,181.95,665.5,164.65z M159.15,195.87c-8.98-0.11-16.12-7.54-15.95-16.66c0.16-8.78,7.4-15.88,16.14-15.82
			c9.06,0.07,16.12,7.43,15.95,16.62C175.11,188.87,167.88,195.98,159.15,195.87z M208.98,195.87c-8.6-0.09-15.82-7.33-15.98-16
			c-0.16-8.89,7.2-16.42,16.09-16.48c8.9-0.04,16.18,7.29,16.18,16.28C225.24,188.65,217.88,195.96,208.98,195.87z M259.03,195.89
			c-8.59-0.04-15.95-7.25-16.18-15.89c-0.25-8.76,7.2-16.48,16.03-16.58c8.89-0.12,16.39,7.24,16.42,16.14
			C275.37,188.4,267.88,195.91,259.03,195.89z"/>
		<path class="st29" d="M527.98,571c-0.39-0.3-0.87-0.59-1.06-1.03c-0.04-0.07-0.07-0.16-0.09-0.25c-1.47-7.29-6.7-8.71-13.11-8.69
			c-20.81,0.04-41.61,0.02-62.42,0.02c-12.84-0.02-25.68-0.18-38.51,0.05c-8.53,0.14-12.84-5.64-17.06-11.42
			c-2.02-2.75,0.34-5.14,2.25-7.13c5.66-5.87,11.32-11.78,17.33-17.29c5.48-5.02,9.84-10.71,13.34-17.21
			c-0.04,4.74-2.04,8.48-5.41,11.76c-8.48,8.3-16.74,16.83-25.26,25.12c-2.27,2.22-2.34,3.33-0.19,5.94
			c5.45,6.6,11.62,9.21,20.52,9.05c32.69-0.62,65.38-0.27,98.09-0.25c8.14,0.02,11.12,2.29,11.53,9.28
			C527.97,569.6,527.98,570.28,527.98,571z"/>
		<path d="M527.93,568.95c-0.41-6.99-3.39-9.26-11.53-9.28c-32.71-0.02-65.4-0.37-98.09,0.25c-8.9,0.16-15.08-2.45-20.52-9.05
			c-2.15-2.61-2.08-3.73,0.19-5.94c8.51-8.28,16.78-16.82,25.26-25.12c3.37-3.28,5.37-7.02,5.41-11.76
			c-3.49,6.49-7.86,12.19-13.34,17.21c-6.01,5.52-11.67,11.42-17.33,17.29c-1.92,1.99-4.27,4.38-2.25,7.13
			c4.22,5.78,8.53,11.56,17.06,11.42c12.82-0.23,25.67-0.07,38.51-0.05c20.81,0,41.61,0.02,62.42-0.02
			c6.4-0.02,11.64,1.4,13.11,8.69c0.02,0.09,0.05,0.18,0.09,0.25c-2.78,4.58-7.15,5.29-12.08,5.27c-27.65-0.07-55.29-0.09-82.94,0
			c-7.66,0.04-8.28,0.96-5.43,8.09c2.06,5.16,1.08,9.6-2.5,13.5c-6.19,6.72-12.68,13.18-19.39,19.42c-4.19,3.9-9.52,4.31-14.63,1.67
			c-2.98-1.54-5.41-3.8-7.75-6.14c-6.63-6.6-13.2-13.25-19.85-19.81c-6.39-6.3-7.49-6.31-13.71-0.16
			c-7.06,6.97-14.01,14.08-21.09,21.04c-9.45,9.31-18.34,7.29-23.2-5.23c-2.8-7.27-5.43-14.6-8.19-21.87
			c-3.85-10.06-4.54-10.54-15.36-10.54c-49.84,0-99.69,0.02-149.54,0c-26.07-0.02-44.54-18.36-44.57-44.49
			c-0.07-60.75,0.02-121.5-0.11-182.25c0-5.2,1.26-9.37,5.34-12.51c0,0.02,0,0.02,0.02,0c0.09-0.07,0.16-0.14,0.25-0.19
			c0.18-0.3,0.35-0.59,0.51-0.89c-0.59-0.02-1.22-0.02-1.88,0c-4.58,2.27-5.92,6.05-5.91,11.01c0.09,61.71,0.07,123.42,0.04,185.13
			c0,4.7,0.53,9.31,1.86,13.82c6,20.24,23.01,32.3,45.9,32.34c51,0.05,101.99,0.07,153-0.09c4.17-0.02,6.1,1.17,7.43,5.16
			c3.19,9.56,6.85,18.98,10.46,28.38c4.29,11.14,15.13,13.46,23.64,5.09c8.6-8.48,17.17-16.97,25.56-25.65
			c2.27-2.34,3.51-2.52,5.85-0.07c8.66,8.96,17.49,17.76,26.39,26.45c7.17,6.99,15.02,6.97,22.19,0.12
			c4.65-4.43,9.12-9.05,13.66-13.6c10.09-10.11,10.63-12.82,4.74-25.77h5.78c28.43,0,56.85-0.05,85.26,0.05
			c5.11,0.02,9.26-1.01,11.3-6.24C527.98,570.28,527.97,569.6,527.93,568.95z"/>
		<path d="M526.83,569.73c-1.47-7.29-6.7-8.71-13.11-8.69c-20.81,0.04-41.61,0.02-62.42,0.02c-12.84-0.02-25.68-0.18-38.51,0.05
			c-8.53,0.14-12.84-5.64-17.06-11.42c-2.02-2.75,0.34-5.14,2.25-7.13c5.66-5.87,11.32-11.78,17.33-17.29
			c5.48-5.02,9.84-10.71,13.34-17.21V508c0.04-0.05,0.09-0.12,0.12-0.19c0.05-0.05,0.09-0.11,0.11-0.18
			c0.05-0.07,0.07-0.12,0.09-0.16c0.5-0.94,0.46-1.72,0.18-2.45c-0.41-1.03-1.33-1.92-2.02-2.86c-2.39-2.82-5.09-5.14-8.69-6.47
			c-50.68-18.8-101.33-37.67-151.99-56.51c-3.32-1.22-6.67-1.79-10.23-0.64c-8.59,2.78-12.38,10.91-9.06,20.15
			c5.87,16.39,11.87,32.74,17.81,49.13c-0.02,0.44,0,0.87,0.04,1.31c0.11-0.14,0.21-0.28,0.3-0.44c6.08,16,12.15,31.98,18.27,47.98
			c0.87,2.29,0.3,3.25-2.18,3c-0.76-0.07-1.54,0-2.32,0c-48.85,0-97.7,0.04-146.55-0.02c-19.03-0.02-30.01-11.1-30.01-30.1
			c0-6.62,0.11-13.21,0.18-19.83c0.2,0.14,0.41,0.25,0.6,0.35c-0.16-0.32-0.35-0.64-0.6-0.94c-0.07-2.13-0.18-4.27-0.18-6.4
			c-0.02-52.06-0.02-104.14-0.02-156.21c0-8.57-2.32-11.49-9.79-11.64c-0.16,0.3-0.34,0.59-0.51,0.89
			c-0.09,0.05-0.16,0.12-0.25,0.19c-0.02,0.02-0.02,0.02-0.02,0c-4.08,3.14-5.34,7.31-5.34,12.51c0.12,60.75,0.04,121.5,0.11,182.25
			c0.04,26.13,18.5,44.47,44.57,44.49c49.86,0.02,99.7,0,149.54,0c10.82,0,11.51,0.48,15.36,10.54c2.77,7.27,5.39,14.6,8.19,21.87
			c4.86,12.52,13.75,14.54,23.2,5.23c7.08-6.95,14.03-14.07,21.09-21.04c6.23-6.15,7.33-6.14,13.71,0.16
			c6.65,6.56,13.21,13.21,19.85,19.81c2.34,2.34,4.77,4.59,7.75,6.14c5.11,2.64,10.45,2.23,14.63-1.67
			c6.7-6.24,13.2-12.7,19.39-19.42c3.58-3.9,4.56-8.34,2.5-13.5c-2.86-7.13-2.23-8.05,5.43-8.09c27.65-0.09,55.29-0.07,82.94,0
			c4.93,0.02,9.29-0.69,12.08-5.27C526.88,569.9,526.85,569.81,526.83,569.73z M404.5,594.58c-8.27,8.28-8.27,8.28-16.42,0.12
			c-8.12-8.12-16.21-16.27-24.37-24.35c-5.91-5.84-9.99-5.78-15.93,0.12c-8.83,8.78-17.6,17.63-26.45,26.39
			c-1.26,1.24-2.57,4.26-4.19-0.12c-17.05-46.01-34.22-91.97-51.86-139.31c47.94,17.84,94.81,35.28,142.64,53.09
			c-10.23,10.16-19.95,19.79-29.62,29.46c-5.5,5.5-5.71,8.04-1.56,14.79c9.05,9.05,18.09,18.09,27.14,27.16
			C410.95,588.14,410.95,588.14,404.5,594.58z"/>
		<path class="st29" d="M103.28,510.07c-0.2-0.11-0.41-0.21-0.6-0.35v-0.59C102.92,509.44,103.12,509.76,103.28,510.07z"/>
		<linearGradient id="SVGID_3_" gradientUnits="userSpaceOnUse" x1="264.9479" y1="508.4781" x2="265.2918" y2="508.4781">
			<stop  offset="0" style="stop-color:#EF5E2D"/>
			<stop  offset="0.4885" style="stop-color:#EF782D"/>
			<stop  offset="1" style="stop-color:#EF612D"/>
		</linearGradient>
		<path class="st4" d="M265.29,508.69c-0.09,0.16-0.19,0.3-0.3,0.44c-0.04-0.44-0.05-0.87-0.04-1.31
			C265.06,508.11,265.17,508.41,265.29,508.69z"/>
		<path class="st0" d="M609.72,343.25c-0.04,0.11-0.07,0.21-0.11,0.32c-9.03,25.88-18.06,51.72-27.03,77.6
			c-1.06,3.1-2.36,6.01-4.65,8.39c-0.66,0.39-1.33,0.69-1.99,0.92c-2.52,0.85-5.04,0.53-7.57-0.41c-0.02,0-0.02-0.02-0.02-0.02
			c-0.3-0.11-0.6-0.23-0.9-0.35v-0.02c-0.3-0.28-0.57-0.57-0.8-0.89c-1.38-1.72-2.08-3.81-2.98-5.8c-0.25-0.57-0.53-1.12-0.83-1.63
			c-2.36-6.95-4.74-13.92-7.09-20.88c-0.14-0.53-0.3-1.05-0.44-1.58c-2.31-8.07-4.93-16.02-8.12-23.77c0-0.02,0-0.02,0-0.02
			c-0.23-0.57-0.46-1.12-0.69-1.67c0.18-0.39,0.11-0.73-0.21-1.01c-0.11-0.27-0.21-0.5-0.3-0.69c0.05,0.02,0.12,0.05,0.18,0.09
			c-0.43-2.16-0.83-4.35-2.77-6.14c-0.69,2.09-1.31,3.99-1.95,5.91c-0.07,0.21-0.14,0.44-0.21,0.66c-1.01,1.83-2.2,3.62-1.84,5.87
			c-0.32,0.57-0.6,1.14-0.87,1.72c-1.42,2.98-2.39,6.12-3.28,9.29c-0.07,0.27-0.16,0.55-0.23,0.82c-1.31,1.24-1.67,2.8-1.45,4.54
			c-0.32,0.57-0.6,1.15-0.89,1.76c-1.4,2.96-2.38,6.08-3.26,9.24c-0.07,0.27-0.16,0.55-0.23,0.82c-1.31,1.26-1.67,2.82-1.45,4.56
			c-0.32,0.57-0.6,1.15-0.89,1.76c-1.4,2.94-2.36,6.05-3.25,9.17c-0.09,0.28-0.16,0.59-0.25,0.87c-1.21,1.17-1.67,2.63-1.56,4.29
			c-0.44,0.41-0.87,0.82-1.31,1.22c-1.42,1.31-2.91,2.52-4.95,2.82c0.09,0.09,0.18,0.18,0.27,0.27c-0.27-0.05-0.57-0.12-0.87-0.23
			c-5.55,0.21-8.39-2.8-10.08-7.8c-9.05-26.64-18.25-53.23-27.35-79.85c-2.18-6.4-0.28-11.37,4.75-12.98
			c5.32-1.72,9.47,0.82,11.76,7.38c6.17,17.77,12.29,35.56,18.45,53.35c0.32,0.9,0.69,1.79,1.33,3.37c0.11,0.3,0.23,0.6,0.37,0.96
			c0.11-0.32,0.23-0.64,0.34-0.94c5.41-15.08,10.47-29.2,15.52-43.3c1.63-4.56,3.32-9.12,4.81-13.73c1.47-4.58,3.74-8.21,9.17-8.25
			c5.45-0.02,7.7,3.6,9.24,8.18c6.37,18.94,12.82,37.85,19.28,56.83c2.29-1.24,2.23-3.65,2.89-5.52c5.96-16.62,11.88-33.26,17.51-50
			c1.61-4.86,4.03-8.27,9.17-9.35c1.33-0.2,2.57-0.2,3.71,0.02c2.32,0.44,4.15,1.81,5.25,4.47
			C612.38,337.17,613.28,340.57,609.72,343.25z"/>
		<path class="st0" d="M288.3,343.15c-9.33,26.75-18.73,53.48-28.06,80.23c-1.53,4.38-3.8,7.72-8.98,7.68
			c-5.11-0.04-7.41-3.19-8.92-7.68c-6.01-17.83-12.17-35.62-18.29-53.41c-0.5-1.45-1.08-2.89-1.92-5.07
			c-6.92,19.3-13.59,37.92-20.24,56.53c-0.12,0.37-0.2,0.76-0.32,1.14c-1.54,4.68-3.73,8.67-9.58,8.5c-5.5-0.16-7.45-3.96-8.98-8.46
			c-5.73-16.92-11.58-33.77-17.4-50.66c-3.09-8.99-6.21-17.97-9.28-26.96c-2.61-7.61-1.28-12.49,3.87-14.44
			c5.69-2.16,9.84,0.62,12.58,8.5c5.76,16.69,11.53,33.4,17.29,50.07c0.6,1.74,1.31,3.44,2.45,6.42c6.1-17.1,11.76-32.9,17.4-48.71
			c1.24-3.48,2.48-6.95,3.65-10.45c1.42-4.29,4.04-7.15,8.82-7.1c4.68,0.04,7.27,2.73,8.74,7.11c6.07,18.02,12.29,35.99,18.47,53.98
			c0.44,1.28,0.94,2.54,1.81,4.86c3.12-8.76,5.92-16.6,8.69-24.48c3.94-11.16,7.79-22.35,11.76-33.51c2.25-6.28,6.85-8.8,12.04-6.79
			C288.65,332.26,290.41,337.1,288.3,343.15z"/>
		<path class="st0" d="M450.97,341.21c-3.41,10.32-7.1,20.54-10.7,30.79c-5.87,16.85-11.81,33.68-17.63,50.55
			c-1.61,4.74-3.74,8.62-9.56,8.5c-5.53-0.11-7.49-4.03-8.99-8.48c-6.39-18.91-12.82-37.8-19.33-56.94c-2.57,2.7-2.94,6.1-4.04,9.13
			c-5.92,16.21-11.72,32.48-17.44,48.76c-1.56,4.49-3.96,7.56-9.06,7.52c-4.88-0.04-7.24-3.1-8.67-7.29
			c-9.19-26.78-18.41-53.57-27.62-80.35c-1.33-3.87-1.7-7.61,1.45-10.87c2.41-2.48,5.39-2.96,8.6-2.22c4.2,0.99,5.6,4.47,6.83,8.02
			c6.42,18.71,12.81,37.44,19.35,56.56c2.86-3.99,3.69-8.41,5.2-12.51c5.53-15.13,10.96-30.28,16.21-45.5
			c1.56-4.52,3.99-7.64,9.01-7.63c5.04,0.02,7.41,3.21,8.92,7.72c5.98,17.84,12.15,35.62,18.27,53.43c0.43,1.24,0.35,2.75,2.22,3.8
			c6.4-18.27,12.75-36.4,19.12-54.53c0.51-1.45,0.92-2.98,1.58-4.38c2.11-4.54,6.6-6.49,11.09-4.93
			C450.1,331.88,452.55,336.46,450.97,341.21z"/>
		<path class="st26" d="M428.78,507.8c-0.04,0.07-0.07,0.14-0.11,0.21c0-0.02-0.02-0.02-0.02-0.02
			C428.69,507.95,428.74,507.88,428.78,507.8z"/>
		<linearGradient id="SVGID_4_" gradientUnits="userSpaceOnUse" x1="602.0561" y1="336.2546" x2="612.2183" y2="336.2546">
			<stop  offset="0" style="stop-color:#EF5E2D"/>
			<stop  offset="0.4885" style="stop-color:#EF782D"/>
			<stop  offset="1" style="stop-color:#EF612D"/>
		</linearGradient>
		<path class="st6" d="M609.72,343.25c2.29-7.4,0.94-10.71-5.87-13.23c-0.55-0.21-1.15-0.43-1.79-0.62c1.33-0.2,2.57-0.2,3.71,0.02
			c2.32,0.44,4.15,1.81,5.25,4.47C612.38,337.17,613.28,340.57,609.72,343.25z"/>
		<path class="st26" d="M515.76,431.28c-0.27-0.05-0.57-0.12-0.87-0.23c0.21,0,0.41-0.02,0.6-0.04
			C515.59,431.11,515.67,431.2,515.76,431.28z"/>
		<path class="st26" d="M546.27,372.45c-0.11-0.27-0.21-0.5-0.3-0.69c0.05,0.02,0.12,0.05,0.18,0.09
			C546.18,372.04,546.24,372.25,546.27,372.45z"/>
		<path class="st0" d="M275.31,179.55c0.05,8.85-7.43,16.35-16.28,16.34c-8.59-0.04-15.95-7.25-16.18-15.89
			c-0.25-8.76,7.2-16.48,16.03-16.58C267.78,163.29,275.28,170.65,275.31,179.55z"/>
		<path class="st0" d="M225.26,179.68c-0.02,8.98-7.38,16.28-16.28,16.19c-8.6-0.09-15.82-7.33-15.98-16
			c-0.16-8.89,7.2-16.42,16.09-16.48C217.99,163.36,225.26,170.69,225.26,179.68z"/>
		<path class="st0" d="M175.29,180.02c-0.18,8.85-7.41,15.96-16.14,15.86c-8.98-0.11-16.12-7.54-15.95-16.66
			c0.16-8.78,7.4-15.88,16.14-15.82C168.41,163.47,175.47,170.83,175.29,180.02z"/>
		<linearGradient id="SVGID_5_" gradientUnits="userSpaceOnUse" x1="265.2744" y1="529.1168" x2="409.2632" y2="529.1168">
			<stop  offset="0" style="stop-color:#2F3277"/>
			<stop  offset="0.4382" style="stop-color:#454186"/>
			<stop  offset="1" style="stop-color:#2B2F74"/>
		</linearGradient>
		<path class="st10" d="M404.5,594.58c-8.27,8.28-8.27,8.28-16.42,0.12c-8.12-8.12-16.21-16.27-24.37-24.35
			c-5.91-5.84-9.99-5.78-15.93,0.12c-8.83,8.78-17.6,17.63-26.45,26.39c-1.26,1.24-2.57,4.26-4.19-0.12
			c-17.05-46.01-34.22-91.97-51.86-139.31c47.94,17.84,94.81,35.28,142.64,53.09c-10.23,10.16-19.95,19.79-29.62,29.46
			c-5.5,5.5-5.71,8.04-1.56,14.79c9.05,9.05,18.09,18.09,27.14,27.16C410.95,588.14,410.95,588.14,404.5,594.58z"/>
	</g>
</g>
</svg>
