<?xml version="1.0" encoding="UTF-8" standalone="no"?>
<svg xmlns="http://www.w3.org/2000/svg" version="1.2" baseProfile="tiny" viewBox="0 0 1081 1081">
<g stroke-width="2.00" fill="none" stroke-linecap="butt">
<path stroke="#000000" vector-effect="non-scaling-stroke" d="
  M 481.04 121.00
  L 480.96 121.25"
/>
<path stroke="#6b0000" vector-effect="non-scaling-stroke" d="
  M 480.96 121.25
  Q 479.84 121.00 477.25 121.00
  Q 430.83 121.08 241.75 120.96"
/>
<path stroke="#000000" vector-effect="non-scaling-stroke" d="
  M 241.75 120.96
  Q 241.55 120.53 241.02 120.88"
/>
<path stroke="#000000" vector-effect="non-scaling-stroke" d="
  M 841.04 121.00
  L 840.96 121.25"
/>
<path stroke="#6b0000" vector-effect="non-scaling-stroke" d="
  M 840.96 121.25
  Q 839.84 121.00 837.25 121.00
  Q 790.83 121.08 601.75 120.96"
/>
<path stroke="#000000" vector-effect="non-scaling-stroke" d="
  M 601.75 120.96
  Q 601.55 120.53 601.02 120.87"
/>
<path stroke="#6b0000" vector-effect="non-scaling-stroke" d="
  M 241.75 120.96
  Q 240.93 121.35 240.93 122.25
  Q 241.00 181.25 241.00 240.31
  A 0.69 0.69 0.0 0 1 240.31 241.00
  L 122.18 241.00
  A 1.41 1.02 18.9 0 0 121.39 241.24
  L 121.04 241.50"
/>
<path stroke="#000000" vector-effect="non-scaling-stroke" d="
  M 121.04 241.50
  L 120.96 241.00"
/>
<path stroke="#6b0000" vector-effect="non-scaling-stroke" d="
  M 601.75 120.96
  Q 600.93 121.35 600.93 122.25
  Q 601.00 181.25 601.00 240.44
  A 0.56 0.56 89.8 0 1 600.44 241.00
  L 481.69 241.00
  A 0.69 0.69 0.0 0 1 481.00 240.31
  L 480.96 121.25"
/>
<path stroke="#6b0000" vector-effect="non-scaling-stroke" d="
  M 840.96 121.25
  L 841.00 240.23
  A 0.71 0.71 0.0 0 0 841.71 240.94
  L 960.98 241.16"
/>
<path stroke="#6b0000" vector-effect="non-scaling-stroke" d="
  M 960.98 241.16
  L 960.98 480.82"
/>
<path stroke="#c60e0e" vector-effect="non-scaling-stroke" d="
  M 960.98 480.82
  L 842.36 481.00
  A 1.36 1.36 0.0 0 0 841.00 482.36
  Q 841.00 540.75 841.00 598.75
  Q 841.00 600.22 840.75 600.96"
/>
<path stroke="#c60e0e" vector-effect="non-scaling-stroke" d="
  M 840.75 600.96
  L 722.44 601.00
  A 1.44 1.44 0.0 0 0 721.00 602.44
  Q 721.00 660.75 721.00 718.75
  Q 721.00 720.26 720.71 721.00"
/>
<path stroke="#c60e0e" vector-effect="non-scaling-stroke" d="
  M 720.71 721.00
  L 602.44 721.00
  A 1.44 1.44 0.0 0 0 601.00 722.44
  Q 601.00 780.75 601.00 838.75
  Q 601.00 840.22 600.75 840.96"
/>
<path stroke="#c60e0e" vector-effect="non-scaling-stroke" d="
  M 600.75 840.96
  Q 511.52 841.07 488.00 841.00
  Q 483.30 840.99 481.04 841.25"
/>
<path stroke="#6b0000" vector-effect="non-scaling-stroke" d="
  M 481.04 841.25
  L 480.96 841.00"
/>
<path stroke="#c60e0e" vector-effect="non-scaling-stroke" d="
  M 480.96 841.00
  L 481.00 722.09
  A 1.09 1.09 89.9 0 0 479.91 721.00
  Q 423.50 721.00 367.50 721.00
  Q 363.04 721.00 361.04 721.25"
/>
<path stroke="#6b0000" vector-effect="non-scaling-stroke" d="
  M 361.04 721.25
  L 360.96 721.00"
/>
<path stroke="#c60e0e" vector-effect="non-scaling-stroke" d="
  M 360.96 721.00
  L 361.00 602.09
  A 1.09 1.09 89.9 0 0 359.91 601.00
  Q 303.50 601.00 247.50 601.00
  Q 243.04 601.00 241.04 601.25"
/>
<path stroke="#6b0000" vector-effect="non-scaling-stroke" d="
  M 241.04 601.25
  L 240.96 601.00"
/>
<path stroke="#c60e0e" vector-effect="non-scaling-stroke" d="
  M 240.96 601.00
  L 241.00 482.17
  A 1.17 1.17 -89.9 0 0 239.83 481.00
  L 121.03 480.62"
/>
<path stroke="#6b0000" vector-effect="non-scaling-stroke" d="
  M 121.03 480.62
  L 121.04 241.50"
/>
<path stroke="#ea8080" vector-effect="non-scaling-stroke" d="
  M 361.00 241.33
  A 0.33 0.33 0.0 0 0 360.67 241.00
  L 241.33 241.00
  A 0.33 0.33 0.0 0 0 241.00 241.33
  L 241.00 360.67
  A 0.33 0.33 0.0 0 0 241.33 361.00
  L 360.67 361.00
  A 0.33 0.33 0.0 0 0 361.00 360.67
  L 361.00 241.33"
/>
<path stroke="#000000" vector-effect="non-scaling-stroke" d="
  M 961.04 241.00
  L 960.98 241.16"
/>
<path stroke="#5c0e0e" vector-effect="non-scaling-stroke" d="
  M 121.03 480.62
  L 121.14 600.98"
/>
<path stroke="#000000" vector-effect="non-scaling-stroke" d="
  M 121.14 600.98
  Q 121.08 601.01 120.96 601.25"
/>
<path stroke="#000000" vector-effect="non-scaling-stroke" d="
  M 961.12 600.99
  Q 961.09 601.01 960.96 600.75"
/>
<path stroke="#5c0e0e" vector-effect="non-scaling-stroke" d="
  M 960.96 600.75
  L 960.98 480.82"
/>
<path stroke="#5c0e0e" vector-effect="non-scaling-stroke" d="
  M 240.96 601.00
  L 121.14 600.98"
/>
<path stroke="#5c0e0e" vector-effect="non-scaling-stroke" d="
  M 960.96 600.75
  Q 960.47 601.00 959.25 601.00
  Q 935.76 600.92 841.00 601.04"
/>
<path stroke="#b71c1c" vector-effect="non-scaling-stroke" d="
  M 841.00 601.04
  L 840.75 600.96"
/>
<path stroke="#000000" vector-effect="non-scaling-stroke" d="
  M 841.02 721.13
  L 840.75 720.96"
/>
<path stroke="#5c0e0e" vector-effect="non-scaling-stroke" d="
  M 840.75 720.96
  Q 841.00 720.48 841.00 719.25
  Q 841.00 660.15 841.00 601.04"
/>
<path stroke="#5c0e0e" vector-effect="non-scaling-stroke" d="
  M 241.04 601.25
  Q 240.97 659.25 241.00 717.25
  Q 241.00 719.90 241.29 721.00"
/>
<path stroke="#000000" vector-effect="non-scaling-stroke" d="
  M 241.29 721.00
  Q 241.23 721.23 241.00 721.29"
/>
<path stroke="#5c0e0e" vector-effect="non-scaling-stroke" d="
  M 360.96 721.00
  L 241.29 721.00"
/>
<path stroke="#5c0e0e" vector-effect="non-scaling-stroke" d="
  M 840.75 720.96
  Q 742.93 721.08 721.75 721.00
  Q 720.94 721.00 720.96 721.50"
/>
<path stroke="#b71c1c" vector-effect="non-scaling-stroke" d="
  M 720.96 721.50
  Q 720.66 721.35 720.71 721.00"
/>
<path stroke="#5c0e0e" vector-effect="non-scaling-stroke" d="
  M 361.04 721.25
  Q 360.97 779.25 361.00 837.25
  Q 361.00 839.90 361.29 841.00"
/>
<path stroke="#000000" vector-effect="non-scaling-stroke" d="
  M 361.29 841.00
  Q 361.23 841.23 361.00 841.29"
/>
<path stroke="#5c0e0e" vector-effect="non-scaling-stroke" d="
  M 480.96 841.00
  L 361.29 841.00"
/>
<path stroke="#5c0e0e" vector-effect="non-scaling-stroke" d="
  M 720.96 721.50
  L 720.86 840.99"
/>
<path stroke="#5c0e0e" vector-effect="non-scaling-stroke" d="
  M 720.86 840.99
  L 601.00 841.04"
/>
<path stroke="#b71c1c" vector-effect="non-scaling-stroke" d="
  M 601.00 841.04
  L 600.75 840.96"
/>
<path stroke="#000000" vector-effect="non-scaling-stroke" d="
  M 721.04 841.25
  Q 720.92 841.01 720.86 840.99"
/>
<path stroke="#5c0e0e" vector-effect="non-scaling-stroke" d="
  M 481.04 841.25
  Q 480.97 899.25 481.00 957.25
  Q 481.00 959.86 481.25 960.96"
/>
<path stroke="#000000" vector-effect="non-scaling-stroke" d="
  M 481.25 960.96
  Q 480.99 961.09 481.01 961.12"
/>
<path stroke="#5c0e0e" vector-effect="non-scaling-stroke" d="
  M 601.00 841.04
  L 600.87 960.97"
/>
<path stroke="#5c0e0e" vector-effect="non-scaling-stroke" d="
  M 600.87 960.97
  L 481.25 960.96"
/>
<path stroke="#000000" vector-effect="non-scaling-stroke" d="
  M 601.13 961.02
  L 600.87 960.97"
/>
</g>
<path fill="#000000" d="
  M 481.04 121.00
  L 480.96 121.25
  Q 479.84 121.00 477.25 121.00
  Q 430.83 121.08 241.75 120.96
  Q 241.55 120.53 241.02 120.88
  L 241.00 1.82
  A 0.82 0.82 87.5 0 1 241.82 1.00
  L 480.18 1.00
  A 0.82 0.82 -87.5 0 1 481.00 1.82
  L 481.04 121.00
  Z"
/>
<path fill="#000000" d="
  M 841.04 121.00
  L 840.96 121.25
  Q 839.84 121.00 837.25 121.00
  Q 790.83 121.08 601.75 120.96
  Q 601.55 120.53 601.02 120.87
  L 601.00 1.82
  A 0.82 0.82 -0.0 0 1 601.82 1.00
  L 840.19 1.00
  A 0.82 0.81 90.0 0 1 841.00 1.82
  L 841.04 121.00
  Z"
/>
<path fill="#000000" d="
  M 241.02 120.88
  Q 241.55 120.53 241.75 120.96
  Q 240.93 121.35 240.93 122.25
  Q 241.00 181.25 241.00 240.31
  A 0.69 0.69 0.0 0 1 240.31 241.00
  L 122.18 241.00
  A 1.41 1.02 18.9 0 0 121.39 241.24
  L 121.04 241.50
  L 120.96 241.00
  L 121.00 121.77
  A 0.71 0.70 -90.0 0 1 121.70 121.06
  L 241.02 120.88
  Z"
/>
<path fill="#000000" d="
  M 601.02 120.87
  Q 601.55 120.53 601.75 120.96
  Q 600.93 121.35 600.93 122.25
  Q 601.00 181.25 601.00 240.44
  A 0.56 0.56 89.8 0 1 600.44 241.00
  L 481.69 241.00
  A 0.69 0.69 0.0 0 1 481.00 240.31
  L 480.96 121.25
  L 481.04 121.00
  L 601.02 120.87
  Z"
/>
<path fill="#d50000" d="
  M 241.75 120.96
  Q 430.83 121.08 477.25 121.00
  Q 479.84 121.00 480.96 121.25
  L 481.00 240.31
  A 0.69 0.69 0.0 0 0 481.69 241.00
  L 600.44 241.00
  A 0.56 0.56 90.0 0 0 601.00 240.44
  Q 601.00 181.25 600.93 122.25
  Q 600.93 121.35 601.75 120.96
  Q 790.83 121.08 837.25 121.00
  Q 839.84 121.00 840.96 121.25
  L 841.00 240.23
  A 0.71 0.71 0.0 0 0 841.71 240.94
  L 960.98 241.16
  L 960.98 480.82
  L 842.36 481.00
  A 1.36 1.36 0.0 0 0 841.00 482.36
  Q 841.00 540.75 841.00 598.75
  Q 841.00 600.22 840.75 600.96
  L 722.44 601.00
  A 1.44 1.44 0.0 0 0 721.00 602.44
  Q 721.00 660.75 721.00 718.75
  Q 721.00 720.26 720.71 721.00
  L 602.44 721.00
  A 1.44 1.44 0.0 0 0 601.00 722.44
  Q 601.00 780.75 601.00 838.75
  Q 601.00 840.22 600.75 840.96
  Q 511.52 841.07 488.00 841.00
  Q 483.30 840.99 481.04 841.25
  L 480.96 841.00
  L 481.00 722.09
  A 1.09 1.09 89.9 0 0 479.91 721.00
  Q 423.50 721.00 367.50 721.00
  Q 363.04 721.00 361.04 721.25
  L 360.96 721.00
  L 361.00 602.09
  A 1.09 1.09 89.9 0 0 359.91 601.00
  Q 303.50 601.00 247.50 601.00
  Q 243.04 601.00 241.04 601.25
  L 240.96 601.00
  L 241.00 482.17
  A 1.17 1.17 -89.9 0 0 239.83 481.00
  L 121.03 480.62
  L 121.04 241.50
  L 121.39 241.24
  A 1.41 1.02 18.9 0 1 122.18 241.00
  L 240.31 241.00
  A 0.69 0.69 0.0 0 0 241.00 240.31
  Q 241.00 181.25 240.93 122.25
  Q 240.93 121.35 241.75 120.96
  Z
  M 361.00 241.33
  A 0.33 0.33 0.0 0 0 360.67 241.00
  L 241.33 241.00
  A 0.33 0.33 0.0 0 0 241.00 241.33
  L 241.00 360.67
  A 0.33 0.33 0.0 0 0 241.33 361.00
  L 360.67 361.00
  A 0.33 0.33 0.0 0 0 361.00 360.67
  L 361.00 241.33
  Z"
/>
<path fill="#000000" d="
  M 841.04 121.00
  L 960.22 121.00
  A 0.78 0.78 89.9 0 1 961.00 121.78
  L 961.04 241.00
  L 960.98 241.16
  L 841.71 240.94
  A 0.71 0.71 0.3 0 1 841.00 240.23
  L 840.96 121.25
  L 841.04 121.00
  Z"
/>
<rect fill="#ffffff" x="241.00" y="241.00" width="120.00" height="120.00" rx="0.33"/>
<path fill="#000000" d="
  M 120.96 241.00
  L 121.04 241.50
  L 121.03 480.62
  L 121.14 600.98
  Q 121.08 601.01 120.96 601.25
  Q 120.41 601.00 119.00 601.00
  Q 61.00 601.00 1.82 601.00
  A 0.82 0.82 -90.0 0 1 1.00 600.18
  L 1.00 241.82
  A 0.82 0.82 2.5 0 1 1.82 241.00
  L 120.96 241.00
  Z"
/>
<path fill="#000000" d="
  M 961.04 241.00
  L 1081.00 241.26
  L 1081.00 600.81
  L 961.12 600.99
  Q 961.09 601.01 960.96 600.75
  L 960.98 480.82
  L 960.98 241.16
  L 961.04 241.00
  Z"
/>
<path fill="#b71c1c" d="
  M 121.03 480.62
  L 239.83 481.00
  A 1.17 1.17 89.7 0 1 241.00 482.17
  L 240.96 601.00
  L 121.14 600.98
  L 121.03 480.62
  Z"
/>
<path fill="#b71c1c" d="
  M 960.98 480.82
  L 960.96 600.75
  Q 960.47 601.00 959.25 601.00
  Q 935.76 600.92 841.00 601.04
  L 840.75 600.96
  Q 841.00 600.22 841.00 598.75
  Q 841.00 540.75 841.00 482.36
  A 1.36 1.36 0.0 0 1 842.36 481.00
  L 960.98 480.82
  Z"
/>
<path fill="#000000" d="
  M 960.96 600.75
  Q 961.09 601.01 961.12 600.99
  L 960.94 720.29
  A 0.71 0.71 0.0 0 1 960.23 721.00
  L 841.02 721.13
  L 840.75 720.96
  Q 841.00 720.48 841.00 719.25
  Q 841.00 660.15 841.00 601.04
  Q 935.76 600.92 959.25 601.00
  Q 960.47 601.00 960.96 600.75
  Z"
/>
<path fill="#000000" d="
  M 121.14 600.98
  L 240.96 601.00
  L 241.04 601.25
  Q 240.97 659.25 241.00 717.25
  Q 241.00 719.90 241.29 721.00
  Q 241.23 721.23 241.00 721.29
  Q 240.51 721.00 239.25 721.00
  Q 180.28 721.05 121.71 720.94
  A 0.71 0.71 -89.7 0 1 121.00 720.23
  L 120.96 601.25
  Q 121.08 601.01 121.14 600.98
  Z"
/>
<path fill="#b71c1c" d="
  M 360.96 721.00
  L 241.29 721.00
  Q 241.00 719.90 241.00 717.25
  Q 240.97 659.25 241.04 601.25
  Q 243.04 601.00 247.50 601.00
  Q 303.50 601.00 359.91 601.00
  A 1.09 1.09 -89.8 0 1 361.00 602.09
  L 360.96 721.00
  Z"
/>
<path fill="#b71c1c" d="
  M 840.75 600.96
  L 841.00 601.04
  Q 841.00 660.15 841.00 719.25
  Q 841.00 720.48 840.75 720.96
  Q 742.93 721.08 721.75 721.00
  Q 720.94 721.00 720.96 721.50
  Q 720.66 721.35 720.71 721.00
  Q 721.00 720.26 721.00 718.75
  Q 721.00 660.75 721.00 602.44
  A 1.44 1.44 0.0 0 1 722.44 601.00
  L 840.75 600.96
  Z"
/>
<path fill="#000000" d="
  M 241.29 721.00
  L 360.96 721.00
  L 361.04 721.25
  Q 360.97 779.25 361.00 837.25
  Q 361.00 839.90 361.29 841.00
  Q 361.23 841.23 361.00 841.29
  Q 360.51 841.00 359.25 841.00
  Q 300.28 841.05 241.70 840.94
  A 0.71 0.70 90.0 0 1 241.00 840.23
  L 241.00 721.29
  Q 241.23 721.23 241.29 721.00
  Z"
/>
<path fill="#b71c1c" d="
  M 480.96 841.00
  L 361.29 841.00
  Q 361.00 839.90 361.00 837.25
  Q 360.97 779.25 361.04 721.25
  Q 363.04 721.00 367.50 721.00
  Q 423.50 721.00 479.91 721.00
  A 1.09 1.09 -89.8 0 1 481.00 722.09
  L 480.96 841.00
  Z"
/>
<path fill="#b71c1c" d="
  M 720.71 721.00
  Q 720.66 721.35 720.96 721.50
  L 720.86 840.99
  L 601.00 841.04
  L 600.75 840.96
  Q 601.00 840.22 601.00 838.75
  Q 601.00 780.75 601.00 722.44
  A 1.44 1.44 0.0 0 1 602.44 721.00
  L 720.71 721.00
  Z"
/>
<path fill="#000000" d="
  M 840.75 720.96
  L 841.02 721.13
  L 841.00 840.23
  A 0.71 0.70 90.0 0 1 840.30 840.94
  Q 781.72 841.05 722.75 841.00
  Q 721.53 841.00 721.04 841.25
  Q 720.92 841.01 720.86 840.99
  L 720.96 721.50
  Q 720.94 721.00 721.75 721.00
  Q 742.93 721.08 840.75 720.96
  Z"
/>
<path fill="#000000" d="
  M 361.29 841.00
  L 480.96 841.00
  L 481.04 841.25
  Q 480.97 899.25 481.00 957.25
  Q 481.00 959.86 481.25 960.96
  Q 480.99 961.09 481.01 961.12
  L 361.71 960.94
  A 0.71 0.71 -90.0 0 1 361.00 960.23
  L 361.00 841.29
  Q 361.23 841.23 361.29 841.00
  Z"
/>
<path fill="#b71c1c" d="
  M 600.75 840.96
  L 601.00 841.04
  L 600.87 960.97
  L 481.25 960.96
  Q 481.00 959.86 481.00 957.25
  Q 480.97 899.25 481.04 841.25
  Q 483.30 840.99 488.00 841.00
  Q 511.52 841.07 600.75 840.96
  Z"
/>
<path fill="#000000" d="
  M 601.00 841.04
  L 720.86 840.99
  Q 720.92 841.01 721.04 841.25
  L 720.94 960.29
  A 0.71 0.71 0.0 0 1 720.23 961.00
  L 601.13 961.02
  L 600.87 960.97
  L 601.00 841.04
  Z"
/>
<path fill="#000000" d="
  M 481.25 960.96
  L 600.87 960.97
  L 601.13 961.02
  L 600.75 1081.00
  L 481.19 1081.00
  L 481.01 961.12
  Q 480.99 961.09 481.25 960.96
  Z"
/>
</svg>
