<svg xmlns="http://www.w3.org/2000/svg" version="1.1" xmlns:xlink="http://www.w3.org/1999/xlink" xmlns:svgjs="http://svgjs.dev/svgjs" width="199" height="228"><svg width="199" height="228" viewBox="0 0 199 228" fill="none" xmlns="http://www.w3.org/2000/svg">
<path d="M102.518 1.21897C101.103 -0.277582 98.7227 -0.280389 97.3041 1.21278L2.007 101.521C1.63959 101.907 1.42858 102.417 1.41476 102.95L0.202567 149.75C0.1176 153.031 4.11141 154.699 6.38439 152.333L124.467 29.4104C125.795 28.0276 125.804 25.8451 124.487 24.4519L102.518 1.21897Z" fill="white"></path>
<path d="M189.652 93.1312C188.233 91.6424 185.856 91.6469 184.442 93.1411L60.3084 224.362C59.0083 225.737 59.9824 228 61.8742 228L114.161 228C115.156 228 116.107 227.587 116.787 226.859L197.888 139.96C198.529 139.273 198.876 138.361 198.853 137.421L198.024 103.265C198.002 102.372 197.648 101.519 197.032 100.873L189.652 93.1312Z" fill="white"></path>
<path d="M139.796 46.0152C141.223 44.5249 143.609 44.5401 145.017 46.0486L168.896 71.6349C170.196 73.0273 170.183 75.1921 168.868 76.5692L25.947 226.17C25.2692 226.88 24.3308 227.281 23.3497 227.281H4.92456C2.94047 227.281 1.33206 225.672 1.33206 223.688V192.073C1.33206 191.147 1.68953 190.257 2.32993 189.588L139.796 46.0152Z" fill="white"></path>
<path d="M197.758 182.997C197.758 179.766 193.825 178.177 191.581 180.502L151.775 221.746C149.573 224.027 151.19 227.835 154.36 227.835H194.165C196.15 227.835 197.758 226.226 197.758 224.242L197.758 182.997Z" fill="white"></path>
</svg><style>@media (prefers-color-scheme: light) { :root { filter: none; } }
@media (prefers-color-scheme: dark) { :root { filter: none; } }
</style></svg>