<?xml version="1.0" encoding="UTF-8"?>
<svg xmlns="http://www.w3.org/2000/svg" xmlns:xlink="http://www.w3.org/1999/xlink" width="750pt" height="749.999995pt" viewBox="0 0 750 749.999995" version="1.2">
<g id="surface1">
<rect x="0" y="0" width="750" height="749.999995" style="fill:rgb(100%,100%,100%);fill-opacity:1;stroke:none;"/>
<rect x="0" y="0" width="750" height="749.999995" style="fill:rgb(100%,100%,100%);fill-opacity:1;stroke:none;"/>
<rect x="0" y="0" width="750" height="749.999995" style="fill:rgb(100%,100%,100%);fill-opacity:1;stroke:none;"/>
<path style=" stroke:none;fill-rule:nonzero;fill:rgb(96.078491%,92.158508%,86.268616%);fill-opacity:1;" d="M 374.925781 520.105469 C 318.261719 520.105469 286.917969 515.429688 266.511719 503.871094 C 251.511719 495.386719 242.171875 482.601562 242.171875 470.546875 L 242.171875 310.566406 C 242.171875 292.609375 255.324219 272.074219 276.34375 257.070312 C 293.804688 244.652344 325.144531 229.894531 374.925781 229.894531 C 461.585938 229.894531 507.683594 276.746094 507.683594 310.566406 L 507.683594 470.421875 C 507.683594 482.59375 498.339844 495.382812 483.222656 503.867188 C 462.941406 515.429688 431.597656 520.105469 374.925781 520.105469 "/>
<path style=" stroke:none;fill-rule:nonzero;fill:rgb(100%,52.938843%,19.60907%);fill-opacity:1;" d="M 476.246094 491.238281 C 456.472656 502.402344 422.554688 505.59375 375.636719 505.59375 C 328.722656 505.59375 294.800781 502.402344 275.035156 491.238281 C 263.164062 484.550781 257.160156 475.433594 257.160156 468.898438 C 257.160156 465.179688 259.136719 463.046875 263.542969 463.046875 L 487.726562 463.046875 C 492.136719 463.046875 494.113281 465.179688 494.113281 468.898438 C 494.117188 475.433594 488.109375 484.550781 476.246094 491.238281 M 487.726562 318.019531 L 263.542969 318.019531 C 259.136719 318.019531 257.160156 315.742188 257.160156 311.640625 C 257.160156 287.328125 293.738281 244.40625 375.636719 244.40625 C 456.78125 244.40625 494.117188 287.328125 494.117188 311.640625 C 494.117188 315.742188 492.140625 318.019531 487.726562 318.019531 "/>
<path style=" stroke:none;fill-rule:nonzero;fill:rgb(83.918762%,13.729858%,0%);fill-opacity:1;" d="M 304.914062 418.304688 C 304.226562 417.242188 304.15625 416.558594 304.15625 416.257812 C 304.15625 415.421875 304.609375 414.8125 305.523438 413.976562 C 307.652344 412 312.902344 407.0625 315.789062 402.582031 C 317.996094 399.164062 318.90625 396.046875 318.90625 393.46875 C 318.90625 386.859375 312.902344 381.6875 306.355469 381.6875 C 302.175781 381.6875 298.21875 384.046875 295.5625 388.375 C 291.988281 394.148438 287.726562 400.832031 284.992188 403.496094 C 284.304688 404.179688 283.925781 404.332031 283.394531 404.332031 C 282.480469 404.332031 282.101562 403.722656 282.101562 402.734375 L 282.101562 395.140625 C 282.101562 387.695312 277.695312 381.691406 269.707031 381.691406 C 261.648438 381.691406 257.308594 387.691406 257.308594 395.140625 L 257.308594 441.9375 C 257.308594 449.382812 261.644531 455.390625 269.707031 455.390625 C 277.695312 455.390625 282.101562 449.390625 282.101562 441.9375 L 282.101562 431.15625 C 282.101562 430.242188 282.480469 429.558594 283.394531 429.558594 C 284.613281 429.558594 284.917969 430.777344 285.222656 431.382812 C 286.972656 435.5625 292.0625 444.449219 296.78125 449.691406 C 299.976562 453.1875 303.929688 455.390625 308.113281 455.390625 C 315.183594 455.390625 321.117188 449.234375 321.117188 442.625 C 321.117188 438.523438 319.367188 435.484375 316.023438 431.839844 C 311.761719 427.195312 306.738281 421.117188 304.914062 418.308594 L 304.914062 418.304688 M 399.746094 377.355469 C 411.6875 377.355469 419.214844 369.757812 419.214844 358.667969 C 419.214844 351.601562 414.953125 346.738281 406.4375 346.738281 L 404.007812 346.738281 C 399.519531 346.738281 396.019531 348.871094 396.019531 353.65625 C 396.019531 357.910156 399.746094 359.960938 402.5625 359.960938 C 404.003906 359.960938 404.921875 360.417969 404.921875 361.480469 C 404.921875 362.847656 403.328125 363.761719 401.5 363.761719 C 395.792969 363.761719 391.914062 359.730469 391.914062 352.210938 C 391.914062 343.855469 397.242188 340.820312 401.347656 340.820312 C 406.363281 340.820312 407.203125 343.402344 410.699219 343.402344 C 414.730469 343.402344 417.46875 340.058594 417.46875 336.566406 C 417.46875 333.980469 416.328125 332.007812 414.578125 330.640625 C 411.386719 328.28125 406.902344 326.539062 400.207031 326.539062 C 388.417969 326.539062 376.9375 334.285156 376.9375 352.214844 C 376.929688 369.378906 388.414062 377.355469 399.746094 377.355469 M 266.054688 376.902344 L 276.78125 376.902344 C 286.894531 376.902344 293.050781 370.140625 293.050781 361.707031 C 293.050781 354.945312 289.019531 351.828125 288.109375 351.070312 C 287.734375 350.765625 287.351562 350.464844 287.351562 350.160156 C 287.351562 349.78125 287.578125 349.628906 287.960938 349.171875 C 289.402344 347.5 290.847656 344.839844 290.847656 340.964844 C 290.847656 331.851562 284.6875 326.984375 275.105469 326.984375 L 266.054688 326.984375 C 260.050781 326.984375 257.160156 330.484375 257.160156 335.191406 L 257.160156 368.695312 C 257.160156 373.40625 260.050781 376.902344 266.054688 376.902344 M 270.542969 340.054688 C 270.542969 339.070312 271.152344 338.304688 272.445312 338.304688 L 273.433594 338.304688 C 276.703125 338.304688 277.695312 340.585938 277.695312 342.5625 C 277.695312 344.386719 276.707031 346.96875 273.433594 346.96875 L 272.445312 346.96875 C 271.152344 346.96875 270.542969 346.210938 270.542969 345.222656 L 270.542969 340.054688 M 270.542969 357.835938 C 270.542969 356.847656 271.152344 356.085938 272.445312 356.085938 L 273.8125 356.085938 C 277.464844 356.085938 278.527344 358.511719 278.527344 360.71875 C 278.527344 362.699219 277.460938 365.507812 273.8125 365.507812 L 272.445312 365.507812 C 271.152344 365.507812 270.542969 364.746094 270.542969 363.757812 L 270.542969 357.835938 M 464.613281 377.277344 C 469.480469 377.277344 472.140625 373.628906 472.140625 369.074219 L 472.140625 361.019531 C 472.140625 360.035156 472.597656 359.578125 473.359375 359.578125 C 474.269531 359.578125 474.570312 360.109375 474.722656 361.019531 C 475.410156 364.894531 477.234375 370.136719 479.285156 372.796875 C 481.871094 376.21875 484.304688 377.285156 486.738281 377.285156 C 490.691406 377.285156 494.117188 374.167969 494.117188 370.289062 C 494.117188 367.707031 493.050781 365.804688 491.683594 364.0625 C 489.09375 360.796875 487.5 358.671875 486.515625 356.011719 C 486.285156 355.402344 486.4375 354.867188 487.125 354.339844 C 489.480469 352.515625 492.21875 348.488281 492.21875 342.109375 C 492.21875 332.460938 484.230469 326.992188 474.574219 326.992188 L 465.984375 326.992188 C 459.976562 326.992188 457.085938 330.480469 457.085938 335.195312 L 457.085938 369.078125 C 457.085938 373.636719 459.746094 377.277344 464.617188 377.277344 L 464.613281 377.277344 M 471.304688 341.351562 C 471.304688 340.363281 471.914062 339.597656 473.207031 339.597656 L 474.269531 339.597656 C 477.464844 339.597656 478.453125 341.878906 478.453125 343.855469 C 478.453125 345.753906 477.464844 348.261719 474.269531 348.261719 L 473.207031 348.261719 C 471.910156 348.261719 471.304688 347.503906 471.304688 346.511719 L 471.304688 341.347656 L 471.304688 341.351562 M 339.59375 381.6875 C 331.074219 381.6875 326.433594 388.066406 326.433594 396.042969 L 326.433594 441.023438 C 326.433594 449.003906 331.074219 455.382812 339.59375 455.382812 C 348.109375 455.382812 352.746094 449 352.746094 441.023438 L 352.746094 396.042969 C 352.746094 388.070312 348.113281 381.6875 339.59375 381.6875 M 474.800781 410.9375 L 471.074219 410.9375 C 464.382812 410.9375 459.210938 414.050781 459.210938 420.882812 C 459.210938 427.117188 464.839844 430.078125 469.023438 430.078125 C 471.074219 430.078125 472.519531 430.6875 472.519531 432.28125 C 472.519531 434.253906 470.085938 435.546875 467.503906 435.546875 C 458.90625 435.546875 453.050781 429.695312 453.050781 418.828125 C 453.050781 406.75 461.039062 402.347656 467.195312 402.347656 C 474.726562 402.347656 475.941406 406.148438 481.1875 406.148438 C 487.269531 406.148438 491.375 401.207031 491.375 396.195312 C 491.375 392.472656 489.703125 389.585938 487.042969 387.609375 C 482.402344 384.1875 475.410156 381.679688 465.519531 381.679688 C 447.804688 381.679688 430.539062 392.847656 430.539062 418.828125 C 430.539062 443.671875 447.796875 455.296875 464.835938 455.296875 C 482.703125 455.296875 494.035156 444.28125 494.035156 428.175781 C 494.039062 418 487.65625 410.9375 474.800781 410.9375 M 446.054688 376.902344 C 450.320312 376.902344 453.664062 374.394531 453.664062 369.835938 C 453.664062 365.351562 450.316406 362.84375 446.058594 362.84375 L 439.214844 362.84375 C 437.921875 362.84375 437.3125 362.085938 437.3125 361.097656 L 437.3125 359.652344 C 437.3125 358.664062 437.921875 357.90625 439.214844 357.90625 L 444.464844 357.90625 C 448.117188 357.90625 451.003906 355.703125 451.003906 351.824219 C 451.003906 347.953125 448.117188 345.746094 444.464844 345.746094 L 439.214844 345.746094 C 437.921875 345.746094 437.3125 344.988281 437.3125 343.996094 L 437.3125 342.78125 C 437.3125 341.796875 437.921875 341.035156 439.21875 341.035156 L 446.058594 341.035156 C 450.316406 341.035156 453.664062 338.527344 453.664062 333.972656 C 453.664062 329.484375 450.316406 326.976562 446.058594 326.976562 L 431.6875 326.976562 C 425.683594 326.976562 422.792969 330.472656 422.792969 335.183594 L 422.792969 368.6875 C 422.792969 373.394531 425.679688 376.894531 431.6875 376.894531 L 446.058594 376.894531 L 446.058594 376.902344 L 446.054688 376.902344 M 315.410156 377.277344 C 327.730469 377.277344 334.269531 369.90625 334.269531 360.644531 L 334.269531 335.039062 C 334.269531 330.480469 331.609375 326.832031 326.742188 326.832031 C 321.875 326.832031 319.214844 330.480469 319.214844 335.039062 L 319.214844 359.804688 C 319.214844 361.625 318.148438 363.75 315.410156 363.75 C 312.671875 363.75 311.753906 361.625 311.753906 359.804688 L 311.753906 335.039062 C 311.753906 330.480469 309.019531 326.832031 304.152344 326.832031 C 299.285156 326.832031 296.625 330.480469 296.625 335.039062 L 296.625 360.640625 C 296.628906 369.910156 303.09375 377.277344 315.410156 377.277344 M 368.796875 377.277344 C 372.75 377.277344 376.175781 374.164062 376.175781 370.285156 C 376.175781 367.703125 375.109375 365.804688 373.742188 364.058594 C 371.535156 361.171875 369.558594 358.664062 368.574219 356.007812 C 368.34375 355.398438 368.496094 354.867188 369.183594 354.335938 C 371.539062 352.515625 374.277344 348.488281 374.277344 342.105469 C 374.277344 332.457031 366.289062 326.984375 356.632812 326.984375 L 348.035156 326.984375 C 342.03125 326.984375 339.136719 330.480469 339.136719 335.191406 L 339.136719 369.078125 C 339.136719 373.632812 341.800781 377.285156 346.667969 377.285156 C 351.535156 377.285156 354.199219 373.632812 354.199219 369.078125 L 354.199219 361.027344 C 354.199219 360.039062 354.652344 359.582031 355.414062 359.582031 C 356.328125 359.582031 356.628906 360.113281 356.78125 361.027344 C 357.464844 364.898438 359.289062 370.140625 361.34375 372.804688 C 363.929688 376.214844 366.359375 377.277344 368.796875 377.277344 M 356.324219 348.257812 L 355.253906 348.257812 C 353.960938 348.257812 353.355469 347.5 353.355469 346.511719 L 353.355469 341.347656 C 353.355469 340.359375 353.964844 339.597656 355.253906 339.597656 L 356.320312 339.597656 C 359.515625 339.597656 360.503906 341.878906 360.503906 343.855469 C 360.503906 345.75 359.515625 348.257812 356.320312 348.257812 L 356.324219 348.257812 M 412.519531 381.6875 C 404.6875 381.6875 400.429688 387.535156 400.429688 394.90625 L 400.429688 411.3125 C 400.429688 412.675781 399.972656 413.289062 399.136719 413.289062 C 398.527344 413.289062 398.070312 412.914062 397.539062 411.847656 L 386.96875 391.339844 C 382.9375 383.511719 378.757812 381.691406 373.96875 381.691406 C 365.980469 381.691406 361.570312 387.6875 361.570312 395.214844 L 361.570312 442.167969 C 361.570312 449.535156 365.828125 455.386719 373.660156 455.386719 C 381.496094 455.386719 385.75 449.535156 385.75 442.167969 L 385.75 425.757812 C 385.75 424.394531 386.207031 423.777344 387.042969 423.777344 C 387.652344 423.777344 388.109375 424.160156 388.640625 425.222656 L 399.207031 445.734375 C 403.238281 453.5625 407.574219 455.382812 412.214844 455.382812 C 420.199219 455.382812 424.613281 449.382812 424.613281 441.859375 L 424.613281 394.910156 C 424.613281 387.535156 420.351562 381.6875 412.519531 381.6875 "/>
</g>
</svg>
