<?xml version="1.0" encoding="UTF-8"?>
<svg xmlns="http://www.w3.org/2000/svg" xmlns:xlink="http://www.w3.org/1999/xlink" width="750pt" height="749.999995pt" viewBox="0 0 750 749.999995" version="1.2">
<defs>
<clipPath id="clip1">
  <path d="M 25.347656 591.078125 L 34 591.078125 L 34 599 L 25.347656 599 Z M 25.347656 591.078125 "/>
</clipPath>
<clipPath id="clip2">
  <path d="M 47 591.078125 L 56 591.078125 L 56 599 L 47 599 Z M 47 591.078125 "/>
</clipPath>
<clipPath id="clip3">
  <path d="M 70 591.078125 L 79 591.078125 L 79 599 L 70 599 Z M 70 591.078125 "/>
</clipPath>
<clipPath id="clip4">
  <path d="M 92 591.078125 L 101 591.078125 L 101 599 L 92 599 Z M 92 591.078125 "/>
</clipPath>
<clipPath id="clip5">
  <path d="M 115 591.078125 L 124 591.078125 L 124 599 L 115 599 Z M 115 591.078125 "/>
</clipPath>
<clipPath id="clip6">
  <path d="M 137 591.078125 L 146 591.078125 L 146 599 L 137 599 Z M 137 591.078125 "/>
</clipPath>
<clipPath id="clip7">
  <path d="M 160 591.078125 L 169 591.078125 L 169 599 L 160 599 Z M 160 591.078125 "/>
</clipPath>
<clipPath id="clip8">
  <path d="M 25.347656 613 L 34 613 L 34 622 L 25.347656 622 Z M 25.347656 613 "/>
</clipPath>
<clipPath id="clip9">
  <path d="M 25.347656 635 L 34 635 L 34 644 L 25.347656 644 Z M 25.347656 635 "/>
</clipPath>
<clipPath id="clip10">
  <path d="M 25.347656 658 L 34 658 L 34 667 L 25.347656 667 Z M 25.347656 658 "/>
</clipPath>
<clipPath id="clip11">
  <path d="M 25.347656 680 L 34 680 L 34 689 L 25.347656 689 Z M 25.347656 680 "/>
</clipPath>
<clipPath id="clip12">
  <path d="M 25.347656 703 L 34 703 L 34 711 L 25.347656 711 Z M 25.347656 703 "/>
</clipPath>
<clipPath id="clip13">
  <path d="M 25.347656 725 L 34 725 L 34 733.578125 L 25.347656 733.578125 Z M 25.347656 725 "/>
</clipPath>
<clipPath id="clip14">
  <path d="M 47 725 L 56 725 L 56 733.578125 L 47 733.578125 Z M 47 725 "/>
</clipPath>
<clipPath id="clip15">
  <path d="M 70 725 L 79 725 L 79 733.578125 L 70 733.578125 Z M 70 725 "/>
</clipPath>
<clipPath id="clip16">
  <path d="M 92 725 L 101 725 L 101 733.578125 L 92 733.578125 Z M 92 725 "/>
</clipPath>
<clipPath id="clip17">
  <path d="M 115 725 L 124 725 L 124 733.578125 L 115 733.578125 Z M 115 725 "/>
</clipPath>
<clipPath id="clip18">
  <path d="M 137 725 L 146 725 L 146 733.578125 L 137 733.578125 Z M 137 725 "/>
</clipPath>
<clipPath id="clip19">
  <path d="M 160 725 L 169 725 L 169 733.578125 L 160 733.578125 Z M 160 725 "/>
</clipPath>
<clipPath id="clip20">
  <path d="M 182 591.078125 L 191 591.078125 L 191 599 L 182 599 Z M 182 591.078125 "/>
</clipPath>
<clipPath id="clip21">
  <path d="M 205 591.078125 L 213 591.078125 L 213 599 L 205 599 Z M 205 591.078125 "/>
</clipPath>
<clipPath id="clip22">
  <path d="M 227 591.078125 L 236 591.078125 L 236 599 L 227 599 Z M 227 591.078125 "/>
</clipPath>
<clipPath id="clip23">
  <path d="M 250 591.078125 L 258 591.078125 L 258 599 L 250 599 Z M 250 591.078125 "/>
</clipPath>
<clipPath id="clip24">
  <path d="M 272 591.078125 L 281 591.078125 L 281 599 L 272 599 Z M 272 591.078125 "/>
</clipPath>
<clipPath id="clip25">
  <path d="M 294 591.078125 L 303 591.078125 L 303 599 L 294 599 Z M 294 591.078125 "/>
</clipPath>
<clipPath id="clip26">
  <path d="M 317 591.078125 L 325.347656 591.078125 L 325.347656 599 L 317 599 Z M 317 591.078125 "/>
</clipPath>
<clipPath id="clip27">
  <path d="M 317 613 L 325.347656 613 L 325.347656 622 L 317 622 Z M 317 613 "/>
</clipPath>
<clipPath id="clip28">
  <path d="M 317 635 L 325.347656 635 L 325.347656 644 L 317 644 Z M 317 635 "/>
</clipPath>
<clipPath id="clip29">
  <path d="M 317 658 L 325.347656 658 L 325.347656 667 L 317 667 Z M 317 658 "/>
</clipPath>
<clipPath id="clip30">
  <path d="M 317 680 L 325.347656 680 L 325.347656 689 L 317 689 Z M 317 680 "/>
</clipPath>
<clipPath id="clip31">
  <path d="M 317 703 L 325.347656 703 L 325.347656 711 L 317 711 Z M 317 703 "/>
</clipPath>
<clipPath id="clip32">
  <path d="M 182 725 L 191 725 L 191 733.578125 L 182 733.578125 Z M 182 725 "/>
</clipPath>
<clipPath id="clip33">
  <path d="M 205 725 L 213 725 L 213 733.578125 L 205 733.578125 Z M 205 725 "/>
</clipPath>
<clipPath id="clip34">
  <path d="M 227 725 L 236 725 L 236 733.578125 L 227 733.578125 Z M 227 725 "/>
</clipPath>
<clipPath id="clip35">
  <path d="M 250 725 L 258 725 L 258 733.578125 L 250 733.578125 Z M 250 725 "/>
</clipPath>
<clipPath id="clip36">
  <path d="M 272 725 L 281 725 L 281 733.578125 L 272 733.578125 Z M 272 725 "/>
</clipPath>
<clipPath id="clip37">
  <path d="M 294 725 L 303 725 L 303 733.578125 L 294 733.578125 Z M 294 725 "/>
</clipPath>
<clipPath id="clip38">
  <path d="M 317 725 L 325.347656 725 L 325.347656 733.578125 L 317 733.578125 Z M 317 725 "/>
</clipPath>
<clipPath id="clip39">
  <path d="M 100.347656 75 L 674.847656 75 L 674.847656 648.75 L 100.347656 648.75 Z M 100.347656 75 "/>
</clipPath>
<clipPath id="clip40">
  <path d="M 175.347656 0 L 749.847656 0 L 749.847656 573.75 L 175.347656 573.75 Z M 175.347656 0 "/>
</clipPath>
</defs>
<g id="surface1">
<g clip-path="url(#clip1)" clip-rule="nonzero">
<path style=" stroke:none;fill-rule:nonzero;fill:rgb(100%,50.19989%,25.099182%);fill-opacity:1;" d="M 29.367188 591.078125 C 27.191406 591.078125 25.421875 592.84375 25.421875 595.019531 C 25.421875 597.195312 27.191406 598.964844 29.367188 598.964844 C 31.542969 598.964844 33.3125 597.195312 33.3125 595.019531 C 33.3125 592.84375 31.542969 591.078125 29.367188 591.078125 "/>
</g>
<g clip-path="url(#clip2)" clip-rule="nonzero">
<path style=" stroke:none;fill-rule:nonzero;fill:rgb(100%,50.19989%,25.099182%);fill-opacity:1;" d="M 51.832031 591.078125 C 49.65625 591.078125 47.882812 592.84375 47.882812 595.019531 C 47.882812 597.195312 49.65625 598.964844 51.832031 598.964844 C 54.007812 598.964844 55.773438 597.195312 55.773438 595.019531 C 55.773438 592.84375 54.007812 591.078125 51.832031 591.078125 "/>
</g>
<g clip-path="url(#clip3)" clip-rule="nonzero">
<path style=" stroke:none;fill-rule:nonzero;fill:rgb(100%,50.19989%,25.099182%);fill-opacity:1;" d="M 74.289062 591.078125 C 72.113281 591.078125 70.347656 592.84375 70.347656 595.019531 C 70.347656 597.195312 72.113281 598.964844 74.289062 598.964844 C 76.464844 598.964844 78.234375 597.195312 78.234375 595.019531 C 78.234375 592.84375 76.464844 591.078125 74.289062 591.078125 "/>
</g>
<g clip-path="url(#clip4)" clip-rule="nonzero">
<path style=" stroke:none;fill-rule:nonzero;fill:rgb(100%,50.19989%,25.099182%);fill-opacity:1;" d="M 96.753906 591.078125 C 94.578125 591.078125 92.808594 592.84375 92.808594 595.019531 C 92.808594 597.195312 94.578125 598.964844 96.753906 598.964844 C 98.929688 598.964844 100.699219 597.195312 100.699219 595.019531 C 100.699219 592.84375 98.929688 591.078125 96.753906 591.078125 "/>
</g>
<g clip-path="url(#clip5)" clip-rule="nonzero">
<path style=" stroke:none;fill-rule:nonzero;fill:rgb(100%,50.19989%,25.099182%);fill-opacity:1;" d="M 119.214844 591.078125 C 117.039062 591.078125 115.269531 592.84375 115.269531 595.019531 C 115.269531 597.195312 117.039062 598.964844 119.214844 598.964844 C 121.390625 598.964844 123.160156 597.195312 123.160156 595.019531 C 123.160156 592.84375 121.390625 591.078125 119.214844 591.078125 "/>
</g>
<g clip-path="url(#clip6)" clip-rule="nonzero">
<path style=" stroke:none;fill-rule:nonzero;fill:rgb(100%,50.19989%,25.099182%);fill-opacity:1;" d="M 141.675781 591.078125 C 139.5 591.078125 137.730469 592.84375 137.730469 595.019531 C 137.730469 597.195312 139.5 598.964844 141.675781 598.964844 C 143.851562 598.964844 145.621094 597.195312 145.621094 595.019531 C 145.621094 592.84375 143.851562 591.078125 141.675781 591.078125 "/>
</g>
<g clip-path="url(#clip7)" clip-rule="nonzero">
<path style=" stroke:none;fill-rule:nonzero;fill:rgb(100%,50.19989%,25.099182%);fill-opacity:1;" d="M 164.136719 591.078125 C 161.960938 591.078125 160.191406 592.84375 160.191406 595.019531 C 160.191406 597.195312 161.960938 598.964844 164.136719 598.964844 C 166.3125 598.964844 168.085938 597.195312 168.085938 595.019531 C 168.085938 592.84375 166.3125 591.078125 164.136719 591.078125 "/>
</g>
<g clip-path="url(#clip8)" clip-rule="nonzero">
<path style=" stroke:none;fill-rule:nonzero;fill:rgb(100%,50.19989%,25.099182%);fill-opacity:1;" d="M 29.367188 613.53125 C 27.191406 613.53125 25.421875 615.304688 25.421875 617.480469 C 25.421875 619.652344 27.191406 621.425781 29.367188 621.425781 C 31.542969 621.425781 33.3125 619.652344 33.3125 617.480469 C 33.3125 615.304688 31.542969 613.53125 29.367188 613.53125 "/>
</g>
<path style=" stroke:none;fill-rule:nonzero;fill:rgb(100%,50.19989%,25.099182%);fill-opacity:1;" d="M 51.832031 613.53125 C 49.65625 613.53125 47.882812 615.304688 47.882812 617.480469 C 47.882812 619.652344 49.65625 621.425781 51.832031 621.425781 C 54.007812 621.425781 55.773438 619.652344 55.773438 617.480469 C 55.773438 615.304688 54.007812 613.53125 51.832031 613.53125 "/>
<path style=" stroke:none;fill-rule:nonzero;fill:rgb(100%,50.19989%,25.099182%);fill-opacity:1;" d="M 74.289062 613.53125 C 72.113281 613.53125 70.347656 615.304688 70.347656 617.480469 C 70.347656 619.652344 72.113281 621.425781 74.289062 621.425781 C 76.464844 621.425781 78.234375 619.652344 78.234375 617.480469 C 78.234375 615.304688 76.464844 613.53125 74.289062 613.53125 "/>
<path style=" stroke:none;fill-rule:nonzero;fill:rgb(100%,50.19989%,25.099182%);fill-opacity:1;" d="M 96.753906 613.53125 C 94.578125 613.53125 92.808594 615.304688 92.808594 617.480469 C 92.808594 619.652344 94.578125 621.425781 96.753906 621.425781 C 98.929688 621.425781 100.699219 619.652344 100.699219 617.480469 C 100.699219 615.304688 98.929688 613.53125 96.753906 613.53125 "/>
<path style=" stroke:none;fill-rule:nonzero;fill:rgb(100%,50.19989%,25.099182%);fill-opacity:1;" d="M 119.214844 613.53125 C 117.039062 613.53125 115.269531 615.304688 115.269531 617.480469 C 115.269531 619.652344 117.039062 621.425781 119.214844 621.425781 C 121.390625 621.425781 123.160156 619.652344 123.160156 617.480469 C 123.160156 615.304688 121.390625 613.53125 119.214844 613.53125 "/>
<path style=" stroke:none;fill-rule:nonzero;fill:rgb(100%,50.19989%,25.099182%);fill-opacity:1;" d="M 141.675781 613.53125 C 139.5 613.53125 137.730469 615.304688 137.730469 617.480469 C 137.730469 619.652344 139.5 621.425781 141.675781 621.425781 C 143.851562 621.425781 145.621094 619.652344 145.621094 617.480469 C 145.621094 615.304688 143.851562 613.53125 141.675781 613.53125 "/>
<path style=" stroke:none;fill-rule:nonzero;fill:rgb(100%,50.19989%,25.099182%);fill-opacity:1;" d="M 164.136719 613.53125 C 161.960938 613.53125 160.191406 615.304688 160.191406 617.480469 C 160.191406 619.652344 161.960938 621.425781 164.136719 621.425781 C 166.3125 621.425781 168.085938 619.652344 168.085938 617.480469 C 168.085938 615.304688 166.3125 613.53125 164.136719 613.53125 "/>
<g clip-path="url(#clip9)" clip-rule="nonzero">
<path style=" stroke:none;fill-rule:nonzero;fill:rgb(100%,50.19989%,25.099182%);fill-opacity:1;" d="M 29.367188 635.851562 C 27.191406 635.851562 25.421875 637.621094 25.421875 639.796875 C 25.421875 641.96875 27.191406 643.738281 29.367188 643.738281 C 31.542969 643.738281 33.3125 641.96875 33.3125 639.796875 C 33.3125 637.621094 31.542969 635.851562 29.367188 635.851562 "/>
</g>
<path style=" stroke:none;fill-rule:nonzero;fill:rgb(100%,50.19989%,25.099182%);fill-opacity:1;" d="M 51.832031 635.851562 C 49.65625 635.851562 47.882812 637.621094 47.882812 639.796875 C 47.882812 641.96875 49.65625 643.738281 51.832031 643.738281 C 54.007812 643.738281 55.773438 641.96875 55.773438 639.796875 C 55.773438 637.621094 54.007812 635.851562 51.832031 635.851562 "/>
<path style=" stroke:none;fill-rule:nonzero;fill:rgb(100%,50.19989%,25.099182%);fill-opacity:1;" d="M 74.289062 635.851562 C 72.113281 635.851562 70.347656 637.621094 70.347656 639.796875 C 70.347656 641.96875 72.113281 643.738281 74.289062 643.738281 C 76.464844 643.738281 78.234375 641.96875 78.234375 639.796875 C 78.234375 637.621094 76.464844 635.851562 74.289062 635.851562 "/>
<path style=" stroke:none;fill-rule:nonzero;fill:rgb(100%,50.19989%,25.099182%);fill-opacity:1;" d="M 96.753906 635.851562 C 94.578125 635.851562 92.808594 637.621094 92.808594 639.796875 C 92.808594 641.96875 94.578125 643.738281 96.753906 643.738281 C 98.929688 643.738281 100.699219 641.96875 100.699219 639.796875 C 100.699219 637.621094 98.929688 635.851562 96.753906 635.851562 "/>
<path style=" stroke:none;fill-rule:nonzero;fill:rgb(100%,50.19989%,25.099182%);fill-opacity:1;" d="M 119.214844 635.851562 C 117.039062 635.851562 115.269531 637.621094 115.269531 639.796875 C 115.269531 641.96875 117.039062 643.738281 119.214844 643.738281 C 121.390625 643.738281 123.160156 641.96875 123.160156 639.796875 C 123.160156 637.621094 121.390625 635.851562 119.214844 635.851562 "/>
<path style=" stroke:none;fill-rule:nonzero;fill:rgb(100%,50.19989%,25.099182%);fill-opacity:1;" d="M 141.675781 635.851562 C 139.5 635.851562 137.730469 637.621094 137.730469 639.796875 C 137.730469 641.96875 139.5 643.738281 141.675781 643.738281 C 143.851562 643.738281 145.621094 641.96875 145.621094 639.796875 C 145.621094 637.621094 143.851562 635.851562 141.675781 635.851562 "/>
<path style=" stroke:none;fill-rule:nonzero;fill:rgb(100%,50.19989%,25.099182%);fill-opacity:1;" d="M 164.136719 635.851562 C 161.960938 635.851562 160.191406 637.621094 160.191406 639.796875 C 160.191406 641.96875 161.960938 643.738281 164.136719 643.738281 C 166.3125 643.738281 168.085938 641.96875 168.085938 639.796875 C 168.085938 637.621094 166.3125 635.851562 164.136719 635.851562 "/>
<g clip-path="url(#clip10)" clip-rule="nonzero">
<path style=" stroke:none;fill-rule:nonzero;fill:rgb(100%,50.19989%,25.099182%);fill-opacity:1;" d="M 29.367188 658.3125 C 27.191406 658.3125 25.421875 660.082031 25.421875 662.257812 C 25.421875 664.433594 27.191406 666.203125 29.367188 666.203125 C 31.542969 666.203125 33.3125 664.433594 33.3125 662.257812 C 33.3125 660.082031 31.542969 658.3125 29.367188 658.3125 "/>
</g>
<path style=" stroke:none;fill-rule:nonzero;fill:rgb(100%,50.19989%,25.099182%);fill-opacity:1;" d="M 51.832031 658.3125 C 49.65625 658.3125 47.882812 660.082031 47.882812 662.257812 C 47.882812 664.433594 49.65625 666.203125 51.832031 666.203125 C 54.007812 666.203125 55.773438 664.433594 55.773438 662.257812 C 55.773438 660.082031 54.007812 658.3125 51.832031 658.3125 "/>
<path style=" stroke:none;fill-rule:nonzero;fill:rgb(100%,50.19989%,25.099182%);fill-opacity:1;" d="M 74.289062 658.3125 C 72.113281 658.3125 70.347656 660.082031 70.347656 662.257812 C 70.347656 664.433594 72.113281 666.203125 74.289062 666.203125 C 76.464844 666.203125 78.234375 664.433594 78.234375 662.257812 C 78.234375 660.082031 76.464844 658.3125 74.289062 658.3125 "/>
<path style=" stroke:none;fill-rule:nonzero;fill:rgb(100%,50.19989%,25.099182%);fill-opacity:1;" d="M 96.753906 658.3125 C 94.578125 658.3125 92.808594 660.082031 92.808594 662.257812 C 92.808594 664.433594 94.578125 666.203125 96.753906 666.203125 C 98.929688 666.203125 100.699219 664.433594 100.699219 662.257812 C 100.699219 660.082031 98.929688 658.3125 96.753906 658.3125 "/>
<path style=" stroke:none;fill-rule:nonzero;fill:rgb(100%,50.19989%,25.099182%);fill-opacity:1;" d="M 119.214844 658.3125 C 117.039062 658.3125 115.269531 660.082031 115.269531 662.257812 C 115.269531 664.433594 117.039062 666.203125 119.214844 666.203125 C 121.390625 666.203125 123.160156 664.433594 123.160156 662.257812 C 123.160156 660.082031 121.390625 658.3125 119.214844 658.3125 "/>
<path style=" stroke:none;fill-rule:nonzero;fill:rgb(100%,50.19989%,25.099182%);fill-opacity:1;" d="M 141.675781 658.3125 C 139.5 658.3125 137.730469 660.082031 137.730469 662.257812 C 137.730469 664.433594 139.5 666.203125 141.675781 666.203125 C 143.851562 666.203125 145.621094 664.433594 145.621094 662.257812 C 145.621094 660.082031 143.851562 658.3125 141.675781 658.3125 "/>
<path style=" stroke:none;fill-rule:nonzero;fill:rgb(100%,50.19989%,25.099182%);fill-opacity:1;" d="M 164.136719 658.3125 C 161.960938 658.3125 160.191406 660.082031 160.191406 662.257812 C 160.191406 664.433594 161.960938 666.203125 164.136719 666.203125 C 166.3125 666.203125 168.085938 664.433594 168.085938 662.257812 C 168.085938 660.082031 166.3125 658.3125 164.136719 658.3125 "/>
<g clip-path="url(#clip11)" clip-rule="nonzero">
<path style=" stroke:none;fill-rule:nonzero;fill:rgb(100%,50.19989%,25.099182%);fill-opacity:1;" d="M 29.367188 680.765625 C 27.191406 680.765625 25.421875 682.539062 25.421875 684.714844 C 25.421875 686.886719 27.191406 688.660156 29.367188 688.660156 C 31.542969 688.660156 33.3125 686.886719 33.3125 684.714844 C 33.3125 682.539062 31.542969 680.765625 29.367188 680.765625 "/>
</g>
<path style=" stroke:none;fill-rule:nonzero;fill:rgb(100%,50.19989%,25.099182%);fill-opacity:1;" d="M 51.832031 680.765625 C 49.65625 680.765625 47.882812 682.539062 47.882812 684.714844 C 47.882812 686.886719 49.65625 688.660156 51.832031 688.660156 C 54.007812 688.660156 55.773438 686.886719 55.773438 684.714844 C 55.773438 682.539062 54.007812 680.765625 51.832031 680.765625 "/>
<path style=" stroke:none;fill-rule:nonzero;fill:rgb(100%,50.19989%,25.099182%);fill-opacity:1;" d="M 74.289062 680.765625 C 72.113281 680.765625 70.347656 682.539062 70.347656 684.714844 C 70.347656 686.886719 72.113281 688.660156 74.289062 688.660156 C 76.464844 688.660156 78.234375 686.886719 78.234375 684.714844 C 78.234375 682.539062 76.464844 680.765625 74.289062 680.765625 "/>
<path style=" stroke:none;fill-rule:nonzero;fill:rgb(100%,50.19989%,25.099182%);fill-opacity:1;" d="M 96.753906 680.765625 C 94.578125 680.765625 92.808594 682.539062 92.808594 684.714844 C 92.808594 686.886719 94.578125 688.660156 96.753906 688.660156 C 98.929688 688.660156 100.699219 686.886719 100.699219 684.714844 C 100.699219 682.539062 98.929688 680.765625 96.753906 680.765625 "/>
<path style=" stroke:none;fill-rule:nonzero;fill:rgb(100%,50.19989%,25.099182%);fill-opacity:1;" d="M 119.214844 680.765625 C 117.039062 680.765625 115.269531 682.539062 115.269531 684.714844 C 115.269531 686.886719 117.039062 688.660156 119.214844 688.660156 C 121.390625 688.660156 123.160156 686.886719 123.160156 684.714844 C 123.160156 682.539062 121.390625 680.765625 119.214844 680.765625 "/>
<path style=" stroke:none;fill-rule:nonzero;fill:rgb(100%,50.19989%,25.099182%);fill-opacity:1;" d="M 141.675781 680.765625 C 139.5 680.765625 137.730469 682.539062 137.730469 684.714844 C 137.730469 686.886719 139.5 688.660156 141.675781 688.660156 C 143.851562 688.660156 145.621094 686.886719 145.621094 684.714844 C 145.621094 682.539062 143.851562 680.765625 141.675781 680.765625 "/>
<path style=" stroke:none;fill-rule:nonzero;fill:rgb(100%,50.19989%,25.099182%);fill-opacity:1;" d="M 164.136719 680.765625 C 161.960938 680.765625 160.191406 682.539062 160.191406 684.714844 C 160.191406 686.886719 161.960938 688.660156 164.136719 688.660156 C 166.3125 688.660156 168.085938 686.886719 168.085938 684.714844 C 168.085938 682.539062 166.3125 680.765625 164.136719 680.765625 "/>
<g clip-path="url(#clip12)" clip-rule="nonzero">
<path style=" stroke:none;fill-rule:nonzero;fill:rgb(100%,50.19989%,25.099182%);fill-opacity:1;" d="M 29.367188 703.085938 C 27.191406 703.085938 25.421875 704.855469 25.421875 707.03125 C 25.421875 709.203125 27.191406 710.972656 29.367188 710.972656 C 31.542969 710.972656 33.3125 709.203125 33.3125 707.03125 C 33.3125 704.855469 31.542969 703.085938 29.367188 703.085938 "/>
</g>
<path style=" stroke:none;fill-rule:nonzero;fill:rgb(100%,50.19989%,25.099182%);fill-opacity:1;" d="M 51.832031 703.085938 C 49.65625 703.085938 47.882812 704.855469 47.882812 707.03125 C 47.882812 709.203125 49.65625 710.972656 51.832031 710.972656 C 54.007812 710.972656 55.773438 709.203125 55.773438 707.03125 C 55.773438 704.855469 54.007812 703.085938 51.832031 703.085938 "/>
<path style=" stroke:none;fill-rule:nonzero;fill:rgb(100%,50.19989%,25.099182%);fill-opacity:1;" d="M 74.289062 703.085938 C 72.113281 703.085938 70.347656 704.855469 70.347656 707.03125 C 70.347656 709.203125 72.113281 710.972656 74.289062 710.972656 C 76.464844 710.972656 78.234375 709.203125 78.234375 707.03125 C 78.234375 704.855469 76.464844 703.085938 74.289062 703.085938 "/>
<path style=" stroke:none;fill-rule:nonzero;fill:rgb(100%,50.19989%,25.099182%);fill-opacity:1;" d="M 96.753906 703.085938 C 94.578125 703.085938 92.808594 704.855469 92.808594 707.03125 C 92.808594 709.203125 94.578125 710.972656 96.753906 710.972656 C 98.929688 710.972656 100.699219 709.203125 100.699219 707.03125 C 100.699219 704.855469 98.929688 703.085938 96.753906 703.085938 "/>
<path style=" stroke:none;fill-rule:nonzero;fill:rgb(100%,50.19989%,25.099182%);fill-opacity:1;" d="M 119.214844 703.085938 C 117.039062 703.085938 115.269531 704.855469 115.269531 707.03125 C 115.269531 709.203125 117.039062 710.972656 119.214844 710.972656 C 121.390625 710.972656 123.160156 709.203125 123.160156 707.03125 C 123.160156 704.855469 121.390625 703.085938 119.214844 703.085938 "/>
<path style=" stroke:none;fill-rule:nonzero;fill:rgb(100%,50.19989%,25.099182%);fill-opacity:1;" d="M 141.675781 703.085938 C 139.5 703.085938 137.730469 704.855469 137.730469 707.03125 C 137.730469 709.203125 139.5 710.972656 141.675781 710.972656 C 143.851562 710.972656 145.621094 709.203125 145.621094 707.03125 C 145.621094 704.855469 143.851562 703.085938 141.675781 703.085938 "/>
<path style=" stroke:none;fill-rule:nonzero;fill:rgb(100%,50.19989%,25.099182%);fill-opacity:1;" d="M 164.136719 703.085938 C 161.960938 703.085938 160.191406 704.855469 160.191406 707.03125 C 160.191406 709.203125 161.960938 710.972656 164.136719 710.972656 C 166.3125 710.972656 168.085938 709.203125 168.085938 707.03125 C 168.085938 704.855469 166.3125 703.085938 164.136719 703.085938 "/>
<g clip-path="url(#clip13)" clip-rule="nonzero">
<path style=" stroke:none;fill-rule:nonzero;fill:rgb(100%,50.19989%,25.099182%);fill-opacity:1;" d="M 29.367188 725.683594 C 27.191406 725.683594 25.421875 727.457031 25.421875 729.632812 C 25.421875 731.808594 27.191406 733.578125 29.367188 733.578125 C 31.542969 733.578125 33.3125 731.808594 33.3125 729.632812 C 33.3125 727.457031 31.542969 725.683594 29.367188 725.683594 "/>
</g>
<g clip-path="url(#clip14)" clip-rule="nonzero">
<path style=" stroke:none;fill-rule:nonzero;fill:rgb(100%,50.19989%,25.099182%);fill-opacity:1;" d="M 51.832031 725.683594 C 49.65625 725.683594 47.882812 727.457031 47.882812 729.632812 C 47.882812 731.808594 49.65625 733.578125 51.832031 733.578125 C 54.007812 733.578125 55.773438 731.808594 55.773438 729.632812 C 55.773438 727.457031 54.007812 725.683594 51.832031 725.683594 "/>
</g>
<g clip-path="url(#clip15)" clip-rule="nonzero">
<path style=" stroke:none;fill-rule:nonzero;fill:rgb(100%,50.19989%,25.099182%);fill-opacity:1;" d="M 74.289062 725.683594 C 72.113281 725.683594 70.347656 727.457031 70.347656 729.632812 C 70.347656 731.808594 72.113281 733.578125 74.289062 733.578125 C 76.464844 733.578125 78.234375 731.808594 78.234375 729.632812 C 78.234375 727.457031 76.464844 725.683594 74.289062 725.683594 "/>
</g>
<g clip-path="url(#clip16)" clip-rule="nonzero">
<path style=" stroke:none;fill-rule:nonzero;fill:rgb(100%,50.19989%,25.099182%);fill-opacity:1;" d="M 96.753906 725.683594 C 94.578125 725.683594 92.808594 727.457031 92.808594 729.632812 C 92.808594 731.808594 94.578125 733.578125 96.753906 733.578125 C 98.929688 733.578125 100.699219 731.808594 100.699219 729.632812 C 100.699219 727.457031 98.929688 725.683594 96.753906 725.683594 "/>
</g>
<g clip-path="url(#clip17)" clip-rule="nonzero">
<path style=" stroke:none;fill-rule:nonzero;fill:rgb(100%,50.19989%,25.099182%);fill-opacity:1;" d="M 119.214844 725.683594 C 117.039062 725.683594 115.269531 727.457031 115.269531 729.632812 C 115.269531 731.808594 117.039062 733.578125 119.214844 733.578125 C 121.390625 733.578125 123.160156 731.808594 123.160156 729.632812 C 123.160156 727.457031 121.390625 725.683594 119.214844 725.683594 "/>
</g>
<g clip-path="url(#clip18)" clip-rule="nonzero">
<path style=" stroke:none;fill-rule:nonzero;fill:rgb(100%,50.19989%,25.099182%);fill-opacity:1;" d="M 141.675781 725.683594 C 139.5 725.683594 137.730469 727.457031 137.730469 729.632812 C 137.730469 731.808594 139.5 733.578125 141.675781 733.578125 C 143.851562 733.578125 145.621094 731.808594 145.621094 729.632812 C 145.621094 727.457031 143.851562 725.683594 141.675781 725.683594 "/>
</g>
<g clip-path="url(#clip19)" clip-rule="nonzero">
<path style=" stroke:none;fill-rule:nonzero;fill:rgb(100%,50.19989%,25.099182%);fill-opacity:1;" d="M 164.136719 725.683594 C 161.960938 725.683594 160.191406 727.457031 160.191406 729.632812 C 160.191406 731.808594 161.960938 733.578125 164.136719 733.578125 C 166.3125 733.578125 168.085938 731.808594 168.085938 729.632812 C 168.085938 727.457031 166.3125 725.683594 164.136719 725.683594 "/>
</g>
<g clip-path="url(#clip20)" clip-rule="nonzero">
<path style=" stroke:none;fill-rule:nonzero;fill:rgb(100%,50.19989%,25.099182%);fill-opacity:1;" d="M 186.589844 591.078125 C 184.414062 591.078125 182.648438 592.84375 182.648438 595.019531 C 182.648438 597.195312 184.414062 598.964844 186.589844 598.964844 C 188.765625 598.964844 190.539062 597.195312 190.539062 595.019531 C 190.539062 592.84375 188.765625 591.078125 186.589844 591.078125 "/>
</g>
<g clip-path="url(#clip21)" clip-rule="nonzero">
<path style=" stroke:none;fill-rule:nonzero;fill:rgb(100%,50.19989%,25.099182%);fill-opacity:1;" d="M 209.054688 591.078125 C 206.878906 591.078125 205.109375 592.84375 205.109375 595.019531 C 205.109375 597.195312 206.878906 598.964844 209.054688 598.964844 C 211.230469 598.964844 213 597.195312 213 595.019531 C 213 592.84375 211.230469 591.078125 209.054688 591.078125 "/>
</g>
<g clip-path="url(#clip22)" clip-rule="nonzero">
<path style=" stroke:none;fill-rule:nonzero;fill:rgb(100%,50.19989%,25.099182%);fill-opacity:1;" d="M 231.515625 591.078125 C 229.339844 591.078125 227.570312 592.84375 227.570312 595.019531 C 227.570312 597.195312 229.339844 598.964844 231.515625 598.964844 C 233.691406 598.964844 235.460938 597.195312 235.460938 595.019531 C 235.460938 592.84375 233.691406 591.078125 231.515625 591.078125 "/>
</g>
<g clip-path="url(#clip23)" clip-rule="nonzero">
<path style=" stroke:none;fill-rule:nonzero;fill:rgb(100%,50.19989%,25.099182%);fill-opacity:1;" d="M 253.976562 591.078125 C 251.800781 591.078125 250.03125 592.84375 250.03125 595.019531 C 250.03125 597.195312 251.800781 598.964844 253.976562 598.964844 C 256.152344 598.964844 257.921875 597.195312 257.921875 595.019531 C 257.921875 592.84375 256.152344 591.078125 253.976562 591.078125 "/>
</g>
<g clip-path="url(#clip24)" clip-rule="nonzero">
<path style=" stroke:none;fill-rule:nonzero;fill:rgb(100%,50.19989%,25.099182%);fill-opacity:1;" d="M 276.4375 591.078125 C 274.265625 591.078125 272.492188 592.84375 272.492188 595.019531 C 272.492188 597.195312 274.265625 598.964844 276.4375 598.964844 C 278.613281 598.964844 280.386719 597.195312 280.386719 595.019531 C 280.386719 592.84375 278.613281 591.078125 276.4375 591.078125 "/>
</g>
<g clip-path="url(#clip25)" clip-rule="nonzero">
<path style=" stroke:none;fill-rule:nonzero;fill:rgb(100%,50.19989%,25.099182%);fill-opacity:1;" d="M 298.902344 591.078125 C 296.726562 591.078125 294.957031 592.84375 294.957031 595.019531 C 294.957031 597.195312 296.726562 598.964844 298.902344 598.964844 C 301.078125 598.964844 302.847656 597.195312 302.847656 595.019531 C 302.847656 592.84375 301.078125 591.078125 298.902344 591.078125 "/>
</g>
<g clip-path="url(#clip26)" clip-rule="nonzero">
<path style=" stroke:none;fill-rule:nonzero;fill:rgb(100%,50.19989%,25.099182%);fill-opacity:1;" d="M 321.363281 598.964844 C 323.539062 598.964844 325.308594 597.195312 325.308594 595.019531 C 325.308594 592.84375 323.539062 591.078125 321.363281 591.078125 C 319.1875 591.078125 317.417969 592.84375 317.417969 595.019531 C 317.417969 597.195312 319.1875 598.964844 321.363281 598.964844 "/>
</g>
<path style=" stroke:none;fill-rule:nonzero;fill:rgb(100%,50.19989%,25.099182%);fill-opacity:1;" d="M 186.589844 613.53125 C 184.414062 613.53125 182.648438 615.304688 182.648438 617.480469 C 182.648438 619.652344 184.414062 621.425781 186.589844 621.425781 C 188.765625 621.425781 190.539062 619.652344 190.539062 617.480469 C 190.539062 615.304688 188.765625 613.53125 186.589844 613.53125 "/>
<path style=" stroke:none;fill-rule:nonzero;fill:rgb(100%,50.19989%,25.099182%);fill-opacity:1;" d="M 209.054688 613.53125 C 206.878906 613.53125 205.109375 615.304688 205.109375 617.480469 C 205.109375 619.652344 206.878906 621.425781 209.054688 621.425781 C 211.230469 621.425781 213 619.652344 213 617.480469 C 213 615.304688 211.230469 613.53125 209.054688 613.53125 "/>
<path style=" stroke:none;fill-rule:nonzero;fill:rgb(100%,50.19989%,25.099182%);fill-opacity:1;" d="M 231.515625 613.53125 C 229.339844 613.53125 227.570312 615.304688 227.570312 617.480469 C 227.570312 619.652344 229.339844 621.425781 231.515625 621.425781 C 233.691406 621.425781 235.460938 619.652344 235.460938 617.480469 C 235.460938 615.304688 233.691406 613.53125 231.515625 613.53125 "/>
<path style=" stroke:none;fill-rule:nonzero;fill:rgb(100%,50.19989%,25.099182%);fill-opacity:1;" d="M 253.976562 613.53125 C 251.800781 613.53125 250.03125 615.304688 250.03125 617.480469 C 250.03125 619.652344 251.800781 621.425781 253.976562 621.425781 C 256.152344 621.425781 257.921875 619.652344 257.921875 617.480469 C 257.921875 615.304688 256.152344 613.53125 253.976562 613.53125 "/>
<path style=" stroke:none;fill-rule:nonzero;fill:rgb(100%,50.19989%,25.099182%);fill-opacity:1;" d="M 276.4375 613.53125 C 274.265625 613.53125 272.492188 615.304688 272.492188 617.480469 C 272.492188 619.652344 274.265625 621.425781 276.4375 621.425781 C 278.613281 621.425781 280.386719 619.652344 280.386719 617.480469 C 280.386719 615.304688 278.613281 613.53125 276.4375 613.53125 "/>
<path style=" stroke:none;fill-rule:nonzero;fill:rgb(100%,50.19989%,25.099182%);fill-opacity:1;" d="M 298.902344 613.53125 C 296.726562 613.53125 294.957031 615.304688 294.957031 617.480469 C 294.957031 619.652344 296.726562 621.425781 298.902344 621.425781 C 301.078125 621.425781 302.847656 619.652344 302.847656 617.480469 C 302.847656 615.304688 301.078125 613.53125 298.902344 613.53125 "/>
<g clip-path="url(#clip27)" clip-rule="nonzero">
<path style=" stroke:none;fill-rule:nonzero;fill:rgb(100%,50.19989%,25.099182%);fill-opacity:1;" d="M 321.363281 613.53125 C 319.1875 613.53125 317.417969 615.304688 317.417969 617.480469 C 317.417969 619.652344 319.1875 621.425781 321.363281 621.425781 C 323.539062 621.425781 325.308594 619.652344 325.308594 617.480469 C 325.308594 615.304688 323.539062 613.53125 321.363281 613.53125 "/>
</g>
<path style=" stroke:none;fill-rule:nonzero;fill:rgb(100%,50.19989%,25.099182%);fill-opacity:1;" d="M 186.589844 635.851562 C 184.414062 635.851562 182.648438 637.621094 182.648438 639.796875 C 182.648438 641.96875 184.414062 643.738281 186.589844 643.738281 C 188.765625 643.738281 190.539062 641.96875 190.539062 639.796875 C 190.539062 637.621094 188.765625 635.851562 186.589844 635.851562 "/>
<path style=" stroke:none;fill-rule:nonzero;fill:rgb(100%,50.19989%,25.099182%);fill-opacity:1;" d="M 209.054688 635.851562 C 206.878906 635.851562 205.109375 637.621094 205.109375 639.796875 C 205.109375 641.96875 206.878906 643.738281 209.054688 643.738281 C 211.230469 643.738281 213 641.96875 213 639.796875 C 213 637.621094 211.230469 635.851562 209.054688 635.851562 "/>
<path style=" stroke:none;fill-rule:nonzero;fill:rgb(100%,50.19989%,25.099182%);fill-opacity:1;" d="M 231.515625 635.851562 C 229.339844 635.851562 227.570312 637.621094 227.570312 639.796875 C 227.570312 641.96875 229.339844 643.738281 231.515625 643.738281 C 233.691406 643.738281 235.460938 641.96875 235.460938 639.796875 C 235.460938 637.621094 233.691406 635.851562 231.515625 635.851562 "/>
<path style=" stroke:none;fill-rule:nonzero;fill:rgb(100%,50.19989%,25.099182%);fill-opacity:1;" d="M 253.976562 635.851562 C 251.800781 635.851562 250.03125 637.621094 250.03125 639.796875 C 250.03125 641.96875 251.800781 643.738281 253.976562 643.738281 C 256.152344 643.738281 257.921875 641.96875 257.921875 639.796875 C 257.921875 637.621094 256.152344 635.851562 253.976562 635.851562 "/>
<path style=" stroke:none;fill-rule:nonzero;fill:rgb(100%,50.19989%,25.099182%);fill-opacity:1;" d="M 276.4375 635.851562 C 274.265625 635.851562 272.492188 637.621094 272.492188 639.796875 C 272.492188 641.96875 274.265625 643.738281 276.4375 643.738281 C 278.613281 643.738281 280.386719 641.96875 280.386719 639.796875 C 280.386719 637.621094 278.613281 635.851562 276.4375 635.851562 "/>
<path style=" stroke:none;fill-rule:nonzero;fill:rgb(100%,50.19989%,25.099182%);fill-opacity:1;" d="M 298.902344 635.851562 C 296.726562 635.851562 294.957031 637.621094 294.957031 639.796875 C 294.957031 641.96875 296.726562 643.738281 298.902344 643.738281 C 301.078125 643.738281 302.847656 641.96875 302.847656 639.796875 C 302.847656 637.621094 301.078125 635.851562 298.902344 635.851562 "/>
<g clip-path="url(#clip28)" clip-rule="nonzero">
<path style=" stroke:none;fill-rule:nonzero;fill:rgb(100%,50.19989%,25.099182%);fill-opacity:1;" d="M 321.363281 635.851562 C 319.1875 635.851562 317.417969 637.621094 317.417969 639.796875 C 317.417969 641.96875 319.1875 643.738281 321.363281 643.738281 C 323.539062 643.738281 325.308594 641.96875 325.308594 639.796875 C 325.308594 637.621094 323.539062 635.851562 321.363281 635.851562 "/>
</g>
<path style=" stroke:none;fill-rule:nonzero;fill:rgb(100%,50.19989%,25.099182%);fill-opacity:1;" d="M 186.589844 658.3125 C 184.414062 658.3125 182.648438 660.082031 182.648438 662.257812 C 182.648438 664.433594 184.414062 666.203125 186.589844 666.203125 C 188.765625 666.203125 190.539062 664.433594 190.539062 662.257812 C 190.539062 660.082031 188.765625 658.3125 186.589844 658.3125 "/>
<path style=" stroke:none;fill-rule:nonzero;fill:rgb(100%,50.19989%,25.099182%);fill-opacity:1;" d="M 209.054688 658.3125 C 206.878906 658.3125 205.109375 660.082031 205.109375 662.257812 C 205.109375 664.433594 206.878906 666.203125 209.054688 666.203125 C 211.230469 666.203125 213 664.433594 213 662.257812 C 213 660.082031 211.230469 658.3125 209.054688 658.3125 "/>
<path style=" stroke:none;fill-rule:nonzero;fill:rgb(100%,50.19989%,25.099182%);fill-opacity:1;" d="M 231.515625 658.3125 C 229.339844 658.3125 227.570312 660.082031 227.570312 662.257812 C 227.570312 664.433594 229.339844 666.203125 231.515625 666.203125 C 233.691406 666.203125 235.460938 664.433594 235.460938 662.257812 C 235.460938 660.082031 233.691406 658.3125 231.515625 658.3125 "/>
<path style=" stroke:none;fill-rule:nonzero;fill:rgb(100%,50.19989%,25.099182%);fill-opacity:1;" d="M 253.976562 658.3125 C 251.800781 658.3125 250.03125 660.082031 250.03125 662.257812 C 250.03125 664.433594 251.800781 666.203125 253.976562 666.203125 C 256.152344 666.203125 257.921875 664.433594 257.921875 662.257812 C 257.921875 660.082031 256.152344 658.3125 253.976562 658.3125 "/>
<path style=" stroke:none;fill-rule:nonzero;fill:rgb(100%,50.19989%,25.099182%);fill-opacity:1;" d="M 276.4375 658.3125 C 274.265625 658.3125 272.492188 660.082031 272.492188 662.257812 C 272.492188 664.433594 274.265625 666.203125 276.4375 666.203125 C 278.613281 666.203125 280.386719 664.433594 280.386719 662.257812 C 280.386719 660.082031 278.613281 658.3125 276.4375 658.3125 "/>
<path style=" stroke:none;fill-rule:nonzero;fill:rgb(100%,50.19989%,25.099182%);fill-opacity:1;" d="M 298.902344 658.3125 C 296.726562 658.3125 294.957031 660.082031 294.957031 662.257812 C 294.957031 664.433594 296.726562 666.203125 298.902344 666.203125 C 301.078125 666.203125 302.847656 664.433594 302.847656 662.257812 C 302.847656 660.082031 301.078125 658.3125 298.902344 658.3125 "/>
<g clip-path="url(#clip29)" clip-rule="nonzero">
<path style=" stroke:none;fill-rule:nonzero;fill:rgb(100%,50.19989%,25.099182%);fill-opacity:1;" d="M 321.363281 658.3125 C 319.1875 658.3125 317.417969 660.082031 317.417969 662.257812 C 317.417969 664.433594 319.1875 666.203125 321.363281 666.203125 C 323.539062 666.203125 325.308594 664.433594 325.308594 662.257812 C 325.308594 660.082031 323.539062 658.3125 321.363281 658.3125 "/>
</g>
<path style=" stroke:none;fill-rule:nonzero;fill:rgb(100%,50.19989%,25.099182%);fill-opacity:1;" d="M 186.589844 680.765625 C 184.414062 680.765625 182.648438 682.539062 182.648438 684.714844 C 182.648438 686.886719 184.414062 688.660156 186.589844 688.660156 C 188.765625 688.660156 190.539062 686.886719 190.539062 684.714844 C 190.539062 682.539062 188.765625 680.765625 186.589844 680.765625 "/>
<path style=" stroke:none;fill-rule:nonzero;fill:rgb(100%,50.19989%,25.099182%);fill-opacity:1;" d="M 209.054688 680.765625 C 206.878906 680.765625 205.109375 682.539062 205.109375 684.714844 C 205.109375 686.886719 206.878906 688.660156 209.054688 688.660156 C 211.230469 688.660156 213 686.886719 213 684.714844 C 213 682.539062 211.230469 680.765625 209.054688 680.765625 "/>
<path style=" stroke:none;fill-rule:nonzero;fill:rgb(100%,50.19989%,25.099182%);fill-opacity:1;" d="M 231.515625 680.765625 C 229.339844 680.765625 227.570312 682.539062 227.570312 684.714844 C 227.570312 686.886719 229.339844 688.660156 231.515625 688.660156 C 233.691406 688.660156 235.460938 686.886719 235.460938 684.714844 C 235.460938 682.539062 233.691406 680.765625 231.515625 680.765625 "/>
<path style=" stroke:none;fill-rule:nonzero;fill:rgb(100%,50.19989%,25.099182%);fill-opacity:1;" d="M 253.976562 680.765625 C 251.800781 680.765625 250.03125 682.539062 250.03125 684.714844 C 250.03125 686.886719 251.800781 688.660156 253.976562 688.660156 C 256.152344 688.660156 257.921875 686.886719 257.921875 684.714844 C 257.921875 682.539062 256.152344 680.765625 253.976562 680.765625 "/>
<path style=" stroke:none;fill-rule:nonzero;fill:rgb(100%,50.19989%,25.099182%);fill-opacity:1;" d="M 276.4375 680.765625 C 274.265625 680.765625 272.492188 682.539062 272.492188 684.714844 C 272.492188 686.886719 274.265625 688.660156 276.4375 688.660156 C 278.613281 688.660156 280.386719 686.886719 280.386719 684.714844 C 280.386719 682.539062 278.613281 680.765625 276.4375 680.765625 "/>
<path style=" stroke:none;fill-rule:nonzero;fill:rgb(100%,50.19989%,25.099182%);fill-opacity:1;" d="M 298.902344 680.765625 C 296.726562 680.765625 294.957031 682.539062 294.957031 684.714844 C 294.957031 686.886719 296.726562 688.660156 298.902344 688.660156 C 301.078125 688.660156 302.847656 686.886719 302.847656 684.714844 C 302.847656 682.539062 301.078125 680.765625 298.902344 680.765625 "/>
<g clip-path="url(#clip30)" clip-rule="nonzero">
<path style=" stroke:none;fill-rule:nonzero;fill:rgb(100%,50.19989%,25.099182%);fill-opacity:1;" d="M 321.363281 680.765625 C 319.1875 680.765625 317.417969 682.539062 317.417969 684.714844 C 317.417969 686.886719 319.1875 688.660156 321.363281 688.660156 C 323.539062 688.660156 325.308594 686.886719 325.308594 684.714844 C 325.308594 682.539062 323.539062 680.765625 321.363281 680.765625 "/>
</g>
<path style=" stroke:none;fill-rule:nonzero;fill:rgb(100%,50.19989%,25.099182%);fill-opacity:1;" d="M 186.589844 703.085938 C 184.414062 703.085938 182.648438 704.855469 182.648438 707.03125 C 182.648438 709.203125 184.414062 710.972656 186.589844 710.972656 C 188.765625 710.972656 190.539062 709.203125 190.539062 707.03125 C 190.539062 704.855469 188.765625 703.085938 186.589844 703.085938 "/>
<path style=" stroke:none;fill-rule:nonzero;fill:rgb(100%,50.19989%,25.099182%);fill-opacity:1;" d="M 209.054688 703.085938 C 206.878906 703.085938 205.109375 704.855469 205.109375 707.03125 C 205.109375 709.203125 206.878906 710.972656 209.054688 710.972656 C 211.230469 710.972656 213 709.203125 213 707.03125 C 213 704.855469 211.230469 703.085938 209.054688 703.085938 "/>
<path style=" stroke:none;fill-rule:nonzero;fill:rgb(100%,50.19989%,25.099182%);fill-opacity:1;" d="M 231.515625 703.085938 C 229.339844 703.085938 227.570312 704.855469 227.570312 707.03125 C 227.570312 709.203125 229.339844 710.972656 231.515625 710.972656 C 233.691406 710.972656 235.460938 709.203125 235.460938 707.03125 C 235.460938 704.855469 233.691406 703.085938 231.515625 703.085938 "/>
<path style=" stroke:none;fill-rule:nonzero;fill:rgb(100%,50.19989%,25.099182%);fill-opacity:1;" d="M 253.976562 703.085938 C 251.800781 703.085938 250.03125 704.855469 250.03125 707.03125 C 250.03125 709.203125 251.800781 710.972656 253.976562 710.972656 C 256.152344 710.972656 257.921875 709.203125 257.921875 707.03125 C 257.921875 704.855469 256.152344 703.085938 253.976562 703.085938 "/>
<path style=" stroke:none;fill-rule:nonzero;fill:rgb(100%,50.19989%,25.099182%);fill-opacity:1;" d="M 276.4375 703.085938 C 274.265625 703.085938 272.492188 704.855469 272.492188 707.03125 C 272.492188 709.203125 274.265625 710.972656 276.4375 710.972656 C 278.613281 710.972656 280.386719 709.203125 280.386719 707.03125 C 280.386719 704.855469 278.613281 703.085938 276.4375 703.085938 "/>
<path style=" stroke:none;fill-rule:nonzero;fill:rgb(100%,50.19989%,25.099182%);fill-opacity:1;" d="M 298.902344 703.085938 C 296.726562 703.085938 294.957031 704.855469 294.957031 707.03125 C 294.957031 709.203125 296.726562 710.972656 298.902344 710.972656 C 301.078125 710.972656 302.847656 709.203125 302.847656 707.03125 C 302.847656 704.855469 301.078125 703.085938 298.902344 703.085938 "/>
<g clip-path="url(#clip31)" clip-rule="nonzero">
<path style=" stroke:none;fill-rule:nonzero;fill:rgb(100%,50.19989%,25.099182%);fill-opacity:1;" d="M 321.363281 703.085938 C 319.1875 703.085938 317.417969 704.855469 317.417969 707.03125 C 317.417969 709.203125 319.1875 710.972656 321.363281 710.972656 C 323.539062 710.972656 325.308594 709.203125 325.308594 707.03125 C 325.308594 704.855469 323.539062 703.085938 321.363281 703.085938 "/>
</g>
<g clip-path="url(#clip32)" clip-rule="nonzero">
<path style=" stroke:none;fill-rule:nonzero;fill:rgb(100%,50.19989%,25.099182%);fill-opacity:1;" d="M 186.589844 725.683594 C 184.414062 725.683594 182.648438 727.457031 182.648438 729.632812 C 182.648438 731.808594 184.414062 733.578125 186.589844 733.578125 C 188.765625 733.578125 190.539062 731.808594 190.539062 729.632812 C 190.539062 727.457031 188.765625 725.683594 186.589844 725.683594 "/>
</g>
<g clip-path="url(#clip33)" clip-rule="nonzero">
<path style=" stroke:none;fill-rule:nonzero;fill:rgb(100%,50.19989%,25.099182%);fill-opacity:1;" d="M 209.054688 725.683594 C 206.878906 725.683594 205.109375 727.457031 205.109375 729.632812 C 205.109375 731.808594 206.878906 733.578125 209.054688 733.578125 C 211.230469 733.578125 213 731.808594 213 729.632812 C 213 727.457031 211.230469 725.683594 209.054688 725.683594 "/>
</g>
<g clip-path="url(#clip34)" clip-rule="nonzero">
<path style=" stroke:none;fill-rule:nonzero;fill:rgb(100%,50.19989%,25.099182%);fill-opacity:1;" d="M 231.515625 725.683594 C 229.339844 725.683594 227.570312 727.457031 227.570312 729.632812 C 227.570312 731.808594 229.339844 733.578125 231.515625 733.578125 C 233.691406 733.578125 235.460938 731.808594 235.460938 729.632812 C 235.460938 727.457031 233.691406 725.683594 231.515625 725.683594 "/>
</g>
<g clip-path="url(#clip35)" clip-rule="nonzero">
<path style=" stroke:none;fill-rule:nonzero;fill:rgb(100%,50.19989%,25.099182%);fill-opacity:1;" d="M 253.976562 725.683594 C 251.800781 725.683594 250.03125 727.457031 250.03125 729.632812 C 250.03125 731.808594 251.800781 733.578125 253.976562 733.578125 C 256.152344 733.578125 257.921875 731.808594 257.921875 729.632812 C 257.921875 727.457031 256.152344 725.683594 253.976562 725.683594 "/>
</g>
<g clip-path="url(#clip36)" clip-rule="nonzero">
<path style=" stroke:none;fill-rule:nonzero;fill:rgb(100%,50.19989%,25.099182%);fill-opacity:1;" d="M 276.4375 725.683594 C 274.265625 725.683594 272.492188 727.457031 272.492188 729.632812 C 272.492188 731.808594 274.265625 733.578125 276.4375 733.578125 C 278.613281 733.578125 280.386719 731.808594 280.386719 729.632812 C 280.386719 727.457031 278.613281 725.683594 276.4375 725.683594 "/>
</g>
<g clip-path="url(#clip37)" clip-rule="nonzero">
<path style=" stroke:none;fill-rule:nonzero;fill:rgb(100%,50.19989%,25.099182%);fill-opacity:1;" d="M 298.902344 725.683594 C 296.726562 725.683594 294.957031 727.457031 294.957031 729.632812 C 294.957031 731.808594 296.726562 733.578125 298.902344 733.578125 C 301.078125 733.578125 302.847656 731.808594 302.847656 729.632812 C 302.847656 727.457031 301.078125 725.683594 298.902344 725.683594 "/>
</g>
<g clip-path="url(#clip38)" clip-rule="nonzero">
<path style=" stroke:none;fill-rule:nonzero;fill:rgb(100%,50.19989%,25.099182%);fill-opacity:1;" d="M 321.363281 725.683594 C 319.1875 725.683594 317.417969 727.457031 317.417969 729.632812 C 317.417969 731.808594 319.1875 733.578125 321.363281 733.578125 C 323.539062 733.578125 325.308594 731.808594 325.308594 729.632812 C 325.308594 727.457031 323.539062 725.683594 321.363281 725.683594 "/>
</g>
<g clip-path="url(#clip39)" clip-rule="nonzero">
<path style=" stroke:none;fill-rule:nonzero;fill:rgb(26.669312%,28.239441%,50.979614%);fill-opacity:1;" d="M 187.382812 75 L 587.875 75 C 611.722656 75 633.394531 84.746094 649.09375 100.445312 C 664.800781 116.152344 674.546875 137.820312 674.546875 161.667969 L 674.546875 562.144531 C 674.546875 585.992188 664.800781 607.660156 649.09375 623.359375 C 633.394531 639.066406 611.722656 648.8125 587.875 648.8125 L 187.382812 648.8125 C 163.535156 648.8125 141.863281 639.066406 126.164062 623.359375 C 110.457031 607.660156 100.710938 585.992188 100.710938 562.144531 L 100.710938 161.667969 C 100.710938 137.820312 110.457031 116.152344 126.164062 100.445312 C 141.863281 84.746094 163.535156 75 187.382812 75 "/>
</g>
<g clip-path="url(#clip40)" clip-rule="nonzero">
<path style=" stroke:none;fill-rule:nonzero;fill:rgb(100%,50.19989%,25.099182%);fill-opacity:1;" d="M 262.382812 0 L 662.875 0 C 686.722656 0 708.394531 9.746094 724.09375 25.445312 C 739.800781 41.152344 749.546875 62.820312 749.546875 86.667969 L 749.546875 487.144531 C 749.546875 510.992188 739.800781 532.660156 724.09375 548.359375 C 708.394531 564.066406 686.722656 573.8125 662.875 573.8125 L 262.382812 573.8125 C 238.535156 573.8125 216.863281 564.066406 201.164062 548.359375 C 185.457031 532.660156 175.710938 510.992188 175.710938 487.144531 L 175.710938 86.667969 C 175.710938 62.820312 185.457031 41.152344 201.164062 25.445312 C 216.863281 9.746094 238.535156 0 262.382812 0 "/>
</g>
</g>
</svg>
