<?xml version="1.0" encoding="UTF-8"?>
<svg xmlns="http://www.w3.org/2000/svg" xmlns:xlink="http://www.w3.org/1999/xlink" width="1440pt" height="809.999993pt" viewBox="0 0 1440 809.999993" version="1.2">
<defs>
<clipPath id="clip1">
  <path d="M 333 375 L 369 375 L 369 406 L 333 406 Z M 333 375 "/>
</clipPath>
<clipPath id="clip2">
  <path d="M 81 392.957031 L 365.386719 374.265625 L 368.191406 416.925781 L 83.804688 435.617188 Z M 81 392.957031 "/>
</clipPath>
<clipPath id="clip3">
  <path d="M 74.945312 393.355469 L 371.304688 373.878906 L 374.109375 416.535156 L 77.75 436.011719 Z M 74.945312 393.355469 "/>
</clipPath>
<clipPath id="clip4">
  <path d="M 288 378 L 315 378 L 315 413 L 288 413 Z M 288 378 "/>
</clipPath>
<clipPath id="clip5">
  <path d="M 81 392.957031 L 365.386719 374.265625 L 368.191406 416.925781 L 83.804688 435.617188 Z M 81 392.957031 "/>
</clipPath>
<clipPath id="clip6">
  <path d="M 74.945312 393.355469 L 371.304688 373.878906 L 374.109375 416.535156 L 77.75 436.011719 Z M 74.945312 393.355469 "/>
</clipPath>
<clipPath id="clip7">
  <path d="M 233 384 L 266 384 L 266 416 L 233 416 Z M 233 384 "/>
</clipPath>
<clipPath id="clip8">
  <path d="M 81 392.957031 L 365.386719 374.265625 L 368.191406 416.925781 L 83.804688 435.617188 Z M 81 392.957031 "/>
</clipPath>
<clipPath id="clip9">
  <path d="M 74.945312 393.355469 L 371.304688 373.878906 L 374.109375 416.535156 L 77.75 436.011719 Z M 74.945312 393.355469 "/>
</clipPath>
<clipPath id="clip10">
  <path d="M 184 388 L 213 388 L 213 422 L 184 422 Z M 184 388 "/>
</clipPath>
<clipPath id="clip11">
  <path d="M 81 392.957031 L 365.386719 374.265625 L 368.191406 416.925781 L 83.804688 435.617188 Z M 81 392.957031 "/>
</clipPath>
<clipPath id="clip12">
  <path d="M 74.945312 393.355469 L 371.304688 373.878906 L 374.109375 416.535156 L 77.75 436.011719 Z M 74.945312 393.355469 "/>
</clipPath>
<clipPath id="clip13">
  <path d="M 81 395 L 111 395 L 111 434 L 81 434 Z M 81 395 "/>
</clipPath>
<clipPath id="clip14">
  <path d="M 81 392.957031 L 365.386719 374.265625 L 368.191406 416.925781 L 83.804688 435.617188 Z M 81 392.957031 "/>
</clipPath>
<clipPath id="clip15">
  <path d="M 74.945312 393.355469 L 371.304688 373.878906 L 374.109375 416.535156 L 77.75 436.011719 Z M 74.945312 393.355469 "/>
</clipPath>
<clipPath id="clip16">
  <path d="M 133 396 L 160 396 L 160 426 L 133 426 Z M 133 396 "/>
</clipPath>
<clipPath id="clip17">
  <path d="M 81 392.957031 L 365.386719 374.265625 L 368.191406 416.925781 L 83.804688 435.617188 Z M 81 392.957031 "/>
</clipPath>
<clipPath id="clip18">
  <path d="M 74.945312 393.355469 L 371.304688 373.878906 L 374.109375 416.535156 L 77.75 436.011719 Z M 74.945312 393.355469 "/>
</clipPath>
<clipPath id="clip19">
  <path d="M 1180 23 L 1288 23 L 1288 123 L 1180 123 Z M 1180 23 "/>
</clipPath>
<clipPath id="clip20">
  <path d="M 1305.609375 416.460938 L 984.652344 -367.910156 L 1102.65625 -416.195312 L 1423.613281 368.175781 Z M 1305.609375 416.460938 "/>
</clipPath>
<clipPath id="clip21">
  <path d="M 1312.449219 433.175781 L 977.574219 -385.210938 L 1095.578125 -433.496094 L 1430.453125 384.890625 Z M 1312.449219 433.175781 "/>
</clipPath>
<clipPath id="clip22">
  <path d="M 1286 296 L 1414 296 L 1414 402 L 1286 402 Z M 1286 296 "/>
</clipPath>
<clipPath id="clip23">
  <path d="M 1305.609375 416.460938 L 984.652344 -367.910156 L 1102.65625 -416.195312 L 1423.613281 368.175781 Z M 1305.609375 416.460938 "/>
</clipPath>
<clipPath id="clip24">
  <path d="M 1312.449219 433.175781 L 977.574219 -385.210938 L 1095.578125 -433.496094 L 1430.453125 384.890625 Z M 1312.449219 433.175781 "/>
</clipPath>
<clipPath id="clip25">
  <path d="M 1241 170 L 1345 170 L 1345 261 L 1241 261 Z M 1241 170 "/>
</clipPath>
<clipPath id="clip26">
  <path d="M 1305.609375 416.460938 L 984.652344 -367.910156 L 1102.65625 -416.195312 L 1423.613281 368.175781 Z M 1305.609375 416.460938 "/>
</clipPath>
<clipPath id="clip27">
  <path d="M 1312.449219 433.175781 L 977.574219 -385.210938 L 1095.578125 -433.496094 L 1430.453125 384.890625 Z M 1312.449219 433.175781 "/>
</clipPath>
</defs>
<g id="surface1">
<rect x="0" y="0" width="1440" height="809.999993" style="fill:rgb(100%,100%,100%);fill-opacity:1;stroke:none;"/>
<rect x="0" y="0" width="1440" height="809.999993" style="fill:rgb(100%,100%,100%);fill-opacity:1;stroke:none;"/>
<rect x="0" y="0" width="1440" height="809.999993" style="fill:rgb(93.728638%,43.139648%,17.649841%);fill-opacity:1;stroke:none;"/>
<g clip-path="url(#clip1)" clip-rule="nonzero">
<g clip-path="url(#clip2)" clip-rule="nonzero">
<g clip-path="url(#clip3)" clip-rule="nonzero">
<path style=" stroke:none;fill-rule:evenodd;fill:rgb(17.248535%,18.818665%,45.878601%);fill-opacity:1;" d="M 345.8125 376.765625 C 347.34375 380.933594 350.40625 383.363281 351.867188 387.617188 C 358.734375 384.4375 361.246094 374.546875 370.332031 375.15625 C 368.496094 383.550781 361.3125 387.265625 356.054688 392.667969 C 357.242188 395.929688 361.769531 400.925781 360.765625 405.679688 C 355.613281 406.148438 353.34375 401.191406 350.75 397.753906 C 346.265625 400.980469 340.816406 409.046875 333.925781 403.59375 C 337.3125 401.621094 340.304688 396.230469 342.800781 394.132812 C 343.734375 393.347656 346.617188 392.625 346.78125 391.503906 C 346.914062 390.585938 343.085938 385.789062 342.472656 384.679688 C 340.867188 381.78125 340.117188 379.910156 338.742188 377.527344 C 339.9375 375.195312 343.546875 375.546875 345.8125 376.765625 Z M 345.8125 376.765625 "/>
</g>
</g>
</g>
<g clip-path="url(#clip4)" clip-rule="nonzero">
<g clip-path="url(#clip5)" clip-rule="nonzero">
<g clip-path="url(#clip6)" clip-rule="nonzero">
<path style=" stroke:none;fill-rule:evenodd;fill:rgb(17.248535%,18.818665%,45.878601%);fill-opacity:1;" d="M 313.332031 379.195312 C 313.25 384.316406 307.140625 388.242188 305.339844 393.042969 C 305.632812 395.347656 314.550781 400.488281 314.054688 403.71875 C 313.441406 407.714844 309.582031 404.183594 308.085938 403.222656 C 305.851562 401.789062 303.285156 400.933594 301.886719 399.191406 C 299.164062 401.816406 295.691406 410.082031 291.75 411.992188 C 290.527344 412.585938 289.113281 412.351562 288.148438 411.339844 C 288.722656 408.015625 291.179688 405.691406 292.960938 403.328125 C 294.820312 400.867188 296.425781 398.222656 298.40625 395.867188 C 294.867188 392.394531 291.910156 388.261719 289.023438 384.050781 C 290.96875 383.238281 293.023438 382.039062 295.761719 382.71875 C 297.394531 385.71875 299.90625 387.714844 301.898438 390.308594 C 306.394531 387.152344 306.226562 376.777344 313.332031 379.195312 Z M 313.332031 379.195312 "/>
</g>
</g>
</g>
<g clip-path="url(#clip7)" clip-rule="nonzero">
<g clip-path="url(#clip8)" clip-rule="nonzero">
<g clip-path="url(#clip9)" clip-rule="nonzero">
<path style=" stroke:none;fill-rule:evenodd;fill:rgb(17.248535%,18.818665%,45.878601%);fill-opacity:1;" d="M 238.035156 384.738281 C 245.179688 385.265625 246.457031 392.472656 250.664062 396.339844 C 255.585938 393.234375 257.101562 387.152344 264.542969 386.25 C 267.535156 389.054688 262.785156 391.421875 260.335938 394.519531 C 258.59375 396.726562 257.316406 399.199219 255.425781 401.058594 C 256.355469 404.929688 262.109375 407.050781 259.964844 411.417969 C 255.484375 411.132812 253.832031 407.625 250.96875 405.496094 C 246.894531 408.78125 243.402344 412.582031 239.183594 415.746094 C 237.390625 415.671875 236.0625 415.070312 233.824219 415.503906 C 237.226562 409.773438 242.667969 405.832031 247.117188 401.015625 C 244.054688 395.945312 240.199219 391.78125 237.539062 386.253906 C 237.628906 385.679688 238.351562 385.660156 238.035156 384.738281 Z M 238.035156 384.738281 "/>
</g>
</g>
</g>
<g clip-path="url(#clip10)" clip-rule="nonzero">
<g clip-path="url(#clip11)" clip-rule="nonzero">
<g clip-path="url(#clip12)" clip-rule="nonzero">
<path style=" stroke:none;fill-rule:evenodd;fill:rgb(17.248535%,18.818665%,45.878601%);fill-opacity:1;" d="M 198.964844 399.738281 C 203.914062 398.316406 206.820312 388.988281 212.441406 392.636719 C 210.789062 397.855469 205.972656 400.3125 202.820312 404.21875 C 202.890625 408.761719 216.863281 415.925781 210.089844 420.023438 C 205.421875 417.414062 202.386719 412.949219 198.972656 408.910156 C 194.523438 412.707031 192.105469 418.277344 187.042969 421.539062 C 185.914062 421.492188 185.832031 420.253906 184.640625 421.101562 C 186.035156 420.101562 184.988281 418.308594 185.277344 417.214844 C 186.691406 411.886719 192.113281 407.941406 195.058594 403.546875 C 192.644531 398.511719 186.441406 394.664062 186.667969 388.707031 C 193.6875 387.800781 195.046875 396.0625 198.964844 399.738281 Z M 198.964844 399.738281 "/>
</g>
</g>
</g>
<g clip-path="url(#clip13)" clip-rule="nonzero">
<g clip-path="url(#clip14)" clip-rule="nonzero">
<g clip-path="url(#clip15)" clip-rule="nonzero">
<path style=" stroke:none;fill-rule:evenodd;fill:rgb(17.248535%,18.818665%,45.878601%);fill-opacity:1;" d="M 85.351562 395.660156 C 91.398438 394.183594 93.320312 398.675781 95.03125 403.015625 C 99.148438 400.449219 102.78125 392.984375 108.789062 395.601562 C 109.472656 403.105469 102.378906 406.066406 100.0625 411.863281 C 101.535156 414.757812 103.183594 418.0625 105.449219 421.570312 C 107.378906 424.558594 110.597656 428.574219 110.539062 431.300781 C 110.445312 435.625 106.40625 433.859375 104.652344 431.984375 C 101.3125 428.414062 98.835938 422.367188 95.761719 418.65625 C 90.253906 422.394531 87.710938 433.265625 78.417969 430.15625 C 79.992188 429.101562 79.097656 428.617188 78.246094 427.503906 C 82.769531 421.644531 85.71875 414.410156 90.359375 408.648438 C 88.496094 404.265625 84.566406 400.289062 85.351562 395.660156 Z M 85.351562 395.660156 "/>
</g>
</g>
</g>
<g clip-path="url(#clip16)" clip-rule="nonzero">
<g clip-path="url(#clip17)" clip-rule="nonzero">
<g clip-path="url(#clip18)" clip-rule="nonzero">
<path style=" stroke:none;fill-rule:evenodd;fill:rgb(17.248535%,18.818665%,45.878601%);fill-opacity:1;" d="M 150.445312 410.917969 C 151.644531 414.929688 160.308594 417.582031 157.539062 424.070312 C 152.539062 422.789062 150.386719 418.269531 146.875 415.296875 C 142.867188 418.253906 141.027344 427.527344 134.121094 424.421875 C 135.050781 423.355469 135.4375 422.785156 133.96875 422.066406 C 136.21875 417.832031 139.894531 414.839844 141.796875 410.300781 C 139.175781 406.960938 134.417969 402.996094 133.953125 399.273438 C 140.015625 397.660156 142.6875 402.640625 145.09375 406.238281 C 150.722656 404.050781 152.917969 394.972656 159.894531 396.679688 C 160.445312 403.585938 153.359375 406.125 150.445312 410.917969 Z M 150.445312 410.917969 "/>
</g>
</g>
</g>
<g clip-path="url(#clip19)" clip-rule="nonzero">
<g clip-path="url(#clip20)" clip-rule="nonzero">
<g clip-path="url(#clip21)" clip-rule="nonzero">
<path style=" stroke:none;fill-rule:evenodd;fill:rgb(17.248535%,18.818665%,45.878601%);fill-opacity:1;" d="M 1213.414062 76.953125 C 1204.726562 64.316406 1175.59375 64.945312 1180.605469 45.613281 C 1196.929688 45.339844 1208.421875 56.621094 1222.453125 61.824219 C 1235.234375 57.328125 1242.304688 11.09375 1260.285156 26.339844 C 1257.316406 41.988281 1247.546875 54.785156 1239.355469 68.242188 C 1254.289062 77.214844 1272.328125 78.777344 1286.328125 89.980469 C 1287.269531 93.210938 1283.84375 94.609375 1287.367188 97.171875 C 1283.21875 94.183594 1279.128906 98.84375 1275.765625 99.0625 C 1259.363281 100.113281 1243.082031 88.535156 1227.875 84.371094 C 1215.914062 95.960938 1210.890625 117.117188 1193.824219 122.117188 C 1184.636719 103.152344 1206.714844 91.496094 1213.414062 76.953125 Z M 1213.414062 76.953125 "/>
</g>
</g>
</g>
<g clip-path="url(#clip22)" clip-rule="nonzero">
<g clip-path="url(#clip23)" clip-rule="nonzero">
<g clip-path="url(#clip24)" clip-rule="nonzero">
<path style=" stroke:none;fill-rule:evenodd;fill:rgb(17.248535%,18.818665%,45.878601%);fill-opacity:1;" d="M 1309.144531 401.621094 C 1299.265625 385.945312 1310.15625 376.265625 1320.8125 367.324219 C 1309.664062 358.125 1285.117188 354.933594 1286.847656 335.5 C 1307.425781 326.464844 1322.507812 343.691406 1341.078125 344.742188 C 1347.878906 337.851562 1355.671875 330.070312 1363.457031 320.347656 C 1370.078125 312.074219 1378.398438 299.183594 1386.171875 296.765625 C 1398.492188 292.9375 1397.308594 306.023438 1393.664062 312.75 C 1386.714844 325.550781 1371.949219 338.269531 1364.355469 350.457031 C 1380.128906 362.480469 1413.277344 359.375 1413.257812 388.546875 C 1408.789062 385.101562 1408.269531 388.09375 1405.917969 391.550781 C 1385.074219 384.320312 1361.828125 382.835938 1341.160156 375.191406 C 1330.519531 384.597656 1322.980469 399.453125 1309.144531 401.621094 Z M 1309.144531 401.621094 "/>
</g>
</g>
</g>
<g clip-path="url(#clip25)" clip-rule="nonzero">
<g clip-path="url(#clip26)" clip-rule="nonzero">
<g clip-path="url(#clip27)" clip-rule="nonzero">
<path style=" stroke:none;fill-rule:evenodd;fill:rgb(17.248535%,18.818665%,45.878601%);fill-opacity:1;" d="M 1290.847656 203.378906 C 1301.0625 196.195312 1300.378906 169.21875 1321.339844 170.898438 C 1322.4375 186.226562 1311.695312 196.585938 1306.601562 209.3125 C 1318.75 217.824219 1346.71875 214.25 1344.453125 236.6875 C 1340.550781 235.070312 1338.578125 234.523438 1337.929688 239.355469 C 1323.828125 237.007812 1311.902344 229.457031 1297.265625 228.371094 C 1290.292969 238.945312 1283.578125 256.132812 1273.484375 260.960938 C 1263.191406 245.375 1274.757812 233.117188 1282.664062 222.917969 C 1271.167969 209.09375 1243.410156 211.480469 1241.660156 190.167969 C 1260.671875 182.078125 1274.539062 199.675781 1290.847656 203.378906 Z M 1290.847656 203.378906 "/>
</g>
</g>
</g>
</g>
</svg>
